<svg xmlns="http://www.w3.org/2000/svg" xmlns:xlink="http://www.w3.org/1999/xlink" viewBox="0 0 2501 844"><defs><style>.cls-1{fill:#a0c4ff;}.cls-11,.cls-18,.cls-2,.cls-3,.cls-43,.cls-50,.cls-54,.cls-56,.cls-73,.cls-76,.cls-77{fill:#fff;}.cls-2{stroke:#fff;}.cls-10,.cls-11,.cls-14,.cls-16,.cls-17,.cls-18,.cls-19,.cls-2,.cls-20,.cls-27,.cls-28,.cls-34,.cls-35,.cls-37,.cls-38,.cls-39,.cls-42,.cls-43,.cls-46,.cls-47,.cls-48,.cls-50,.cls-51,.cls-52,.cls-53,.cls-54,.cls-58,.cls-59,.cls-6,.cls-60,.cls-61,.cls-62,.cls-63,.cls-67,.cls-68,.cls-72,.cls-75,.cls-76,.cls-8,.cls-81,.cls-82,.cls-83,.cls-84,.cls-85,.cls-9{stroke-miterlimit:10;}.cls-23,.cls-36,.cls-4{fill:#fdffb6;}.cls-5{fill:#bebf89;}.cls-10,.cls-21,.cls-22,.cls-42,.cls-49,.cls-51,.cls-6,.cls-60,.cls-67,.cls-74,.cls-75,.cls-8{fill:none;}.cls-10,.cls-11,.cls-14,.cls-17,.cls-18,.cls-19,.cls-20,.cls-23,.cls-24,.cls-25,.cls-27,.cls-28,.cls-34,.cls-35,.cls-36,.cls-37,.cls-38,.cls-39,.cls-42,.cls-43,.cls-46,.cls-47,.cls-49,.cls-50,.cls-51,.cls-52,.cls-53,.cls-54,.cls-55,.cls-56,.cls-58,.cls-59,.cls-6,.cls-60,.cls-61,.cls-62,.cls-67,.cls-72,.cls-73,.cls-74,.cls-75,.cls-76,.cls-77,.cls-8,.cls-81,.cls-82,.cls-83,.cls-84,.cls-85,.cls-86{stroke:#000;}.cls-7{fill:#7f805b;}.cls-18,.cls-19,.cls-20,.cls-21,.cls-22,.cls-24,.cls-25,.cls-27,.cls-28,.cls-49,.cls-50,.cls-51,.cls-56,.cls-61,.cls-67,.cls-73,.cls-74,.cls-75,.cls-76,.cls-77,.cls-78,.cls-8,.cls-81,.cls-9{stroke-linecap:round;}.cls-9{fill:#e5e5d0;stroke:#ffe7ff;}.cls-10,.cls-11,.cls-46{stroke-width:2px;}.cls-12{fill:#edff00;}.cls-13{fill:#e7a900;}.cls-14,.cls-20{fill:#cfb8d1;}.cls-15{fill:url(#radial-gradient);}.cls-16,.cls-17{fill:#ffc145;}.cls-16{stroke:#5b5916;}.cls-19{fill:#f4f4f4;}.cls-21,.cls-22{stroke:#ddaf52;}.cls-21,.cls-22,.cls-23,.cls-24,.cls-25,.cls-36,.cls-49,.cls-55,.cls-56,.cls-73,.cls-74,.cls-77,.cls-78,.cls-79,.cls-86{stroke-linejoin:round;}.cls-22,.cls-47,.cls-75,.cls-76,.cls-77,.cls-78,.cls-79{stroke-width:4px;}.cls-24{fill:#686868;}.cls-25{fill:#727272;}.cls-26{opacity:0.25;}.cls-28,.cls-59,.cls-61{fill:#823646;}.cls-29,.cls-34{fill:#caffbf;}.cls-30{fill:#bdb2ff;}.cls-31,.cls-35{fill:#ffadad;}.cls-32,.cls-39{fill:#ffc6ff;}.cls-33{opacity:0.47;}.cls-34{stroke-width:8px;}.cls-35,.cls-37,.cls-38,.cls-39,.cls-68{stroke-width:6px;}.cls-36{stroke-width:7px;}.cls-37,.cls-44{fill:#9bf6ff;}.cls-38,.cls-40{fill:#ffd6a5;}.cls-41{fill:#bfa17c;}.cls-42{stroke-width:11px;}.cls-43{stroke-width:9px;}.cls-45{fill:#045ba3;}.cls-46,.cls-47{fill:#bf8b64;}.cls-48{fill:#ffb985;stroke:#ffb985;}.cls-49,.cls-50,.cls-51,.cls-52,.cls-53,.cls-54,.cls-55,.cls-56,.cls-58,.cls-59,.cls-60,.cls-61,.cls-81,.cls-82{stroke-width:3px;}.cls-52{fill:#0d4c15;}.cls-53{fill:#2ef0ff;}.cls-55{fill:#1aaa27;}.cls-57{fill:#bf95bf;}.cls-62{fill:#5b2525;}.cls-63{fill:#bef908;stroke:#bef908;}.cls-64{fill:url(#radial-gradient-2);}.cls-65{fill:url(#radial-gradient-3);}.cls-66{fill:#74b9bf;}.cls-67,.cls-73{stroke-width:5px;}.cls-68{fill:#118e43;stroke:#118e43;}.cls-69{fill:url(#radial-gradient-4);}.cls-70{fill:url(#radial-gradient-5);}.cls-71{fill:#bf8282;}.cls-72{fill:#c7666e;stroke-width:10px;}.cls-78,.cls-79{fill:#ff0303;stroke:#ff0303;}.cls-80{fill:#98bf8f;}.cls-82,.cls-83{fill:#abffe9;}.cls-84{fill:#1e6042;}.cls-85,.cls-86{fill:#164832;}</style><radialGradient id="radial-gradient" cx="231.68" cy="379.03" r="19.5" gradientTransform="translate(0 306.43) scale(1 0.19)" gradientUnits="userSpaceOnUse"><stop offset="0" stop-color="#fff" stop-opacity="0"/><stop offset="0.54" stop-color="#d9e021"/><stop offset="0.98" stop-color="#fff" stop-opacity="0"/></radialGradient><radialGradient id="radial-gradient-2" cx="-436.54" cy="988.6" r="17.65" gradientTransform="translate(986.06 -458.08) scale(1.23 0.98)" gradientUnits="userSpaceOnUse"><stop offset="0" stop-color="#bef908"/><stop offset="0.83" stop-color="#fff" stop-opacity="0"/></radialGradient><radialGradient id="radial-gradient-3" cx="-532.17" cy="988.94" r="15.64" gradientTransform="translate(988.01 -437.05) scale(1.23 0.98)" xlink:href="#radial-gradient-2"/><radialGradient id="radial-gradient-4" cx="699.06" cy="1904.67" r="9.94" gradientTransform="translate(-341.86 -1082.11) rotate(-16.21)" gradientUnits="userSpaceOnUse"><stop offset="0.12" stop-color="#fff" stop-opacity="0"/><stop offset="0.51" stop-color="#caffbf"/><stop offset="0.97" stop-color="#fff" stop-opacity="0"/></radialGradient><radialGradient id="radial-gradient-5" cx="1076.38" cy="1944.11" r="13.38" gradientTransform="translate(101.58 -1396.73) scale(0.85 0.98)" xlink:href="#radial-gradient-4"/></defs><g id="Layer_2" data-name="Layer 2"><g id="Layer_26" data-name="Layer 26"><rect class="cls-1" width="2500" height="844"/><circle class="cls-2" cx="1578.72" cy="288.14" r="118.44"/><ellipse class="cls-2" cx="1706.67" cy="320.04" rx="109.28" ry="86.54"/><ellipse class="cls-2" cx="1809.84" cy="348.21" rx="84.85" ry="58.37"/><ellipse class="cls-2" cx="1448.06" cy="345.49" rx="69.91" ry="57.69"/><ellipse class="cls-2" cx="1684.73" cy="393.69" rx="381.24" ry="28.5"/><circle class="cls-2" cx="2177.89" cy="547.47" r="80.47"/><ellipse class="cls-2" cx="2264.81" cy="569.14" rx="74.24" ry="58.8"/><ellipse class="cls-2" cx="2334.9" cy="588.28" rx="57.64" ry="39.66"/><ellipse class="cls-2" cx="2089.12" cy="586.44" rx="47.5" ry="39.2"/><ellipse class="cls-2" cx="2219.16" cy="621.48" rx="228.26" ry="17.06"/><path class="cls-2" d="M1930.26.5a115.84,115.84,0,0,1-54.84,89.24,115.2,115.2,0,0,1-60.7,17.16A115.94,115.94,0,0,1,1699.17.5Z"/><path class="cls-2" d="M2047,22.18c0,46.79-47.9,84.72-107,84.72-24.25,0-46.61-6.39-64.55-17.16-25.78-15.46-42.43-40-42.43-67.56A68.26,68.26,0,0,1,1836.53.5h206.88A68.26,68.26,0,0,1,2047,22.18Z"/><path class="cls-2" d="M2151.24,41.25c0,31.56-37.19,57.14-83.06,57.14s-83.06-25.58-83.06-57.14c0-16,9.51-30.39,24.84-40.75H2126.4C2141.73,10.86,2151.24,25.29,2151.24,41.25Z"/><path class="cls-2" d="M1823.25,35.1c0,31.19-30.65,56.48-68.44,56.48s-68.44-25.29-68.44-56.48c0-13,5.35-25,14.35-34.6H1808.9C1817.9,10.06,1823.25,22.06,1823.25,35.1Z"/><ellipse class="cls-2" cx="1874.18" cy="97.59" rx="328.91" ry="24.59"/><path class="cls-2" d="M2385.09,30a145.4,145.4,0,0,1-69.32,124,144.73,144.73,0,0,1-76.2,21.53A145.61,145.61,0,0,1,2097.07.5h285A145.24,145.24,0,0,1,2385.09,30Z"/><path class="cls-3" d="M2501,137.22l-.5.48a132.89,132.89,0,0,1-37,24.27,161.59,161.59,0,0,1-65.7,13.59c-30.42,0-58.48-8-81-21.53a124.47,124.47,0,0,1-26.36-20.95c-16.89-17.77-26.9-39.88-26.9-63.84,0-26.21,12-50.2,31.82-68.74L2383,0h118V136.32"/><path class="cls-3" d="M2500,137.22v36.5l-.5-.08a129.88,129.88,0,0,1-37-11.67c-14.28-7.1-25.84-16.64-33.38-27.73a53.55,53.55,0,0,1-9.81-30.4c0-33.92,34.23-62.34,80.22-69.79l.5-.08V136.32"/><ellipse class="cls-2" cx="2079.05" cy="100.51" rx="85.89" ry="70.88"/><path class="cls-3" d="M2500,137.22v54.22l-.5,0c-55.72,2.1-118.66,3.28-185.29,3.28-228,0-412.79-13.82-412.79-30.86,0-8,41.27-15.38,108.86-20.88,36.33-2.95,80.25-5.37,129.46-7.09l14.05-.47c42.1-1.32,87.76-2.14,135.62-2.36q12.3,0,24.8-.05,14.16,0,28.09.07c29.92.15,59,.54,86.79,1.14,24.48.53,48,1.22,70.41,2.06l.5,0"/><circle class="cls-2" cx="503.02" cy="188.61" r="118.44"/><ellipse class="cls-2" cx="630.96" cy="220.51" rx="109.28" ry="86.54"/><ellipse class="cls-2" cx="734.13" cy="248.68" rx="84.85" ry="58.37"/><ellipse class="cls-2" cx="372.35" cy="245.96" rx="69.91" ry="57.69"/><ellipse class="cls-2" cx="563.76" cy="297.55" rx="335.99" ry="25.11"/><circle class="cls-2" cx="1126.54" cy="205.45" r="60.07"/><ellipse class="cls-2" cx="1191.44" cy="221.63" rx="55.43" ry="43.89"/><ellipse class="cls-2" cx="1243.76" cy="235.92" rx="43.03" ry="29.61"/><ellipse class="cls-2" cx="1060.27" cy="234.54" rx="35.46" ry="29.26"/><ellipse class="cls-2" cx="1157.35" cy="260.71" rx="170.41" ry="12.74"/><circle class="cls-2" cx="201.76" cy="439.7" r="60.07"/><ellipse class="cls-2" cx="266.66" cy="455.88" rx="55.43" ry="43.89"/><ellipse class="cls-2" cx="318.98" cy="470.17" rx="43.03" ry="29.61"/><ellipse class="cls-2" cx="135.49" cy="468.79" rx="35.46" ry="29.26"/><ellipse class="cls-2" cx="232.57" cy="494.96" rx="170.41" ry="12.74"/><path class="cls-3" d="M158.45,38A81.52,81.52,0,0,1,25.51,101.29C24,100,22.45,98.71,21,97.34A81.5,81.5,0,0,1,0,65.07V11A80.19,80.19,0,0,1,4.8,0H149.05A81.12,81.12,0,0,1,158.45,38Z"/><ellipse class="cls-2" cx="164.99" cy="60.48" rx="75.22" ry="59.57"/><ellipse class="cls-2" cx="236.01" cy="79.87" rx="58.4" ry="40.18"/><path class="cls-3" d="M35.11,78a34.32,34.32,0,0,1-6.25,19.58,39.39,39.39,0,0,1-3.35,4.21A49.29,49.29,0,0,1,0,116.23V39.77C20.26,44.44,35.11,59.79,35.11,78Z"/><path class="cls-3" d="M350,113.51c0,9.55-103.54,17.28-231.26,17.28-43.41,0-84-.89-118.74-2.45V98.67q10.17-.45,21-.83l7.86-.26c27.63-.88,58-1.36,89.88-1.36q7.94,0,15.73,0C254.86,96.86,350,104.36,350,113.51Z"/><path class="cls-2" d="M1466.23,24A50,50,0,1,1,1372.15.5h88.24A49.69,49.69,0,0,1,1466.23,24Z"/><ellipse class="cls-2" cx="1470.24" cy="37.42" rx="46.09" ry="36.5"/><ellipse class="cls-2" cx="1513.76" cy="49.3" rx="35.79" ry="24.62"/><ellipse class="cls-2" cx="1361.16" cy="48.15" rx="29.49" ry="24.34"/><ellipse class="cls-2" cx="1441.9" cy="69.91" rx="141.72" ry="10.59"/><circle class="cls-2" cx="2377.47" cy="416.98" r="33.98"/><ellipse class="cls-2" cx="2414.17" cy="426.13" rx="31.35" ry="24.82"/><ellipse class="cls-2" cx="2443.76" cy="434.21" rx="24.34" ry="16.74"/><ellipse class="cls-2" cx="2339.99" cy="433.43" rx="20.05" ry="16.55"/><ellipse class="cls-2" cx="2394.89" cy="448.22" rx="96.38" ry="7.2"/><path class="cls-2" d="M1017.75,11.59a101.7,101.7,0,0,1-48.48,86.72A101.26,101.26,0,0,1,916,113.37,101.78,101.78,0,0,1,814.19,11.59,99.06,99.06,0,0,1,814.8.5h202.34A99.06,99.06,0,0,1,1017.75,11.59Z"/><path class="cls-2" d="M1119.83,39c0,41.07-42,74.37-93.91,74.37-21.28,0-40.9-5.61-56.65-15.06C946.63,84.74,932,63.22,932,39c0-14.09,5-27.27,13.55-38.5h160.72C1114.88,11.73,1119.83,24.91,1119.83,39Z"/><ellipse class="cls-2" cx="1114.58" cy="63.21" rx="72.91" ry="50.16"/><ellipse class="cls-2" cx="803.69" cy="60.87" rx="60.08" ry="49.58"/><ellipse class="cls-2" cx="968.18" cy="105.2" rx="288.72" ry="21.58"/><path class="cls-4" d="M242.85,427.54h.09a17.57,17.57,0,0,1,17.57,17.57V453a0,0,0,0,1,0,0h-4.19a19.47,19.47,0,0,1-19.47-19.47v0A6,6,0,0,1,242.85,427.54Z" transform="translate(688.95 191.6) rotate(90)"/><path class="cls-5" d="M242.67,433a15.92,15.92,0,0,1,5.79,1.51,15.52,15.52,0,0,1,4.95,3.59,11,11,0,0,1,2.74,5.59,10.39,10.39,0,0,1-.76,6,18.28,18.28,0,0,0-.75-5.62,13,13,0,0,0-2.72-4.61,22.15,22.15,0,0,0-4.22-3.57A54,54,0,0,0,242.67,433Z"/><path class="cls-5" d="M246.33,431.35a12.55,12.55,0,0,1,4.89,1.25,13.51,13.51,0,0,1,4.19,3,10.25,10.25,0,0,1,2.49,4.61,9.15,9.15,0,0,1-.22,5.09,19.52,19.52,0,0,0-1.26-4.6,13.82,13.82,0,0,0-2.48-3.75A32.67,32.67,0,0,0,246.33,431.35Z"/><path class="cls-5" d="M250.13,429.45a13.3,13.3,0,0,1,9.31,11.13s.84-8.45,0-9C257.14,430.12,261.65,429.51,250.13,429.45Z"/><path class="cls-5" d="M247.42,433.87c-.49-1.49,1.32-1.79,1.82-1.64s.82-.74.82-.74.12-.94,1.73-1.27a3,3,0,0,1,2.15.15s-5-1.86-6.43-.3a9.56,9.56,0,0,1-3.28,2.23l2.2,2.29Z"/><path class="cls-6" d="M242.92,427.59H243a17.57,17.57,0,0,1,17.57,17.57v7.9a0,0,0,0,1,0,0h-4.19a19.47,19.47,0,0,1-19.47-19.47v0a6,6,0,0,1,6-6Z" transform="translate(689.07 191.58) rotate(90)"/><path class="cls-4" d="M217.53,435.73s-24.78,22-7.79,29.4c0,0,40.49,3.44,45.09-.77s3.19-17.75-11-30.78S217.53,435.73,217.53,435.73Z"/><path class="cls-5" d="M204.37,453.86s1.76-1.9,2.78.14a33,33,0,0,1,1.74,6.63.37.37,0,0,1-.59.36,6.09,6.09,0,0,0-3.63-1.43C202.62,459.7,204.37,453.86,204.37,453.86Z"/><path class="cls-7" d="M209.64,463.65s30.54,1.36,31.64,1.27-.44,1.8-2.37,1.65-28.78-1.29-29.17-1.44S209.64,463.65,209.64,463.65Z"/><path class="cls-5" d="M236,433.25s14,11.11,15.79,30.4c0,0,4.15,3.29,5.43-4.2,0,0,2-12.69-14.86-27.34h0Z"/><path class="cls-5" d="M221.4,433a4.46,4.46,0,0,1,3.66,2.48c1,2.34,9.35,4.53,13.3,2.34s5.56-1,5.56-1l-3.66-3.8L221.4,431.9Z"/><path class="cls-6" d="M217.63,435.8s-24.78,22-7.79,29.39c0,0,40.49,3.45,45.09-.76s3.19-17.76-11-30.78S217.63,435.8,217.63,435.8Z"/><path class="cls-4" d="M211,465.26c-.39-.71-10.69-.12-14.91,1s-4.15-2.14-4.15-2.14l-1-6s-1.19-4.7,1.77-5.13,3.21,3.82,3.6,6.06,3.2,1.44,3.2,1.44l7.62-1.13Z"/><path class="cls-7" d="M196.63,465.55s6.85-3,13.8-1.86l.32,1.43Z"/><path class="cls-5" d="M194.87,454.59s-.88-2.93-1-1c0,0,.73,6.29,2.05,7.75,1.48,1.66,7-.73,7-.73s-5.7.44-6.14-.29S194.87,454.59,194.87,454.59Z"/><path class="cls-8" d="M206.86,459.56l-7.37,1.05s-2.81.79-3.2-1.44-.65-6.49-3.61-6.06-1.77,5.12-1.77,5.12l1,6s-.06,3.27,4.15,2.14,14.52-1.72,14.91-1"/><path class="cls-4" d="M239.62,466.24s6.45,1.07,7.95,2.15,6,0,5.8-1.08,4.3-14.61-4.51-10.53a8.74,8.74,0,0,0-1.93,6.45Z"/><path class="cls-9" d="M246.69,462.85s1.09-5.8,2.12-5.79c.55,0,3.44-.79,2.42-.35-.63.26-1.6,3.2-1.83,4.31-.35,1.63-.29,3.44-.66,3.73S247.57,463.8,246.69,462.85Z"/><path class="cls-7" d="M249.69,468.48c.35.08.21-1.68.24-2l.64-7s1-4.91,3.36-1.17c.11.17,0-.48.07-.29a14.25,14.25,0,0,1-1.53,9.5s-1,2.4-8.23-.19c0,0-3.9-.25-3.9-1.42,0-.41,1-.87,1-.87s4.36.2,4.68.73c.43.73.39,1.1,1.75,1.46C248.58,467.37,248.52,468.18,249.69,468.48Z"/><path class="cls-8" d="M240,466.43s6,.85,7.5,1.92,5.4-.05,5.8-1.07,3.53-12.3-2.46-11.23a4.44,4.44,0,0,0-3.2,2.52,8.58,8.58,0,0,0-.79,4.62"/><path class="cls-4" d="M267.81,398.49a27,27,0,0,1-.58,4.25c-2.65,12.1-12.52,20.31-19.8,25.43-2.93,2.05-5.43,3.61-6.89,4.72a8.42,8.42,0,0,0-.92.79c-3.64,3.74-7.38,3.67-10.27,2.59a13.93,13.93,0,0,1-3.11-1.67c-.49-.35-.91-.68-1.24-1a6,6,0,0,0-2.09-1.19c-4.44-1.51-19.69-7.49-24.08-20.11a39.12,39.12,0,0,1-2.28-12,29.81,29.81,0,0,1,.13-3.63,16.31,16.31,0,0,1,5.58-9c6.37-5.63,17.38-9.36,29.88-9.36a59.74,59.74,0,0,1,11.42,1.08C257.41,382.13,267.45,389.61,267.81,398.49Z"/><path class="cls-5" d="M236,378.47s53.44,17.94-2.25,57.11c0,0-3.21.32-1.53,1.33s7.62-3.45,7.62-3.45S257,421.5,257.28,420s17-14.81,7.47-29.72C264.75,390.27,253,378.21,236,378.47Z"/><path class="cls-4" d="M220.64,441.62s0,14-.5,17.24-1.5-.58-1.5-.58-1.41,6.43-2.58.58,1.5-17.24,1.5-17.24-.77-1.24-1.73.95"/><path d="M220.64,441.62c.19,1.74.31,3.48.41,5.23s.17,3.49.19,5.23,0,3.5,0,5.27c0,.45,0,.89-.1,1.36a5.78,5.78,0,0,1-.33,1.54,1.49,1.49,0,0,1-.54.68,1.2,1.2,0,0,1-.92.15,1.1,1.1,0,0,1-.34-.15,1,1,0,0,1-.21-.16,2.71,2.71,0,0,1-.57-.86,8.44,8.44,0,0,1-.49-1.38l1.9,0c-.12.53-.25,1-.42,1.54a5.6,5.6,0,0,1-.79,1.63,1.72,1.72,0,0,1-.64.52,1.38,1.38,0,0,1-.67.13,1.56,1.56,0,0,1-.64-.22,2.23,2.23,0,0,1-.78-1,8.83,8.83,0,0,1-.47-1.6,21.36,21.36,0,0,1-.23-6.16,48.86,48.86,0,0,1,.88-5.94,57.15,57.15,0,0,1,1.49-5.79l0,.18a.6.6,0,0,0-.33-.28.61.61,0,0,0-.45.14,3.64,3.64,0,0,0-.75,1,3.35,3.35,0,0,1,.57-1.15.91.91,0,0,1,.67-.34,1,1,0,0,1,.69.41l.05.06v.12a113.85,113.85,0,0,0-1.11,11.71,23.24,23.24,0,0,0,.4,5.64,7.49,7.49,0,0,0,.38,1.23c0,.16.22.33.05.17l-.11-.05a.53.53,0,0,0-.18,0,.67.67,0,0,0-.32.05c-.14.08-.1.07-.09,0a3.84,3.84,0,0,0,.48-1,12.44,12.44,0,0,0,.39-1.32l.91-3.79,1,3.75a9.76,9.76,0,0,0,.36,1.08c.06.14.18.32.12.25l-.08-.06a.43.43,0,0,0-.19-.08.78.78,0,0,0-.61.1c-.24.19-.17.18-.17.15a4.54,4.54,0,0,0,.24-1c.06-.39.1-.82.15-1.24.15-1.7.27-3.44.38-5.17l.38-5.21C220.3,445.1,220.45,443.36,220.64,441.62Z"/><path class="cls-4" d="M243.07,442c-1.48-2.19-2.66-.95-2.66-.95s4.08,11.4,2.3,17.25-4-.59-4-.59-1.53,3.8-2.3.59-.77-17.25-.77-17.25"/><path d="M243.07,442a3.28,3.28,0,0,0-1.22-1,1.19,1.19,0,0,0-.69-.08,1,1,0,0,0-.54.32l.06-.3a48.85,48.85,0,0,1,2.08,5.88A36.32,36.32,0,0,1,244,453a20.56,20.56,0,0,1,.06,3.24,9.63,9.63,0,0,1-.24,1.66,9.39,9.39,0,0,1-.48,1.62,4.53,4.53,0,0,1-1,1.68,1.85,1.85,0,0,1-1.46.52,2.19,2.19,0,0,1-1.25-.61,5.66,5.66,0,0,1-1.07-1.54,11.45,11.45,0,0,1-.67-1.56l1.83.06a7.7,7.7,0,0,1-.73,1.35,3.14,3.14,0,0,1-.61.7,1.63,1.63,0,0,1-.65.35,1.35,1.35,0,0,1-1-.1,2.6,2.6,0,0,1-.38-.27,2.35,2.35,0,0,1-.19-.25,1.77,1.77,0,0,1-.25-.46,5.18,5.18,0,0,1-.26-.79,13.36,13.36,0,0,1-.21-1.43c-.19-1.84-.19-3.62-.2-5.42,0-3.58.16-7.15.51-10.71.38,3.56.63,7.11.92,10.65.15,1.77.3,3.55.54,5.25a8.24,8.24,0,0,0,.23,1.2,2,2,0,0,0,.17.47c0,.07.06.13.07.12s0,0,0,0a.24.24,0,0,0-.09-.08s-.11-.05-.19-.06l-.18,0c-.11.05-.07,0-.07,0a2.9,2.9,0,0,0,.25-.31,6.26,6.26,0,0,0,.51-1l1-2.34.87,2.39a7,7,0,0,0,1.25,2.26c.11.1.18.11.1.09s-.16.06-.08,0a2.91,2.91,0,0,0,.56-.94,13.89,13.89,0,0,0,.72-5.66,45.9,45.9,0,0,0-.75-6c-.37-2-.82-4-1.33-6l-.06-.2.12-.09a1.5,1.5,0,0,1,1.79-.12A3.45,3.45,0,0,1,243.07,442Z"/><path class="cls-10" d="M267.86,398.44a27,27,0,0,1-.58,4.25c-2.65,12.1-12.52,20.3-19.8,25.42-2.92,2.06-5.43,3.62-6.89,4.73a9.49,9.49,0,0,0-.92.79c-3.64,3.74-7.38,3.67-10.27,2.59a13.93,13.93,0,0,1-3.11-1.67c-.49-.35-.91-.69-1.24-1a6.09,6.09,0,0,0-2.08-1.19c-4.45-1.51-19.7-7.49-24.09-20.11a39.12,39.12,0,0,1-2.28-12,31.88,31.88,0,0,1,.13-3.63,16.28,16.28,0,0,1,5.59-9c6.37-5.63,17.37-9.36,29.87-9.36a59.67,59.67,0,0,1,11.42,1.08C257.46,382.08,267.5,389.56,267.86,398.44Z"/><ellipse class="cls-4" cx="210.3" cy="414.51" rx="14" ry="13.82"/><ellipse class="cls-4" cx="249.46" cy="413.75" rx="13.44" ry="13.27"/><path class="cls-5" d="M251.71,400.59s12.14,11.82,3.35,25.16c0,0,8.87-3.83,7.74-13.67C262.8,412.08,262.87,403.74,251.71,400.59Z"/><path class="cls-5" d="M224.32,414.48a13.92,13.92,0,0,1-14,13.83,15.2,15.2,0,0,1-2.26-.18,13.8,13.8,0,0,0,.08-27.3,14.25,14.25,0,0,1,2.18-.17A13.91,13.91,0,0,1,224.32,414.48Z"/><circle class="cls-11" cx="210.41" cy="414.42" r="14.06"/><circle class="cls-11" cx="248.39" cy="413.54" r="13.59"/><ellipse class="cls-12" cx="212.46" cy="414.41" rx="10.61" ry="11.27" transform="translate(-210.21 609.91) rotate(-87.68)"/><ellipse class="cls-12" cx="246.42" cy="413.37" rx="10.26" ry="10.89" transform="translate(-176.6 642.83) rotate(-87.68)"/><ellipse class="cls-13" cx="213.86" cy="414.48" rx="9.3" ry="9.87" transform="translate(-208.94 611.37) rotate(-87.68)"/><ellipse class="cls-13" cx="245.07" cy="413.28" rx="8.99" ry="9.54" transform="matrix(0.04, -1, 1, 0.04, -177.8, 641.41)"/><circle cx="215.44" cy="414.44" r="8.47"/><circle cx="243.71" cy="413.35" r="8.19"/><path d="M202.66,397.57a9.11,9.11,0,0,1,3.29-2.9,10.62,10.62,0,0,1,4.32-1.28,9.73,9.73,0,0,1,4.47.71,9.32,9.32,0,0,1,3.59,2.55c-.74-.16-1.38-.44-2.06-.6a18,18,0,0,0-2-.45,14.11,14.11,0,0,0-3.88-.21,17.35,17.35,0,0,0-3.86.71A34.18,34.18,0,0,0,202.66,397.57Z"/><circle class="cls-2" cx="218.92" cy="410.34" r="2.64"/><circle class="cls-2" cx="252.01" cy="410.89" r="2.61"/><ellipse class="cls-2" cx="207.45" cy="419.31" rx="0.91" ry="2.7" transform="translate(-219.93 609.6) rotate(-87.68)"/><ellipse class="cls-2" cx="241.66" cy="418.94" rx="0.88" ry="2.61" transform="translate(-186.73 643.43) rotate(-87.68)"/><path d="M255.75,397.07a29.74,29.74,0,0,0-4.05-1.42,13.24,13.24,0,0,0-4-.42,11.14,11.14,0,0,0-3.86.83c-.65.21-1.24.58-1.9.87s-1.22.74-1.92,1.07a11.7,11.7,0,0,1,1.32-1.84,9.4,9.4,0,0,1,1.78-1.48,8.64,8.64,0,0,1,4.49-1.45,9.58,9.58,0,0,1,4.59,1A9.17,9.17,0,0,1,255.75,397.07Z"/><path class="cls-12" d="M210.19,415s.28,1.23-.65,1.44c0,0,1-.36,1.08.65,0,0-.07-.86.58-.86S210.55,416.87,210.19,415Z"/><path class="cls-12" d="M215,403.9s.57,2.41-1.27,2.83c0,0,2-.71,2.12,1.27,0,0-.14-1.69,1.13-1.69S215.68,407.58,215,403.9Z"/><path class="cls-12" d="M218.86,417.69s.29,1.22-.65,1.44c0,0,1-.36,1.09.65,0,0-.07-.87.57-.87S219.23,419.56,218.86,417.69Z"/><path class="cls-12" d="M239.81,408.07s.29,1.23-.65,1.44c0,0,1-.36,1.09.65,0,0-.07-.86.58-.86S240.18,410,239.81,408.07Z"/><path class="cls-12" d="M239.67,414.86s.29,1.23-.65,1.45c0,0,1-.36,1.09.65,0,0-.08-.87.57-.87S240,416.74,239.67,414.86Z"/><path class="cls-12" d="M246.32,407s.56,2.41-1.28,2.83c0,0,2-.7,2.13,1.28,0,0-.15-1.7,1.13-1.7S247,410.71,246.32,407Z"/><path class="cls-14" d="M235.77,380.92l.43,0a6.12,6.12,0,0,0-.17.62h0l-.35,0s0-.07,0-.11A2.57,2.57,0,0,1,235.77,380.92Z"/><path class="cls-14" d="M227.09,381.48h-.41s0-.2-.13-.51l.49,0A2.17,2.17,0,0,1,227.09,381.48Z"/><ellipse class="cls-15" cx="231.68" cy="379.03" rx="19.48" ry="3.77"/><path class="cls-16" d="M242.64,378.88c0,.87-2.62,1.63-6.44,2l-.43,0c-1.5.13-3.17.2-4.93.2-1.33,0-2.61,0-3.8-.12l-.49,0c-4.39-.33-7.51-1.14-7.51-2.09s2.3-1.54,5.74-1.93a4.85,4.85,0,0,1,.34.5c-3,.3-4.9.82-4.9,1.41s2.52,1.26,6.15,1.52l.53,0c1.22.08,2.56.12,4,.12,1.82,0,3.54-.07,5-.2l.46,0c3.08-.3,5.14-.83,5.14-1.44s-1.63-1-4.16-1.33c.07-.17.14-.33.22-.5C240.63,377.44,242.64,378.11,242.64,378.88Z"/><path class="cls-16" d="M230.82,376.63c-2,0-3.82.09-5.45.25l.26.52c1.54-.14,3.32-.22,5.22-.22a56.62,56.62,0,0,1,6.06.3l.21-.5A53.51,53.51,0,0,0,230.82,376.63Z"/><path class="cls-17" d="M243.21,372.92s-3.55.85-4.83,2.64a8.74,8.74,0,0,0-.81,1.47c-.08.17-.15.33-.22.5a27.85,27.85,0,0,0-1,2.77l-.46,0a27.62,27.62,0,0,1,1-2.86c.06-.17.13-.34.2-.5.36-.87.72-1.64,1-2.11.7-1.32,5.41-3.58,5.8-3.08S243.21,372.92,243.21,372.92Z"/><path class="cls-17" d="M226.9,380.42l-.53,0a13.63,13.63,0,0,0-1.25-2.93,4.85,4.85,0,0,0-.34-.5l-.16-.2c-1.29-1.47-5.31-2.38-5.31-2.38s-1.19-.56-.67-.92,5.72,1.73,6.39,2.8c.11.17.23.38.37.63l.26.52A19.82,19.82,0,0,1,226.9,380.42Z"/><path class="cls-18" d="M218.14,433.37a9.61,9.61,0,0,1,5.79,7.88c.92,6.23,2.13,17.32,2.13,17.32s-5.67,1.13-5.44-3.83c.39-8.46-4.38-20.14-4.85-1.64-.07,2.65-3.84,7.44-6.72,6.08a10.26,10.26,0,0,0-6.08-.61s-7.29,3-2.13-4.56S214.31,433.24,218.14,433.37Z"/><path class="cls-19" d="M258.64,456.18s-.33-11.4-12.5-22.81"/><path class="cls-18" d="M246.14,433.37s-12.62,2.45-12.77,6.4-.15,18.54-1.22,19.6c-.49.49,5.11,3.56,4.82.58-2.88-29.64,7.85-16.25,6.44-3.49-.3,2.69,8.33-1.54,8.33-1.54s7.59-1.21,3.34,11.25c-1.38,4,19.6,1.82,19.14-3.2s-15.58-6.79-15.58-6.79"/><path class="cls-20" d="M258.37,454.58s0,3.84,1.72,5.72"/><path d="M258.76,458.5a5.33,5.33,0,0,1,2,0,5.54,5.54,0,0,1,1.95.71,3.05,3.05,0,0,1,1.39,1.71,2.47,2.47,0,0,1-.39,2.05,3.84,3.84,0,0,0-.34-1.77,3.26,3.26,0,0,0-1.19-1.14A26.42,26.42,0,0,0,258.76,458.5Z"/><path d="M266.93,461.46a1.85,1.85,0,0,1,.59,1,2.15,2.15,0,0,1-.12,1.27,1.82,1.82,0,0,1-.93.94,1.75,1.75,0,0,1-1.21.09c.3-.3.57-.5.77-.74a2,2,0,0,0,.45-.69A8.54,8.54,0,0,0,266.93,461.46Z"/><path class="cls-3" d="M242.77,438.36s5.32,9.73,5.17,12c0,0-6-4.4-12.6,1.4-.35.31,1-8.39-.77-10.67"/><path d="M242.77,438.36q1.72,2.81,3.23,5.73c.5,1,1,2,1.41,3,.22.51.43,1,.61,1.56a5.18,5.18,0,0,1,.35,1.75v.77l-.69-.44a9.55,9.55,0,0,0-5.55-1.44,10.24,10.24,0,0,0-5.41,2c-.2.15-.41.29-.6.45l-.29.23-.14.12,0,0h0l-.09.05a.37.37,0,0,1-.21.06.47.47,0,0,1-.34-.13.25.25,0,0,1-.08-.1.69.69,0,0,1-.09-.29,15.44,15.44,0,0,1,.1-1.61c.09-1,.2-2,.26-3s.07-2,.05-3a6.27,6.27,0,0,0-.67-2.93,5.8,5.8,0,0,1,1.06,2.89,21.31,21.31,0,0,1,.22,3.09c0,1,0,2.07-.06,3.09,0,.49-.07,1.06,0,1.46,0,0,0,.07-.05-.11l-.07-.08a.45.45,0,0,0-.32-.12.53.53,0,0,0-.19.05l-.08.05h0l0,0,.15-.13.3-.25c.2-.18.42-.33.62-.49a11,11,0,0,1,5.93-2.23A10.05,10.05,0,0,1,248.2,450l-.7.33a5.18,5.18,0,0,0-.26-1.46c-.14-.51-.32-1-.51-1.53-.37-1-.8-2-1.24-3C244.62,442.34,243.7,440.35,242.77,438.36Z"/><path class="cls-3" d="M214.82,440l-5.77,9.88s7.74-4.41,15.49,0l-3.19-10.48"/><path d="M214.82,440c-.43.86-.87,1.71-1.31,2.55s-.88,1.7-1.34,2.53l-2.76,5-.58-.59A17,17,0,0,1,212.7,448a17.61,17.61,0,0,1,4.1-.56,14.71,14.71,0,0,1,4.12.49,16,16,0,0,1,3.83,1.58l-.61.49-1.45-5.28c-.24-.88-.45-1.78-.68-2.66s-.45-1.77-.66-2.66c.33.85.64,1.71.94,2.57s.62,1.72.91,2.59l1.75,5.2a.42.42,0,0,1-.27.52.37.37,0,0,1-.31,0h0a14.63,14.63,0,0,0-3.64-1.39,13.65,13.65,0,0,0-3.87-.43,17.65,17.65,0,0,0-3.89.5,18.21,18.21,0,0,0-3.67,1.32l0,0a.43.43,0,0,1-.57-.19.42.42,0,0,1,0-.42l3-4.86c.49-.81,1-1.6,1.54-2.4S214.28,440.82,214.82,440Z"/><path class="cls-21" d="M258.27,466.5a21.74,21.74,0,0,0,4.56,0"/><path class="cls-21" d="M268,465.59s2.12-.3,2.73-1.82-.61-2-.61-2"/><path class="cls-21" d="M265,458.91s3.19.91,3.34,1.36"/><line class="cls-21" x1="260.1" y1="457.54" x2="263.59" y2="458.45"/><line class="cls-21" x1="234.5" y1="457.61" x2="236.02" y2="457.61"/><path class="cls-21" d="M244.53,455.79s2.27-2.43,3.64-2.13"/><path class="cls-22" d="M201.23,456.55s4.1-.76,5.16-.3"/><polyline class="cls-22" points="208.82 456.55 210.34 457.16 211.1 454.73"/><line class="cls-21" x1="221.58" y1="455.49" x2="223.41" y2="456.55"/><path class="cls-23" d="M216,433.53s-3.65,2-7.29,8.06,1.8.85,1.8.85,1.86-5,2.69-3,2.5-2.39,3.56-.87,5-2.37,5-2.37S219.53,432.17,216,433.53Z"/><path class="cls-23" d="M240.8,435s4.41,4.31,5.32,3.55a1.66,1.66,0,0,1,2.43.6c.15.61,1.74,1.83,2.39,1s.44,2.73,2.22,2.62-1.11-5-3.24-6.8-2.14-4.51-9.12-1"/><path class="cls-23" d="M226.37,456.47s3.34-1.26,5.77,0l1.07-16.86c-4.26,11-9.88-1.21-9.88-1.21Z"/><path class="cls-24" d="M209,449.89s4-2,7-1.91v3.08A48.64,48.64,0,0,1,209,449.89Z"/><path class="cls-24" d="M220.08,448.24s3.68.86,4.22,1.65a24.4,24.4,0,0,1-3.83.82Z"/><polygon class="cls-25" points="235.35 451.76 236.5 452.73 236.6 450.81 235.35 451.76"/><path class="cls-25" d="M242.71,449a37.39,37.39,0,0,1,.7,3.76,32.79,32.79,0,0,0,4.54-1.95C248.08,450.7,245.56,448.85,242.71,449Z"/><path class="cls-26" d="M242.71,434.11s8.95,12.93,10.46,21.23c0,0,4.87-.82,2.57,9,0,0,.83,3.66,9.83,1.62s7.41-4.54,6.8-5.32-5.78-3.06-12.75-3.76l-1.33-2.27s-6.55-20.74-11.42-20.91S242.71,434.11,242.71,434.11Z"/><path class="cls-27" d="M234.38,427.08a2.16,2.16,0,0,1-.29,1.08,5,5,0,0,0-2.15-.46,5.24,5.24,0,0,0-1.45.2,3.38,3.38,0,0,0-1.12-.2,3,3,0,0,0-1.3.28,2.15,2.15,0,0,1-.2-.9c0-1.45,1.46-2.63,3.26-2.63S234.38,425.63,234.38,427.08Z"/><path class="cls-28" d="M234.09,428.16a1,1,0,0,1-.08.14l-.08.12a3.35,3.35,0,0,1-2.05,1.22,4.76,4.76,0,0,1-.75.07,3.65,3.65,0,0,1-2.39-.84,2.62,2.62,0,0,1-.67-.89,3,3,0,0,1,1.3-.28,3.38,3.38,0,0,1,1.12.2,5.24,5.24,0,0,1,1.45-.2A5,5,0,0,1,234.09,428.16Z"/><path class="cls-28" d="M229.48,427.66a3.8,3.8,0,0,1,2.17,1.18"/><ellipse class="cls-2" cx="208" cy="468" rx="22" ry="6"/><ellipse class="cls-2" cx="249.5" cy="468" rx="7.5" ry="6"/><path class="cls-29" d="M1271.49,230.89C898.1,230.89,595.37,473.55,595,773H883.6c11.21-162.62,176.4-291.64,378.55-291.64s367.33,129,378.53,291.64H1948C1947.63,473.55,1644.9,230.89,1271.49,230.89Z"/><path class="cls-30" d="M1266.44,275.07C929,275.07,655.38,497.89,654.62,773h229c11.21-162.62,176.4-291.64,378.55-291.64s367.33,129,378.53,291.64h237.6C1877.52,497.89,1603.88,275.07,1266.44,275.07Z"/><path class="cls-4" d="M1266.42,320.09C959.2,320.09,710,522.67,708.59,773h175c11.21-162.62,176.4-291.64,378.55-291.64s367.33,129,378.53,291.64h183.56C1822.85,522.67,1573.64,320.09,1266.42,320.09Z"/><path class="cls-31" d="M1264.18,367c-276.85,0-501.84,181.12-506.61,406h126c11.21-162.62,176.4-291.64,378.55-291.64s367.33,129,378.53,291.64H1770.8C1766,548.11,1541,367,1264.18,367Z"/><path class="cls-32" d="M1262.44,429.33C1025.28,429.33,831.73,581.71,821,773H883.6c11.21-162.62,176.4-291.64,378.55-291.64s367.33,129,378.53,291.64h63.25C1693.15,581.71,1499.61,429.33,1262.44,429.33Z"/><path d="M1030.43,178.56a18,18,0,0,1-5.13.13,6,6,0,0,1-3.14-10.4,16.94,16.94,0,0,1,4.6-2.91,70.81,70.81,0,0,1,8.47-3.16c7.93-2.6,16-5,23.94-7.63a13.47,13.47,0,0,1,7.41-.61c5.67,1.32,7.5,7.05,3.66,11.45a11.71,11.71,0,0,1-5.25,3.41c-3,1.11-6,2.32-9.25,3.6.21,1.05.4,2,.65,2.85,4.61,13.6,9.41,27.15,16.35,39.74a17,17,0,0,1,2.37,9.52c-.51,7-6.8,10.06-12.64,6.15-3.28-2.15-5.06-5.37-6.53-8.88A226,226,0,0,1,1044,180.64c-.24-1.45-.63-2.75-1-4.27C1038.54,177.23,1034.5,177.94,1030.43,178.56Z"/><path d="M1081.09,159.6c-.1-3.36,1.34-6.1,4.51-7.45s6-.23,8.26,2.43a20.32,20.32,0,0,1,3.83,6.07c3.21,8.91,6.21,17.77,9.14,26.74,1.74,5.67,3.11,11.43,4.57,17.16a18.08,18.08,0,0,1-.57,9.8c-2.22,7-9.18,8.36-14,2.73a20.19,20.19,0,0,1-4.58-9.18c-.73-3.52-1.37-7.05-2.2-10.55-4.14-17.45-6.65-24.24-8.28-31.13A25.5,25.5,0,0,1,1081.09,159.6Z"/><path d="M1152.54,175.91l-3-27.13a10.92,10.92,0,0,1,2-8.19c1.87-2.38,4.23-3.56,7.2-2.87a8.58,8.58,0,0,1,6.4,6,13.19,13.19,0,0,1,.56,5.12c-.73,9.27.22,18.55,1.26,27.82.68,5.88,1.74,11.7,2.54,17.67a26.34,26.34,0,0,1,.23,6.75c-.66,6.1-6,8.86-10.9,5.44a49.46,49.46,0,0,1-8.37-7.17c-6.11-6.66-12.09-13.63-18-20.51-.74-.86-1.57-1.71-2.89-3.16.21,3,.3,5.36.47,7.59.25,6.84.6,13.67.83,20.41a17.35,17.35,0,0,1-.53,5.11,5.82,5.82,0,0,1-5.65,4.47,6,6,0,0,1-5.84-4.34,37.61,37.61,0,0,1-1.35-6.37c-1.55-11.14-3.1-22.29-4.55-33.46-.59-4.72-1.08-9.46-1.57-14.19a11.8,11.8,0,0,1,0-2c-.16-3.91,1.28-7.1,4.55-8.72,3.47-1.66,6.81-1,9.71,1.63,1.18,1.18,2.2,2.59,3.3,3.88q11.25,13.62,22.51,27.25a5.13,5.13,0,0,0,1.26,1.07C1152.54,177.09,1152.54,176.5,1152.54,175.91Z"/><path d="M1217.32,162.4c4.89-6.88,9.78-13.76,14.76-20.65,1-1.49,1.92-3.08,3-4.48a23.94,23.94,0,0,1,3.64-4,5.23,5.23,0,0,1,6.29-.33,4.89,4.89,0,0,1,2.27,6,20.55,20.55,0,0,1-3.46,6c-6.7,7.73-12.21,16.19-17.51,25a9.25,9.25,0,0,0-1.26,5.09c.09,2.43-.21,4.86-.21,7.29.08,2.13.26,4.26.33,6.3.24,3.68.47,7.26.6,10.85,0,.39-.07.68-.06,1-.8,4.4-4,7.43-7.87,7.38a8,8,0,0,1-7.77-7.86c-.34-3.87-.4-7.85-.55-11.82a41.89,41.89,0,0,1,.07-6,4.48,4.48,0,0,0-1.91-4.3c-4.91-4.08-9.73-8.27-14.45-12.46-4.22-3.92-8.45-7.84-12.58-11.86a52.81,52.81,0,0,1-4.55-4.78,5.67,5.67,0,0,1-1.1-6c1-3.14,4.49-4.73,7.93-3.59a28.88,28.88,0,0,1,4.55,2.35A113.47,113.47,0,0,1,1206,155.65c3.22,2.88,6.33,5.78,9.75,8.85A22.43,22.43,0,0,1,1217.32,162.4Z"/><path d="M1308.13,198.19c-1,1.38-2.2,3.12-3.5,4.67a21.39,21.39,0,0,1-3.61,3.69,5.32,5.32,0,0,1-6,.39,5.18,5.18,0,0,1-2.57-5.38,12.86,12.86,0,0,1,.9-3.81,56.53,56.53,0,0,1,3.17-6.56c8.16-14,15.12-28.72,21.89-43.44a37.14,37.14,0,0,1,5-7.86,8.69,8.69,0,0,1,15,2.6c.39,1.11.78,2.31,1.07,3.5,3.26,15.84,7.32,31.55,12,47.12a28.75,28.75,0,0,1,1.15,10.8c-.26,3.09-1.09,6-4.49,7.22s-6.38-.53-8.4-3.22-3.73-5.47-5.72-8.55C1325.59,199,1317.06,198.54,1308.13,198.19Zm22.34-10c-1.78-6.67-3.5-12.94-5.27-19.8-3.58,6.81-6.72,13-10.08,19.5C1320.47,187.92,1325.33,188,1330.47,188.16Z"/><path d="M1399.92,182.72c1.76-9,3.51-17.82,5.27-26.78a11,11,0,0,1,4.35-7.22c2.5-1.7,5.11-2.12,7.73-.57a8.59,8.59,0,0,1,4.3,7.66,13.19,13.19,0,0,1-1,5.05c-3.48,8.62-5.36,17.76-7.15,26.91-1.12,5.82-1.86,11.69-2.89,17.62a25.63,25.63,0,0,1-1.81,6.5c-2.46,5.63-8.39,6.65-12,1.92a50,50,0,0,1-5.82-9.35c-3.84-8.19-7.44-16.63-11-25-.44-1-1-2.1-1.81-3.88-.71,2.93-1.32,5.2-1.83,7.38-1.81,6.6-3.54,13.21-5.34,19.72a17,17,0,0,1-2,4.7,5.81,5.81,0,0,1-6.73,2.57,6,6,0,0,1-4.26-5.89,37,37,0,0,1,.62-6.48c1.87-11.1,3.74-22.2,5.71-33.28.86-4.68,1.81-9.34,2.77-14a10.91,10.91,0,0,1,.56-1.88c1-3.77,3.35-6.38,7-7,3.8-.54,6.8,1.07,8.77,4.48.77,1.48,1.32,3.13,2,4.69q6.64,16.36,13.28,32.75a5.25,5.25,0,0,0,.88,1.39C1399.56,183.85,1399.74,183.28,1399.92,182.72Z"/><path d="M1435.52,162.43a17.3,17.3,0,0,1-4.58-2.31,6,6,0,0,1,2.14-10.65,17.16,17.16,0,0,1,5.42-.39,72,72,0,0,1,9,1.21c8.22,1.46,16.49,3.13,24.71,4.59,2.47.5,4.91,1.18,6.82,3,4.37,3.85,3.28,9.76-2.18,11.83a11.78,11.78,0,0,1-6.24.52c-3.18-.44-6.37-.79-9.86-1.19-.3,1-.59,1.95-.76,2.81-2.36,14.17-4.53,28.38-4.36,42.76a17,17,0,0,1-2.41,9.51c-3.78,6-10.74,5.65-14-.56-1.88-3.44-1.93-7.11-1.57-10.9a226.27,226.27,0,0,1,9-41.93c.48-1.39.75-2.72,1.15-4.23C1443.29,165.09,1439.4,163.81,1435.52,162.43Z"/><path d="M1475.1,218.28a5.94,5.94,0,0,1,5-5,6.76,6.76,0,0,1,7.05,2.55,17.93,17.93,0,0,1,2.27,3.6c5.15,12.08,28.82,3.65,14.82-12.16-1.89-2-4-3.67-6-5.6-1.84-1.78-3.82-3.4-5.45-5.23-5.37-5.92-6.84-12.53-3.49-19.57,7.45-15.8,30-13.09,40.64-3.18a6.78,6.78,0,0,1,1.5,8.82c-2.07,4.07-6.69,4.86-10.23,1.93a8.47,8.47,0,0,0-1.68-1.65c-9-7.37-23.9-.25-11.48,10.13,3.13,2.62,6.48,5.11,9.41,8.08,19.68,19.81.27,44.5-23.28,38.32-9-2.27-15.59-7.5-19-17.11A8.42,8.42,0,0,1,1475.1,218.28Z"/><path d="M1273.23,412.17a24.71,24.71,0,0,1-8.59-1.63,35.85,35.85,0,0,1-8-4.27c-1.09-.77-2.16-1.61-3.17-2.48a16.25,16.25,0,0,0-5.56-3.18,141.94,141.94,0,0,1-23.88-10.74,36.58,36.58,0,0,0,27.8-35.22c0-20-16.48-36.3-36.75-36.3a37,37,0,0,0-32.48,19.35A93.74,93.74,0,0,1,1180,318a80.58,80.58,0,0,1,.34-9.33c1.53-8.14,6.47-16.12,14.3-23,17.06-15.09,45.86-24.1,77-24.1a155.25,155.25,0,0,1,29.47,2.78c36.42,7.11,61.5,26.77,62.39,48.91a70.67,70.67,0,0,1-1.49,10.88,81.08,81.08,0,0,1-10.39,25.22A35.27,35.27,0,1,0,1314,387.47c-1,.74-2,1.45-3,2.14-3.47,2.43-6.71,4.6-9.56,6.51-3.35,2.24-6.24,4.17-8.3,5.74a22.85,22.85,0,0,0-2.45,2.1C1285.4,409.41,1279.52,412.17,1273.23,412.17Z"/><path d="M1271.7,262a154.2,154.2,0,0,1,29.37,2.77c36.17,7.06,61.07,26.51,62,48.39a70,70,0,0,1-1.48,10.8,79.84,79.84,0,0,1-9.58,23.83,35.76,35.76,0,1,0-39.38,40.06l-1.91,1.35c-3.46,2.43-6.7,4.59-9.55,6.5-3.35,2.24-6.25,4.18-8.32,5.76a24,24,0,0,0-2.51,2.15c-5.2,5.35-10.95,8.06-17.1,8.06a24.15,24.15,0,0,1-8.41-1.6,35.27,35.27,0,0,1-7.84-4.21c-1.08-.76-2.13-1.59-3.13-2.44a17,17,0,0,0-5.73-3.29,140.69,140.69,0,0,1-22.73-10.1,37,37,0,0,0,27-35.38c0-20.29-16.71-36.8-37.24-36.8a37.56,37.56,0,0,0-32.3,18.47,92.93,92.93,0,0,1-2.32-18.36,78.87,78.87,0,0,1,.34-9.23c1.52-8.05,6.41-15.92,14.13-22.75,17-15,45.65-24,76.71-24m0-1c-32.38,0-60.88,9.64-77.37,24.23-7.75,6.86-12.86,14.81-14.47,23.36a79.53,79.53,0,0,0-.34,9.39,94.5,94.5,0,0,0,3,21.14,36.32,36.32,0,0,1,68.9,15.53,35.91,35.91,0,0,1-28.66,35,141.44,141.44,0,0,0,25.08,11.42,16.06,16.06,0,0,1,5.4,3.09,39.64,39.64,0,0,0,3.21,2.51,36.85,36.85,0,0,0,8.06,4.33,25,25,0,0,0,8.76,1.66c5.62,0,11.77-2.14,17.82-8.36a20.75,20.75,0,0,1,2.4-2.05c3.77-2.88,10.26-6.92,17.83-12.24q2-1.42,4.16-3a34.37,34.37,0,1,1,35.85-36.2,81.53,81.53,0,0,0,11.27-26.67,71.2,71.2,0,0,0,1.5-11c-.93-23-26.94-42.38-62.8-49.38A154.81,154.81,0,0,0,1271.7,261Z"/><g class="cls-33"><path d="M1272,402.32a24.71,24.71,0,0,1-8.59-1.63,35.85,35.85,0,0,1-7.95-4.27c-1.09-.77-2.16-1.61-3.17-2.48a16.3,16.3,0,0,0-5.57-3.18A142.3,142.3,0,0,1,1222.79,380a36.58,36.58,0,0,0,27.81-35.22c0-20-16.48-36.3-36.75-36.3a37,37,0,0,0-32.48,19.35,93.74,93.74,0,0,1-2.63-19.73,80.58,80.58,0,0,1,.34-9.33c1.53-8.13,6.47-16.12,14.3-23,17.06-15.09,45.86-24.1,77-24.1a155.14,155.14,0,0,1,29.46,2.78c36.43,7.11,61.5,26.77,62.4,48.91a70.67,70.67,0,0,1-1.49,10.88,81.08,81.08,0,0,1-10.39,25.22,35.28,35.28,0,1,0-37.68,38.18c-1,.74-2,1.45-3,2.14-3.46,2.43-6.7,4.6-9.56,6.51-3.34,2.24-6.23,4.17-8.29,5.74a22,22,0,0,0-2.45,2.1C1284.11,399.56,1278.24,402.32,1272,402.32Z"/><path d="M1270.42,252.15a154.2,154.2,0,0,1,29.37,2.77c36.16,7.06,61.07,26.51,62,48.39a69.86,69.86,0,0,1-1.48,10.8,80.1,80.1,0,0,1-9.58,23.83A35.77,35.77,0,1,0,1311.34,378l-1.91,1.35c-3.46,2.43-6.7,4.59-9.55,6.5-3.36,2.25-6.25,4.18-8.32,5.76a23,23,0,0,0-2.51,2.15c-5.2,5.35-11,8.06-17.1,8.06a24.36,24.36,0,0,1-8.41-1.59,35.32,35.32,0,0,1-7.84-4.22c-1.08-.76-2.13-1.58-3.13-2.44a17,17,0,0,0-5.73-3.29,141.34,141.34,0,0,1-22.73-10.09,37.07,37.07,0,0,0,27-35.39c0-20.29-16.71-36.8-37.25-36.8a37.55,37.55,0,0,0-32.29,18.47,92.93,92.93,0,0,1-2.32-18.36,78.87,78.87,0,0,1,.33-9.23c1.53-8.05,6.41-15.92,14.14-22.75,17-15,45.65-24,76.71-24m0-1c-32.38,0-60.88,9.64-77.38,24.23-7.75,6.86-12.85,14.81-14.46,23.36a79.62,79.62,0,0,0-.34,9.39,94.42,94.42,0,0,0,3,21.14,36.13,36.13,0,1,1,40.24,50.54,141.11,141.11,0,0,0,25.08,11.42,16,16,0,0,1,5.39,3.09c.86.74,1.94,1.61,3.21,2.51a36.66,36.66,0,0,0,8.06,4.33,25.09,25.09,0,0,0,8.77,1.66c5.61,0,11.77-2.14,17.82-8.36a21.41,21.41,0,0,1,2.39-2c3.78-2.88,10.27-6.92,17.84-12.24,1.36-.95,2.74-1.94,4.16-3A34.37,34.37,0,1,1,1350,341a81.51,81.51,0,0,0,11.26-26.67,69.85,69.85,0,0,0,1.51-11c-.93-23-26.94-42.38-62.8-49.38a155.62,155.62,0,0,0-29.56-2.79Z"/></g><rect class="cls-3" y="773.5" width="2500" height="70.5"/><path class="cls-34" d="M2228.5,771.5s24-16,31-6-11,35-22,32S2225.5,773.5,2228.5,771.5Z"/><path class="cls-34" d="M2038.5,773.5s15-19,32-12,0,35-5,36S2034.5,787.5,2038.5,773.5Z"/><path class="cls-35" d="M1965,773s28-19,34-2-14,39-22,33S1962,779,1965,773Z"/><path class="cls-35" d="M1760,774s0-11,19-12,15,32,9,36S1758,785,1760,774Z"/><path class="cls-36" d="M1472.31,781.86a9.78,9.78,0,0,1-.41-14.4c6.63-6.5,19.13-15.33,32.1-6.46,19,13,2,38,0,38C1502.53,799,1482.24,790.39,1472.31,781.86Z"/><path class="cls-36" d="M1684.89,782.58a10.1,10.1,0,0,1,2.73-13.29c5.17-3.74,12.6-7.55,19.38-5.29,12,4,12,10,12,10s-8,28-19,24C1693.64,795.69,1688.28,788.35,1684.89,782.58Z"/><path class="cls-37" d="M842.41,767.27l6.09-2.77s41-7,15,28c-23.46,31.59-31.45,2.9-27.64-17A11.47,11.47,0,0,1,842.41,767.27Z"/><path class="cls-37" d="M1097.27,777.78a8.2,8.2,0,0,1,2.36-12.3c7.73-4.34,18.89-9.05,23.87-3.61,8,8.75,0,48.51-16,28.63Z"/><path class="cls-38" d="M591.12,777.65a5.91,5.91,0,0,1,1.53-7.18c4-3.33,11.54-8,20.85-6,10.66,2.28,5.09,17.32,1.82,24.37a5.07,5.07,0,0,1-6,2.76C604.2,790.2,595.56,786.55,591.12,777.65Z"/><path class="cls-38" d="M759.83,782.86A12.33,12.33,0,0,1,764.48,769a23.23,23.23,0,0,1,23-2.5c17,7-8,30-8,30s-9,11-12,3C765.59,794.42,761.67,788.53,759.83,782.86Z"/><path class="cls-39" d="M287.5,773.5s-8-6,6-7,38-8,34,9-17,31-24,22S287.5,773.5,287.5,773.5Z"/><path class="cls-39" d="M505.5,773.5s1-8,17-9,22,10,4,28S505.5,773.5,505.5,773.5Z"/><path class="cls-40" d="M850.86,657.39a117.86,117.86,0,0,1-5.7,17.57c-20.43,49.27-68.49,76.51-103.25,92.67-13.94,6.47-25.76,11.18-32.78,14.78a38.91,38.91,0,0,0-4.52,2.65c-18.25,13.08-34,9.92-45.46,3.15a60.23,60.23,0,0,1-11.92-9.45c-1.82-1.85-3.33-3.59-4.52-5a26.77,26.77,0,0,0-7.91-6.64c-17.69-9.75-77.75-46.69-86.74-103.52-3.29-20.79-2.81-38.28-.57-52.51a136.8,136.8,0,0,1,3.32-15.26c5.15-13.52,15.83-25,30.53-34,31.28-19,80.74-26.42,133.73-16.91a258.55,258.55,0,0,1,47.55,13.26C819.24,580.15,856.08,619.51,850.86,657.39Z"/><path class="cls-41" d="M731.36,548.35s212.79,116.69-53,240.31c0,0-13.83-1.09-7.5,4.46s34.95-8.84,34.95-8.84,81.63-37.64,84.08-43.8,83.19-49.84,54.27-120.25C844.14,620.23,803.65,560.22,731.36,548.35Z"/><path class="cls-42" d="M851.12,657.21a117.86,117.86,0,0,1-5.7,17.57C825,724.05,776.93,751.3,742.17,767.45c-13.95,6.47-25.76,11.18-32.78,14.78a37.28,37.28,0,0,0-4.52,2.65c-18.25,13.08-34,9.92-45.46,3.16a60.25,60.25,0,0,1-11.92-9.46c-1.82-1.85-3.33-3.59-4.52-5.05a26.77,26.77,0,0,0-7.91-6.64c-17.69-9.75-77.75-46.69-86.74-103.52-3.29-20.79-2.81-38.28-.58-52.51a134.5,134.5,0,0,1,3.33-15.26c5.14-13.52,15.83-25,30.53-34,31.28-19,80.74-26.42,133.72-16.91A258.1,258.1,0,0,1,762.87,558C819.5,580,856.34,619.33,851.12,657.21Z"/><ellipse class="cls-40" cx="595" cy="681.5" rx="59.51" ry="60.26" transform="translate(-180.95 1146.66) rotate(-79.82)"/><ellipse class="cls-40" cx="761.51" cy="708.11" rx="57.13" ry="57.85" transform="translate(-70.06 1332.45) rotate(-79.82)"/><path class="cls-41" d="M781,654.05s42.44,59.3-5,109.13c0,0,40.53-9.46,43.23-52C819.31,711.18,825.94,675.9,781,654.05Z"/><path class="cls-41" d="M654.41,692.07c-5.81,32.35-37.07,53.8-69.83,47.92a62,62,0,0,1-9.46-2.49c29.15.71,55.21-19.63,60.46-48.87s-12-57.14-39.32-66.73a60,60,0,0,1,9.36,1C638.38,628.73,660.22,659.72,654.41,692.07Z"/><ellipse class="cls-43" cx="598.38" cy="676.84" rx="60.1" ry="61.11" transform="translate(-173.58 1146.14) rotate(-79.82)"/><ellipse class="cls-43" cx="761.36" cy="703.19" rx="58.96" ry="59.06" transform="translate(-65.34 1328.25) rotate(-79.82)"/><ellipse class="cls-44" cx="607.16" cy="678.37" rx="45.37" ry="48.97" transform="translate(-182.59 1131.28) rotate(-78)"/><ellipse class="cls-44" cx="753.2" cy="700.09" rx="43.85" ry="47.33" transform="translate(-88.14 1291.34) rotate(-78)"/><ellipse class="cls-45" cx="613.07" cy="679.73" rx="39.75" ry="42.9" transform="translate(-179.23 1138.15) rotate(-78)"/><ellipse class="cls-45" cx="747.5" cy="698.69" rx="38.42" ry="41.46" transform="translate(-91.29 1284.66) rotate(-78)"/><ellipse cx="619.89" cy="680.78" rx="36.22" ry="36.83" transform="matrix(0.18, -0.98, 0.98, 0.18, -159.75, 1170.56)"/><ellipse cx="741.66" cy="697.93" rx="35" ry="35.59" transform="translate(-76.39 1304.53) rotate(-79.82)"/><path d="M577.93,600a26.76,26.76,0,0,1,3.61-3.12,39.09,39.09,0,0,1,4-2.58,47.24,47.24,0,0,1,28.12-5.83,45.66,45.66,0,0,1,9.62,2.12l2.32.84c.76.31,1.5.67,2.24,1a45.65,45.65,0,0,1,4.31,2.31,41.36,41.36,0,0,1,13.5,13.4,137.77,137.77,0,0,0-16.3-7.76,69.32,69.32,0,0,0-16.54-4,78.59,78.59,0,0,0-17.13.16A133.53,133.53,0,0,0,577.93,600Z"/><ellipse class="cls-2" cx="637.87" cy="666.2" rx="11.31" ry="11.5" transform="translate(-130.6 1176.26) rotate(-79.82)"/><ellipse class="cls-2" cx="779" cy="693.97" rx="11.16" ry="11.34" transform="translate(-41.75 1338.03) rotate(-79.82)"/><ellipse class="cls-2" cx="581.99" cy="695.15" rx="3.91" ry="11.74" transform="translate(-222.33 1113.5) rotate(-77.54)"/><ellipse class="cls-2" cx="728.65" cy="719.87" rx="3.78" ry="11.34" transform="translate(-131.45 1276.1) rotate(-77.54)"/><path d="M805.44,638.68a111,111,0,0,0-16.15-9.25,60,60,0,0,0-16.71-5,52.64,52.64,0,0,0-17.27.62,116.91,116.91,0,0,0-17.74,5.49A41,41,0,0,1,753.49,619a39.83,39.83,0,0,1,20.17-2.53A43.05,43.05,0,0,1,792.44,624a44.93,44.93,0,0,1,7.43,6.59A34.13,34.13,0,0,1,805.44,638.68Z"/><path class="cls-46" d="M774,531.13s-18.62,1.07-26.71,9-16.9,27.09-17.21,27.75h0a.64.64,0,0,1-.9,0l-.3-.31a.55.55,0,0,1-.38-.69h0c2.47-7.74,13.33-24.6,18-30.48s30.47-13.17,32-10.28S774,531.13,774,531.13Z"/><path class="cls-46" d="M685.09,558.35c.75-7-2.66-26-5-32.94S653.51,501.33,650.5,503s2.44,6,2.44,6,19.55,9.11,24.56,19S683,558,683,558,684.66,562.32,685.09,558.35Z"/><path class="cls-47" d="M653.4,558.41s-17.13-22.12-28.52-30.34-14.72,4.56-14.72,4.56l-9.39,38S615.8,562,653.4,558.41Z"/><path class="cls-47" d="M795.6,610.63,812.42,570c1.65-12.06-12.74-6.41-12.74-6.41L765.9,574S787.18,592.78,795.6,610.63Z"/><path class="cls-48" d="M639.24,558a1,1,0,0,0,.62-1.75c-2.93-3-9.47-9.69-14-14.78-6-6.74-8.43,1.06-8.43,1.06l-4.85,18.08a2,2,0,0,0,2.38,2.49C620.54,561.65,631.77,558.92,639.24,558Z"/><path class="cls-48" d="M791.06,598.75a.94.94,0,0,0,1.62,0c2.61-4.47,10.33-17.88,12-23.29,2-6.55-4.84-3.81-4.84-3.81l-22,9.12a1.11,1.11,0,0,0-.2,1.84C780.66,585.7,788.26,594.05,791.06,598.75Z"/><path class="cls-49" d="M654.25,747.59s-.56,9.15,8.59,9.71,9.17-8.69,9.17-8.69,1.37,10.58,11.38,12.38l.77.11c9.5,1.2,13.77-7.26,13.77-7.26"/><path class="cls-50" d="M651.33,748.7a4.58,4.58,0,0,0,4.54-4.08"/><path class="cls-51" d="M701.33,755s-5.89-.51-4.51-5.16"/><path class="cls-50" d="M690.92,760.18s-.91,5.6-3.64,8.72c0,0-4.2-4.73-3.29-7.81Z"/><path class="cls-50" d="M665.91,757.08s-1.26,4.36-3.73,6.57c0,0-2.88-4.15-1.86-6.51Z"/><path class="cls-4" d="M1753.8,602.9a113.28,113.28,0,0,1,1.5,18.08c.19,52.42-33,95.36-58.39,123.2-10.18,11.16-19.1,19.91-24.1,25.84a38.13,38.13,0,0,0-3.09,4.12c-11.57,18.78-27.08,21.9-40,20.11a58.86,58.86,0,0,1-14.4-4c-2.35-1-4.38-2-6-2.86a26.4,26.4,0,0,0-9.69-3c-19.74-2.12-88.19-12.81-117.92-60.9-10.88-17.59-17.08-33.63-20.46-47.37a135.12,135.12,0,0,1-2.78-15.09c-.47-14.21,4.84-28.72,14.78-42.39,21.12-29.12,63.14-54.6,114.77-66.1a253.11,253.11,0,0,1,48.14-6C1695.82,544.9,1744.16,566.59,1753.8,602.9Z"/><path class="cls-5" d="M1604.09,549.44s237.17,25,43.19,237.93c0,0-13,4.26-5.1,6.89S1670.49,773,1670.49,773s59.7-65.11,59.58-71.63,56.47-76.76,3.54-129.6C1733.61,571.76,1674.13,532.76,1604.09,549.44Z"/><path class="cls-42" d="M1754,602.64a115.65,115.65,0,0,1,1.5,18.08c.19,52.42-33,95.36-58.39,123.2-10.19,11.16-19.11,19.91-24.1,25.84a35.64,35.64,0,0,0-3.09,4.12c-11.58,18.78-27.08,21.9-40,20.11a58.65,58.65,0,0,1-14.39-4c-2.35-1-4.38-2-6-2.86a26.45,26.45,0,0,0-9.7-3c-19.73-2.12-88.19-12.81-117.92-60.9-10.87-17.59-17.08-33.63-20.45-47.37a132.87,132.87,0,0,1-2.78-15.09c-.47-14.21,4.84-28.72,14.77-42.39,21.13-29.12,63.14-54.6,114.78-66.1a253.11,253.11,0,0,1,48.13-6C1696,544.64,1744.32,566.33,1754,602.64Z"/><ellipse class="cls-4" cx="1531.06" cy="721.89" rx="59.21" ry="58.47" transform="matrix(0.98, -0.22, 0.22, 0.98, -120.26, 349.83)"/><ellipse class="cls-4" cx="1692.08" cy="682.79" rx="56.84" ry="56.14" transform="translate(-107.92 383.88) rotate(-12.55)"/><path class="cls-5" d="M1689.25,626.38s61,37.63,36.94,100.79c0,0,33.14-24,19.44-63.54C1745.63,663.63,1738.24,629.14,1689.25,626.38Z"/><path class="cls-5" d="M1588.91,708.91c7,31.53-13.17,62.84-45.09,69.94a60.58,60.58,0,0,1-9.52,1.34c26.69-10.42,42.59-38.75,36.24-67.25s-32.52-47.25-61-45.55a59.35,59.35,0,0,1,8.85-2.69C1550.34,657.59,1581.9,677.39,1588.91,708.91Z"/><ellipse class="cls-43" cx="1532.39" cy="722.17" rx="60.6" ry="59.59" transform="translate(-120.28 350.13) rotate(-12.55)"/><ellipse class="cls-43" cx="1691.36" cy="682.97" rx="58.57" ry="57.6" transform="translate(-107.97 383.73) rotate(-12.55)"/><ellipse class="cls-44" cx="1541" cy="720.2" rx="48.56" ry="44.99" transform="translate(-107.17 299.58) rotate(-10.73)"/><ellipse class="cls-44" cx="1682.89" cy="684.12" rx="46.93" ry="43.48" transform="matrix(0.98, -0.19, 0.19, 0.98, -97.96, 325.38)"/><ellipse class="cls-45" cx="1546.94" cy="719.18" rx="42.54" ry="39.42" transform="translate(-106.87 300.67) rotate(-10.73)"/><ellipse class="cls-45" cx="1677.15" cy="685.02" rx="41.11" ry="38.09" transform="translate(-98.23 324.32) rotate(-10.73)"/><ellipse cx="1553.57" cy="717.53" rx="36.52" ry="35.91" transform="translate(-118.77 354.62) rotate(-12.55)"/><ellipse cx="1671.51" cy="686.56" rx="35.29" ry="34.71" transform="translate(-109.23 379.5) rotate(-12.55)"/><path d="M1484.25,659.73a26.54,26.54,0,0,1,2.1-4.24,37.88,37.88,0,0,1,2.67-3.9,46.07,46.07,0,0,1,6.58-6.89,47.21,47.21,0,0,1,16.91-9.24,46.28,46.28,0,0,1,9.62-1.75l2.44-.11c.81,0,1.63,0,2.44.06a43,43,0,0,1,4.82.46,40.91,40.91,0,0,1,17.48,7.11,137.79,137.79,0,0,0-17.88-.83,68.82,68.82,0,0,0-16.63,2.72,77.55,77.55,0,0,0-15.6,6.71A132.65,132.65,0,0,0,1484.25,659.73Z"/><ellipse class="cls-2" cx="1564.43" cy="697.31" rx="11.4" ry="11.21" transform="translate(-114.12 356.5) rotate(-12.55)"/><ellipse class="cls-2" cx="1704.15" cy="668.64" rx="11.25" ry="11.06" transform="translate(-104.55 386.16) rotate(-12.55)"/><ellipse class="cls-2" cx="1524.41" cy="745.2" rx="11.64" ry="3.88" transform="translate(-108.46 283.79) rotate(-10.27)"/><ellipse class="cls-2" cx="1668.02" cy="711.62" rx="11.25" ry="3.75" transform="translate(-100.17 308.86) rotate(-10.27)"/><path d="M1707.14,607.94a111.82,111.82,0,0,0-18.32-2.25,60,60,0,0,0-17.19,1.81,52.15,52.15,0,0,0-15.54,7.18,116.73,116.73,0,0,0-14.15,11.8,40.56,40.56,0,0,1,10.14-16.65,39.37,39.37,0,0,1,17.49-10.05,42.56,42.56,0,0,1,20.06-.31,45.45,45.45,0,0,1,9.33,3.19A33.88,33.88,0,0,1,1707.14,607.94Z"/><path class="cls-52" d="M1668.86,534s12.19-11.19-15.5-26.85c-27.21-15.37-38.64,52.94-40.66,66.86a1.69,1.69,0,0,0,2,1.9h0a4.48,4.48,0,0,0,3.45-3.66c2.71-17.07,17.79-99.24,48.53-39.35Z"/><path class="cls-52" d="M1542.38,591.86A3.92,3.92,0,0,0,1545,586c-10-16.64-44.09-68.74-60.8-35.68-19.71,39-5.53,34-5.53,34l3-6.13c9.7-66.43,47.51-2.7,55.46,11.64a4.31,4.31,0,0,0,4.55,2.13Z"/><ellipse class="cls-53" cx="1466.7" cy="580.52" rx="5.35" ry="10.35" transform="translate(173.75 1484.13) rotate(-56.54)"/><ellipse class="cls-53" cx="1470.3" cy="576.39" rx="5.71" ry="9.71" transform="translate(-98.08 761.33) rotate(-28.13)"/><ellipse class="cls-53" cx="1488.48" cy="585.53" rx="11.53" ry="4.81" transform="translate(-91.65 337.33) rotate(-12.55)"/><ellipse class="cls-53" cx="1485.37" cy="576.04" rx="10.67" ry="5.19" transform="matrix(0.65, -0.76, 0.76, 0.65, 77.54, 1321.8)"/><ellipse class="cls-53" cx="1478.4" cy="576.42" rx="9.95" ry="5.57" transform="translate(494.23 1821.14) rotate(-72.97)"/><ellipse class="cls-53" cx="1487.1" cy="581.64" rx="11.23" ry="4.94" transform="matrix(0.85, -0.53, 0.53, 0.85, -81.9, 878.31)"/><ellipse class="cls-54" cx="1476.71" cy="585.69" rx="8.65" ry="7.21" transform="translate(-91.97 334.77) rotate(-12.55)"/><ellipse class="cls-53" cx="1485.38" cy="591.1" rx="5.42" ry="10.23" transform="translate(114.27 1413.17) rotate(-52.65)"/><ellipse class="cls-53" cx="1481.49" cy="595.05" rx="5.74" ry="9.66" transform="translate(-114.68 628.94) rotate(-23.1)"/><ellipse class="cls-53" cx="1464.13" cy="584.88" rx="11.52" ry="4.81" transform="translate(-77.79 255.89) rotate(-9.73)"/><ellipse class="cls-53" cx="1466.5" cy="594.56" rx="10.79" ry="5.14" transform="translate(16.84 1229.08) rotate(-45.71)"/><ellipse class="cls-53" cx="1473.45" cy="594.57" rx="10.06" ry="5.51" transform="translate(382.75 1749.97) rotate(-68.63)"/><ellipse class="cls-53" cx="1465.21" cy="588.86" rx="11.31" ry="4.9" transform="translate(-101.44 786.84) rotate(-29.1)"/><ellipse class="cls-54" cx="1476.22" cy="585.28" rx="9.04" ry="7.21" transform="translate(-91.89 334.66) rotate(-12.55)"/><ellipse class="cls-53" cx="1661.03" cy="523.52" rx="4.84" ry="9.36" transform="translate(308.5 1620.68) rotate(-56.54)"/><ellipse class="cls-53" cx="1664.28" cy="519.78" rx="5.16" ry="8.78" transform="translate(-48.47 846.11) rotate(-28.13)"/><ellipse class="cls-53" cx="1680.72" cy="528.04" rx="10.42" ry="4.35" transform="translate(-74.57 377.72) rotate(-12.55)"/><ellipse class="cls-53" cx="1677.91" cy="519.46" rx="9.65" ry="4.7" transform="matrix(0.65, -0.76, 0.76, 0.65, 186.8, 1447.81)"/><ellipse class="cls-53" cx="1671.61" cy="519.8" rx="9" ry="5.04" transform="translate(684.98 1965.84) rotate(-72.97)"/><ellipse class="cls-53" cx="1679.47" cy="524.52" rx="10.15" ry="4.46" transform="translate(-22.22 971.73) rotate(-32.07)"/><ellipse class="cls-54" cx="1670.08" cy="528.18" rx="7.82" ry="6.52" transform="translate(-74.86 375.41) rotate(-12.55)"/><ellipse class="cls-53" cx="1677.91" cy="533.08" rx="4.9" ry="9.25" transform="translate(236.11 1543.4) rotate(-52.65)"/><ellipse class="cls-53" cx="1674.4" cy="536.64" rx="5.19" ry="8.73" transform="matrix(0.92, -0.39, 0.39, 0.92, -76.3, 699.94)"/><ellipse class="cls-53" cx="1658.71" cy="527.45" rx="10.42" ry="4.35" transform="translate(-65.29 287.95) rotate(-9.73)"/><ellipse class="cls-53" cx="1660.84" cy="536.21" rx="9.76" ry="4.65" transform="translate(117.24 1350.59) rotate(-45.71)"/><ellipse class="cls-53" cx="1667.13" cy="536.22" rx="9.1" ry="4.98" transform="translate(560.18 1893.24) rotate(-68.63)"/><ellipse class="cls-53" cx="1659.68" cy="531.05" rx="10.23" ry="4.43" transform="translate(-48.79 874.11) rotate(-29.1)"/><ellipse class="cls-54" cx="1669.63" cy="527.82" rx="8.17" ry="6.52" transform="translate(-74.79 375.3) rotate(-12.55)"/><path class="cls-55" d="M1525.35,558s-2.06-4.21,5.57-4.64a72,72,0,0,0,14.11-2.29s-18.55,18.82-20.86,16S1525.35,558,1525.35,558Z"/><path class="cls-55" d="M1619.58,549.6s-3.35,6.52-9,4a53.65,53.65,0,0,0-11.16-3.52s17.94-8,18.09-4.91A5.89,5.89,0,0,0,1619.58,549.6Z"/><path class="cls-49" d="M1649.33,752.22c-7.12,3.47-32.56,7.25-32.56,7.25"/><path class="cls-49" d="M1655.45,752.74s-8.7,3.06-7.31-5.88"/><polygon class="cls-56" points="1642.93 769.05 1638.56 766.26 1649.33 752.22 1651.05 753.19 1642.93 769.05"/><path class="cls-56" d="M1637.88,768.29c-.33-1.48,1-2.85,2.49-3.18a2.75,2.75,0,0,1,3.28,2.09,3.32,3.32,0,0,1-1.83,3.6C1640.65,771.43,1638.21,769.77,1637.88,768.29Z"/><path class="cls-32" d="M572.27,597a117.79,117.79,0,0,1,.74,18.52c-2.12,53.49-37.9,95.83-65,123.12-10.88,10.93-20.37,19.46-25.72,25.3a37.49,37.49,0,0,0-3.34,4.06c-12.64,18.65-28.59,21.16-41.7,18.76A60.12,60.12,0,0,1,422.73,782c-2.35-1.11-4.38-2.22-6-3.18a26.78,26.78,0,0,0-9.76-3.5c-20-3-89.41-17-117.62-67.33C279,689.59,273.41,673,270.57,658.79a136.09,136.09,0,0,1-2.17-15.52c.14-14.52,6.21-29.08,16.94-42.6,22.84-28.78,66.82-52.92,120-62.37a258.35,258.35,0,0,1,49.37-4C515.67,535.3,564,559.56,572.27,597Z"/><path class="cls-57" d="M421.89,535.9s240.87,35.93,33.57,244.64c0,0-13.4,3.78-5.51,6.81s29.83-20.46,29.83-20.46,63.77-63.79,63.94-70.44,61-75.83,9.32-132.07C553,564.38,494.08,522,421.89,535.9Z"/><path class="cls-42" d="M572.45,596.78a117.7,117.7,0,0,1,.74,18.52c-2.12,53.48-37.9,95.82-65,123.11-10.88,10.94-20.37,19.47-25.72,25.3a38.48,38.48,0,0,0-3.34,4.06c-12.64,18.66-28.59,21.16-41.7,18.76a60.12,60.12,0,0,1-14.51-4.76c-2.35-1.1-4.38-2.22-6-3.18a27,27,0,0,0-9.76-3.5c-20-3-89.41-17-117.62-67.33-10.32-18.43-15.94-35.06-18.78-49.23A136.09,136.09,0,0,1,268.58,643c.15-14.52,6.21-29.08,16.94-42.59,22.84-28.78,66.83-52.93,120-62.38a259.16,259.16,0,0,1,49.37-4C515.85,535.05,564.21,559.31,572.45,596.78Z"/><ellipse class="cls-32" cx="339.78" cy="708.62" rx="60.46" ry="59.71" transform="translate(-118.69 70.34) rotate(-10.07)"/><ellipse class="cls-32" cx="505.78" cy="675.82" rx="58.05" ry="57.33" transform="translate(-110.39 98.86) rotate(-10.07)"/><path class="cls-57" d="M505.38,618.14s60.55,41.09,33.24,104.46c0,0,34.87-23,22.63-64C561.25,658.63,555.24,623.12,505.38,618.14Z"/><path class="cls-57" d="M399.38,697.93c5.76,32.47-16.21,63.52-49.09,69.36a61.78,61.78,0,0,1-9.78,1c27.7-9.46,45.16-37.66,39.95-67s-31.1-49.64-60.2-49.17a62.14,62.14,0,0,1,9.14-2.35C362.28,643.87,393.61,665.46,399.38,697.93Z"/><ellipse class="cls-43" cx="340.92" cy="707.69" rx="60.6" ry="59.59" transform="translate(-118.51 70.53) rotate(-10.07)"/><ellipse class="cls-43" cx="501.44" cy="675.4" rx="58.57" ry="57.6" transform="translate(-110.39 98.1) rotate(-10.07)"/><ellipse class="cls-44" cx="349.62" cy="706.1" rx="48.56" ry="44.99" transform="translate(-97.79 57.54) rotate(-8.26)"/><ellipse class="cls-44" cx="492.93" cy="676.17" rx="46.93" ry="43.48" transform="translate(-92.01 77.81) rotate(-8.26)"/><ellipse class="cls-45" cx="355.59" cy="705.34" rx="42.54" ry="39.42" transform="matrix(0.99, -0.14, 0.14, 0.99, -97.62, 58.39)"/><ellipse class="cls-45" cx="487.15" cy="676.83" rx="41.11" ry="38.09" transform="translate(-92.16 76.99) rotate(-8.26)"/><ellipse cx="362.29" cy="703.97" rx="36.52" ry="35.91" transform="translate(-117.53 74.21) rotate(-10.07)"/><ellipse cx="481.46" cy="678.13" rx="35.29" ry="34.71" transform="translate(-111.17 94.65) rotate(-10.07)"/><path d="M295.53,643.24a26.14,26.14,0,0,1,2.28-4.15,38.57,38.57,0,0,1,2.84-3.79,46.89,46.89,0,0,1,24.16-15.09,45.32,45.32,0,0,1,9.69-1.33h2.44c.81,0,1.62.1,2.43.16a45.06,45.06,0,0,1,4.8.67,40.85,40.85,0,0,1,17.16,7.86A138.12,138.12,0,0,0,343.5,626a69,69,0,0,0-16.73,2,77.87,77.87,0,0,0-15.88,6A131.5,131.5,0,0,0,295.53,643.24Z"/><ellipse class="cls-2" cx="374.01" cy="684.24" rx="11.4" ry="11.21" transform="translate(-113.9 75.95) rotate(-10.07)"/><ellipse class="cls-2" cx="514.84" cy="661.63" rx="11.25" ry="11.06" transform="matrix(0.98, -0.17, 0.17, 0.98, -107.77, 100.23)"/><ellipse class="cls-2" cx="331.96" cy="730.36" rx="11.64" ry="3.88" transform="translate(-96.02 51.79) rotate(-7.8)"/><ellipse class="cls-2" cx="476.88" cy="703.01" rx="11.25" ry="3.75" transform="translate(-90.97 71.2) rotate(-7.8)"/><path d="M520.45,601.11a112.42,112.42,0,0,0-18.2-3A60,60,0,0,0,485,599.15a52.14,52.14,0,0,0-15.84,6.5,117,117,0,0,0-14.64,11.17,40.62,40.62,0,0,1,10.84-16.19,39.43,39.43,0,0,1,17.91-9.29,42.58,42.58,0,0,1,20.06.56,45,45,0,0,1,9.18,3.59A33.94,33.94,0,0,1,520.45,601.11Z"/><path class="cls-58" d="M423.8,745.91c1.27-.23,5,2.83,5,2.83l20.84-3.47,4.72-3.89"/><path class="cls-59" d="M459.31,756.33c.23,1.29-.66,2.68-2.36,4h0c-3,2.38-8.61,4.59-15.22,5.77-10.35,1.84-19.25.43-19.89-3.13-4.08-5.94,9.91-16.76,9.91-16.76l17.64-3.13s-.64,4.61,5.74,10.09C457.38,755.18,459.06,754.92,459.31,756.33Z"/><path class="cls-60" d="M420.14,744.92s13,5,35.66-4.08"/><path class="cls-50" d="M462.16,742.52s-8.37-.2-8.22-3.6"/><path class="cls-50" d="M418.13,746.4s4.22-1.87,2.46-3.25"/><path class="cls-61" d="M437.92,745.8s-3.41,11.75,2.12,13"/><path class="cls-62" d="M441.1,519.36s-13.13,5.72-16.86,13.57-5,24-5,24.57h0a.33.33,0,0,1-.46.29l-.5-.21a.41.41,0,0,1-.45-.39h0c-.28-6.24,3.07-21.27,4.85-26.75s18.46-17.59,20.34-15.92S441.1,519.36,441.1,519.36Z"/><path class="cls-62" d="M382.93,564.31c-.27-5.28-9.5-17.46-13.33-21.68s-28.68-9.38-30.7-7.39,3.71,3.55,3.71,3.55,18.64.89,25.55,6.43,12.93,19.41,12.93,19.41S383,566.15,382.93,564.31Z"/><ellipse class="cls-63" cx="332.18" cy="536.44" rx="8.55" ry="2.72" transform="translate(-88.69 66.36) rotate(-10.07)"/><ellipse class="cls-63" cx="447.81" cy="514.74" rx="9.64" ry="3.07" transform="translate(-120.78 137.65) rotate(-15.43)"/><ellipse class="cls-64" cx="447.9" cy="514.98" rx="29.33" ry="16.91" transform="translate(-83.16 86.26) rotate(-10.07)"/><ellipse class="cls-65" cx="331.96" cy="536.34" rx="25.99" ry="14.99" transform="translate(-88.68 66.32) rotate(-10.07)"/><path class="cls-44" d="M1123.48,597.73a118,118,0,0,1,2.7,18.27c3.59,53.22-27.35,99-51.3,128.91-9.62,12-18.11,21.46-22.8,27.81a38.47,38.47,0,0,0-2.87,4.38c-10.54,19.83-26.08,24-39.32,23A59.94,59.94,0,0,1,995,797c-2.45-.85-4.58-1.73-6.29-2.51a26.63,26.63,0,0,0-10-2.43c-20.18-.87-90.4-7.28-123.72-54.19-12.19-17.16-19.53-33-23.85-46.78a135.22,135.22,0,0,1-3.8-15.15c-1.4-14.4,3.05-29.47,12.25-44,19.56-30.94,60.57-59.55,112.27-74.58a257.45,257.45,0,0,1,48.49-9.25C1060.82,542.59,1111.32,561.48,1123.48,597.73Z"/><path class="cls-66" d="M968,553.17s242.49,10,59.32,238.83c0,0-12.88,5.17-4.73,7.33s27.37-23.44,27.37-23.44,56.4-70,55.85-76.61,52.37-81.63-4.82-131.85C1101,567.43,1038,531.67,968,553.17Z"/><path class="cls-42" d="M1123.63,597.46a117.63,117.63,0,0,1,2.7,18.27c3.6,53.22-27.34,99-51.3,128.91-9.62,12-18.11,21.46-22.8,27.81a38.47,38.47,0,0,0-2.87,4.38c-10.53,19.83-26.07,24-39.32,23a60,60,0,0,1-14.88-3.17c-2.45-.85-4.58-1.74-6.29-2.52a27,27,0,0,0-10-2.43c-20.18-.87-90.4-7.27-123.72-54.18-12.18-17.17-19.53-33-23.85-46.79a135.08,135.08,0,0,1-3.8-15.14c-1.4-14.41,3-29.48,12.25-44,19.56-31,60.58-59.56,112.27-74.58a257.49,257.49,0,0,1,48.49-9.26C1061,542.32,1111.47,561.21,1123.63,597.46Z"/><ellipse class="cls-44" cx="904.99" cy="733.05" rx="60.26" ry="59.51" transform="translate(-168.63 281.71) rotate(-16.21)"/><ellipse class="cls-44" cx="1065.98" cy="682.88" rx="57.85" ry="57.13" transform="translate(-148.23 324.64) rotate(-16.21)"/><path class="cls-66" d="M1059.44,625.77s64.38,34.26,44.07,100c0,0,32.1-26.49,15.61-65.8C1119.12,659.94,1109.38,625.39,1059.44,625.77Z"/><path class="cls-66" d="M962.91,716.11c9.17,31.56-9.3,64.67-41.26,74a61.55,61.55,0,0,1-9.58,2c26.43-12.32,40.73-42.12,32.44-70.65s-36.1-45.88-64.88-42.3a60.57,60.57,0,0,1,8.81-3.31C920.4,666.5,953.74,684.55,962.91,716.11Z"/><ellipse class="cls-43" cx="905.49" cy="733.85" rx="60.66" ry="59.66" transform="translate(-168.83 281.88) rotate(-16.21)"/><ellipse class="cls-43" cx="1061.8" cy="684.53" rx="58.63" ry="57.66" transform="translate(-148.86 323.54) rotate(-16.21)"/><ellipse class="cls-44" cx="913.97" cy="731.34" rx="48.61" ry="45.04" transform="translate(-153.1 250.13) rotate(-14.39)"/><ellipse class="cls-44" cx="1053.42" cy="686.22" rx="46.98" ry="43.53" transform="translate(-137.51 283.38) rotate(-14.39)"/><ellipse class="cls-45" cx="919.83" cy="729.94" rx="42.58" ry="39.46" transform="translate(-152.57 251.55) rotate(-14.39)"/><ellipse class="cls-45" cx="1047.73" cy="687.49" rx="41.16" ry="38.13" transform="translate(-138 282.01) rotate(-14.39)"/><ellipse cx="926.36" cy="727.86" rx="36.56" ry="35.95" transform="translate(-166.33 287.46) rotate(-16.21)"/><ellipse cx="1042.2" cy="689.39" rx="35.33" ry="34.75" transform="translate(-150.99 318.27) rotate(-16.21)"/><path d="M853.41,674.55a26.56,26.56,0,0,1,1.83-4.37,37.27,37.27,0,0,1,2.42-4.07,46.25,46.25,0,0,1,6.13-7.3A47.2,47.2,0,0,1,880.1,648.5a45.61,45.61,0,0,1,9.49-2.36l2.43-.27c.81-.06,1.63-.07,2.44-.1a43.59,43.59,0,0,1,4.85.16,40.87,40.87,0,0,1,17.92,6,139.17,139.17,0,0,0-17.92.31A68.63,68.63,0,0,0,882.87,656a77.54,77.54,0,0,0-15.16,7.7A132.14,132.14,0,0,0,853.41,674.55Z"/><ellipse class="cls-2" cx="935.91" cy="706.97" rx="11.41" ry="11.22" transform="translate(-160.12 289.3) rotate(-16.21)"/><ellipse class="cls-2" cx="1073.66" cy="669.4" rx="11.26" ry="11.07" transform="translate(-144.16 326.25) rotate(-16.21)"/><ellipse class="cls-2" cx="898.99" cy="757.37" rx="11.65" ry="3.88" transform="translate(-155.91 238.73) rotate(-13.93)"/><ellipse class="cls-2" cx="1040.31" cy="714.64" rx="11.26" ry="3.75" transform="translate(-141.46 271.5) rotate(-13.93)"/><path d="M1072.77,608.56a112.41,112.41,0,0,0-18.44-1.08,60.45,60.45,0,0,0-17.06,2.91,52.17,52.17,0,0,0-15.07,8.17,116.8,116.8,0,0,0-13.37,12.69,40.52,40.52,0,0,1,9.06-17.27,39.37,39.37,0,0,1,16.83-11.16,42.7,42.7,0,0,1,20-1.59,45.09,45.09,0,0,1,9.52,2.59A33.78,33.78,0,0,1,1072.77,608.56Z"/><path class="cls-50" d="M985.84,765a25.29,25.29,0,0,1,3.9,4c.87,1.21,1.38,2.44.79,3.26-1.57,2.19,30.27.27,32.94-9.57s-2.32-8-2.32-8S987.1,768,985.84,765"/><path class="cls-3" d="M989.28,769c1.66,1.24,4.16,0,4.16,0"/><path d="M989.28,769c.55-.13.87-.22,1.17-.3a3.72,3.72,0,0,1,.84-.15,4.39,4.39,0,0,1,.93.07,5.8,5.8,0,0,1,1.22.41,2,2,0,0,1-.83,1.12,2.39,2.39,0,0,1-1.22.4,2.31,2.31,0,0,1-1.32-.34A1.64,1.64,0,0,1,989.28,769Z"/><path d="M1021.79,750.23a5.88,5.88,0,0,1,5.8.66,4,4,0,0,1,1.54,2.91,4.23,4.23,0,0,1-.91,2.86,12.33,12.33,0,0,0-.63-2.55,4.06,4.06,0,0,0-1.24-1.66,10.9,10.9,0,0,0-2-1.15C1023.53,751,1022.7,750.64,1021.79,750.23Z"/><path class="cls-3" d="M1024.1,758.9a33.32,33.32,0,0,1-13.11,6.3"/><path d="M1024.1,758.9a11.21,11.21,0,0,1-2.59,2.77,16.25,16.25,0,0,1-3.2,2,14.76,14.76,0,0,1-7.32,1.55,36.27,36.27,0,0,1,3.25-1.79l3.21-1.56C1019.61,760.83,1021.72,759.82,1024.1,758.9Z"/><path class="cls-67" d="M926.58,581.15c-3.44-9.15-10.3-22-24.62-20.18s-14.77,13.66-10.24,13.13,9.85-9.11,9.64-9.83,1.72-7.53-2.3-7.93-21.7,8.65-15.62,10.79,13.27-5.42,12.64-7.58-1-11.43-12.29-7.36-20.19.4-20.19.4"/><circle class="cls-68" cx="861.02" cy="551.78" r="3.75"/><path class="cls-67" d="M970.3,566.45c-.38-11.38,1-28.2,15.37-32.29s19.51,8.55,15,9.89-13-5.7-13.1-6.57-4.64-7.43-1-9.56,24.1.19,19.16,5.08-14.79-.26-15-2.87-3.63-12.8,8.76-13.18a28.64,28.64,0,0,0,19.37-8.11"/><ellipse class="cls-68" cx="1020.96" cy="506.87" rx="3.86" ry="4.37" transform="translate(-45.96 105.67) rotate(-5.79)"/><circle class="cls-69" cx="861.01" cy="551.78" r="9.94"/><ellipse class="cls-70" cx="1021" cy="506.88" rx="11.43" ry="13.1" transform="translate(-100.9 305.1) rotate(-16.21)"/><path class="cls-31" d="M2027.4,678.55a117.27,117.27,0,0,1-6.9,17.21c-23.78,48-73.75,72-109.65,85.89-14.41,5.54-26.56,9.46-33.83,12.6a36,36,0,0,0-4.71,2.35c-19.16,11.87-34.75,7.64-45.75.1a60.25,60.25,0,0,1-11.3-10.28c-1.7-2-3.1-3.81-4.19-5.36a26.78,26.78,0,0,0-7.48-7.18c-17.06-11-74.74-52-79.92-109.54-1.9-21-.24-38.53,3-52.63a135.73,135.73,0,0,1,4.35-15.06c6.07-13.2,17.55-24,32.87-32,32.62-17,82.65-21,135.09-7.94a258.05,258.05,0,0,1,46.74,16.48C2000.92,599.05,2035.18,641,2027.4,678.55Z"/><path class="cls-71" d="M1915,561.28s205.3,131.21-69.28,237.15c0,0-13.78-2-7.81,4s35.6-6.5,35.6-6.5,84.3-32.21,87.17-38.22,86.69-44.33,62.46-116.81C2023.17,640.87,1986.65,578,1915,561.28Z"/><path class="cls-42" d="M2027.67,678.39a117.27,117.27,0,0,1-6.9,17.21c-23.78,48-73.75,72-109.65,85.89-14.41,5.54-26.56,9.46-33.83,12.6a36,36,0,0,0-4.71,2.35c-19.16,11.87-34.75,7.64-45.75.1a60.25,60.25,0,0,1-11.3-10.28c-1.7-2-3.1-3.82-4.19-5.36a26.78,26.78,0,0,0-7.48-7.18c-17.06-11-74.73-52-79.92-109.54-1.9-21-.24-38.53,3-52.63a138.13,138.13,0,0,1,4.35-15.07c6.07-13.2,17.55-24,32.87-32,32.62-17,82.65-21,135.09-7.94A259.59,259.59,0,0,1,1946,573C2001.19,598.89,2035.45,640.8,2027.67,678.39Z"/><ellipse class="cls-31" cx="1769.48" cy="685.49" rx="59.74" ry="60.49" transform="translate(675.61 2236.1) rotate(-75.98)"/><ellipse class="cls-31" cx="1934.48" cy="723.34" rx="57.35" ry="58.07" transform="translate(763.9 2424.86) rotate(-75.98)"/><path class="cls-71" d="M1962.57,636.37S2015,687.44,1977,745.09c0,0,38.38-16.53,33.49-59.05C2010.53,686,2010.82,650,1962.57,636.37Z"/><path class="cls-71" d="M1828.28,700.07c-8,32-40.75,51.4-73.17,43.3a61.69,61.69,0,0,1-9.31-3.13c29.15,2.68,56.62-15.94,63.85-44.89s-8.12-58-34.9-69.49a62,62,0,0,1,9.32,1.59C1816.48,635.54,1836.27,668.06,1828.28,700.07Z"/><ellipse class="cls-43" cx="1770.21" cy="687.51" rx="60.7" ry="61.72" transform="translate(674.2 2238.33) rotate(-75.98)"/><ellipse class="cls-43" cx="1932.87" cy="724.23" rx="58.66" ry="59.65" transform="translate(761.82 2423.97) rotate(-75.98)"/><ellipse class="cls-44" cx="1778.95" cy="689.64" rx="45.83" ry="49.46" transform="translate(629.97 2212.84) rotate(-74.16)"/><ellipse class="cls-44" cx="1924.64" cy="721.41" rx="44.29" ry="47.8" transform="translate(705.33 2376.1) rotate(-74.16)"/><ellipse class="cls-45" cx="1784.82" cy="691.42" rx="40.14" ry="43.32" transform="translate(632.53 2219.77) rotate(-74.16)"/><ellipse class="cls-45" cx="1918.99" cy="719.62" rx="38.8" ry="41.87" transform="translate(702.95 2369.36) rotate(-74.16)"/><ellipse cx="1791.61" cy="692.93" rx="36.58" ry="37.19" transform="translate(685.15 2263.21) rotate(-75.98)"/><ellipse cx="1913.16" cy="718.46" rx="35.35" ry="35.95" transform="translate(752.48 2400.47) rotate(-75.98)"/><path d="M1754.8,608.71a26.33,26.33,0,0,1,3.85-2.89,39.32,39.32,0,0,1,4.22-2.33,47.8,47.8,0,0,1,28.72-4,46.68,46.68,0,0,1,9.55,2.79l2.27,1c.74.36,1.46.77,2.19,1.16a43.67,43.67,0,0,1,4.18,2.61,41.9,41.9,0,0,1,12.72,14.39,138.38,138.38,0,0,0-15.88-9,69.64,69.64,0,0,0-16.41-5.12,78.78,78.78,0,0,0-17.29-1A131.21,131.21,0,0,0,1754.8,608.71Z"/><ellipse class="cls-2" cx="1810.72" cy="679.46" rx="11.42" ry="11.61" transform="translate(712.7 2271.54) rotate(-75.98)"/><ellipse class="cls-2" cx="1958.41" cy="710.09" rx="11.46" ry="11.27"/><ellipse class="cls-2" cx="1771.78" cy="719.44" rx="3.95" ry="11.85" transform="translate(982.61 2461.28) rotate(-87.73)"/><ellipse class="cls-2" cx="1898.56" cy="739.69" rx="3.82" ry="11.46" transform="translate(655.77 2354.35) rotate(-73.7)"/><path d="M1981.43,663.07a111.27,111.27,0,0,0-15.62-10.44,60.93,60.93,0,0,0-16.51-6.21,53.13,53.13,0,0,0-17.46-.53,116.77,116.77,0,0,0-18.24,4.37,41.32,41.32,0,0,1,16.82-10.49,40.17,40.17,0,0,1,20.49-1.18,43.48,43.48,0,0,1,18.4,8.84,46.13,46.13,0,0,1,7,7.13A34.48,34.48,0,0,1,1981.43,663.07Z"/><path class="cls-72" d="M1947.29,550.82s-16.68,0-24.45,7-17,24.53-17.34,25.13h0a.51.51,0,0,1-1-.05l-.1-.31a.51.51,0,0,1-.28-.66h0c2.76-7.13,13.65-22.37,18.21-27.65s28.11-10.78,29.27-8S1947.29,550.82,1947.29,550.82Z"/><path class="cls-72" d="M1869,572.28c2.86-5.89-.9-24.44-2.62-31.07S1842.88,517,1840,518.37s1.93,5.8,1.93,5.8,17.79,9.75,21.88,19.34,3.3,28.28,3.3,28.28S1867,576.36,1869,572.28Z"/><path class="cls-73" d="M1819.37,569.13s-4.59-16.79.15-30.61c0,0,13.93,21.05,22,25.86Z"/><path class="cls-73" d="M1942.54,592.61s27-5.91,29.8-12.06c0,0-5.32,29.61-15.68,27.59Z"/><path class="cls-74" d="M1807.57,568.63a36.26,36.26,0,0,1-2.91-5.82"/><line class="cls-74" x1="1830.87" y1="566" x2="1828.55" y2="561.56"/><line class="cls-74" x1="1835.01" y1="564.89" x2="1833.8" y2="562.87"/><line class="cls-74" x1="1826.84" y1="566.71" x2="1825.83" y2="563.88"/><path class="cls-74" d="M1797,543.14s2.07,6.68,2.62,7.19"/><line class="cls-74" x1="1797.54" y1="542.65" x2="1801.96" y2="549.78"/><line class="cls-6" x1="1946.78" y1="596.24" x2="1951.01" y2="594.72"/><path class="cls-6" d="M1950.41,600.57s3.33-1.31,3.83-1.61"/><path class="cls-6" d="M1944.81,573.62s3.33-2.91,3.33-3.74"/><path class="cls-6" d="M1954.38,549.91s-3.33,5-4.16,5.83"/><line class="cls-6" x1="1954.38" y1="551.58" x2="1952.3" y2="556.98"/><line class="cls-74" x1="1949.6" y1="598.66" x2="1951.01" y2="598.15"/><line class="cls-74" x1="1942.73" y1="571.96" x2="1943.98" y2="571.12"/><path class="cls-75" d="M1825.47,760.43a33.68,33.68,0,0,0,34.69,8.67"/><path class="cls-75" d="M1862.89,772.58s-4.81-3.2-3.11-8.38"/><path class="cls-76" d="M1821.61,761.47a7.46,7.46,0,0,0,5.84-4.15"/><polygon class="cls-77" points="1832.82 766.28 1826.79 769.58 1828.27 763.14 1832.82 766.28"/><polygon class="cls-77" points="1854.31 770.44 1852.24 776.73 1848.7 770.78 1854.31 770.44"/><polyline class="cls-78" points="1826.84 769.38 1827.17 768.07 1828.2 768.73 1826.79 769.58"/><polygon class="cls-79" points="1851.02 775.23 1852.24 776.73 1852.71 774.85 1851.02 775.23"/><path class="cls-29" d="M2291.05,614.13a114,114,0,0,1-.07,17.92c-4.28,51.55-40.6,90.94-67.91,116.16-11,10.1-20.49,17.94-25.9,23.35a35.31,35.31,0,0,0-3.39,3.79c-13,17.48-28.49,19.23-41.05,16.37a58.12,58.12,0,0,1-13.81-5.2c-2.23-1.17-4.14-2.33-5.67-3.33a26.14,26.14,0,0,0-9.27-3.79c-19.23-3.76-85.63-20.1-110.77-69.93-9.19-18.23-13.92-34.52-16.07-48.32a131.89,131.89,0,0,1-1.45-15.08c.75-14,7.21-27.82,18.14-40.42,23.26-26.83,66.74-48.31,118.5-55.21a250.29,250.29,0,0,1,47.84-1.83C2239,552.16,2284.66,577.61,2291.05,614.13Z"/><path class="cls-80" d="M2148.39,548.81s231.08,44.77,22.19,237.64c0,0-13.1,3.08-5.6,6.34s29.65-18.51,29.65-18.51,64.25-58.93,64.69-65.35,62.07-70.66,14.52-127.13C2273.84,581.8,2218.68,538.37,2148.39,548.81Z"/><path class="cls-42" d="M2291.23,613.89a113.85,113.85,0,0,1-.06,17.91c-4.28,51.56-40.6,91-67.92,116.16-11,10.11-20.48,17.95-25.9,23.36a36.43,36.43,0,0,0-3.39,3.79c-13,17.48-28.49,19.23-41.05,16.37a58.45,58.45,0,0,1-13.81-5.21c-2.23-1.17-4.14-2.32-5.66-3.32a25.83,25.83,0,0,0-9.28-3.79c-19.22-3.77-85.63-20.11-110.76-69.93-9.19-18.23-13.93-34.52-16.07-48.32a129.67,129.67,0,0,1-1.45-15.08c.75-14,7.21-27.82,18.14-40.42,23.25-26.84,66.74-48.31,118.49-55.21a249.5,249.5,0,0,1,47.84-1.83C2239.16,551.92,2284.84,577.37,2291.23,613.89Z"/><ellipse class="cls-29" cx="2061.88" cy="712.16" rx="58.44" ry="57.71" transform="translate(-76.02 278.68) rotate(-7.59)"/><ellipse class="cls-29" cx="2223.54" cy="687.43" rx="56.1" ry="55.41" transform="translate(-71.33 299.82) rotate(-7.59)"/><path class="cls-80" d="M2225.57,631.72s56.76,42.2,27.74,102.26c0,0,34.63-20.73,24.52-60.83C2277.83,673.15,2273.51,638.61,2225.57,631.72Z"/><path class="cls-80" d="M2119.88,704.33c4.21,31.59-18.31,60.66-50.3,64.92a59.59,59.59,0,0,1-9.48.51c27.14-8,45.18-34.47,41.37-63s-27.95-49.23-56.07-50a60.45,60.45,0,0,1,8.93-1.89C2086.32,650.58,2115.67,672.73,2119.88,704.33Z"/><ellipse class="cls-43" cx="2065.89" cy="713.16" rx="59.19" ry="58.21" transform="translate(-76.12 279.22) rotate(-7.59)"/><ellipse class="cls-43" cx="2223.89" cy="688.43" rx="57.21" ry="56.26" transform="translate(-71.46 299.88) rotate(-7.59)"/><ellipse class="cls-44" cx="2074.44" cy="711.98" rx="47.43" ry="43.95" transform="translate(-61.15 212.5) rotate(-5.78)"/><ellipse class="cls-44" cx="2215.56" cy="688.83" rx="45.84" ry="42.47" transform="translate(-58.1 226.59) rotate(-5.78)"/><ellipse class="cls-45" cx="2080.3" cy="711.48" rx="41.55" ry="38.5" transform="translate(-61.07 213.09) rotate(-5.78)"/><ellipse class="cls-45" cx="2209.89" cy="689.22" rx="40.16" ry="37.21" transform="translate(-58.17 226.02) rotate(-5.78)"/><ellipse cx="2086.89" cy="710.43" rx="35.67" ry="35.08" transform="translate(-75.57 281.97) rotate(-7.59)"/><ellipse cx="2204.28" cy="690.25" rx="34.47" ry="33.9" transform="translate(-71.88 297.3) rotate(-7.59)"/><path d="M2024.31,648.34a32.28,32.28,0,0,1,5.3-7.56,45.06,45.06,0,0,1,7-6.17,46.25,46.25,0,0,1,17.26-7.6,44.85,44.85,0,0,1,9.53-.88l2.38.1c.8,0,1.59.17,2.37.26a43.15,43.15,0,0,1,4.67.87,39.74,39.74,0,0,1,16.4,8.46,140.94,140.94,0,0,0-17.34-2.24,67.71,67.71,0,0,0-16.39,1.27,76.45,76.45,0,0,0-15.73,5.18A133.17,133.17,0,0,0,2024.31,648.34Z"/><ellipse class="cls-2" cx="2099.17" cy="691.67" rx="11.13" ry="10.95" transform="translate(-72.99 283.42) rotate(-7.59)"/><ellipse class="cls-2" cx="2237.55" cy="675.56" rx="10.99" ry="10.8" transform="translate(-69.64 301.57) rotate(-7.59)"/><ellipse class="cls-2" cx="2056.19" cy="734.9" rx="11.37" ry="3.79" transform="translate(-59.27 193.76) rotate(-5.32)"/><ellipse class="cls-2" cx="2198.76" cy="714.34" rx="10.99" ry="3.66" transform="translate(-56.75 206.89) rotate(-5.32)"/><path d="M2245.58,616.74a110.76,110.76,0,0,0-17.65-3.66,58.9,58.9,0,0,0-16.85.33,51.8,51.8,0,0,0-15.71,5.64,116.81,116.81,0,0,0-14.8,10.23,39.35,39.35,0,0,1,11.22-15.4,38.52,38.52,0,0,1,17.9-8.34,41.45,41.45,0,0,1,19.58,1.41,44.11,44.11,0,0,1,8.81,3.92A33.16,33.16,0,0,1,2245.58,616.74Z"/><path class="cls-81" d="M2173.68,753.74A10.47,10.47,0,0,1,2173,759a24.26,24.26,0,0,0-10.45-.8,25.3,25.3,0,0,0-6.71,1.84,15.35,15.35,0,0,0-5.4-.23,14.94,14.94,0,0,0-6,2.12,10.27,10.27,0,0,1-1.5-4.13c-.91-6.85,5.22-13.32,13.71-14.46S2172.77,746.88,2173.68,753.74Z"/><path class="cls-61" d="M2173,759q-.14.35-.3.69c-.1.21-.21.42-.32.63a15.7,15.7,0,0,1-8.92,7,18.68,18.68,0,0,1-3.49.8,17.29,17.29,0,0,1-11.77-2.45,12.18,12.18,0,0,1-3.75-3.78,14.94,14.94,0,0,1,6-2.12,15.35,15.35,0,0,1,5.4.23,25.3,25.3,0,0,1,6.71-1.84A24.26,24.26,0,0,1,2173,759Z"/><path class="cls-61" d="M2150.9,759.56s6.65.06,11,4.23"/><path class="cls-82" d="M2170,533.05l-.12.07c-1,.39-14.27,5.74-18.42,13.56-4.24,8-6.37,25.21-6.44,25.8h0a.6.6,0,0,1-.66.17l-.35-.12a.44.44,0,0,1-.46-.44h0c0-6.62,4.22-22.38,6.35-28.1s20.36-17.78,22.27-15.93S2170.48,532.67,2170,533.05Z"/><path class="cls-82" d="M2100.84,578.24c.22-5.87-9.7-19.82-13.74-24.68s-31.36-11.78-33.69-9.67,3.94,4.11,3.94,4.11,20.64,1.88,28,8.36,13.41,22.15,13.41,22.15S2100.7,582,2100.84,578.24Z"/><path class="cls-83" d="M2005.69,609.77c2.21-.75,24.15-11.15,12.94-21.63l1.93-2.07s16.28-2.63,19.19-1.63,25.94,7.71,25.94,7.71-9.81-1.08-21.89,15.78c0,0-21.79-4-42.22,5.63Z"/><path class="cls-83" d="M2023,584.59c-2.67-.22,18.31-4.74,12.16-17.41,0,0,18.15-6.73,43.09,16.09,0,0,0,.05,0,0-.88-.2-7.88-1.11-13.58,8.53C2064.61,591.84,2048.41,583.66,2023,584.59Z"/><path class="cls-84" d="M2065.72,592.07c.92.44-32.37-9.36-43.35-5.12s-5-2.58,4.11-3.79S2041,580.11,2065.72,592.07Z"/><path class="cls-84" d="M2043.61,607.68c1,.13-31.35.48-41.4,8.29s-6.42.4-.55-4.08a36.38,36.38,0,0,1,4.11-2.88C2010.88,606.09,2019,604.55,2043.61,607.68Z"/><path class="cls-83" d="M2219.46,553.94s-15.22.72-12.18-12.63c0,0-17-1-31.05,24.73-.09.18.06.44.22.38,1.62-.66,5.53-1.19,11.16,5.05a.2.2,0,0,0,.3,0A69.89,69.89,0,0,1,2219.46,553.94Z"/><path class="cls-85" d="M2176.07,565.92a.14.14,0,0,0,.25.14c3.15-4.12,17.29-21.93,26.87-23.62,10.84-1.9-.42-3.18-.42-3.18s-8.51-2.1-16.09,8.16A90.79,90.79,0,0,0,2176.07,565.92Z"/><path class="cls-83" d="M2237.61,574.7c-1.82-.22-20.3-5.19-14.41-18l-3-1.51s-12.71,1.23-14.64,2.87-15.32,11.84-17.27,13.33c0,0,0,.09.05.08,1.41-.44,8.24-1.69,19.66,10.3,0,0,15.27-9,32.7-4.36Z"/><path class="cls-84" d="M2079.57,583.76s0,.07,0,0c-2.46-1.46-28.13-16.47-41.57-15.12-14.14,1.43-.43-3.17-.43-3.17s10-4.57,22.58,3A94.38,94.38,0,0,1,2079.57,583.76Z"/><path class="cls-86" d="M2187.76,571.64c-.58.65,22.11-16.69,31.26-15.13s3.09-3.65-3.94-2.71S2203.34,554.31,2187.76,571.64Z"/><path class="cls-85" d="M2208,581.54c-.72.36,23.43-6.82,32.71-1.59s4.86-1.11-.54-4.09a26.29,26.29,0,0,0-3.73-1.83C2232,572.38,2225.64,572.78,2208,581.54Z"/><path class="cls-60" d="M2080,583.41c-.91-.18-8.08-1.19-14.12,7.92.14.06.57-.06-.57-.35,1,.29.55.43.55.43s-9.81-1.08-21.89,15.78c0,0-.41-.08-1.17-.19h0c-5.49.25-31.58,1.35-40.41,8.22-10,7.81-6.42.39-.55-4.09a37.16,37.16,0,0,1,4.11-2.88,19.69,19.69,0,0,1,5.59-2.12c6.53-3.94,15.21-11.32,7.27-18.75-4,.89-2-1.7,2.42-3.52a23.25,23.25,0,0,1,3.9-1.19h0c5.38-2,13.9-6.49,9.42-14.46-7.83.24,3.15-3.45,3.15-3.45s10-4.57,22.58,3A94.89,94.89,0,0,1,2079.69,583s0,.07,0,.06l-.25-.16.56.46A0,0,0,0,1,2080,583.41Z"/><path class="cls-60" d="M2240.87,579.2c-8.16-4.6-27.82.4-31.95,1.43h0c-.53.28-.82.45-.82.45-11.42-12-18.25-10.75-19.66-10.31a1.63,1.63,0,0,1-.69,0c-5.63-6.24-9.54-5.71-11.16-5.06-.14.06-.27-.13-.24-.3a.14.14,0,0,1-.14-.2,91.06,91.06,0,0,1,10.61-18.5c7.57-10.25,16.08-8.15,16.08-8.15s7.28.82,4.51,2.14c-2,9.14,4.53,11.64,8.81,12.3a19,19,0,0,1,3.37.24c5.09.58,3.75,2.81,3.75,2.81-4.22,9.14,4.06,14.28,9.77,16.54a12,12,0,0,1,3.51.73,26.79,26.79,0,0,1,3.72,1.84C2245.73,578.09,2250.15,584.44,2240.87,579.2Z"/></g></g></svg>