<?xml version="1.0" encoding="UTF-8"?><svg id="Layer_1" xmlns="http://www.w3.org/2000/svg" viewBox="0 0 2500 844"><defs><style>.cls-1{stroke-width:6px;}.cls-1,.cls-2,.cls-3,.cls-4,.cls-5,.cls-6,.cls-7,.cls-8,.cls-9,.cls-10{stroke-miterlimit:10;}.cls-1,.cls-2,.cls-3,.cls-6,.cls-7{stroke-linecap:round;}.cls-1,.cls-5,.cls-6,.cls-7,.cls-8,.cls-9,.cls-10{stroke:#000;}.cls-1,.cls-6,.cls-7,.cls-8,.cls-9,.cls-10{fill:none;}.cls-11{fill:#045ba3;}.cls-12{fill:#0075e7;}.cls-13{fill:#ffe8ff;}.cls-14{fill:#ffc6ff;}.cls-15{fill:#ffd6a5;}.cls-16{fill:#ffadad;}.cls-17{fill:#fdffb6;}.cls-18{fill:#806380;}.cls-19{fill:#806b53;}.cls-20{fill:#a0c4ff;}.cls-21{fill:#98bf8f;}.cls-22{fill:#658060;}.cls-23{fill:#8f6262;}.cls-24{fill:#bfa17c;}.cls-25{fill:#bf95bf;}.cls-26{fill:#bf8282;}.cls-27{fill:#caffbf;}.cls-28{fill:#d9e7ff;}.cls-29{fill:#7893bf;}.cls-30{fill:#506280;}.cls-2{fill:#ffe7ff;}.cls-2,.cls-3{stroke:#ffe7ff;}.cls-3{fill:#e5e5d0;}.cls-4{stroke:#fff;}.cls-4,.cls-5{fill:#fff;}.cls-5{stroke-width:7px;}.cls-6,.cls-10{stroke-width:9px;}.cls-7,.cls-8{stroke-width:11px;}.cls-9{stroke-width:8px;}</style></defs><rect class="cls-14" width="2501" height="843.02"/><path class="cls-20" d="m2501,3.99v47.9c-166.39,66.23-307.22,167.28-407.55,291.21-1.47,1.8-2.92,3.61-4.35,5.42-.19.23-.38.46-.55.69-.06.06-.11.13-.15.19-12.34,15.54-24.04,31.43-35.07,47.65-.83,1.2-1.63,2.39-2.44,3.59-1.21,1.8-2.4,3.59-3.57,5.39-3.57,5.39-7.06,10.81-10.48,16.27-69.23,110.71-108.18,235.61-108.18,367.77,0,17.79.71,35.45,2.11,52.96.01.22.04.42.05.64h-121.4c-.03-.22-.05-.42-.08-.64-2.96-25.42-4.47-51.17-4.47-77.2,0-186.53,77.59-358.6,208.41-496.72,110.08-116.28,257.89-208.52,428.87-265.11h58.83Z"/><path class="cls-27" d="m1804.89,765.82c0,26.25,1.53,52.22,4.54,77.84h-112.83c-5.17-33.45-7.84-67.52-7.84-102.09,0-322.82,232.37-602.3,570.83-737.59h182.58c-374.13,123.83-637.29,418.29-637.29,761.83Z"/><path class="cls-17" d="m1688.76,741.57c0,34.57,2.67,68.64,7.84,102.09h-103.25c-8.59-42.8-13.05-86.7-13.05-131.44,0-301.02,202.05-564.34,503.74-708.24h175.55c-338.46,135.29-570.83,414.77-570.83,737.59Z"/><path class="cls-15" d="m1580.29,712.22c0,44.74,4.47,88.64,13.05,131.44h-69c-14.36-54.77-21.9-111.54-21.9-169.72,0-276.01,169.86-520.33,430.67-669.95h150.91c-301.7,143.89-503.74,407.22-503.74,708.24Z"/><path class="cls-16" d="m1502.45,673.94c0,58.18,7.54,114.95,21.9,169.72h-62.77c-23.28-68.74-35.69-141.03-35.69-215.66,0-249.36,138.65-472.86,357.74-624.01h149.5c-260.81,149.62-430.67,393.95-430.67,669.95Z"/><path class="cls-14" d="m539.5,409.52h23.56c34.51,0,62.54,28.02,62.54,62.54v53.16h-38.17c-38.24,0-69.29-31.05-69.29-69.29v-25.03c0-11.79,9.57-21.37,21.37-21.37Z" transform="translate(1039.23 -104.5) rotate(90)"/><path class="cls-25" d="m544.61,434.1c2.26.11,4.49.45,6.71.86,2.22.41,4.42.94,6.6,1.56,4.36,1.23,8.63,2.84,12.76,4.79,8.24,3.93,15.99,9.32,22.3,16.32,3.16,3.49,5.85,7.45,7.99,11.68,2.14,4.23,3.73,8.77,4.47,13.42l.32,1.73.16,1.75c.08,1.17.24,2.33.25,3.49-.03,2.33,0,4.65-.36,6.93-.47,4.58-1.77,8.99-3.43,13.15-.04-1.14-.02-2.25-.03-3.37.01-1.11.08-2.2-.02-3.31-.07-1.1-.1-2.19-.15-3.28-.01-1.08-.21-2.16-.3-3.23-.14-2.15-.6-4.24-.94-6.32-.21-1.04-.5-2.05-.74-3.07l-.38-1.52-.49-1.49c-.35-.98-.59-1.99-1.01-2.94l-1.17-2.87c-.93-1.85-1.74-3.73-2.85-5.47l-.77-1.33c-.26-.44-.57-.86-.85-1.29-.59-.84-1.1-1.73-1.76-2.53l-1.87-2.46-2.03-2.35c-5.55-6.17-12.19-11.49-19.39-16.18-3.6-2.35-7.34-4.55-11.18-6.64-1.91-1.07-3.87-2.06-5.83-3.09-.99-.5-1.98-1-2.98-1.48-1-.51-2.01-.98-3.02-1.47Z"/><path class="cls-25" d="m551.92,422.15c4.54.17,9,1.05,13.38,2.18,4.39,1.16,8.68,2.69,12.86,4.56,8.33,3.75,16.2,8.91,22.85,15.54l2.4,2.58c.79.87,1.52,1.8,2.27,2.71.76.9,1.42,1.89,2.1,2.85.68.97,1.38,1.92,1.94,2.97,2.49,4.03,4.41,8.43,5.66,12.98.7,2.25,1.05,4.59,1.44,6.89.13,1.16.21,2.33.29,3.49.03.58.08,1.16.1,1.74l-.03,1.74c-.05,1.16-.05,2.31-.15,3.45-.15,1.14-.29,2.28-.46,3.41-.09.56-.14,1.13-.28,1.68l-.41,1.66c-.3,1.1-.56,2.2-.9,3.27-.65-4.5-1.08-8.84-2.21-13l-.35-1.56c-.14-.51-.31-1.02-.47-1.53-.32-1.01-.58-2.03-.91-3.03-.39-.98-.74-1.97-1.1-2.95-.32-.99-.84-1.91-1.23-2.87-.41-.95-.82-1.9-1.35-2.79-.5-.91-.93-1.84-1.45-2.73-.55-.88-1.09-1.75-1.61-2.63-.53-.88-1.17-1.7-1.74-2.55-.57-.85-1.2-1.67-1.84-2.48-.63-.81-1.24-1.64-1.95-2.39-.68-.77-1.32-1.58-2.03-2.34l-2.15-2.24c-5.87-5.86-12.59-11.02-19.81-15.67-7.23-4.66-14.87-8.85-22.89-12.95Z"/><path class="cls-25" d="m572.17,416.51s43.16,9.3,51.13,55.11c0,0,4.63-41.81,0-44.49-12.62-7.3,12.13-10.29-51.13-10.62Z"/><path class="cls-25" d="m555.9,435.43c-1.99-6.64,5.31-7.97,7.3-7.3s3.32-3.32,3.32-3.32c0,0,.46-4.2,6.97-5.64,5.98-1.33,8.63.66,8.63.66,0,0-20.05-8.3-25.9-1.33-5.85,6.97-13.18,9.95-13.18,9.95l8.87,10.22,3.98-3.24Z"/><path class="cls-10" d="m539.82,409.73h23.56c34.51,0,62.54,28.02,62.54,62.54v53.16h-38.17c-38.24,0-69.29-31.05-69.29-69.29v-25.03c0-11.79,9.57-21.37,21.37-21.37Z" transform="translate(1039.77 -104.61) rotate(90)"/><path class="cls-14" d="m430.41,446.72s-112.56,99.87-35.4,133.52c0,0,183.91,15.66,204.8-3.48,20.89-19.15,14.5-80.64-49.89-139.82-64.4-59.18-119.51,9.78-119.51,9.78Z"/><path class="cls-25" d="m370.65,529.06s7.97-8.63,12.62.66c3.44,6.87,6.51,22.45,7.88,30.11.27,1.49-1.43,2.54-2.64,1.64-3.88-2.89-10.48-6.95-16.53-6.52-9.3.66-1.33-25.9-1.33-25.9Z"/><path class="cls-18" d="m394.55,573.54s138.71,6.19,143.72,5.75c5.01-.44-1.98,8.18-10.77,7.52-8.79-.66-130.71-5.86-132.5-6.58s-.46-6.7-.46-6.7Z"/><path class="cls-25" d="m514.07,435.43s63.74,50.46,71.71,138.11c0,0,18.84,14.94,24.69-19.09,0,0,9.21-57.62-67.5-124.18-76.71-66.56,0,0,0,0l-28.9,5.16Z"/><path class="cls-25" d="m448,434.44s11.95.66,16.6,11.29c4.65,10.62,42.5,20.58,60.42,10.62,17.93-9.96,25.23-4.65,25.23-4.65l-16.6-17.26-85.65-5.13v5.13Z"/><path class="cls-10" d="m430.88,447.03s-112.56,99.87-35.4,133.52c0,0,183.91,15.66,204.8-3.48,20.89-19.15,14.5-80.64-49.89-139.82-64.4-59.18-119.51,9.78-119.51,9.78Z"/><path class="cls-14" d="m400.83,580.86c-1.75-3.25-48.57-.57-67.71,4.56-19.14,5.14-18.85-9.7-18.85-9.7l-4.57-27.09s-5.41-21.34,8.03-23.29c13.44-1.95,14.6,17.37,16.38,27.53s14.54,6.54,14.54,6.54l34.61-5.12"/><path class="cls-18" d="m335.46,582.17s31.13-13.62,62.71-8.47l1.45,6.49-64.16,1.98Z"/><path class="cls-25" d="m327.49,532.38s-3.98-13.28-4.65-4.65c0,0,3.32,28.55,9.3,35.19,6.77,7.52,31.87-3.32,31.87-3.32,0,0-25.9,1.99-27.89-1.33-1.99-3.32-8.63-25.9-8.63-25.9Z"/><path class="cls-10" d="m381.94,554.95l-33.47,4.76s-12.75,3.62-14.54-6.54c-1.79-10.16-2.95-29.47-16.38-27.53-13.44,1.95-8.03,23.29-8.03,23.29l4.57,27.09s-.29,14.84,18.85,9.7c19.14-5.14,65.95-7.81,67.71-4.56"/><path class="cls-14" d="m530.74,585.29s29.28,4.88,36.12,9.76c6.83,4.88,27.33,0,26.36-4.88s19.52-66.38-20.5-47.83c0,0-10.74,11.71-8.79,29.28"/><path class="cls-13" d="m562.87,569.89s4.93-26.34,9.6-26.28c2.52.03,15.63-3.59,10.98-1.6-2.83,1.21-7.23,14.53-8.3,19.59-1.57,7.41-1.31,15.63-2.99,16.93s-5.31-4.32-9.3-8.63Z"/><path class="cls-18" d="m576.48,595.45c1.6.4.93-7.6,1.08-9.24l2.9-31.92s4.51-22.32,15.27-5.31c.48.75.13-2.2.31-1.32,1.04,5.07,3.83,23.87-6.94,43.16,0,0-4.37,10.9-37.38-.86,0,0-17.73-1.13-17.73-6.44,0-1.88,4.65-3.98,4.65-3.98,0,0,19.82.94,21.25,3.32,1.99,3.32,1.78,5.01,7.97,6.64,3.6.95,3.32,4.65,8.63,5.98Z"/><path class="cls-6" d="m532.66,586.16s27.21,3.86,34.04,8.74c6.83,4.88,24.55-.24,26.36-4.88,2.01-5.19,16.04-55.87-11.19-50.98-6.41,1.15-11.77,5.51-14.54,11.41-2.4,5.11-4.52,12.35-3.56,21.02"/><path class="cls-14" d="m658.78,277.56c-.37,6.59-1.28,13.03-2.65,19.31-12.03,54.98-56.85,92.24-89.93,115.5-13.28,9.32-24.67,16.41-31.29,21.47-1.75,1.34-3.16,2.53-4.2,3.59-16.52,16.98-33.49,16.64-46.62,11.75-5.5-2.05-10.32-4.9-14.14-7.59-2.24-1.58-4.13-3.1-5.63-4.4-2.77-2.39-5.97-4.25-9.46-5.42-20.19-6.82-89.44-33.99-109.39-91.33-7.29-20.98-10.05-39.23-10.39-54.42-.12-5.96.13-11.47.61-16.47,2.82-15,11.77-28.96,25.37-40.98,28.93-25.59,78.91-42.5,135.71-42.5,18.14,0,35.57,1.73,51.85,4.9,62.9,12.28,108.51,46.29,110.15,86.59Z"/><path class="cls-25" d="m514.34,186.61s242.75,81.49-10.23,259.44c0,0-14.57,1.45-6.95,6.04s34.64-15.7,34.64-15.7c0,0,77.75-54.31,79.15-61.17,1.4-6.86,77.09-67.28,33.93-135.01,0,0-53.24-54.76-130.53-53.61Z"/><path class="cls-14" d="m444.55,473.45s0,63.74-2.27,78.35c-2.27,14.61-6.81-2.66-6.81-2.66,0,0-6.43,29.22-11.73,2.66-5.3-26.56,6.81-78.35,6.81-78.35,0,0-3.5-5.61-7.88,4.35"/><path d="m444.55,473.45c.66,7.91,1.07,15.83,1.39,23.75.19,3.96.27,7.92.38,11.89.11,3.96.19,7.93.2,11.89.04,7.94.04,15.86-.36,23.88-.14,2.02-.23,4.01-.49,6.11-.1,1.04-.24,2.08-.45,3.17-.21,1.08-.44,2.19-1,3.54-.11.31-.38.76-.59,1.13-.16.24-.36.49-.55.72-.08.1-.23.25-.41.4-.17.14-.34.28-.52.4-.15.11-.44.27-.72.38-.28.11-.57.21-.86.27-.31.05-.64.06-.97.05-.16,0-.32-.02-.48-.04-.13-.03-.26-.06-.38-.09-.26-.07-.51-.16-.75-.27-.21-.1-.35-.19-.52-.29-.16-.1-.33-.22-.46-.32l-.32-.28c-.8-.76-1.18-1.38-1.52-1.94-.34-.57-.61-1.11-.85-1.63-.96-2.11-1.59-4.02-2.19-6.13l6.73-.14c-.54,2.37-1.15,4.57-1.91,6.86-.39,1.14-.81,2.28-1.32,3.44-.54,1.17-1.09,2.35-2.11,3.66-.53.64-1.16,1.41-2.49,2.08-.66.33-1.62.57-2.59.49-.97-.07-1.84-.45-2.41-.84-1.2-.82-1.7-1.61-2.16-2.29-.43-.69-.74-1.34-1.02-1.97-1.03-2.49-1.61-4.78-2.1-7.08l-.35-1.72-.26-1.76-.5-3.52c-.19-2.33-.36-4.66-.43-6.97.02-2.3-.07-4.62.04-6.9l.16-3.43c.04-1.14.12-2.28.22-3.42.33-4.55.88-9.06,1.52-13.55.33-2.24.64-4.49,1.03-6.71.36-2.23.76-4.46,1.21-6.67,1.73-8.87,3.79-17.65,6.34-26.32l.11.64c-.15-.28-.44-.63-.71-.86-.29-.25-.61-.39-.95-.49-.68-.13-1.47.22-2.17.76-.67.58-1.3,1.29-1.83,2.07-.56.76-1.02,1.6-1.51,2.43.34-.89.65-1.81,1.1-2.67.41-.88.95-1.71,1.61-2.49.68-.73,1.67-1.45,2.94-1.4.6.06,1.19.26,1.68.58.49.33.88.67,1.27,1.19l.17.23-.06.41c-1.39,8.85-2.6,17.73-3.6,26.61-.47,4.44-.96,8.87-1.31,13.31-.36,4.43-.59,8.87-.75,13.28-.22,8.81-.17,17.67,1.74,25.9.48,2.07,1.04,4.15,1.75,5.8.18.39.36.76.53,1.02.14.25.34.38.08.18-.11-.07-.44-.24-.85-.27-.41-.04-.8.09-.96.17-.32.17-.14.12.02-.12.36-.46.83-1.31,1.22-2.18.4-.89.77-1.85,1.11-2.83.67-1.96,1.27-4.09,1.74-6.1l3.16-13.54,3.56,13.4c.45,1.7,1.04,3.56,1.7,5.07.16.38.34.73.5,1.01.15.29.34.5.26.42-.01-.01-.03-.02-.05-.03-.03-.03-.1-.08-.15-.12-.07-.04-.1-.05-.2-.1-.12-.07-.26-.12-.4-.15-.07-.02-.14-.03-.21-.03-.09-.02-.19-.04-.29-.04-.2-.01-.41,0-.6.05-.17.03-.35.07-.51.14-.16.06-.33.19-.39.21-.08.05-.16.11-.23.17-.08.07-.13.15-.14.14-.04.03-.08.09-.1.13.01-.07.03-.02.09-.18.21-.46.47-1.29.64-2.14.2-.85.35-1.76.46-2.7.29-1.82.44-3.78.64-5.7l.48-5.85.4-5.89c.27-3.93.51-7.87.73-11.81l.69-11.84c.24-3.95.44-7.9.71-11.85.5-7.9,1.02-15.81,1.7-23.72Z"/><path class="cls-14" d="m542.99,475.26c-6.03-9.96-10.85-4.35-10.85-4.35,0,0,16.67,51.79,9.38,78.35-7.29,26.56-16.15-2.66-16.15-2.66,0,0-6.25,17.26-9.38,2.66-3.13-14.61-3.13-78.35-3.13-78.35"/><path d="m542.99,475.26c-.71-.91-1.41-1.82-2.21-2.62-.38-.42-.84-.75-1.25-1.13-.22-.17-.46-.31-.68-.46-.22-.16-.45-.3-.7-.4-.94-.5-1.98-.73-2.92-.52-.47.09-.92.27-1.33.52-.39.24-.81.61-1.04.9l.19-.92c1.67,4.36,3.1,8.76,4.51,13.2,1.35,4.45,2.6,8.93,3.74,13.45,1.14,4.52,2.08,9.09,2.92,13.69.84,4.6,1.52,9.25,1.92,13.96.42,4.7.59,9.46.31,14.28-.08,1.21-.14,2.41-.31,3.62l-.22,1.82-.31,1.82c-.17,1.21-.53,2.43-.79,3.65-.34,1.18-.63,2.34-1.06,3.53-.38,1.18-.85,2.37-1.4,3.57-.3.61-.56,1.2-.95,1.83-.19.31-.36.61-.57.93l-.72.95c-.21.31-.59.64-.89.96-.17.16-.3.31-.52.47-.21.16-.43.31-.65.46-.4.3-.97.55-1.55.76-.54.24-1.27.28-1.9.34-1.31,0-2.55-.4-3.39-.91l-.65-.39-.53-.41c-.37-.28-.67-.56-.94-.84-1.12-1.14-1.89-2.28-2.59-3.41-.69-1.13-1.26-2.26-1.79-3.4-1.06-2.29-1.9-4.49-2.66-6.93l6.55.17c-.83,2.13-1.69,4.01-2.93,6.04-.66,1.01-1.29,2.02-2.55,3.13-.29.27-.72.56-1.15.82-.26.14-.54.26-.81.38-.29.11-.68.2-1.02.27-.75.12-1.62.06-2.37-.21-.41-.12-.67-.3-.99-.48-.15-.09-.31-.19-.43-.29l-.32-.28c-.89-.8-1.24-1.5-1.62-2.16-.32-.64-.58-1.26-.76-1.84-.4-1.17-.65-2.26-.87-3.34l-.49-3.2c-.13-1.04-.21-2.06-.31-3.1-.71-8.2-.78-16.24-.84-24.31-.04-4.03.02-8.06.09-12.09.07-4.03.13-8.05.31-12.08.28-8.05.67-16.1,1.32-24.13.67,8.04,1.22,16.06,1.75,24.09l1.58,24.04c.26,4,.56,7.99.89,11.97.37,3.97.67,7.96,1.18,11.84l.39,2.89.5,2.75c.2.88.43,1.75.71,2.47.13.38.28.68.41.93.12.2.28.4.16.25-.01-.01-.03-.02-.05-.03-.02-.02-.07-.07-.11-.09-.1-.07-.16-.06-.32-.15-.28-.1-.63-.13-.89-.08-.1,0-.23.05-.29.08-.05,0-.09.03-.13.06-.01-.02-.01,0,.06-.07.26-.21.76-.9,1.17-1.58.84-1.41,1.64-3.22,2.23-4.84l3.44-9.38,3.11,9.55c.64,1.96,1.45,4.08,2.35,5.98.88,1.89,1.98,3.77,3.03,4.82.13.13.25.25.34.32l.15.13s.07.03.1.05c.14.1.05-.01-.11.03-.18-.05-.32.1-.22.01.02-.02.04-.03.07-.03.03,0,.08-.08.12-.12.09-.11.18-.12.29-.3.9-1.11,1.79-3.1,2.47-5.08.37-.98.66-2.06.98-3.09.23-1.04.56-2.04.73-3.11l.3-1.59.23-1.62c.17-1.07.26-2.17.36-3.27.39-4.39.35-8.89.16-13.4-.23-4.51-.62-9.04-1.16-13.57-.53-4.53-1.27-9.04-2.01-13.57-.75-4.52-1.63-9.03-2.58-13.53-.91-4.51-1.94-9-3.03-13.46l-.15-.6.33-.32c.56-.55,1.09-.86,1.7-1.16.61-.27,1.27-.45,1.94-.49,1.35-.1,2.64.39,3.63,1.1.27.16.5.36.72.57.22.21.45.4.66.61.38.46.8.88,1.13,1.37.32.49.68.95.96,1.46l.83,1.52Z"/><path class="cls-10" d="m659.01,277.32c-.37,6.59-1.28,13.03-2.65,19.31-12.03,54.98-56.85,92.24-89.93,115.5-13.28,9.32-24.67,16.41-31.29,21.47-1.75,1.34-3.16,2.53-4.2,3.59-16.52,16.98-33.49,16.64-46.62,11.75-5.5-2.05-10.32-4.9-14.14-7.59-2.24-1.58-4.13-3.1-5.63-4.4-2.77-2.39-5.97-4.25-9.46-5.42-20.19-6.82-89.44-33.99-109.39-91.33-7.29-20.98-10.05-39.23-10.39-54.42-.12-5.96.13-11.47.61-16.47,2.82-15,11.77-28.96,25.37-40.98,28.93-25.59,78.91-42.5,135.71-42.5,18.14,0,35.57,1.73,51.85,4.9,62.9,12.28,108.51,46.29,110.15,86.59Z"/><ellipse class="cls-14" cx="397.57" cy="350.32" rx="63.57" ry="62.78"/><ellipse class="cls-14" cx="575.45" cy="346.89" rx="61.03" ry="60.27"/><path class="cls-25" d="m585.65,287.11s55.14,53.66,15.21,114.25c0,0,40.32-17.38,35.19-62.06,0,0,.3-37.87-50.4-52.19Z"/><path class="cls-25" d="m461.24,350.21c0,34.68-28.46,62.78-63.57,62.78-3.51,0-6.94-.28-10.29-.82,30.41-4.69,53.67-30.68,53.67-62.03s-23.06-57.11-53.28-61.96c3.23-.5,6.53-.76,9.9-.76,35.11,0,63.57,28.11,63.57,62.78Z"/><path class="cls-27" d="m944.33,416.74h24.32c35.63,0,64.55,28.92,64.55,64.55v54.87h-39.4c-39.48,0-71.53-32.05-71.53-71.53v-25.84c0-12.17,9.88-22.06,22.06-22.06Z" transform="translate(1454.18 -501.29) rotate(90)"/><path class="cls-21" d="m949.61,442.11c2.33.13,4.63.49,6.92.92,2.29.44,4.56.99,6.8,1.63,4.49,1.29,8.89,2.95,13.15,4.98,8.49,4.07,16.47,9.64,22.97,16.85,3.25,3.59,6.02,7.67,8.24,12.03,2.2,4.35,3.85,9.03,4.62,13.82l.33,1.78.17,1.81c.09,1.2.26,2.4.26,3.6-.02,2.4,0,4.79-.35,7.14-.47,4.72-1.8,9.27-3.47,13.58-.03-1.17,0-2.32,0-3.47.02-1.14.09-2.27,0-3.42-.07-1.14-.1-2.26-.14-3.38,0-1.12-.21-2.23-.3-3.34-.14-2.22-.61-4.38-.95-6.54-.21-1.07-.51-2.12-.75-3.18l-.38-1.57-.51-1.54c-.35-1.02-.61-2.06-1.04-3.05l-1.2-2.97c-.95-1.91-1.8-3.86-2.94-5.66l-.8-1.38c-.27-.46-.59-.89-.88-1.33-.61-.87-1.14-1.79-1.82-2.62l-1.93-2.55-2.1-2.43c-5.74-6.38-12.61-11.87-20.06-16.7-3.72-2.42-7.6-4.68-11.57-6.83-1.98-1.09-4.01-2.11-6.03-3.17-1.02-.52-2.05-1.02-3.08-1.51-1.03-.52-2.07-1-3.13-1.49Z"/><path class="cls-21" d="m957.15,429.78c4.68.2,9.27,1.13,13.79,2.32,4.52,1.21,8.94,2.81,13.25,4.74,8.58,3.89,16.68,9.21,23.54,16.05l2.48,2.66c.81.9,1.56,1.86,2.34,2.79.78.93,1.46,1.94,2.17,2.94.7,1,1.42,1.98,2.01,3.06,2.57,4.14,4.55,8.68,5.85,13.36.73,2.32,1.1,4.73,1.5,7.1.14,1.2.22,2.4.31,3.59.04.6.09,1.19.11,1.79l-.03,1.79c-.05,1.19-.04,2.38-.14,3.56-.15,1.18-.29,2.35-.46,3.51-.09.58-.14,1.16-.28,1.74l-.41,1.72c-.3,1.14-.57,2.27-.9,3.38-.64-4.64-1.06-9.12-2.21-13.43l-.35-1.61c-.14-.53-.32-1.06-.47-1.58-.33-1.05-.59-2.1-.93-3.14-.4-1.02-.76-2.04-1.13-3.05-.32-1.03-.86-1.98-1.26-2.97-.43-.98-.84-1.97-1.38-2.89-.51-.94-.96-1.91-1.49-2.82-.56-.91-1.13-1.81-1.66-2.73-.55-.91-1.2-1.76-1.79-2.64-.59-.88-1.24-1.73-1.9-2.56-.65-.84-1.28-1.7-2.01-2.48-.71-.8-1.36-1.64-2.1-2.42l-2.22-2.32c-6.08-6.06-13.03-11.39-20.5-16.18-3.73-2.4-7.59-4.67-11.54-6.86-3.95-2.2-7.98-4.32-12.15-6.4Z"/><path class="cls-21" d="m978.05,423.95s44.55,9.6,52.78,56.89c0,0,4.78-43.15,0-45.92-13.02-7.54,12.52-10.62-52.78-10.97Z"/><path class="cls-21" d="m961.26,443.48c-2.06-6.85,5.48-8.22,7.54-7.54,2.06.69,3.43-3.43,3.43-3.43,0,0,.47-4.33,7.2-5.83,6.17-1.37,8.91.69,8.91.69,0,0-20.69-8.57-26.73-1.37-6.04,7.2-13.61,10.27-13.61,10.27l9.15,10.55,4.11-3.35Z"/><path class="cls-10" d="m944.66,416.95h24.32c35.63,0,64.55,28.92,64.55,64.55v54.87h-39.4c-39.48,0-71.53-32.05-71.53-71.53v-25.84c0-12.17,9.88-22.06,22.06-22.06Z" transform="translate(1454.74 -501.41) rotate(90)"/><path class="cls-27" d="m831.72,455.14s-116.19,103.09-36.54,137.83c0,0,189.84,16.17,211.4-3.59,21.56-19.76,14.97-83.24-51.5-144.33-66.48-61.09-123.36,10.1-123.36,10.1Z"/><path class="cls-21" d="m770.03,540.13s8.22-8.91,13.02.69c3.55,7.09,6.72,23.18,8.13,31.08.27,1.54-1.47,2.62-2.73,1.69-4.01-2.99-10.82-7.17-17.06-6.73-9.6.69-1.37-26.73-1.37-26.73Z"/><path class="cls-22" d="m794.7,586.05s143.19,6.39,148.36,5.93-2.05,8.45-11.12,7.77c-9.07-.68-134.93-6.04-136.77-6.79-1.84-.74-.47-6.91-.47-6.91Z"/><path class="cls-21" d="m918.08,443.48s65.8,52.09,74.02,142.56c0,0,19.45,15.42,25.49-19.71,0,0,9.51-59.48-69.68-128.18-79.18-68.7,0,0,0,0l-29.84,5.32Z"/><path class="cls-21" d="m849.88,442.46s12.34.69,17.14,11.65c4.8,10.97,43.87,21.25,62.37,10.97,18.51-10.28,26.05-4.8,26.05-4.8l-17.14-17.82-88.42-5.29v5.29Z"/><path class="cls-10" d="m832.2,455.46s-116.19,103.09-36.54,137.83c0,0,189.84,16.17,211.4-3.59,21.56-19.76,14.97-83.24-51.5-144.33-66.48-61.09-123.36,10.1-123.36,10.1Z"/><path class="cls-27" d="m801.19,593.6c-1.81-3.35-50.13-.59-69.89,4.71-19.76,5.31-19.46-10.02-19.46-10.02l-4.72-27.97s-5.58-22.03,8.29-24.04c13.87-2.01,15.07,17.93,16.91,28.41,1.85,10.48,15.01,6.75,15.01,6.75l35.72-5.28"/><path class="cls-22" d="m733.7,594.96s32.14-14.06,64.73-8.74l1.49,6.7-66.23,2.04Z"/><path class="cls-21" d="m725.48,543.55s-4.11-13.71-4.8-4.8c0,0,3.43,29.47,9.6,36.33,6.98,7.76,32.9-3.43,32.9-3.43,0,0-26.73,2.06-28.79-1.37-2.06-3.43-8.91-26.73-8.91-26.73Z"/><path class="cls-6" d="m781.68,566.86l-34.55,4.92s-13.16,3.73-15.01-6.75c-1.85-10.48-3.04-30.42-16.91-28.41-13.87,2.01-8.29,24.04-8.29,24.04l4.72,27.97s-.3,15.32,19.46,10.02c19.76-5.31,68.08-8.07,69.89-4.71"/><path class="cls-27" d="m935.29,598.18s30.23,5.04,37.28,10.08c7.05,5.04,28.21,0,27.21-5.04-1.01-5.04,20.15-68.52-21.16-49.37,0,0-11.08,12.09-9.07,30.23"/><path class="cls-3" d="m968.45,582.28s5.09-27.19,9.91-27.13c2.6.03,16.13-3.71,11.34-1.65-2.92,1.25-7.46,15-8.57,20.22-1.62,7.65-1.35,16.14-3.08,17.48-1.74,1.34-5.48-4.46-9.6-8.91Z"/><path class="cls-22" d="m982.51,608.67c1.65.41.96-7.85,1.12-9.54l3-32.95s4.66-23.03,15.76-5.48c.49.78.13-2.27.31-1.37,1.08,5.24,3.95,24.64-7.17,44.55,0,0-4.52,11.25-38.58-.89,0,0-18.3-1.17-18.3-6.65,0-1.94,4.8-4.11,4.8-4.11,0,0,20.46.97,21.93,3.43,2.06,3.43,1.83,5.17,8.22,6.85,3.71.98,3.43,4.8,8.91,6.17Z"/><path class="cls-6" d="m937.27,599.07s28.09,3.98,35.14,9.02c7.05,5.04,25.35-.25,27.21-5.04,2.08-5.35,16.56-57.68-11.55-52.62-6.62,1.19-12.15,5.69-15,11.78-2.48,5.28-4.67,12.75-3.67,21.7"/><path class="cls-27" d="m1067.46,280.52c-.38,6.8-1.32,13.45-2.73,19.93-12.41,56.75-58.68,95.21-92.83,119.22-13.7,9.62-25.46,16.94-32.29,22.16-1.8,1.38-3.26,2.61-4.33,3.71-17.05,17.53-34.57,17.18-48.12,12.13-5.67-2.12-10.65-5.06-14.6-7.84-2.31-1.63-4.26-3.2-5.81-4.54-2.86-2.47-6.17-4.38-9.76-5.59-20.84-7.04-92.33-35.09-112.91-94.27-7.53-21.65-10.38-40.5-10.72-56.18-.12-6.16.13-11.84.62-17,2.91-15.49,12.15-29.9,26.19-42.3,29.87-26.42,81.46-43.87,140.09-43.87,18.72,0,36.72,1.78,53.53,5.06,64.93,12.68,112.01,47.78,113.7,89.39Z"/><path class="cls-21" d="m918.36,186.64s250.58,84.12-10.56,267.81c0,0-15.04,1.49-7.18,6.23,7.86,4.74,35.75-16.2,35.75-16.2,0,0,80.26-56.07,81.7-63.14s79.58-69.45,35.03-139.36c0,0-54.96-56.52-134.74-55.34Z"/><path class="cls-27" d="m846.31,482.73s0,65.8-2.34,80.88-7.03-2.74-7.03-2.74c0,0-6.64,30.16-12.11,2.74-5.47-27.42,7.03-80.88,7.03-80.88,0,0-3.62-5.79-8.13,4.49"/><path d="m846.31,482.73c.66,8.17,1.07,16.34,1.39,24.52.19,4.09.27,8.18.37,12.27.1,4.09.19,8.18.19,12.28.03,8.19.03,16.37-.4,24.64-.14,2.08-.24,4.14-.51,6.3-.1,1.07-.24,2.14-.46,3.26-.21,1.12-.46,2.25-1.03,3.64-.11.31-.39.78-.6,1.15-.17.24-.36.49-.56.73-.08.1-.23.25-.41.4-.17.14-.35.28-.53.41-.15.12-.45.27-.72.38-.28.11-.57.21-.86.27-.32.05-.65.06-.97.05-.16,0-.33-.02-.48-.04-.13-.03-.26-.06-.39-.09-.26-.07-.51-.16-.76-.27-.22-.1-.35-.19-.52-.3-.16-.1-.33-.22-.47-.32l-.32-.28c-.81-.77-1.2-1.4-1.55-1.98-.35-.58-.63-1.14-.87-1.67-.98-2.16-1.64-4.14-2.26-6.31l6.73-.14c-.56,2.44-1.18,4.71-1.97,7.07-.4,1.17-.83,2.35-1.36,3.54-.55,1.2-1.12,2.41-2.16,3.75-.54.66-1.19,1.44-2.53,2.12-.67.33-1.64.58-2.61.5-.98-.07-1.86-.45-2.44-.85-1.22-.83-1.73-1.63-2.2-2.33-.44-.71-.76-1.37-1.05-2.02-1.06-2.55-1.65-4.91-2.16-7.29l-.36-1.77-.26-1.81-.52-3.63c-.2-2.4-.37-4.8-.44-7.19.02-2.37-.08-4.76.04-7.12l.16-3.54.08-1.77.15-1.76c.34-4.69.9-9.35,1.55-13.98.34-2.31.65-4.63,1.06-6.93.37-2.31.78-4.6,1.24-6.89,1.77-9.16,3.89-18.22,6.5-27.17l.11.64c-.16-.29-.46-.65-.74-.9-.3-.26-.64-.41-.99-.51-.71-.13-1.53.23-2.25.8-.7.61-1.35,1.33-1.89,2.14-.58.79-1.04,1.66-1.55,2.51.36-.92.67-1.87,1.15-2.75.43-.91.98-1.76,1.66-2.56.7-.75,1.72-1.49,3.02-1.44.62.06,1.22.27,1.72.6.5.34.9.7,1.3,1.22l.17.23-.07.41c-1.45,9.13-2.72,18.3-3.76,27.46-.49,4.58-1,9.16-1.36,13.74-.38,4.58-.62,9.16-.79,13.72-.24,9.1-.19,18.25,1.78,26.77.5,2.14,1.07,4.29,1.81,6.01.19.41.38.79.55,1.06.15.26.36.41.12.22-.1-.06-.42-.23-.83-.26-.4-.04-.78.08-.93.16-.3.16-.11.09.06-.16.38-.49.87-1.37,1.27-2.27.41-.92.79-1.92,1.15-2.94.7-2.03,1.32-4.23,1.8-6.31l3.16-13.53,3.57,13.39c.47,1.76,1.08,3.68,1.76,5.25.17.39.35.75.52,1.05.16.3.36.52.29.46-.01-.01-.03-.02-.04-.02-.03-.03-.1-.08-.15-.11-.07-.04-.1-.05-.2-.1-.12-.07-.26-.12-.39-.15-.07-.02-.14-.03-.21-.03-.09-.02-.19-.04-.29-.04-.2-.01-.4,0-.59.05-.17.02-.34.07-.51.14-.16.06-.33.19-.39.21-.08.05-.16.1-.23.17-.07.07-.13.14-.14.14-.04.03-.07.08-.09.12.02-.08.04-.04.1-.21.22-.49.49-1.35.67-2.23.2-.88.36-1.83.48-2.79.3-1.88.45-3.91.66-5.89l.49-6.04.41-6.08c.27-4.06.52-8.13.74-12.2l1.41-24.45c.5-8.16,1.02-16.32,1.7-24.48Z"/><path class="cls-27" d="m947.93,484.59c-6.22-10.28-11.2-4.49-11.2-4.49,0,0,17.21,53.46,9.68,80.88-7.53,27.42-16.67-2.74-16.67-2.74,0,0-6.45,17.82-9.68,2.74-3.23-15.08-3.23-80.88-3.23-80.88"/><path d="m947.93,484.59l-1.1-1.4c-.36-.47-.79-.88-1.17-1.31-.39-.43-.86-.78-1.29-1.17-.23-.17-.47-.32-.7-.48-.23-.16-.47-.32-.72-.42-.97-.52-2.05-.76-3.03-.55-.49.09-.95.28-1.38.54-.41.25-.84.63-1.08.93l.19-.92c1.72,4.5,3.19,9.05,4.63,13.63,1.39,4.59,2.67,9.22,3.84,13.88,1.17,4.66,2.14,9.38,3,14.13.86,4.75,1.56,9.55,1.97,14.41.43,4.85.6,9.76.31,14.73-.09,1.24-.15,2.49-.32,3.74l-.23,1.87-.32,1.88c-.18,1.25-.54,2.51-.81,3.76-.35,1.22-.65,2.41-1.09,3.64-.39,1.22-.87,2.44-1.44,3.68-.31.62-.57,1.24-.98,1.88-.19.32-.37.63-.58.95l-.73.97c-.21.31-.6.66-.91.98-.18.16-.31.32-.53.48-.22.16-.44.31-.66.46-.4.31-.99.56-1.58.77-.55.24-1.28.29-1.93.35-1.33,0-2.59-.41-3.45-.93l-.66-.4-.54-.42c-.38-.28-.68-.57-.96-.86-1.15-1.17-1.94-2.34-2.66-3.5-.71-1.17-1.29-2.33-1.84-3.5-1.09-2.36-1.96-4.63-2.74-7.14l6.55.17c-.86,2.19-1.74,4.13-3.01,6.21-.68,1.04-1.32,2.07-2.61,3.21-.3.27-.73.57-1.17.84-.27.14-.54.27-.82.38-.3.12-.68.21-1.03.27-.76.12-1.63.06-2.39-.21-.42-.12-.68-.3-1-.48-.15-.09-.31-.19-.44-.29l-.33-.29c-.91-.81-1.27-1.52-1.65-2.2-.33-.66-.59-1.29-.78-1.88-.42-1.2-.66-2.32-.89-3.44l-.51-3.3c-.13-1.08-.22-2.13-.32-3.19-.74-8.45-.81-16.76-.89-25.09-.04-4.16.01-8.32.08-12.48.07-4.16.13-8.31.3-12.47.28-8.31.66-16.61,1.31-24.91.67,8.29,1.22,16.58,1.76,24.86l1.6,24.82c.26,4.13.57,8.25.91,12.36l.54,6.15c.23,2.02.37,4.1.67,6.08l.4,2.99.52,2.84c.21.91.45,1.82.74,2.56.14.39.3.71.43.98.12.22.3.43.19.29-.01,0-.03-.02-.04-.02-.02-.02-.07-.06-.11-.09-.09-.07-.15-.06-.31-.14-.27-.1-.62-.13-.86-.08-.1,0-.22.05-.28.07-.04,0-.09.02-.12.05,0-.02,0,0,.08-.08.28-.23.81-.95,1.23-1.66.88-1.46,1.7-3.33,2.32-5.01l3.45-9.38,3.11,9.55c.66,2.03,1.5,4.22,2.43,6.19.91,1.95,2.05,3.9,3.15,5,.13.14.26.27.36.33l.16.14s.08.03.11.05c.16.11.08,0-.06.05-.16-.05-.28.1-.17,0,.02-.02.05-.03.08-.04.03,0,.08-.09.13-.13.09-.12.19-.14.31-.33.95-1.17,1.86-3.23,2.57-5.28.39-1.02.68-2.13,1.02-3.19.24-1.07.58-2.11.75-3.22l.31-1.64.23-1.67c.17-1.11.26-2.25.38-3.38.4-4.54.36-9.19.16-13.85-.24-4.66-.65-9.34-1.21-14.01-.55-4.68-1.32-9.34-2.09-14.01-.78-4.67-1.7-9.32-2.68-13.96-.94-4.65-2.02-9.29-3.16-13.89l-.15-.6.33-.33c.57-.56,1.11-.88,1.75-1.19.63-.28,1.31-.46,2-.51,1.39-.11,2.72.4,3.74,1.13.28.16.51.37.74.58.23.21.47.41.68.63.39.47.83.9,1.16,1.41.33.5.71.98,1,1.5l.86,1.57Z"/><path class="cls-10" d="m1067.7,280.28c-.38,6.8-1.32,13.45-2.73,19.93-12.41,56.75-58.68,95.21-92.83,119.22-13.7,9.62-25.46,16.94-32.29,22.16-1.8,1.38-3.26,2.61-4.33,3.71-17.05,17.53-34.57,17.18-48.12,12.13-5.67-2.12-10.65-5.06-14.6-7.84-2.31-1.63-4.26-3.2-5.81-4.54-2.86-2.47-6.17-4.38-9.76-5.59-20.84-7.04-92.33-35.09-112.91-94.27-7.53-21.65-10.38-40.5-10.72-56.18-.12-6.16.13-11.84.62-17,2.91-15.49,12.15-29.9,26.19-42.3,29.87-26.42,81.46-43.87,140.09-43.87,18.72,0,36.72,1.78,53.53,5.06,64.93,12.68,112.01,47.78,113.7,89.39Z"/><ellipse class="cls-27" cx="797.83" cy="355.63" rx="65.63" ry="64.81"/><ellipse class="cls-27" cx="981.44" cy="352.09" rx="63" ry="62.22"/><path class="cls-21" d="m991.96,290.38s56.91,55.4,15.7,117.94c0,0,41.63-17.94,36.33-64.06,0,0,.31-39.09-52.03-53.87Z"/><path class="cls-21" d="m863.54,355.52c0,35.8-29.38,64.81-65.63,64.81-3.62,0-7.17-.29-10.63-.85,31.39-4.85,55.4-31.66,55.4-64.03s-23.81-58.95-55-63.96c3.33-.51,6.74-.78,10.22-.78,36.25,0,65.63,29.02,65.63,64.81Z"/><path class="cls-15" d="m1354.75,410.19h23.64c34.62,0,62.72,28.11,62.72,62.72v53.32h-38.29c-38.36,0-69.5-31.14-69.5-69.5v-25.11c0-11.83,9.6-21.43,21.43-21.43Z" transform="translate(1855.42 -918.99) rotate(90)"/><path class="cls-24" d="m1359.88,434.85c2.26.11,4.5.46,6.73.87,2.23.42,4.43.95,6.62,1.56,4.37,1.24,8.65,2.85,12.8,4.81,8.27,3.94,16.04,9.35,22.37,16.37,3.17,3.5,5.86,7.47,8.01,11.71,2.14,4.24,3.74,8.79,4.48,13.46l.32,1.74.16,1.76c.09,1.17.24,2.33.25,3.5-.03,2.34,0,4.66-.36,6.95-.47,4.59-1.78,9.01-3.43,13.19-.04-1.14-.01-2.26-.03-3.38.01-1.11.08-2.21-.02-3.32-.07-1.11-.1-2.2-.15-3.29-.01-1.09-.21-2.17-.3-3.24-.14-2.15-.6-4.26-.94-6.34-.21-1.04-.5-2.06-.74-3.08l-.38-1.53-.49-1.49c-.35-.99-.59-2-1.01-2.95l-1.17-2.88c-.93-1.85-1.75-3.74-2.86-5.49l-.77-1.34c-.26-.45-.57-.86-.85-1.29-.6-.84-1.11-1.74-1.77-2.54l-1.88-2.47-2.04-2.35c-5.57-6.19-12.23-11.52-19.45-16.22-3.61-2.36-7.37-4.56-11.22-6.66-1.92-1.07-3.88-2.07-5.85-3.1-.99-.51-1.98-1-2.99-1.49-1-.51-2.01-.98-3.03-1.47Z"/><path class="cls-24" d="m1367.2,422.86c4.55.17,9.02,1.06,13.42,2.2,4.4,1.16,8.71,2.7,12.9,4.57,8.35,3.76,16.24,8.94,22.91,15.59l2.41,2.59c.79.87,1.52,1.81,2.28,2.72.76.9,1.42,1.89,2.11,2.86.68.97,1.38,1.93,1.95,2.98,2.5,4.04,4.42,8.45,5.68,13.01.71,2.26,1.06,4.61,1.44,6.91.13,1.17.21,2.34.29,3.5.03.58.08,1.16.1,1.74l-.03,1.74c-.05,1.16-.04,2.31-.15,3.46-.15,1.15-.29,2.29-.46,3.42-.09.56-.14,1.13-.28,1.69l-.41,1.67c-.3,1.1-.57,2.2-.9,3.28-.65-4.51-1.08-8.86-2.21-13.04l-.35-1.57c-.14-.52-.31-1.03-.47-1.54-.32-1.02-.58-2.04-.92-3.04-.39-.99-.74-1.97-1.1-2.96-.32-.99-.84-1.92-1.23-2.88-.42-.95-.82-1.9-1.35-2.8-.5-.91-.93-1.85-1.45-2.74-.55-.88-1.1-1.75-1.61-2.64-.53-.88-1.17-1.7-1.74-2.55-.57-.86-1.2-1.67-1.84-2.48-.63-.81-1.24-1.64-1.95-2.4-.69-.77-1.32-1.59-2.04-2.34l-2.16-2.25c-5.89-5.88-12.64-11.06-19.88-15.72-7.25-4.67-14.92-8.87-22.97-12.98Z"/><path class="cls-24" d="m1387.52,417.2s43.29,9.32,51.28,55.28c0,0,4.65-41.93,0-44.62-12.65-7.33,12.16-10.32-51.28-10.66Z"/><path class="cls-24" d="m1371.2,436.18c-2-6.66,5.33-7.99,7.33-7.33,2,.67,3.33-3.33,3.33-3.33,0,0,.46-4.21,6.99-5.66,5.99-1.33,8.66.67,8.66.67,0,0-20.11-8.32-25.97-1.33-5.86,6.99-13.22,9.98-13.22,9.98l8.89,10.25,4-3.25Z"/><path class="cls-10" d="m1355.07,410.4h23.64c34.62,0,62.72,28.11,62.72,62.72v53.32h-38.29c-38.36,0-69.5-31.14-69.5-69.5v-25.11c0-11.83,9.6-21.43,21.43-21.43Z" transform="translate(1855.96 -919.11) rotate(90)"/><path class="cls-15" d="m1245.33,447.51s-112.9,100.17-35.5,133.92c0,0,184.47,15.71,205.41-3.49,20.95-19.2,14.55-80.89-50.04-140.24-64.59-59.35-119.87,9.81-119.87,9.81Z"/><path class="cls-24" d="m1185.39,530.09s7.99-8.66,12.65.67c3.45,6.89,6.53,22.52,7.9,30.2.27,1.49-1.43,2.55-2.65,1.64-3.89-2.9-10.52-6.97-16.58-6.54-9.32.67-1.33-25.97-1.33-25.97Z"/><path class="cls-19" d="m1209.36,574.71s139.13,6.2,144.16,5.77c5.02-.44-1.99,8.21-10.8,7.55-8.81-.66-131.1-5.87-132.9-6.6-1.79-.72-.46-6.72-.46-6.72Z"/><path class="cls-24" d="m1329.24,436.18s63.93,50.62,71.93,138.53c0,0,18.9,14.98,24.77-19.15,0,0,9.24-57.79-67.7-124.55-76.94-66.76,0,0,0,0l-28.99,5.17Z"/><path class="cls-24" d="m1262.98,435.19s11.99.67,16.65,11.32c4.66,10.66,42.62,20.65,60.6,10.66,17.98-9.99,25.31-4.66,25.31-4.66l-16.65-17.32-85.91-5.14v5.14Z"/><path class="cls-8" d="m1245.8,447.82s-112.9,100.17-35.5,133.92c0,0,184.47,15.71,205.41-3.49,20.95-19.2,14.55-80.89-50.04-140.24-64.59-59.35-119.87,9.81-119.87,9.81Z"/><path class="cls-15" d="m1215.67,582.05c-1.76-3.26-48.71-.58-67.91,4.58-19.2,5.15-18.91-9.73-18.91-9.73l-4.59-27.18s-5.42-21.41,8.06-23.36c13.48-1.95,14.64,17.42,16.43,27.61,1.79,10.19,14.58,6.56,14.58,6.56l34.71-5.13"/><path class="cls-19" d="m1150.09,583.37s31.23-13.66,62.9-8.5l1.45,6.51-64.35,1.98Z"/><path class="cls-24" d="m1142.1,533.42s-4-13.32-4.66-4.66c0,0,3.33,28.64,9.32,35.3,6.79,7.54,31.97-3.33,31.97-3.33,0,0-25.97,2-27.97-1.33-2-3.33-8.66-25.97-8.66-25.97Z"/><path class="cls-7" d="m1196.71,556.06l-33.57,4.78s-12.79,3.63-14.58-6.56c-1.79-10.19-2.96-29.56-16.43-27.61-13.48,1.95-8.06,23.36-8.06,23.36l4.59,27.18s-.29,14.89,18.91,9.73c19.2-5.15,66.15-7.84,67.91-4.58"/><path class="cls-15" d="m1345.97,586.49s29.37,4.9,36.23,9.79,27.41,0,26.44-4.9c-.98-4.9,19.58-66.58-20.56-47.97,0,0-10.77,11.75-8.81,29.37"/><path class="cls-2" d="m1378.19,571.05s4.94-26.42,9.63-26.36c2.52.03,15.68-3.61,11.02-1.61-2.84,1.22-7.25,14.57-8.32,19.65-1.58,7.44-1.31,15.68-3,16.98-1.69,1.3-5.33-4.33-9.32-8.66Z"/><path class="cls-19" d="m1391.84,596.69c1.6.4.94-7.63,1.09-9.27l2.91-32.02s4.53-22.38,15.32-5.33c.48.76.13-2.21.31-1.33,1.05,5.09,3.84,23.94-6.97,43.29,0,0-4.39,10.93-37.49-.86,0,0-17.79-1.14-17.79-6.46,0-1.89,4.66-4,4.66-4,0,0,19.88.94,21.31,3.33,2,3.33,1.78,5.02,7.99,6.66,3.61.95,3.33,4.66,8.66,5.99Z"/><path class="cls-6" d="m1347.89,587.36s27.29,3.87,34.15,8.76,24.63-.24,26.44-4.9c2.02-5.2,16.09-56.04-11.22-51.13-6.43,1.16-11.8,5.53-14.58,11.45-2.41,5.13-4.54,12.39-3.57,21.08"/><path class="cls-15" d="m1474.39,277.83c-.37,6.61-1.28,13.07-2.65,19.37-12.06,55.14-57.02,92.51-90.2,115.84-13.32,9.35-24.74,16.46-31.38,21.53-1.75,1.34-3.17,2.54-4.21,3.6-16.57,17.04-33.59,16.69-46.76,11.79-5.51-2.06-10.35-4.91-14.19-7.62-2.24-1.59-4.14-3.11-5.65-4.42-2.78-2.4-5.99-4.26-9.49-5.43-20.25-6.84-89.71-34.09-109.72-91.6-7.31-21.04-10.08-39.35-10.42-54.58-.12-5.98.13-11.5.61-16.52,2.83-15.05,11.81-29.05,25.45-41.1,29.02-25.67,79.15-42.63,136.12-42.63,18.19,0,35.68,1.73,52.01,4.92,63.09,12.32,108.83,46.43,110.48,86.85Z"/><path class="cls-24" d="m1329.51,186.62s243.48,81.74-10.26,260.22c0,0-14.62,1.45-6.97,6.05,7.64,4.6,34.74-15.74,34.74-15.74,0,0,77.99-54.48,79.39-61.35,1.4-6.88,77.32-67.48,34.03-135.41,0,0-53.4-54.92-130.93-53.77Z"/><path class="cls-15" d="m1259.51,474.32s0,63.93-2.28,78.59-6.83-2.66-6.83-2.66c0,0-6.45,29.3-11.77,2.66-5.31-26.64,6.83-78.59,6.83-78.59,0,0-3.51-5.63-7.9,4.36"/><path d="m1259.51,474.32c.66,7.94,1.07,15.88,1.39,23.83.19,3.97.27,7.95.38,11.92.11,3.97.19,7.95.2,11.93.04,7.96.04,15.91-.37,23.95-.14,2.03-.23,4.02-.49,6.13-.1,1.04-.24,2.08-.45,3.17-.21,1.09-.44,2.19-1.01,3.55-.11.31-.38.76-.59,1.13-.16.24-.36.49-.55.72-.08.1-.23.25-.41.4-.17.14-.34.28-.52.4-.15.12-.44.27-.72.38-.28.11-.57.21-.86.27-.31.05-.64.06-.97.05-.16,0-.32-.02-.48-.04-.13-.03-.26-.06-.38-.09-.26-.07-.51-.16-.75-.27-.21-.1-.35-.19-.52-.29-.16-.1-.33-.22-.46-.32l-.32-.28c-.8-.76-1.18-1.38-1.52-1.94-.34-.57-.61-1.11-.86-1.63-.96-2.11-1.59-4.03-2.2-6.15l6.73-.14c-.54,2.38-1.15,4.58-1.92,6.88-.39,1.14-.81,2.28-1.33,3.45-.54,1.17-1.09,2.35-2.11,3.67-.53.64-1.17,1.41-2.49,2.09-.66.33-1.63.57-2.59.49-.97-.07-1.85-.45-2.42-.84-1.2-.82-1.7-1.61-2.17-2.3-.43-.7-.74-1.34-1.02-1.97-1.04-2.49-1.61-4.79-2.1-7.1l-.35-1.73-.26-1.76-.5-3.53c-.19-2.34-.36-4.67-.43-6.99.02-2.31-.07-4.63.04-6.92l.16-3.44c.04-1.15.12-2.29.22-3.43.33-4.56.88-9.09,1.52-13.59.33-2.25.64-4.5,1.03-6.73.36-2.24.76-4.47,1.22-6.69,1.73-8.9,3.8-17.71,6.36-26.4l.11.64c-.15-.28-.44-.63-.71-.87-.29-.25-.61-.4-.95-.49-.68-.13-1.48.22-2.18.77-.68.59-1.31,1.29-1.84,2.08-.56.77-1.02,1.61-1.51,2.43.34-.89.65-1.81,1.11-2.68.42-.88.95-1.71,1.61-2.49.68-.73,1.68-1.46,2.95-1.41.61.06,1.2.26,1.68.58.49.33.88.68,1.27,1.19l.17.23-.06.41c-1.39,8.87-2.61,17.79-3.61,26.69-.47,4.45-.96,8.9-1.31,13.35-.37,4.45-.59,8.9-.75,13.32-.22,8.84-.17,17.72,1.74,25.98.49,2.07,1.04,4.16,1.76,5.82.18.39.36.76.53,1.02.14.25.34.38.09.18-.11-.07-.44-.24-.85-.27-.41-.04-.8.09-.96.17-.32.17-.14.11.02-.12.36-.47.83-1.31,1.22-2.19.4-.89.77-1.86,1.11-2.84.68-1.97,1.28-4.11,1.75-6.12l3.16-13.54,3.57,13.4c.45,1.7,1.04,3.57,1.71,5.08.17.38.34.73.5,1.01.15.29.34.5.26.42-.01-.01-.03-.02-.05-.03-.03-.03-.1-.08-.15-.12-.07-.04-.1-.05-.2-.1-.12-.07-.26-.12-.4-.15-.07-.02-.14-.03-.21-.03-.09-.02-.19-.04-.29-.04-.2-.01-.41,0-.6.05-.17.02-.35.07-.51.14-.16.06-.33.19-.39.21-.08.05-.16.11-.23.17-.08.07-.13.15-.14.14-.04.03-.08.09-.09.13.01-.07.03-.02.09-.19.21-.47.47-1.29.65-2.15.2-.85.35-1.77.46-2.7.29-1.82.44-3.79.64-5.72l.48-5.87.41-5.91c.27-3.94.51-7.89.73-11.85l.69-11.87c.24-3.96.44-7.92.71-11.88.5-7.93,1.02-15.86,1.7-23.79Z"/><path class="cls-15" d="m1358.25,476.13c-6.04-9.99-10.88-4.36-10.88-4.36,0,0,16.72,51.95,9.41,78.59-7.32,26.64-16.2-2.66-16.2-2.66,0,0-6.27,17.32-9.41,2.66-3.14-14.65-3.14-78.59-3.14-78.59"/><path d="m1358.25,476.13c-.71-.92-1.41-1.82-2.21-2.63-.38-.42-.84-.75-1.25-1.13-.22-.17-.46-.31-.68-.47-.22-.16-.45-.31-.7-.4-.94-.5-1.99-.73-2.93-.53-.47.09-.92.27-1.33.52-.39.25-.81.61-1.04.9l.19-.92c1.68,4.37,3.11,8.79,4.52,13.24,1.36,4.46,2.61,8.95,3.75,13.49,1.15,4.53,2.09,9.12,2.93,13.73.84,4.62,1.52,9.28,1.92,14,.43,4.72.59,9.49.31,14.33-.08,1.21-.14,2.42-.31,3.64l-.22,1.82-.31,1.83c-.17,1.22-.53,2.44-.79,3.66-.34,1.18-.64,2.35-1.06,3.54-.38,1.18-.85,2.37-1.41,3.58-.3.61-.56,1.21-.96,1.83-.19.31-.36.62-.57.93l-.72.95c-.21.31-.59.65-.9.96-.17.16-.3.31-.52.47-.21.16-.43.31-.65.46-.4.3-.97.56-1.55.76-.54.24-1.27.28-1.9.34-1.31,0-2.55-.4-3.4-.91l-.65-.39-.53-.41c-.37-.28-.67-.56-.94-.84-1.12-1.14-1.9-2.29-2.6-3.42-.7-1.14-1.26-2.27-1.8-3.41-1.06-2.3-1.91-4.5-2.67-6.95l6.55.17c-.84,2.14-1.69,4.02-2.94,6.05-.66,1.01-1.29,2.02-2.56,3.14-.29.27-.72.56-1.15.82-.26.14-.54.26-.81.38-.29.11-.68.2-1.02.27-.75.12-1.62.06-2.37-.21-.41-.12-.67-.3-.99-.48-.15-.09-.31-.19-.43-.29l-.32-.28c-.89-.81-1.25-1.5-1.62-2.16-.32-.64-.58-1.26-.76-1.84-.41-1.18-.65-2.26-.87-3.35l-.49-3.21c-.13-1.05-.21-2.07-.31-3.11-.71-8.22-.78-16.29-.85-24.39-.04-4.04.02-8.09.09-12.13.07-4.04.13-8.08.3-12.12.28-8.07.67-16.14,1.32-24.21.67,8.06,1.22,16.11,1.75,24.16l1.58,24.11c.26,4.01.56,8.02.89,12.01.37,3.98.67,7.98,1.19,11.87l.39,2.9.51,2.75c.2.88.44,1.76.72,2.48.13.38.28.68.42.94.12.21.28.4.16.25-.01-.01-.03-.02-.05-.03-.02-.02-.07-.07-.11-.09-.09-.07-.16-.06-.32-.15-.28-.1-.63-.13-.89-.08-.1,0-.23.05-.29.07-.05,0-.09.03-.13.06-.01-.02,0,0,.06-.07.26-.21.77-.9,1.17-1.59.85-1.41,1.64-3.23,2.24-4.85l3.44-9.38,3.11,9.55c.64,1.97,1.45,4.1,2.36,6,.89,1.89,1.99,3.78,3.04,4.83.13.13.25.25.34.32l.15.13s.07.03.1.05c.14.1.05,0-.1.04-.17-.05-.31.1-.22.01.02-.02.04-.03.07-.03.03,0,.08-.08.12-.12.09-.11.18-.13.29-.31.91-1.11,1.79-3.12,2.48-5.1.38-.99.66-2.06.99-3.1.23-1.04.56-2.04.73-3.12l.3-1.59.23-1.62c.17-1.08.26-2.18.37-3.28.39-4.41.36-8.92.16-13.44-.23-4.52-.63-9.07-1.17-13.61-.53-4.54-1.27-9.07-2.02-13.61-.75-4.54-1.64-9.06-2.59-13.57-.91-4.52-1.95-9.03-3.05-13.5l-.15-.6.33-.32c.56-.55,1.09-.86,1.71-1.16.61-.28,1.28-.45,1.95-.49,1.36-.1,2.65.39,3.64,1.11.27.16.5.36.72.57.22.21.46.4.66.61.38.46.8.88,1.13,1.37.32.49.69.95.97,1.46l.83,1.52Z"/><path class="cls-10" d="m1474.62,277.6c-.37,6.61-1.28,13.07-2.65,19.37-12.06,55.14-57.02,92.51-90.2,115.84-13.32,9.35-24.74,16.46-31.38,21.53-1.75,1.34-3.17,2.54-4.21,3.6-16.57,17.04-33.59,16.69-46.76,11.79-5.51-2.06-10.35-4.91-14.19-7.62-2.24-1.59-4.14-3.11-5.65-4.42-2.78-2.4-5.99-4.26-9.49-5.43-20.25-6.84-89.71-34.09-109.72-91.6-7.31-21.04-10.08-39.35-10.42-54.58-.12-5.98.13-11.5.61-16.52,2.83-15.05,11.81-29.05,25.45-41.1,29.02-25.67,79.15-42.63,136.12-42.63,18.19,0,35.68,1.73,52.01,4.92,63.09,12.32,108.83,46.43,110.48,86.85Z"/><ellipse class="cls-15" cx="1212.4" cy="350.82" rx="63.77" ry="62.97"/><ellipse class="cls-15" cx="1390.81" cy="347.38" rx="61.22" ry="60.46"/><path class="cls-24" d="m1401.04,287.42s55.3,53.83,15.25,114.6c0,0,40.45-17.43,35.3-62.25,0,0,.3-37.98-50.55-52.35Z"/><path class="cls-24" d="m1276.25,350.71c0,34.78-28.55,62.97-63.77,62.97-3.52,0-6.96-.28-10.32-.82,30.5-4.71,53.83-30.77,53.83-62.21s-23.13-57.28-53.44-62.15c3.24-.5,6.55-.76,9.93-.76,35.22,0,63.77,28.2,63.77,62.97Z"/><path class="cls-16" d="m1782.11,415.11h24.07c35.25,0,63.88,28.62,63.88,63.88v54.3h-38.99c-39.07,0-70.78-31.72-70.78-70.78v-25.57c0-12.05,9.78-21.83,21.83-21.83Z" transform="translate(2289.37 -1340.97) rotate(90)"/><path class="cls-26" d="m1787.34,440.22c4.55.48,9,1.63,13.4,2.96,4.38,1.37,8.67,3.09,12.82,5.14,8.28,4.11,16.04,9.62,22.39,16.65,3.18,3.5,5.88,7.47,8.07,11.69,2.18,4.23,3.82,8.76,4.64,13.42l.35,1.74.19,1.76c.11,1.17.29,2.34.32,3.51.02,2.35.1,4.68-.19,7-.37,4.63-1.49,9.14-2.96,13.44.16-4.57.48-9.04.02-13.47-.08-2.21-.49-4.38-.78-6.54-.18-1.08-.47-2.13-.69-3.19l-.35-1.59-.48-1.55c-.34-1.03-.57-2.08-.99-3.08l-1.17-3c-.93-1.94-1.77-3.91-2.9-5.73l-.79-1.4c-.27-.46-.59-.9-.88-1.35-.61-.88-1.14-1.81-1.82-2.65l-1.94-2.57-2.11-2.45c-5.77-6.41-12.7-11.86-20.2-16.54-3.75-2.35-7.65-4.51-11.64-6.54-3.99-2.05-8.08-3.92-12.29-5.68Z"/><path class="cls-26" d="m1794.8,428.01c4.57.4,9.06,1.45,13.47,2.73,4.41,1.3,8.73,2.95,12.93,4.91,8.37,3.94,16.27,9.21,22.97,15.89,3.32,3.36,6.3,7.11,8.81,11.15,2.54,4.03,4.5,8.43,5.84,12.98.74,2.25,1.14,4.6,1.58,6.91.16,1.17.26,2.34.37,3.51.05.58.12,1.16.15,1.75v1.76c0,1.17.03,2.33-.03,3.49-.11,1.16-.21,2.31-.35,3.46-.08.57-.11,1.14-.22,1.71l-.33,1.7c-.25,1.13-.47,2.24-.75,3.35-.43-4.57-.7-9.03-1.72-13.34l-.31-1.62c-.13-.53-.29-1.06-.43-1.59-.3-1.05-.54-2.11-.86-3.15l-1.06-3.07c-.31-1.03-.82-2-1.21-3-.41-.99-.81-1.99-1.34-2.93-.5-.95-.93-1.93-1.46-2.86l-1.64-2.76c-.54-.92-1.19-1.78-1.78-2.67-.58-.89-1.23-1.74-1.89-2.59-.65-.85-1.28-1.71-2.01-2.5-.71-.81-1.37-1.65-2.1-2.43l-2.23-2.33c-6.1-6.08-13.1-11.35-20.61-15.99-3.75-2.33-7.63-4.5-11.6-6.56-1.98-1.05-4-2.03-6.02-3.04-2.03-.98-4.08-1.94-6.17-2.87Z"/><path class="cls-26" d="m1815.49,422.25s44.09,9.5,52.22,56.29c0,0,4.73-42.7,0-45.44-12.89-7.46,12.39-10.51-52.22-10.85Z"/><path class="cls-26" d="m1798.87,441.58c-2.03-6.78,5.43-8.14,7.46-7.46,2.03.68,3.39-3.39,3.39-3.39,0,0,.47-4.29,7.12-5.77,6.1-1.36,8.82.68,8.82.68,0,0-20.48-8.48-26.45-1.36-5.97,7.12-13.46,10.16-13.46,10.16l9.06,10.44,4.07-3.31Z"/><path class="cls-10" d="m1782.44,415.33h24.07c35.25,0,63.88,28.62,63.88,63.88v54.3h-38.99c-39.07,0-70.78-31.72-70.78-70.78v-25.57c0-12.05,9.78-21.83,21.83-21.83Z" transform="translate(2289.92 -1341.09) rotate(90)"/><path class="cls-16" d="m1670.68,453.11s-114.98,102.01-36.16,136.38c0,0,187.86,16,209.19-3.56,21.33-19.56,14.82-82.37-50.96-142.82-65.78-60.45-122.07,9.99-122.07,9.99Z"/><path class="cls-26" d="m1609.64,537.21s8.14-8.82,12.89.68c3.51,7.02,6.65,22.93,8.05,30.76.27,1.52-1.46,2.6-2.7,1.67-3.97-2.95-10.71-7.1-16.88-6.66-9.5.68-1.36-26.45-1.36-26.45Z"/><path class="cls-23" d="m1634.06,582.65s141.69,6.32,146.81,5.87c5.12-.45-2.02,8.36-11,7.69-8.98-.67-133.52-5.98-135.34-6.72-1.82-.74-.47-6.84-.47-6.84Z"/><path class="cls-26" d="m1756.14,441.58s65.11,51.55,73.25,141.07c0,0,19.25,15.26,25.22-19.5,0,0,9.41-58.86-68.95-126.84-78.36-67.98,0,0,0,0l-29.52,5.27Z"/><path class="cls-26" d="m1688.65,440.56s12.21.68,16.96,11.53c4.75,10.85,43.41,21.03,61.72,10.85,18.31-10.17,25.77-4.75,25.77-4.75l-16.96-17.63-87.49-5.24v5.24Z"/><path class="cls-8" d="m1671.16,453.43s-114.98,102.01-36.16,136.38c0,0,187.86,16,209.19-3.56,21.33-19.56,14.82-82.37-50.96-142.82-65.78-60.45-122.07,9.99-122.07,9.99Z"/><path class="cls-16" d="m1640.47,590.13c-1.79-3.32-49.61-.59-69.16,4.66-19.55,5.25-19.26-9.91-19.26-9.91l-4.67-27.68s-5.52-21.8,8.2-23.79c13.73-1.99,14.91,17.74,16.74,28.12,1.83,10.37,14.85,6.68,14.85,6.68l35.35-5.23"/><path class="cls-23" d="m1573.69,591.47s31.8-13.92,64.05-8.65l1.48,6.63-65.53,2.02Z"/><path class="cls-26" d="m1565.55,540.6s-4.07-13.56-4.75-4.75c0,0,3.39,29.16,9.5,35.95,6.91,7.68,32.56-3.39,32.56-3.39,0,0-26.45,2.03-28.49-1.36s-8.82-26.45-8.82-26.45Z"/><path class="cls-7" d="m1621.17,563.66l-34.19,4.87s-13.02,3.69-14.85-6.68c-1.83-10.37-3.01-30.11-16.74-28.12-13.73,1.99-8.2,23.79-8.2,23.79l4.67,27.68s-.29,15.16,19.26,9.91c19.55-5.25,67.37-7.98,69.16-4.66"/><path class="cls-16" d="m1773.17,594.65s29.91,4.99,36.89,9.97c6.98,4.99,27.92,0,26.92-4.99-1-4.99,19.94-67.8-20.94-48.86,0,0-10.97,11.97-8.97,29.91"/><path class="cls-2" d="m1805.99,578.92s5.03-26.91,9.81-26.85c2.57.03,15.97-3.67,11.22-1.64-2.89,1.24-7.38,14.84-8.48,20.01-1.61,7.57-1.33,15.97-3.05,17.3-1.72,1.33-5.43-4.41-9.5-8.82Z"/><path class="cls-23" d="m1819.89,605.04c1.63.41.95-7.77,1.11-9.44l2.96-32.61s4.61-22.79,15.6-5.43c.49.77.13-2.25.31-1.35,1.06,5.18,3.91,24.38-7.09,44.08,0,0-4.47,11.13-38.18-.88,0,0-18.11-1.16-18.11-6.58,0-1.92,4.75-4.07,4.75-4.07,0,0,20.25.96,21.7,3.39,2.03,3.39,1.81,5.12,8.14,6.78,3.67.97,3.39,4.75,8.82,6.1Z"/><path class="cls-6" d="m1775.13,595.54s27.8,3.94,34.77,8.93c6.98,4.99,25.08-.25,26.92-4.99,2.06-5.3,16.39-57.07-11.43-52.07-6.55,1.18-12.02,5.63-14.85,11.66-2.45,5.22-4.62,12.62-3.64,21.47"/><path class="cls-16" d="m1903.96,280.32c-.38,6.73-1.31,13.31-2.7,19.72-12.28,56.16-58.07,94.22-91.86,117.98-13.56,9.52-25.2,16.76-31.96,21.93-1.78,1.37-3.23,2.58-4.29,3.67-16.87,17.35-34.21,17-47.62,12-5.61-2.09-10.54-5.01-14.45-7.76-2.28-1.62-4.22-3.17-5.75-4.5-2.83-2.44-6.1-4.34-9.66-5.53-20.62-6.97-91.36-34.72-111.73-93.29-7.45-21.43-10.27-40.07-10.61-55.59-.12-6.09.13-11.72.62-16.82,2.88-15.33,12.02-29.58,25.91-41.86,29.55-26.14,80.61-43.41,138.63-43.41,18.53,0,36.33,1.76,52.97,5.01,64.25,12.54,110.84,47.28,112.51,88.45Z"/><path class="cls-26" d="m1756.42,187.42s247.96,83.24-10.45,265.01c0,0-14.88,1.48-7.1,6.16,7.78,4.69,35.38-16.03,35.38-16.03,0,0,79.42-55.48,80.85-62.48,1.43-7,78.75-68.72,34.66-137.9,0,0-54.38-55.93-133.34-54.76Z"/><path class="cls-16" d="m1685.12,480.41s0,65.11-2.32,80.03c-2.32,14.92-6.96-2.71-6.96-2.71,0,0-6.57,29.84-11.99,2.71-5.41-27.13,6.96-80.03,6.96-80.03,0,0-3.58-5.73-8.05,4.44"/><path d="m1685.12,480.41c.66,8.08,1.07,16.17,1.39,24.26.19,4.05.27,8.09.37,12.14.1,4.05.19,8.1.19,12.15.03,8.11.03,16.2-.39,24.39-.14,2.06-.24,4.09-.5,6.24-.1,1.06-.24,2.12-.46,3.23-.21,1.11-.45,2.23-1.02,3.61-.11.31-.38.77-.6,1.14-.17.24-.36.49-.56.72-.08.1-.23.25-.41.4-.17.14-.34.28-.52.41-.15.12-.44.27-.72.38-.28.11-.57.21-.86.27-.31.05-.65.06-.97.05-.16,0-.33-.02-.48-.04-.13-.03-.26-.06-.39-.09-.26-.07-.51-.16-.75-.27-.21-.1-.35-.19-.52-.29-.16-.1-.33-.22-.47-.32l-.32-.28c-.8-.77-1.19-1.39-1.54-1.97-.34-.58-.62-1.13-.87-1.66-.97-2.15-1.62-4.1-2.24-6.25l6.73-.14c-.55,2.42-1.17,4.66-1.95,7-.39,1.16-.83,2.32-1.35,3.51-.55,1.19-1.11,2.39-2.14,3.72-.54.65-1.18,1.43-2.52,2.11-.67.33-1.64.58-2.61.5-.98-.07-1.86-.45-2.43-.84-1.21-.82-1.72-1.62-2.19-2.32-.44-.7-.75-1.36-1.04-2-1.05-2.53-1.64-4.87-2.14-7.22l-.36-1.76-.26-1.79-.51-3.59c-.2-2.38-.37-4.75-.44-7.12.02-2.35-.08-4.72.04-7.05l.16-3.5.08-1.75.14-1.74c.33-4.65.89-9.25,1.54-13.84.34-2.29.65-4.58,1.05-6.86.36-2.28.77-4.55,1.23-6.82,1.76-9.06,3.85-18.03,6.45-26.89l.11.64c-.16-.29-.45-.64-.73-.89-.3-.26-.63-.4-.97-.5-.7-.13-1.51.23-2.22.79-.69.6-1.33,1.32-1.87,2.12-.57.78-1.03,1.64-1.54,2.48.35-.91.67-1.85,1.13-2.72.42-.9.97-1.74,1.65-2.54.7-.75,1.71-1.48,2.99-1.43.61.06,1.21.27,1.71.59.5.34.9.69,1.29,1.21l.17.23-.07.41c-1.43,9.04-2.68,18.11-3.71,27.18-.49,4.54-.99,9.06-1.34,13.59-.38,4.53-.61,9.06-.77,13.57-.23,9.01-.18,18.06,1.77,26.48.5,2.11,1.06,4.24,1.79,5.94.18.4.37.78.54,1.05.15.26.35.4.11.2-.11-.07-.43-.24-.83-.27-.4-.04-.79.08-.94.16-.31.16-.12.1.04-.14.38-.48.86-1.35,1.25-2.24.41-.91.79-1.89,1.13-2.9.69-2.01,1.3-4.19,1.78-6.24l3.16-13.53,3.57,13.4c.46,1.74,1.06,3.64,1.74,5.19.17.39.35.75.51,1.04.15.3.35.51.28.45-.01-.01-.03-.02-.04-.03-.03-.03-.1-.08-.15-.11-.07-.04-.1-.05-.2-.1-.12-.07-.26-.12-.39-.15-.07-.02-.14-.03-.21-.03-.09-.02-.19-.04-.29-.04-.2-.01-.4,0-.59.05-.17.02-.34.07-.51.14-.16.06-.33.19-.39.21-.08.05-.16.1-.23.17-.08.07-.13.14-.14.14-.04.03-.08.09-.09.13.02-.08.04-.03.1-.2.22-.48.49-1.33.66-2.2.2-.87.35-1.81.47-2.76.29-1.86.45-3.87.65-5.83l.49-5.98.41-6.01c.27-4.02.52-8.04.74-12.07l1.41-24.2c.5-8.07,1.02-16.15,1.7-24.23Z"/><path class="cls-16" d="m1785.68,482.26c-6.15-10.17-11.08-4.44-11.08-4.44,0,0,17.03,52.9,9.58,80.03-7.45,27.13-16.5-2.71-16.5-2.71,0,0-6.39,17.63-9.58,2.71-3.19-14.92-3.19-80.03-3.19-80.03"/><path d="m1785.68,482.26l-1.07-1.4c-.35-.47-.77-.88-1.15-1.31-.38-.43-.85-.78-1.26-1.17-.22-.18-.47-.32-.7-.49-.23-.17-.46-.32-.72-.42-.97-.53-2.05-.78-3.04-.58-.5.09-.97.27-1.41.53-.42.25-.85.62-1.11.94l.16-.79c3.27,8.92,5.95,18.01,8.21,27.24,1.14,4.62,2.08,9.28,2.91,13.98.83,4.7,1.5,9.44,1.88,14.23.39,4.79.57,9.63.29,14.52-.09,1.22-.14,2.45-.32,3.67l-.23,1.84-.32,1.84c-.18,1.23-.54,2.45-.81,3.68-.35,1.19-.65,2.37-1.08,3.57-.84,2.38-1.7,4.78-3.61,7.25-.2.3-.57.62-.86.92-.28.3-.68.6-1.11.88-.38.29-.91.52-1.45.72-.5.23-1.18.26-1.77.32-1.21,0-2.37-.37-3.18-.85l-.62-.37-.51-.39c-.36-.27-.64-.54-.91-.82-2.13-2.23-3.26-4.51-4.37-6.79-1.07-2.31-1.93-4.55-2.69-7l5.62.15c-.83,2.13-1.7,4.05-2.94,6.07-.65,1-1.28,2.01-2.49,3.07-.28.26-.68.53-1.08.78-.25.13-.5.24-.75.35-.27.1-.62.18-.93.25-.68.11-1.47.06-2.15-.19-.37-.11-.61-.27-.9-.44-.13-.08-.28-.17-.4-.26l-.3-.26c-.83-.74-1.17-1.41-1.53-2.05-.31-.62-.56-1.23-.75-1.8-.4-1.16-.64-2.25-.86-3.34l-.5-3.23c-.13-1.06-.21-2.1-.32-3.15-.77-8.34-.88-16.55-.99-24.79-.06-4.12-.03-8.23.02-12.34.04-4.11.09-8.22.22-12.33.22-8.22.54-16.44,1.1-24.65.58,8.21,1.06,16.41,1.53,24.61l1.45,24.56c.25,4.09.53,8.17.85,12.24l.51,6.09c.22,2.01.35,4.06.63,6.03.13.99.24,2,.39,2.97l.52,2.84c.21.91.45,1.82.75,2.59.14.4.31.74.46,1.03.14.25.33.49.29.41,0,0,0,0-.02,0-.01-.01-.04-.05-.07-.06-.06-.05-.1-.03-.22-.1-.2-.07-.46-.1-.64-.06-.07,0-.16.04-.19.05-.02,0-.04,0-.06.02.02-.04.06-.04.15-.13.35-.29.87-1.02,1.31-1.74.89-1.49,1.71-3.34,2.34-5.04l2.97-8.03,2.65,8.17c.66,2.04,1.49,4.22,2.43,6.18.92,1.96,2.05,3.91,3.21,5.08.14.15.28.28.4.37l.18.15c.05.02.1.05.14.08.2.14.22.07.18.11-.06-.05-.08.06.08-.08.07-.05.16-.07.27-.22.11-.13.23-.17.35-.36,1.01-1.25,1.93-3.32,2.63-5.37.38-1.02.67-2.13,1-3.19.24-1.08.57-2.11.74-3.22l.3-1.64.23-1.67c.16-1.11.26-2.24.37-3.37.4-4.52.38-9.14.13-13.76-.26-4.62-.69-9.26-1.26-13.89-.57-4.63-1.34-9.25-2.13-13.87-.79-4.62-1.73-9.22-2.73-13.81-.97-4.6-2.06-9.18-3.22-13.73l-.13-.51.29-.28c1.04-1,2.26-1.55,3.62-1.67,1.35-.11,2.65.37,3.65,1.08.27.16.51.36.73.57.23.21.46.4.68.61.39.46.82.88,1.16,1.38.33.5.71.96,1,1.47l.87,1.54Z"/><path class="cls-10" d="m1904.2,280.08c-.38,6.73-1.31,13.31-2.7,19.72-12.28,56.16-58.07,94.22-91.86,117.98-13.56,9.52-25.2,16.76-31.96,21.93-1.78,1.37-3.23,2.58-4.29,3.67-16.87,17.35-34.21,17-47.62,12-5.61-2.09-10.54-5.01-14.45-7.76-2.28-1.62-4.22-3.17-5.75-4.5-2.83-2.44-6.1-4.34-9.66-5.53-20.62-6.97-91.36-34.72-111.73-93.29-7.45-21.43-10.27-40.07-10.61-55.59-.12-6.09.13-11.72.62-16.82,2.88-15.33,12.02-29.58,25.91-41.86,29.55-26.14,80.61-43.41,138.63-43.41,18.53,0,36.33,1.76,52.97,5.01,64.25,12.54,110.84,47.28,112.51,88.45Z"/><ellipse class="cls-16" cx="1637.14" cy="354.64" rx="64.94" ry="64.13"/><ellipse class="cls-16" cx="1818.84" cy="351.14" rx="62.34" ry="61.57"/><path class="cls-26" d="m1829.25,290.08s56.32,54.82,15.53,116.71c0,0,41.19-17.75,35.95-63.39,0,0,.31-38.68-51.48-53.31Z"/><path class="cls-26" d="m1702.18,354.53c0,35.42-29.07,64.13-64.94,64.13-3.58,0-7.09-.29-10.51-.84,31.06-4.8,54.83-31.33,54.83-63.36s-23.56-58.33-54.42-63.29c3.29-.51,6.67-.78,10.11-.78,35.87,0,64.94,28.71,64.94,64.13Z"/><path class="cls-20" d="m2173.55,414.44h24.08c35.27,0,63.91,28.64,63.91,63.91v54.33h-39.01c-39.09,0-70.82-31.73-70.82-70.82v-25.58c0-12.05,9.78-21.84,21.84-21.84Z" transform="translate(2680.18 -1733.07) rotate(90)"/><path class="cls-29" d="m2178.78,439.56c4.58.39,9.08,1.44,13.5,2.74,4.42,1.32,8.74,3.01,12.93,5.03,8.35,4.07,16.19,9.58,22.58,16.67,3.2,3.53,5.93,7.54,8.11,11.81,2.18,4.27,3.81,8.85,4.61,13.56l.34,1.75.18,1.78c.1,1.18.27,2.36.29,3.54,0,2.37.05,4.71-.27,7.04-.41,4.66-1.65,9.16-3.21,13.45,0-1.16.04-2.29.06-3.43.04-1.13.13-2.25.05-3.38-.05-1.13-.06-2.24-.09-3.35,0-1.11-.18-2.22-.25-3.32-.11-2.2-.55-4.36-.86-6.51-.19-1.07-.49-2.12-.72-3.17l-.37-1.57-.49-1.54c-.35-1.02-.59-2.06-1.01-3.05l-1.18-2.97c-.94-1.91-1.77-3.87-2.91-5.67l-.79-1.38c-.26-.46-.58-.89-.87-1.33-.61-.87-1.14-1.79-1.81-2.62l-1.93-2.55-2.09-2.43c-5.73-6.36-12.59-11.81-20.03-16.54-3.72-2.38-7.58-4.57-11.55-6.65-3.97-2.09-8.02-4.06-12.21-5.91Z"/><path class="cls-29" d="m2186.24,427.35c4.66.09,9.24.94,13.75,2.05,4.51,1.14,8.92,2.68,13.22,4.56,8.56,3.79,16.65,9.06,23.49,15.88l2.47,2.65c.81.89,1.56,1.86,2.33,2.79.78.93,1.46,1.94,2.15,2.94.7,1,1.41,1.98,1.99,3.06,2.55,4.15,4.5,8.68,5.76,13.37.71,2.32,1.05,4.73,1.43,7.09.12,1.2.2,2.4.27,3.59.03.6.07,1.19.09,1.78l-.05,1.79c-.07,1.19-.07,2.37-.19,3.54-.17,1.17-.32,2.34-.52,3.49-.11.58-.16,1.15-.31,1.72l-.44,1.7c-.33,1.13-.61,2.24-.98,3.34-.76-4.61-1.25-9.03-2.45-13.27l-.37-1.59c-.15-.52-.33-1.04-.49-1.56-.34-1.03-.61-2.07-.96-3.08-.41-1-.77-2-1.15-2.99-.33-1.01-.87-1.94-1.27-2.91-.43-.96-.85-1.92-1.39-2.83-.51-.92-.95-1.86-1.49-2.76-.56-.89-1.12-1.77-1.65-2.66-.54-.89-1.19-1.72-1.78-2.58-.58-.86-1.22-1.69-1.87-2.51-.64-.82-1.26-1.66-1.98-2.43-.7-.78-1.34-1.61-2.06-2.37l-2.18-2.28c-5.97-5.96-12.79-11.23-20.11-16.02-7.34-4.81-15.1-9.16-23.25-13.51Z"/><path class="cls-29" d="m2206.94,421.58s44.11,9.5,52.25,56.32c0,0,4.73-42.72,0-45.47-12.89-7.46,12.39-10.52-52.25-10.86Z"/><path class="cls-29" d="m2190.31,440.92c-2.04-6.79,5.43-8.14,7.46-7.46s3.39-3.39,3.39-3.39c0,0,.47-4.29,7.13-5.77,6.11-1.36,8.82.68,8.82.68,0,0-20.49-8.48-26.47-1.36-5.98,7.13-13.47,10.17-13.47,10.17l9.06,10.45,4.07-3.31Z"/><path class="cls-10" d="m2173.88,414.65h24.08c35.27,0,63.91,28.64,63.91,63.91v54.33h-39.01c-39.09,0-70.82-31.73-70.82-70.82v-25.58c0-12.05,9.78-21.84,21.84-21.84Z" transform="translate(2680.73 -1733.18) rotate(90)"/><path class="cls-20" d="m2062.06,452.46s-115.03,102.07-36.18,136.46c0,0,187.96,16.01,209.3-3.56,21.35-19.57,14.82-82.42-50.99-142.89-65.81-60.48-122.13,10-122.13,10Z"/><path class="cls-29" d="m2000.99,536.6s8.14-8.82,12.89.68c3.51,7.02,6.65,22.95,8.05,30.77.27,1.52-1.46,2.6-2.7,1.67-3.97-2.96-10.72-7.1-16.89-6.66-9.5.68-1.36-26.47-1.36-26.47Z"/><path class="cls-30" d="m2025.41,582.07s141.76,6.32,146.88,5.88-2.03,8.36-11.01,7.69-133.59-5.98-135.41-6.72-.47-6.84-.47-6.84Z"/><path class="cls-29" d="m2147.56,440.92s65.14,51.57,73.29,141.15c0,0,19.26,15.27,25.24-19.51,0,0,9.41-58.89-68.99-126.91-78.4-68.02,0,0,0,0l-29.54,5.27Z"/><path class="cls-29" d="m2080.04,439.9s12.21.68,16.96,11.54c4.75,10.86,43.43,21.04,61.75,10.86,18.32-10.18,25.79-4.75,25.79-4.75l-16.96-17.64-87.54-5.24v5.24Z"/><path class="cls-10" d="m2062.54,452.78s-115.03,102.07-36.18,136.46c0,0,187.96,16.01,209.3-3.56,21.35-19.57,14.82-82.42-50.99-142.89-65.81-60.48-122.13,10-122.13,10Z"/><path class="cls-20" d="m2031.84,589.54c-1.79-3.32-49.64-.59-69.2,4.67-19.56,5.25-19.27-9.92-19.27-9.92l-4.67-27.69s-5.52-21.81,8.21-23.8c13.73-1.99,14.92,17.75,16.74,28.13,1.83,10.38,14.86,6.68,14.86,6.68l35.37-5.23"/><path class="cls-30" d="m1965.02,590.89s31.82-13.92,64.09-8.66l1.48,6.64-65.57,2.02Z"/><path class="cls-29" d="m1956.88,540s-4.07-13.57-4.75-4.75c0,0,3.39,29.18,9.5,35.97,6.91,7.68,32.57-3.39,32.57-3.39,0,0-26.47,2.04-28.5-1.36-2.04-3.39-8.82-26.47-8.82-26.47Z"/><path class="cls-6" d="m2012.52,563.07l-34.21,4.87s-13.03,3.7-14.86-6.68c-1.83-10.38-3.01-30.12-16.74-28.13-13.73,1.99-8.21,23.8-8.21,23.8l4.67,27.69s-.29,15.17,19.27,9.92c19.56-5.25,67.4-7.99,69.2-4.67"/><path class="cls-20" d="m2164.6,594.08s29.93,4.99,36.91,9.98,27.93,0,26.94-4.99c-1-4.99,19.95-67.84-20.95-48.88,0,0-10.97,11.97-8.98,29.93"/><path class="cls-28" d="m2197.44,578.34s5.04-26.92,9.81-26.86c2.57.03,15.97-3.67,11.22-1.64-2.89,1.24-7.39,14.85-8.48,20.02-1.61,7.58-1.33,15.97-3.05,17.3-1.72,1.33-5.43-4.41-9.5-8.82Z"/><path class="cls-30" d="m2211.35,604.46c1.63.41.95-7.77,1.11-9.45l2.97-32.63s4.61-22.81,15.61-5.43c.49.77.13-2.25.31-1.35,1.07,5.18,3.92,24.4-7.1,44.1,0,0-4.47,11.14-38.2-.88,0,0-18.12-1.16-18.12-6.59,0-1.92,4.75-4.07,4.75-4.07,0,0,20.26.96,21.71,3.39,2.04,3.39,1.81,5.12,8.14,6.79,3.68.97,3.39,4.75,8.82,6.11Z"/><path class="cls-6" d="m2166.56,594.96s27.81,3.94,34.79,8.93c6.98,4.99,25.09-.25,26.94-4.99,2.06-5.3,16.4-57.1-11.44-52.1-6.56,1.18-12.03,5.63-14.85,11.66-2.45,5.23-4.62,12.63-3.64,21.48"/><path class="cls-20" d="m2295.45,279.58c-.38,6.73-1.31,13.32-2.7,19.73-12.29,56.19-58.1,94.26-91.91,118.04-13.57,9.53-25.21,16.77-31.97,21.94-1.79,1.37-3.23,2.58-4.29,3.67-16.88,17.36-34.23,17.01-47.65,12.01-5.62-2.09-10.54-5.01-14.46-7.76-2.28-1.62-4.22-3.17-5.76-4.5-2.83-2.44-6.11-4.34-9.67-5.54-20.63-6.97-91.41-34.74-111.79-93.34-7.45-21.44-10.28-40.09-10.61-55.62-.12-6.1.13-11.72.62-16.83,2.88-15.33,12.03-29.6,25.93-41.88,29.57-26.16,80.65-43.44,138.7-43.44,18.54,0,36.35,1.77,52.99,5.01,64.29,12.55,110.89,47.31,112.57,88.5Z"/><path class="cls-29" d="m2147.84,186.63s248.09,83.29-10.46,265.15c0,0-14.89,1.48-7.11,6.17s35.4-16.04,35.4-16.04c0,0,79.46-55.51,80.89-62.51,1.43-7.01,78.79-68.76,34.68-137.98,0,0-54.41-55.96-133.4-54.79Z"/><path class="cls-20" d="m2076.51,479.78s0,65.14-2.32,80.07c-2.32,14.93-6.96-2.71-6.96-2.71,0,0-6.58,29.86-11.99,2.71s6.96-80.07,6.96-80.07c0,0-3.58-5.74-8.05,4.44"/><path d="m2076.51,479.78c.56,8.09.91,16.18,1.17,24.27.16,4.05.22,8.09.3,12.14.08,4.05.14,8.1.13,12.15,0,8.11-.04,16.2-.5,24.37-.14,2.06-.24,4.09-.5,6.21-.1,1.05-.24,2.1-.45,3.2-.21,1.09-.45,2.2-.99,3.51-.11.3-.36.73-.56,1.08-.15.22-.33.45-.51.66-.07.09-.21.23-.37.36-.15.13-.31.25-.47.36-.13.11-.4.24-.64.34-.25.1-.5.18-.76.24-.53.08-1.23.07-1.63-.08-.23-.06-.45-.15-.67-.24-.19-.09-.31-.17-.47-.27-.14-.09-.3-.2-.42-.29l-.29-.26c-.74-.71-1.11-1.3-1.44-1.86-.33-.56-.6-1.09-.84-1.62-.95-2.1-1.58-4.05-2.19-6.18l5.7-.12c-.54,2.39-1.15,4.63-1.92,6.95-.39,1.15-.81,2.3-1.33,3.47-.53,1.17-1.09,2.35-2.08,3.62-.51.62-1.12,1.35-2.34,1.97-.61.3-1.48.52-2.35.45-.88-.06-1.67-.41-2.2-.77-1.11-.75-1.59-1.5-2.04-2.17-.42-.67-.72-1.31-1-1.93-1.03-2.47-1.61-4.79-2.12-7.13l-.36-1.75-.26-1.78-.51-3.56c-.2-2.36-.37-4.73-.44-7.08.02-2.34-.07-4.7.04-7.03l.15-3.49.07-1.75.13-1.74c.3-4.64.85-9.24,1.48-13.83.33-2.29.63-4.58,1.02-6.86.36-2.28.75-4.56,1.2-6.82,1.7-9.07,3.74-18.05,6.26-26.92l.09.55c-.17-.3-.47-.66-.77-.91-.31-.26-.66-.41-1.03-.51-.74-.12-1.57.26-2.28.83-.69.61-1.32,1.34-1.85,2.15-.56.79-1.02,1.65-1.51,2.5.36-.91.69-1.84,1.16-2.71.43-.89.98-1.73,1.66-2.51.7-.73,1.69-1.44,2.94-1.38.6.07,1.18.26,1.65.59.48.33.87.68,1.25,1.19l.15.2-.06.35c-1.52,9.03-2.83,18.1-3.9,27.17-.52,4.54-1.03,9.07-1.41,13.61-.4,4.54-.65,9.07-.84,13.6l-.08,1.7-.02,1.69-.04,3.38c-.04,2.26.12,4.49.17,6.73.02,1.12.18,2.22.27,3.33.1,1.1.16,2.22.3,3.31l.52,3.24.26,1.62.36,1.62c.5,2.13,1.06,4.27,1.82,6.03.19.42.39.82.58,1.12.17.29.4.48.26.36-.06-.03-.3-.16-.6-.19-.3-.03-.59.07-.69.12-.19.1.03,0,.22-.29.42-.54.91-1.43,1.32-2.34.42-.93.8-1.93,1.16-2.94.7-2.03,1.32-4.21,1.81-6.29l2.68-11.34,3.03,11.23c.48,1.77,1.09,3.68,1.79,5.27.18.4.36.77.54,1.08.09.16.18.3.25.4.04.07.07.08.09.12l.04.05s0-.01,0-.01c0,0,0,0-.02,0-.02-.02-.07-.06-.11-.08-.05-.03-.07-.03-.15-.07-.1-.05-.2-.09-.31-.12-.05-.01-.11-.02-.16-.02-.07-.02-.15-.03-.23-.04-.16-.01-.33,0-.48.04-.14.02-.28.05-.41.11-.13.05-.27.15-.31.17-.06.03-.12.08-.17.13-.06.06-.1.11-.1.1-.02.01-.04.04-.04.06.03-.1.07-.09.13-.27.24-.55.51-1.41.69-2.3.2-.89.36-1.83.48-2.79.29-1.88.45-3.89.65-5.86l.45-5.99.38-6.02c.26-4.02.48-8.05.69-12.08l1.27-24.21c.44-8.08.9-16.16,1.48-24.24Z"/><path class="cls-20" d="m2177.12,481.62c-6.16-10.18-11.09-4.44-11.09-4.44,0,0,17.04,52.93,9.58,80.07-7.45,27.14-16.51-2.71-16.51-2.71,0,0-6.39,17.64-9.58,2.71-3.19-14.93-3.19-80.07-3.19-80.07"/><path d="m2177.12,481.62l-1.07-1.4c-.35-.47-.77-.88-1.15-1.31-.38-.43-.85-.78-1.26-1.17-.22-.18-.47-.32-.7-.49-.23-.17-.46-.32-.72-.43-.97-.53-2.05-.78-3.04-.58-.5.09-.97.27-1.41.53-.42.25-.85.62-1.11.94l.16-.79c3.27,8.92,5.95,18.02,8.21,27.26,1.14,4.62,2.08,9.29,2.91,13.98.83,4.7,1.5,9.44,1.88,14.24.39,4.79.57,9.63.29,14.52-.09,1.22-.14,2.45-.32,3.68l-.23,1.84-.32,1.84c-.18,1.23-.54,2.45-.81,3.68-.35,1.19-.65,2.37-1.08,3.57-.84,2.38-1.7,4.78-3.61,7.25-.2.3-.57.62-.86.92-.28.3-.68.6-1.11.88-.38.29-.91.52-1.45.72-.5.23-1.18.26-1.77.32-1.21,0-2.37-.37-3.18-.86l-.62-.37-.51-.39c-.36-.27-.64-.54-.91-.82-2.13-2.23-3.27-4.51-4.37-6.8-1.07-2.31-1.93-4.55-2.69-7l5.62.15c-.83,2.14-1.7,4.05-2.94,6.07-.65,1-1.29,2.01-2.49,3.07-.28.26-.68.53-1.09.78-.25.13-.5.24-.75.35-.27.1-.62.18-.93.25-.68.11-1.47.06-2.15-.19-.37-.11-.61-.27-.9-.44-.13-.08-.28-.17-.4-.26l-.3-.26c-.83-.74-1.17-1.41-1.53-2.05-.31-.63-.56-1.23-.75-1.8-.4-1.16-.64-2.25-.86-3.34l-.5-3.23c-.13-1.06-.21-2.1-.32-3.15-.77-8.34-.88-16.56-.99-24.8-.06-4.12-.03-8.24.02-12.35.04-4.11.09-8.23.22-12.34.22-8.22.54-16.45,1.1-24.66.58,8.21,1.06,16.42,1.53,24.62l1.45,24.58c.25,4.09.53,8.17.85,12.25l.51,6.09c.22,2.01.35,4.06.63,6.03.13.99.24,2,.39,2.97l.52,2.84c.21.92.45,1.83.75,2.6.14.4.31.74.46,1.03.14.25.33.49.29.41,0,0,0,0-.02,0-.01-.01-.04-.05-.07-.06-.06-.05-.1-.03-.22-.1-.2-.07-.46-.1-.64-.06-.07,0-.16.04-.19.05-.02,0-.04,0-.06.02.02-.04.06-.04.15-.13.35-.29.87-1.02,1.31-1.75.89-1.49,1.71-3.34,2.34-5.04l2.97-8.03,2.65,8.17c.66,2.04,1.49,4.22,2.43,6.19.92,1.96,2.05,3.91,3.21,5.09.14.15.28.28.4.37l.18.16c.05.02.1.05.14.08.2.14.22.07.18.11-.06-.05-.08.06.08-.08.07-.05.16-.07.27-.22.11-.13.23-.17.35-.37,1.01-1.25,1.93-3.32,2.63-5.38.38-1.02.67-2.13,1-3.2.24-1.08.57-2.12.74-3.22l.3-1.64.23-1.67c.16-1.11.26-2.24.37-3.37.4-4.52.38-9.15.13-13.77-.26-4.62-.69-9.26-1.26-13.9-.57-4.64-1.34-9.25-2.13-13.88-.79-4.62-1.73-9.23-2.73-13.82-.97-4.6-2.06-9.19-3.22-13.73l-.13-.51.29-.28c1.04-1,2.27-1.55,3.62-1.67,1.35-.11,2.65.37,3.65,1.08.27.16.51.36.73.57.23.21.47.4.68.61.39.46.82.88,1.16,1.38.33.5.71.96,1,1.47l.87,1.54Z"/><path class="cls-9" d="m2295.69,279.34c-.38,6.73-1.31,13.32-2.7,19.73-12.29,56.19-58.1,94.26-91.91,118.04-13.57,9.53-25.21,16.77-31.97,21.94-1.79,1.37-3.23,2.58-4.29,3.67-16.88,17.36-34.23,17.01-47.65,12.01-5.62-2.09-10.54-5.01-14.46-7.76-2.28-1.62-4.22-3.17-5.76-4.5-2.83-2.44-6.11-4.34-9.67-5.54-20.63-6.97-91.41-34.74-111.79-93.34-7.45-21.44-10.28-40.09-10.61-55.62-.12-6.1.13-11.72.62-16.83,2.88-15.33,12.03-29.6,25.93-41.88,29.57-26.16,80.65-43.44,138.7-43.44,18.54,0,36.35,1.77,52.99,5.01,64.29,12.55,110.89,47.31,112.57,88.5Z"/><ellipse class="cls-20" cx="2028.5" cy="353.94" rx="64.97" ry="64.17"/><ellipse class="cls-20" cx="2210.3" cy="350.44" rx="62.37" ry="61.6"/><path class="cls-29" d="m2220.71,289.34s56.35,54.84,15.54,116.77c0,0,41.21-17.76,35.96-63.43,0,0,.31-38.7-51.51-53.34Z"/><path class="cls-29" d="m2093.57,353.83c0,35.44-29.09,64.17-64.97,64.17-3.58,0-7.1-.29-10.52-.84,31.08-4.8,54.85-31.35,54.85-63.39s-23.57-58.36-54.45-63.33c3.3-.51,6.67-.78,10.12-.78,35.89,0,64.97,28.73,64.97,64.17Z"/><circle class="cls-5" cx="2029.36" cy="357.12" r="65.6"/><circle class="cls-5" cx="2206.55" cy="353.02" r="63.4"/><ellipse class="cls-12" cx="2037.71" cy="358.06" rx="48.75" ry="51.74" transform="translate(1597.38 2379.59) rotate(-87.68)"/><ellipse class="cls-12" cx="2193.64" cy="353.29" rx="47.11" ry="50.01" transform="translate(1751.76 2530.82) rotate(-87.68)"/><ellipse class="cls-11" cx="2044.11" cy="358.38" rx="42.71" ry="45.33" transform="translate(1603.21 2386.29) rotate(-87.68)"/><ellipse class="cls-11" cx="2187.45" cy="352.89" rx="41.27" ry="43.81" transform="translate(1746.22 2524.25) rotate(-87.68)"/><circle cx="2051.4" cy="358.19" r="38.91"/><circle cx="2181.24" cy="353.2" r="37.61"/><path d="m1992.68,280.75c.93-1.4,2.02-2.69,3.18-3.9,1.15-1.22,2.39-2.36,3.69-3.43,2.59-2.15,5.42-4.03,8.43-5.63,6.01-3.19,12.77-5.19,19.71-5.72,3.47-.25,6.96-.09,10.4.4l2.56.45c.85.17,1.68.41,2.52.62,1.68.39,3.3,1.02,4.91,1.6,6.36,2.57,12.12,6.37,16.56,11.37-6.32-2.2-12.31-4.15-18.35-5.34-3.03-.51-6.02-1.01-9.03-1.15-.75-.07-1.5-.07-2.25-.1-.75-.03-1.5-.06-2.25-.02-.75.02-1.5-.01-2.25.03l-2.25.13c-5.98.46-11.94,1.65-17.84,3.52-5.92,1.87-11.75,4.28-17.74,7.19Z"/><circle class="cls-4" cx="2067.37" cy="339.36" r="12.15"/><circle class="cls-4" cx="2219.33" cy="341.92" r="11.99"/><ellipse class="cls-4" cx="2014.67" cy="380.59" rx="4.2" ry="12.4" transform="translate(1552.76 2378.18) rotate(-87.68)"/><ellipse class="cls-4" cx="2171.8" cy="378.88" rx="4.06" ry="11.99" transform="translate(1705.24 2533.54) rotate(-87.68)"/><path d="m2236.5,278.43c-6.21-2.91-12.3-5.29-18.46-6.93-6.14-1.65-12.32-2.46-18.41-2.21-6.09.29-12.09,1.65-17.92,4.05-5.85,2.39-11.47,5.72-17.32,9.37,3.43-5.98,8.42-11.07,14.41-14.94,6.01-3.83,13.19-6.15,20.48-6.46,7.29-.29,14.54,1.32,20.93,4.32,3.2,1.51,6.21,3.34,8.96,5.47,2.74,2.14,5.29,4.53,7.32,7.34Z"/><circle class="cls-5" cx="1635.01" cy="354.73" r="65.6"/><circle class="cls-5" cx="1812.2" cy="350.63" r="63.4"/><ellipse class="cls-12" cx="1643.35" cy="355.66" rx="48.75" ry="51.74" transform="translate(1221.4 1983.26) rotate(-87.68)"/><ellipse class="cls-12" cx="1799.29" cy="350.89" rx="47.11" ry="50.01" transform="translate(1375.78 2134.49) rotate(-87.68)"/><ellipse class="cls-11" cx="1649.76" cy="355.98" rx="42.71" ry="45.33" transform="translate(1227.23 1989.96) rotate(-87.68)"/><ellipse class="cls-11" cx="1793.1" cy="350.5" rx="41.27" ry="43.81" transform="translate(1370.24 2127.92) rotate(-87.68)"/><circle cx="1657.04" cy="355.79" r="38.91"/><circle cx="1786.88" cy="350.8" r="37.61"/><path d="m1598.33,278.35c.93-1.4,2.02-2.69,3.18-3.9,1.15-1.22,2.39-2.36,3.69-3.43,2.59-2.15,5.42-4.03,8.43-5.63,6.01-3.19,12.77-5.19,19.71-5.72,3.47-.25,6.96-.09,10.4.4l2.56.45c.85.17,1.68.41,2.52.62,1.68.39,3.3,1.02,4.91,1.6,6.36,2.57,12.12,6.37,16.56,11.37-6.32-2.2-12.31-4.15-18.35-5.34-3.03-.51-6.02-1.01-9.03-1.15-.75-.07-1.5-.07-2.25-.1-.75-.03-1.5-.06-2.25-.02-.75.02-1.5-.01-2.25.03l-2.25.13c-5.98.46-11.94,1.65-17.84,3.52-5.92,1.87-11.75,4.28-17.74,7.19Z"/><circle class="cls-4" cx="1673.02" cy="336.96" r="12.15"/><circle class="cls-4" cx="1824.98" cy="339.53" r="11.99"/><ellipse class="cls-4" cx="1620.31" cy="378.19" rx="4.2" ry="12.4" transform="translate(1176.78 1981.85) rotate(-87.68)"/><ellipse class="cls-4" cx="1777.45" cy="376.48" rx="4.06" ry="11.99" transform="translate(1329.26 2137.21) rotate(-87.68)"/><path d="m1842.14,276.03c-6.21-2.91-12.3-5.29-18.46-6.93-6.14-1.65-12.32-2.46-18.41-2.21-6.09.29-12.09,1.65-17.92,4.05-5.85,2.39-11.47,5.72-17.32,9.37,3.43-5.98,8.42-11.07,14.41-14.94,6.01-3.83,13.19-6.15,20.48-6.46,7.29-.29,14.54,1.32,20.93,4.32,3.2,1.51,6.21,3.34,8.96,5.47,2.74,2.14,5.29,4.53,7.32,7.34Z"/><circle class="cls-5" cx="1211.34" cy="352.55" r="65.6"/><circle class="cls-5" cx="1388.53" cy="348.45" r="63.4"/><ellipse class="cls-12" cx="1219.69" cy="353.49" rx="48.75" ry="51.74" transform="translate(817.07 1557.85) rotate(-87.68)"/><ellipse class="cls-12" cx="1375.62" cy="348.72" rx="47.11" ry="50.01" transform="translate(971.46 1709.08) rotate(-87.68)"/><ellipse class="cls-11" cx="1226.1" cy="353.8" rx="42.71" ry="45.33" transform="translate(822.9 1564.56) rotate(-87.68)"/><ellipse class="cls-11" cx="1369.43" cy="348.32" rx="41.27" ry="43.81" transform="translate(965.92 1702.52) rotate(-87.68)"/><circle cx="1233.38" cy="353.61" r="38.91"/><circle cx="1363.22" cy="348.63" r="37.61"/><path d="m1174.66,276.17c.93-1.4,2.02-2.69,3.18-3.9,1.15-1.22,2.39-2.36,3.69-3.43,2.59-2.15,5.42-4.03,8.43-5.63,6.01-3.19,12.77-5.19,19.71-5.72,3.47-.25,6.96-.09,10.4.4l2.56.45c.85.17,1.68.41,2.52.62,1.68.39,3.3,1.02,4.91,1.6,6.36,2.57,12.12,6.37,16.56,11.37-6.32-2.2-12.31-4.15-18.35-5.34-3.03-.51-6.02-1.01-9.03-1.15-.75-.07-1.5-.07-2.25-.1-.75-.03-1.5-.06-2.25-.02-.75.02-1.5-.01-2.25.03l-2.25.13c-5.98.46-11.94,1.65-17.84,3.52-5.92,1.87-11.75,4.28-17.74,7.19Z"/><circle class="cls-4" cx="1249.36" cy="334.79" r="12.15"/><circle class="cls-4" cx="1401.31" cy="337.35" r="11.99"/><ellipse class="cls-4" cx="1196.65" cy="376.02" rx="4.2" ry="12.4" transform="translate(772.46 1556.44) rotate(-87.68)"/><ellipse class="cls-4" cx="1353.78" cy="374.3" rx="4.06" ry="11.99" transform="translate(924.94 1711.81) rotate(-87.68)"/><path d="m1418.48,273.85c-6.21-2.91-12.3-5.29-18.46-6.93-6.14-1.65-12.32-2.46-18.41-2.21-6.09.29-12.09,1.65-17.92,4.05-5.85,2.39-11.47,5.72-17.32,9.37,3.43-5.98,8.42-11.07,14.41-14.94,6.01-3.83,13.19-6.15,20.48-6.46,7.29-.29,14.54,1.32,20.93,4.32,3.2,1.51,6.21,3.34,8.96,5.47,2.74,2.14,5.29,4.53,7.32,7.34Z"/><circle class="cls-5" cx="800.81" cy="357.73" r="65.6"/><circle class="cls-5" cx="978" cy="353.63" r="63.4"/><ellipse class="cls-12" cx="809.16" cy="358.67" rx="48.75" ry="51.74" transform="translate(418 1152.63) rotate(-87.68)"/><ellipse class="cls-12" cx="965.09" cy="353.9" rx="47.11" ry="50.01" transform="translate(572.38 1303.86) rotate(-87.68)"/><ellipse class="cls-11" cx="815.57" cy="358.98" rx="42.71" ry="45.33" transform="translate(423.83 1159.33) rotate(-87.68)"/><ellipse class="cls-11" cx="958.91" cy="353.5" rx="41.27" ry="43.81" transform="translate(566.84 1297.29) rotate(-87.68)"/><circle cx="822.85" cy="358.79" r="38.91"/><circle cx="952.69" cy="353.81" r="37.61"/><path d="m764.13,281.35c.93-1.4,2.02-2.69,3.18-3.9,1.15-1.22,2.39-2.36,3.69-3.43,2.59-2.15,5.42-4.03,8.43-5.63,6.01-3.19,12.77-5.19,19.71-5.72,3.47-.25,6.96-.09,10.4.4l2.56.45c.85.17,1.68.41,2.52.62,1.68.39,3.3,1.02,4.91,1.6,6.36,2.57,12.12,6.37,16.56,11.37-6.32-2.2-12.31-4.15-18.35-5.34-3.03-.51-6.02-1.01-9.03-1.15-.75-.07-1.5-.07-2.25-.1-.75-.03-1.5-.06-2.25-.02-.75.02-1.5-.01-2.25.03l-2.25.13c-5.98.46-11.94,1.65-17.84,3.52-5.92,1.87-11.75,4.28-17.74,7.19Z"/><circle class="cls-4" cx="838.83" cy="339.97" r="12.15"/><circle class="cls-4" cx="990.78" cy="342.53" r="11.99"/><ellipse class="cls-4" cx="786.12" cy="381.19" rx="4.2" ry="12.4" transform="translate(373.38 1151.22) rotate(-87.68)"/><ellipse class="cls-4" cx="943.25" cy="379.48" rx="4.06" ry="11.99" transform="translate(525.87 1306.58) rotate(-87.68)"/><path d="m1007.95,279.03c-6.21-2.91-12.3-5.29-18.46-6.93-6.14-1.65-12.32-2.46-18.41-2.21-6.09.29-12.09,1.65-17.92,4.05-5.85,2.39-11.47,5.72-17.32,9.37,3.43-5.98,8.42-11.07,14.41-14.94,6.01-3.83,13.19-6.15,20.48-6.46,7.29-.29,14.54,1.32,20.93,4.32,3.2,1.51,6.21,3.34,8.96,5.47,2.74,2.14,5.29,4.53,7.32,7.34Z"/><circle class="cls-5" cx="398.54" cy="353.22" r="65.6"/><circle class="cls-5" cx="575.73" cy="349.12" r="63.4"/><ellipse class="cls-12" cx="406.89" cy="354.16" rx="48.75" ry="51.74" transform="translate(36.53 746.37) rotate(-87.68)"/><ellipse class="cls-12" cx="562.82" cy="349.39" rx="47.11" ry="50.01" transform="translate(190.91 897.59) rotate(-87.68)"/><ellipse class="cls-11" cx="413.29" cy="354.48" rx="42.71" ry="45.33" transform="translate(42.36 753.07) rotate(-87.68)"/><ellipse class="cls-11" cx="556.63" cy="349" rx="41.27" ry="43.81" transform="translate(185.37 891.03) rotate(-87.68)"/><circle cx="420.58" cy="354.29" r="38.91"/><circle cx="550.42" cy="349.3" r="37.61"/><path d="m361.86,276.85c.93-1.4,2.02-2.69,3.18-3.9,1.15-1.22,2.39-2.36,3.69-3.43,2.59-2.15,5.42-4.03,8.43-5.63,6.01-3.19,12.77-5.19,19.71-5.72,3.47-.25,6.96-.09,10.4.4l2.56.45c.85.17,1.68.41,2.52.62,1.68.39,3.3,1.02,4.91,1.6,6.36,2.57,12.12,6.37,16.56,11.37-6.32-2.2-12.31-4.15-18.35-5.34-3.03-.51-6.02-1.01-9.03-1.15-.75-.07-1.5-.07-2.25-.1-.75-.03-1.5-.06-2.25-.02-.75.02-1.5-.01-2.25.03l-2.25.13c-5.98.46-11.94,1.65-17.84,3.52-5.92,1.87-11.75,4.28-17.74,7.19Z"/><circle class="cls-4" cx="436.55" cy="335.46" r="12.15"/><circle class="cls-4" cx="588.51" cy="338.03" r="11.99"/><ellipse class="cls-4" cx="383.84" cy="376.69" rx="4.2" ry="12.4" transform="translate(-8.09 744.96) rotate(-87.68)"/><ellipse class="cls-4" cx="540.98" cy="374.98" rx="4.06" ry="11.99" transform="translate(144.39 900.32) rotate(-87.68)"/><path d="m605.67,274.53c-6.21-2.91-12.3-5.29-18.46-6.93-6.14-1.65-12.32-2.46-18.41-2.21-6.09.29-12.09,1.65-17.92,4.05-5.85,2.39-11.47,5.72-17.32,9.37,3.43-5.98,8.42-11.07,14.41-14.94,6.01-3.83,13.19-6.15,20.48-6.46,7.29-.29,14.54,1.32,20.93,4.32,3.2,1.51,6.21,3.34,8.96,5.47,2.74,2.14,5.29,4.53,7.32,7.34Z"/><path class="cls-1" d="m1284.44,411.75s20.07,11.12,45.29,0"/><path class="cls-1" d="m1280.71,412.58s5.16,1.05,4.3-4.41"/><path class="cls-1" d="m1333.71,412.94s-5.17,1.05-4.31-4.41"/><path class="cls-1" d="m1708.06,412.62s20.07,11.12,45.29,0"/><path class="cls-1" d="m1704.34,413.46s5.16,1.05,4.3-4.41"/><path class="cls-1" d="m1757.33,413.81s-5.17,1.05-4.31-4.41"/><path class="cls-1" d="m2099,415.84s20.07,11.12,45.29,0"/><path class="cls-1" d="m2095.27,416.68s5.16,1.05,4.3-4.41"/><path class="cls-1" d="m2148.27,417.03s-5.17,1.05-4.31-4.41"/><path class="cls-1" d="m871.16,415.17s20.07,11.12,45.29,0"/><path class="cls-1" d="m867.44,416.01s5.16,1.05,4.3-4.41"/><path class="cls-1" d="m920.43,416.36s-5.17,1.05-4.31-4.41"/><path class="cls-1" d="m471.59,415.02s20.07,11.12,45.29,0"/><path class="cls-1" d="m467.87,415.86s5.16,1.05,4.3-4.41"/><path class="cls-1" d="m520.86,416.21s-5.17,1.05-4.31-4.41"/></svg>