<?xml version="1.0" encoding="UTF-8"?><svg id="Layer_2" xmlns="http://www.w3.org/2000/svg" viewBox="0 0 466.29 292.52"><defs><style>.cls-1{stroke:#000;stroke-miterlimit:10;stroke-width:.5px;}</style></defs><g id="Layer_1-2"><path class="cls-1" d="m21.05,188.52c-1.01,2.37-1.97,4.63-2.88,6.79-.91,2.17-1.88,4.31-2.9,6.45-.75,1.76-1.77,3.39-3.06,4.91-1.74,1.99-3.99,2.65-6.76,1.98-2.91-.71-4.57-2.54-4.99-5.49-.32-2-.28-4.04.12-6.13.54-3.34,1.3-6.65,2.28-9.94,1.22-4.58,2.5-9.13,3.85-13.64s2.63-9.05,3.85-13.64c.42-1.4.91-2.73,1.48-4.01.57-1.27,1.42-2.39,2.54-3.35,1.17-1.1,2.43-1.82,3.79-2.18,1.36-.35,2.66-.37,3.89-.04,1.23.33,2.33,1,3.28,2.01.95,1.01,1.65,2.3,2.1,3.88.34,1.17.48,2.33.44,3.5-.04,1.17-.21,2.36-.49,3.56-.38,1.79-.76,3.58-1.15,5.37-.38,1.79-.78,3.65-1.21,5.58.54.24,1.06.45,1.58.64.51.19,1.02.36,1.5.51,7.91,2.06,15.8,3.96,23.65,5.69,7.86,1.74,15.84,2.94,23.93,3.61,1.92.19,3.76.55,5.5,1.07,1.75.52,3.39,1.4,4.93,2.62,1.61,1.24,2.74,2.61,3.4,4.1.66,1.49.88,2.97.68,4.43-.21,1.46-.83,2.84-1.86,4.13-1.03,1.29-2.46,2.31-4.28,3.06-2.02.92-4.08,1.35-6.16,1.3-2.08-.05-4.16-.27-6.25-.67-7.97-1.62-15.78-3.64-23.42-6.08-7.65-2.44-15.24-5.2-22.77-8.28-.73-.37-1.47-.67-2.24-.9-.77-.23-1.56-.5-2.38-.83Z"/><path class="cls-1" d="m38.66,131.59c1.06-2.08,2.67-3.45,4.81-4.11,2.14-.66,4.24-.43,6.28.7,2.01,1.03,3.36,2.64,4.04,4.83.68,2.19.5,4.3-.53,6.31-1.1,1.98-2.76,3.3-4.98,3.97-2.22.66-4.31.5-6.26-.5-2.04-1.13-3.39-2.78-4.04-4.96-.65-2.18-.42-4.25.67-6.23Zm23.8,18.58c-2.76-1.49-4.46-3.22-5.09-5.19-.63-1.96-.54-3.74.27-5.33.81-1.59,2.21-2.8,4.19-3.63,1.98-.83,4.18-.87,6.58-.13,2.44.68,5.37,1.6,8.78,2.78,3.41,1.18,6.82,2.53,10.21,4.06,3.39,1.53,6.54,3.25,9.42,5.13,2.89,1.89,5.04,3.85,6.45,5.89.83,1.41,1.32,2.79,1.45,4.12.13,1.34-.08,2.56-.65,3.66-.57,1.1-1.42,2.02-2.57,2.74-1.15.72-2.54,1.16-4.17,1.31-1.96.15-3.83-.01-5.6-.47-1.77-.46-3.5-1.12-5.19-1.98-4.22-2.32-8.28-4.51-12.2-6.55-3.91-2.04-7.88-4.18-11.91-6.4Z"/><path class="cls-1" d="m76.88,98.33c-.02-1.08-.03-2.09-.03-3.02,0-.93-.01-1.83-.01-2.71.16-3.16.86-6.13,2.08-8.89,1.22-2.76,2.87-5.15,4.94-7.17,2.07-2.02,4.49-3.63,7.26-4.83,2.77-1.21,5.73-1.83,8.88-1.87,3.15-.04,6.11.43,8.89,1.42,2.78.99,5.48,2.31,8.12,3.95,3.87,2.34,7.43,5,10.69,7.98,3.26,2.98,6.44,6.07,9.54,9.29.55.59,1.12,1.16,1.7,1.72.58.56,1.12,1.16,1.62,1.8,2.16,2.3,3.34,5.14,3.56,8.54.1,3.2-.86,5.74-2.86,7.62-2,1.88-4.59,2.69-7.76,2.42-3.33-.41-6.13-1.76-8.39-4.05-2.53-2.43-5-4.8-7.42-7.13-2.42-2.33-4.9-4.71-7.42-7.13-1.05-1.02-2.14-2.01-3.29-2.97-1.15-.96-2.31-1.87-3.5-2.73-1.03-.71-2.08-1.28-3.17-1.7-1.09-.42-2.25-.26-3.5.49-1.2.69-2.01,1.7-2.45,3.02-.44,1.32-.62,2.77-.54,4.34.07,1.57.37,3.22.89,4.95.52,1.73,1.14,3.37,1.86,4.92.72,1.56,1.53,2.95,2.43,4.19.9,1.24,1.74,2.14,2.5,2.71,1.47,1.2,2.67,2.16,3.59,2.88.92.72,1.79,1.36,2.6,1.93.81.57,1.69,1.2,2.64,1.89.95.69,2.18,1.61,3.7,2.75,1.79,1.39,3.21,2.93,4.24,4.62,1.04,1.69,1.47,3.73,1.31,6.12-.17,2.28-.87,4.15-2.09,5.6-1.23,1.45-2.73,2.46-4.5,3.03-1.77.58-3.66.76-5.66.55-2-.21-3.89-.85-5.66-1.93-3.16-1.82-6.12-3.89-8.88-6.23-2.76-2.33-5.43-4.82-8.02-7.45-2.59-2.63-5.13-5.33-7.6-8.09-2.47-2.77-5.03-5.46-7.68-8.09-.39-.44-.75-.88-1.09-1.33-.34-.44-.65-.94-.95-1.49-.58-1.1-.86-2.25-.83-3.44.03-1.19.32-2.27.88-3.23.56-.97,1.34-1.76,2.33-2.39.99-.63,2.14-.96,3.43-.99.56-.09,1.13-.1,1.7-.03.57.07,1.22.13,1.95.19Z"/><path class="cls-1" d="m163.69,52.84c.4-2,.75-3.91,1.08-5.73.32-1.81.66-3.59,1.01-5.34.47-2.2,1.09-4.28,1.86-6.25.77-1.97,1.79-3.87,3.06-5.7.6-.82,1.26-1.58,1.98-2.3.72-.71,1.52-1.34,2.4-1.89,1.28-.72,2.56-1.1,3.86-1.15,1.29-.05,2.46.22,3.51.79,1.05.58,1.91,1.41,2.59,2.51.68,1.1,1.1,2.37,1.25,3.81.07,1.25.03,2.49-.09,3.74-.13,1.25-.24,2.5-.34,3.73-.03.65-.08,1.29-.12,1.9-.05.62-.14,1.24-.27,1.85-2.14,9.85-3.71,19.7-4.7,29.53-1,9.83-1.77,19.77-2.31,29.8-.13,1.17-.24,2.32-.35,3.44s-.27,2.25-.49,3.38c-.92,3.91-3.07,5.92-6.44,6.04-3.34.19-5.63-1.48-6.85-5.01-.48-1.46-.92-2.92-1.32-4.38-.4-1.46-.62-2.97-.67-4.54-.22-3.96-.37-7.9-.45-11.81-.08-3.91-.18-7.82-.3-11.75-.03-.62-.05-1.25-.05-1.89,0-.64.05-1.29.15-1.98-4.42-1.17-8.57-2.84-12.46-5-3.89-2.16-7.76-4.35-11.6-6.57-1.17-.68-2.32-1.39-3.44-2.14-1.12-.74-2.25-1.5-3.39-2.28-.57-.39-1.11-.81-1.63-1.26-.52-.45-.97-.95-1.37-1.49-.96-1.09-1.53-2.27-1.73-3.54-.2-1.27-.1-2.45.3-3.54.4-1.09,1.1-2.03,2.11-2.83,1-.8,2.23-1.27,3.68-1.43,1.15-.1,2.33-.14,3.53-.11,1.21.03,2.37.24,3.5.62,3.79,1.21,7.56,2.49,11.29,3.84,3.74,1.35,7.5,2.71,11.28,4.08.26.05.52.15.79.31.27.16.64.34,1.12.52Z"/><path class="cls-1" d="m292.93,71c-4.72-.95-9.45-1.89-14.18-2.81-4.73-.92-9.57-1.85-14.52-2.78-.68.67-1.42,1.41-2.21,2.24-.79.83-1.62,1.63-2.47,2.4-.75.65-1.5,1.28-2.24,1.89-.74.61-1.55,1.16-2.4,1.63-2.46,1.22-4.7,1.03-6.72-.56-2.08-1.68-2.74-3.83-1.98-6.42.33-1.42.88-2.79,1.64-4.11.73-1.18,1.46-2.34,2.22-3.47.75-1.13,1.55-2.24,2.41-3.31,5.73-7.2,11.18-14.56,16.35-22.08,5.17-7.52,10.26-15.11,15.28-22.78.95-1.5,2.01-2.9,3.17-4.2,1.17-1.3,2.41-2.54,3.74-3.73,1.34-1.26,2.86-2.06,4.56-2.42,1.69-.35,3.34-.28,4.95.2,1.61.49,3.03,1.38,4.26,2.68,1.23,1.3,2.07,2.94,2.5,4.91.15.64.28,1.3.38,2,.1.7.18,1.39.24,2.08.47,9.18,1.19,18.28,2.15,27.31.96,9.03,2.09,18.12,3.4,27.26.28,2.01.4,4.05.37,6.1-.03,2.05-.32,4.1-.88,6.15-.4,1.7-1.03,3.26-1.88,4.67-.86,1.41-2.3,2.29-4.33,2.64-2.03.35-3.79.03-5.28-.96-1.49-.99-2.68-2.33-3.55-4.03-.89-1.63-1.74-3.31-2.53-5.03-.8-1.72-1.61-3.54-2.43-5.46Zm-19.19-15.96c3.03.49,5.92.96,8.66,1.41,2.74.46,5.55.94,8.42,1.47-.43-3.92-.87-7.73-1.31-11.43-.45-3.7-.87-7.55-1.29-11.54-2.55,3.52-4.99,6.91-7.32,10.14-2.33,3.24-4.72,6.56-7.16,9.96Z"/><path class="cls-1" d="m359.28,56.92c1.08-.03,2.09-.06,3.02-.08.93-.02,1.83-.04,2.71-.05,3.16.12,6.14.77,8.92,1.95,2.78,1.18,5.19,2.79,7.24,4.84,2.04,2.04,3.69,4.44,4.94,7.19,1.25,2.75,1.91,5.7,2,8.85.09,3.15-.34,6.12-1.29,8.91-.95,2.79-2.23,5.51-3.83,8.17-2.29,3.9-4.9,7.5-7.82,10.81-2.93,3.3-5.98,6.53-9.15,9.67-.58.56-1.14,1.14-1.69,1.72-.55.59-1.14,1.14-1.77,1.65-2.26,2.19-5.09,3.42-8.49,3.68-3.2.14-5.75-.77-7.66-2.75-1.91-1.98-2.76-4.55-2.54-7.72.36-3.34,1.67-6.16,3.93-8.45,2.39-2.56,4.73-5.07,7.03-7.53,2.29-2.45,4.64-4.96,7.03-7.53,1-1.06,1.98-2.17,2.93-3.33.94-1.16,1.84-2.34,2.68-3.54.69-1.04,1.25-2.1,1.66-3.19.41-1.09.23-2.26-.54-3.49-.71-1.19-1.73-1.99-3.06-2.4-1.33-.42-2.77-.58-4.34-.48-1.57.09-3.22.41-4.93.96-1.72.55-3.35,1.19-4.9,1.93-1.55.74-2.93,1.57-4.15,2.49-1.22.92-2.12,1.77-2.68,2.53-1.18,1.49-2.12,2.7-2.82,3.63-.71.93-1.34,1.81-1.89,2.63-.56.82-1.18,1.71-1.85,2.67-.68.96-1.58,2.2-2.7,3.74-1.36,1.81-2.88,3.25-4.56,4.31-1.68,1.06-3.71,1.53-6.1,1.4-2.29-.14-4.16-.81-5.63-2.01-1.46-1.21-2.5-2.69-3.1-4.46-.6-1.76-.81-3.65-.63-5.66.18-2.01.8-3.9,1.85-5.69,1.77-3.19,3.81-6.18,6.1-8.97,2.29-2.79,4.74-5.5,7.33-8.13,2.59-2.63,5.25-5.2,7.98-7.72,2.73-2.51,5.39-5.11,7.98-7.79.43-.4.87-.77,1.31-1.11.44-.34.93-.67,1.48-.97,1.09-.6,2.23-.9,3.42-.88,1.19.01,2.27.29,3.25.84.97.55,1.78,1.31,2.43,2.3.64.98.99,2.12,1.04,3.41.09.56.11,1.13.05,1.7-.06.57-.11,1.23-.16,1.95Z"/><path class="cls-1" d="m399,130.05c-.48-1.07-.95-2.06-1.39-2.98-.45-.92-.84-1.87-1.19-2.84-.52-1.29-1.07-2.57-1.65-3.83-.58-1.26-1.08-2.52-1.5-3.78-.6-1.91-.67-3.61-.21-5.09.46-1.48,1.33-2.48,2.63-3,1.16-.45,2.42-.45,3.77-.01,1.35.44,2.59,1.43,3.74,2.98,1.48,2.02,2.9,4.08,4.25,6.17,1.35,2.09,2.8,4.21,4.35,6.37,1.49-.62,3.01-1.24,4.58-1.86,1.57-.62,3.15-1.23,4.73-1.82.91-.31,1.83-.64,2.77-.97.94-.33,1.88-.62,2.82-.87,1.98-.47,3.81-.32,5.49.44,1.68.76,3,2.05,3.95,3.85.92,1.74,1.23,3.54.93,5.39-.3,1.85-1.22,3.43-2.76,4.74-1.86,1.48-3.8,2.92-5.83,4.31-2.03,1.4-4.08,2.86-6.17,4.37.44.68.87,1.38,1.29,2.1.42.72.87,1.46,1.35,2.2.78,1.32,1.56,2.64,2.34,3.96.78,1.32,1.53,2.66,2.24,4.01.85,1.61,1.3,3.32,1.34,5.11.21,2.28-.41,3.95-1.87,5.01-1.46,1.06-3.2,1.17-5.21.34-.86-.37-1.69-.86-2.5-1.46-.81-.6-1.54-1.27-2.17-2.01-1.74-1.89-3.41-3.83-5-5.84-1.6-2-3.3-4.1-5.11-6.27-.52.27-1.02.58-1.5.91-.48.34-1.02.58-1.6.72-3.23,1.7-6.42,3.43-9.58,5.18-3.16,1.75-6.44,3.32-9.83,4.7-1.42.59-3.01,1.09-4.76,1.53s-3.5.67-5.25.73c-1.75.06-3.4-.19-4.96-.72-1.56-.54-2.83-1.5-3.81-2.88-1.32-2.03-1.83-3.97-1.52-5.82.3-1.85,1.09-3.57,2.36-5.14,1.27-1.58,2.8-2.98,4.58-4.21,1.78-1.23,3.43-2.29,4.95-3.17,2.77-1.63,5.61-3.13,8.52-4.5,2.91-1.37,5.85-2.76,8.82-4.16l3.58-1.89Z"/><path class="cls-1" d="m465.88,204.78c-.46,3-2.14,4.83-5.07,5.49-1.34.37-2.56.33-3.67-.12-1.11-.45-2.11-1.19-3-2.23-.57-.68-1.04-1.34-1.4-2-.37-.65-.83-1.29-1.38-1.89-1.63-2.05-3.33-3.62-5.11-4.72-1.78-1.1-3.49-1.61-5.14-1.53-1.65.08-3.21.79-4.69,2.15-1.48,1.36-2.79,3.4-3.92,6.14-1.2,3.06-2.81,6.12-4.84,9.18-2.03,3.06-4.42,5.56-7.18,7.5-2.76,1.94-5.8,3.04-9.13,3.32-3.33.28-6.88-.8-10.66-3.23-5.72-3.71-9.33-8.28-10.83-13.69-.68-2.46-.88-4.96-.6-7.5.28-2.54.95-4.92,2-7.14,1.05-2.22,2.47-4.19,4.27-5.9,1.8-1.71,3.92-2.94,6.36-3.69,1.12-.31,2.29-.35,3.49-.12,1.2.24,2.27.74,3.2,1.5.93.76,1.62,1.75,2.07,2.95.45,1.2.48,2.61.09,4.23-.57,2.58-1.03,5.02-1.38,7.31-.11,1.24.09,2.38.6,3.41.51,1.03,1.18,1.81,2.01,2.34.83.53,1.74.69,2.75.49,1-.2,1.92-.87,2.74-2.01.77-1.05,1.43-2.16,1.97-3.33.54-1.17,1.07-2.36,1.57-3.56.49-.97.89-1.97,1.21-3,.32-1.04.72-2.04,1.21-3,3.2-7.02,8.61-10.75,16.21-11.19,3.29-.16,6.6.39,9.93,1.62,3.33,1.23,6.29,2.95,8.87,5.15,2.58,2.2,4.58,4.77,6,7.71,1.42,2.94,1.91,6.06,1.46,9.36Z"/><path d="m241.1,292.02c-3.07,0-6.24-.6-9.44-1.79-2.93-1.1-5.87-2.68-8.73-4.69-1.21-.85-2.38-1.77-3.48-2.72-1.8-1.56-3.85-2.74-6.09-3.49-5.15-1.74-15.28-5.56-26.3-11.84,17.79-4.34,30.57-20.38,30.57-38.6,0-21.92-18.06-39.76-40.25-39.76-14.9,0-28.75,8.32-35.65,21.31-1.78-7.42-2.76-14.73-2.91-21.77-.07-3.41.05-6.86.38-10.24,1.68-8.94,7.11-17.7,15.69-25.29,18.72-16.56,50.32-26.44,84.52-26.44,11.04,0,21.92,1.03,32.32,3.05,39.97,7.8,67.48,29.38,68.47,53.68-.22,3.9-.77,7.94-1.64,11.94-2.09,9.55-5.95,18.89-11.47,27.8-1.83-19.53-18.44-34.61-38.49-34.61-21.32,0-38.66,17.13-38.66,38.19s15.7,36.75,36,38.09c-1.15.84-2.29,1.65-3.41,2.43-3.8,2.67-7.35,5.04-10.49,7.14-3.67,2.45-6.83,4.57-9.09,6.29-1.2.91-2.05,1.64-2.68,2.3-5.81,5.98-12.27,9.02-19.18,9.02Z"/><path d="m239.42,127.19c11.01,0,21.85,1.02,32.23,3.04,39.71,7.75,67.05,29.11,68.06,53.16-.22,3.9-.77,7.9-1.63,11.86-1.98,9.05-5.56,17.92-10.65,26.41-2.52-19.07-19.02-33.6-38.82-33.6-21.59,0-39.16,17.36-39.16,38.69,0,10.12,3.93,19.69,11.07,26.95,6.46,6.57,14.92,10.61,24.05,11.53-.78.56-1.55,1.11-2.31,1.64-3.79,2.66-7.34,5.04-10.47,7.13-3.68,2.46-6.85,4.58-9.12,6.31-1.22.93-2.09,1.68-2.74,2.35-5.72,5.88-12.05,8.87-18.82,8.87-3.01,0-6.13-.59-9.26-1.76-2.89-1.09-5.79-2.65-8.61-4.63-1.19-.84-2.35-1.75-3.44-2.69-1.85-1.61-3.96-2.81-6.25-3.58-4.97-1.68-14.58-5.3-25.14-11.2,17.38-4.81,29.75-20.73,29.75-38.78,0-22.2-18.28-40.26-40.75-40.26-14.65,0-28.28,7.94-35.45,20.43-1.58-6.95-2.46-13.8-2.61-20.4-.07-3.38.05-6.79.37-10.14,1.67-8.85,7.04-17.5,15.53-25.01,18.63-16.48,50.1-26.32,84.19-26.32m0-1c-35.51,0-66.76,10.57-84.85,26.57-8.5,7.52-14.1,16.24-15.86,25.62-.3,3.13-.46,6.57-.38,10.3.15,6.78,1.07,14.53,3.25,23.18,6.41-13.15,20.04-22.23,35.81-22.23,21.96,0,39.75,17.58,39.75,39.26,0,18.86-13.47,34.62-31.43,38.4,11.53,6.71,22.21,10.73,27.5,12.52,2.18.73,4.19,1.89,5.92,3.39.94.81,2.12,1.76,3.52,2.75,2.39,1.68,5.41,3.46,8.84,4.75,2.94,1.09,6.18,1.82,9.61,1.82,6.16,0,12.91-2.35,19.54-9.17.65-.67,1.53-1.41,2.63-2.25,4.14-3.16,11.26-7.59,19.56-13.42,1.49-1.04,3.01-2.13,4.56-3.27-20.5-.63-36.94-17.25-36.94-37.66s17.09-37.69,38.16-37.69,37.04,15.78,38.1,35.66c5.58-8.7,9.98-18.42,12.35-29.25.85-3.93,1.42-7.95,1.65-12.07-1.02-25.2-29.54-46.47-68.87-54.15-10.18-1.98-21.08-3.06-32.42-3.06h0Z"/></g></svg>