<?xml version="1.0" standalone="no"?>
<!DOCTYPE svg PUBLIC "-//W3C//DTD SVG 20010904//EN"
 "http://www.w3.org/TR/2001/REC-SVG-20010904/DTD/svg10.dtd">
<svg version="1.0" xmlns="http://www.w3.org/2000/svg"
 width="886.000000pt" height="886.000000pt" viewBox="0 0 886.000000 886.000000"
 preserveAspectRatio="xMidYMid meet">
<metadata>
Created by potrace 1.14, written by Peter Selinger 2001-2017
</metadata>
<g transform="translate(0.000000,886.000000) scale(0.100000,-0.100000)"
fill="#000000" stroke="none">
<path d="M4169 8016 c-2 -2 -66 -7 -141 -10 -76 -4 -148 -9 -160 -11 -13 -2
-57 -7 -98 -10 -91 -7 -143 -13 -184 -19 -17 -2 -58 -8 -91 -12 -33 -4 -69 -8
-80 -10 -11 -1 -20 -3 -20 -4 0 -1 -16 -3 -35 -5 -33 -3 -58 -7 -120 -20 -34
-6 -78 -14 -120 -21 -19 -3 -43 -7 -52 -10 -10 -3 -30 -7 -45 -10 -16 -2 -39
-7 -53 -10 -14 -3 -32 -7 -40 -9 -32 -7 -237 -57 -270 -66 -19 -5 -46 -12 -60
-15 -14 -2 -32 -7 -40 -11 -8 -3 -24 -8 -35 -10 -11 -2 -37 -10 -57 -18 -21
-8 -38 -13 -38 -10 0 3 -13 -1 -30 -10 -16 -9 -30 -13 -30 -11 0 3 -12 1 -27
-5 -16 -6 -84 -31 -153 -55 -69 -24 -134 -48 -145 -53 -65 -29 -94 -41 -99
-41 -4 0 -44 -16 -89 -37 -500 -223 -871 -466 -1171 -769 -70 -70 -148 -158
-173 -194 -9 -14 -24 -32 -32 -40 -9 -8 -20 -23 -26 -32 -5 -9 -32 -50 -60
-90 -49 -72 -179 -318 -168 -318 3 0 1 -6 -4 -12 -21 -27 -77 -224 -88 -308
-16 -125 -20 -630 -5 -630 3 0 5 -19 6 -43 1 -36 7 -110 19 -217 4 -34 14 -94
26 -160 6 -30 12 -66 14 -80 5 -44 16 -93 21 -102 9 -14 7 -90 -2 -97 -34 -24
-127 -268 -171 -446 -6 -25 -22 -108 -29 -155 -12 -73 -11 -387 1 -465 20
-131 23 -146 50 -240 35 -121 30 -106 51 -160 4 -11 8 -22 9 -25 10 -31 74
-162 104 -214 39 -67 128 -199 168 -246 102 -122 340 -340 371 -340 6 0 12 -4
14 -8 6 -15 152 -100 249 -146 89 -43 282 -112 339 -122 14 -3 32 -7 40 -9 28
-8 95 -19 123 -19 15 -1 27 -3 27 -6 0 -14 367 -18 465 -6 46 6 131 21 180 32
11 2 30 6 43 8 12 3 27 8 32 11 6 3 10 3 10 -2 0 -4 10 -13 23 -19 36 -18 350
-175 377 -189 51 -26 382 -165 394 -165 7 0 16 -3 20 -7 5 -6 59 -28 91 -37 6
-2 24 -9 40 -15 17 -7 55 -21 85 -31 129 -41 245 -114 418 -261 12 -10 24 -19
27 -19 3 0 27 -16 54 -35 26 -19 53 -35 59 -35 6 0 12 -4 14 -8 3 -9 193 -102
243 -120 44 -15 65 -21 70 -22 3 0 21 -6 40 -14 19 -8 35 -13 35 -11 0 2 15
-1 33 -6 80 -23 319 -33 407 -17 19 4 50 10 68 13 123 23 322 122 453 226 48
37 46 36 145 130 38 36 105 93 149 126 105 78 304 213 315 213 5 0 10 4 12 9
2 5 55 43 118 85 63 42 158 105 210 141 104 70 99 67 185 128 l60 42 155 1
c164 0 287 10 326 25 13 4 30 6 38 3 8 -3 17 -1 21 5 3 6 18 11 33 11 66 0
423 141 476 188 10 10 20 16 22 15 4 -3 115 66 124 76 3 3 32 26 64 50 75 56
228 208 287 286 100 130 169 248 240 410 25 59 77 221 86 270 4 26 11 63 17
95 20 107 29 349 16 435 -7 44 -5 56 20 100 16 28 41 75 57 105 15 30 31 57
36 58 4 2 7 12 7 23 0 10 5 19 10 19 6 0 10 5 10 10 0 6 20 52 44 103 38 80
55 118 61 137 1 3 6 16 12 30 6 14 18 42 26 63 9 20 14 37 11 37 -2 0 2 13 10
28 13 25 69 188 66 194 0 2 8 28 18 58 11 30 20 58 21 63 0 4 1 8 2 10 18 61
66 288 74 354 3 26 8 59 10 73 16 92 18 129 19 245 0 243 -76 501 -221 754
-31 53 -102 161 -117 177 -6 6 -18 22 -26 34 -8 12 -19 28 -25 34 -5 6 -31 36
-56 66 -121 144 -343 347 -494 451 -27 19 -51 37 -53 42 -2 4 -10 7 -17 7 -7
0 -15 3 -17 8 -6 13 -222 152 -237 152 -5 0 -11 3 -13 8 -7 17 -356 190 -528
262 -113 48 -370 143 -415 154 -5 2 -17 6 -25 9 -35 13 -195 60 -245 72 -5 1
-17 4 -25 8 -18 6 -97 26 -125 31 -11 2 -47 11 -80 19 -70 19 -294 66 -345 73
-19 2 -46 7 -60 10 -14 3 -43 8 -65 10 -22 3 -51 7 -65 10 -29 6 -54 10 -130
19 -30 4 -61 8 -70 10 -30 6 -160 18 -305 30 -49 4 -106 9 -125 12 -41 5 -796
14 -801 9z m2628 -2811 c67 -7 168 -27 233 -46 25 -7 48 -13 53 -15 4 -1 9 -3
12 -4 3 -1 8 -3 13 -5 33 -9 175 -68 207 -85 116 -64 174 -98 185 -110 3 -3
23 -17 45 -33 42 -28 82 -62 150 -126 193 -183 349 -444 421 -706 2 -5 6 -23
9 -40 3 -16 8 -37 11 -46 2 -9 7 -34 10 -55 3 -22 8 -57 11 -79 8 -56 8 -300
0 -360 -13 -93 -18 -120 -23 -135 -3 -8 -8 -28 -11 -43 -2 -15 -13 -54 -24
-85 -11 -31 -21 -61 -23 -67 -17 -62 -31 -95 -38 -95 -4 0 -8 -6 -8 -13 0 -32
-147 -281 -177 -300 -7 -4 -13 -12 -13 -17 0 -26 -158 -181 -308 -301 -52 -42
-213 -131 -334 -183 -37 -17 -156 -55 -190 -61 -10 -2 -22 -6 -26 -9 -4 -2
-28 -7 -52 -11 -25 -3 -52 -8 -60 -10 -90 -24 -341 -26 -486 -4 -112 17 -301
64 -319 80 -5 5 -15 9 -22 9 -16 0 -179 78 -245 117 -149 89 -333 253 -429
383 -62 84 -119 170 -113 170 4 0 0 8 -8 18 -41 47 -149 326 -162 420 -3 24
-8 46 -10 50 -25 41 -26 458 -1 542 2 8 7 26 9 40 39 190 119 379 229 540 17
25 35 47 39 48 4 2 8 9 8 15 1 16 123 151 201 222 68 61 185 148 244 181 77
43 139 74 200 98 39 16 79 32 90 37 64 27 253 68 355 76 41 3 76 7 78 8 5 4
212 -3 269 -10z m-4762 -29 c73 -8 259 -54 310 -76 11 -4 52 -20 90 -35 73
-28 229 -108 245 -126 3 -3 23 -16 45 -29 101 -60 277 -224 371 -345 144 -187
259 -433 300 -638 2 -10 5 -26 8 -35 3 -9 7 -37 10 -62 3 -25 8 -65 12 -90 15
-118 2 -348 -28 -480 -5 -25 -11 -54 -14 -65 -2 -11 -15 -54 -29 -95 -14 -41
-27 -82 -29 -91 -3 -9 -9 -25 -15 -35 -6 -11 -28 -55 -49 -99 -35 -72 -125
-222 -141 -235 -3 -3 -32 -36 -63 -75 -31 -38 -80 -92 -109 -120 -73 -70 -231
-195 -246 -195 -7 0 -13 -4 -13 -9 0 -11 -267 -144 -335 -166 -46 -15 -138
-42 -175 -50 -64 -14 -107 -23 -120 -24 -8 0 -37 -4 -65 -8 -64 -9 -301 -9
-383 0 -219 24 -466 111 -677 237 -22 14 -41 28 -43 32 -2 4 -10 8 -17 8 -7 0
-15 4 -17 8 -2 4 -21 21 -43 37 -22 17 -46 35 -53 40 -37 29 -183 177 -218
220 -21 27 -46 58 -55 68 -9 9 -22 30 -30 45 -8 15 -21 35 -29 44 -8 9 -26 39
-40 65 -13 26 -27 50 -30 53 -7 6 -49 101 -80 180 -21 51 -61 196 -75 265 -20
104 -27 380 -13 495 32 252 145 528 300 739 82 111 231 261 332 335 82 60 172
116 186 116 6 0 10 3 10 8 0 4 15 14 33 21 17 8 59 27 92 42 61 27 100 42 100
38 0 -1 10 3 21 9 24 13 201 61 249 68 17 2 50 7 75 10 24 3 47 7 49 10 5 4
343 -4 396 -10z"/>
</g>
</svg>
