<?xml version="1.0" encoding="UTF-8"?><svg id="Layer_1" xmlns="http://www.w3.org/2000/svg" viewBox="0 0 1500 1500"><defs><style>.cls-1{stroke-width:5px;}.cls-1,.cls-2,.cls-3,.cls-4,.cls-5,.cls-6,.cls-7,.cls-8,.cls-9,.cls-10,.cls-11,.cls-12,.cls-13,.cls-14,.cls-15,.cls-16,.cls-17,.cls-18,.cls-19,.cls-20,.cls-21,.cls-22,.cls-23,.cls-24,.cls-25,.cls-26,.cls-27,.cls-28,.cls-29,.cls-30,.cls-31{stroke-miterlimit:10;}.cls-1,.cls-3,.cls-4,.cls-9,.cls-12{fill:#fff;}.cls-1,.cls-3,.cls-6,.cls-7,.cls-8,.cls-9,.cls-10,.cls-11,.cls-13,.cls-14,.cls-15,.cls-16,.cls-17,.cls-18,.cls-19,.cls-20,.cls-21,.cls-23,.cls-24,.cls-26,.cls-27,.cls-28,.cls-29,.cls-30,.cls-32,.cls-31{stroke:#000;}.cls-2,.cls-12{stroke:#fff;}.cls-33{fill:#045ba3;}.cls-34{fill:#0075e7;}.cls-35,.cls-28{fill:#cfb8d1;}.cls-36{fill:#e2ab5a;}.cls-37,.cls-22{fill:#9b869d;}.cls-3,.cls-4,.cls-5,.cls-8,.cls-24,.cls-25,.cls-26{stroke-linecap:round;}.cls-3,.cls-24,.cls-26{stroke-width:2px;}.cls-4,.cls-25{stroke:#193319;stroke-width:4px;}.cls-5{fill:#ffe7ff;stroke:#ffe7ff;}.cls-6{fill:#1e3728;}.cls-6,.cls-7,.cls-8,.cls-9,.cls-10,.cls-27{stroke-width:8px;}.cls-7{fill:#79dba1;}.cls-8,.cls-24,.cls-25,.cls-27,.cls-30,.cls-31{fill:none;}.cls-10{fill:#e2e25a;}.cls-11{fill:#7fb274;}.cls-13{fill:#caffbf;}.cls-14{fill:#abffe9;}.cls-15{fill:#334030;}.cls-16{fill:#98c290;}.cls-17{fill:#658060;}.cls-18{fill:#a0c4ff;}.cls-19,.cls-32{fill:#164832;}.cls-20{fill:#1e6042;}.cls-21{fill:#5f8657;}.cls-22{stroke:#9b869d;}.cls-23{fill:#4c6048;}.cls-28,.cls-29{stroke-width:6px;}.cls-29{fill:#e38bff;}.cls-30{stroke-width:7px;}.cls-32{stroke-linejoin:round;}.cls-31{stroke-width:9px;}</style></defs><rect class="cls-18" width="1500" height="1500"/><path class="cls-35" d="m779.33,860.91h151.61c49.49,0,89.66,40.18,89.66,89.66v203.86h-172.55c-54.84,0-99.36-44.52-99.36-99.36v-163.53c0-16.91,13.73-30.64,30.64-30.64Z" transform="translate(1892.32 123.02) rotate(90)"/><path class="cls-37" d="m815.51,923.51c22.61,2.87,44.41,10.34,64.88,20.34,43.01,21.09,80.37,58.62,87.9,107.5,3.33,21.26.97,43.55-6.23,63.68,1.14-15.48,1.29-30.49-.93-45.62-10.39-75.7-80.39-119-145.62-145.9h0Z"/><path class="cls-37" d="m834.04,893.27c78.45,11.24,164.15,70.41,163.56,156.88.02,9.95-1.24,19.95-3.53,29.6-.49-14.09-1.78-27.73-5.07-41.2-17.29-74.51-88.8-117.68-154.96-145.28h0Z"/><path class="cls-22" d="m885.42,878.99s109.5,23.52,129.71,139.44c0,0,11.75-105.78,0-112.56-32.01-18.48,30.77-26.04-129.71-26.88Z"/><path class="cls-22" d="m844.15,926.87c-5.05-16.8,13.48-20.16,18.53-18.48,5.05,1.68,8.42-8.4,8.42-8.4,0,0,1.16-10.62,17.69-14.28,15.16-3.36,21.9,1.68,21.9,1.68,0,0-50.86-21-65.7-3.36-14.83,17.64-33.44,25.17-33.44,25.17l22.49,25.87,10.11-8.2Z"/><path class="cls-27" d="m780.15,861.45h151.61c49.49,0,89.66,40.18,89.66,89.66v203.86h-172.55c-54.84,0-99.36-44.52-99.36-99.36v-163.53c0-16.91,13.73-30.64,30.64-30.64Z" transform="translate(1893.68 122.73) rotate(90)"/><path class="cls-35" d="m525.77,955.43s-285.57,252.69-89.81,337.83c0,0,466.59,39.63,519.58-8.81,52.99-48.44,36.8-204.04-126.58-353.77-163.38-149.73-303.19,24.75-303.19,24.75Z"/><path class="cls-37" d="m374.16,1163.76s20.21-21.84,32.01,1.68c8.72,17.39,16.51,56.81,19.99,76.19.68,3.77-3.62,6.43-6.7,4.14-9.85-7.32-26.6-17.58-41.93-16.49-23.58,1.68-3.37-65.52-3.37-65.52Z"/><path class="cls-37" d="m434.8,1276.32s351.92,15.65,364.63,14.55c12.71-1.11-5.03,20.7-27.32,19.04-22.3-1.67-331.62-14.82-336.15-16.64-4.53-1.82-1.16-16.94-1.16-16.94Z"/><path class="cls-37" d="m738.02,926.87s161.72,127.68,181.93,349.44c0,0,47.81,37.8,62.65-48.3,0,0,23.36-145.79-171.25-314.19-194.62-168.4,0,0,0,0l-73.33,13.04Z"/><path class="cls-37" d="m570.41,924.35s30.32,1.68,42.11,28.56c11.79,26.88,107.81,52.08,153.3,26.88,45.48-25.2,64.01-11.76,64.01-11.76l-42.11-43.68-217.31-12.98v12.98Z"/><path class="cls-27" d="m526.96,956.22s-285.57,252.69-89.81,337.83c0,0,466.59,39.63,519.58-8.81,52.99-48.44,36.8-204.04-126.58-353.77-163.38-149.73-303.19,24.75-303.19,24.75Z"/><path class="cls-35" d="m450.74,1294.82c-4.45-8.22-123.22-1.45-171.77,11.55-48.56,13-47.83-24.55-47.83-24.55l-11.6-68.55s-13.71-54,20.38-58.93c34.09-4.93,37.03,43.95,41.57,69.65,4.54,25.7,36.88,16.55,36.88,16.55l87.8-12.94"/><path class="cls-37" d="m284.88,1298.16s78.98-34.47,159.09-21.43l3.67,16.43-162.77,5Z"/><path class="cls-5" d="m215.81,1200.72s4.5-40.24,14.04-42.8c9.54-2.56-12.36,36.08,23.02,135.2,0,0,8.82,15.09,3.57,16.79-5.25,1.69-27.15,6.74-33.89-53.75-6.74-60.48-6.74-55.44-6.74-55.44Z"/><path class="cls-37" d="m264.66,1172.16s-10.11-33.6-11.79-11.76c0,0,8.42,72.24,23.58,89.04,17.16,19.02,80.86-8.4,80.86-8.4,0,0-65.7,5.04-70.75-3.36-5.05-8.4-21.9-65.52-21.9-65.52Z"/><path class="cls-8" d="m402.8,1229.28l-84.92,12.05s-32.34,9.15-36.88-16.55c-4.54-25.7-7.48-74.57-41.57-69.65-34.09,4.93-20.38,58.93-20.38,58.93l11.6,68.55s-.73,37.55,47.83,24.55c48.56-13,167.32-19.77,171.77-11.55"/><path class="cls-35" d="m780.33,1306.04s74.3,12.35,91.63,24.7c17.34,12.35,69.34,0,66.87-12.35-2.48-12.35,49.53-167.95-52.01-121.02,0,0-27.24,29.64-22.29,74.09"/><path class="cls-5" d="m861.84,1267.08s12.5-66.65,24.36-66.51c6.38.08,39.65-9.09,27.86-4.05-7.18,3.07-18.33,36.76-21.06,49.56-3.99,18.76-3.31,39.55-7.58,42.84s-13.48-10.92-23.58-21.84Z"/><path class="cls-37" d="m896.37,1331.76c4.05,1.01,2.37-19.24,2.74-23.39l7.36-80.77s11.45-56.46,38.74-13.44c1.21,1.91.32-5.56.77-3.35,2.64,12.84,9.72,60.4-17.62,109.19,0,0-11.1,27.57-94.83-2.17,0,0-44.99-2.87-44.99-16.31,0-4.76,11.79-10.08,11.79-10.08,0,0,50.28,2.38,53.91,8.4,5.05,8.4,4.51,12.67,20.21,16.8,9.12,2.4,8.42,11.76,21.9,15.12Z"/><path class="cls-8" d="m785.19,1308.24s69.04,9.76,86.37,22.11c17.34,12.35,62.29-.61,66.87-12.35,5.11-13.12,40.7-141.37-28.39-128.98-16.27,2.92-29.85,13.95-36.88,28.88-6.09,12.94-11.47,31.26-9.03,53.18"/><path class="cls-35" d="m1105.16,527.42c-.94,16.67-3.24,32.97-6.71,48.85-30.51,139.1-144.23,233.37-228.16,292.23-33.68,23.59-62.58,41.52-79.37,54.31-4.43,3.38-8.02,6.4-10.65,9.09-41.9,42.98-84.97,42.11-118.28,29.74-13.94-5.19-26.18-12.4-35.88-19.22-5.67-4-10.48-7.85-14.29-11.14-7.03-6.05-15.16-10.74-24-13.71-51.21-17.26-226.92-86-277.52-231.08-18.5-53.08-25.51-99.26-26.35-137.69-.3-15.09.32-29.02,1.54-41.67,7.16-37.96,29.87-73.28,64.36-103.68,73.4-64.76,200.2-107.54,344.31-107.54,46.01,0,90.24,4.37,131.55,12.4,159.59,31.07,275.29,117.12,279.45,219.1Z"/><path class="cls-37" d="m738.71,297.31s615.86,206.2-25.96,656.44c0,0-36.97,3.66-17.64,15.27,19.33,11.61,87.87-39.71,87.87-39.71,0,0,197.26-137.42,200.81-154.77,3.54-17.35,195.58-170.23,86.09-341.59,0,0-135.07-138.55-331.17-135.63Z"/><path class="cls-35" d="m561.64,1023.06s0,161.28-5.76,198.24c-5.76,36.96-17.28-6.72-17.28-6.72,0,0-16.32,73.92-29.77,6.72-13.44-67.2,17.28-198.24,17.28-198.24,0,0-8.89-14.2-19.99,11"/><path d="m561.64,1023.06c1.4,40.05,1.84,80.13,1.47,120.2-.64,27.64-.15,55.58-4.29,83.06-1.03,4.3-1.75,9.65-5.87,12.67-2.55,1.83-6.23.87-8.09-1.1-2.41-2.39-3.51-4.76-4.85-7.53-2.21-4.91-3.78-9.72-5.2-14.78l7.6-.15c-1.31,5.74-2.84,11.26-4.71,16.83-2.08,5.84-4,11.33-7.92,16.52-2.68,3.69-7.94,6.5-12.49,3.36-7.56-5.24-10.32-21.33-12.26-29.93-5.87-32.6-2.96-66.09.88-98.74,4.31-33.91,10.82-67.51,19.25-100.62,0,0,.12.73.12.73-1.14-1.78-3-3.41-5.1-3.72-6.76-.48-11.37,9.04-14.08,14.2.91-2.24,1.9-4.46,3.07-6.6,3.76-7.36,11.09-13.57,17.75-4.91,0,0,.21.29.21.29,0,0-.09.44-.09.44-2.17,11.13-4.19,22.3-6.01,33.5-5.47,33.5-9.89,67.26-11.49,101.17-.91,22.35-.87,44.92,3.99,66.81,1.22,5.4,2.66,10.81,4.7,15.56.75,1.81,2.24,4.48,3.47,5.22,2.28-1.53,4.12-5.21,5.53-8.25,3.3-7.47,5.63-15.6,7.53-23.54,0,0,3.52-15.07,3.52-15.07l4.08,14.91c1.25,4.58,2.79,9.33,4.68,13.56.79,1.74,1.9,3.94,3.07,5.13.19.2.34.21-.01.08-.16-.04-.47-.09-.75-.03-.6.06-.85.55-.42-.03,1.76-3.09,2.46-7.32,3.15-11.03.93-6.05,1.49-12.14,2.03-18.33.72-8.59,1.35-21.12,1.84-29.86,2.28-45.85,3.91-103.81,5.69-150.02h0Z"/><path class="cls-35" d="m811.4,1027.64c-15.29-25.2-27.52-11-27.52-11,0,0,42.3,131.04,23.79,198.24-18.51,67.2-40.98-6.72-40.98-6.72,0,0-15.86,43.68-23.79,6.72-7.93-36.96-7.93-198.24-7.93-198.24"/><path d="m811.4,1027.64c-5.51-8.69-16.92-20.26-26.58-10.19,0,0,.24-1.19.24-1.19,7.65,22.18,13.98,44.77,19.28,67.64,8.91,39.95,17.84,92.06,7.56,132.06-2.64,9.04-5.16,18-11.13,25.68-6.04,7.67-14.87,7.73-21.53.73-6.62-7.04-10.25-15.63-13.76-24.36-1.08-2.83-2.07-5.6-3-8.59l8.34.22c-.98,2.59-1.99,4.95-3.14,7.38-2.91,5.77-5.89,12.08-11.64,15.71-7.66,4.25-13.13-2.68-15.17-9.33-1.74-4.5-2.54-11.01-3.32-15.72-3.71-33.15-3.83-66.27-4.11-99.47-.11-30.54.35-61.07,1.52-91.59,0,0,2.52,60.99,2.52,60.99,1.68,37.82,3.17,80.19,6.76,117.76.66,5.76,1.54,12.68,2.68,18.4.97,3.96,1.9,8.57,4.52,11.54.17.16.23.13.17.12-.06-.03-.21-.03-.22-.03,0,0,.13-.03.36-.16,1.88-1.25,3.22-3.29,4.68-5.61,4.19-6.7,7.69-17.36,10.58-24.83,0,0,3.88,12.07,3.88,12.07,3.18,9.34,9.04,25.55,17.17,31.13,4.26,2.77,8.14-5.27,9.8-8.56,12.75-28.6,11.31-62.03,8.42-92.64-4.22-40.5-12.87-80.52-23.59-119.79,0,0-.21-.74-.21-.74,1.28-1.36,2.75-2.48,4.35-3.23,10.9-5.19,19.95,6,24.56,14.58h0Z"/><path class="cls-31" d="m1105.75,526.83c-.94,16.67-3.24,32.97-6.71,48.85-30.51,139.1-144.23,233.37-228.16,292.23-33.68,23.59-62.58,41.52-79.37,54.31-4.43,3.38-8.02,6.4-10.65,9.09-41.9,42.98-84.97,42.11-118.28,29.74-13.94-5.19-26.18-12.4-35.88-19.22-5.67-4-10.48-7.85-14.29-11.14-7.03-6.05-15.16-10.74-24-13.71-51.21-17.26-226.92-86-277.52-231.08-18.5-53.08-25.51-99.26-26.35-137.69-.3-15.09.32-29.02,1.54-41.67,7.16-37.96,29.87-73.28,64.36-103.68,73.4-64.76,200.2-107.54,344.31-107.54,46.01,0,90.24,4.37,131.55,12.4,159.59,31.07,275.29,117.12,279.45,219.1Z"/><ellipse class="cls-9" cx="437.73" cy="705.52" rx="167.31" ry="166.86"/><ellipse class="cls-9" cx="889.67" cy="695.09" rx="161.7" ry="161.26"/><ellipse class="cls-34" cx="462.13" cy="705.4" rx="125.97" ry="134.07" transform="translate(-260.66 1139.84) rotate(-87.78)"/><ellipse class="cls-34" cx="866.17" cy="693.08" rx="121.75" ry="129.57" transform="translate(140.04 1531.73) rotate(-87.78)"/><ellipse class="cls-33" cx="478.73" cy="706.22" rx="110.36" ry="117.45" transform="translate(-245.52 1157.22) rotate(-87.78)"/><ellipse class="cls-33" cx="850.14" cy="692.05" rx="106.65" ry="113.51" transform="translate(125.65 1514.72) rotate(-87.78)"/><ellipse cx="497.6" cy="705.73" rx="100.83" ry="100.56"/><ellipse cx="834.03" cy="692.84" rx="97.45" ry="97.18"/><path d="m345.46,505.62c34.47-34.87,88.32-51.1,135.93-37.44,18.49,5.16,35.86,14.48,50.51,26.44-27.47-14.79-57.36-24.43-88.59-23.32-34.98,1.23-69.11,14.53-97.84,34.32h0Z"/><ellipse class="cls-12" cx="539" cy="657.08" rx="31.47" ry="31.39"/><ellipse class="cls-12" cx="932.74" cy="663.7" rx="31.05" ry="30.97"/><ellipse class="cls-12" cx="402.43" cy="763.62" rx="10.86" ry="32.13" transform="translate(-376.82 1134.88) rotate(-87.69)"/><ellipse class="cls-12" cx="809.58" cy="759.19" rx="10.49" ry="31.05" transform="translate(18.32 1537.46) rotate(-87.69)"/><path d="m977.21,499.62c-28.13-18.62-61.84-31.31-95.79-29.97-34.41,1.23-65.28,18.68-91.04,40.99,10.83-13.62,24.27-25.38,39.68-34.21,47.78-27.78,108.66-14.2,147.15,23.19h0Z"/><path class="cls-1" d="m904.09,186.43s-65.47,15.64-89.19,48.76c-23.32,32.55-42.79,106.76-43.44,109.3-.02.05-.02.07-.02.07l-6.5-.64c.07-.65.15-1.32.23-2.01,3.83-29.01,31.67-95.64,44.41-119.46,13.03-24.39,99.89-66.05,107.19-56.79,7.28,9.26-12.69,20.76-12.69,20.76Z"/><path class="cls-1" d="m598.71,344.09s-14.29-59.89-38.1-87.03c-23.81-27.14-98.11-43.99-98.11-43.99,0,0-21.91-10.29-12.38-16.85,9.53-6.55,105.73,31.82,118.12,51.47,12.38,19.65,38.1,74.87,38.1,96.39"/><path class="cls-28" d="m903.36,186.22s-65.47,15.64-89.19,48.76c-23.32,32.55-42.79,106.76-43.44,109.3-.02.05-.02.07-.02.07l-6.5-.64c.07-.65.15-1.32.23-2.01,3.83-29.01,31.67-95.64,44.41-119.46,13.03-24.39,99.89-66.05,107.19-56.79,7.28,9.26-12.69,20.76-12.69,20.76Z"/><path class="cls-28" d="m598.15,343.94s-14.29-59.89-38.1-87.03-98.11-43.99-98.11-43.99c0,0-21.91-10.29-12.38-16.85,9.53-6.55,105.73,31.82,118.12,51.47,12.38,19.65,38.1,74.87,38.1,96.39"/><path class="cls-14" d="m311.76,328.45s77.48-6.69,54.8-53.74c0,0,76.95-8.52,159.81,80.41.06.06,0,.16-.07.13-3.23-1.09-28.87-8.24-55.3,21.94,0,0-62.42-40.37-159.24-48.75Z"/><path class="cls-20" d="m525.56,353.69c.08.11-.06.25-.17.16-8.26-6.5-94.55-73.5-144.23-75.1-52.22-1.68,0-11.76,0-11.76,0,0,38.74-11.76,80.86,21.84,38.54,30.75,60.16,60.1,63.54,64.85Z"/><path class="cls-14" d="m243.59,412.47c8.42-1.68,93.45-28.84,57.68-72.38l8.02-6.58s60.64-1.68,70.75,3.36c10.11,5.04,90.84,40.61,90.84,40.61,0,0-35.25-8.69-87.47,46.75,0,0-77.49-25.2-156.66,0l16.85-11.76Z"/><path class="cls-20" d="m471,377.19c3.14,2.07-113.43-49.71-155.54-39.63-42.11,10.08-16.85-11.76,16.85-11.76s54.47-4.05,138.7,51.39Z"/><path class="cls-20" d="m382.84,423.25c3.64.96-114.55-13.44-154.98,10.08-40.43,23.52-23.58-1.68,0-15.12,5.4-3.08,10.44-6.06,16.38-8.48,20.03-8.14,50.26-9.8,138.6,13.52Z"/><path class="cls-14" d="m1050.01,313.08s-55.83-4.76-38.26-51.81c0,0-61.6-11.98-125.2,74.86-.45.62-.03,1.64.62,1.47,6.22-1.6,20.72-1.62,38.2,23.78.25.37.76.46,1.11.19,5.97-4.71,53.52-40.66,123.54-48.48Z"/><path class="cls-19" d="m886,335.6c-.31.53.39,1.07.83.64,13.5-13.43,73.7-71.36,109.44-72.84,40.44-1.68,0-11.76,0-11.76,0,0-30-11.76-62.61,21.84-26.27,27.07-42.38,53.05-47.66,62.12Z"/><path class="cls-14" d="m1106.08,397.35c-6.52-1.68-71.5-28.7-43.8-72.24l-10.35-6.97s-46.96-1.68-54.79,3.36c-7.26,4.68-61.58,35.62-69.41,40.07-.16.09-.07.33.11.3,5.36-.92,30.87-2.12,66.69,46.99,0,0,60-25.2,121.31,0l-9.76-11.51Z"/><path class="cls-32" d="m925.83,362.07c-2.43,2.07,88.7-49.96,121.31-39.88,32.61,10.08,13.04-11.76-13.04-11.76s-43.05-3.8-108.27,51.64Z"/><path class="cls-19" d="m994.97,407.88c-2.82.96,88.7-13.44,120.01,10.08,31.31,23.52,18.26-1.68,0-15.12-4.18-3.08-8.08-6.06-12.69-8.48-15.51-8.14-38.92-9.8-107.32,13.52Z"/><path class="cls-30" d="m527.1,352.61c-3.23-1.09-28.87-8.25-55.3,21.94.46.3-1.6-.54-5.59-2.13,3.45,1.53,5.47,2.42,5.47,2.42,0,0-35.26-8.69-87.48,46.76,0,0-1.45-.47-4.18-1.23-.02.02-.03.02-.03,0-20.13-1.73-115.78-10.37-151.32,10.32-40.43,23.52-23.58-1.68,0-15.12,5.39-3.07,10.43-6.06,16.37-8.48,5.86-2.39,12.58-4.22,21.39-5.01,25.72-11.17,60.96-33.8,35.63-64.63-15.14,1.26-6.62-7.19,10.54-11.64,4.45-1.16,9.47-2.05,14.79-2.42.02-.02.03-.02.03-.02,20.57-4.54,53.82-16.87,41.37-48.01-28.69-2.91,13.16-10.99,13.16-10.99,0,0,38.74-11.76,80.86,21.84,38.54,30.74,60.16,60.09,63.54,64.85.07.12-.07.25-.17.17-.24-.18-.52-.4-.86-.67.62.64,1.23,1.28,1.84,1.93.05.05,0,.15-.07.13Z"/><path class="cls-30" d="m1115.77,415.31c-27.53-20.68-101.6-12.05-117.18-10.32-.02.02-.03.02-.05,0-2.09.76-3.22,1.23-3.22,1.23-35.81-49.11-61.32-47.9-66.68-46.99-.19.03-2.26-.17-2.49-.5-17.49-25.39-31.99-25.37-38.21-23.77-.56.15-.94-.6-.74-1.21-.34-.03-.62-.4-.4-.79,5.26-9.07,21.38-35.06,47.66-62.13,32.6-33.6,62.6-21.84,62.6-21.84,0,0,26.13,6.52,15.38,9.95-11.89,32.26,10.88,44.52,26.14,49.01,4.4.34,8.44,1.55,12.16,2.49,18.28,4.6,12.33,12.05,12.33,12.05-19.84,31.18,7.85,53.88,27.56,64.88,4.87.94,8.88,2.47,12.45,4.35,4.6,2.42,8.51,5.41,12.69,8.48,18.26,13.44,31.3,38.64,0,15.12Z"/><ellipse class="cls-10" cx="440.42" cy="703.91" rx="167.31" ry="166.86"/><ellipse class="cls-10" cx="892.36" cy="693.48" rx="161.7" ry="161.26"/><path class="cls-2" d="m363.83,638.24c-.31,0-.64,0-.95.01h0s.95-.01.95-.01Z"/><ellipse class="cls-36" cx="465.24" cy="708.8" rx="136.32" ry="122.64"/><ellipse class="cls-36" cx="877.97" cy="698.92" rx="140.66" ry="122.64"/><path d="m597.49,707.7c0,37.65-22.16,63.36-50.07,63.36-.87,0-1.73-.02-2.6-.07h-167.58c-27.89,0-50.96-25.71-50.96-63.36s23.45-68.72,50.96-69.38c.3-.01.6-.01.89-.01h170.77v1.33c27.01,1.36,48.59,31.34,48.59,68.14Z"/><path d="m1018.63,703.26c0,37.65-22.62,63.36-51.09,63.36-.89,0-1.77-.02-2.65-.07h-171c-28.46,0-52-25.71-52-63.36s23.93-68.72,52-69.38c.3-.01.61-.01.91-.01h174.24v1.33c27.56,1.36,49.58,31.34,49.58,68.14Z"/><ellipse class="cls-12" cx="552.28" cy="650.15" rx="31.47" ry="31.39"/><ellipse class="cls-12" cx="979.71" cy="638.29" rx="31.05" ry="30.97"/><ellipse class="cls-12" cx="363.48" cy="771.81" rx="10.86" ry="32.13" transform="translate(-422.37 1103.83) rotate(-87.69)"/><ellipse class="cls-12" cx="824.54" cy="762.34" rx="10.49" ry="31.05" transform="translate(29.53 1555.43) rotate(-87.69)"/><path class="cls-29" d="m650.05,863.11c5.82-4.64-30.32-47.04,25.36-28.92.98.32,2.06.14,3.01-.26,8.13-3.46,47.76-18.53,27.27,25.6-.94,2.02-.43,4.41,1.28,5.84,7.32,6.14,21.92,23.35-29.41,32.92-.36.07-.74.1-1.11.08-6.49-.25-66.26-3.45-26.39-35.26Z"/><path class="cls-24" d="m661.84,863.11s2.39-1.59,6.43-2.88c6.14-1.95,16.09-3.2,27.26,2.88"/><path class="cls-3" d="m661.84,847.99s3.75,11.94,7.77,11.85"/><path class="cls-26" d="m673.63,858.07s3.37-5.04,3.37-10.08-1.49,11.2,2.63,10.64c4.11-.56-6-.56-6-.56Z"/><path class="cls-26" d="m688.19,860.05s7.34-7.02,7.34-12.06"/><path class="cls-26" d="m668.58,859.75s-3.37,6.72-1.68,10.08"/><path class="cls-26" d="m687.48,859.84s4.68,4.95,3,9.99"/><path class="cls-26" d="m677.63,858.65s-.63,4.47,1.06,11.19"/><path class="cls-7" d="m816.16,909.14s154.32-102.7,305.61-89.27c150.26,13.33,119.18,164.79,119.18,164.79l-90.16.76c-9.32-43.35-53.98-36.17-53.98-36.17-66.92,24.9-70.95,235.32-109.5,240.24,0,0-8.68-117.73-171.16-280.35Z"/><path class="cls-27" d="m992.37,1103.8c.08-4.85-4.2-18.42-42.13-11.47"/><path class="cls-27" d="m973.92,1091.05s18.16-71.37-49.23-73.14"/><path class="cls-27" d="m1014.47,1060.64s-3.86-46.26-47.81-57.56"/><path class="cls-27" d="m966.18,1031.33s16.81-57.35-44.99-70.37"/><path class="cls-27" d="m924.89,1039.16s23.31-77.96-53.01-80.58"/><path class="cls-27" d="m919.84,974.98s15.48-66.91-47.45-68.25"/><path class="cls-27" d="m871.2,965.59s11.47-72.02-43.89-58.47"/><path class="cls-27" d="m869.48,913.53s17.97-22.82,6.23-41.16"/><path class="cls-27" d="m1027.75,997.96s-21.32-33.52-65.52-18.9"/><path class="cls-27" d="m985.86,974.85s-11.06-55.91-61.96-41.93"/><path class="cls-27" d="m933.28,929.1s-1.97-32.03-23.02-37.04c-7.02-1.67-16.15-.34-28.05,6.18"/><path class="cls-27" d="m903.91,860.23s14.49,13.19,5.99,31.24"/><path class="cls-27" d="m1042.03,963.82s-23.27-33.57-67.7-16.62"/><path class="cls-27" d="m992.46,942.75s-7.79-55.88-61.37-37.45"/><path class="cls-27" d="m945.21,898.84s11.79-30.24-16.85-43.68"/><path class="cls-27" d="m1054.1,953.71s-5.18-55.94-67.23-43.04"/><path class="cls-27" d="m983.95,913.96s11.47-68.51-35.87-44.76"/><path class="cls-27" d="m982.01,867.74s29.83-28.97,12.94-40.62"/><path class="cls-27" d="m966.84,861.57s7-9.77,1.95-19.85"/><path class="cls-27" d="m1023.24,907.09s8.53-41.64-23.81-56.54"/><path class="cls-27" d="m1078.29,934.12s8.04-44.02-32.01-48.72c-4.65-.55-10.9-.9-16.85,0"/><path class="cls-27" d="m1029.35,843.99l-14.07,5.72c34.37-6.13,26.07,33.17,26.07,33.17"/><line class="cls-27" x1="1030.93" y1="827.64" x2="1015.28" y2="849.72"/><path class="cls-27" d="m1105.24,947.56s25.62-82.01-44.03-60.4"/><path class="cls-27" d="m1061.43,884.82s20.37-47.57-30.5-57.19"/><path class="cls-27" d="m1088.07,818.98s12.03,15.31-21.47,35.67"/><path class="cls-27" d="m1098.5,887.08c7.15-4.03,18.09-37.05-10.01-49.19"/><path class="cls-27" d="m1123.77,822.42s10.9,27-14.55,33.98"/><path class="cls-27" d="m1125.46,952.6s18.72-43.1-18.53-53.76"/><path class="cls-27" d="m1121.3,849.3s26.28,29.65-5.67,57.24"/><path class="cls-27" d="m1166.06,833.54s1.77,18.87-18.62,27.08c-4.71,1.9-10.59,3.22-17.95,3.62"/><path class="cls-27" d="m1133.03,912.94s37.51-15.26,16.58-55.01"/><path class="cls-27" d="m1191.15,841.72s-3.18,38.77-32.42,38.31"/><path class="cls-27" d="m1145.49,904.7s24.12,25.91-3.81,58.6"/><path class="cls-27" d="m1171.58,877.66s12.91,26.4-14.12,49.74"/><path class="cls-27" d="m1211.37,858.52s11.16,36.12-36.71,42.61"/><path class="cls-27" d="m1192.84,898.84s5.33,47.76-37.06,43.68"/><path class="cls-27" d="m1236.64,898.84s-10.55,32.44-43.8,26.88"/><path class="cls-27" d="m1242.64,943.53s-25.65,14.63-54.85-9.41"/><path class="cls-27" d="m1238.32,976.12s-46.23,1.47-43.75-24.24"/><path class="cls-27" d="m1199.58,945.88s-21.9,23.52-48.53,13.61"/><path class="cls-27" d="m1054.7,934.12s20.64-11.52,36.43,17.76"/><path class="cls-27" d="m999.11,1014.76s28.64-28.56,55.59-6.72"/><path class="cls-27" d="m1015.96,981.16s35.38-38.64,60.64-21.84"/><path class="cls-27" d="m970.48,1123.96s10.11-31.92,53.91-8.4"/><path class="cls-27" d="m976.15,1070.99s42.39-28.81,56.26,2"/><path class="cls-6" d="m1149.04,986.2s-58.96,31.92-43.8,87.36c15.16,55.44,1.68,63.84-20.21,84,0,0,102.76-13.44,96.02-60.48-6.74-47.04,11.79-42,11.79-42,0,0,60.64-6.72,15.16,94.08,0,0,14.85-.93,31.97-7.93,29.02-11.87,64.59-41.19,45.52-113.04,0,0-8.42-43.68-43.8-43.68l-92.65,1.68Z"/><path class="cls-27" d="m1167.57,986.2s-13.35,39.55-25.27,110.88c-8.42,50.4-57.28,60.48-57.28,60.48"/><path class="cls-27" d="m1196.21,986.2s-20.21,47.04-15.16,78.96"/><path class="cls-27" d="m1216.4,986.67s6.64,14.71,8.39,97.84"/><path class="cls-27" d="m1243.37,986.2s36.47,81.63,3.91,151.7"/><path class="cls-15" d="m816.2,1138.98s26.95-28.56,37.06-3.36c10.11,25.2,33.69-1.68,35.38-11.76,1.68-10.08,26.95-30.24,38.74,0,11.79,30.24,25.27-11.76,25.27-11.76,0,0,6.74-20.16,15.16-8.4,8.42,11.76,1.68,31.92,18.53,45.36,16.85,13.44,42.11,16.8,25.27,26.88-16.85,10.08-69.07-25.2-67.38-11.76,1.68,13.44-16.85,13.44-43.8,0-26.95-13.44-33.69,20.16-33.69,20.16,0,0-26.95,25.2-38.74,11.76s-8.42-15.12-8.42-15.12"/><path class="cls-25" d="m816.34,1153.36s115.59.52,159.71-19.06"/><path class="cls-11" d="m376.67,1097.92c3.97,23.73-13.48,60.48-23.58,65.52-10.11,5.04,6.74,15.12,35.38,0,28.64-15.12,28.64,8.4,28.64,8.4,0,0,3.37,16.8,23.58,0q20.21-16.8,25.27-5.04c5.05,11.76,26.95,1.68,26.95-8.4s8.42-13.44,8.42-13.44l8.42-58.8s-37.06,10.08-40.43,0c-3.37-10.08-18.53-8.4-25.27,6.72-6.74,15.12-32.01,11.76-32.01-8.4s-16.85,10.08-16.85,10.08c0,0-8.42,10.08-13.48-5.04-5.05-15.12-8.42-11.76-5.05,8.4Z"/><path class="cls-21" d="m565.34,1153.36c1.68,1.68,16.85-1.68,20.21-11.76,3.37-10.08,21.9,3.36,21.9,11.76s35.38,11.76,43.8-1.68c8.42-13.44,32.01-26.88,38.74-5.04,6.74,21.84,26.95,13.44,28.64,6.72,1.68-6.72,13.48,20.16,13.48,20.16,0,0-1.68-58.8,0-62.16,1.68-3.36-161.72-8.4-166.77-5.04v47.04Z"/><path class="cls-23" d="m811.28,1091.2l133.08-26.88s20.95,48.59,27.32,48.65c6.37.07,45.12,33.67,11.43,20.23-33.69-13.44-35.38,10.08-35.38,10.08,0,0-11.79,20.16-26.95,1.68-15.16-18.48-30.32,0-30.32,0,0,0-21.9,28.56-40.43-6.72-18.53-35.28-33.69,11.76-33.69,11.76l-5.05-58.8Z"/><path class="cls-4" d="m812.97,1121.44s128.03-16.8,149.93-18.48"/><path class="cls-25" d="m561.97,1123.12s146.58-5.58,170.15,10.65"/><path class="cls-25" d="m374.46,1124.71s119.19-13.54,129.77,0"/><path class="cls-16" d="m624.3,1069.36l-53.91,5.04c-11.79,5.04-9.64-31.65-5.05-45.36,5.05-15.12-3.37-3.36-3.37-3.36-21.9,25.2-40.43,8.4-33.69,3.36s5.05-23.52-11.79-16.8c-22.56,9-30.32,8.4-25.27,0,5.05-8.4-5.05-6.72-20.21-21.84-15.16-15.12,8.42-20.16,8.42-20.16,0,0,26.95-5.04,25.27-21.84s40.43-18.48,38.74,10.08c0,0,3.37,20.16,26.95,10.08,23.58-10.08,6.74,18.48,3.37,35.28-2.84,14.17,30.32-1.68,28.64,18.48,0,0-1.68,30.24,28.64,20.16,30.32-10.08-3.37,26.88-3.37,26.88h-3.37Z"/><path class="cls-17" d="m669.78,1066s16.85-20.16,6.74-30.24c-10.11-10.08-10.11-30.24,0-28.56,10.11,1.68,33.69-31.92,53.91-16.8,20.21,15.12,26.95-10.08,26.95-13.44s43.95-24.74,52.22,0c5.05,15.12,16.87,3.35,18.36.36.1-.2.18-.38.27-.59,1.22-2.89,13.96-31.48,25.17,5.27,4.51,14.79,8.78,23.18,12.33,27.9,3.29,4.39,9.31,5.69,14.18,3.15,8.59-4.48,34.61,7.36,13.92,17.67-6.74,3.36-7.49,4.01-5.18,7.75,3.73,6.04,1.07,13.95-5.59,16.44l-10.82,4.05c-7.29,2.73-15.21-2.58-15.2-10.34,0-5.17-2.29-12.11-7.01-9.49-15.16,8.4-23.58,0-13.48-13.44,9.27-12.33-5.55-2.04-8.07-.25-.22.16-.42.31-.63.49-3.21,2.65-34.44,25.34-16.56-10.31,8.42-16.8-5.6-11.02-16.92.91-4.29,4.52-11.39,4.65-15.94.4-6.31-5.9-15.64-11.47-24.42-4.66-15.16,11.76-21.9,8.4-21.9,30.24"/><path class="cls-4" d="m575.68,1027.83s-52.46-55.91-81.1-65.99"/><path class="cls-25" d="m679.89,1039.12s116.27-96.22,181.95-7.79"/><path class="cls-16" d="m506.38,1097.92s-8.42,0-11.79,8.4c-3.37,8.4-15.16,20.16-16.85,5.04-1.68-15.12-25.27-15.12-26.95-5.04-1.68,10.08-23.58,18.48-25.27,8.4-1.68-10.08-8.42-16.8-25.27-10.08-16.85,6.72-20.21,3.36-10.11-15.12,4.15-7.59,6.6-14.89,8.04-20.86,2.07-8.58,2.07-14.42,2.07-14.42,0,0-3.37-1.68,1.68-15.12,5.05-13.44,8.42,3.36,15.16,5.04,6.74,1.68,20.21-6.72,23.58,10.08,3.37,16.8,15.16,16.8,28.64,11.76,13.48-5.04,15.16-21.84,25.27,0,10.11,21.84,20.21-1.68,20.21-1.68"/><path class="cls-13" d="m561.97,1049.2s13.48-36.96,28.64-18.48c15.16,18.48,28.64,21.84,45.48,6.72,16.85-15.12,28.96-23.97,38.9-6.11,9.95,17.87,3.21,19.55,25.11,11.15,21.9-8.4,26.95-15.12,32.01,1.68v70.56c0,11.76-16.85,30.24-26.95,10.08-10.11-20.16-6.74-16.8-20.21-5.04-13.48,11.76-21.9,6.72-30.32-5.04-8.42-11.76-21.9,10.08-23.58,13.44-1.68,3.36-18.53-3.36-23.58-13.44-5.05-10.08-25.27-5.04-28.64,5.04-3.37,10.08-13.48-4.73-13.48-4.73"/><path class="cls-17" d="m794.44,1042.48s16.85-3.36,18.53-11.76,15.16-11.76,21.9,8.4c0,0,10.11,8.4,15.16-5.04,5.05-13.44,18.53-1.68,21.9,15.12,3.37,16.8,32.01-11.76,30.32-15.12s0-23.52,11.79-6.72c11.79,16.8,10.11-3.36,10.11-3.36,0,0-3.37-30.24,11.79,1.68,15.16,31.92,18.53,60.48,40.43,72.24,21.9,11.76-18.53,8.4-38.74-15.12s-10.11,0-10.11,0c0,0,14.51,42.93-20.21,11.76-16.85-15.12-28.64-21.84-35.38-8.4-6.74,13.44-1.68,40.32-18.53,28.56-16.85-11.76-16.85-33.6-21.9-20.16-5.05,13.44-18.53,23.52-18.53,23.52l-18.53-75.6Z"/><path class="cls-25" d="m396.88,1067.68s104.44,1.68,116.23,15.12"/><path class="cls-13" d="m444.05,1000.48c-2.26,6.76-45.48,33.6-52.22,33.6s-11.79,10.08,20.21,20.16c32.01,10.08,8.42,23.52,8.42,23.52,0,0-15.16,16.8,26.95,5.04,42.11-11.76,33.69,1.68,35.38,6.72,1.68,5.04,10.11,1.68,18.53-5.04,8.42-6.72,10.11-5.04,10.11-5.04l10.11-48.72s-26.95,5.04-26.95-5.04-1.68-11.76-15.16-1.68c-13.48,10.08-11.79-15.12-11.79-15.12,0,0-11.79-43.68-23.58-8.4Z"/><path class="cls-25" d="m431.5,1011.84s62.73,49.14,84.81,44.09"/><path class="cls-4" d="m803.69,1074.87s133.6-17.07,143.04-23.05"/><path class="cls-25" d="m561.97,1082.8s126.34-25.2,170.14,0"/></svg>