<svg xmlns="http://www.w3.org/2000/svg" viewBox="0 0 1500 1500"><defs><style>.cls-1{fill:#a0c4ff;}.cls-2{fill:#bdb2ff;}.cls-3{fill:#8e85bf;}.cls-11,.cls-37,.cls-39,.cls-4,.cls-6,.cls-7,.cls-9{fill:none;}.cls-10,.cls-12,.cls-13,.cls-14,.cls-16,.cls-17,.cls-18,.cls-19,.cls-20,.cls-21,.cls-22,.cls-23,.cls-24,.cls-25,.cls-26,.cls-27,.cls-28,.cls-32,.cls-33,.cls-34,.cls-35,.cls-36,.cls-37,.cls-38,.cls-39,.cls-4,.cls-40,.cls-41,.cls-6,.cls-7,.cls-9{stroke:#000;}.cls-10,.cls-11,.cls-12,.cls-13,.cls-14,.cls-15,.cls-16,.cls-17,.cls-18,.cls-19,.cls-20,.cls-21,.cls-22,.cls-23,.cls-24,.cls-25,.cls-26,.cls-27,.cls-28,.cls-29,.cls-31,.cls-32,.cls-33,.cls-34,.cls-35,.cls-37,.cls-38,.cls-39,.cls-4,.cls-40,.cls-41,.cls-6,.cls-7,.cls-8,.cls-9{stroke-miterlimit:10;}.cls-4{stroke-width:17px;}.cls-5{fill:#5f5980;}.cls-19,.cls-20,.cls-28,.cls-6,.cls-7{stroke-width:15px;}.cls-11,.cls-15,.cls-39,.cls-40,.cls-41,.cls-7,.cls-8{stroke-linecap:round;}.cls-8{fill:#ffe7ff;stroke:#ffe7ff;}.cls-9{stroke-width:20px;}.cls-10,.cls-21{fill:#334030;}.cls-11,.cls-15{stroke:#193319;stroke-width:4px;}.cls-12,.cls-22{fill:#7fb274;}.cls-13,.cls-23{fill:#5f8657;}.cls-14,.cls-24{fill:#4c6048;}.cls-15,.cls-31,.cls-40{fill:#fff;}.cls-16,.cls-25{fill:#98c290;}.cls-17,.cls-26{fill:#658060;}.cls-18,.cls-27{fill:#caffbf;}.cls-19{fill:#79dba1;}.cls-20{fill:#1e3728;}.cls-21,.cls-22,.cls-23,.cls-24,.cls-25,.cls-26,.cls-27,.cls-38{stroke-width:9px;}.cls-28{fill:#e2e25a;}.cls-29,.cls-31{stroke:#fff;}.cls-30{fill:#e2ab5a;}.cls-32,.cls-33{fill:#abffe9;}.cls-32{stroke-width:10px;}.cls-34{fill:#1e6042;}.cls-35,.cls-36{fill:#164832;}.cls-36{stroke-linejoin:round;}.cls-37{stroke-width:13px;}.cls-38{fill:#e38bff;}.cls-39,.cls-40,.cls-41{stroke-width:2px;}</style></defs><g id="Layer_6" data-name="Layer 6"><rect class="cls-1" x="0.41" y="-0.09" width="1500" height="1500"/><path class="cls-2" d="M880.1,904.65H1070a89.66,89.66,0,0,1,89.66,89.66v244.27a0,0,0,0,1,0,0H948.82a99.36,99.36,0,0,1-99.36-99.36V935.29A30.64,30.64,0,0,1,880.1,904.65Z" transform="translate(2076.18 67.06) rotate(90)"/><path class="cls-3" d="M925.9,975.61a138.14,138.14,0,0,1,19.47,2.21c6.44,1.13,12.82,2.6,19.14,4.32a235.51,235.51,0,0,1,37,13.62,215.56,215.56,0,0,1,34.48,20.13,184.5,184.5,0,0,1,30.25,27,156.18,156.18,0,0,1,23.23,33.87,146.66,146.66,0,0,1,7.89,19.07,137.1,137.1,0,0,1,4.94,20c.27,1.69.55,3.37.78,5.06l.53,5.07c.2,1.69.28,3.39.38,5.08s.22,3.37.2,5.07a145.79,145.79,0,0,1-1.08,20.08,143.47,143.47,0,0,1-3.94,19.45,127.74,127.74,0,0,1-6.56,18.5c-.12-3.29,0-6.5-.1-9.72s-.08-6.41-.26-9.58l-.21-4.74-.34-4.72-.17-2.34-.23-2.33-.47-4.64c-.45-3.08-.72-6.14-1.31-9.17-.29-1.51-.46-3-.76-4.53l-.91-4.48a168.4,168.4,0,0,0-11.1-34.07,176.82,176.82,0,0,0-8.15-15.71,182.77,182.77,0,0,0-21-28.52c-15.85-17.78-35-33-55.64-46.65-10.31-6.86-21.06-13.25-32.09-19.42S937.58,981.4,925.9,975.61Z"/><path class="cls-3" d="M947,941.11a144,144,0,0,1,19.43,2.24c6.43,1.13,12.8,2.59,19.12,4.28a249.27,249.27,0,0,1,37,13.27,236.24,236.24,0,0,1,34.72,19.31,206.67,206.67,0,0,1,31.07,25.56,184.4,184.4,0,0,1,13.5,15.21c2.12,2.65,4.12,5.41,6.1,8.18s3.84,5.63,5.58,8.57c.91,1.44,1.76,2.92,2.59,4.41s1.69,3,2.45,4.5,1.57,3,2.32,4.56l2.13,4.66a152.18,152.18,0,0,1,6.92,19.2c.46,1.64.87,3.29,1.28,4.94s.77,3.3,1.1,5,.71,3.3,1,5,.51,3.34.75,5a142.12,142.12,0,0,1,1.2,20c0,1.67-.09,3.33-.17,5s-.11,3.31-.3,5c-.36,3.3-.61,6.57-1.21,9.82a122.49,122.49,0,0,1-4.5,19.1c-1.47-13-3.11-25.51-6-37.57l-1.08-4.51c-.39-1.49-.83-3-1.24-4.44l-.62-2.21-.68-2.2c-.46-1.45-.88-2.91-1.38-4.35-2-5.77-4.17-11.38-6.6-16.87-9.81-21.92-23.92-41.27-40.81-58.32s-36.5-31.81-57.36-45.22C1002.82,971.42,992,965.1,981,959S958.63,947,947,941.11Z"/><path class="cls-3" d="M1005.44,924.82S1130,951.65,1153,1083.89c0,0,13.37-120.66,0-128.4C1116.6,934.4,1188,925.78,1005.44,924.82Z"/><path class="cls-3" d="M958.49,979.44c-5.75-19.16,15.33-23,21.08-21.08s9.58-9.58,9.58-9.58,1.32-12.11,20.12-16.29c17.25-3.84,24.92,1.91,24.92,1.91s-57.87-23.95-74.75-3.83a109.21,109.21,0,0,1-38,28.72L947,988.8Z"/><path class="cls-4" d="M881,905.26h189.89a89.66,89.66,0,0,1,89.66,89.66v244.27a0,0,0,0,1,0,0H949.76a99.36,99.36,0,0,1-99.36-99.36V935.89A30.64,30.64,0,0,1,881,905.26Z" transform="translate(2077.72 66.73) rotate(90)"/><path class="cls-2" d="M596.26,1012s-324.88,288.26-102.17,385.39c0,0,530.84,45.21,591.12-10.05s41.87-232.76-144-403.57S596.26,1012,596.26,1012Z"/><path class="cls-3" d="M423.78,1249.67s23-24.91,36.41,1.92c9.92,19.83,18.79,64.81,22.74,86.91a4.82,4.82,0,0,1-7.62,4.73c-11.21-8.35-30.26-20.06-47.7-18.81C400.78,1326.33,423.78,1249.67,423.78,1249.67Z"/><path class="cls-5" d="M492.77,1378.08s400.38,17.85,414.84,16.59-5.72,23.62-31.08,21.72-377.28-16.9-382.44-19S492.77,1378.08,492.77,1378.08Z"/><path class="cls-3" d="M837.75,979.44s184,145.66,207,398.64c0,0,54.39,43.11,71.27-55.1,0,0,26.58-166.32-194.83-358.42h0Z"/><path class="cls-3" d="M647.05,976.57s34.5,1.91,47.91,32.58,122.66,59.41,174.41,30.66,72.83-13.41,72.83-13.41l-47.92-49.83L647.05,961.76Z"/><path class="cls-6" d="M597.62,1012.93s-324.89,288.26-102.17,385.38c0,0,530.83,45.21,591.12-10s41.86-232.76-144-403.57S597.62,1012.93,597.62,1012.93Z"/><path class="cls-2" d="M510.91,1399.19c-5.07-9.38-140.18-1.66-195.43,13.18s-54.41-28-54.41-28l-13.2-78.2s-15.6-61.61,23.19-67.23,42.13,50.14,47.29,79.46,42,18.87,42,18.87l99.88-14.76"/><path class="cls-5" d="M322.2,1403s89.86-39.32,181-24.45l4.18,18.75Z"/><path class="cls-3" d="M299.2,1259.25s-11.49-38.33-13.41-13.41c0,0,9.58,82.41,26.83,101.57,19.53,21.7,92-9.58,92-9.58s-74.74,5.75-80.49-3.83S299.2,1259.25,299.2,1259.25Z"/><path class="cls-7" d="M456.36,1324.42l-96.62,13.75s-36.79,10.43-41.95-18.88-8.51-85.07-47.3-79.45-23.18,67.22-23.18,67.22l13.2,78.2s-.83,42.84,54.41,28,190.36-22.55,195.43-13.18"/><path class="cls-2" d="M885.88,1412s84.52,14.09,104.24,28.17,78.89,0,76.08-14.08S1122.55,1234.49,1007,1288c0,0-31,33.81-25.36,84.52"/><path class="cls-8" d="M978.61,1367.54s14.22-76,27.71-75.87c7.26.09,45.12-10.38,31.7-4.63-8.17,3.51-20.86,41.94-24,56.54-4.53,21.4-3.77,45.12-8.62,48.87S990.11,1380,978.61,1367.54Z"/><path class="cls-5" d="M1017.9,1441.32c4.61,1.16,2.69-22,3.12-26.68l8.38-92.14s13-64.41,44.08-15.33c1.37,2.17.36-6.35.88-3.82,3,14.64,11.05,68.9-20,124.56,0,0-12.63,31.45-107.89-2.48,0,0-51.18-3.27-51.18-18.6,0-5.44,13.42-11.5,13.42-11.5s57.2,2.71,61.32,9.58c5.75,9.58,5.13,14.46,23,19.16C1003.36,1426.81,1002.57,1437.49,1017.9,1441.32Z"/><path class="cls-7" d="M891.41,1414.49s78.54,11.14,98.26,25.22,70.87-.69,76.07-14.08c5.82-15,46.31-161.28-32.29-147.14-18.52,3.32-34,15.91-42,32.94a112.88,112.88,0,0,0-10.27,60.66"/><path class="cls-2" d="M1255.43,523.76a356.18,356.18,0,0,1-7.63,55.73c-34.71,158.68-164.09,266.23-259.58,333.37-38.32,26.91-71.2,47.36-90.3,62a113.63,113.63,0,0,0-12.11,10.36c-47.68,49-96.67,48-134.57,33.93a183.2,183.2,0,0,1-40.82-21.92c-6.46-4.57-11.92-9-16.26-12.71a81.67,81.67,0,0,0-27.3-15.64c-58.27-19.69-258.17-98.1-315.73-263.6-21.05-60.55-29-113.24-30-157.08a413.64,413.64,0,0,1,1.75-47.53c8.14-43.31,34-83.6,73.22-118.28,83.51-73.87,227.77-122.67,391.72-122.67a784.33,784.33,0,0,1,149.67,14.14C1119.07,309.26,1250.7,407.43,1255.43,523.76Z"/><path class="cls-3" d="M838.53,261.26S1539.19,496.48,809,1010.11c0,0-42.06,4.17-20.07,17.42s100-45.31,100-45.31,224.42-156.77,228.46-176.56S1339.87,611.47,1215.3,416C1215.3,416,1061.63,257.94,838.53,261.26Z"/><path class="cls-2" d="M637.08,1089.18s0,184-6.56,226.14-19.66-7.66-19.66-7.66S592.29,1392,577,1315.32s19.67-226.14,19.67-226.14-10.12-16.21-22.75,12.54"/><path d="M637.08,1089.18c.77,11.42,1.35,22.84,1.84,34.27s.89,22.85,1.25,34.28q1.08,34.29,1.11,68.62c0,22.9-.25,45.76-1.46,68.82-.42,5.8-.71,11.54-1.46,17.52-.18,1.48-.3,3-.52,4.45s-.47,3-.77,4.53-.63,3.08-1.06,4.7a36.05,36.05,0,0,1-1.72,5.1,21.77,21.77,0,0,1-1.59,3,13,13,0,0,1-3.65,3.77,10.51,10.51,0,0,1-3.86,1.56,9.69,9.69,0,0,1-2.33.13,10.36,10.36,0,0,1-1.12-.12c-.34-.06-.68-.14-1-.23A11.08,11.08,0,0,1,619,1339a14.59,14.59,0,0,1-1.36-.76c-.36-.24-.73-.51-1.06-.76s-.59-.5-.86-.75a18.49,18.49,0,0,1-2.36-2.69,28.69,28.69,0,0,1-1.6-2.42,49.23,49.23,0,0,1-2.35-4.52c-1.36-2.94-2.45-5.8-3.45-8.67-.51-1.43-1-2.86-1.43-4.3s-.87-2.82-1.3-4.41l15.37-.31c-.77,3.43-1.58,6.59-2.48,9.86s-1.89,6.47-3,9.71-2.3,6.47-3.76,9.75c-.73,1.64-1.52,3.28-2.45,5a36.6,36.6,0,0,1-3.36,5.15c-.33.44-.76.9-1.14,1.35s-.85.91-1.37,1.37a16.48,16.48,0,0,1-3.94,2.71,12.64,12.64,0,0,1-6.4,1.22,12.11,12.11,0,0,1-3.36-.74c-.48-.19-1-.4-1.42-.63a12.47,12.47,0,0,1-1.21-.72,14.47,14.47,0,0,1-2-1.53c-.56-.52-1-1-1.5-1.54s-.8-1-1.17-1.48l-1-1.43a43.06,43.06,0,0,1-2.8-5.4,85.26,85.26,0,0,1-3.51-10.16c-1-3.32-1.75-6.62-2.44-9.91-.37-1.64-.67-3.28-1-4.92l-.84-5-.42-2.52c-.13-.83-.22-1.67-.32-2.5l-.62-5c-.34-3.34-.61-6.67-.86-10s-.37-6.65-.41-10c-.34-13.26.1-26.43,1-39.52a708.35,708.35,0,0,1,10.33-77.64l1.82-9.6,1.94-9.56c1.33-6.38,2.69-12.74,4.18-19.07,3-12.67,6-25.29,9.6-37.82l.24,1.46a8.84,8.84,0,0,0-1-1.37,10.28,10.28,0,0,0-1.24-1.23,6.62,6.62,0,0,0-2.95-1.44c-2.13-.4-4.51.72-6.49,2.38a30.25,30.25,0,0,0-5.25,6.08,82.27,82.27,0,0,0-4.2,7.1,66.62,66.62,0,0,1,3.27-7.65,31.87,31.87,0,0,1,4.74-7,14.42,14.42,0,0,1,3.54-2.79,8.93,8.93,0,0,1,4.72-1.06,9.7,9.7,0,0,1,4.63,1.64,12.79,12.79,0,0,1,1.86,1.49,12.3,12.3,0,0,1,1.62,1.84l.4.56-.15.91c-4.41,25.47-8.08,51.11-11.22,76.71-1.52,12.81-2.94,25.62-4,38.44s-2,25.63-2.46,38.42-.54,25.55.07,38.18c.12,3.17.43,6.3.63,9.44s.58,6.25.94,9.35l.64,4.62c.11.77.2,1.55.33,2.31l.42,2.27.83,4.55c.33,1.53.64,3.07,1,4.58.69,3,1.45,6,2.29,8.94a71.22,71.22,0,0,0,2.86,8.19,28.79,28.79,0,0,0,1.67,3.22c.14.19.27.38.39.58a4.18,4.18,0,0,1,.34.42l.2.2s0,.06-.06,0-.08,0-.18-.09a1.09,1.09,0,0,0-.31-.14,3.37,3.37,0,0,0-1-.22,3.45,3.45,0,0,0-1.7.28c-.43.23.22-.13.79-.94a35.84,35.84,0,0,0,3.78-6.73c1.19-2.64,2.27-5.47,3.26-8.36s1.91-5.87,2.76-8.86,1.66-6.09,2.32-9l7.14-31,8.24,30.73a108,108,0,0,0,5.06,14.95,34.46,34.46,0,0,0,1.54,3.1,13.7,13.7,0,0,0,.74,1.17c.21.3.42.55.42.55l0-.05a1.74,1.74,0,0,0-.2-.13,2.13,2.13,0,0,0-.43-.23,4,4,0,0,0-.74-.28,3.86,3.86,0,0,0-.49-.1,3.81,3.81,0,0,0-.59-.07,4.92,4.92,0,0,0-1.26.08,5.16,5.16,0,0,0-1.9.74c-.79.56-.78.74-.75.67a5.82,5.82,0,0,0,.41-.78,23.67,23.67,0,0,0,1.07-3c.33-1.14.63-2.38.91-3.64s.53-2.57.76-3.89.37-2.7.56-4c.82-5.33,1.24-11,1.8-16.58s.9-11.28,1.31-16.93l1.07-17,1-17,.91-17.08,3.49-68.4c.64-11.4,1.14-22.82,1.85-34.23S636.29,1100.59,637.08,1089.18Z"/><path class="cls-2" d="M921.23,1094.39c-17.39-28.75-31.31-12.54-31.31-12.54S938,1231.34,917,1308s-46.62-7.67-46.62-7.67-18,49.83-27.07,7.67-9-226.15-9-226.15"/><path d="M921.23,1094.39a69.49,69.49,0,0,0-6.23-7.69,29.68,29.68,0,0,0-7.55-6,13.39,13.39,0,0,0-8.66-1.66,11.67,11.67,0,0,0-4,1.51,13.66,13.66,0,0,0-1.76,1.25c-.27.24-.54.48-.79.73s-.51.54-.64.7l.43-2.11a727.33,727.33,0,0,1,23,77c6.21,26.11,11.18,52.63,13.46,79.68a279.58,279.58,0,0,1,.75,41c-.25,3.45-.42,6.89-.91,10.35-.21,1.73-.39,3.46-.64,5.19l-.89,5.19-.45,2.6-.6,2.59-1.21,5.18c-.91,3.35-1.87,6.69-3,10a100.09,100.09,0,0,1-4,10.1,47.86,47.86,0,0,1-6.19,10.24,24.28,24.28,0,0,1-5.42,5,18,18,0,0,1-4.05,2c-.38.13-.76.25-1.15.36l-1.23.25a16.05,16.05,0,0,1-2.51.25,17.65,17.65,0,0,1-8.79-2.37,26.06,26.06,0,0,1-5.65-4.4,50.71,50.71,0,0,1-7.14-9.45,102,102,0,0,1-5.07-9.6c-1.5-3.22-2.85-6.46-4.11-9.72q-.93-2.44-1.8-4.91c-.58-1.68-1.12-3.25-1.67-5.09l15,.4c-.61,1.61-1.16,3-1.78,4.41s-1.25,2.83-1.92,4.24a88.9,88.9,0,0,1-4.54,8.42,49.51,49.51,0,0,1-2.92,4.23,30.14,30.14,0,0,1-4,4.33,19.56,19.56,0,0,1-3,2.15,13.93,13.93,0,0,1-4.58,1.64,12,12,0,0,1-5.89-.51,12.93,12.93,0,0,1-4.42-2.64,19.81,19.81,0,0,1-4.19-5.65,38.36,38.36,0,0,1-2.12-5,71.14,71.14,0,0,1-2.42-9.37l-1.43-9.1c-.37-3-.62-5.92-.91-8.88l-.43-4.43-.29-4.39-.57-8.78c-.34-5.85-.56-11.67-.8-17.51l-.49-17.47c-.14-5.82-.17-11.64-.26-17.45q-.33-34.89.59-69.73c.3-11.62.59-23.23,1.11-34.84s1-23.21,1.77-34.81q1.17,17.4,2.16,34.78l2,34.76,4,69.42,1.11,17.32,1.22,17.29,1.43,17.22.85,8.56.42,4.28.55,4.21c.38,2.8.69,5.65,1.1,8.41l1.45,8.06a56.52,56.52,0,0,0,2.09,7.42,22.47,22.47,0,0,0,1.31,3,5.64,5.64,0,0,0,.93,1.33,1.88,1.88,0,0,0-.72-.41,3.38,3.38,0,0,0-1.61-.16,2.45,2.45,0,0,0-.53.14s.25-.18.5-.4a15.07,15.07,0,0,0,1.84-2.1,34.54,34.54,0,0,0,2-3,71.7,71.7,0,0,0,3.61-6.94c.56-1.22,1.1-2.46,1.61-3.71s1-2.57,1.43-3.68l7.84-21.77,7.14,22.17c.44,1.35,1,2.93,1.49,4.4s1.09,3,1.67,4.46c1.15,3,2.38,5.87,3.71,8.69a86.26,86.26,0,0,0,4.29,8.05,36,36,0,0,0,4.87,6.47,10.69,10.69,0,0,0,2.17,1.78,7.05,7.05,0,0,0,.72.32c-.07,0,0,.06.44-.23a9,9,0,0,0,1.86-1.78,33,33,0,0,0,4.09-6.85,90.26,90.26,0,0,0,3.4-8.48c1-2.94,2-6,2.84-9.07l1.12-4.54.57-2.27.43-2.32.87-4.65c.25-1.57.43-3.15.65-4.73.48-3.14.73-6.35,1-9.54a292.15,292.15,0,0,0,.32-38.94c-1.41-26.16-5-52.4-9.68-78.48-2.32-13-4.95-26-7.77-39s-5.87-26-9.2-38.78l-.34-1.31.77-.8a12.45,12.45,0,0,1,1.13-1c.37-.3.75-.58,1.14-.85a18.45,18.45,0,0,1,2.44-1.39,15.29,15.29,0,0,1,5.43-1.44,14.65,14.65,0,0,1,5.49.65,17.86,17.86,0,0,1,4.8,2.35,31,31,0,0,1,7.26,7.19A59.57,59.57,0,0,1,921.23,1094.39Z"/><path class="cls-9" d="M1256.11,523.08a356,356,0,0,1-7.63,55.73C1213.76,737.5,1084.38,845,988.9,912.18c-38.32,26.91-71.2,47.36-90.3,62a113.81,113.81,0,0,0-12.12,10.37c-47.67,49-96.67,48-134.56,33.92a183.1,183.1,0,0,1-40.83-21.92c-6.45-4.56-11.92-9-16.25-12.71a81.79,81.79,0,0,0-27.31-15.63c-58.26-19.7-258.16-98.11-315.73-263.61-21-60.55-29-113.24-30-157.08A413.77,413.77,0,0,1,323.57,500c8.15-43.3,34-83.59,73.23-118.28C480.31,307.8,624.57,259,788.52,259a785,785,0,0,1,149.66,14.14C1119.74,308.59,1251.38,406.75,1256.11,523.08Z"/><ellipse class="cls-2" cx="501.5" cy="733.78" rx="183.5" ry="181.22"/><ellipse class="cls-2" cx="1014.92" cy="723.89" rx="176.16" ry="173.97"/><path class="cls-3" d="M1044.34,551.34s159.14,154.89,43.9,329.78c0,0,116.39-50.16,101.58-179.14C1189.82,702,1190.69,592.67,1044.34,551.34Z"/><path class="cls-3" d="M685.26,733.47c0,100.09-82.15,181.22-183.5,181.22a186.41,186.41,0,0,1-29.71-2.37C559.82,898.77,627,823.78,627,733.29c0-90.09-66.57-164.83-153.78-178.85a186.81,186.81,0,0,1,28.57-2.19C603.11,552.25,685.26,633.39,685.26,733.47Z"/><path class="cls-2" d="M880.1,904.65H1070a89.66,89.66,0,0,1,89.66,89.66v244.27a0,0,0,0,1,0,0H948.82a99.36,99.36,0,0,1-99.36-99.36V935.29A30.64,30.64,0,0,1,880.1,904.65Z" transform="translate(2076.18 67.06) rotate(90)"/><path class="cls-3" d="M925.9,975.61a138.14,138.14,0,0,1,19.47,2.21c6.44,1.13,12.82,2.6,19.14,4.32a235.51,235.51,0,0,1,37,13.62,215.56,215.56,0,0,1,34.48,20.13,184.5,184.5,0,0,1,30.25,27,156.18,156.18,0,0,1,23.23,33.87,146.66,146.66,0,0,1,7.89,19.07,137.1,137.1,0,0,1,4.94,20c.27,1.69.55,3.37.78,5.06l.53,5.07c.2,1.69.28,3.39.38,5.08s.22,3.37.2,5.07a145.79,145.79,0,0,1-1.08,20.08,143.47,143.47,0,0,1-3.94,19.45,127.74,127.74,0,0,1-6.56,18.5c-.12-3.29,0-6.5-.1-9.72s-.08-6.41-.26-9.58l-.21-4.74-.34-4.72-.17-2.34-.23-2.33-.47-4.64c-.45-3.08-.72-6.14-1.31-9.17-.29-1.51-.46-3-.76-4.53l-.91-4.48a168.4,168.4,0,0,0-11.1-34.07,176.82,176.82,0,0,0-8.15-15.71,182.77,182.77,0,0,0-21-28.52c-15.85-17.78-35-33-55.64-46.65-10.31-6.86-21.06-13.25-32.09-19.42S937.58,981.4,925.9,975.61Z"/><path class="cls-3" d="M947,941.11a144,144,0,0,1,19.43,2.24c6.43,1.13,12.8,2.59,19.12,4.28a249.27,249.27,0,0,1,37,13.27,236.24,236.24,0,0,1,34.72,19.31,206.67,206.67,0,0,1,31.07,25.56,184.4,184.4,0,0,1,13.5,15.21c2.12,2.65,4.12,5.41,6.1,8.18s3.84,5.63,5.58,8.57c.91,1.44,1.76,2.92,2.59,4.41s1.69,3,2.45,4.5,1.57,3,2.32,4.56l2.13,4.66a152.18,152.18,0,0,1,6.92,19.2c.46,1.64.87,3.29,1.28,4.94s.77,3.3,1.1,5,.71,3.3,1,5,.51,3.34.75,5a142.12,142.12,0,0,1,1.2,20c0,1.67-.09,3.33-.17,5s-.11,3.31-.3,5c-.36,3.3-.61,6.57-1.21,9.82a122.49,122.49,0,0,1-4.5,19.1c-1.47-13-3.11-25.51-6-37.57l-1.08-4.51c-.39-1.49-.83-3-1.24-4.44l-.62-2.21-.68-2.2c-.46-1.45-.88-2.91-1.38-4.35-2-5.77-4.17-11.38-6.6-16.87-9.81-21.92-23.92-41.27-40.81-58.32s-36.5-31.81-57.36-45.22C1002.82,971.42,992,965.1,981,959S958.63,947,947,941.11Z"/><path class="cls-3" d="M1005.44,924.82S1130,951.65,1153,1083.89c0,0,13.37-120.66,0-128.4C1116.6,934.4,1188,925.78,1005.44,924.82Z"/><path class="cls-3" d="M958.49,979.44c-5.75-19.16,15.33-23,21.08-21.08s9.58-9.58,9.58-9.58,1.32-12.11,20.12-16.29c17.25-3.84,24.92,1.91,24.92,1.91s-57.87-23.95-74.75-3.83a109.21,109.21,0,0,1-38,28.72L947,988.8Z"/><path class="cls-4" d="M881,905.26h189.89a89.66,89.66,0,0,1,89.66,89.66v244.27a0,0,0,0,1,0,0H949.76a99.36,99.36,0,0,1-99.36-99.36V935.89A30.64,30.64,0,0,1,881,905.26Z" transform="translate(2077.72 66.73) rotate(90)"/><path class="cls-2" d="M596.26,1012s-324.88,288.26-102.17,385.39c0,0,530.84,45.21,591.12-10.05s41.87-232.76-144-403.57S596.26,1012,596.26,1012Z"/><path class="cls-3" d="M423.78,1249.67s23-24.91,36.41,1.92c9.92,19.83,18.79,64.81,22.74,86.91a4.82,4.82,0,0,1-7.62,4.73c-11.21-8.35-30.26-20.06-47.7-18.81C400.78,1326.33,423.78,1249.67,423.78,1249.67Z"/><path class="cls-5" d="M492.77,1378.08s400.38,17.85,414.84,16.59-5.72,23.62-31.08,21.72-377.28-16.9-382.44-19S492.77,1378.08,492.77,1378.08Z"/><path class="cls-3" d="M837.75,979.44s184,145.66,207,398.64c0,0,54.39,43.11,71.27-55.1,0,0,26.58-166.32-194.83-358.42h0Z"/><path class="cls-3" d="M647.05,976.57s34.5,1.91,47.91,32.58,122.66,59.41,174.41,30.66,72.83-13.41,72.83-13.41l-47.92-49.83L647.05,961.76Z"/><path class="cls-6" d="M597.62,1012.93s-324.89,288.26-102.17,385.38c0,0,530.83,45.21,591.12-10s41.86-232.76-144-403.57S597.62,1012.93,597.62,1012.93Z"/><path class="cls-2" d="M510.91,1399.19c-5.07-9.38-140.18-1.66-195.43,13.18s-54.41-28-54.41-28l-13.2-78.2s-15.6-61.61,23.19-67.23,42.13,50.14,47.29,79.46,42,18.87,42,18.87l99.88-14.76"/><path class="cls-5" d="M322.2,1403s89.86-39.32,181-24.45l4.18,18.75Z"/><path class="cls-3" d="M299.2,1259.25s-11.49-38.33-13.41-13.41c0,0,9.58,82.41,26.83,101.57,19.53,21.7,92-9.58,92-9.58s-74.74,5.75-80.49-3.83S299.2,1259.25,299.2,1259.25Z"/><path class="cls-7" d="M456.36,1324.42l-96.62,13.75s-36.79,10.43-41.95-18.88-8.51-85.07-47.3-79.45-23.18,67.22-23.18,67.22l13.2,78.2s-.83,42.84,54.41,28,190.36-22.55,195.43-13.18"/><path class="cls-2" d="M885.88,1412s84.52,14.09,104.24,28.17,78.89,0,76.08-14.08S1122.55,1234.49,1007,1288c0,0-31,33.81-25.36,84.52"/><path class="cls-8" d="M978.61,1367.54s14.22-76,27.71-75.87c7.26.09,45.12-10.38,31.7-4.63-8.17,3.51-20.86,41.94-24,56.54-4.53,21.4-3.77,45.12-8.62,48.87S990.11,1380,978.61,1367.54Z"/><path class="cls-5" d="M1017.9,1441.32c4.61,1.16,2.69-22,3.12-26.68l8.38-92.14s13-64.41,44.08-15.33c1.37,2.17.36-6.35.88-3.82,3,14.64,11.05,68.9-20,124.56,0,0-12.63,31.45-107.89-2.48,0,0-51.18-3.27-51.18-18.6,0-5.44,13.42-11.5,13.42-11.5s57.2,2.71,61.32,9.58c5.75,9.58,5.13,14.46,23,19.16C1003.36,1426.81,1002.57,1437.49,1017.9,1441.32Z"/><path class="cls-7" d="M891.41,1414.49s78.54,11.14,98.26,25.22,70.87-.69,76.07-14.08c5.82-15,46.31-161.28-32.29-147.14-18.52,3.32-34,15.91-42,32.94a112.88,112.88,0,0,0-10.27,60.66"/><path class="cls-2" d="M1255.43,523.76a356.18,356.18,0,0,1-7.63,55.73c-34.71,158.68-164.09,266.23-259.58,333.37-38.32,26.91-71.2,47.36-90.3,62a113.63,113.63,0,0,0-12.11,10.36c-47.68,49-96.67,48-134.57,33.93a183.2,183.2,0,0,1-40.82-21.92c-6.46-4.57-11.92-9-16.26-12.71a81.67,81.67,0,0,0-27.3-15.64c-58.27-19.69-258.17-98.1-315.73-263.6-21.05-60.55-29-113.24-30-157.08a413.64,413.64,0,0,1,1.75-47.53c8.14-43.31,34-83.6,73.22-118.28,83.51-73.87,227.77-122.67,391.72-122.67a784.33,784.33,0,0,1,149.67,14.14C1119.07,309.26,1250.7,407.43,1255.43,523.76Z"/><path class="cls-3" d="M838.53,261.26S1539.19,496.48,809,1010.11c0,0-42.06,4.17-20.07,17.42s100-45.31,100-45.31,224.42-156.77,228.46-176.56S1339.87,611.47,1215.3,416C1215.3,416,1061.63,257.94,838.53,261.26Z"/><path class="cls-2" d="M637.08,1089.18s0,184-6.56,226.14-19.66-7.66-19.66-7.66S592.29,1392,577,1315.32s19.67-226.14,19.67-226.14-10.12-16.21-22.75,12.54"/><path d="M637.08,1089.18c.77,11.42,1.35,22.84,1.84,34.27s.89,22.85,1.25,34.28q1.08,34.29,1.11,68.62c0,22.9-.25,45.76-1.46,68.82-.42,5.8-.71,11.54-1.46,17.52-.18,1.48-.3,3-.52,4.45s-.47,3-.77,4.53-.63,3.08-1.06,4.7a36.05,36.05,0,0,1-1.72,5.1,21.77,21.77,0,0,1-1.59,3,13,13,0,0,1-3.65,3.77,10.51,10.51,0,0,1-3.86,1.56,9.69,9.69,0,0,1-2.33.13,10.36,10.36,0,0,1-1.12-.12c-.34-.06-.68-.14-1-.23A11.08,11.08,0,0,1,619,1339a14.59,14.59,0,0,1-1.36-.76c-.36-.24-.73-.51-1.06-.76s-.59-.5-.86-.75a18.49,18.49,0,0,1-2.36-2.69,28.69,28.69,0,0,1-1.6-2.42,49.23,49.23,0,0,1-2.35-4.52c-1.36-2.94-2.45-5.8-3.45-8.67-.51-1.43-1-2.86-1.43-4.3s-.87-2.82-1.3-4.41l15.37-.31c-.77,3.43-1.58,6.59-2.48,9.86s-1.89,6.47-3,9.71-2.3,6.47-3.76,9.75c-.73,1.64-1.52,3.28-2.45,5a36.6,36.6,0,0,1-3.36,5.15c-.33.44-.76.9-1.14,1.35s-.85.91-1.37,1.37a16.48,16.48,0,0,1-3.94,2.71,12.64,12.64,0,0,1-6.4,1.22,12.11,12.11,0,0,1-3.36-.74c-.48-.19-1-.4-1.42-.63a12.47,12.47,0,0,1-1.21-.72,14.47,14.47,0,0,1-2-1.53c-.56-.52-1-1-1.5-1.54s-.8-1-1.17-1.48l-1-1.43a43.06,43.06,0,0,1-2.8-5.4,85.26,85.26,0,0,1-3.51-10.16c-1-3.32-1.75-6.62-2.44-9.91-.37-1.64-.67-3.28-1-4.92l-.84-5-.42-2.52c-.13-.83-.22-1.67-.32-2.5l-.62-5c-.34-3.34-.61-6.67-.86-10s-.37-6.65-.41-10c-.34-13.26.1-26.43,1-39.52a708.35,708.35,0,0,1,10.33-77.64l1.82-9.6,1.94-9.56c1.33-6.38,2.69-12.74,4.18-19.07,3-12.67,6-25.29,9.6-37.82l.24,1.46a8.84,8.84,0,0,0-1-1.37,10.28,10.28,0,0,0-1.24-1.23,6.62,6.62,0,0,0-2.95-1.44c-2.13-.4-4.51.72-6.49,2.38a30.25,30.25,0,0,0-5.25,6.08,82.27,82.27,0,0,0-4.2,7.1,66.62,66.62,0,0,1,3.27-7.65,31.87,31.87,0,0,1,4.74-7,14.42,14.42,0,0,1,3.54-2.79,8.93,8.93,0,0,1,4.72-1.06,9.7,9.7,0,0,1,4.63,1.64,12.79,12.79,0,0,1,1.86,1.49,12.3,12.3,0,0,1,1.62,1.84l.4.56-.15.91c-4.41,25.47-8.08,51.11-11.22,76.71-1.52,12.81-2.94,25.62-4,38.44s-2,25.63-2.46,38.42-.54,25.55.07,38.18c.12,3.17.43,6.3.63,9.44s.58,6.25.94,9.35l.64,4.62c.11.77.2,1.55.33,2.31l.42,2.27.83,4.55c.33,1.53.64,3.07,1,4.58.69,3,1.45,6,2.29,8.94a71.22,71.22,0,0,0,2.86,8.19,28.79,28.79,0,0,0,1.67,3.22c.14.19.27.38.39.58a4.18,4.18,0,0,1,.34.42l.2.2s0,.06-.06,0-.08,0-.18-.09a1.09,1.09,0,0,0-.31-.14,3.37,3.37,0,0,0-1-.22,3.45,3.45,0,0,0-1.7.28c-.43.23.22-.13.79-.94a35.84,35.84,0,0,0,3.78-6.73c1.19-2.64,2.27-5.47,3.26-8.36s1.91-5.87,2.76-8.86,1.66-6.09,2.32-9l7.14-31,8.24,30.73a108,108,0,0,0,5.06,14.95,34.46,34.46,0,0,0,1.54,3.1,13.7,13.7,0,0,0,.74,1.17c.21.3.42.55.42.55l0-.05a1.74,1.74,0,0,0-.2-.13,2.13,2.13,0,0,0-.43-.23,4,4,0,0,0-.74-.28,3.86,3.86,0,0,0-.49-.1,3.81,3.81,0,0,0-.59-.07,4.92,4.92,0,0,0-1.26.08,5.16,5.16,0,0,0-1.9.74c-.79.56-.78.74-.75.67a5.82,5.82,0,0,0,.41-.78,23.67,23.67,0,0,0,1.07-3c.33-1.14.63-2.38.91-3.64s.53-2.57.76-3.89.37-2.7.56-4c.82-5.33,1.24-11,1.8-16.58s.9-11.28,1.31-16.93l1.07-17,1-17,.91-17.08,3.49-68.4c.64-11.4,1.14-22.82,1.85-34.23S636.29,1100.59,637.08,1089.18Z"/><path class="cls-2" d="M921.23,1094.39c-17.39-28.75-31.31-12.54-31.31-12.54S938,1231.34,917,1308s-46.62-7.67-46.62-7.67-18,49.83-27.07,7.67-9-226.15-9-226.15"/><path d="M921.23,1094.39a69.49,69.49,0,0,0-6.23-7.69,29.68,29.68,0,0,0-7.55-6,13.39,13.39,0,0,0-8.66-1.66,11.67,11.67,0,0,0-4,1.51,13.66,13.66,0,0,0-1.76,1.25c-.27.24-.54.48-.79.73s-.51.54-.64.7l.43-2.11a727.33,727.33,0,0,1,23,77c6.21,26.11,11.18,52.63,13.46,79.68a279.58,279.58,0,0,1,.75,41c-.25,3.45-.42,6.89-.91,10.35-.21,1.73-.39,3.46-.64,5.19l-.89,5.19-.45,2.6-.6,2.59-1.21,5.18c-.91,3.35-1.87,6.69-3,10a100.09,100.09,0,0,1-4,10.1,47.86,47.86,0,0,1-6.19,10.24,24.28,24.28,0,0,1-5.42,5,18,18,0,0,1-4.05,2c-.38.13-.76.25-1.15.36l-1.23.25a16.05,16.05,0,0,1-2.51.25,17.65,17.65,0,0,1-8.79-2.37,26.06,26.06,0,0,1-5.65-4.4,50.71,50.71,0,0,1-7.14-9.45,102,102,0,0,1-5.07-9.6c-1.5-3.22-2.85-6.46-4.11-9.72q-.93-2.44-1.8-4.91c-.58-1.68-1.12-3.25-1.67-5.09l15,.4c-.61,1.61-1.16,3-1.78,4.41s-1.25,2.83-1.92,4.24a88.9,88.9,0,0,1-4.54,8.42,49.51,49.51,0,0,1-2.92,4.23,30.14,30.14,0,0,1-4,4.33,19.56,19.56,0,0,1-3,2.15,13.93,13.93,0,0,1-4.58,1.64,12,12,0,0,1-5.89-.51,12.93,12.93,0,0,1-4.42-2.64,19.81,19.81,0,0,1-4.19-5.65,38.36,38.36,0,0,1-2.12-5,71.14,71.14,0,0,1-2.42-9.37l-1.43-9.1c-.37-3-.62-5.92-.91-8.88l-.43-4.43-.29-4.39-.57-8.78c-.34-5.85-.56-11.67-.8-17.51l-.49-17.47c-.14-5.82-.17-11.64-.26-17.45q-.33-34.89.59-69.73c.3-11.62.59-23.23,1.11-34.84s1-23.21,1.77-34.81q1.17,17.4,2.16,34.78l2,34.76,4,69.42,1.11,17.32,1.22,17.29,1.43,17.22.85,8.56.42,4.28.55,4.21c.38,2.8.69,5.65,1.1,8.41l1.45,8.06a56.52,56.52,0,0,0,2.09,7.42,22.47,22.47,0,0,0,1.31,3,5.64,5.64,0,0,0,.93,1.33,1.88,1.88,0,0,0-.72-.41,3.38,3.38,0,0,0-1.61-.16,2.45,2.45,0,0,0-.53.14s.25-.18.5-.4a15.07,15.07,0,0,0,1.84-2.1,34.54,34.54,0,0,0,2-3,71.7,71.7,0,0,0,3.61-6.94c.56-1.22,1.1-2.46,1.61-3.71s1-2.57,1.43-3.68l7.84-21.77,7.14,22.17c.44,1.35,1,2.93,1.49,4.4s1.09,3,1.67,4.46c1.15,3,2.38,5.87,3.71,8.69a86.26,86.26,0,0,0,4.29,8.05,36,36,0,0,0,4.87,6.47,10.69,10.69,0,0,0,2.17,1.78,7.05,7.05,0,0,0,.72.32c-.07,0,0,.06.44-.23a9,9,0,0,0,1.86-1.78,33,33,0,0,0,4.09-6.85,90.26,90.26,0,0,0,3.4-8.48c1-2.94,2-6,2.84-9.07l1.12-4.54.57-2.27.43-2.32.87-4.65c.25-1.57.43-3.15.65-4.73.48-3.14.73-6.35,1-9.54a292.15,292.15,0,0,0,.32-38.94c-1.41-26.16-5-52.4-9.68-78.48-2.32-13-4.95-26-7.77-39s-5.87-26-9.2-38.78l-.34-1.31.77-.8a12.45,12.45,0,0,1,1.13-1c.37-.3.75-.58,1.14-.85a18.45,18.45,0,0,1,2.44-1.39,15.29,15.29,0,0,1,5.43-1.44,14.65,14.65,0,0,1,5.49.65,17.86,17.86,0,0,1,4.8,2.35,31,31,0,0,1,7.26,7.19A59.57,59.57,0,0,1,921.23,1094.39Z"/><path class="cls-9" d="M1256.11,523.08a356,356,0,0,1-7.63,55.73C1213.76,737.5,1084.38,845,988.9,912.18c-38.32,26.91-71.2,47.36-90.3,62a113.81,113.81,0,0,0-12.12,10.37c-47.67,49-96.67,48-134.56,33.92a183.1,183.1,0,0,1-40.83-21.92c-6.45-4.56-11.92-9-16.25-12.71a81.79,81.79,0,0,0-27.31-15.63c-58.26-19.7-258.16-98.11-315.73-263.61-21-60.55-29-113.24-30-157.08A413.77,413.77,0,0,1,323.57,500c8.15-43.3,34-83.59,73.23-118.28C480.31,307.8,624.57,259,788.52,259a785,785,0,0,1,149.66,14.14C1119.74,308.59,1251.38,406.75,1256.11,523.08Z"/><ellipse class="cls-2" cx="501.5" cy="733.78" rx="183.5" ry="181.22"/><ellipse class="cls-2" cx="1014.92" cy="723.89" rx="176.16" ry="173.97"/><path class="cls-3" d="M1044.34,551.34s159.14,154.89,43.9,329.78c0,0,116.39-50.16,101.58-179.14C1189.82,702,1190.69,592.67,1044.34,551.34Z"/><path class="cls-3" d="M685.26,733.47c0,100.09-82.15,181.22-183.5,181.22a186.41,186.41,0,0,1-29.71-2.37C559.82,898.77,627,823.78,627,733.29c0-90.09-66.57-164.83-153.78-178.85a186.81,186.81,0,0,1,28.57-2.19C603.11,552.25,685.26,633.39,685.26,733.47Z"/><path class="cls-10" d="M922.86,1221.11s29.85-31.72,41-3.74,37.32-1.86,39.18-13.06,29.85-33.58,42.91,0,28-13.06,28-13.06,7.46-22.38,16.79-9.32,1.87,35.44,20.52,50.37,46.65,18.66,28,29.85-76.49-28-74.63-13.06-18.66,14.93-48.51,0-37.31,22.39-37.31,22.39-29.85,28-42.91,13.06-11.42-20-11.42-20"/><path class="cls-11" d="M925,1237s126,.65,174.9-21.09"/><path class="cls-12" d="M436.06,1175.51c4.39,26.34-14.93,67.16-26.12,72.76s7.46,16.79,39.18,0,31.72,9.33,31.72,9.33,3.73,18.65,26.12,0,22.39-18.66,28-5.6,29.85,1.87,29.85-9.33a16.06,16.06,0,0,1,9.33-14.92l8.38-65.25s-40.09,11.14-43.83,0-20.52-9.33-28,7.46-35.45,13.06-35.45-9.33-18.66,11.19-18.66,11.19-9.33,11.2-14.92-5.59S432.33,1153.12,436.06,1175.51Z"/><path class="cls-13" d="M637.5,1237.5c1.87,1.87,26.18-2.29,29.91-13.49s24.25,3.74,24.25,13.06,39.18,13.06,48.51-1.86,35.45-29.85,42.91-5.6,29.85,14.93,31.72,7.46,19.7,28.43,19.7,28.43-1.87-71.27,0-75-191.4-11.73-197-8Z"/><path class="cls-14" d="M917.41,1168l147.4-29.85s23.2,54,30.25,54,50,37.39,12.66,22.47-39.18,11.19-39.18,11.19-13.06,22.39-29.85,1.87-33.59,0-33.59,0-24.25,31.71-44.77-7.47S923,1233.34,923,1233.34Z"/><path class="cls-15" d="M922,1201s139.07-18,163.33-19.9"/><path class="cls-11" d="M641.29,1203.49s162.34-6.2,188.45,11.83"/><path class="cls-11" d="M433.61,1205.25S557,1195,575,1204"/><path class="cls-16" d="M710.32,1143.79l-59.7,5.6C637.56,1155,640,1114.24,645,1099c5.6-16.79-3.73-3.73-3.73-3.73-24.26,28-44.78,9.33-37.32,3.73s5.6-26.12-13.06-18.66c-25,10-33.58,9.33-28,0s-5.6-7.46-22.39-24.25,9.33-22.39,9.33-22.39,29.85-5.6,28-24.25,44.78-20.53,42.92,11.19c0,0,3.73,22.39,29.85,11.2s7.46,20.52,3.73,39.18c-3.15,15.73,33.58-1.87,31.72,20.52,0,0-1.87,33.58,31.71,22.39s-3.73,29.85-3.73,29.85Z"/><path class="cls-17" d="M760.69,1140.06s18.66-22.39,7.47-33.59-11.2-33.58,0-31.71,37.31-35.45,59.7-18.66,29.85-11.19,29.85-14.93,48.68-27.47,57.84,0c5.6,16.8,18.68,3.72,20.33.4.11-.22.2-.42.3-.65,1.35-3.21,15.46-35,27.88,5.85,5,16.43,9.72,25.74,13.65,31a12.41,12.41,0,0,0,15.7,3.49c9.52-5,38.33,8.17,15.42,19.63-7.46,3.73-8.29,4.46-5.74,8.6a12.47,12.47,0,0,1-6.19,18.26l-12,4.49a12.42,12.42,0,0,1-16.83-11.48c0-5.75-2.53-13.45-7.76-10.54-16.8,9.32-26.12,0-14.93-14.93,10.27-13.69-6.15-2.26-8.94-.28l-.7.54c-3.55,2.94-38.14,28.14-18.35-11.45,9.33-18.66-6.2-12.24-18.73,1a12.49,12.49,0,0,1-17.66.44c-7-6.55-17.33-12.73-27-5.18-16.79,13.06-24.25,9.33-24.25,33.59"/><path class="cls-15" d="M656.48,1097.66s-58.1-62.08-89.82-73.28"/><path class="cls-11" d="M771.89,1110.21s128.77-106.85,201.52-8.65"/><path class="cls-16" d="M579.72,1175.51a14.72,14.72,0,0,0-13.06,9.32c-3.73,9.33-16.79,22.39-18.66,5.6s-28-16.79-29.85-5.6-26.12,20.53-28,9.33-9.33-18.65-28-11.19-22.39,3.73-11.19-16.79a95.45,95.45,0,0,0,8.9-23.17,75.83,75.83,0,0,0,2.29-16s-3.73-1.87,1.87-16.79,9.32,3.73,16.79,5.59,22.39-7.46,26.12,11.2,16.79,18.65,31.71,13.06,16.8-24.26,28,0,19.84-1.56,19.84-1.56"/><path class="cls-18" d="M637.5,1124.5s18.71-44.15,35.51-23.62,31.71,24.25,50.37,7.46,32.07-26.62,43.09-6.78,3.55,21.71,27.81,12.38,29.85-16.79,35.45,1.86c0,0,3.77,65.64,3.77,78.7s-22.43,33.25-33.63,10.86-7.46-18.66-22.38-5.6-24.26,7.46-33.59-5.6-24.25,11.2-26.12,14.93-20.52-3.73-26.12-14.93-28-5.59-31.71,5.6-22.45-10.26-22.45-10.26"/><path class="cls-17" d="M898.76,1113.94s18.65-3.73,20.52-13.06,16.79-13.06,24.25,9.33c0,0,11.2,9.32,16.8-5.6s20.52-1.87,24.25,16.79,35.45-13.06,33.58-16.79,0-26.12,13.06-7.46,11.2-3.74,11.2-3.74-3.73-33.58,13.06,1.87,20.52,67.17,44.77,80.23-20.52,9.32-42.91-16.8-11.19,0-11.19,0,16.07,47.67-22.39,13.06c-18.66-16.79-31.72-24.25-39.18-9.32s-1.87,44.77-20.52,31.71-18.66-37.31-24.26-22.39-20.52,26.12-20.52,26.12Z"/><path class="cls-11" d="M458.45,1141.92S569.94,1141.07,583,1156"/><path class="cls-18" d="M510.69,1067.29c-2.5,7.51-50.38,37.32-57.84,37.32s-13.06,11.19,22.39,22.39,9.33,26.12,9.33,26.12-16.79,18.65,29.85,5.59,37.31,1.87,39.18,7.47,11.19,1.86,20.52-5.6,11.2-5.6,11.2-5.6l8.18-54.48s-26.84,6-26.84-5.22-1.87-13.06-16.79-1.87-13.06-16.79-13.06-16.79S523.75,1028.11,510.69,1067.29Z"/><path class="cls-11" d="M496.79,1079.91S562.55,1134.6,587,1129"/><path class="cls-15" d="M909,1149.91s148-19,158.42-25.6"/><path class="cls-11" d="M641.29,1158.71s139.93-28,188.44,0"/><path class="cls-10" d="M922.86,1221.11s29.85-31.72,41-3.74,37.32-1.86,39.18-13.06,29.85-33.58,42.91,0,28-13.06,28-13.06,7.46-22.38,16.79-9.32,1.87,35.44,20.52,50.37,46.65,18.66,28,29.85-76.49-28-74.63-13.06-18.66,14.93-48.51,0-37.31,22.39-37.31,22.39-29.85,28-42.91,13.06-11.42-20-11.42-20"/><path class="cls-11" d="M925,1237s126,.65,174.9-21.09"/><path class="cls-12" d="M436.06,1175.51c4.39,26.34-14.93,67.16-26.12,72.76s7.46,16.79,39.18,0,31.72,9.33,31.72,9.33,3.73,18.65,26.12,0,22.39-18.66,28-5.6,29.85,1.87,29.85-9.33a16.06,16.06,0,0,1,9.33-14.92l8.38-65.25s-40.09,11.14-43.83,0-20.52-9.33-28,7.46-35.45,13.06-35.45-9.33-18.66,11.19-18.66,11.19-9.33,11.2-14.92-5.59S432.33,1153.12,436.06,1175.51Z"/><path class="cls-13" d="M637.5,1237.5c1.87,1.87,26.18-2.29,29.91-13.49s24.25,3.74,24.25,13.06,39.18,13.06,48.51-1.86,35.45-29.85,42.91-5.6,29.85,14.93,31.72,7.46,19.7,28.43,19.7,28.43-1.87-71.27,0-75-191.4-11.73-197-8Z"/><path class="cls-14" d="M917.41,1168l147.4-29.85s23.2,54,30.25,54,50,37.39,12.66,22.47-39.18,11.19-39.18,11.19-13.06,22.39-29.85,1.87-33.59,0-33.59,0-24.25,31.71-44.77-7.47S923,1233.34,923,1233.34Z"/><path class="cls-15" d="M922,1201s139.07-18,163.33-19.9"/><path class="cls-11" d="M641.29,1203.49s162.34-6.2,188.45,11.83"/><path class="cls-11" d="M433.61,1205.25S557,1195,575,1204"/><path class="cls-16" d="M710.32,1143.79l-59.7,5.6C637.56,1155,640,1114.24,645,1099c5.6-16.79-3.73-3.73-3.73-3.73-24.26,28-44.78,9.33-37.32,3.73s5.6-26.12-13.06-18.66c-25,10-33.58,9.33-28,0s-5.6-7.46-22.39-24.25,9.33-22.39,9.33-22.39,29.85-5.6,28-24.25,44.78-20.53,42.92,11.19c0,0,3.73,22.39,29.85,11.2s7.46,20.52,3.73,39.18c-3.15,15.73,33.58-1.87,31.72,20.52,0,0-1.87,33.58,31.71,22.39s-3.73,29.85-3.73,29.85Z"/><path class="cls-17" d="M760.69,1140.06s18.66-22.39,7.47-33.59-11.2-33.58,0-31.71,37.31-35.45,59.7-18.66,29.85-11.19,29.85-14.93,48.68-27.47,57.84,0c5.6,16.8,18.68,3.72,20.33.4.11-.22.2-.42.3-.65,1.35-3.21,15.46-35,27.88,5.85,5,16.43,9.72,25.74,13.65,31a12.41,12.41,0,0,0,15.7,3.49c9.52-5,38.33,8.17,15.42,19.63-7.46,3.73-8.29,4.46-5.74,8.6a12.47,12.47,0,0,1-6.19,18.26l-12,4.49a12.42,12.42,0,0,1-16.83-11.48c0-5.75-2.53-13.45-7.76-10.54-16.8,9.32-26.12,0-14.93-14.93,10.27-13.69-6.15-2.26-8.94-.28l-.7.54c-3.55,2.94-38.14,28.14-18.35-11.45,9.33-18.66-6.2-12.24-18.73,1a12.49,12.49,0,0,1-17.66.44c-7-6.55-17.33-12.73-27-5.18-16.79,13.06-24.25,9.33-24.25,33.59"/><path class="cls-15" d="M656.48,1097.66s-58.1-62.08-89.82-73.28"/><path class="cls-11" d="M771.89,1110.21s128.77-106.85,201.52-8.65"/><path class="cls-16" d="M579.72,1175.51a14.72,14.72,0,0,0-13.06,9.32c-3.73,9.33-16.79,22.39-18.66,5.6s-28-16.79-29.85-5.6-26.12,20.53-28,9.33-9.33-18.65-28-11.19-22.39,3.73-11.19-16.79a95.45,95.45,0,0,0,8.9-23.17,75.83,75.83,0,0,0,2.29-16s-3.73-1.87,1.87-16.79,9.32,3.73,16.79,5.59,22.39-7.46,26.12,11.2,16.79,18.65,31.71,13.06,16.8-24.26,28,0,19.84-1.56,19.84-1.56"/><path class="cls-18" d="M637.5,1124.5s18.71-44.15,35.51-23.62,31.71,24.25,50.37,7.46,32.07-26.62,43.09-6.78,3.55,21.71,27.81,12.38,29.85-16.79,35.45,1.86c0,0,3.77,65.64,3.77,78.7s-22.43,33.25-33.63,10.86-7.46-18.66-22.38-5.6-24.26,7.46-33.59-5.6-24.25,11.2-26.12,14.93-20.52-3.73-26.12-14.93-28-5.59-31.71,5.6-22.45-10.26-22.45-10.26"/><path class="cls-17" d="M898.76,1113.94s18.65-3.73,20.52-13.06,16.79-13.06,24.25,9.33c0,0,11.2,9.32,16.8-5.6s20.52-1.87,24.25,16.79,35.45-13.06,33.58-16.79,0-26.12,13.06-7.46,11.2-3.74,11.2-3.74-3.73-33.58,13.06,1.87,20.52,67.17,44.77,80.23-20.52,9.32-42.91-16.8-11.19,0-11.19,0,16.07,47.67-22.39,13.06c-18.66-16.79-31.72-24.25-39.18-9.32s-1.87,44.77-20.52,31.71-18.66-37.31-24.26-22.39-20.52,26.12-20.52,26.12Z"/><path class="cls-11" d="M458.45,1141.92S569.94,1141.07,583,1156"/><path class="cls-18" d="M510.69,1067.29c-2.5,7.51-50.38,37.32-57.84,37.32s-13.06,11.19,22.39,22.39,9.33,26.12,9.33,26.12-16.79,18.65,29.85,5.59,37.31,1.87,39.18,7.47,11.19,1.86,20.52-5.6,11.2-5.6,11.2-5.6l8.18-54.48s-26.84,6-26.84-5.22-1.87-13.06-16.79-1.87-13.06-16.79-13.06-16.79S523.75,1028.11,510.69,1067.29Z"/><path class="cls-11" d="M496.79,1079.91S562.55,1134.6,587,1129"/><path class="cls-15" d="M909,1149.91s148-19,158.42-25.6"/><path class="cls-11" d="M641.29,1158.71s139.93-28,188.44,0"/><path class="cls-19" d="M925.58,955.89s179.58-119.83,355.64-104.17C1456.08,867.28,1419.91,1044,1419.91,1044l-104.91.89c-10.85-50.59-62.81-42.21-62.81-42.21-77.88,29.06-82.56,274.59-127.42,280.33C1124.77,1283,1114.67,1145.64,925.58,955.89Z"/><path class="cls-6" d="M1105.5,1189.5s37-106-53.61-106.69"/><path class="cls-6" d="M1156.36,1132.67s-4.49-54-55.63-67.17"/><path class="cls-6" d="M1100.17,1098.47s19.56-66.92-52.36-82.11"/><path class="cls-6" d="M1052.11,1107.6s27.12-91-61.69-94"/><path class="cls-6" d="M1045.5,1035.5s18.75-80.86-54.48-82.42"/><path class="cls-6" d="M989.64,1021.76s10.28-83.06-54.14-67.26"/><path class="cls-6" d="M983.5,963.5s25-29.12,11.39-50.52"/><path class="cls-6" d="M1171.81,1059.53s-27.87-37.09-79.31-20"/><path class="cls-6" d="M1123.07,1032.56s-16.34-62.36-75.57-46.06"/><path class="cls-6" d="M1061.88,979.18s-2.29-37.37-26.79-43.22c-8.16-2-22.75,2.93-36.59,10.54"/><path class="cls-6" d="M1027.7,898.82s16.86,15.39,7,36.45"/><path class="cls-6" d="M1188.43,1019.7s-27.09-39.18-78.79-19.39"/><path class="cls-6" d="M1130.74,995.11s-9.07-65.2-71.42-43.7"/><path class="cls-6" d="M1075.76,943.87s13.72-35.28-19.61-51"/><path class="cls-6" d="M1202.47,1007.9s-6-65.28-78.24-50.22"/><path class="cls-6" d="M1120.85,961.52s13.35-79.95-41.74-52.23"/><path class="cls-6" d="M1118.58,907.59s36.57-28.49,16.92-42.09"/><path class="cls-6" d="M1100.93,900.38s8.15-11.4,2.27-23.16"/><path class="cls-6" d="M1166.57,953.5s9.93-48.58-27.71-66"/><path class="cls-6" d="M1230.62,985s9.36-51.36-37.24-56.85a75.91,75.91,0,0,0-19.61,0"/><path class="cls-6" d="M1173.67,879.88l-16.37,6.67c40-7.15,30.34,38.71,30.34,38.71"/><line class="cls-6" x1="1175.51" y1="860.79" x2="1157.3" y2="886.55"/><path class="cls-6" d="M1262,1000.72s29.81-95.69-51.24-70.48"/><path class="cls-6" d="M1211,927.52s23.7-55.52-35.5-66.73"/><path class="cls-6" d="M1242,850.69s14,17.86-25,41.63"/><path class="cls-6" d="M1254.15,930.15c8.31-4.7,21-43.23-11.65-57.39"/><path class="cls-6" d="M1283.55,854.7s12.69,31.5-16.93,39.65"/><path class="cls-6" d="M1285.51,1006.6s21.79-50.29-21.56-62.73"/><path class="cls-6" d="M1280.68,886.07s30.58,34.6-6.6,66.8"/><path class="cls-6" d="M1332.77,867.68s2.06,22-21.67,31.6a65.11,65.11,0,0,1-20.89,4.23"/><path class="cls-6" d="M1294.33,960.32s43.65-17.8,19.29-64.19"/><path class="cls-6" d="M1362,877.22s-3.7,45.24-37.72,44.71"/><path class="cls-6" d="M1308.82,950.71s28.07,30.23-4.44,68.38"/><path class="cls-6" d="M1339.19,919.16s15,30.8-16.43,58"/><path class="cls-6" d="M1385.49,896.83s13,42.14-42.72,49.72"/><path class="cls-6" d="M1363.93,943.87s6.2,55.73-43.13,51"/><path class="cls-6" d="M1414.89,943.87s-12.28,37.85-51,31.37"/><path class="cls-6" d="M1421.88,996S1392,1013.09,1358,985"/><path class="cls-6" d="M1416.85,1034.05s-53.8,1.71-50.9-28.28"/><path class="cls-6" d="M1371.77,998.76s-25.49,27.45-56.47,15.88"/><path class="cls-6" d="M1200.5,986.5s26.7-14.9,45.07,19.27"/><path class="cls-6" d="M1138.49,1079.14s33.32-33.33,64.69-7.85"/><path class="cls-6" d="M1155.5,1042.5s43.76-47.66,73.16-28"/><path class="cls-6" d="M1105.16,1206.56s11.76-37.25,62.73-9.8"/><path class="cls-6" d="M1111.76,1144.75s49.33-33.61,65.47,2.34"/><path class="cls-20" d="M1471.74,1094.82s-9.8-51-51-51l-107.81,2s-68.61,37.25-51,101.94,2,74.49-23.53,98c0,0,119.58-15.68,111.74-70.57s13.73-49,13.73-49,70.57-7.84,17.64,109.78a130.55,130.55,0,0,0,37.2-9.25c33.77-13.84,75.16-48,53-131.89"/><path class="cls-6" d="M1334.52,1045.81s-15.53,46.14-29.4,129.38c-9.81,58.81-66.66,70.57-66.66,70.57"/><path class="cls-6" d="M1367.85,1045.81s-23.53,54.89-17.65,92.14"/><path class="cls-6" d="M1391.34,1046.35s7.73,17.16,9.76,114.17"/><path class="cls-6" d="M1422.73,1045.81s42.44,95.25,4.56,177"/><path class="cls-21" d="M922.86,1221.11s29.85-31.72,41-3.74,37.32-1.86,39.18-13.06,29.85-33.58,42.91,0,28-13.06,28-13.06,7.46-22.38,16.79-9.32,1.87,35.44,20.52,50.37,46.65,18.66,28,29.85-76.49-28-74.63-13.06-18.66,14.93-48.51,0-37.31,22.39-37.31,22.39-29.85,28-42.91,13.06-11.42-20-11.42-20"/><path class="cls-11" d="M925,1237s126,.65,174.9-21.09"/><path class="cls-22" d="M436.06,1175.51c4.39,26.34-14.93,67.16-26.12,72.76s7.46,16.79,39.18,0,31.72,9.33,31.72,9.33,3.73,18.65,26.12,0,22.39-18.66,28-5.6,29.85,1.87,29.85-9.33a16.06,16.06,0,0,1,9.33-14.92l8.38-65.25s-40.09,11.14-43.83,0-20.52-9.33-28,7.46-35.45,13.06-35.45-9.33-18.66,11.19-18.66,11.19-9.33,11.2-14.92-5.59S432.33,1153.12,436.06,1175.51Z"/><path class="cls-23" d="M637.5,1237.5c1.87,1.87,26.18-2.29,29.91-13.49s24.25,3.74,24.25,13.06,39.18,13.06,48.51-1.86,35.45-29.85,42.91-5.6,29.85,14.93,31.72,7.46,19.7,28.43,19.7,28.43-1.87-71.27,0-75-191.4-11.73-197-8Z"/><path class="cls-24" d="M917.41,1168l147.4-29.85s23.2,54,30.25,54,50,37.39,12.66,22.47-39.18,11.19-39.18,11.19-13.06,22.39-29.85,1.87-33.59,0-33.59,0-24.25,31.71-44.77-7.47S923,1233.34,923,1233.34Z"/><path class="cls-15" d="M922,1201s139.07-18,163.33-19.9"/><path class="cls-11" d="M641.29,1203.48S803.35,1202.6,828,1213"/><path class="cls-11" d="M429,1203s124-9,142,0"/><path class="cls-25" d="M710.32,1143.79l-59.7,5.6C637.56,1155,640,1114.24,645,1099c5.6-16.79-3.73-3.73-3.73-3.73-24.26,28-44.78,9.33-37.32,3.73s5.6-26.12-13.06-18.66c-25,10-33.58,9.33-28,0s-5.6-7.46-22.39-24.25,9.33-22.39,9.33-22.39,29.85-5.6,28-24.25,44.78-20.53,42.92,11.19c0,0,3.73,22.39,29.85,11.2s7.46,20.52,3.73,39.18c-3.15,15.73,33.58-1.87,31.72,20.52,0,0-1.87,33.58,31.71,22.39s-3.73,29.85-3.73,29.85Z"/><path class="cls-26" d="M760.69,1140.06s18.66-22.39,7.47-33.59-11.2-33.58,0-31.71,37.31-35.45,59.7-18.66,29.85-11.19,29.85-14.93,48.68-27.47,57.84,0c5.6,16.8,18.68,3.72,20.33.4.11-.22.2-.42.3-.65,1.35-3.21,15.46-35,27.88,5.85,5,16.43,9.72,25.74,13.65,31a12.41,12.41,0,0,0,15.7,3.49c9.52-5,38.33,8.17,15.42,19.63-7.46,3.73-8.29,4.46-5.74,8.6a12.47,12.47,0,0,1-6.19,18.26l-12,4.49a12.42,12.42,0,0,1-16.83-11.48c0-5.75-2.53-13.45-7.76-10.54-16.8,9.32-26.12,0-14.93-14.93,10.27-13.69-6.15-2.26-8.94-.28l-.7.54c-3.55,2.94-38.14,28.14-18.35-11.45,9.33-18.66-6.2-12.24-18.73,1a12.49,12.49,0,0,1-17.66.44c-7-6.55-17.33-12.73-27-5.18-16.79,13.06-24.25,9.33-24.25,33.59"/><path class="cls-11" d="M656.48,1097.66S596.72,1034.19,565,1023"/><path class="cls-11" d="M771.89,1110.21s128.77-106.85,201.52-8.65"/><path class="cls-25" d="M579.72,1175.51a14.72,14.72,0,0,0-13.06,9.32c-3.73,9.33-16.79,22.39-18.66,5.6s-28-16.79-29.85-5.6-26.12,20.53-28,9.33-9.33-18.65-28-11.19-22.39,3.73-11.19-16.79a95.45,95.45,0,0,0,8.9-23.17,75.83,75.83,0,0,0,2.29-16s-3.73-1.87,1.87-16.79,9.32,3.73,16.79,5.59,22.39-7.46,26.12,11.2,16.79,18.65,31.71,13.06,16.8-24.26,28,0,19.84-1.56,19.84-1.56"/><path class="cls-27" d="M637.5,1124.5s18.71-44.15,35.51-23.62,31.71,24.25,50.37,7.46,32.07-26.62,43.09-6.78,3.55,21.71,27.81,12.38,29.85-16.79,35.45,1.86c0,0,3.77,65.64,3.77,78.7s-22.43,33.25-33.63,10.86-7.46-18.66-22.38-5.6-24.26,7.46-33.59-5.6-24.25,11.2-26.12,14.93-20.52-3.73-26.12-14.93-28-5.59-31.71,5.6-22.45-10.26-22.45-10.26"/><path class="cls-26" d="M898.76,1113.94s18.65-3.73,20.52-13.06,16.79-13.06,24.25,9.33c0,0,11.2,9.32,16.8-5.6s20.52-1.87,24.25,16.79,35.45-13.06,33.58-16.79,0-26.12,13.06-7.46,11.2-3.74,11.2-3.74-3.73-33.58,13.06,1.87,20.52,67.17,44.77,80.23-20.52,9.32-42.91-16.8-11.19,0-11.19,0,16.07,47.67-22.39,13.06c-18.66-16.79-31.72-24.25-39.18-9.32s-1.87,44.77-20.52,31.71-18.66-37.31-24.26-22.39-20.52,26.12-20.52,26.12Z"/><path class="cls-11" d="M455,1142s114.94-.93,128,14"/><path class="cls-27" d="M510.69,1067.29c-2.5,7.51-50.38,37.32-57.84,37.32s-13.06,11.19,22.39,22.39,9.33,26.12,9.33,26.12-16.79,18.65,29.85,5.59,37.31,1.87,39.18,7.47,11.19,1.86,20.52-5.6,11.2-5.6,11.2-5.6l8.18-54.48s-26.84,6-26.84-5.22-1.87-13.06-16.79-1.87-13.06-16.79-13.06-16.79S523.75,1028.11,510.69,1067.29Z"/><path class="cls-11" d="M491,1077s67.55,59.6,92,54"/><path class="cls-15" d="M909,1149.91s152.55-19.27,163-25.91"/><path class="cls-11" d="M638,1156s142.73-21.28,189,0"/><circle class="cls-28" cx="505.86" cy="736.69" r="185.71"/><circle class="cls-28" cx="1007.51" cy="725.09" r="179.48"/><path d="M403.44,514.2a109.72,109.72,0,0,1,10.35-9.51c3.62-3,7.42-5.76,11.3-8.43a175.25,175.25,0,0,1,24.63-13.93,160.85,160.85,0,0,1,54.93-14.39,150.07,150.07,0,0,1,28.59.74l7.08,1c2.35.42,4.67,1,7,1.45,1.16.26,2.33.49,3.48.77l3.44,1c2.28.68,4.58,1.28,6.83,2a161,161,0,0,1,49.31,27C594,493,577,485.64,559.29,481c-2.21-.59-4.45-1-6.67-1.54l-3.33-.77c-1.12-.22-2.25-.38-3.37-.57-2.25-.36-4.48-.77-6.73-1.11l-6.77-.74c-2.25-.31-4.53-.32-6.79-.48l-3.4-.19c-1.13-.07-2.27,0-3.4,0-2.27,0-4.54-.07-6.8,0l-6.8.36a187.07,187.07,0,0,0-53.07,12.19,221.69,221.69,0,0,0-25.05,11.5c-2.06,1-4.05,2.21-6.08,3.33s-4,2.35-6,3.56c-1,.59-2,1.21-3,1.84s-1.95,1.25-2.92,1.9C407.24,511.49,405.33,512.82,403.44,514.2Z"/><path d="M1104.69,507.53c-2-1.39-4-2.72-6-4s-4.07-2.54-6.15-3.73q-6.19-3.63-12.61-6.81a201.85,201.85,0,0,0-26.26-10.93,154.58,154.58,0,0,0-55.31-8.35,138.09,138.09,0,0,0-54,13.91c-17,8.25-32.53,19.49-47.08,32.16a157.5,157.5,0,0,1,44.18-37.74A126.91,126.91,0,0,1,998,465.73a139.41,139.41,0,0,1,57.83,10.46,166.43,166.43,0,0,1,26,13.41c4.08,2.66,8.11,5.38,11.93,8.38A110.5,110.5,0,0,1,1104.69,507.53Z"/><path class="cls-29" d="M420.84,663.6c-.35,0-.71,0-1.06,0v0Z"/><ellipse class="cls-30" cx="528.84" cy="742.14" rx="146.75" ry="136.5"/><ellipse class="cls-30" cx="991.54" cy="731.14" rx="156.13" ry="146.75"/><path d="M680.21,740.92c0,41.9-24.6,70.51-55.58,70.51-1,0-1.92,0-2.89-.08h-186c-31,0-56.57-28.61-56.57-70.51,0-41.47,26-76.49,56.57-77.22.32,0,.66,0,1,0H626.27v1.48C656.25,666.6,680.21,700,680.21,740.92Z"/><path d="M1147.68,736c0,41.9-25.11,70.51-56.71,70.51-1,0-2,0-3-.08H898.21c-31.59,0-57.72-28.61-57.72-70.51,0-41.47,26.57-76.49,57.72-77.23h194.43v1.48C1123.23,661.65,1147.68,695,1147.68,736Z"/><circle class="cls-31" cx="630.02" cy="676.86" r="34.93"/><circle class="cls-31" cx="1104.47" cy="663.66" r="34.47"/><ellipse class="cls-31" cx="420.46" cy="812.26" rx="12.08" ry="35.67" transform="translate(-408.18 1199.46) rotate(-87.68)"/><ellipse class="cls-31" cx="932.24" cy="801.73" rx="11.68" ry="34.47" transform="translate(93.4 1700.71) rotate(-87.68)"/><path class="cls-32" d="M980.06,188.46a1.63,1.63,0,0,1-.47.2c-4.09,1-58.5,14.93-78.7,43.21-20.65,28.89-37.87,94.76-38.45,97l0,0a2.38,2.38,0,0,1-2.65.3l-1.33-.67a1.74,1.74,0,0,1-1.56-1.94h0c3.39-25.75,28-84.89,39.31-106,11.53-21.64,88.42-58.61,94.88-50.4C997.07,177.83,982.12,187.22,980.06,188.46Z"/><path class="cls-32" d="M687.53,328.38c3.9-22.7-27.45-82.12-40.67-103.15S531,163.14,520.8,170.15s13.22,18,13.22,18,79.29,18,104.71,47.07,40.66,93.14,40.66,93.14S685.05,342.77,687.53,328.38Z"/><path class="cls-33" d="M301,401.73c9-1.8,99.73-30.86,61.55-77.46l8.56-7s64.73-1.8,75.51,3.6,96.95,43.45,96.95,43.45-37.62-9.29-93.35,50c0,0-82.7-27-167.2,0Z"/><path class="cls-33" d="M381.18,312.72c-10.25-2.27,73.7-9,56.34-61.46,0,0,74.11-16.75,159.31,85,.06.06,0,.18-.07.15-3.33-1.24-30.09-8.4-57.26,26.12C539.5,362.5,480.72,322.3,381.18,312.72Z"/><path class="cls-34" d="M543.7,364c3.35,2.21-121.06-53.2-166-42.41s-18-12.59,18-12.59S453.8,304.65,543.7,364Z"/><path class="cls-34" d="M449.61,413.26c3.88,1-122.26-14.39-165.41,10.79s-25.17-1.8,0-16.19c5.76-3.29,11.15-6.48,17.49-9.07C323.06,390.08,355.33,388.3,449.61,413.26Z"/><path class="cls-33" d="M1161.65,295.37s-59.58-5.1-40.84-55.45c0,0-65.74-12.82-133.62,80.11-.48.66,0,1.75.66,1.57,6.63-1.71,22.11-1.73,40.76,25.45a.83.83,0,0,0,1.19.2C1036.18,342.2,1086.92,303.74,1161.65,295.37Z"/><path class="cls-35" d="M986.61,319.47a.57.57,0,0,0,.89.68c14.4-14.38,78.65-76.36,116.8-77.95,43.16-1.8,0-12.59,0-12.59s-32-12.58-66.82,23.37A358.53,358.53,0,0,0,986.61,319.47Z"/><path class="cls-33" d="M1221.5,385.55c-7-1.8-76.32-30.71-46.75-77.31l-11-7.45s-50.12-1.8-58.47,3.59c-7.75,5-65.73,38.12-74.08,42.89a.17.17,0,0,0,.12.32c5.73-1,33-2.27,71.17,50.28,0,0,64-27,129.48,0Z"/><path class="cls-34" d="M601.93,338.83a.13.13,0,0,1-.19.17c-8.81-6.95-100.9-78.65-153.93-80.36-55.73-1.8,0-12.58,0-12.58s41.35-12.59,86.3,23.37C575.25,302.34,598.31,333.74,601.93,338.83Z"/><path class="cls-36" d="M1029.12,347.79c-2.6,2.22,94.67-53.46,129.48-42.67s13.92-12.58-13.93-12.58S1098.73,288.46,1029.12,347.79Z"/><path class="cls-35" d="M1102.91,396.81c-3,1,94.67-14.38,128.08,10.79s19.49-1.8,0-16.18c-4.46-3.29-8.63-6.49-13.54-9.07C1200.9,373.63,1175.91,371.86,1102.91,396.81Z"/><path class="cls-37" d="M603.57,337.67c-3.45-1.17-30.82-8.83-59,23.48.49.33,2.22.06-2-1.65,3.69,1.64,1.92,2,1.92,2s-37.63-9.3-93.37,50c0,0-1.54-.5-4.45-1.31,0,0,0,0,0,0-21.49-1.85-123.57-11.09-161.5,11-43.15,25.17-25.17-1.8,0-16.18,5.75-3.29,11.13-6.49,17.47-9.08a77.14,77.14,0,0,1,22.84-5.36c27.45-12,65.06-36.17,38-69.16-16.16,1.35-7.07-7.7,11.25-12.46a86.34,86.34,0,0,1,15.79-2.59l0,0c21.95-4.85,57.44-18.05,44.15-51.38-30.62-3.11,14-11.76,14-11.76S490,230.65,535,266.6c41.14,32.9,64.2,64.31,67.82,69.4.07.13-.08.27-.18.18l-.92-.72c.66.68,1.31,1.37,2,2.07C603.69,337.58,603.64,337.69,603.57,337.67Z"/><path class="cls-37" d="M1231.83,404.77c-29.37-22.13-108.43-12.89-125.06-11,0,0,0,0,0,0-2.23.81-3.43,1.31-3.43,1.31-38.23-52.55-65.45-51.25-71.16-50.28-.2,0-2.41-.18-2.67-.54-18.66-27.17-34.14-27.15-40.77-25.44-.59.16-1-.65-.79-1.3a.55.55,0,0,1-.43-.84,357.24,357.24,0,0,1,50.86-66.49c34.79-36,66.81-23.37,66.81-23.37s27.88,7,16.41,10.64c-12.69,34.52,11.62,47.65,27.9,52.45,4.7.36,9,1.65,13,2.66,19.51,4.92,13.16,12.89,13.16,12.89-21.17,33.37,8.38,57.66,29.42,69.43a47.28,47.28,0,0,1,13.28,4.66,106.64,106.64,0,0,1,13.54,9.08C1251.32,403,1265.24,429.94,1231.83,404.77Z"/><path class="cls-38" d="M767.62,914c3.91-3.13-20.38-31.69,17-19.48a3,3,0,0,0,2-.18c5.46-2.33,32.08-12.48,18.31,17.24a3.35,3.35,0,0,0,.86,3.94c4.92,4.14,14.73,15.73-19.76,22.18a3.69,3.69,0,0,1-.74,0C781,937.61,740.83,935.45,767.62,914Z"/><path class="cls-39" d="M775.54,914a18.7,18.7,0,0,1,4.32-1.94A22.91,22.91,0,0,1,798.17,914"/><path class="cls-40" d="M775.54,903.84s2.52,8,5.22,8"/><path class="cls-41" d="M783.46,910.63a14.33,14.33,0,0,0,2.26-6.79c0-3.39-1,7.55,1.77,7.17S783.46,910.63,783.46,910.63Z"/><path class="cls-41" d="M793.24,912s4.93-4.72,4.93-8.12"/><path class="cls-41" d="M780.06,911.76s-2.26,4.53-1.13,6.79"/><path class="cls-41" d="M792.76,911.83s3.15,3.33,2,6.72"/><path class="cls-41" d="M786.15,911a21.43,21.43,0,0,0,.71,7.53"/></g></svg>