<?xml version="1.0" encoding="UTF-8"?><svg id="Layer_1" xmlns="http://www.w3.org/2000/svg" viewBox="0 0 1500 1500"><defs><style>.cls-1,.cls-2,.cls-3,.cls-4{stroke-width:5px;}.cls-1,.cls-2,.cls-3,.cls-4,.cls-5,.cls-6,.cls-7,.cls-8,.cls-9,.cls-10,.cls-11,.cls-12,.cls-13,.cls-14,.cls-15,.cls-16,.cls-17,.cls-18{stroke:#000;}.cls-1,.cls-4{stroke-linejoin:round;}.cls-1,.cls-4,.cls-8,.cls-19,.cls-10{stroke-linecap:round;}.cls-1,.cls-20,.cls-8,.cls-15{fill:#cfb8d1;}.cls-2,.cls-3,.cls-5,.cls-6,.cls-7,.cls-8,.cls-9,.cls-19,.cls-10,.cls-11,.cls-21,.cls-22,.cls-12,.cls-23,.cls-13,.cls-14,.cls-15,.cls-16,.cls-17,.cls-18{stroke-miterlimit:10;}.cls-2,.cls-4,.cls-6,.cls-11,.cls-22{fill:#fff;}.cls-3,.cls-24,.cls-5,.cls-7,.cls-14{fill:#e57638;}.cls-25{fill:#045ba3;}.cls-26{fill:#0075e7;}.cls-27,.cls-9,.cls-21{fill:#f5f1d3;}.cls-28,.cls-23{fill:#9b869d;}.cls-5,.cls-6{stroke-width:2px;}.cls-7{stroke-width:4px;}.cls-8,.cls-9,.cls-18{stroke-width:9px;}.cls-19{fill:#ffe7ff;stroke:#ffe7ff;}.cls-10,.cls-11,.cls-13{stroke-width:8px;}.cls-10,.cls-13,.cls-18{fill:none;}.cls-21{stroke:#8f0023;}.cls-22{stroke:#fff;}.cls-12{fill:#a0c4ff;}.cls-23{stroke:#9b869d;}.cls-14,.cls-15,.cls-16,.cls-17{stroke-width:6px;}.cls-16{fill:#bfbfbd;}.cls-17{fill:#f9c2a7;}</style></defs><rect class="cls-12" width="1500" height="1500"/><path class="cls-20" d="m867.8,861.13h151.17c49.49,0,89.66,40.18,89.66,89.66v202.59h-172.12c-54.84,0-99.36-44.52-99.36-99.36v-162.26c0-16.91,13.73-30.64,30.64-30.64Z" transform="translate(1980.16 34.35) rotate(90)"/><path class="cls-28" d="m904.07,923.23c69.02,9.76,143.92,57.93,152.74,132.03,2.45,19.86-.16,40.47-6.81,59.18,1.22-16.78,1.28-33.11-1.59-49.51-11.9-72.95-80.93-115.55-144.33-141.7h0Z"/><path class="cls-28" d="m922.52,893.04c78.26,11.24,163.54,70.45,162.87,156.67.01,9.92-1.25,19.89-3.53,29.51-.51-14.07-1.78-27.64-5.06-41.08-17.16-74.31-88.33-117.51-154.29-145.1h0Z"/><path class="cls-23" d="m973.68,878.78s109.03,23.48,129.15,139.22c0,0,11.7-105.61,0-112.38-31.87-18.45,30.64-26-129.15-26.84Z"/><path class="cls-23" d="m932.58,926.59c-5.03-16.77,13.42-20.13,18.45-18.45s8.39-8.39,8.39-8.39c0,0,1.16-10.6,17.61-14.26,15.1-3.35,21.81,1.68,21.81,1.68,0,0-50.64-20.97-65.42-3.35-14.77,17.61-33.3,25.13-33.3,25.13l22.39,25.83,10.06-8.19Z"/><path class="cls-13" d="m868.62,861.66h151.17c49.49,0,89.66,40.18,89.66,89.66v202.59h-172.12c-54.84,0-99.36-44.52-99.36-99.36v-162.26c0-16.91,13.73-30.64,30.64-30.64Z" transform="translate(1981.51 34.07) rotate(90)"/><path class="cls-20" d="m615.57,953.43s-284.34,252.28-89.42,337.29c0,0,464.58,39.57,517.34-8.79,52.76-48.36,36.64-203.71-126.04-353.2-162.68-149.49-301.89,24.71-301.89,24.71Z"/><path class="cls-20" d="m617.24,938.33s-284.34,252.28-89.42,337.29c0,0,464.58,39.57,517.34-8.79,52.76-48.36,36.64-203.71-126.04-353.2-162.68-149.49-301.89,24.71-301.89,24.71Z"/><path class="cls-28" d="m464.61,1163.09s20.13-21.81,31.87,1.68c8.68,17.36,16.44,56.72,19.9,76.06.67,3.76-3.6,6.42-6.67,4.14-9.81-7.31-26.49-17.55-41.75-16.46-23.48,1.68-3.35-65.42-3.35-65.42Z"/><path class="cls-28" d="m524.99,1275.47s350.41,15.63,363.06,14.52c12.66-1.1-5.01,20.67-27.21,19.01-22.2-1.66-330.19-14.79-334.7-16.61-4.51-1.82-1.16-16.92-1.16-16.92Z"/><path class="cls-28" d="m826.91,926.59s161.02,127.48,181.15,348.88c0,0,47.6,37.74,62.38-48.22,0,0,23.26-145.55-170.52-313.68-193.78-168.13,0,0,0,0l-73.01,13.02Z"/><path class="cls-28" d="m660.02,924.07s30.19,1.68,41.93,28.51,107.35,52,152.64,26.84c45.29-25.16,63.74-11.74,63.74-11.74l-41.93-43.61-216.37-12.96v12.96Z"/><path class="cls-13" d="m616.75,955.89s-284.34,252.28-89.42,337.29c0,0,464.58,39.57,517.34-8.79,52.76-48.36,36.64-203.71-126.04-353.2-162.68-149.49-301.89,24.71-301.89,24.71Z"/><path class="cls-20" d="m540.86,1293.95c-4.43-8.21-122.69-1.45-171.04,11.53-48.35,12.98-47.62-24.51-47.62-24.51l-11.55-68.44s-13.66-53.91,20.29-58.83c33.95-4.92,36.87,43.88,41.39,69.54,4.52,25.66,36.72,16.52,36.72,16.52l87.42-12.92"/><path class="cls-28" d="m375.71,1297.28s78.64-34.41,158.41-21.4l3.66,16.41-162.07,4.99Z"/><path class="cls-19" d="m306.94,1199.99s4.49-40.18,13.98-42.73c9.5-2.55-12.31,36.02,22.92,134.99,0,0,8.78,15.07,3.55,16.76s-27.03,6.72-33.74-53.66c-6.71-60.38-6.71-55.35-6.71-55.35Z"/><path class="cls-28" d="m355.58,1171.48s-10.06-33.55-11.74-11.74c0,0,8.39,72.12,23.48,88.9,17.09,18.99,80.51-8.39,80.51-8.39,0,0-65.42,5.03-70.45-3.35s-21.81-65.42-21.81-65.42Z"/><path class="cls-10" d="m493.12,1228.51l-84.56,12.03s-32.2,9.13-36.72-16.52c-4.52-25.66-7.44-74.45-41.39-69.54-33.95,4.92-20.29,58.83-20.29,58.83l11.55,68.44s-.73,37.49,47.62,24.51c48.35-12.98,166.6-19.74,171.04-11.53"/><path class="cls-20" d="m869.03,1305.15s73.98,12.33,91.24,24.66c17.26,12.33,69.04,0,66.58-12.33-2.47-12.33,49.32-167.68-51.78-120.83,0,0-27.12,29.59-22.19,73.98"/><path class="cls-19" d="m950.19,1266.25s12.45-66.54,24.25-66.4c6.35.08,39.48-9.08,27.74-4.05-7.15,3.06-18.26,36.7-20.97,49.48-3.97,18.73-3.3,39.49-7.55,42.77-4.25,3.29-13.42-10.9-23.48-21.81Z"/><path class="cls-28" d="m984.58,1330.82c4.03,1.01,2.36-19.21,2.73-23.35l7.33-80.64s11.4-56.37,38.58-13.42c1.21,1.91.32-5.55.77-3.34,2.63,12.81,9.68,60.3-17.54,109.02,0,0-11.05,27.53-94.42-2.17,0,0-44.79-2.86-44.79-16.28,0-4.75,11.74-10.06,11.74-10.06,0,0,50.07,2.38,53.67,8.39,5.03,8.39,4.49,12.65,20.13,16.77,9.09,2.39,8.39,11.74,21.81,15.1Z"/><path class="cls-10" d="m873.87,1307.34s68.74,9.75,86,22.07c17.26,12.33,62.02-.61,66.58-12.33,5.09-13.1,40.53-141.15-28.27-128.78-16.2,2.91-29.72,13.93-36.72,28.83-6.06,12.92-11.42,31.21-8.99,53.09"/><path class="cls-20" d="m1192.47,527.78c-.94,16.64-3.23,32.92-6.68,48.77-30.38,138.88-143.61,233-227.18,291.76-33.54,23.55-62.31,41.45-79.03,54.22-4.41,3.38-7.99,6.39-10.6,9.07-41.72,42.91-84.6,42.04-117.77,29.69-13.88-5.18-26.06-12.38-35.73-19.18-5.65-3.99-10.43-7.84-14.23-11.12-7-6.04-15.09-10.73-23.89-13.69-50.99-17.24-225.95-85.86-276.32-230.71-18.42-52.99-25.4-99.1-26.24-137.47-.3-15.07.32-28.97,1.53-41.6,7.13-37.9,29.74-73.16,64.09-103.52,73.09-64.65,199.34-107.36,342.83-107.36,45.82,0,89.86,4.36,130.99,12.38,158.9,31.02,274.11,116.93,278.25,218.75Z"/><path class="cls-28" d="m827.6,298.04s613.21,205.86-25.85,655.39c0,0-36.81,3.65-17.57,15.25,19.24,11.59,87.5-39.65,87.5-39.65,0,0,196.41-137.2,199.94-154.52,3.53-17.32,194.74-169.96,85.72-341.04,0,0-134.49-138.32-329.75-135.42Z"/><path class="cls-20" d="m651.29,1022.63s0,161.02-5.74,197.92c-5.74,36.9-17.21-6.71-17.21-6.71,0,0-16.25,73.8-29.64,6.71-13.39-67.09,17.21-197.92,17.21-197.92,0,0-8.85-14.18-19.91,10.98"/><path d="m651.29,1022.63c1.4,39.98,1.84,79.99,1.47,119.99-.41,25.06-.5,50.2-3.15,75.25-.41,3.91-1,7.75-2.02,11.58-.98,3.22-1.84,6.53-4.92,8.75-2.54,1.85-6.25.91-8.11-1.07-2.41-2.39-3.5-4.76-4.84-7.53-2.2-4.9-3.76-9.7-5.18-14.75l7.61-.15c-1.31,5.73-2.82,11.24-4.69,16.8-2.07,5.83-3.98,11.31-7.89,16.5-2.68,3.7-7.94,6.5-12.49,3.33-7.52-5.28-10.25-21.3-12.18-29.89-5.84-32.55-2.94-65.98.89-98.56,4.29-33.85,10.78-67.4,19.17-100.45,0,0,.12.73.12.73-1.13-1.78-2.99-3.41-5.08-3.71-6.74-.47-11.32,9.04-14.01,14.18.91-2.24,1.89-4.45,3.05-6.58,3.74-7.34,11.04-13.56,17.68-4.91,0,0,.21.29.21.29,0,0-.09.44-.09.44-2.16,11.11-4.17,22.26-5.98,33.44-7.35,47.21-14.14,95.18-11.05,143.02.65,8.26,1.74,16.59,3.59,24.67,1.22,5.39,2.64,10.79,4.67,15.54.76,1.76,2.04,4.23,3.34,5.14.19.14.2.09.12.08-.08-.02-.13.04.04-.04.33-.16,1.09-.79,1.75-1.67,2.93-3.93,4.97-9.3,6.66-14.1,3.18-8.83,5.86-21.8,8.06-31.04,0,0,4.08,14.96,4.08,14.96,1.25,4.58,2.78,9.32,4.66,13.54.78,1.73,1.89,3.94,3.06,5.12.19.2.33.2-.03.08-.16-.03-.49-.1-.77-.02-.59.06-.86.56-.41-.04,1.75-3.09,2.45-7.32,3.14-11.02.92-6.04,1.49-12.13,2.02-18.3.72-8.58,1.34-21.09,1.83-29.81,2.27-45.77,3.9-103.63,5.67-149.76h0Z"/><path class="cls-20" d="m899.97,1027.19c-15.22-25.16-27.4-10.98-27.4-10.98,0,0,42.12,130.83,23.69,197.92-18.43,67.09-40.8-6.71-40.8-6.71,0,0-15.79,43.61-23.69,6.71-7.9-36.9-7.9-197.92-7.9-197.92"/><path d="m899.97,1027.19c-5.48-8.66-16.84-20.23-26.46-10.17,0,0,.24-1.19.24-1.19,11.33,33.25,20.21,67.36,26.03,102.04,4.46,27.64,7.33,56,3.48,83.97-.27,1.37-.92,5.34-1.18,6.68-.32,1.52-1.23,5.11-1.57,6.65-2.89,9.78-6.49,23.28-15.25,29.52-16,9.42-26.47-16.02-31.02-27.42-1.08-2.83-2.06-5.59-2.98-8.57l8.34.22c-.97,2.59-1.99,4.94-3.12,7.37-2.9,5.77-5.87,12.08-11.62,15.7-7.66,4.24-13.11-2.72-15.13-9.37-1.73-4.5-2.52-10.99-3.3-15.7-3.69-33.1-3.81-66.15-4.08-99.3-.1-30.48.35-60.96,1.53-91.42.84,20.49,2.95,71.57,3.81,91.3,1.33,27.57,2.75,59.81,5.44,87.13.65,5.75,1.53,12.66,2.67,18.37.96,3.97,1.89,8.56,4.5,11.54.17.15.23.14.17.12-.06-.03-.22-.04-.23-.03-.02,0,.12-.02.34-.15.23-.14.52-.35.83-.62,7.13-7.39,10.55-20.35,14.38-29.82,0,0,3.88,12.11,3.88,12.11,3.15,9.29,9.02,25.55,17.1,31.07,4.23,2.75,8.09-5.32,9.74-8.59,12.68-28.57,11.25-61.92,8.37-92.48-4.2-40.43-12.81-80.38-23.48-119.57,0,0-.2-.73-.2-.73,1.28-1.36,2.74-2.47,4.33-3.23,10.87-5.18,19.88,6,24.45,14.56h0Z"/><path class="cls-18" d="m1193.06,527.19c-.94,16.64-3.23,32.92-6.68,48.77-30.38,138.88-143.61,233-227.18,291.76-33.54,23.55-62.31,41.45-79.03,54.22-4.41,3.38-7.99,6.39-10.6,9.07-41.72,42.91-84.6,42.04-117.77,29.69-13.88-5.18-26.06-12.38-35.73-19.18-5.65-3.99-10.43-7.84-14.23-11.12-7-6.04-15.09-10.73-23.89-13.69-50.99-17.24-225.95-85.86-276.32-230.71-18.42-52.99-25.4-99.1-26.24-137.47-.3-15.07.32-28.97,1.53-41.6,7.13-37.9,29.74-73.16,64.09-103.52,73.09-64.65,199.34-107.36,342.83-107.36,45.82,0,89.86,4.36,130.99,12.38,158.9,31.02,274.11,116.93,278.25,218.75Z"/><circle class="cls-11" cx="527.91" cy="705.59" r="166.59"/><circle class="cls-11" cx="977.9" cy="695.18" r="161"/><ellipse class="cls-26" cx="552.2" cy="705.47" rx="125.77" ry="133.49" transform="translate(-175.07 1228.64) rotate(-87.68)"/><ellipse class="cls-26" cx="954.51" cy="693.17" rx="121.55" ry="129.01" transform="translate(223.24 1618.8) rotate(-87.68)"/><ellipse class="cls-25" cx="568.73" cy="706.29" rx="110.18" ry="116.94" transform="translate(-160.02 1245.94) rotate(-87.68)"/><ellipse class="cls-25" cx="938.54" cy="692.14" rx="106.48" ry="113.02" transform="translate(208.94 1601.87) rotate(-87.68)"/><circle cx="587.52" cy="705.8" r="100.39"/><circle cx="922.5" cy="692.94" r="97.03"/><path d="m436.03,506.01c34.27-34.79,87.94-51.04,135.35-37.39,18.42,5.15,35.71,14.46,50.28,26.41-27.35-14.76-57.11-24.39-88.21-23.27-34.84,1.23-68.82,14.52-97.42,34.25h0Z"/><circle class="cls-22" cx="628.74" cy="657.23" r="31.34"/><circle class="cls-22" cx="1020.79" cy="663.84" r="30.92"/><ellipse class="cls-22" cx="492.76" cy="763.6" rx="10.84" ry="31.99" transform="translate(-290.18 1225.01) rotate(-87.68)"/><ellipse class="cls-22" cx="898.16" cy="759.18" rx="10.47" ry="30.92" transform="translate(103.22 1625.84) rotate(-87.68)"/><path d="m1065.07,500.02c-28-18.57-61.57-31.26-95.39-29.91-34.27,1.24-65,18.67-90.64,40.92,10.77-13.58,24.13-25.32,39.47-34.15,47.58-27.77,108.25-14.18,146.55,23.14h0Z"/><path class="cls-2" d="m992.26,187.34s-65.19,15.61-88.81,48.68c-23.22,32.5-42.6,106.59-43.25,109.13-.02.05-.02.07-.02.07l-6.47-.64c.07-.65.15-1.32.23-2,3.81-28.96,31.54-95.49,44.22-119.27,12.97-24.35,99.46-65.94,106.73-56.7,7.25,9.24-12.63,20.73-12.63,20.73Z"/><path class="cls-2" d="m688.19,344.75s-14.23-59.8-37.94-86.89c-23.71-27.1-97.69-43.91-97.69-43.91,0,0-21.81-10.28-12.33-16.82s105.28,31.77,117.61,51.39c12.33,19.62,37.94,74.75,37.94,96.24"/><path class="cls-15" d="m991.53,187.13s-65.19,15.61-88.81,48.68c-23.22,32.5-42.6,106.59-43.25,109.13-.02.05-.02.07-.02.07l-6.47-.64c.07-.65.15-1.32.23-2,3.81-28.96,31.54-95.49,44.22-119.27,12.97-24.35,99.46-65.94,106.73-56.7,7.25,9.24-12.63,20.73-12.63,20.73Z"/><path class="cls-15" d="m687.63,344.59s-14.23-59.8-37.94-86.89c-23.71-27.1-97.69-43.91-97.69-43.91,0,0-21.81-10.28-12.33-16.82,9.48-6.54,105.28,31.77,117.61,51.39,12.33,19.62,37.94,74.75,37.94,96.24"/><path class="cls-8" d="m439.31,429.59l8.39-129.15s3.35-43.61,45.29-23.48c41.93,20.13,110.7,82.19,110.7,82.19"/><path class="cls-8" d="m979.41,344.05l103.99-53.67s43.61-26.84,45.29,13.42c1.68,40.26-8.39,125.8-8.39,125.8"/><path class="cls-23" d="m470.35,411.98l5.03-87.22s3.35-26.84,26.84-8.39c23.48,18.45,67.09,50.32,67.09,50.32"/><path class="cls-23" d="m1013.8,366.61l65.42-40.02s20.13-13.92,18.45,8.7c-1.68,22.62-6.71,80.04-6.71,80.04"/><path class="cls-9" d="m523.18,872.68c-91.93-3.73-163.43-81.27-159.7-173.2,3.73-91.93,81.27-163.43,173.2-159.7,91.93,3.73,163.43,81.27,159.7,173.2-3.73,91.93-81.27,163.43-173.2,159.7"/><circle class="cls-9" cx="979.93" cy="695.82" r="161"/><ellipse class="cls-21" cx="554.23" cy="706.11" rx="125.77" ry="133.49" transform="translate(-173.76 1231.27) rotate(-87.68)"/><ellipse class="cls-27" cx="956.53" cy="693.8" rx="121.55" ry="129.01" transform="translate(224.54 1621.44) rotate(-87.68)"/><ellipse class="cls-27" cx="570.76" cy="706.93" rx="110.18" ry="116.94" transform="translate(-158.71 1248.57) rotate(-87.68)"/><ellipse class="cls-27" cx="940.57" cy="692.78" rx="106.48" ry="113.02" transform="translate(210.25 1604.5) rotate(-87.68)"/><circle class="cls-27" cx="589.55" cy="706.44" r="100.39"/><circle class="cls-27" cx="924.53" cy="693.57" r="97.03"/><path d="m438.06,506.64c34.27-34.79,87.94-51.04,135.35-37.39,18.42,5.15,35.71,14.46,50.28,26.41-27.35-14.76-57.11-24.39-88.21-23.27-34.84,1.23-68.82,14.52-97.42,34.25h0Z"/><path d="m617.06,710.42c0,68.05-18.55,93.43-39.42,123.22-8.24,11.77-39.42-55.17-39.42-123.22s31.77-111.32,39.42-123.22c6.96-10.83,39.42,55.17,39.42,123.22Z"/><path d="m970.24,694.39c0,68.05-18.55,93.43-39.42,123.22-8.24,11.77-39.42-55.17-39.42-123.22s31.77-111.32,39.42-123.22c6.96-10.83,39.42,55.17,39.42,123.22Z"/><circle class="cls-22" cx="630.77" cy="657.86" r="31.34"/><circle class="cls-22" cx="1022.81" cy="664.48" r="30.92"/><path d="m1067.09,500.66c-28-18.57-61.57-31.26-95.39-29.91-34.27,1.24-65,18.67-90.64,40.92,10.77-13.58,24.13-25.32,39.47-34.15,47.58-27.77,108.25-14.18,146.55,23.14h0Z"/><ellipse class="cls-22" cx="489.78" cy="743.18" rx="10.84" ry="31.99" transform="translate(-272.63 1202.45) rotate(-87.68)"/><ellipse class="cls-22" cx="892.83" cy="754.72" rx="10.84" ry="31.99" transform="translate(102.56 1616.24) rotate(-87.68)"/><path class="cls-1" d="m687.52,852.53s3.91,33.22,37.13,29.31c33.22-3.91,27.36-37.13,27.36-37.13,0,0,11.73,37.13,48.86,37.13.97,0,1.92-.03,2.86-.07,34.88-1.84,46-37.06,46-37.06"/><path class="cls-4" d="m677.75,858.39s13.68-1.95,13.68-17.59"/><path class="cls-1" d="m861.46,848.62s-21.5,1.95-19.54-15.63"/><path class="cls-2" d="m827.41,874.08s.35,20.72-7.44,33.69c0,0-18.17-14.27-16.87-25.95l24.31-7.74Z"/><path class="cls-2" d="m735.53,879.09s-1.71,16.46-9.13,26.01c0,0-13.04-13.06-10.89-22.2l20.02-3.81Z"/><path class="cls-14" d="m470.99,1156.79s261.89,118.12,594.72-12.48c0,0-49.33-136.3-161-218.16l-12.66-9.44s-44.05,59.79-92.5,56.59c-48.44-3.2-57.14-9.32-85.5-29.75-28.36-20.42-51.22-26.84-51.22-26.84,0,0-173.38,143.32-191.83,240.09Z"/><path class="cls-17" d="m616.27,1185.23s-8.39-152.64,122.44-147.6c130.83,5.03,122.74,156.44,122.74,156.44,0,0-211.64,23.03-245.18-8.84Z"/><path class="cls-16" d="m988.64,1010.78c-14.26,38.39-65.42,55.35-92.25,57.03s-31.87-36.9,0-40.26c31.87-3.35,60.38-55.35,60.38-55.35l31.87,38.58Z"/><path class="cls-16" d="m1013.8,1046.01s-45.29,41.93-100.64,48.64c-55.35,6.71-23.48,53.67,20.13,41.93,50.83-13.69,83.15-26.84,103.99-48.64l-23.48-41.93Z"/><path class="cls-16" d="m574.34,999.04c-6.87,57.93,20.13,20.13,33.55,38.58,13.42,18.45,0,36.9-30.19,36.9s-33.55-43.61-33.55-43.61l30.19-31.87Z"/><path class="cls-16" d="m586.08,985.62s23.87,33.7,53.67,30.19c28.51-3.35,20.2-32.72,0-35.22-15.35-1.9-11.54-2.81-26.84-21.81l-26.84,26.84Z"/><path class="cls-16" d="m875.89,999.99c-4.45.6-8.85-1.33-11.4-5.02-4.09-5.92-7.41-15.29,4.55-22.72,18.97-11.79,48.45-22.38,49.16-36.95l23.48,20.13s-3.15,36.17-65.79,44.56Z"/><path class="cls-16" d="m486.08,1114.45s63.1,38.91,84.9,32.2c21.81-6.71,35.22-15.1,15.1-31.87-20.13-16.77-62.8-15.1-67.09-50.32l-32.91,49.99Z"/><path class="cls-24" d="m652.73,1026.41s0,161.02-5.74,197.92c-5.74,36.9-17.21-6.71-17.21-6.71,0,0-16.25,73.8-29.64,6.71-13.39-67.09,17.21-197.92,17.21-197.92"/><path d="m652.73,1026.41c1.09,39.99,1.34,79.98.82,119.98-.48,25.04-.69,50.16-3.34,75.15-.62,5.33-1.32,10.24-3.4,15.39-.78,1.65-1.46,3.05-3.2,4.27-9.24,5.5-14.81-16.88-16.69-22.82,0,0,5.76-.12,5.76-.12-1.3,5.68-2.82,11.18-4.67,16.7-2.05,5.7-4.01,11.14-7.79,16.17-1.03,1.28-2.25,2.62-4.22,3.61-4.32,2.21-8.63-1.01-10.62-4.52-3.83-6.48-5.52-13.96-7.16-20.99-1.25-5.54-2.15-11.44-2.78-17.07-3.78-39.83,1.43-79.86,7.8-119.13,3.89-22.38,8.42-44.64,14.11-66.62-8.43,44.48-15.3,89.36-17.51,134.59-.76,19.64-.92,39.38,2.42,58.77.46,2.4,1.02,5.86,1.61,8.2,1.59,6.68,3.11,13.33,6.47,19.1.63,1,1.38,1.88,1.96,2.23.51.33.63.31,1.15.11,6.47-4.45,11.44-24.45,13.43-32.42,0,0,2.66-11.44,2.66-11.44l3.1,11.32c1.27,4.63,2.8,9.38,4.72,13.69.85,1.84,1.96,4.1,3.27,5.41.25.25.49.35.36.29-.12-.07-.62.05-.59.07,0,0,0,0,.04-.03.46-.47.74-1.04,1.05-1.73,1.71-4.13,2.48-9.24,3.05-13.8,1.87-14.17,2.49-30.21,3.26-44.58,2.17-46.63,3.44-102.76,4.92-149.79h0Z"/><path class="cls-24" d="m874.01,1020s42.12,130.83,23.69,197.92c-18.43,67.09-40.8-6.71-40.8-6.71,0,0-15.79,43.61-23.69,6.71-7.9-36.9-7.9-197.92-7.9-197.92"/><path d="m874.01,1020c17.86,53.27,38.03,134.36,28.39,189.8-.36,2.5-1.35,6.28-1.91,8.77-2.54,8.79-5.05,17.64-10.79,25.08-17.28,19.46-31.59-18.58-35.64-31.57,0,0,5.62.15,5.62.15-3.08,7.52-6.02,15.01-12.08,20.89-7.13,6.17-12.91.13-15.18-7.14-1.72-4.38-2.52-10.81-3.29-15.43-2.7-22.84-3.43-45.8-4.03-68.66-.95-40.63-.85-81.26.21-121.88,2.08,57.61,2.97,121.47,8,178.55,1.02,8.29,1.83,17.57,4.54,25.5.66,1.86,1.64,4.11,2.95,5.34.45.36.61.48,1.1.43,6.7-2.79,12.56-20.79,15.23-27.62,0,0,2.6,8.16,2.6,8.16,2.69,8.14,11.17,31.91,20.39,32.79,4.57-.5,7.21-6.23,9.19-10.08,10.64-23.72,11.3-50.35,9.9-75.95-3.05-46.45-13-92.27-25.21-137.12h0Z"/><path class="cls-3" d="m596.98,1192.77s1.68,70.45,20.13,60.38c0,0,10.06,18.45,16.77,1.68,0,0,23.18,17.09,20.13-8.39-5.03-41.93-5.03-53.67-5.03-53.67"/><path class="cls-14" d="m827.61,1193.61s2.52,67.93,25.16,50.32c0,0,18.45,33.55,30.19,1.68,0,0,17.61,12.58,18.45-10.06,1.58-42.75,1.68-48.64,1.68-48.64"/><line class="cls-7" x1="830.97" y1="1191.93" x2="829.29" y2="1205.35"/><path class="cls-6" d="m645.63,1258.86s9.3,10.56,15.93,8.22l-9.3-10.56-6.64,2.35Z"/><path class="cls-5" d="m623.93,1261.56s3.86,13.53,10.86,14.26l-3.86-13.53-7-.73Z"/><path class="cls-6" d="m608.67,1256.13s1.82,11.3,6.91,11.4l-1.82-11.3-5.09-.1Z"/><path class="cls-6" d="m894.47,1248.15s-.23,11.95-4.85,11.66l.23-11.95,4.63.29Z"/><path class="cls-6" d="m873.04,1258.92s-.81,14.47-6.85,14.57l.81-14.47,6.04-.1Z"/><path class="cls-6" d="m623.93,1261.56s3.86,13.53,10.86,14.26l-3.86-13.53-7-.73Z"/><path class="cls-6" d="m838.07,1246.08s3.86,13.53,10.86,14.26l-3.86-13.53-7-.73Z"/></svg>