<svg xmlns="http://www.w3.org/2000/svg" viewBox="0 0 1500 1500"><defs><style>.cls-1{fill:#a0c4ff;}.cls-2{fill:#bdb2ff;}.cls-3{fill:#8e85bf;}.cls-27,.cls-29,.cls-4,.cls-6,.cls-7,.cls-9{fill:none;}.cls-10,.cls-11,.cls-12,.cls-13,.cls-14,.cls-16,.cls-17,.cls-18,.cls-20,.cls-24,.cls-25,.cls-27,.cls-28,.cls-29,.cls-4,.cls-6,.cls-7,.cls-9{stroke:#000;}.cls-11,.cls-12,.cls-13,.cls-14,.cls-16,.cls-17,.cls-18,.cls-20,.cls-21,.cls-23,.cls-24,.cls-26,.cls-28,.cls-29,.cls-4,.cls-6,.cls-7,.cls-8,.cls-9{stroke-miterlimit:10;}.cls-4{stroke-width:17px;}.cls-5{fill:#5f5980;}.cls-10,.cls-20,.cls-6,.cls-7{stroke-width:15px;}.cls-24,.cls-25,.cls-27,.cls-28,.cls-29,.cls-7,.cls-8{stroke-linecap:round;}.cls-8{fill:#ffe7ff;stroke:#ffe7ff;}.cls-9{stroke-width:20px;}.cls-10,.cls-15,.cls-16,.cls-17{fill:#e57638;}.cls-10,.cls-25,.cls-27{stroke-linejoin:round;}.cls-11{fill:#f9c2a7;}.cls-11,.cls-13{stroke-width:12px;}.cls-12,.cls-13,.cls-14{fill:#bfbfbd;}.cls-12,.cls-16{stroke-width:10px;}.cls-14{stroke-width:11px;}.cls-17,.cls-25{stroke-width:13px;}.cls-18,.cls-23,.cls-28{fill:#fff;}.cls-18{stroke-width:2px;}.cls-19{opacity:0.25;}.cls-20,.cls-21,.cls-22{fill:#f5f1d3;}.cls-21{stroke:#f5f1d3;}.cls-23{stroke:#fff;}.cls-24,.cls-25{fill:#bf8b64;}.cls-24,.cls-27,.cls-28,.cls-29{stroke-width:9px;}.cls-26{fill:#ffb985;stroke:#ffb985;}</style></defs><g id="Layer_6" data-name="Layer 6"><rect class="cls-1" x="0.41" y="-0.09" width="1500" height="1500"/><path class="cls-2" d="M880.1,904.65H1070a89.66,89.66,0,0,1,89.66,89.66v244.27a0,0,0,0,1,0,0H948.82a99.36,99.36,0,0,1-99.36-99.36V935.29A30.64,30.64,0,0,1,880.1,904.65Z" transform="translate(2076.18 67.06) rotate(90)"/><path class="cls-3" d="M925.9,975.61a138.14,138.14,0,0,1,19.47,2.21c6.44,1.13,12.82,2.6,19.14,4.32a235.51,235.51,0,0,1,37,13.62,215.56,215.56,0,0,1,34.48,20.13,184.5,184.5,0,0,1,30.25,27,155.83,155.83,0,0,1,23.23,33.87,146.66,146.66,0,0,1,7.89,19.07,137.1,137.1,0,0,1,4.94,20c.27,1.69.55,3.37.78,5.06l.53,5.07c.2,1.69.28,3.39.38,5.08s.22,3.37.2,5.07a145.79,145.79,0,0,1-1.08,20.08,143.47,143.47,0,0,1-3.94,19.45,127.74,127.74,0,0,1-6.56,18.5c-.12-3.29,0-6.5-.1-9.72s-.08-6.41-.26-9.58l-.21-4.74-.34-4.72-.17-2.34-.23-2.33-.47-4.64c-.45-3.08-.72-6.14-1.31-9.17-.29-1.51-.46-3-.76-4.53l-.91-4.48a168.4,168.4,0,0,0-11.1-34.07,176.82,176.82,0,0,0-8.15-15.71,182.77,182.77,0,0,0-21-28.52c-15.85-17.78-35-33-55.64-46.65-10.31-6.86-21.06-13.25-32.09-19.42S937.58,981.4,925.9,975.61Z"/><path class="cls-3" d="M947,941.11a144,144,0,0,1,19.43,2.24c6.43,1.13,12.8,2.59,19.12,4.28a249.27,249.27,0,0,1,37,13.27,236.24,236.24,0,0,1,34.72,19.31,206.67,206.67,0,0,1,31.07,25.56,184.4,184.4,0,0,1,13.5,15.21c2.12,2.65,4.12,5.41,6.1,8.18s3.84,5.63,5.58,8.57c.91,1.44,1.76,2.92,2.59,4.41s1.69,3,2.45,4.5,1.57,3,2.32,4.56l2.13,4.66a151.75,151.75,0,0,1,6.92,19.21c.46,1.63.87,3.28,1.28,4.93s.77,3.3,1.1,5,.71,3.3,1,5,.51,3.34.75,5a142.12,142.12,0,0,1,1.2,20c0,1.67-.09,3.33-.17,5s-.11,3.31-.3,5c-.36,3.3-.61,6.57-1.21,9.82a122.49,122.49,0,0,1-4.5,19.1c-1.47-13-3.11-25.51-6-37.57l-1.09-4.51c-.39-1.49-.83-3-1.24-4.44l-.62-2.21-.68-2.2c-.46-1.45-.88-2.91-1.38-4.35-2-5.77-4.17-11.38-6.6-16.87-9.81-21.92-23.92-41.27-40.81-58.32s-36.5-31.81-57.36-45.23C1002.82,971.42,992,965.1,981,959S958.63,947,947,941.11Z"/><path class="cls-3" d="M1005.44,924.82S1130,951.65,1153,1083.89c0,0,13.37-120.66,0-128.4C1116.6,934.4,1188,925.78,1005.44,924.82Z"/><path class="cls-3" d="M958.49,979.44c-5.75-19.16,15.33-23,21.08-21.08s9.58-9.58,9.58-9.58,1.32-12.11,20.12-16.29c17.25-3.84,24.92,1.91,24.92,1.91s-57.87-23.95-74.75-3.83a109.21,109.21,0,0,1-38,28.72L947,988.8Z"/><path class="cls-4" d="M881,905.26h189.89a89.66,89.66,0,0,1,89.66,89.66v244.27a0,0,0,0,1,0,0H949.76a99.36,99.36,0,0,1-99.36-99.36V935.89A30.64,30.64,0,0,1,881,905.26Z" transform="translate(2077.72 66.73) rotate(90)"/><path class="cls-2" d="M596.26,1012s-324.88,288.26-102.17,385.39c0,0,530.84,45.21,591.12-10.05s41.87-232.76-144-403.57S596.26,1012,596.26,1012Z"/><path class="cls-3" d="M423.78,1249.67s23-24.91,36.41,1.92c9.92,19.83,18.79,64.81,22.74,86.91a4.82,4.82,0,0,1-7.62,4.73c-11.21-8.35-30.26-20.06-47.7-18.81C400.78,1326.33,423.78,1249.67,423.78,1249.67Z"/><path class="cls-5" d="M492.77,1378.08s400.38,17.85,414.84,16.59-5.72,23.62-31.08,21.72-377.28-16.9-382.44-19S492.77,1378.08,492.77,1378.08Z"/><path class="cls-3" d="M837.75,979.44s184,145.66,207,398.64c0,0,54.39,43.11,71.27-55.1,0,0,26.58-166.32-194.83-358.42h0Z"/><path class="cls-3" d="M647.05,976.57s34.5,1.91,47.91,32.58,122.66,59.41,174.41,30.66,72.83-13.41,72.83-13.41l-47.92-49.83L647.05,961.76Z"/><path class="cls-6" d="M597.62,1012.93s-324.89,288.26-102.17,385.38c0,0,530.83,45.21,591.12-10s41.86-232.76-144-403.57S597.62,1012.93,597.62,1012.93Z"/><path class="cls-2" d="M510.91,1399.19c-5.07-9.38-140.18-1.66-195.43,13.18s-54.41-28-54.41-28l-13.2-78.2s-15.6-61.61,23.19-67.23,42.13,50.14,47.29,79.46,42,18.87,42,18.87l99.88-14.76"/><path class="cls-5" d="M322.2,1403s89.86-39.32,181-24.45l4.18,18.75Z"/><path class="cls-3" d="M299.2,1259.25s-11.49-38.33-13.41-13.41c0,0,9.58,82.41,26.83,101.57,19.53,21.7,92-9.58,92-9.58s-74.74,5.75-80.49-3.83S299.2,1259.25,299.2,1259.25Z"/><path class="cls-7" d="M456.36,1324.42l-96.62,13.75s-36.79,10.43-41.95-18.88-8.51-85.07-47.3-79.45-23.18,67.22-23.18,67.22l13.2,78.2s-.83,42.84,54.41,28,190.36-22.55,195.43-13.18"/><path class="cls-2" d="M885.88,1412s84.52,14.09,104.24,28.17,78.89,0,76.08-14.08S1122.55,1234.49,1007,1288c0,0-31,33.81-25.36,84.52"/><path class="cls-8" d="M978.61,1367.54s14.22-76,27.71-75.87c7.26.09,45.12-10.38,31.7-4.63-8.17,3.51-20.86,41.94-24,56.54-4.53,21.4-3.77,45.12-8.62,48.87S990.11,1380,978.61,1367.54Z"/><path class="cls-5" d="M1017.9,1441.32c4.61,1.16,2.69-22,3.12-26.68l8.38-92.14s13-64.41,44.08-15.33c1.37,2.17.36-6.35.88-3.82,3,14.64,11.05,68.9-20,124.56,0,0-12.63,31.45-107.89-2.48,0,0-51.18-3.27-51.18-18.6,0-5.44,13.42-11.5,13.42-11.5s57.2,2.71,61.32,9.58c5.75,9.58,5.13,14.46,23,19.16C1003.36,1426.81,1002.57,1437.49,1017.9,1441.32Z"/><path class="cls-7" d="M891.41,1414.49s78.54,11.14,98.26,25.22,70.87-.69,76.07-14.08c5.82-15,46.31-161.28-32.29-147.14-18.52,3.32-34,15.91-42,32.94a112.88,112.88,0,0,0-10.27,60.66"/><path class="cls-2" d="M1255.43,523.76a356.18,356.18,0,0,1-7.63,55.73c-34.71,158.68-164.09,266.23-259.58,333.37-38.32,26.91-71.2,47.36-90.3,62a113.63,113.63,0,0,0-12.11,10.36c-47.68,49-96.67,48-134.57,33.93a183.2,183.2,0,0,1-40.82-21.92c-6.46-4.57-11.92-9-16.26-12.71a81.67,81.67,0,0,0-27.3-15.64c-58.27-19.69-258.17-98.1-315.73-263.6-21.05-60.55-29-113.24-30-157.08a413.64,413.64,0,0,1,1.75-47.53c8.14-43.31,34-83.6,73.22-118.28,83.51-73.87,227.77-122.67,391.72-122.67a784.33,784.33,0,0,1,149.67,14.14C1119.07,309.26,1250.7,407.43,1255.43,523.76Z"/><path class="cls-3" d="M838.53,261.26S1539.19,496.48,809,1010.11c0,0-42.06,4.17-20.07,17.42s100-45.31,100-45.31,224.42-156.77,228.46-176.56S1339.87,611.47,1215.3,416C1215.3,416,1061.63,257.94,838.53,261.26Z"/><path class="cls-2" d="M637.08,1089.18s0,184-6.56,226.14-19.66-7.66-19.66-7.66S592.29,1392,577,1315.32s19.67-226.14,19.67-226.14-10.12-16.21-22.75,12.54"/><path d="M637.08,1089.18c.77,11.42,1.35,22.84,1.84,34.27s.89,22.85,1.25,34.28q1.08,34.29,1.11,68.62c0,22.9-.25,45.76-1.46,68.82-.42,5.8-.71,11.54-1.46,17.52-.18,1.48-.3,3-.52,4.45s-.47,3-.77,4.54-.63,3.07-1.06,4.69a36.05,36.05,0,0,1-1.72,5.1,21.77,21.77,0,0,1-1.59,3,13,13,0,0,1-3.65,3.77,10.51,10.51,0,0,1-3.86,1.56,9.69,9.69,0,0,1-2.33.13,10.36,10.36,0,0,1-1.12-.12c-.34-.06-.68-.14-1-.23A11.08,11.08,0,0,1,619,1339a14.59,14.59,0,0,1-1.36-.76c-.36-.24-.73-.51-1.06-.76s-.59-.5-.86-.75a18.49,18.49,0,0,1-2.36-2.69,28.69,28.69,0,0,1-1.6-2.42,49.23,49.23,0,0,1-2.35-4.52c-1.36-2.94-2.45-5.8-3.45-8.67-.51-1.43-1-2.86-1.43-4.3s-.87-2.82-1.3-4.41l15.38-.31c-.78,3.43-1.59,6.59-2.49,9.86s-1.89,6.47-3,9.71-2.3,6.47-3.76,9.75c-.73,1.64-1.52,3.28-2.45,5a36.6,36.6,0,0,1-3.36,5.15c-.33.44-.76.9-1.14,1.35s-.85.91-1.37,1.37a16.48,16.48,0,0,1-3.94,2.71,12.64,12.64,0,0,1-6.4,1.22,12.11,12.11,0,0,1-3.36-.74c-.48-.19-1-.4-1.42-.63a12.47,12.47,0,0,1-1.21-.72,14.47,14.47,0,0,1-2-1.53c-.56-.52-1-1-1.5-1.54s-.8-1-1.17-1.48l-1-1.44a42.29,42.29,0,0,1-2.8-5.39,85.26,85.26,0,0,1-3.51-10.16c-1-3.32-1.75-6.62-2.44-9.91-.37-1.64-.67-3.28-1-4.92l-.84-5-.42-2.52c-.13-.83-.22-1.67-.32-2.5l-.62-5c-.34-3.34-.61-6.67-.86-10s-.37-6.65-.41-10c-.34-13.26.1-26.43,1-39.52a705.93,705.93,0,0,1,10.33-77.64l1.82-9.6,1.94-9.56c1.33-6.38,2.69-12.74,4.18-19.07,3-12.67,6-25.29,9.6-37.82l.24,1.46a8.84,8.84,0,0,0-1-1.37,10.28,10.28,0,0,0-1.24-1.23,6.62,6.62,0,0,0-2.95-1.44c-2.13-.4-4.51.72-6.49,2.38a30.25,30.25,0,0,0-5.25,6.08,82.27,82.27,0,0,0-4.2,7.1,66.62,66.62,0,0,1,3.27-7.65,31.87,31.87,0,0,1,4.74-7,14.42,14.42,0,0,1,3.54-2.79,8.93,8.93,0,0,1,4.72-1.06,9.7,9.7,0,0,1,4.63,1.64,12.79,12.79,0,0,1,1.86,1.49,12.3,12.3,0,0,1,1.62,1.84l.4.56-.15.91c-4.41,25.47-8.08,51.11-11.22,76.71-1.52,12.81-2.94,25.62-4,38.44s-2,25.63-2.46,38.42-.54,25.55.07,38.18c.12,3.17.43,6.3.63,9.44s.58,6.25.94,9.35l.64,4.62c.11.77.2,1.55.33,2.31l.42,2.27.83,4.55c.33,1.53.64,3.07,1,4.58.69,3,1.45,6,2.29,8.94a71.22,71.22,0,0,0,2.86,8.19,28.79,28.79,0,0,0,1.67,3.22c.14.19.27.38.39.58a4.18,4.18,0,0,1,.34.42l.2.2s0,.06-.06,0-.08,0-.18-.09a1.09,1.09,0,0,0-.31-.14,3.37,3.37,0,0,0-1-.22,3.45,3.45,0,0,0-1.7.28c-.43.23.22-.13.79-.94a35.84,35.84,0,0,0,3.78-6.73c1.19-2.64,2.27-5.47,3.26-8.36s1.91-5.87,2.77-8.86,1.65-6.09,2.31-9l7.14-31,8.24,30.73a108,108,0,0,0,5.06,14.95,34.46,34.46,0,0,0,1.54,3.1,13.7,13.7,0,0,0,.74,1.17c.21.3.42.55.42.55l0-.05a1.74,1.74,0,0,0-.2-.13,2.13,2.13,0,0,0-.43-.23,4,4,0,0,0-.74-.28,3.86,3.86,0,0,0-.49-.1,3.81,3.81,0,0,0-.59-.07,4.92,4.92,0,0,0-1.26.08,5.16,5.16,0,0,0-1.9.74c-.79.56-.78.74-.75.67a5.82,5.82,0,0,0,.41-.78,23.67,23.67,0,0,0,1.07-3c.33-1.14.63-2.38.91-3.64s.53-2.57.76-3.89.37-2.7.56-4c.82-5.33,1.24-11,1.8-16.58s.9-11.28,1.31-16.93l1.07-17,1-17,.91-17.08,3.49-68.4c.64-11.4,1.14-22.82,1.85-34.23S636.29,1100.59,637.08,1089.18Z"/><path class="cls-2" d="M921.23,1094.39c-17.39-28.75-31.31-12.54-31.31-12.54S938,1231.34,917,1308s-46.62-7.67-46.62-7.67-18,49.83-27.07,7.67-9-226.15-9-226.15"/><path d="M921.23,1094.39a69.49,69.49,0,0,0-6.23-7.69,29.68,29.68,0,0,0-7.55-6,13.39,13.39,0,0,0-8.66-1.66,11.67,11.67,0,0,0-4,1.51,13.66,13.66,0,0,0-1.76,1.25c-.27.24-.54.48-.79.73s-.51.54-.64.7l.43-2.11a727.33,727.33,0,0,1,23,77c6.21,26.11,11.18,52.63,13.46,79.68a279.58,279.58,0,0,1,.75,41c-.25,3.45-.42,6.89-.91,10.35-.21,1.73-.39,3.46-.64,5.19l-.89,5.19-.45,2.6-.6,2.59-1.21,5.18c-.91,3.35-1.87,6.69-3,10a100.09,100.09,0,0,1-4,10.1,47.86,47.86,0,0,1-6.19,10.24,24.28,24.28,0,0,1-5.42,5,18,18,0,0,1-4.05,2c-.38.13-.76.25-1.15.36l-1.23.25a16.05,16.05,0,0,1-2.51.25,17.65,17.65,0,0,1-8.79-2.37,26.06,26.06,0,0,1-5.65-4.4,50.71,50.71,0,0,1-7.14-9.45,102,102,0,0,1-5.07-9.6c-1.5-3.22-2.85-6.46-4.11-9.72q-.93-2.44-1.8-4.91c-.58-1.68-1.12-3.25-1.67-5.09l15,.4c-.61,1.61-1.16,3-1.78,4.41s-1.25,2.83-1.92,4.24a88.9,88.9,0,0,1-4.54,8.42,49.51,49.51,0,0,1-2.92,4.23,30.14,30.14,0,0,1-4,4.33,19.56,19.56,0,0,1-3,2.15,13.93,13.93,0,0,1-4.58,1.64,12,12,0,0,1-5.89-.51,12.93,12.93,0,0,1-4.42-2.64,19.81,19.81,0,0,1-4.19-5.65,38.36,38.36,0,0,1-2.12-5,71.14,71.14,0,0,1-2.42-9.37l-1.43-9.1c-.37-3-.62-5.92-.91-8.88l-.43-4.43-.29-4.39-.57-8.78c-.34-5.85-.56-11.67-.8-17.51l-.49-17.47c-.14-5.82-.17-11.64-.26-17.45q-.33-34.89.59-69.73c.3-11.62.59-23.23,1.11-34.84s1-23.21,1.77-34.81q1.17,17.4,2.16,34.78l2,34.76,4,69.42,1.11,17.32,1.22,17.29,1.43,17.22.85,8.56.42,4.28.55,4.21c.38,2.8.69,5.65,1.1,8.41l1.45,8.06a56.52,56.52,0,0,0,2.09,7.42,22.47,22.47,0,0,0,1.31,3,5.64,5.64,0,0,0,.93,1.33,1.88,1.88,0,0,0-.73-.41,3.32,3.32,0,0,0-1.6-.16,2.45,2.45,0,0,0-.53.14s.25-.18.5-.4a15.07,15.07,0,0,0,1.84-2.1,34.54,34.54,0,0,0,2-3,71.7,71.7,0,0,0,3.61-6.94c.56-1.22,1.1-2.46,1.61-3.71s1-2.57,1.43-3.68l7.84-21.77,7.14,22.17c.44,1.35,1,2.93,1.49,4.4s1.09,3,1.67,4.46c1.15,3,2.38,5.87,3.71,8.69a86.26,86.26,0,0,0,4.29,8.05,36,36,0,0,0,4.87,6.47,10.69,10.69,0,0,0,2.17,1.78,5.7,5.7,0,0,0,.72.32c-.07,0,0,.06.44-.23a9,9,0,0,0,1.86-1.78,33,33,0,0,0,4.09-6.85,90.26,90.26,0,0,0,3.4-8.48c1-2.94,2-6,2.84-9.07l1.12-4.54.57-2.27.43-2.32.87-4.65c.25-1.57.43-3.15.65-4.73.48-3.14.73-6.35,1-9.54a292.15,292.15,0,0,0,.32-38.94c-1.41-26.16-5-52.4-9.68-78.48-2.32-13-4.95-26-7.77-39s-5.87-26-9.2-38.78l-.34-1.31.77-.8a12.45,12.45,0,0,1,1.13-1c.37-.3.75-.58,1.14-.85a18,18,0,0,1,2.45-1.39,15.19,15.19,0,0,1,5.42-1.44,14.65,14.65,0,0,1,5.49.65,17.86,17.86,0,0,1,4.8,2.35,31.18,31.18,0,0,1,7.26,7.19A59.57,59.57,0,0,1,921.23,1094.39Z"/><path class="cls-9" d="M1256.11,523.08a356,356,0,0,1-7.63,55.73C1213.76,737.5,1084.38,845,988.9,912.18c-38.32,26.91-71.2,47.36-90.3,62a113.81,113.81,0,0,0-12.12,10.37c-47.67,49-96.67,48-134.56,33.92a183.1,183.1,0,0,1-40.83-21.92c-6.45-4.56-11.92-9-16.25-12.71a81.79,81.79,0,0,0-27.31-15.63c-58.26-19.7-258.16-98.11-315.73-263.61-21-60.55-29-113.24-30-157.08A413.77,413.77,0,0,1,323.57,500c8.15-43.3,34-83.59,73.23-118.28C480.31,307.8,624.57,259,788.52,259a785,785,0,0,1,149.66,14.14C1119.74,308.59,1251.38,406.75,1256.11,523.08Z"/><ellipse class="cls-2" cx="501.5" cy="733.78" rx="183.5" ry="181.22"/><ellipse class="cls-2" cx="1014.92" cy="723.89" rx="176.16" ry="173.97"/><path class="cls-3" d="M1044.34,551.34s159.14,154.89,43.9,329.78c0,0,116.39-50.16,101.58-179.14C1189.82,702,1190.69,592.67,1044.34,551.34Z"/><path class="cls-3" d="M685.26,733.47c0,100.09-82.15,181.22-183.5,181.22a186.41,186.41,0,0,1-29.71-2.37C559.82,898.77,627,823.78,627,733.29c0-90.09-66.57-164.83-153.78-178.85a186.81,186.81,0,0,1,28.57-2.19C603.11,552.25,685.26,633.39,685.26,733.47Z"/><path class="cls-2" d="M880.1,904.65H1070a89.66,89.66,0,0,1,89.66,89.66v244.27a0,0,0,0,1,0,0H948.82a99.36,99.36,0,0,1-99.36-99.36V935.29A30.64,30.64,0,0,1,880.1,904.65Z" transform="translate(2076.18 67.06) rotate(90)"/><path class="cls-3" d="M925.9,975.61a138.14,138.14,0,0,1,19.47,2.21c6.44,1.13,12.82,2.6,19.14,4.32a235.51,235.51,0,0,1,37,13.62,215.56,215.56,0,0,1,34.48,20.13,184.5,184.5,0,0,1,30.25,27,155.83,155.83,0,0,1,23.23,33.87,146.66,146.66,0,0,1,7.89,19.07,137.1,137.1,0,0,1,4.94,20c.27,1.69.55,3.37.78,5.06l.53,5.07c.2,1.69.28,3.39.38,5.08s.22,3.37.2,5.07a145.79,145.79,0,0,1-1.08,20.08,143.47,143.47,0,0,1-3.94,19.45,127.74,127.74,0,0,1-6.56,18.5c-.12-3.29,0-6.5-.1-9.72s-.08-6.41-.26-9.58l-.21-4.74-.34-4.72-.17-2.34-.23-2.33-.47-4.64c-.45-3.08-.72-6.14-1.31-9.17-.29-1.51-.46-3-.76-4.53l-.91-4.48a168.4,168.4,0,0,0-11.1-34.07,176.82,176.82,0,0,0-8.15-15.71,182.77,182.77,0,0,0-21-28.52c-15.85-17.78-35-33-55.64-46.65-10.31-6.86-21.06-13.25-32.09-19.42S937.58,981.4,925.9,975.61Z"/><path class="cls-3" d="M947,941.11a144,144,0,0,1,19.43,2.24c6.43,1.13,12.8,2.59,19.12,4.28a249.27,249.27,0,0,1,37,13.27,236.24,236.24,0,0,1,34.72,19.31,206.67,206.67,0,0,1,31.07,25.56,184.4,184.4,0,0,1,13.5,15.21c2.12,2.65,4.12,5.41,6.1,8.18s3.84,5.63,5.58,8.57c.91,1.44,1.76,2.92,2.59,4.41s1.69,3,2.45,4.5,1.57,3,2.32,4.56l2.13,4.66a151.75,151.75,0,0,1,6.92,19.21c.46,1.63.87,3.28,1.28,4.93s.77,3.3,1.1,5,.71,3.3,1,5,.51,3.34.75,5a142.12,142.12,0,0,1,1.2,20c0,1.67-.09,3.33-.17,5s-.11,3.31-.3,5c-.36,3.3-.61,6.57-1.21,9.82a122.49,122.49,0,0,1-4.5,19.1c-1.47-13-3.11-25.51-6-37.57l-1.09-4.51c-.39-1.49-.83-3-1.24-4.44l-.62-2.21-.68-2.2c-.46-1.45-.88-2.91-1.38-4.35-2-5.77-4.17-11.38-6.6-16.87-9.81-21.92-23.92-41.27-40.81-58.32s-36.5-31.81-57.36-45.23C1002.82,971.42,992,965.1,981,959S958.63,947,947,941.11Z"/><path class="cls-3" d="M1005.44,924.82S1130,951.65,1153,1083.89c0,0,13.37-120.66,0-128.4C1116.6,934.4,1188,925.78,1005.44,924.82Z"/><path class="cls-3" d="M958.49,979.44c-5.75-19.16,15.33-23,21.08-21.08s9.58-9.58,9.58-9.58,1.32-12.11,20.12-16.29c17.25-3.84,24.92,1.91,24.92,1.91s-57.87-23.95-74.75-3.83a109.21,109.21,0,0,1-38,28.72L947,988.8Z"/><path class="cls-4" d="M881,905.26h189.89a89.66,89.66,0,0,1,89.66,89.66v244.27a0,0,0,0,1,0,0H949.76a99.36,99.36,0,0,1-99.36-99.36V935.89A30.64,30.64,0,0,1,881,905.26Z" transform="translate(2077.72 66.73) rotate(90)"/><path class="cls-2" d="M596.26,1012s-324.88,288.26-102.17,385.39c0,0,530.84,45.21,591.12-10.05s41.87-232.76-144-403.57S596.26,1012,596.26,1012Z"/><path class="cls-3" d="M423.78,1249.67s23-24.91,36.41,1.92c9.92,19.83,18.79,64.81,22.74,86.91a4.82,4.82,0,0,1-7.62,4.73c-11.21-8.35-30.26-20.06-47.7-18.81C400.78,1326.33,423.78,1249.67,423.78,1249.67Z"/><path class="cls-5" d="M492.77,1378.08s400.38,17.85,414.84,16.59-5.72,23.62-31.08,21.72-377.28-16.9-382.44-19S492.77,1378.08,492.77,1378.08Z"/><path class="cls-3" d="M837.75,979.44s184,145.66,207,398.64c0,0,54.39,43.11,71.27-55.1,0,0,26.58-166.32-194.83-358.42h0Z"/><path class="cls-3" d="M647.05,976.57s34.5,1.91,47.91,32.58,122.66,59.41,174.41,30.66,72.83-13.41,72.83-13.41l-47.92-49.83L647.05,961.76Z"/><path class="cls-6" d="M597.62,1012.93s-324.89,288.26-102.17,385.38c0,0,530.83,45.21,591.12-10s41.86-232.76-144-403.57S597.62,1012.93,597.62,1012.93Z"/><path class="cls-2" d="M510.91,1399.19c-5.07-9.38-140.18-1.66-195.43,13.18s-54.41-28-54.41-28l-13.2-78.2s-15.6-61.61,23.19-67.23,42.13,50.14,47.29,79.46,42,18.87,42,18.87l99.88-14.76"/><path class="cls-5" d="M322.2,1403s89.86-39.32,181-24.45l4.18,18.75Z"/><path class="cls-3" d="M299.2,1259.25s-11.49-38.33-13.41-13.41c0,0,9.58,82.41,26.83,101.57,19.53,21.7,92-9.58,92-9.58s-74.74,5.75-80.49-3.83S299.2,1259.25,299.2,1259.25Z"/><path class="cls-7" d="M456.36,1324.42l-96.62,13.75s-36.79,10.43-41.95-18.88-8.51-85.07-47.3-79.45-23.18,67.22-23.18,67.22l13.2,78.2s-.83,42.84,54.41,28,190.36-22.55,195.43-13.18"/><path class="cls-2" d="M885.88,1412s84.52,14.09,104.24,28.17,78.89,0,76.08-14.08S1122.55,1234.49,1007,1288c0,0-31,33.81-25.36,84.52"/><path class="cls-8" d="M978.61,1367.54s14.22-76,27.71-75.87c7.26.09,45.12-10.38,31.7-4.63-8.17,3.51-20.86,41.94-24,56.54-4.53,21.4-3.77,45.12-8.62,48.87S990.11,1380,978.61,1367.54Z"/><path class="cls-5" d="M1017.9,1441.32c4.61,1.16,2.69-22,3.12-26.68l8.38-92.14s13-64.41,44.08-15.33c1.37,2.17.36-6.35.88-3.82,3,14.64,11.05,68.9-20,124.56,0,0-12.63,31.45-107.89-2.48,0,0-51.18-3.27-51.18-18.6,0-5.44,13.42-11.5,13.42-11.5s57.2,2.71,61.32,9.58c5.75,9.58,5.13,14.46,23,19.16C1003.36,1426.81,1002.57,1437.49,1017.9,1441.32Z"/><path class="cls-7" d="M891.41,1414.49s78.54,11.14,98.26,25.22,70.87-.69,76.07-14.08c5.82-15,46.31-161.28-32.29-147.14-18.52,3.32-34,15.91-42,32.94a112.88,112.88,0,0,0-10.27,60.66"/><path class="cls-2" d="M1255.43,523.76a356.18,356.18,0,0,1-7.63,55.73c-34.71,158.68-164.09,266.23-259.58,333.37-38.32,26.91-71.2,47.36-90.3,62a113.63,113.63,0,0,0-12.11,10.36c-47.68,49-96.67,48-134.57,33.93a183.2,183.2,0,0,1-40.82-21.92c-6.46-4.57-11.92-9-16.26-12.71a81.67,81.67,0,0,0-27.3-15.64c-58.27-19.69-258.17-98.1-315.73-263.6-21.05-60.55-29-113.24-30-157.08a413.64,413.64,0,0,1,1.75-47.53c8.14-43.31,34-83.6,73.22-118.28,83.51-73.87,227.77-122.67,391.72-122.67a784.33,784.33,0,0,1,149.67,14.14C1119.07,309.26,1250.7,407.43,1255.43,523.76Z"/><path class="cls-3" d="M838.53,261.26S1539.19,496.48,809,1010.11c0,0-42.06,4.17-20.07,17.42s100-45.31,100-45.31,224.42-156.77,228.46-176.56S1339.87,611.47,1215.3,416C1215.3,416,1061.63,257.94,838.53,261.26Z"/><path class="cls-2" d="M637.08,1089.18s0,184-6.56,226.14-19.66-7.66-19.66-7.66S592.29,1392,577,1315.32s19.67-226.14,19.67-226.14-10.12-16.21-22.75,12.54"/><path d="M637.08,1089.18c.77,11.42,1.35,22.84,1.84,34.27s.89,22.85,1.25,34.28q1.08,34.29,1.11,68.62c0,22.9-.25,45.76-1.46,68.82-.42,5.8-.71,11.54-1.46,17.52-.18,1.48-.3,3-.52,4.45s-.47,3-.77,4.54-.63,3.07-1.06,4.69a36.05,36.05,0,0,1-1.72,5.1,21.77,21.77,0,0,1-1.59,3,13,13,0,0,1-3.65,3.77,10.51,10.51,0,0,1-3.86,1.56,9.69,9.69,0,0,1-2.33.13,10.36,10.36,0,0,1-1.12-.12c-.34-.06-.68-.14-1-.23A11.08,11.08,0,0,1,619,1339a14.59,14.59,0,0,1-1.36-.76c-.36-.24-.73-.51-1.06-.76s-.59-.5-.86-.75a18.49,18.49,0,0,1-2.36-2.69,28.69,28.69,0,0,1-1.6-2.42,49.23,49.23,0,0,1-2.35-4.52c-1.36-2.94-2.45-5.8-3.45-8.67-.51-1.43-1-2.86-1.43-4.3s-.87-2.82-1.3-4.41l15.38-.31c-.78,3.43-1.59,6.59-2.49,9.86s-1.89,6.47-3,9.71-2.3,6.47-3.76,9.75c-.73,1.64-1.52,3.28-2.45,5a36.6,36.6,0,0,1-3.36,5.15c-.33.44-.76.9-1.14,1.35s-.85.91-1.37,1.37a16.48,16.48,0,0,1-3.94,2.71,12.64,12.64,0,0,1-6.4,1.22,12.11,12.11,0,0,1-3.36-.74c-.48-.19-1-.4-1.42-.63a12.47,12.47,0,0,1-1.21-.72,14.47,14.47,0,0,1-2-1.53c-.56-.52-1-1-1.5-1.54s-.8-1-1.17-1.48l-1-1.44a42.29,42.29,0,0,1-2.8-5.39,85.26,85.26,0,0,1-3.51-10.16c-1-3.32-1.75-6.62-2.44-9.91-.37-1.64-.67-3.28-1-4.92l-.84-5-.42-2.52c-.13-.83-.22-1.67-.32-2.5l-.62-5c-.34-3.34-.61-6.67-.86-10s-.37-6.65-.41-10c-.34-13.26.1-26.43,1-39.52a705.93,705.93,0,0,1,10.33-77.64l1.82-9.6,1.94-9.56c1.33-6.38,2.69-12.74,4.18-19.07,3-12.67,6-25.29,9.6-37.82l.24,1.46a8.84,8.84,0,0,0-1-1.37,10.28,10.28,0,0,0-1.24-1.23,6.62,6.62,0,0,0-2.95-1.44c-2.13-.4-4.51.72-6.49,2.38a30.25,30.25,0,0,0-5.25,6.08,82.27,82.27,0,0,0-4.2,7.1,66.62,66.62,0,0,1,3.27-7.65,31.87,31.87,0,0,1,4.74-7,14.42,14.42,0,0,1,3.54-2.79,8.93,8.93,0,0,1,4.72-1.06,9.7,9.7,0,0,1,4.63,1.64,12.79,12.79,0,0,1,1.86,1.49,12.3,12.3,0,0,1,1.62,1.84l.4.56-.15.91c-4.41,25.47-8.08,51.11-11.22,76.71-1.52,12.81-2.94,25.62-4,38.44s-2,25.63-2.46,38.42-.54,25.55.07,38.18c.12,3.17.43,6.3.63,9.44s.58,6.25.94,9.35l.64,4.62c.11.77.2,1.55.33,2.31l.42,2.27.83,4.55c.33,1.53.64,3.07,1,4.58.69,3,1.45,6,2.29,8.94a71.22,71.22,0,0,0,2.86,8.19,28.79,28.79,0,0,0,1.67,3.22c.14.19.27.38.39.58a4.18,4.18,0,0,1,.34.42l.2.2s0,.06-.06,0-.08,0-.18-.09a1.09,1.09,0,0,0-.31-.14,3.37,3.37,0,0,0-1-.22,3.45,3.45,0,0,0-1.7.28c-.43.23.22-.13.79-.94a35.84,35.84,0,0,0,3.78-6.73c1.19-2.64,2.27-5.47,3.26-8.36s1.91-5.87,2.77-8.86,1.65-6.09,2.31-9l7.14-31,8.24,30.73a108,108,0,0,0,5.06,14.95,34.46,34.46,0,0,0,1.54,3.1,13.7,13.7,0,0,0,.74,1.17c.21.3.42.55.42.55l0-.05a1.74,1.74,0,0,0-.2-.13,2.13,2.13,0,0,0-.43-.23,4,4,0,0,0-.74-.28,3.86,3.86,0,0,0-.49-.1,3.81,3.81,0,0,0-.59-.07,4.92,4.92,0,0,0-1.26.08,5.16,5.16,0,0,0-1.9.74c-.79.56-.78.74-.75.67a5.82,5.82,0,0,0,.41-.78,23.67,23.67,0,0,0,1.07-3c.33-1.14.63-2.38.91-3.64s.53-2.57.76-3.89.37-2.7.56-4c.82-5.33,1.24-11,1.8-16.58s.9-11.28,1.31-16.93l1.07-17,1-17,.91-17.08,3.49-68.4c.64-11.4,1.14-22.82,1.85-34.23S636.29,1100.59,637.08,1089.18Z"/><path class="cls-2" d="M921.23,1094.39c-17.39-28.75-31.31-12.54-31.31-12.54S938,1231.34,917,1308s-46.62-7.67-46.62-7.67-18,49.83-27.07,7.67-9-226.15-9-226.15"/><path d="M921.23,1094.39a69.49,69.49,0,0,0-6.23-7.69,29.68,29.68,0,0,0-7.55-6,13.39,13.39,0,0,0-8.66-1.66,11.67,11.67,0,0,0-4,1.51,13.66,13.66,0,0,0-1.76,1.25c-.27.24-.54.48-.79.73s-.51.54-.64.7l.43-2.11a727.33,727.33,0,0,1,23,77c6.21,26.11,11.18,52.63,13.46,79.68a279.58,279.58,0,0,1,.75,41c-.25,3.45-.42,6.89-.91,10.35-.21,1.73-.39,3.46-.64,5.19l-.89,5.19-.45,2.6-.6,2.59-1.21,5.18c-.91,3.35-1.87,6.69-3,10a100.09,100.09,0,0,1-4,10.1,47.86,47.86,0,0,1-6.19,10.24,24.28,24.28,0,0,1-5.42,5,18,18,0,0,1-4.05,2c-.38.13-.76.25-1.15.36l-1.23.25a16.05,16.05,0,0,1-2.51.25,17.65,17.65,0,0,1-8.79-2.37,26.06,26.06,0,0,1-5.65-4.4,50.71,50.71,0,0,1-7.14-9.45,102,102,0,0,1-5.07-9.6c-1.5-3.22-2.85-6.46-4.11-9.72q-.93-2.44-1.8-4.91c-.58-1.68-1.12-3.25-1.67-5.09l15,.4c-.61,1.61-1.16,3-1.78,4.41s-1.25,2.83-1.92,4.24a88.9,88.9,0,0,1-4.54,8.42,49.51,49.51,0,0,1-2.92,4.23,30.14,30.14,0,0,1-4,4.33,19.56,19.56,0,0,1-3,2.15,13.93,13.93,0,0,1-4.58,1.64,12,12,0,0,1-5.89-.51,12.93,12.93,0,0,1-4.42-2.64,19.81,19.81,0,0,1-4.19-5.65,38.36,38.36,0,0,1-2.12-5,71.14,71.14,0,0,1-2.42-9.37l-1.43-9.1c-.37-3-.62-5.92-.91-8.88l-.43-4.43-.29-4.39-.57-8.78c-.34-5.85-.56-11.67-.8-17.51l-.49-17.47c-.14-5.82-.17-11.64-.26-17.45q-.33-34.89.59-69.73c.3-11.62.59-23.23,1.11-34.84s1-23.21,1.77-34.81q1.17,17.4,2.16,34.78l2,34.76,4,69.42,1.11,17.32,1.22,17.29,1.43,17.22.85,8.56.42,4.28.55,4.21c.38,2.8.69,5.65,1.1,8.41l1.45,8.06a56.52,56.52,0,0,0,2.09,7.42,22.47,22.47,0,0,0,1.31,3,5.64,5.64,0,0,0,.93,1.33,1.88,1.88,0,0,0-.73-.41,3.32,3.32,0,0,0-1.6-.16,2.45,2.45,0,0,0-.53.14s.25-.18.5-.4a15.07,15.07,0,0,0,1.84-2.1,34.54,34.54,0,0,0,2-3,71.7,71.7,0,0,0,3.61-6.94c.56-1.22,1.1-2.46,1.61-3.71s1-2.57,1.43-3.68l7.84-21.77,7.14,22.17c.44,1.35,1,2.93,1.49,4.4s1.09,3,1.67,4.46c1.15,3,2.38,5.87,3.71,8.69a86.26,86.26,0,0,0,4.29,8.05,36,36,0,0,0,4.87,6.47,10.69,10.69,0,0,0,2.17,1.78,5.7,5.7,0,0,0,.72.32c-.07,0,0,.06.44-.23a9,9,0,0,0,1.86-1.78,33,33,0,0,0,4.09-6.85,90.26,90.26,0,0,0,3.4-8.48c1-2.94,2-6,2.84-9.07l1.12-4.54.57-2.27.43-2.32.87-4.65c.25-1.57.43-3.15.65-4.73.48-3.14.73-6.35,1-9.54a292.15,292.15,0,0,0,.32-38.94c-1.41-26.16-5-52.4-9.68-78.48-2.32-13-4.95-26-7.77-39s-5.87-26-9.2-38.78l-.34-1.31.77-.8a12.45,12.45,0,0,1,1.13-1c.37-.3.75-.58,1.14-.85a18,18,0,0,1,2.45-1.39,15.19,15.19,0,0,1,5.42-1.44,14.65,14.65,0,0,1,5.49.65,17.86,17.86,0,0,1,4.8,2.35,31.18,31.18,0,0,1,7.26,7.19A59.57,59.57,0,0,1,921.23,1094.39Z"/><path class="cls-9" d="M1256.11,523.08a356,356,0,0,1-7.63,55.73C1213.76,737.5,1084.38,845,988.9,912.18c-38.32,26.91-71.2,47.36-90.3,62a113.81,113.81,0,0,0-12.12,10.37c-47.67,49-96.67,48-134.56,33.92a183.1,183.1,0,0,1-40.83-21.92c-6.45-4.56-11.92-9-16.25-12.71a81.79,81.79,0,0,0-27.31-15.63c-58.26-19.7-258.16-98.11-315.73-263.61-21-60.55-29-113.24-30-157.08A413.77,413.77,0,0,1,323.57,500c8.15-43.3,34-83.59,73.23-118.28C480.31,307.8,624.57,259,788.52,259a785,785,0,0,1,149.66,14.14C1119.74,308.59,1251.38,406.75,1256.11,523.08Z"/><ellipse class="cls-2" cx="501.5" cy="733.78" rx="183.5" ry="181.22"/><ellipse class="cls-2" cx="1014.92" cy="723.89" rx="176.16" ry="173.97"/><path class="cls-3" d="M1044.34,551.34s159.14,154.89,43.9,329.78c0,0,116.39-50.16,101.58-179.14C1189.82,702,1190.69,592.67,1044.34,551.34Z"/><path class="cls-3" d="M685.26,733.47c0,100.09-82.15,181.22-183.5,181.22a186.41,186.41,0,0,1-29.71-2.37C559.82,898.77,627,823.78,627,733.29c0-90.09-66.57-164.83-153.78-178.85a186.81,186.81,0,0,1,28.57-2.19C603.11,552.25,685.26,633.39,685.26,733.47Z"/><path class="cls-10" d="M423.39,1248.79s302.81,136.58,687.66-14.44c0,0-57-157.6-186.16-252.25L909.5,966.5s-53,64.7-109,61-62.21-11.39-95-35-56-26-56-26S444.72,1136.9,423.39,1248.79Z"/><path class="cls-11" d="M591.37,1281.66S581.67,1105.17,733,1111s141.92,180.89,141.92,180.89S630.16,1318.51,591.37,1281.66Z"/><path class="cls-12" d="M1021.93,1080c-16.49,44.39-75.64,64-106.67,65.94s-36.85-42.66,0-46.54,69.82-64,69.82-64Z"/><path class="cls-13" d="M1051,1120.69s-52.37,48.49-116.37,56.24-27.15,62.07,23.27,48.49c58.78-15.82,96.15-31,120.25-56.24Z"/><path class="cls-14" d="M542.88,1066.39c-7.94,67,23.28,23.27,38.79,44.6s0,42.67-34.91,42.67S508,1103.24,508,1103.24Z"/><path class="cls-12" d="M556.46,1050.87s27.6,39,62.06,34.91c33-3.88,23.36-37.84,0-40.73-17.74-2.2-13.35-3.25-31-25.21Z"/><path class="cls-12" d="M891.55,1067.48a13.77,13.77,0,0,1-13.18-5.8c-4.72-6.84-8.56-17.68,5.26-26.27,21.93-13.63,56-25.88,56.84-42.72L967.62,1016S964,1057.79,891.55,1067.48Z"/><path class="cls-14" d="M440.83,1199.83s73,45,98.17,37.23,40.73-17.46,17.46-36.85-72.62-17.46-77.58-58.19Z"/><path class="cls-15" d="M633.53,1098s0,186.19-6.64,228.85-19.9-7.75-19.9-7.75-18.79,85.33-34.27,7.75S592.62,1098,592.62,1098"/><path d="M633.53,1098c1.3,23.11,2,46.24,2.56,69.37.16,5.78.25,11.56.32,17.35l.23,17.35c0,5.78.15,11.57.15,17.36v17.35c-.14,23.16-.45,46.3-1.8,69.58-.44,5.85-.74,11.65-1.51,17.64-.18,1.49-.3,3-.53,4.47s-.49,3-.79,4.53-.64,3.06-1.08,4.65a36.44,36.44,0,0,1-1.69,5,20.22,20.22,0,0,1-1.5,2.83,11.58,11.58,0,0,1-3.28,3.4,8.9,8.9,0,0,1-3.36,1.36,9.16,9.16,0,0,1-2,.12c-.33,0-.66-.06-1-.11a8.63,8.63,0,0,1-.88-.2,9.39,9.39,0,0,1-1.53-.57,11.53,11.53,0,0,1-1.21-.67c-.32-.22-.66-.45-1-.69s-.54-.45-.78-.67a18.27,18.27,0,0,1-2.21-2.53c-.59-.8-1.09-1.58-1.54-2.33a47.19,47.19,0,0,1-2.3-4.44,92.6,92.6,0,0,1-3.4-8.65c-1-2.89-1.86-5.68-2.69-8.72l12.55-.25c-.77,3.42-1.59,6.61-2.5,9.88s-1.89,6.5-3,9.75-2.33,6.47-3.79,9.71a48.45,48.45,0,0,1-5.7,9.88c-.32.42-.72.86-1.08,1.28s-.8.85-1.29,1.28a14.65,14.65,0,0,1-3.58,2.47,11.2,11.2,0,0,1-5.66,1.09,10.92,10.92,0,0,1-3-.65c-.42-.17-.84-.36-1.26-.56a11,11,0,0,1-1.08-.65,13.51,13.51,0,0,1-1.8-1.39c-.51-.47-.94-.94-1.38-1.42s-.76-.93-1.1-1.39l-.92-1.36a41,41,0,0,1-2.7-5.25,83.65,83.65,0,0,1-3.45-10.09c-.94-3.32-1.73-6.63-2.43-9.93-.37-1.65-.68-3.29-1-4.94l-.85-5-.41-2.52c-.13-.84-.21-1.68-.31-2.52l-.61-5c-.33-3.35-.59-6.7-.83-10s-.38-6.69-.44-10c-.28-13.36.14-26.63,1.12-39.83s2.41-26.33,4.16-39.4,4-26.06,6.32-39c4.92-25.85,10.58-51.54,17.85-76.79-1.07,6.48-2.15,13-3.13,19.43s-2,13-2.93,19.44c-1.89,13-3.65,25.94-5.19,38.93s-3,26-4.06,39-2,26-2.47,39-.55,26,.13,38.8c.11,3.22.42,6.41.62,9.61s.6,6.37,1,9.53l.66,4.72c.12.78.21,1.58.35,2.35l.43,2.33.85,4.65c.34,1.56.65,3.13,1,4.68.7,3.1,1.48,6.16,2.36,9.14a72,72,0,0,0,3,8.48,30.05,30.05,0,0,0,1.82,3.47,6,6,0,0,0,1.37,1.66,2.39,2.39,0,0,0-.74-.2,1.84,1.84,0,0,0-.89.13,6.78,6.78,0,0,0,1.37-1.41,36.3,36.3,0,0,0,4-7.16c1.22-2.75,2.31-5.66,3.32-8.62s2-6,2.81-9,1.68-6.19,2.36-9.16l5.78-25.14,6.78,24.88a111.41,111.41,0,0,0,5.28,15.35,33.19,33.19,0,0,0,1.64,3.27,15,15,0,0,0,.82,1.3,6.76,6.76,0,0,0,.61.76c.09.12.07-.06-.83-.36a2,2,0,0,0-.35-.06,2.12,2.12,0,0,0-.44-.06,4,4,0,0,0-2.32.6c-.53.38-.44.42-.34.25a5.72,5.72,0,0,0,.53-1,23.34,23.34,0,0,0,1.13-3.22c.35-1.19.65-2.48.92-3.78s.53-2.65.75-4,.38-2.76.57-4.13c.82-5.46,1.25-11.21,1.79-16.87l1.24-17.16,1-17.24.91-17.27.82-17.29,3.1-69.24C631.15,1144.24,632.17,1121.14,633.53,1098Z"/><path class="cls-15" d="M889.39,1090.61s48.7,151.28,27.39,228.86-47.18-7.76-47.18-7.76-18.26,50.43-27.39,7.76-9.13-228.86-9.13-228.86"/><path d="M889.39,1090.61c2.47,6.3,4.69,12.68,6.91,19.08s4.22,12.85,6.24,19.31q5.93,19.43,10.87,39.16c6.46,26.33,11.58,53.11,14,80.4a284.45,284.45,0,0,1,.93,41.33c-.25,3.47-.44,6.95-.9,10.44-.21,1.74-.39,3.48-.63,5.22l-.87,5.23-.44,2.62-.59,2.61-1.2,5.22c-.9,3.38-1.88,6.74-3,10.12a102.29,102.29,0,0,1-4,10.16,47.49,47.49,0,0,1-6.13,10.24,24,24,0,0,1-5.33,5,16.57,16.57,0,0,1-8.7,2.77,17.1,17.1,0,0,1-8.57-2.32,26.07,26.07,0,0,1-5.58-4.34,51.44,51.44,0,0,1-7.17-9.42,102.34,102.34,0,0,1-5.15-9.64c-1.5-3.25-2.87-6.51-4.14-9.8-.63-1.64-1.23-3.3-1.81-5s-1.13-3.28-1.7-5.12l14.14.38c-.6,1.62-1.16,3-1.77,4.44s-1.25,2.86-1.92,4.28a83.34,83.34,0,0,1-4.54,8.49,48.21,48.21,0,0,1-2.92,4.25,30,30,0,0,1-4,4.31,19.21,19.21,0,0,1-3,2.12,13.72,13.72,0,0,1-4.49,1.61,11.82,11.82,0,0,1-5.73-.49,12.77,12.77,0,0,1-4.32-2.59,19.31,19.31,0,0,1-4.17-5.57,37.91,37.91,0,0,1-2.13-5,68.54,68.54,0,0,1-2.47-9.43l-1.44-9.18c-.37-3-.62-6-.94-9l-.45-4.47-.31-4.44-.59-8.89c-.34-5.91-.56-11.8-.85-17.7s-.34-11.79-.52-17.68l-.3-17.66q-.39-35.3.46-70.55l.48-17.63.25-8.81.35-8.81.76-17.62c.33-5.88.6-11.75,1-17.62,1.57,23.48,2.79,46.93,4.09,70.38s2.52,46.87,3.92,70.26l1.07,17.53,1.22,17.5c.47,5.81.88,11.64,1.41,17.43l.84,8.67.41,4.33.54,4.28c.37,2.83.68,5.72,1.09,8.52l1.47,8.18a62.63,62.63,0,0,0,2.11,7.56,24.32,24.32,0,0,0,1.33,3.06,6.27,6.27,0,0,0,1,1.47,1.65,1.65,0,0,0-.58-.31,2.88,2.88,0,0,0-1.4-.14c-.36.06-.46.14-.38.08a7,7,0,0,0,.58-.45,16.25,16.25,0,0,0,1.92-2.19,36.45,36.45,0,0,0,2-3,76.67,76.67,0,0,0,3.7-7.06c.57-1.23,1.13-2.49,1.66-3.76s1.06-2.6,1.48-3.74l7.56-20.61,6.58,21c.43,1.38,1,3,1.5,4.48s1.11,3,1.69,4.53c1.17,3,2.43,6,3.77,8.82a87.53,87.53,0,0,0,4.34,8.23,37,37,0,0,0,5,6.69,11.48,11.48,0,0,0,2.34,1.91,2.74,2.74,0,0,0,1,.4,1.71,1.71,0,0,0,.79-.34,9.43,9.43,0,0,0,2-1.91,33.74,33.74,0,0,0,4.28-7,88.47,88.47,0,0,0,3.5-8.64c1.06-3,2-6.11,2.89-9.22l1.17-4.62.59-2.31.45-2.37.91-4.73c.25-1.59.45-3.2.68-4.8.51-3.19.75-6.45,1.07-9.7a294.29,294.29,0,0,0,.49-39.54c-.65-13.27-1.86-26.57-3.5-39.85s-3.63-26.55-5.9-39.79-4.81-26.46-7.58-39.64q-2-9.9-4.29-19.76C892.54,1103.75,891,1097.18,889.39,1090.61Z"/><path class="cls-16" d="M569.07,1290.39s1.93,81.46,23.27,69.82c0,0,11.64,21.34,19.39,1.94,0,0,26.81,19.76,23.28-9.7-5.82-48.48-5.82-62.06-5.82-62.06"/><path class="cls-17" d="M838.5,1283.5s.15,86.41,26.33,66c0,0,21.33,38.79,34.91,1.94,0,0,20.36,14.55,21.33-11.63,1.84-49.43.43-62.35.43-62.35"/><path class="cls-18" d="M625.31,1366.8s10.75,12.22,18.42,9.5L633,1364.09Z"/><path class="cls-18" d="M582.58,1363.66s2.1,13.06,8,13.18l-2.11-13.07Z"/><path class="cls-18" d="M913,1354.42s-.26,13.82-5.61,13.48l.26-13.81Z"/><path class="cls-18" d="M888.27,1366.88s-.94,16.73-7.93,16.85l.95-16.73Z"/><path class="cls-18" d="M612.78,1386.42l-4.46-15.65-8.1-.84s4.46,15.64,12.56,16.49"/><path class="cls-18" d="M847.83,1352s4.46,15.65,12.56,16.49l-4.46-15.64Z"/><path class="cls-19" d="M874.5,992.5s163.62,192,161.81,268l72.58-31.77S1021.5,1046.5,910.5,966.5Z"/><path class="cls-20" d="M499.13,918.06c-101.89-4.13-181.14-90.08-177-192s90.08-181.14,192-177a184.64,184.64,0,0,1,177,192C687,843,601,922.19,499.13,918.06"/><circle class="cls-20" cx="1005.37" cy="722.03" r="178.45"/><ellipse class="cls-21" cx="533.54" cy="733.44" rx="139.4" ry="147.96" transform="translate(-220.92 1236.83) rotate(-87.68)"/><ellipse class="cls-22" cx="979.44" cy="719.8" rx="134.72" ry="143" transform="translate(220.55 1669.27) rotate(-87.68)"/><ellipse class="cls-22" cx="551.86" cy="734.35" rx="122.12" ry="129.62" transform="translate(-204.24 1256) rotate(-87.68)"/><ellipse class="cls-22" cx="961.75" cy="718.67" rx="118.02" ry="125.27" transform="translate(204.7 1650.5) rotate(-87.68)"/><circle class="cls-22" cx="572.69" cy="733.81" r="111.27"/><circle class="cls-22" cx="943.97" cy="719.54" r="107.54"/><path d="M404.78,512.36a108.41,108.41,0,0,1,10.29-9.45c3.6-3,7.37-5.74,11.23-8.39a174.88,174.88,0,0,1,24.49-13.86,160,160,0,0,1,54.62-14.32,150.87,150.87,0,0,1,28.43.74l7,1c2.33.42,4.64,1,7,1.45,1.16.25,2.32.48,3.47.76l3.41,1c2.27.67,4.56,1.27,6.8,2a160,160,0,0,1,49,26.9c-16.32-8.89-33.24-16.21-50.8-20.87-2.2-.58-4.43-1-6.63-1.53l-3.31-.76c-1.11-.22-2.24-.38-3.35-.57-2.24-.36-4.46-.76-6.69-1.1l-6.74-.73c-2.23-.31-4.5-.32-6.75-.48l-3.37-.19c-1.13-.07-2.26,0-3.38,0-2.26,0-4.51-.07-6.77,0l-6.75.36a186.24,186.24,0,0,0-52.76,12.11,220,220,0,0,0-24.9,11.43c-2.05,1-4,2.2-6.05,3.31s-4,2.33-5.93,3.53q-1.49.89-2.94,1.83t-2.91,1.89C408.56,509.67,406.66,511,404.78,512.36Z"/><path d="M603.19,738.22c0,75.43-20.56,103.56-43.69,136.58-9.14,13-43.69-61.15-43.69-136.58S551,614.84,559.5,601.65C567.21,589.64,603.19,662.79,603.19,738.22Z"/><path d="M994.63,720.45c0,75.43-20.56,103.56-43.69,136.58-9.13,13-43.68-61.15-43.68-136.58s35.21-123.38,43.68-136.57C958.65,571.87,994.63,645,994.63,720.45Z"/><circle class="cls-23" cx="618.38" cy="679.97" r="34.73"/><circle class="cls-23" cx="1052.91" cy="687.3" r="34.27"/><path d="M1102,505.73c-2-1.38-4-2.7-6-4s-4-2.52-6.11-3.71c-4.12-2.4-8.29-4.67-12.55-6.76a199.57,199.57,0,0,0-26.11-10.87,153.81,153.81,0,0,0-55-8.29A137.46,137.46,0,0,0,942.61,486c-16.85,8.2-32.34,19.37-46.81,32a156.2,156.2,0,0,1,43.91-37.55,126.31,126.31,0,0,1,56.19-16.23,138.85,138.85,0,0,1,57.5,10.4,165.49,165.49,0,0,1,25.86,13.35c4.06,2.64,8.06,5.35,11.85,8.33A109.36,109.36,0,0,1,1102,505.73Z"/><ellipse class="cls-23" cx="462.11" cy="774.53" rx="12.01" ry="35.46" transform="translate(-330.5 1204.88) rotate(-87.68)"/><ellipse class="cls-23" cx="908.84" cy="787.32" rx="12.01" ry="35.46" transform="translate(85.34 1663.52) rotate(-87.68)"/><path class="cls-24" d="M968.19,186.83s-58.63,14-79.87,43.79c-20.89,29.23-38.32,95.87-38.91,98.16l0,0a2.07,2.07,0,0,1-2.89.45l-1.15-.82a1.76,1.76,0,0,1-1.57-2v0c3.43-26,28.37-85.89,39.77-107.28,11.67-21.9,89.47-59.31,96-51S968.19,186.83,968.19,186.83Z"/><path class="cls-24" d="M700.93,324.28c-1.62-22.7-23.34-81.22-34.58-102s-98.53-61.41-107.17-54.47,11.23,17.83,11.23,17.83,67.42,17.82,89,46.55S694,324.28,694,324.28,701.84,337.15,700.93,324.28Z"/><path class="cls-25" d="M600.09,342.57S532.93,282,492,262.31s-44.23,22.93-44.23,22.93l-8.19,126.13S482.5,375.5,600.09,342.57Z"/><path class="cls-25" d="M1082.5,427.5l30.32-139c-1.64-39.32-44.23-13.11-44.23-13.11L967,327.83S1045.5,375.5,1082.5,427.5Z"/><path class="cls-26" d="M554.81,349.4a3.35,3.35,0,0,0,1-5.94c-11-7.81-35.66-25.43-53-39-22.93-18-26.21,8.19-26.21,8.19l-5.11,60.3c-.43,5.12,4.36,8.75,9,6.58C497.38,371.65,531.54,356.56,554.81,349.4Z"/><path class="cls-26" d="M1061.26,392.27a3,3,0,0,0,5.16-1c5.76-15.71,22.64-62.79,24.89-81,2.72-22-17.58-9.37-17.58-9.37l-64.65,41.6c-2.2,1.41-1.69,4.4.42,5.94C1020.7,356.67,1049.66,378.91,1061.26,392.27Z"/><path class="cls-27" d="M714.33,915.51s3,25.6,28.62,22.59S764,909.49,764,909.49s9,28.61,37.66,28.61c.74,0,1.48,0,2.2-.06,26.88-1.41,34.51-27,34.51-27"/><path class="cls-28" d="M706.8,920s10.54-1.51,10.54-13.56"/><path class="cls-29" d="M848.38,912.5s-16.57,1.5-15.07-12"/><path class="cls-28" d="M822.14,932.12s.26,16-5.74,26c0,0-14-11-13-20Z"/><path class="cls-28" d="M751.33,936s-1.32,12.69-7,20c0,0-10-10.07-8.39-17.11Z"/></g></svg>