<?xml version="1.0" encoding="UTF-8"?><svg id="Layer_1" xmlns="http://www.w3.org/2000/svg" viewBox="0 0 1500 1500"><defs><style>.cls-1{stroke-width:5px;}.cls-1,.cls-2,.cls-3,.cls-4,.cls-5,.cls-6,.cls-7{fill:#fff;}.cls-1,.cls-8,.cls-9,.cls-10,.cls-3,.cls-11,.cls-4,.cls-12,.cls-13,.cls-5,.cls-6,.cls-14,.cls-15,.cls-16,.cls-17,.cls-18{stroke-miterlimit:10;}.cls-1,.cls-8,.cls-9,.cls-10,.cls-3,.cls-11,.cls-4,.cls-13,.cls-5,.cls-14,.cls-19,.cls-20,.cls-7,.cls-21,.cls-16,.cls-17,.cls-18{stroke:#000;}.cls-22{fill:#e7a900;}.cls-23{fill:#edff00;}.cls-24,.cls-8,.cls-17{fill:#cfb8d1;}.cls-25,.cls-15{fill:#9b869d;}.cls-8,.cls-9,.cls-3,.cls-11,.cls-12,.cls-13,.cls-19,.cls-20,.cls-26,.cls-7{stroke-linecap:round;}.cls-8,.cls-10,.cls-3,.cls-11,.cls-4,.cls-18{stroke-width:9px;}.cls-9,.cls-13,.cls-26,.cls-16,.cls-18{fill:none;}.cls-9,.cls-19,.cls-20,.cls-7,.cls-21{stroke-width:7px;}.cls-10{fill:#125200;}.cls-11{fill:#f4f4f4;}.cls-12{fill:#ffe7ff;stroke:#ffe7ff;}.cls-13,.cls-5,.cls-16{stroke-width:8px;}.cls-6{stroke:#fff;}.cls-14{fill:#a0c4ff;}.cls-15{stroke:#9b869d;}.cls-19{fill:#727272;}.cls-19,.cls-20,.cls-26,.cls-7,.cls-21{stroke-linejoin:round;}.cls-20{fill:#686868;}.cls-26{stroke:#ddaf52;stroke-width:4px;}.cls-21{fill:#fdffb6;}.cls-17{stroke-width:6px;}</style></defs><rect class="cls-14" width="1500" height="1500"/><path class="cls-24" d="m842.55,862.88h155.46c49.49,0,89.66,40.18,89.66,89.66v207.21h-176.4c-54.84,0-99.36-44.52-99.36-99.36v-166.88c0-16.91,13.73-30.64,30.64-30.64Z" transform="translate(1961.11 61.53) rotate(90)"/><path class="cls-25" d="m879.87,925.97c70.02,10.02,146.09,58.93,155.07,134.13,2.5,20.16-.13,41.09-6.84,60.1,1.28-17.04,1.36-33.64-1.55-50.3-12.03-74.15-82.21-117.49-146.69-143.93h0Z"/><path class="cls-25" d="m898.61,895.3c79.44,11.56,165.98,71.61,165.4,159.15.03,10.08-1.24,20.2-3.54,29.98-.48-14.28-1.76-28.09-5.08-41.74-17.36-75.53-89.71-119.48-156.78-147.38h0Z"/><path class="cls-15" d="m950.58,880.82s110.75,23.85,131.19,141.42c0,0,11.89-107.27,0-114.15-32.37-18.74,31.12-26.41-131.19-27.26Z"/><path class="cls-15" d="m908.83,929.38c-5.11-17.04,13.63-20.45,18.74-18.74s8.52-8.52,8.52-8.52c0,0,1.17-10.77,17.89-14.48,15.33-3.41,22.15,1.7,22.15,1.7,0,0-51.44-21.3-66.45-3.41-15,17.89-33.82,25.53-33.82,25.53l22.75,26.23,10.22-8.32Z"/><path class="cls-16" d="m843.38,863.42h155.46c49.49,0,89.66,40.18,89.66,89.66v207.21h-176.4c-54.84,0-99.36-44.52-99.36-99.36v-166.88c0-16.91,13.73-30.64,30.64-30.64Z" transform="translate(1962.49 61.23) rotate(90)"/><path class="cls-24" d="m586.81,958.34s-288.83,256.27-90.83,342.61c-2.51,4.25,470.27,42.99,525.51-8.93,52.98-49.79,37.22-206.93-128.03-358.78-165.25-151.85-306.65,25.1-306.65,25.1Z"/><path class="cls-25" d="m433.47,1169.61s20.45-22.15,32.37,1.7c8.82,17.63,16.7,57.61,20.22,77.27.68,3.82-3.66,6.52-6.77,4.2-9.96-7.42-26.9-17.83-42.41-16.72-23.85,1.7-3.41-66.45-3.41-66.45Z"/><path class="cls-25" d="m494.81,1283.77s355.94,15.87,368.8,14.75c12.86-1.12-5.08,21-27.64,19.31-22.55-1.69-335.41-15.03-339.99-16.88-4.58-1.85-1.17-17.18-1.17-17.18Z"/><path class="cls-25" d="m801.49,929.38s163.57,129.49,184.01,354.39c0,0,48.35,38.33,63.36-48.99,0,0,23.63-147.85-173.21-318.63-196.84-170.78,0,0,0,0l-74.17,13.23Z"/><path class="cls-25" d="m631.97,926.82s30.67,1.7,42.6,28.96c11.93,27.26,109.04,52.82,155.05,27.26,46-25.56,64.74-11.93,64.74-11.93l-42.6-44.3-219.79-13.16v13.16Z"/><path class="cls-16" d="m588.02,959.14s-288.83,256.27-90.83,342.61c0,0,471.92,40.2,525.51-8.93,53.59-49.13,37.22-206.93-128.03-358.78-165.25-151.85-306.65,25.1-306.65,25.1Z"/><path class="cls-24" d="m510.93,1302.54c-4.5-8.34-124.62-1.47-173.74,11.71-49.11,13.19-48.37-24.9-48.37-24.9l-11.73-69.53s-13.87-54.77,20.61-59.76c34.48-4.99,37.45,44.57,42.04,70.63,4.59,26.06,37.3,16.78,37.3,16.78l88.8-13.13"/><path class="cls-25" d="m343.17,1305.92s79.88-34.96,160.91-21.74l3.71,16.66-164.63,5.07Z"/><path class="cls-12" d="m273.31,1207.1s4.56-40.81,14.2-43.41c9.65-2.59-12.5,36.59,23.28,137.12,0,0,8.92,15.3,3.61,17.02-5.31,1.72-27.46,6.83-34.28-54.51-6.82-61.34-6.82-56.23-6.82-56.23Z"/><path class="cls-25" d="m322.72,1178.13s-10.22-34.08-11.93-11.93c0,0,8.52,73.26,23.85,90.3,17.36,19.29,81.78-8.52,81.78-8.52,0,0-66.45,5.11-71.56-3.41s-22.15-66.45-22.15-66.45Z"/><path class="cls-13" d="m462.44,1236.06l-85.89,12.22s-32.71,9.28-37.3-16.78c-4.59-26.06-7.56-75.63-42.04-70.63-34.48,4.99-20.61,59.76-20.61,59.76l11.73,69.53s-.74,38.09,48.37,24.9c49.11-13.19,169.23-20.05,173.74-11.71"/><path class="cls-24" d="m844.28,1313.92s75.14,12.52,92.68,25.05c17.53,12.52,70.13,0,67.63-12.52-2.5-12.52,50.1-170.33-52.6-122.73,0,0-27.55,30.06-22.54,75.14"/><path class="cls-12" d="m926.72,1274.4s12.64-67.59,24.64-67.45c6.46.08,40.11-9.22,28.18-4.11-7.26,3.11-18.54,37.28-21.3,50.26-4.03,19.02-3.35,40.11-7.67,43.45-4.32,3.34-13.63-11.07-23.85-22.15Z"/><path class="cls-25" d="m961.65,1339.99c4.1,1.02,2.39-19.51,2.78-23.72l7.45-81.92s11.58-57.26,39.19-13.63c1.23,1.94.32-5.64.78-3.4,2.68,13.02,9.83,61.26-17.82,110.74,0,0-11.23,27.96-95.91-2.2,0,0-45.5-2.91-45.5-16.54,0-4.83,11.93-10.22,11.93-10.22,0,0,50.86,2.41,54.52,8.52,5.11,8.52,4.56,12.85,20.45,17.04,9.23,2.43,8.52,11.93,22.15,15.33Z"/><path class="cls-13" d="m849.2,1316.14s69.82,9.9,87.36,22.42c17.53,12.52,63-.62,67.63-12.52,5.17-13.31,41.16-143.37-28.71-130.81-16.46,2.96-30.19,14.15-37.3,29.29-6.16,13.12-11.6,31.7-9.13,53.93"/><path class="cls-24" d="m1172.82,524.27c-.95,16.91-3.28,33.44-6.79,49.54-30.86,141.07-145.88,236.68-230.77,296.37-34.07,23.92-63.3,42.11-80.28,55.08-4.48,3.43-8.12,6.49-10.77,9.22-42.38,43.58-85.94,42.71-119.63,30.16-14.1-5.26-26.48-12.57-36.29-19.49-5.74-4.06-10.6-7.97-14.45-11.3-7.11-6.14-15.33-10.9-24.27-13.9-51.8-17.51-229.51-87.22-280.69-234.35-18.71-53.83-25.8-100.67-26.65-139.64-.3-15.3.33-29.43,1.55-42.26,7.24-38.5,30.21-74.32,65.1-105.15,74.24-65.68,202.49-109.06,348.24-109.06,46.54,0,91.27,4.43,133.05,12.57,161.41,31.51,278.43,118.78,282.64,222.2Z"/><path class="cls-25" d="m802.19,290.9s622.9,209.11-26.25,665.73c0,0-37.39,3.71-17.84,15.49,19.55,11.77,88.88-40.28,88.88-40.28,0,0,199.52-139.37,203.1-156.96,3.58-17.59,197.82-172.64,87.07-346.43,0,0-136.61-140.51-334.95-137.55Z"/><path class="cls-24" d="m623.1,1026.93s0,163.57-5.83,201.05c-5.83,37.48-17.48-6.82-17.48-6.82,0,0-16.51,74.97-30.11,6.82-13.6-68.15,17.48-201.05,17.48-201.05,0,0-8.99-14.4-20.22,11.15"/><path d="m623.1,1026.93c1.4,40.61,1.83,81.25,1.45,121.89-.43,25.46-.52,50.99-3.21,76.43-.8,6.2-1.42,12.55-4.63,18.12-1.3,2.23-4.45,4.26-7.34,3.29-4.55-1.57-6.23-5.84-8.11-9.52-2.23-4.98-3.82-9.85-5.25-14.98l7.61-.15c-2.51,10.07-7.83,32.92-17.39,37.74-10.69,4.34-15.03-10.53-17.29-17.97-1.61-5.63-2.84-11.53-3.79-17.3-3.31-20.18-2.87-40.85-1.69-61.15,1.48-23.11,4.55-46.07,8.43-68.87,3.94-22.77,8.62-45.37,14.35-67.74l.12.73c-1.15-1.81-3.04-3.47-5.17-3.77-6.8-.51-11.53,9.22-14.24,14.41.92-2.27,1.92-4.52,3.1-6.69,3.8-7.44,11.2-13.76,17.94-4.98,0,0,.21.29.21.29l-.09.44c-2.2,11.28-4.24,22.61-6.09,33.97-5.54,33.97-10.02,68.2-11.64,102.59-.92,22.67-.89,45.56,4.03,67.77,1.24,5.48,2.69,10.96,4.75,15.8.78,1.85,2.23,4.57,3.56,5.34,2.36-1.55,4.19-5.31,5.63-8.4,3.34-7.58,5.7-15.83,7.62-23.89,0,0,3.52-15.11,3.52-15.11l4.08,14.96c1.27,4.65,2.82,9.47,4.73,13.76.8,1.77,1.92,4.01,3.12,5.22.19.21.35.22,0,.09-.15-.03-.48-.1-.75-.02-.28.03-.5.17-.57.21-.16.12.02,0,.19-.27,1.78-3.15,2.5-7.45,3.19-11.22.94-6.14,1.51-12.32,2.05-18.6.73-8.71,1.36-21.42,1.85-30.29,2.3-46.5,3.93-105.27,5.71-152.13h0Z"/><path class="cls-24" d="m875.71,1031.57c-15.46-25.56-27.84-11.15-27.84-11.15,0,0,42.78,132.9,24.07,201.05-18.72,68.15-41.45-6.82-41.45-6.82,0,0-16.04,44.3-24.06,6.82-8.02-37.48-8.02-201.05-8.02-201.05"/><path d="m875.71,1031.57c-5.57-8.81-17.11-20.57-26.9-10.35,0,0,.24-1.19.24-1.19,11.5,33.78,20.5,68.43,26.4,103.65,4.52,28.07,7.43,56.88,3.52,85.27-.27,1.39-.93,5.42-1.19,6.79-.33,1.54-1.25,5.19-1.6,6.75-2.92,9.9-6.6,23.65-15.46,29.95-16.12,9.56-26.84-16.33-31.4-27.82-1.09-2.87-2.09-5.68-3.03-8.7l8.34.22c-.99,2.63-2.02,5.02-3.17,7.48-2.94,5.84-5.95,12.25-11.77,15.92-7.74,4.29-13.23-2.77-15.27-9.48-1.75-4.56-2.56-11.15-3.35-15.93-3.75-33.61-3.88-67.19-4.16-100.86-.12-30.96.33-61.92,1.51-92.87,1.5,35.21,3.5,88.87,5.31,123.61.88,16.7,2.1,37.2,3.68,53.82.43,4.9,1.11,10.3,1.76,15.16.71,4.07,1.73,10.49,3.22,14.25.58,1.68,1.58,3.83,2.67,4.85.17.16.25.15.2.13-.05-.02-.2-.03-.2-.03,0,0,.14-.03.37-.17,1.91-1.27,3.28-3.35,4.76-5.7,2.42-4.02,4.51-8.69,6.2-13.18l4.46-11.88c2.84,8.76,6.07,19.8,10.12,28.05,2.84,5.67,5.94,12.14,11.16,15.66,2.46,1.55,4.3-.14,5.99-2.11,3.21-3.99,5.35-9.45,7.12-14.44,1.36-3.85,2.61-8.34,3.54-12.37,5.95-27.06,3.94-55.19.88-82.56-4.67-38.06-12.81-75.72-22.94-112.69,0,0-.21-.73-.21-.73,1.29-1.37,2.77-2.5,4.39-3.27,11.04-5.27,20.18,6.09,24.83,14.77h0Z"/><path class="cls-18" d="m1173.43,523.67c-.95,16.91-3.28,33.44-6.79,49.54-30.86,141.07-145.88,236.68-230.77,296.37-34.07,23.92-63.3,42.11-80.28,55.08-4.48,3.43-8.12,6.49-10.77,9.22-42.38,43.58-85.94,42.71-119.63,30.16-14.1-5.26-26.48-12.57-36.29-19.49-5.74-4.06-10.6-7.97-14.45-11.3-7.11-6.14-15.33-10.9-24.27-13.9-51.8-17.51-229.51-87.22-280.69-234.35-18.71-53.83-25.8-100.67-26.65-139.64-.3-15.3.33-29.43,1.55-42.26,7.24-38.5,30.21-74.32,65.1-105.15,74.24-65.68,202.49-109.06,348.24-109.06,46.54,0,91.27,4.43,133.05,12.57,161.41,31.51,278.43,118.78,282.64,222.2Z"/><circle class="cls-5" cx="497.77" cy="704.89" r="169.22"/><circle class="cls-5" cx="954.87" cy="694.32" r="163.54"/><ellipse class="cls-23" cx="522.45" cy="704.77" rx="127.75" ry="135.6" transform="translate(-202.91 1198.24) rotate(-87.68)"/><ellipse class="cls-23" cx="931.11" cy="692.27" rx="123.47" ry="131.05" transform="translate(201.68 1594.56) rotate(-87.68)"/><ellipse class="cls-22" cx="539.24" cy="705.6" rx="111.92" ry="118.79" transform="translate(-187.63 1215.81) rotate(-87.68)"/><ellipse class="cls-22" cx="914.89" cy="691.23" rx="108.16" ry="114.81" transform="translate(187.16 1577.36) rotate(-87.68)"/><circle cx="558.33" cy="705.1" r="101.98"/><circle cx="898.6" cy="692.04" r="98.56"/><path d="m404.44,502.16c34.85-35.28,89.32-51.77,137.48-37.93,18.71,5.22,36.27,14.66,51.08,26.77-27.76-15.04-58.01-24.83-89.61-23.7-35.4,1.24-69.93,14.77-98.95,34.86h0Z"/><circle class="cls-6" cx="600.2" cy="655.77" r="31.83"/><circle class="cls-6" cx="998.44" cy="662.48" r="31.41"/><ellipse class="cls-6" cx="462.06" cy="763.81" rx="11.01" ry="32.5" transform="translate(-319.84 1194.55) rotate(-87.68)"/><ellipse class="cls-6" cx="873.87" cy="759.32" rx="10.64" ry="31.41" transform="translate(79.77 1601.71) rotate(-87.68)"/><path d="m1043.41,496.08c-28.43-18.91-62.53-31.82-96.9-30.45-34.83,1.26-66.05,18.99-92.07,41.63,10.96-13.78,24.54-25.69,40.12-34.64,48.33-28.17,109.9-14.38,148.84,23.46h0Z"/><path class="cls-1" d="m969.46,178.45s-66.22,15.86-90.21,49.45c-23.59,33.01-43.27,108.27-43.94,110.85-.02.05-.02.07-.02.07l-6.57-.65c.07-.66.15-1.34.23-2.04,3.87-29.42,32.03-97,44.91-121.15,13.18-24.73,101.03-66.98,108.42-57.59,7.37,9.39-12.83,21.06-12.83,21.06Z"/><path class="cls-1" d="m660.59,338.35s-14.45-60.74-38.54-88.27c-24.09-27.52-99.23-44.61-99.23-44.61,0,0-22.16-10.44-12.52-17.08s106.94,32.27,119.46,52.2c12.52,19.93,38.54,75.93,38.54,97.76"/><path class="cls-17" d="m968.72,178.24s-66.22,15.86-90.21,49.45c-23.59,33.01-43.27,108.27-43.94,110.85-.02.05-.02.07-.02.07l-6.57-.65c.07-.66.15-1.34.23-2.04,3.87-29.42,32.03-97,44.91-121.15,13.18-24.73,101.03-66.98,108.42-57.59,7.37,9.39-12.83,21.06-12.83,21.06Z"/><path class="cls-17" d="m660.02,338.19s-14.45-60.74-38.54-88.27c-24.09-27.52-99.23-44.61-99.23-44.61,0,0-22.16-10.44-12.52-17.08,9.63-6.64,106.94,32.27,119.46,52.2s38.54,75.93,38.54,97.76"/><path class="cls-7" d="m371.35,842.62s-74.97-54.52-88.6-69.86c-13.63-15.33-11.93,20.45-5.11,35.78,6.82,15.33,61.34,81.78,93.71,98.82,32.37,17.04,80.08,28.96,80.08,28.96,0,0-153.34-63.04-163.57-71.56-10.22-8.52-11.93,11.93,0,25.56,11.93,13.63,60.01,74.69,124.57,77.38l31.48,7.24s-121.97-35.21-133.9-35.21-15.33,1.7-8.52,17.04c6.82,15.33,37.48,42.6,51.11,46,13.63,3.41,69.86,14.58,98.82,11.55,28.96-3.03,20.45.38,20.45.38,0,0-63.04,3.41-73.26,11.93-10.22,8.52,0,13.63,0,13.63,0,0,51.11,13.63,81.78-1.7,0,0,31.73-5.97,46.09-25.36,1.05-1.42,2.01-2.92,2.86-4.49,0,0-19.98,28.14-47.24,31.55,0,0-18.74,0-20.45,22.15s37.48-10.22,40.89-15.33c3.41-5.11-69.86-185.71-69.86-185.71l-61.34-18.74Z"/><path class="cls-7" d="m574.95,967.85s-51.11-69.86-139.71-102.23l-61.34-40.89s-12.78,70.71,65.6,108.19c0,0-80.08-44.3-59.63,1.7,20.45,46,74.97,40.89,74.97,40.89,0,0-35.78-1.7-49.41-3.41s-8.52,27.26,11.93,37.48c20.45,10.22,59.63,1.7,63.04,0,0,0-11.93,30.67,8.52,27.26,20.45-3.41,42.6-30.67,42.6-30.67l43.45-38.34Z"/><path class="cls-7" d="m1099.13,833.6s68.27-54.52,80.68-69.86c12.41-15.33,10.86,20.45,4.65,35.78-6.21,15.33-55.86,81.78-85.34,98.82-29.48,17.04-72.92,28.96-72.92,28.96,0,0,139.64-63.04,148.95-71.56,9.31-8.52,10.86,11.93,0,25.56-10.86,13.63-54.65,74.69-113.44,77.38l-28.67,7.24s111.07-35.21,121.93-35.21,13.96,1.7,7.76,17.04c-6.21,15.33-34.13,42.6-46.55,46-12.41,3.41-63.61,14.58-89.99,11.55-26.38-3.03-18.62.38-18.62.38,0,0,57.41,3.41,66.72,11.93,9.31,8.52,0,13.63,0,13.63,0,0-46.55,13.63-74.47-1.7,0,0-26.75-6.52-39.82-25.91-.96-1.42-3.98-2.37-4.75-3.94,0,0,18.2,28.14,43.02,31.55,0,0,17.07,0,18.62,22.15,1.55,22.15-28.23-12.28-31.33-17.39-3.1-5.11,57.71-183.66,57.71-183.66l55.86-18.74Z"/><path class="cls-7" d="m925.36,954.57s-7.76-40.89,72.92-73.26l26.47-34.43,52.82-40.89s30.87,80.43-40.5,117.91c0,0,72.92-44.3,54.3,1.7-18.62,46-68.27,40.89-68.27,40.89,0,0,32.58-1.7,45-3.41,12.41-1.7,7.76,27.26-10.86,37.48-18.62,10.22-54.3,1.7-57.41,0,0,0,10.86,30.67-7.76,27.26-18.62-3.41-38.79-30.67-38.79-30.67l-27.93-42.6Z"/><path class="cls-10" d="m528.95,310.18c-47.52,0-61.34,42.6-61.34,42.6,0,0,80.08,15.33,93.71,1.7,13.63-13.63,11.93-44.3-32.37-44.3Z"/><path class="cls-10" d="m551.79,362.15c-28.83,19.36-20.28,50.2-20.28,50.2,0,0,54.68-23.55,57.53-37.17,2.85-13.62-10.37-31.08-37.25-13.04Z"/><path class="cls-4" d="m623.13,419.15c-32.54,34.63-69.48,18.88-69.48,18.88,0,0,44.94-67.65,63.07-69.32,18.13-1.67,36.74,18.16,6.41,50.44Z"/><path class="cls-4" d="m679.09,414.89c-13.62,45.53-53.7,47.96-53.7,47.96,0,0,9.95-80.61,25.42-90.21,15.47-9.6,40.98-.19,28.29,42.25Z"/><path class="cls-10" d="m717.23,416.31c-5.35,32.99-44.13,36.53-44.13,36.53,0,0-4.37-57.76,9.07-65.29,13.44-7.53,40.05-2,35.06,28.75Z"/><path class="cls-10" d="m770.9,407.89c8.07,32.43-26.17,50.96-26.17,50.96,0,0-26.77-51.37-17.38-63.58,9.39-12.22,36.02-17.61,43.55,12.62Z"/><path class="cls-10" d="m772.65,414c8.07,32.43,49.85,32.04,49.85,32.04,0,0,.6-58.18-14.34-64.34-14.93-6.16-43.04,2.07-35.51,32.3Z"/><path class="cls-10" d="m823.72,409.18c15.3,29.71,55.87,19.75,55.87,19.75,0,0-12.77-56.76-28.72-59.33-15.95-2.57-41.41,11.89-27.15,39.59Z"/><path class="cls-10" d="m871.39,383.74c20.95,26.04,58.7,8.13,58.7,8.13,0,0-23.9-53.04-40.04-52.36-16.14.68-38.18,19.96-18.66,44.23Z"/><path class="cls-10" d="m938.95,338.6c20.95,26.04,10.08,47.25,10.08,47.25,0,0-41.41-38.96-41.99-50.79-.58-11.84,12.38-20.73,31.91,3.54Z"/><path class="cls-4" d="m959.3,337.73c42.51,21.25,66.56,4.03,66.56,4.03,0,0-67.41-44.24-83.35-42.85-15.94,1.39-22.84,19,16.78,38.82Z"/><path class="cls-4" d="m548.69,371.15c-29.47,15.76-48.3,1.15-48.3,1.15,0,0,45.96-33.47,57.7-31.85,11.74,1.62,18.08,16.01-9.39,30.7Z"/><path class="cls-10" d="m563.61,367.05c11.97-31.2,35.78-32.47,35.78-32.47,0,0-12.85,55.38-22.79,61.84-9.94,6.45-24.15-.28-12.99-29.36Z"/><path class="cls-10" d="m619.64,398.12c11.97-31.2,35.78-32.47,35.78-32.47,0,0-12.85,55.38-22.79,61.84-9.94,6.45-24.15-.28-12.99-29.36Z"/><path class="cls-4" d="m722.21,410.07c14.76-29.98,3.86-46.17,3.86-46.17,0,0-30.34,47.83-29.71,58.83.63,10.99,12.09,15.3,25.85-12.65Z"/><path class="cls-4" d="m791.47,418.82c16.2-29.23-14.64-57.42-14.64-57.42,0,0-40.09,42.17-33.36,56.85,6.73,14.69,32.9,27.82,48,.57Z"/><path class="cls-10" d="m806.23,405.15c-14.78-29.97,6.06-51.08,6.06-51.08,0,0,33.96,46.04,30.16,58.6-3.8,12.56-22.44,20.42-36.22-7.52Z"/><path class="cls-4" d="m848.2,381.04c13.9-30.39,37.74-30.17,37.74-30.17,0,0-16.29,54.47-26.61,60.29-10.32,5.82-24.08-1.79-11.13-30.12Z"/><path class="cls-4" d="m924.41,376.11c14.81-45.16-5.75-66.44-5.75-66.44,0,0-33.9,73.16-30.2,88.72,3.71,15.56,22.14,19.81,35.94-22.28Z"/><path class="cls-9" d="m689.3,871.99s47.55,26.35,107.34,0"/><path class="cls-9" d="m680.46,873.97s12.23,2.49,10.19-10.44"/><path class="cls-9" d="m806.06,874.81s-12.26,2.49-10.22-10.44"/><path class="cls-23" d="m495.03,711.77s3.48,14.78-7.82,17.38c0,0,12.17-4.35,13.04,7.82,0,0-.87-10.43,6.95-10.43s-7.82,7.82-12.17-14.78Z"/><path class="cls-23" d="m552.65,578.28s6.82,28.96-15.33,34.08c0,0,23.85-8.52,25.56,15.33,0,0-1.7-20.45,13.63-20.45s-15.33,15.33-23.85-28.96Z"/><path class="cls-23" d="m599.49,744.22s3.48,14.78-7.82,17.38c0,0,12.17-4.35,13.04,7.82,0,0-.87-10.43,6.95-10.43s-7.82,7.82-12.17-14.78Z"/><path class="cls-23" d="m851.65,628.46s3.48,14.78-7.82,17.38c0,0,12.17-4.35,13.04,7.82,0,0-.87-10.43,6.95-10.43s-7.82,7.82-12.17-14.78Z"/><path class="cls-23" d="m849.95,710.25s3.48,14.78-7.82,17.38c0,0,12.17-4.35,13.04,7.82,0,0-.87-10.43,6.95-10.43s-7.82,7.82-12.17-14.78Z"/><path class="cls-23" d="m929.91,616.01s6.81,28.95-15.33,34.06c0,0,23.84-8.51,25.54,15.33,0,0-1.7-20.44,13.62-20.44s-15.33,15.33-23.84-28.95Z"/><path class="cls-8" d="m1048.44,1191.28s-3.41,35.78,5.11,49.41"/><path d="m1045.04,1216.84c24.37-3.33,68.24,8.74,65.57,39.74-.58,4.19-2.14,8.01-4.23,11.37.23-4,.39-7.77-.19-11.34-1.76-10.8-9.66-17.86-19.09-23.08-13.09-7.27-27.71-11.49-42.05-16.69h0Z"/><path d="m1142.15,1250.92c11.23,16.16,2.35,38.68-18.74,37.48,3.68-2.1,7.07-4.11,9.87-6.52,9.18-7.55,9.38-19.77,8.87-30.97h0Z"/><path class="cls-24" d="m875.12,1018.96c-15.46-25.56-27.84-11.15-27.84-11.15,0,0,42.78,132.9,24.07,201.05-18.72,68.15-41.45-6.82-41.45-6.82,0,0-16.04,44.3-24.06,6.82-8.02-37.48-7.68-189.19-7.68-189.19"/><path d="m875.12,1018.96c-5.57-8.81-17.11-20.57-26.9-10.35,0,0,.24-1.19.24-1.19,15.13,45.12,26.78,91.7,30.83,139.23,1.78,23.99,1.67,48.95-6.35,72-3.21,8.8-8.11,22.7-19.36,23.28-14.75,0-23.99-26.94-27.89-38.63,0,0,8.34.22,8.34.22-.94,2.5-1.92,4.78-3.01,7.13-2.38,4.92-4.67,9.48-8.62,13.65-1.09,1.09-2.35,2.21-4.26,3.09-6.43,2.93-11.54-2.37-13.59-7.99-2.89-7.34-3.78-15.14-4.68-22.71-2.94-29.64-3.21-59-3.4-88.63-.07-29.48.42-58.97,1.68-88.42,1.45,33.5,3.36,84.62,5.17,117.68,1.11,19.47,2.25,39.11,4.57,58.42.61,4.8,1.36,9.52,2.44,14.03.82,3.14,1.7,6.29,3.38,8.84.44.65.95,1.05.95,1,0,0-.12-.04-.19-.04-.07,0-.03.02.14-.06.34-.14.99-.63,1.62-1.28,6.76-7.64,10.26-20.24,14.02-29.68,0,0,3.85,12.2,3.85,12.2,3.52,10.25,7.58,21.5,14.91,29.6,1.84,1.75,3.89,3.61,6.24,2.01,2.83-2.03,4.59-5.37,6.25-8.75,2.37-5.08,4.14-10.58,5.66-16.04,7.9-31.12,4.7-63.91.79-95.47-4.94-35.31-12.56-70.31-22.05-104.67,4.58-5.14,12.31-6.07,17.86-2.11,5.05,3.37,8.41,8.47,11.36,13.62h0Z"/><path class="cls-24" d="m622.5,1014.32s0,163.57-5.83,201.05c-5.83,37.48-17.48-6.82-17.48-6.82,0,0-16.51,74.97-30.11,6.82-13.6-68.15,17.48-201.05,17.48-201.05,0,0-8.99-14.4-20.22,11.15"/><path d="m622.5,1014.32c1.4,40.61,1.83,81.25,1.45,121.89-.43,25.46-.52,50.99-3.21,76.43-.8,6.2-1.42,12.55-4.63,18.12-1.3,2.23-4.45,4.26-7.34,3.29-4.55-1.57-6.23-5.84-8.11-9.52-2.23-4.98-3.82-9.85-5.25-14.98,0,0,7.61-.15,7.61-.15-2.51,10.07-7.83,32.92-17.39,37.74-10.69,4.34-15.03-10.53-17.29-17.97-1.61-5.63-2.84-11.53-3.79-17.3-3.31-20.18-2.87-40.85-1.69-61.15,1.48-23.11,4.55-46.07,8.43-68.87,3.94-22.77,8.62-45.37,14.35-67.74l.12.73c-1.15-1.81-3.04-3.47-5.17-3.77-6.8-.51-11.53,9.22-14.24,14.41.92-2.27,1.92-4.52,3.1-6.69,3.8-7.44,11.2-13.76,17.94-4.98,0,0,.21.29.21.29,0,0-.09.44-.09.44-2.2,11.28-4.24,22.61-6.09,33.97-5.54,33.97-10.02,68.2-11.64,102.59-.92,22.67-.89,45.56,4.03,67.77,1.24,5.48,2.69,10.96,4.75,15.8.78,1.85,2.23,4.57,3.56,5.34,2.36-1.55,4.19-5.31,5.63-8.4,3.34-7.58,5.7-15.83,7.62-23.89,0,0,3.52-15.11,3.52-15.11,0,0,4.08,14.96,4.08,14.96,1.27,4.65,2.82,9.47,4.73,13.76.8,1.77,1.92,4.01,3.12,5.22.19.21.35.22,0,.09-.15-.03-.48-.1-.75-.02-.28.03-.5.17-.57.21-.16.12.02,0,.19-.27,1.79-3.15,2.5-7.45,3.19-11.22.94-6.14,1.51-12.32,2.05-18.6.73-8.71,1.36-21.42,1.85-30.29,2.3-46.5,3.93-105.27,5.71-152.13h0Z"/><path class="cls-3" d="m598.47,935.32s54.79,18.53,65.01,88.39c10.22,69.86,23.85,194.23,23.85,194.23,0,0-17.04,20.45-59.63-15.33-42.6-35.78-51.11-49.41-78.38-37.48s-20.45,74.97-52.82,59.63c-32.37-15.33-68.15-6.82-68.15-6.82,0,0-81.78,34.08-23.85-51.11,57.93-85.19,151.1-233,193.96-231.51Z"/><path class="cls-11" d="m1052.68,1191.12s-3.64-127.83-140.19-255.81"/><path class="cls-3" d="m912.49,935.31s-141.5,27.52-143.2,71.82c-1.7,44.3-1.7,207.86-13.63,219.79-11.93,11.93,124.48,14.53,161.7-32.84,18.74-23.85,57.93-17.04,57.93-17.04,0,0,85.19-13.63,37.48,126.08-15.43,45.18,219.79,20.45,214.68-35.78-5.11-56.23-174.76-76.23-174.76-76.23"/><path class="cls-8" d="m1051.95,1190.68s-3.41,35.78,5.11,49.41"/><path d="m1048.54,1216.24c24.37-3.33,68.24,8.74,65.57,39.74-.58,4.19-2.14,8.01-4.23,11.37.23-4,.39-7.77-.19-11.34-1.76-10.8-9.66-17.86-19.09-23.08-13.09-7.27-27.71-11.49-42.05-16.69h0Z"/><path d="m1145.66,1250.32c11.23,16.16,2.35,38.68-18.74,37.48,3.68-2.1,7.07-4.11,9.87-6.52,9.18-7.55,9.38-19.77,8.87-30.97h0Z"/><path class="cls-20" d="m496.51,1120.83s86.89,37.48,177.2,0c0,0-92.01-47.71-177.2,0"/><path class="cls-19" d="m793.14,1145.14s54.26,20.43,142.1-17.05c0,0-60.94-32.36-143.81,15.35"/><path class="cls-24" d="m878.63,1018.36c-15.46-25.56-27.84-11.15-27.84-11.15,0,0,42.78,132.9,24.07,201.05-18.72,68.15-41.45-6.82-41.45-6.82,0,0-16.04,44.3-24.06,6.82-8.02-37.48-7.68-189.19-7.68-189.19"/><path d="m878.62,1018.36c-5.57-8.81-17.11-20.57-26.9-10.35,0,0,.24-1.19.24-1.19,15.13,45.12,26.78,91.7,30.83,139.23,1.78,23.99,1.67,48.95-6.35,72-3.21,8.8-8.11,22.7-19.36,23.28-14.75,0-23.99-26.94-27.89-38.63,0,0,8.34.22,8.34.22-.94,2.5-1.92,4.78-3.01,7.13-2.38,4.92-4.67,9.48-8.62,13.65-1.09,1.09-2.35,2.21-4.26,3.09-6.43,2.93-11.54-2.37-13.59-7.99-2.89-7.34-3.78-15.14-4.68-22.71-2.94-29.64-3.21-59-3.4-88.63-.07-29.48.42-58.97,1.68-88.42,1.45,33.5,3.36,84.62,5.17,117.68,1.11,19.47,2.25,39.11,4.57,58.42.61,4.8,1.36,9.52,2.44,14.03.82,3.14,1.7,6.29,3.38,8.84.44.65.95,1.05.95,1,0,0-.12-.04-.19-.04-.07,0-.03.02.14-.06.34-.14.99-.63,1.62-1.28,6.76-7.64,10.27-20.24,14.02-29.68,0,0,3.85,12.2,3.85,12.2,3.52,10.25,7.58,21.5,14.91,29.6,1.84,1.75,3.89,3.61,6.24,2.01,2.83-2.03,4.59-5.37,6.25-8.75,2.37-5.08,4.14-10.58,5.66-16.04,7.9-31.12,4.7-63.91.79-95.47-4.94-35.31-12.56-70.31-22.05-104.67,4.58-5.14,12.31-6.07,17.86-2.11,5.05,3.37,8.41,8.47,11.36,13.62h0Z"/><path class="cls-24" d="m626.01,1013.72s0,163.57-5.83,201.05c-5.83,37.48-17.48-6.82-17.48-6.82,0,0-16.51,74.97-30.11,6.82-13.6-68.15,17.48-201.05,17.48-201.05,0,0-8.99-14.4-20.22,11.15"/><path d="m626.01,1013.72c1.4,40.61,1.83,81.25,1.45,121.89-.43,25.46-.52,50.99-3.21,76.43-.8,6.2-1.42,12.55-4.63,18.12-1.3,2.23-4.45,4.26-7.34,3.29-4.55-1.57-6.23-5.84-8.11-9.52-2.23-4.98-3.82-9.85-5.25-14.98l7.61-.15c-2.51,10.07-7.83,32.92-17.39,37.74-10.69,4.34-15.03-10.53-17.29-17.97-1.61-5.63-2.84-11.53-3.79-17.3-3.31-20.18-2.87-40.85-1.69-61.15,1.48-23.12,4.55-46.07,8.43-68.88,3.94-22.77,8.62-45.37,14.35-67.74l.12.73c-1.15-1.81-3.04-3.47-5.17-3.77-6.8-.51-11.53,9.22-14.24,14.41.92-2.27,1.92-4.52,3.1-6.69,3.8-7.44,11.2-13.76,17.94-4.98,0,0,.21.29.21.29,0,0-.09.44-.09.44-2.2,11.28-4.24,22.61-6.09,33.97-5.54,33.97-10.02,68.2-11.64,102.59-.92,22.67-.89,45.56,4.03,67.77,1.24,5.48,2.69,10.96,4.75,15.8.78,1.85,2.23,4.57,3.56,5.34,2.36-1.55,4.19-5.31,5.63-8.4,3.34-7.58,5.7-15.83,7.62-23.89,0,0,3.52-15.11,3.52-15.11l4.08,14.96c1.27,4.65,2.82,9.47,4.73,13.76.8,1.77,1.92,4.01,3.12,5.22.19.21.35.22,0,.09-.15-.03-.48-.1-.75-.02-.28.03-.5.17-.57.21-.16.12.02,0,.19-.27,1.79-3.15,2.5-7.45,3.19-11.22.94-6.14,1.51-12.32,2.05-18.6.73-8.71,1.36-21.42,1.85-30.29,2.3-46.5,3.93-105.27,5.71-152.13h0Z"/><path class="cls-2" d="m874.76,991.34s59.63,109.04,57.93,134.6c0,0-67.17-49.32-141.25,15.8-3.95,3.47,11.76-94.17-8.69-119.73"/><path d="m874.76,991.34c15.89,26.32,30.6,53.35,43.81,81.13,5.23,11.26,10.21,22.55,14.21,34.37,2.01,6.41,3.97,12.26,3.83,19.37,0,0-.27,7.08-.27,7.08-1.48-.99-6.21-4.41-7.58-5.22-18.22-11.07-39.97-16.5-61.23-15.4-26.45,1.29-51.21,13.58-71.29,30.47,0,0-1.61,1.35-1.61,1.35,0,0-.4.34-.4.34-.2.17-.42.34-.64.48-1.96,1.34-5.03.59-6.14-1.6-.56-1.13-.51-1.42-.61-1.81-.42-3.47.04-6.71.22-10.1,1.09-14.2,2.58-28.67,3.26-42.83.78-18.79,2.71-51.14-7.55-66.95,1.95,2.12,3.48,4.64,4.76,7.25,3.76,7.89,5.53,16.6,6.78,25.19,3.14,22.92,2.29,46.25,1.18,69.25-.08,4.71-.86,11.93-.53,16.56.01.1.03.19.03.18-.04-.04.09.02-.3-.78-1.15-2.17-4.32-2.54-5.92-1.06,30.86-28.35,72.57-42.7,113.78-30.82,11.51,3.32,22.63,8.14,32.49,15.01,0,0-6.25,2.91-6.25,2.91.21-5.22-1.55-11.37-3.04-16.63-3.44-11.58-8.03-22.94-12.69-34.13-11.83-28.27-25.07-55.92-38.28-83.58h0Z"/><path class="cls-2" d="m561.26,1010.08l-64.74,110.75s86.89-49.41,173.79,0l-35.78-117.56"/><path d="m561.26,1010.08c-19.56,37.32-41.01,75.69-61.79,112.48,0,0-4.65-4.71-4.65-4.71,6.82-3.78,13.85-6.83,21.1-9.62,42.96-16.48,92.54-18.69,135.35-.56,7.16,2.87,13.99,6.48,20.7,10.22l-4.9,3.92-8.44-29.55c-8.36-29.58-16.55-59.2-24.11-89,6.89,19.3,13.47,38.71,19.95,58.16,5.77,16.85,13.44,41.26,19.06,58.42.57,1.76-.4,3.65-2.16,4.22-.96.31-1.93.17-2.74-.3-12.98-7.1-26.81-12.6-41.14-16.05-35.98-8.91-74.31-5.02-109.02,7.38-6.93,2.49-13.89,5.35-20.38,8.78-2.98,1.63-6.33-1.85-4.52-4.77,0,0,16.63-27.42,16.63-27.42,16.71-27.39,33.61-54.67,51.07-81.59h0Z"/><path class="cls-26" d="m1048.61,1306.9s39.19,3.41,51.11,0"/><path class="cls-26" d="m1157.65,1296.68s23.85-3.41,30.67-20.45c6.82-17.04-6.82-22.15-6.82-22.15"/><path class="cls-26" d="m1123.58,1221.71s35.78,10.22,37.48,15.33"/><line class="cls-26" x1="1069.06" y1="1206.38" x2="1108.24" y2="1216.6"/><line class="cls-26" x1="781.97" y1="1207.23" x2="799" y2="1207.23"/><path class="cls-26" d="m894.42,1186.79s25.56-27.26,40.89-23.85"/><path class="cls-26" d="m408.83,1195.3s46-8.52,57.93-3.41"/><polyline class="cls-26" points="494.02 1195.3 511.06 1202.12 519.58 1174.86"/><line class="cls-26" x1="637.14" y1="1183.38" x2="657.59" y2="1195.3"/><path class="cls-21" d="m574.95,937.18s-40.89,22.15-81.78,90.3c-40.89,68.15,20.23,9.64,20.23,9.64,0,0,20.81-56.57,30.11-33.95,9.29,22.61,28.04-26.8,39.96-9.76,11.93,17.04,56.37-26.59,56.37-26.59,0,0-25.71-44.97-64.89-29.63Z"/><path class="cls-21" d="m852.61,953.62s49.48,48.3,59.7,39.78,25.56,0,27.26,6.82,19.44,20.5,26.76,11.1c7.32-9.4,4.99,30.59,24.9,29.34,19.9-1.25-12.47-55.77-36.32-76.22-23.85-20.45-23.98-50.59-102.29-10.81"/><path class="cls-21" d="m690.81,1194.45s37.48-14.21,64.74,0l11.93-189.12c-47.71,123.19-110.75-13.63-110.75-13.63l34.08,202.75Z"/></svg>