<svg xmlns="http://www.w3.org/2000/svg" viewBox="0 0 1500 1500"><defs><style>.cls-1{fill:#a0c4ff;}.cls-2{fill:#bdb2ff;}.cls-3{fill:#8e85bf;}.cls-37,.cls-38,.cls-39,.cls-4,.cls-46,.cls-50,.cls-51,.cls-6,.cls-7,.cls-9{fill:none;}.cls-10,.cls-11,.cls-12,.cls-13,.cls-14,.cls-15,.cls-16,.cls-19,.cls-20,.cls-21,.cls-22,.cls-23,.cls-24,.cls-25,.cls-27,.cls-31,.cls-33,.cls-34,.cls-37,.cls-38,.cls-39,.cls-4,.cls-40,.cls-41,.cls-42,.cls-43,.cls-44,.cls-45,.cls-46,.cls-51,.cls-6,.cls-7,.cls-9{stroke:#000;}.cls-10,.cls-12,.cls-13,.cls-14,.cls-16,.cls-19,.cls-21,.cls-22,.cls-23,.cls-27,.cls-30,.cls-31,.cls-34,.cls-35,.cls-36,.cls-37,.cls-38,.cls-4,.cls-41,.cls-43,.cls-44,.cls-45,.cls-46,.cls-50,.cls-51,.cls-6,.cls-7,.cls-8,.cls-9{stroke-miterlimit:10;}.cls-4{stroke-width:17px;}.cls-5{fill:#5f5980;}.cls-6,.cls-7{stroke-width:15px;}.cls-33,.cls-42,.cls-46,.cls-50,.cls-51,.cls-7,.cls-8{stroke-linecap:round;}.cls-8{fill:#ffe7ff;stroke:#ffe7ff;}.cls-9{stroke-width:20px;}.cls-10,.cls-11,.cls-14,.cls-15,.cls-16,.cls-17,.cls-24,.cls-25{fill:#969696;}.cls-10,.cls-11,.cls-21,.cls-42,.cls-45{stroke-width:4px;}.cls-11,.cls-15,.cls-20,.cls-24,.cls-25,.cls-33,.cls-39,.cls-40,.cls-42{stroke-linejoin:round;}.cls-12,.cls-19,.cls-20,.cls-21,.cls-22,.cls-23,.cls-31,.cls-32{fill:#bfbfbf;}.cls-12,.cls-13,.cls-14,.cls-15,.cls-37,.cls-39{stroke-width:13px;}.cls-13,.cls-33,.cls-34,.cls-35,.cls-36,.cls-41{fill:#939393;}.cls-16,.cls-19,.cls-20,.cls-24{stroke-width:10px;}.cls-18,.cls-27,.cls-30,.cls-43{fill:#fff;}.cls-22,.cls-51{stroke-width:9px;}.cls-23,.cls-25,.cls-27{stroke-width:8px;}.cls-26{opacity:0.25;}.cls-28{fill:#cb6684;}.cls-29{fill:#a80032;}.cls-30{stroke:#fff;}.cls-33,.cls-40{stroke-width:14px;}.cls-35,.cls-36{stroke:#939393;}.cls-35{stroke-width:2px;}.cls-38{stroke-width:6px;}.cls-40,.cls-42{fill:#d1b333;}.cls-41,.cls-44{stroke-width:11px;}.cls-43{stroke-width:5px;}.cls-44{fill:#999;}.cls-46{stroke-width:7px;}.cls-47{fill:#e7d000;}.cls-48{fill:#ea895e;}.cls-49{fill:#cfea86;}.cls-50{stroke:#ffba17;stroke-width:3px;}</style></defs><g id="Layer_7" data-name="Layer 7"><rect class="cls-1" x="0.41" y="-0.09" width="1500" height="1500"/><path class="cls-2" d="M880.1,904.65H1070a89.66,89.66,0,0,1,89.66,89.66v244.27a0,0,0,0,1,0,0H948.82a99.36,99.36,0,0,1-99.36-99.36V935.29A30.64,30.64,0,0,1,880.1,904.65Z" transform="translate(2076.18 67.06) rotate(90)"/><path class="cls-3" d="M925.9,975.61a138.14,138.14,0,0,1,19.47,2.21c6.44,1.13,12.82,2.6,19.14,4.32a235.51,235.51,0,0,1,37,13.62,215.56,215.56,0,0,1,34.48,20.13,184.5,184.5,0,0,1,30.25,27,155.83,155.83,0,0,1,23.23,33.87,146.66,146.66,0,0,1,7.89,19.07,137.1,137.1,0,0,1,4.94,20c.27,1.69.55,3.37.78,5.06l.53,5.07c.2,1.69.28,3.39.38,5.08s.22,3.37.2,5.07a145.79,145.79,0,0,1-1.08,20.08,143.47,143.47,0,0,1-3.94,19.45,127.74,127.74,0,0,1-6.56,18.5c-.12-3.29,0-6.5-.1-9.72s-.08-6.41-.26-9.58l-.21-4.74-.34-4.72-.17-2.34-.23-2.33-.47-4.64c-.45-3.08-.72-6.14-1.31-9.17-.29-1.51-.46-3-.76-4.53l-.91-4.48a168.4,168.4,0,0,0-11.1-34.07,176.82,176.82,0,0,0-8.15-15.71,182.77,182.77,0,0,0-21-28.52c-15.85-17.78-35-33-55.64-46.65-10.31-6.86-21.06-13.25-32.09-19.42S937.58,981.4,925.9,975.61Z"/><path class="cls-3" d="M947,941.11a144,144,0,0,1,19.43,2.24c6.43,1.13,12.8,2.59,19.12,4.28a249.27,249.27,0,0,1,37,13.27,236.24,236.24,0,0,1,34.72,19.31,206.67,206.67,0,0,1,31.07,25.56,184.4,184.4,0,0,1,13.5,15.21c2.12,2.65,4.12,5.41,6.1,8.18s3.84,5.63,5.58,8.57c.91,1.44,1.76,2.92,2.59,4.41s1.69,3,2.45,4.5,1.57,3,2.32,4.56l2.13,4.66a151.75,151.75,0,0,1,6.92,19.21c.46,1.63.87,3.28,1.28,4.93s.77,3.3,1.1,5,.71,3.3,1,5,.51,3.34.75,5a142.12,142.12,0,0,1,1.2,20c0,1.67-.09,3.33-.17,5s-.11,3.31-.3,5c-.36,3.3-.61,6.57-1.21,9.82a122.49,122.49,0,0,1-4.5,19.1c-1.47-13-3.11-25.51-6-37.57l-1.09-4.51c-.39-1.49-.83-3-1.24-4.44l-.62-2.21-.68-2.2c-.46-1.45-.88-2.91-1.38-4.35-2-5.77-4.17-11.38-6.6-16.87-9.81-21.92-23.92-41.27-40.81-58.32s-36.5-31.81-57.36-45.23C1002.82,971.42,992,965.1,981,959S958.63,947,947,941.11Z"/><path class="cls-3" d="M1005.44,924.82S1130,951.65,1153,1083.89c0,0,13.37-120.66,0-128.4C1116.6,934.4,1188,925.78,1005.44,924.82Z"/><path class="cls-3" d="M958.49,979.44c-5.75-19.16,15.33-23,21.08-21.08s9.58-9.58,9.58-9.58,1.32-12.11,20.12-16.29c17.25-3.84,24.92,1.91,24.92,1.91s-57.87-23.95-74.75-3.83a109.21,109.21,0,0,1-38,28.72L947,988.8Z"/><path class="cls-4" d="M881,905.26h189.89a89.66,89.66,0,0,1,89.66,89.66v244.27a0,0,0,0,1,0,0H949.76a99.36,99.36,0,0,1-99.36-99.36V935.89A30.64,30.64,0,0,1,881,905.26Z" transform="translate(2077.72 66.73) rotate(90)"/><path class="cls-2" d="M596.26,1012s-324.88,288.26-102.17,385.39c0,0,530.84,45.21,591.12-10.05s41.87-232.76-144-403.57S596.26,1012,596.26,1012Z"/><path class="cls-3" d="M423.78,1249.67s23-24.91,36.41,1.92c9.92,19.83,18.79,64.81,22.74,86.91a4.82,4.82,0,0,1-7.62,4.73c-11.21-8.35-30.26-20.06-47.7-18.81C400.78,1326.33,423.78,1249.67,423.78,1249.67Z"/><path class="cls-5" d="M492.77,1378.08s400.38,17.85,414.84,16.59-5.72,23.62-31.08,21.72-377.28-16.9-382.44-19S492.77,1378.08,492.77,1378.08Z"/><path class="cls-3" d="M837.75,979.44s184,145.66,207,398.64c0,0,54.39,43.11,71.27-55.1,0,0,26.58-166.32-194.83-358.42h0Z"/><path class="cls-3" d="M647.05,976.57s34.5,1.91,47.91,32.58,122.66,59.41,174.41,30.66,72.83-13.41,72.83-13.41l-47.92-49.83L647.05,961.76Z"/><path class="cls-6" d="M597.62,1012.93s-324.89,288.26-102.17,385.38c0,0,530.83,45.21,591.12-10s41.86-232.76-144-403.57S597.62,1012.93,597.62,1012.93Z"/><path class="cls-2" d="M510.91,1399.19c-5.07-9.38-140.18-1.66-195.43,13.18s-54.41-28-54.41-28l-13.2-78.2s-15.6-61.61,23.19-67.23,42.13,50.14,47.29,79.46,42,18.87,42,18.87l99.88-14.76"/><path class="cls-5" d="M322.2,1403s89.86-39.32,181-24.45l4.18,18.75Z"/><path class="cls-3" d="M299.2,1259.25s-11.49-38.33-13.41-13.41c0,0,9.58,82.41,26.83,101.57,19.53,21.7,92-9.58,92-9.58s-74.74,5.75-80.49-3.83S299.2,1259.25,299.2,1259.25Z"/><path class="cls-7" d="M456.36,1324.42l-96.62,13.75s-36.79,10.43-41.95-18.88-8.51-85.07-47.3-79.45-23.18,67.22-23.18,67.22l13.2,78.2s-.83,42.84,54.41,28,190.36-22.55,195.43-13.18"/><path class="cls-2" d="M885.88,1412s84.52,14.09,104.24,28.17,78.89,0,76.08-14.08S1122.55,1234.49,1007,1288c0,0-31,33.81-25.36,84.52"/><path class="cls-8" d="M978.61,1367.54s14.22-76,27.71-75.87c7.26.09,45.12-10.38,31.7-4.63-8.17,3.51-20.86,41.94-24,56.54-4.53,21.4-3.77,45.12-8.62,48.87S990.11,1380,978.61,1367.54Z"/><path class="cls-5" d="M1017.9,1441.32c4.61,1.16,2.69-22,3.12-26.68l8.38-92.14s13-64.41,44.08-15.33c1.37,2.17.36-6.35.88-3.82,3,14.64,11.05,68.9-20,124.56,0,0-12.63,31.45-107.89-2.48,0,0-51.18-3.27-51.18-18.6,0-5.44,13.42-11.5,13.42-11.5s57.2,2.71,61.32,9.58c5.75,9.58,5.13,14.46,23,19.16C1003.36,1426.81,1002.57,1437.49,1017.9,1441.32Z"/><path class="cls-7" d="M891.41,1414.49s78.54,11.14,98.26,25.22,70.87-.69,76.07-14.08c5.82-15,46.31-161.28-32.29-147.14-18.52,3.32-34,15.91-42,32.94a112.88,112.88,0,0,0-10.27,60.66"/><path class="cls-2" d="M1255.43,523.76a356.18,356.18,0,0,1-7.63,55.73c-34.71,158.68-164.09,266.23-259.58,333.37-38.32,26.91-71.2,47.36-90.3,62a113.63,113.63,0,0,0-12.11,10.36c-47.68,49-96.67,48-134.57,33.93a183.2,183.2,0,0,1-40.82-21.92c-6.46-4.57-11.92-9-16.26-12.71a81.67,81.67,0,0,0-27.3-15.64c-58.27-19.69-258.17-98.1-315.73-263.6-21.05-60.55-29-113.24-30-157.08a413.64,413.64,0,0,1,1.75-47.53c8.14-43.31,34-83.6,73.22-118.28,83.51-73.87,227.77-122.67,391.72-122.67a784.33,784.33,0,0,1,149.67,14.14C1119.07,309.26,1250.7,407.43,1255.43,523.76Z"/><path class="cls-3" d="M838.53,261.26S1539.19,496.48,809,1010.11c0,0-42.06,4.17-20.07,17.42s100-45.31,100-45.31,224.42-156.77,228.46-176.56S1339.87,611.47,1215.3,416C1215.3,416,1061.63,257.94,838.53,261.26Z"/><path class="cls-2" d="M637.08,1089.18s0,184-6.56,226.14-19.66-7.66-19.66-7.66S592.29,1392,577,1315.32s19.67-226.14,19.67-226.14-10.12-16.21-22.75,12.54"/><path d="M637.08,1089.18c.77,11.42,1.35,22.84,1.84,34.27s.89,22.85,1.25,34.28q1.08,34.29,1.11,68.62c0,22.9-.25,45.76-1.46,68.82-.42,5.8-.71,11.54-1.46,17.52-.18,1.48-.3,3-.52,4.45s-.47,3-.77,4.54-.63,3.07-1.06,4.69a36.05,36.05,0,0,1-1.72,5.1,21.77,21.77,0,0,1-1.59,3,13,13,0,0,1-3.65,3.77,10.51,10.51,0,0,1-3.86,1.56,9.69,9.69,0,0,1-2.33.13,10.36,10.36,0,0,1-1.12-.12c-.34-.06-.68-.14-1-.23A11.08,11.08,0,0,1,619,1339a14.59,14.59,0,0,1-1.36-.76c-.36-.24-.73-.51-1.06-.76s-.59-.5-.86-.75a18.49,18.49,0,0,1-2.36-2.69,28.69,28.69,0,0,1-1.6-2.42,49.23,49.23,0,0,1-2.35-4.52c-1.36-2.94-2.45-5.8-3.45-8.67-.51-1.43-1-2.86-1.43-4.3s-.87-2.82-1.3-4.41l15.38-.31c-.78,3.43-1.59,6.59-2.49,9.86s-1.89,6.47-3,9.71-2.3,6.47-3.76,9.75c-.73,1.64-1.52,3.28-2.45,5a36.6,36.6,0,0,1-3.36,5.15c-.33.44-.76.9-1.14,1.35s-.85.91-1.37,1.37a16.48,16.48,0,0,1-3.94,2.71,12.64,12.64,0,0,1-6.4,1.22,12.11,12.11,0,0,1-3.36-.74c-.48-.19-1-.4-1.42-.63a12.47,12.47,0,0,1-1.21-.72,14.47,14.47,0,0,1-2-1.53c-.56-.52-1-1-1.5-1.54s-.8-1-1.17-1.48l-1-1.44a42.29,42.29,0,0,1-2.8-5.39,85.26,85.26,0,0,1-3.51-10.16c-1-3.32-1.75-6.62-2.44-9.91-.37-1.64-.67-3.28-1-4.92l-.84-5-.42-2.52c-.13-.83-.22-1.67-.32-2.5l-.62-5c-.34-3.34-.61-6.67-.86-10s-.37-6.65-.41-10c-.34-13.26.1-26.43,1-39.52a705.93,705.93,0,0,1,10.33-77.64l1.82-9.6,1.94-9.56c1.33-6.38,2.69-12.74,4.18-19.07,3-12.67,6-25.29,9.6-37.82l.24,1.46a8.84,8.84,0,0,0-1-1.37,10.28,10.28,0,0,0-1.24-1.23,6.62,6.62,0,0,0-2.95-1.44c-2.13-.4-4.51.72-6.49,2.38a30.25,30.25,0,0,0-5.25,6.08,82.27,82.27,0,0,0-4.2,7.1,66.62,66.62,0,0,1,3.27-7.65,31.87,31.87,0,0,1,4.74-7,14.42,14.42,0,0,1,3.54-2.79,8.93,8.93,0,0,1,4.72-1.06,9.7,9.7,0,0,1,4.63,1.64,12.79,12.79,0,0,1,1.86,1.49,12.3,12.3,0,0,1,1.62,1.84l.4.56-.15.91c-4.41,25.47-8.08,51.11-11.22,76.71-1.52,12.81-2.94,25.62-4,38.44s-2,25.63-2.46,38.42-.54,25.55.07,38.18c.12,3.17.43,6.3.63,9.44s.58,6.25.94,9.35l.64,4.62c.11.77.2,1.55.33,2.31l.42,2.27.83,4.55c.33,1.53.64,3.07,1,4.58.69,3,1.45,6,2.29,8.94a71.22,71.22,0,0,0,2.86,8.19,28.79,28.79,0,0,0,1.67,3.22c.14.19.27.38.39.58a4.18,4.18,0,0,1,.34.42l.2.2s0,.06-.06,0-.08,0-.18-.09a1.09,1.09,0,0,0-.31-.14,3.37,3.37,0,0,0-1-.22,3.45,3.45,0,0,0-1.7.28c-.43.23.22-.13.79-.94a35.84,35.84,0,0,0,3.78-6.73c1.19-2.64,2.27-5.47,3.26-8.36s1.91-5.87,2.77-8.86,1.65-6.09,2.31-9l7.14-31,8.24,30.73a108,108,0,0,0,5.06,14.95,34.46,34.46,0,0,0,1.54,3.1,13.7,13.7,0,0,0,.74,1.17c.21.3.42.55.42.55l0-.05a1.74,1.74,0,0,0-.2-.13,2.13,2.13,0,0,0-.43-.23,4,4,0,0,0-.74-.28,3.86,3.86,0,0,0-.49-.1,3.81,3.81,0,0,0-.59-.07,4.92,4.92,0,0,0-1.26.08,5.16,5.16,0,0,0-1.9.74c-.79.56-.78.74-.75.67a5.82,5.82,0,0,0,.41-.78,23.67,23.67,0,0,0,1.07-3c.33-1.14.63-2.38.91-3.64s.53-2.57.76-3.89.37-2.7.56-4c.82-5.33,1.24-11,1.8-16.58s.9-11.28,1.31-16.93l1.07-17,1-17,.91-17.08,3.49-68.4c.64-11.4,1.14-22.82,1.85-34.23S636.29,1100.59,637.08,1089.18Z"/><path class="cls-2" d="M921.23,1094.39c-17.39-28.75-31.31-12.54-31.31-12.54S938,1231.34,917,1308s-46.62-7.67-46.62-7.67-18,49.83-27.07,7.67-9-226.15-9-226.15"/><path d="M921.23,1094.39a69.49,69.49,0,0,0-6.23-7.69,29.68,29.68,0,0,0-7.55-6,13.39,13.39,0,0,0-8.66-1.66,11.67,11.67,0,0,0-4,1.51,13.66,13.66,0,0,0-1.76,1.25c-.27.24-.54.48-.79.73s-.51.54-.64.7l.43-2.11a727.33,727.33,0,0,1,23,77c6.21,26.11,11.18,52.63,13.46,79.68a279.58,279.58,0,0,1,.75,41c-.25,3.45-.42,6.89-.91,10.35-.21,1.73-.39,3.46-.64,5.19l-.89,5.19-.45,2.6-.6,2.59-1.21,5.18c-.91,3.35-1.87,6.69-3,10a100.09,100.09,0,0,1-4,10.1,47.86,47.86,0,0,1-6.19,10.24,24.28,24.28,0,0,1-5.42,5,18,18,0,0,1-4.05,2c-.38.13-.76.25-1.15.36l-1.23.25a16.05,16.05,0,0,1-2.51.25,17.65,17.65,0,0,1-8.79-2.37,26.06,26.06,0,0,1-5.65-4.4,50.71,50.71,0,0,1-7.14-9.45,102,102,0,0,1-5.07-9.6c-1.5-3.22-2.85-6.46-4.11-9.72q-.93-2.44-1.8-4.91c-.58-1.68-1.12-3.25-1.67-5.09l15,.4c-.61,1.61-1.16,3-1.78,4.41s-1.25,2.83-1.92,4.24a88.9,88.9,0,0,1-4.54,8.42,49.51,49.51,0,0,1-2.92,4.23,30.14,30.14,0,0,1-4,4.33,19.56,19.56,0,0,1-3,2.15,13.93,13.93,0,0,1-4.58,1.64,12,12,0,0,1-5.89-.51,12.93,12.93,0,0,1-4.42-2.64,19.81,19.81,0,0,1-4.19-5.65,38.36,38.36,0,0,1-2.12-5,71.14,71.14,0,0,1-2.42-9.37l-1.43-9.1c-.37-3-.62-5.92-.91-8.88l-.43-4.43-.29-4.39-.57-8.78c-.34-5.85-.56-11.67-.8-17.51l-.49-17.47c-.14-5.82-.17-11.64-.26-17.45q-.33-34.89.59-69.73c.3-11.62.59-23.23,1.11-34.84s1-23.21,1.77-34.81q1.17,17.4,2.16,34.78l2,34.76,4,69.42,1.11,17.32,1.22,17.29,1.43,17.22.85,8.56.42,4.28.55,4.21c.38,2.8.69,5.65,1.1,8.41l1.45,8.06a56.52,56.52,0,0,0,2.09,7.42,22.47,22.47,0,0,0,1.31,3,5.64,5.64,0,0,0,.93,1.33,1.88,1.88,0,0,0-.73-.41,3.32,3.32,0,0,0-1.6-.16,2.45,2.45,0,0,0-.53.14s.25-.18.5-.4a15.07,15.07,0,0,0,1.84-2.1,34.54,34.54,0,0,0,2-3,71.7,71.7,0,0,0,3.61-6.94c.56-1.22,1.1-2.46,1.61-3.71s1-2.57,1.43-3.68l7.84-21.77,7.14,22.17c.44,1.35,1,2.93,1.49,4.4s1.09,3,1.67,4.46c1.15,3,2.38,5.87,3.71,8.69a86.26,86.26,0,0,0,4.29,8.05,36,36,0,0,0,4.87,6.47,10.69,10.69,0,0,0,2.17,1.78,5.7,5.7,0,0,0,.72.32c-.07,0,0,.06.44-.23a9,9,0,0,0,1.86-1.78,33,33,0,0,0,4.09-6.85,90.26,90.26,0,0,0,3.4-8.48c1-2.94,2-6,2.84-9.07l1.12-4.54.57-2.27.43-2.32.87-4.65c.25-1.57.43-3.15.65-4.73.48-3.14.73-6.35,1-9.54a292.15,292.15,0,0,0,.32-38.94c-1.41-26.16-5-52.4-9.68-78.48-2.32-13-4.95-26-7.77-39s-5.87-26-9.2-38.78l-.34-1.31.77-.8a12.45,12.45,0,0,1,1.13-1c.37-.3.75-.58,1.14-.85a18,18,0,0,1,2.45-1.39,15.19,15.19,0,0,1,5.42-1.44,14.65,14.65,0,0,1,5.49.65,17.86,17.86,0,0,1,4.8,2.35,31.18,31.18,0,0,1,7.26,7.19A59.57,59.57,0,0,1,921.23,1094.39Z"/><path class="cls-9" d="M1256.11,523.08a356,356,0,0,1-7.63,55.73C1213.76,737.5,1084.38,845,988.9,912.18c-38.32,26.91-71.2,47.36-90.3,62a113.81,113.81,0,0,0-12.12,10.37c-47.67,49-96.67,48-134.56,33.92a183.1,183.1,0,0,1-40.83-21.92c-6.45-4.56-11.92-9-16.25-12.71a81.79,81.79,0,0,0-27.31-15.63c-58.26-19.7-258.16-98.11-315.73-263.61-21-60.55-29-113.24-30-157.08A413.77,413.77,0,0,1,323.57,500c8.15-43.3,34-83.59,73.23-118.28C480.31,307.8,624.57,259,788.52,259a785,785,0,0,1,149.66,14.14C1119.74,308.59,1251.38,406.75,1256.11,523.08Z"/><ellipse class="cls-2" cx="501.5" cy="733.78" rx="183.5" ry="181.22"/><ellipse class="cls-2" cx="1014.92" cy="723.89" rx="176.16" ry="173.97"/><path class="cls-3" d="M1044.34,551.34s159.14,154.89,43.9,329.78c0,0,116.39-50.16,101.58-179.14C1189.82,702,1190.69,592.67,1044.34,551.34Z"/><path class="cls-3" d="M685.26,733.47c0,100.09-82.15,181.22-183.5,181.22a186.41,186.41,0,0,1-29.71-2.37C559.82,898.77,627,823.78,627,733.29c0-90.09-66.57-164.83-153.78-178.85a186.81,186.81,0,0,1,28.57-2.19C603.11,552.25,685.26,633.39,685.26,733.47Z"/><path class="cls-2" d="M880.1,904.65H1070a89.66,89.66,0,0,1,89.66,89.66v244.27a0,0,0,0,1,0,0H948.82a99.36,99.36,0,0,1-99.36-99.36V935.29A30.64,30.64,0,0,1,880.1,904.65Z" transform="translate(2076.18 67.06) rotate(90)"/><path class="cls-3" d="M925.9,975.61a138.14,138.14,0,0,1,19.47,2.21c6.44,1.13,12.82,2.6,19.14,4.32a235.51,235.51,0,0,1,37,13.62,215.56,215.56,0,0,1,34.48,20.13,184.5,184.5,0,0,1,30.25,27,155.83,155.83,0,0,1,23.23,33.87,146.66,146.66,0,0,1,7.89,19.07,137.1,137.1,0,0,1,4.94,20c.27,1.69.55,3.37.78,5.06l.53,5.07c.2,1.69.28,3.39.38,5.08s.22,3.37.2,5.07a145.79,145.79,0,0,1-1.08,20.08,143.47,143.47,0,0,1-3.94,19.45,127.74,127.74,0,0,1-6.56,18.5c-.12-3.29,0-6.5-.1-9.72s-.08-6.41-.26-9.58l-.21-4.74-.34-4.72-.17-2.34-.23-2.33-.47-4.64c-.45-3.08-.72-6.14-1.31-9.17-.29-1.51-.46-3-.76-4.53l-.91-4.48a168.4,168.4,0,0,0-11.1-34.07,176.82,176.82,0,0,0-8.15-15.71,182.77,182.77,0,0,0-21-28.52c-15.85-17.78-35-33-55.64-46.65-10.31-6.86-21.06-13.25-32.09-19.42S937.58,981.4,925.9,975.61Z"/><path class="cls-3" d="M947,941.11a144,144,0,0,1,19.43,2.24c6.43,1.13,12.8,2.59,19.12,4.28a249.27,249.27,0,0,1,37,13.27,236.24,236.24,0,0,1,34.72,19.31,206.67,206.67,0,0,1,31.07,25.56,184.4,184.4,0,0,1,13.5,15.21c2.12,2.65,4.12,5.41,6.1,8.18s3.84,5.63,5.58,8.57c.91,1.44,1.76,2.92,2.59,4.41s1.69,3,2.45,4.5,1.57,3,2.32,4.56l2.13,4.66a151.75,151.75,0,0,1,6.92,19.21c.46,1.63.87,3.28,1.28,4.93s.77,3.3,1.1,5,.71,3.3,1,5,.51,3.34.75,5a142.12,142.12,0,0,1,1.2,20c0,1.67-.09,3.33-.17,5s-.11,3.31-.3,5c-.36,3.3-.61,6.57-1.21,9.82a122.49,122.49,0,0,1-4.5,19.1c-1.47-13-3.11-25.51-6-37.57l-1.09-4.51c-.39-1.49-.83-3-1.24-4.44l-.62-2.21-.68-2.2c-.46-1.45-.88-2.91-1.38-4.35-2-5.77-4.17-11.38-6.6-16.87-9.81-21.92-23.92-41.27-40.81-58.32s-36.5-31.81-57.36-45.23C1002.82,971.42,992,965.1,981,959S958.63,947,947,941.11Z"/><path class="cls-3" d="M1005.44,924.82S1130,951.65,1153,1083.89c0,0,13.37-120.66,0-128.4C1116.6,934.4,1188,925.78,1005.44,924.82Z"/><path class="cls-3" d="M958.49,979.44c-5.75-19.16,15.33-23,21.08-21.08s9.58-9.58,9.58-9.58,1.32-12.11,20.12-16.29c17.25-3.84,24.92,1.91,24.92,1.91s-57.87-23.95-74.75-3.83a109.21,109.21,0,0,1-38,28.72L947,988.8Z"/><path class="cls-4" d="M881,905.26h189.89a89.66,89.66,0,0,1,89.66,89.66v244.27a0,0,0,0,1,0,0H949.76a99.36,99.36,0,0,1-99.36-99.36V935.89A30.64,30.64,0,0,1,881,905.26Z" transform="translate(2077.72 66.73) rotate(90)"/><path class="cls-2" d="M596.26,1012s-324.88,288.26-102.17,385.39c0,0,530.84,45.21,591.12-10.05s41.87-232.76-144-403.57S596.26,1012,596.26,1012Z"/><path class="cls-3" d="M423.78,1249.67s23-24.91,36.41,1.92c9.92,19.83,18.79,64.81,22.74,86.91a4.82,4.82,0,0,1-7.62,4.73c-11.21-8.35-30.26-20.06-47.7-18.81C400.78,1326.33,423.78,1249.67,423.78,1249.67Z"/><path class="cls-5" d="M492.77,1378.08s400.38,17.85,414.84,16.59-5.72,23.62-31.08,21.72-377.28-16.9-382.44-19S492.77,1378.08,492.77,1378.08Z"/><path class="cls-3" d="M837.75,979.44s184,145.66,207,398.64c0,0,54.39,43.11,71.27-55.1,0,0,26.58-166.32-194.83-358.42h0Z"/><path class="cls-3" d="M647.05,976.57s34.5,1.91,47.91,32.58,122.66,59.41,174.41,30.66,72.83-13.41,72.83-13.41l-47.92-49.83L647.05,961.76Z"/><path class="cls-6" d="M597.62,1012.93s-324.89,288.26-102.17,385.38c0,0,530.83,45.21,591.12-10s41.86-232.76-144-403.57S597.62,1012.93,597.62,1012.93Z"/><path class="cls-2" d="M510.91,1399.19c-5.07-9.38-140.18-1.66-195.43,13.18s-54.41-28-54.41-28l-13.2-78.2s-15.6-61.61,23.19-67.23,42.13,50.14,47.29,79.46,42,18.87,42,18.87l99.88-14.76"/><path class="cls-5" d="M322.2,1403s89.86-39.32,181-24.45l4.18,18.75Z"/><path class="cls-3" d="M299.2,1259.25s-11.49-38.33-13.41-13.41c0,0,9.58,82.41,26.83,101.57,19.53,21.7,92-9.58,92-9.58s-74.74,5.75-80.49-3.83S299.2,1259.25,299.2,1259.25Z"/><path class="cls-7" d="M456.36,1324.42l-96.62,13.75s-36.79,10.43-41.95-18.88-8.51-85.07-47.3-79.45-23.18,67.22-23.18,67.22l13.2,78.2s-.83,42.84,54.41,28,190.36-22.55,195.43-13.18"/><path class="cls-2" d="M885.88,1412s84.52,14.09,104.24,28.17,78.89,0,76.08-14.08S1122.55,1234.49,1007,1288c0,0-31,33.81-25.36,84.52"/><path class="cls-8" d="M978.61,1367.54s14.22-76,27.71-75.87c7.26.09,45.12-10.38,31.7-4.63-8.17,3.51-20.86,41.94-24,56.54-4.53,21.4-3.77,45.12-8.62,48.87S990.11,1380,978.61,1367.54Z"/><path class="cls-5" d="M1017.9,1441.32c4.61,1.16,2.69-22,3.12-26.68l8.38-92.14s13-64.41,44.08-15.33c1.37,2.17.36-6.35.88-3.82,3,14.64,11.05,68.9-20,124.56,0,0-12.63,31.45-107.89-2.48,0,0-51.18-3.27-51.18-18.6,0-5.44,13.42-11.5,13.42-11.5s57.2,2.71,61.32,9.58c5.75,9.58,5.13,14.46,23,19.16C1003.36,1426.81,1002.57,1437.49,1017.9,1441.32Z"/><path class="cls-7" d="M891.41,1414.49s78.54,11.14,98.26,25.22,70.87-.69,76.07-14.08c5.82-15,46.31-161.28-32.29-147.14-18.52,3.32-34,15.91-42,32.94a112.88,112.88,0,0,0-10.27,60.66"/><path class="cls-2" d="M1255.43,523.76a356.18,356.18,0,0,1-7.63,55.73c-34.71,158.68-164.09,266.23-259.58,333.37-38.32,26.91-71.2,47.36-90.3,62a113.63,113.63,0,0,0-12.11,10.36c-47.68,49-96.67,48-134.57,33.93a183.2,183.2,0,0,1-40.82-21.92c-6.46-4.57-11.92-9-16.26-12.71a81.67,81.67,0,0,0-27.3-15.64c-58.27-19.69-258.17-98.1-315.73-263.6-21.05-60.55-29-113.24-30-157.08a413.64,413.64,0,0,1,1.75-47.53c8.14-43.31,34-83.6,73.22-118.28,83.51-73.87,227.77-122.67,391.72-122.67a784.33,784.33,0,0,1,149.67,14.14C1119.07,309.26,1250.7,407.43,1255.43,523.76Z"/><path class="cls-3" d="M838.53,261.26S1539.19,496.48,809,1010.11c0,0-42.06,4.17-20.07,17.42s100-45.31,100-45.31,224.42-156.77,228.46-176.56S1339.87,611.47,1215.3,416C1215.3,416,1061.63,257.94,838.53,261.26Z"/><path class="cls-2" d="M637.08,1089.18s0,184-6.56,226.14-19.66-7.66-19.66-7.66S592.29,1392,577,1315.32s19.67-226.14,19.67-226.14-10.12-16.21-22.75,12.54"/><path d="M637.08,1089.18c.77,11.42,1.35,22.84,1.84,34.27s.89,22.85,1.25,34.28q1.08,34.29,1.11,68.62c0,22.9-.25,45.76-1.46,68.82-.42,5.8-.71,11.54-1.46,17.52-.18,1.48-.3,3-.52,4.45s-.47,3-.77,4.54-.63,3.07-1.06,4.69a36.05,36.05,0,0,1-1.72,5.1,21.77,21.77,0,0,1-1.59,3,13,13,0,0,1-3.65,3.77,10.51,10.51,0,0,1-3.86,1.56,9.69,9.69,0,0,1-2.33.13,10.36,10.36,0,0,1-1.12-.12c-.34-.06-.68-.14-1-.23A11.08,11.08,0,0,1,619,1339a14.59,14.59,0,0,1-1.36-.76c-.36-.24-.73-.51-1.06-.76s-.59-.5-.86-.75a18.49,18.49,0,0,1-2.36-2.69,28.69,28.69,0,0,1-1.6-2.42,49.23,49.23,0,0,1-2.35-4.52c-1.36-2.94-2.45-5.8-3.45-8.67-.51-1.43-1-2.86-1.43-4.3s-.87-2.82-1.3-4.41l15.38-.31c-.78,3.43-1.59,6.59-2.49,9.86s-1.89,6.47-3,9.71-2.3,6.47-3.76,9.75c-.73,1.64-1.52,3.28-2.45,5a36.6,36.6,0,0,1-3.36,5.15c-.33.44-.76.9-1.14,1.35s-.85.91-1.37,1.37a16.48,16.48,0,0,1-3.94,2.71,12.64,12.64,0,0,1-6.4,1.22,12.11,12.11,0,0,1-3.36-.74c-.48-.19-1-.4-1.42-.63a12.47,12.47,0,0,1-1.21-.72,14.47,14.47,0,0,1-2-1.53c-.56-.52-1-1-1.5-1.54s-.8-1-1.17-1.48l-1-1.44a42.29,42.29,0,0,1-2.8-5.39,85.26,85.26,0,0,1-3.51-10.16c-1-3.32-1.75-6.62-2.44-9.91-.37-1.64-.67-3.28-1-4.92l-.84-5-.42-2.52c-.13-.83-.22-1.67-.32-2.5l-.62-5c-.34-3.34-.61-6.67-.86-10s-.37-6.65-.41-10c-.34-13.26.1-26.43,1-39.52a705.93,705.93,0,0,1,10.33-77.64l1.82-9.6,1.94-9.56c1.33-6.38,2.69-12.74,4.18-19.07,3-12.67,6-25.29,9.6-37.82l.24,1.46a8.84,8.84,0,0,0-1-1.37,10.28,10.28,0,0,0-1.24-1.23,6.62,6.62,0,0,0-2.95-1.44c-2.13-.4-4.51.72-6.49,2.38a30.25,30.25,0,0,0-5.25,6.08,82.27,82.27,0,0,0-4.2,7.1,66.62,66.62,0,0,1,3.27-7.65,31.87,31.87,0,0,1,4.74-7,14.42,14.42,0,0,1,3.54-2.79,8.93,8.93,0,0,1,4.72-1.06,9.7,9.7,0,0,1,4.63,1.64,12.79,12.79,0,0,1,1.86,1.49,12.3,12.3,0,0,1,1.62,1.84l.4.56-.15.91c-4.41,25.47-8.08,51.11-11.22,76.71-1.52,12.81-2.94,25.62-4,38.44s-2,25.63-2.46,38.42-.54,25.55.07,38.18c.12,3.17.43,6.3.63,9.44s.58,6.25.94,9.35l.64,4.62c.11.77.2,1.55.33,2.31l.42,2.27.83,4.55c.33,1.53.64,3.07,1,4.58.69,3,1.45,6,2.29,8.94a71.22,71.22,0,0,0,2.86,8.19,28.79,28.79,0,0,0,1.67,3.22c.14.19.27.38.39.58a4.18,4.18,0,0,1,.34.42l.2.2s0,.06-.06,0-.08,0-.18-.09a1.09,1.09,0,0,0-.31-.14,3.37,3.37,0,0,0-1-.22,3.45,3.45,0,0,0-1.7.28c-.43.23.22-.13.79-.94a35.84,35.84,0,0,0,3.78-6.73c1.19-2.64,2.27-5.47,3.26-8.36s1.91-5.87,2.77-8.86,1.65-6.09,2.31-9l7.14-31,8.24,30.73a108,108,0,0,0,5.06,14.95,34.46,34.46,0,0,0,1.54,3.1,13.7,13.7,0,0,0,.74,1.17c.21.3.42.55.42.55l0-.05a1.74,1.74,0,0,0-.2-.13,2.13,2.13,0,0,0-.43-.23,4,4,0,0,0-.74-.28,3.86,3.86,0,0,0-.49-.1,3.81,3.81,0,0,0-.59-.07,4.92,4.92,0,0,0-1.26.08,5.16,5.16,0,0,0-1.9.74c-.79.56-.78.74-.75.67a5.82,5.82,0,0,0,.41-.78,23.67,23.67,0,0,0,1.07-3c.33-1.14.63-2.38.91-3.64s.53-2.57.76-3.89.37-2.7.56-4c.82-5.33,1.24-11,1.8-16.58s.9-11.28,1.31-16.93l1.07-17,1-17,.91-17.08,3.49-68.4c.64-11.4,1.14-22.82,1.85-34.23S636.29,1100.59,637.08,1089.18Z"/><path class="cls-2" d="M921.23,1094.39c-17.39-28.75-31.31-12.54-31.31-12.54S938,1231.34,917,1308s-46.62-7.67-46.62-7.67-18,49.83-27.07,7.67-9-226.15-9-226.15"/><path d="M921.23,1094.39a69.49,69.49,0,0,0-6.23-7.69,29.68,29.68,0,0,0-7.55-6,13.39,13.39,0,0,0-8.66-1.66,11.67,11.67,0,0,0-4,1.51,13.66,13.66,0,0,0-1.76,1.25c-.27.24-.54.48-.79.73s-.51.54-.64.7l.43-2.11a727.33,727.33,0,0,1,23,77c6.21,26.11,11.18,52.63,13.46,79.68a279.58,279.58,0,0,1,.75,41c-.25,3.45-.42,6.89-.91,10.35-.21,1.73-.39,3.46-.64,5.19l-.89,5.19-.45,2.6-.6,2.59-1.21,5.18c-.91,3.35-1.87,6.69-3,10a100.09,100.09,0,0,1-4,10.1,47.86,47.86,0,0,1-6.19,10.24,24.28,24.28,0,0,1-5.42,5,18,18,0,0,1-4.05,2c-.38.13-.76.25-1.15.36l-1.23.25a16.05,16.05,0,0,1-2.51.25,17.65,17.65,0,0,1-8.79-2.37,26.06,26.06,0,0,1-5.65-4.4,50.71,50.71,0,0,1-7.14-9.45,102,102,0,0,1-5.07-9.6c-1.5-3.22-2.85-6.46-4.11-9.72q-.93-2.44-1.8-4.91c-.58-1.68-1.12-3.25-1.67-5.09l15,.4c-.61,1.61-1.16,3-1.78,4.41s-1.25,2.83-1.92,4.24a88.9,88.9,0,0,1-4.54,8.42,49.51,49.51,0,0,1-2.92,4.23,30.14,30.14,0,0,1-4,4.33,19.56,19.56,0,0,1-3,2.15,13.93,13.93,0,0,1-4.58,1.64,12,12,0,0,1-5.89-.51,12.93,12.93,0,0,1-4.42-2.64,19.81,19.81,0,0,1-4.19-5.65,38.36,38.36,0,0,1-2.12-5,71.14,71.14,0,0,1-2.42-9.37l-1.43-9.1c-.37-3-.62-5.92-.91-8.88l-.43-4.43-.29-4.39-.57-8.78c-.34-5.85-.56-11.67-.8-17.51l-.49-17.47c-.14-5.82-.17-11.64-.26-17.45q-.33-34.89.59-69.73c.3-11.62.59-23.23,1.11-34.84s1-23.21,1.77-34.81q1.17,17.4,2.16,34.78l2,34.76,4,69.42,1.11,17.32,1.22,17.29,1.43,17.22.85,8.56.42,4.28.55,4.21c.38,2.8.69,5.65,1.1,8.41l1.45,8.06a56.52,56.52,0,0,0,2.09,7.42,22.47,22.47,0,0,0,1.31,3,5.64,5.64,0,0,0,.93,1.33,1.88,1.88,0,0,0-.73-.41,3.32,3.32,0,0,0-1.6-.16,2.45,2.45,0,0,0-.53.14s.25-.18.5-.4a15.07,15.07,0,0,0,1.84-2.1,34.54,34.54,0,0,0,2-3,71.7,71.7,0,0,0,3.61-6.94c.56-1.22,1.1-2.46,1.61-3.71s1-2.57,1.43-3.68l7.84-21.77,7.14,22.17c.44,1.35,1,2.93,1.49,4.4s1.09,3,1.67,4.46c1.15,3,2.38,5.87,3.71,8.69a86.26,86.26,0,0,0,4.29,8.05,36,36,0,0,0,4.87,6.47,10.69,10.69,0,0,0,2.17,1.78,5.7,5.7,0,0,0,.72.32c-.07,0,0,.06.44-.23a9,9,0,0,0,1.86-1.78,33,33,0,0,0,4.09-6.85,90.26,90.26,0,0,0,3.4-8.48c1-2.94,2-6,2.84-9.07l1.12-4.54.57-2.27.43-2.32.87-4.65c.25-1.57.43-3.15.65-4.73.48-3.14.73-6.35,1-9.54a292.15,292.15,0,0,0,.32-38.94c-1.41-26.16-5-52.4-9.68-78.48-2.32-13-4.95-26-7.77-39s-5.87-26-9.2-38.78l-.34-1.31.77-.8a12.45,12.45,0,0,1,1.13-1c.37-.3.75-.58,1.14-.85a18,18,0,0,1,2.45-1.39,15.19,15.19,0,0,1,5.42-1.44,14.65,14.65,0,0,1,5.49.65,17.86,17.86,0,0,1,4.8,2.35,31.18,31.18,0,0,1,7.26,7.19A59.57,59.57,0,0,1,921.23,1094.39Z"/><path class="cls-9" d="M1256.11,523.08a356,356,0,0,1-7.63,55.73C1213.76,737.5,1084.38,845,988.9,912.18c-38.32,26.91-71.2,47.36-90.3,62a113.81,113.81,0,0,0-12.12,10.37c-47.67,49-96.67,48-134.56,33.92a183.1,183.1,0,0,1-40.83-21.92c-6.45-4.56-11.92-9-16.25-12.71a81.79,81.79,0,0,0-27.31-15.63c-58.26-19.7-258.16-98.11-315.73-263.61-21-60.55-29-113.24-30-157.08A413.77,413.77,0,0,1,323.57,500c8.15-43.3,34-83.59,73.23-118.28C480.31,307.8,624.57,259,788.52,259a785,785,0,0,1,149.66,14.14C1119.74,308.59,1251.38,406.75,1256.11,523.08Z"/><ellipse class="cls-2" cx="501.5" cy="733.78" rx="183.5" ry="181.22"/><ellipse class="cls-2" cx="1014.92" cy="723.89" rx="176.16" ry="173.97"/><path class="cls-3" d="M1044.34,551.34s159.14,154.89,43.9,329.78c0,0,116.39-50.16,101.58-179.14C1189.82,702,1190.69,592.67,1044.34,551.34Z"/><path class="cls-3" d="M685.26,733.47c0,100.09-82.15,181.22-183.5,181.22a186.41,186.41,0,0,1-29.71-2.37C559.82,898.77,627,823.78,627,733.29c0-90.09-66.57-164.83-153.78-178.85a186.81,186.81,0,0,1,28.57-2.19C603.11,552.25,685.26,633.39,685.26,733.47Z"/><path class="cls-10" d="M570.28,1145.13s-40.27-50.34-16.1-78.53,74.5-38.26,86.58-22.15S677,1098.81,658.88,1121s-24.16,24.17-24.16,24.17S598.47,1098.81,570.28,1145.13Z"/><path class="cls-10" d="M569.28,1144.12l-10.07,66.45s44.3-32.22,70.47,0l.41-70.52S595.45,1109.89,569.28,1144.12Z"/><path class="cls-10" d="M559.21,1214.59v14.1s42.28-30.2,66.45,0v-22.45S593.44,1180.36,559.21,1214.59Z"/><path class="cls-10" d="M535.05,1271s50.34-70.47,108.73-16.1L629.68,1275s-2,72.49-12.08,62.42-16.11-40.27-16.11-40.27-4,48.33-18.12,58.39S559.21,1279,559.21,1279Z"/><path class="cls-10" d="M559.21,1247.7l2-20.32s62.45-28.89,66.48,11.38l-2.74,2.48S597.47,1218.39,559.21,1247.7Z"/><path class="cls-11" d="M561.09,1212.78c-2.47-.87-20,7.86-20,7.86l22.09,5.87S573,1217,561.09,1212.78Z"/><path class="cls-11" d="M829,1128s-56.38-36.24-16.11-82.55c0,0,64.43-52.36,102.69,0s0,74.5,0,74.5-43.12-24.37-82.32,4.67Q831.15,1126.21,829,1128Z"/><path class="cls-11" d="M837.08,1128s26.18-30.2,72.49-6l12.08,62.42s-26.17-38.26-84.57,4Z"/><path class="cls-11" d="M841.11,1204.53s48.32-38.26,78.53,0V1182s-20.14-33.81-82.56,6.46Z"/><path class="cls-11" d="M841.11,1232.72s42.28-42.29,84.57-4v-24.16s-48.33-40.27-84.57,6Z"/><path class="cls-11" d="M825,1246.81s48.33-76.51,130.88-4l-22.15,14.1s-10.06,90.61-22.15,90.61-32.21-18.12-42.28-46.31c0,0-8.06,58.39-24.16,6l-4-46.31-24.16-4Z"/><path class="cls-10" d="M570.28,1144.83s-40.27-50.34-16.1-78.53,74.5-38.26,86.58-22.15,36.24,54.37,18.12,76.52-24.16,24.16-24.16,24.16S598.47,1098.52,570.28,1144.83Z"/><path class="cls-10" d="M569.28,1143.82l-10.07,66.45s44.3-32.22,70.47,0l.41-70.52S595.45,1109.59,569.28,1143.82Z"/><path class="cls-10" d="M559.21,1214.3v14.09s42.28-30.2,66.45,0v-22.45S593.44,1180.07,559.21,1214.3Z"/><path class="cls-10" d="M535.05,1270.68s50.34-70.48,108.73-16.11l-14.1,20.14s-2,72.48-12.08,62.42-16.11-40.27-16.11-40.27-4,48.32-18.12,58.39-24.16-76.52-24.16-76.52Z"/><path class="cls-10" d="M559.21,1247.4l2-20.32s62.45-28.89,66.48,11.38l-2.74,2.48S597.47,1218.09,559.21,1247.4Z"/><path class="cls-11" d="M561.09,1212.48c-2.47-.87-20,7.86-20,7.86l22.09,5.87S573,1216.71,561.09,1212.48Z"/><path class="cls-11" d="M829,1127.72s-56.38-36.25-16.11-82.56c0,0,64.43-52.35,102.69,0s0,74.5,0,74.5-43.12-24.37-82.32,4.67C831.86,1125.39,830.44,1126.51,829,1127.72Z"/><path class="cls-11" d="M837.08,1127.72s26.18-30.21,72.49-6l12.08,62.43s-26.17-38.26-84.57,4Z"/><path class="cls-11" d="M841.11,1204.23s48.32-38.26,78.53,0v-22.56s-20.14-33.82-82.56,6.45Z"/><path class="cls-11" d="M841.11,1232.42s42.28-42.28,84.57-4v-24.16s-48.33-40.27-84.57,6Z"/><path class="cls-11" d="M825,1246.52s48.33-76.52,130.88-4l-22.15,14.09s-10.06,90.61-22.15,90.61-32.21-18.12-42.28-46.31c0,0-8.06,58.4-24.16,6l-4-46.31-24.16-4Z"/><path class="cls-12" d="M409.69,1226.71A12,12,0,0,0,420.13,1244c28.78.72,84.63-3,110.89-39.45,36.24-50.34,52.35-149,112.76-185.25,0,0,10.07-28.19-64.43-6C579.35,1013.24,470.17,1103.91,409.69,1226.71Z"/><path class="cls-13" d="M842.12,1054.52s28.19,2,70.47-32.22,3-73.5,17.12-65.44S1108.91,1122,1125,1240.77c0,0,10.07,30.2-44.3,32.22s-92.62-4-92.62-4-66.45-4-96.65-50.34-26.18-155-26.18-155Z"/><path class="cls-14" d="M766.61,1065.59c-9.15.57-36.09-3.32-42.29-10.07-6.35-6.9-20.22-44.28-34.23-42.28s-24.16-8.06-28.19,32.22c-3.17,31.67,3.5,68.47,3.5,68.47s-21.62,114.76-11.55,143,153,18.12,153,18.12,16.11,0,16.11-48.32c0-62.46,2-92.93,2-112.76,0-22.15,30.67-65.78,24.16-88.6C843.87,1006.78,798.82,1063.58,766.61,1065.59Z"/><path class="cls-15" d="M542.56,1071.83s-110.2,144.78-74,162.9S635.73,1271,643.78,1244.8s38.26-151,0-199.34l-18.12-8.06S580.28,1084.11,542.56,1071.83Z"/><path class="cls-16" d="M825.47,1040.5S812.92,1267,849.16,1277s169.14-2,173.17-30.21-42.08-117.32-120.71-186.52C901.62,1060.29,850.1,1033.53,825.47,1040.5Z"/><path class="cls-12" d="M535.05,1053.51s8.05,60.41,82.55,22.15c20.62-10.59,35.57-11.38,44.88-9.94a8.12,8.12,0,0,0,9.25-8.7c-1.13-13.94-5.72-27.74,24.4-21.63,19.87,4,30.69,7.7,16.11-12.08-17.39-23.61-40.15-44.15-55-56.42a40.78,40.78,0,0,0-36.61-8C591.13,966.92,540.71,989.83,535.05,1053.51Z"/><path class="cls-14" d="M917.62,956.86s-24.16,32.22-108.73,72.49c-23.67,11.27-7.92,21.25-4,20.13,14.1-4,88.6,6,120.82,26.18,65.71,41.07,72.49-46.31,72.49-46.31C998.09,1029.94,990.11,932.7,917.62,956.86Z"/><path class="cls-17" d="M798.82,1258.89s-118.8,6-124.84-12.08"/><path d="M798.82,1258.89a222.76,222.76,0,0,1-31.89,4.43,310.14,310.14,0,0,1-32.13.72,216.78,216.78,0,0,1-32.15-3.18,99.38,99.38,0,0,1-15.84-4.17,41.5,41.5,0,0,1-7.53-3.58,18.35,18.35,0,0,1-3.32-2.64,7.23,7.23,0,0,1-2-3.66,7,7,0,0,0,2.83,2.59,20.43,20.43,0,0,0,3.53,1.44,54.65,54.65,0,0,0,7.57,1.57c5.14.73,10.37,1.11,15.6,1.43,10.47.6,21,.86,31.57,1.21s21.15.68,31.77,1.22S788.1,1257.51,798.82,1258.89Z"/><path class="cls-18" d="M569.28,1037.4a32.67,32.67,0,0,1-.36-6.85,51.38,51.38,0,0,1,.76-6.87,56.58,56.58,0,0,1,4.21-13.29,60.27,60.27,0,0,1,17.43-22.13,65.23,65.23,0,0,1,25.23-12.14A67.51,67.51,0,0,1,643.78,975c-8.57,3-16.77,5.81-24.45,9.33a113.41,113.41,0,0,0-11.09,5.7c-.87.55-1.75,1.06-2.63,1.59s-1.7,1.14-2.55,1.71l-1.27.83-1.23.91c-.8.62-1.65,1.18-2.42,1.84a83.92,83.92,0,0,0-16.75,17.75A107,107,0,0,0,569.28,1037.4Z"/><path class="cls-17" d="M535.05,1242.78l-50.34-16.1s-14.1-4,0-30.21S521,1126,521,1126"/><path class="cls-18" d="M535.05,1242.78a406.35,406.35,0,0,1-40.79-8.52c-3.35-.86-6.7-1.74-10-2.66l-.63-.17-.31-.08-.38-.12-.29-.11a10.35,10.35,0,0,1-1-.43,8,8,0,0,1-.92-.49l-.87-.53-.8-.61a11.77,11.77,0,0,1-1.47-1.35,16.19,16.19,0,0,1-3.68-6.66c-.17-.58-.25-1.15-.37-1.73a11.89,11.89,0,0,1-.25-1.72l-.06-1.67a11.17,11.17,0,0,1,0-1.64c.1-1,.17-2.12.31-3.14l.6-3a27.13,27.13,0,0,1,.81-2.82c.31-.92.56-1.89.94-2.74l1.07-2.62c.18-.43.35-.88.54-1.3l.61-1.25,1.25-2.47.63-1.23.62-1.13,2.46-4.54,5-9c3.37-6,6.77-12,10.3-18,7.06-11.91,14.37-23.7,22.61-35A372.66,372.66,0,0,1,506,1165c-2.78,6.35-5.73,12.63-8.76,18.87-1.51,3.12-3.09,6.21-4.65,9.31l-2.43,4.62-.6,1.15-.54,1.1-1.07,2.17-.55,1.07c-.17.36-.31.72-.46,1.09l-.92,2.16a21.7,21.7,0,0,0-.77,2.17c-.21.71-.53,1.44-.67,2.14a17.37,17.37,0,0,0-.68,7.65,6.3,6.3,0,0,0,1.07,2.44,2.78,2.78,0,0,0,.39.44l.21.21.22.17a1.19,1.19,0,0,0,.21.15l.15.11v0l-.07,0,.3.11.61.23c3.26,1.18,6.5,2.42,9.74,3.67A408.52,408.52,0,0,1,535.05,1242.78Z"/><path class="cls-19" d="M570.28,1149.69s-40.27-50.34-16.1-78.53,74.5-38.26,86.58-22.15,36.24,54.36,18.12,76.51-24.16,24.17-24.16,24.17S598.47,1103.37,570.28,1149.69Z"/><path class="cls-20" d="M569.28,1148.68l-10.07,66.45s44.3-32.22,70.47,0l.41-70.52S595.45,1114.45,569.28,1148.68Z"/><path class="cls-21" d="M559.21,1219.16v14.09s42.28-30.2,66.45,0V1210.8S593.44,1184.92,559.21,1219.16Z"/><path class="cls-22" d="M538.05,1269.53s50.34-70.47,108.73-16.1l-14.1,20.13s-2,72.49-12.08,62.42-16.11-40.27-16.11-40.27-4,48.33-18.12,58.39-24.16-76.51-24.16-76.51Z"/><path class="cls-23" d="M559.21,1248l2-17.47s62.45-24.84,66.48,9.78l-2.74,2.13S597.47,1222.8,559.21,1248Z"/><path class="cls-11" d="M561.09,1217.34c-2.47-.87-20,7.86-20,7.86l22.09,5.87S573,1221.56,561.09,1217.34Z"/><path class="cls-24" d="M829,1132.57s-56.38-36.24-16.11-82.55c0,0,64.43-52.36,102.69,0s0,74.5,0,74.5-43.12-24.37-82.32,4.67Q831.15,1130.76,829,1132.57Z"/><path class="cls-24" d="M837.08,1132.57s26.18-30.2,72.49-6L921.65,1189s-26.17-38.26-84.57,4Z"/><path class="cls-25" d="M841.11,1209.09s48.32-38.26,78.53,0v-22.57s-20.14-33.81-82.56,6.46Z"/><path class="cls-25" d="M841.11,1237.28s42.28-42.29,84.57-4v-24.16s-48.33-40.27-84.57,6Z"/><path class="cls-24" d="M825,1251.37s48.33-76.51,130.88-4l-22.15,14.1s-10.06,90.61-22.15,90.61-32.21-18.12-42.28-46.31c0,0-8.06,58.39-24.16,6l-4-46.31-24.16-4Z"/><path class="cls-17" d="M829,1103.85s-14.1-50.34,26.17-52.35"/><path class="cls-18" d="M829,1103.85a37.26,37.26,0,0,1-3.58-8.16,49.81,49.81,0,0,1-1.91-8.75,41.11,41.11,0,0,1,1.58-18.33l.4-1.13.47-1.11a20.07,20.07,0,0,1,1-2.2,28.72,28.72,0,0,1,2.66-4.13,23.68,23.68,0,0,1,7.5-6.31,13.18,13.18,0,0,1,2.18-1c.75-.29,1.48-.61,2.24-.83a25.71,25.71,0,0,1,4.59-.91,26.31,26.31,0,0,1,9,.55c-.7.29-1.39.53-2.08.79s-1.37.45-2,.75c-1.32.57-2.63,1-3.84,1.7a38,38,0,0,0-3.51,1.92,31.47,31.47,0,0,0-3.07,2.3,26.48,26.48,0,0,0-8,12.23,63.92,63.92,0,0,0-2.89,15.59C829.34,1092.27,829.24,1097.91,829,1103.85Z"/><path class="cls-18" d="M848.16,1139.09a25.18,25.18,0,0,1,2.74,7.55,38.6,38.6,0,0,1,.76,7.55,37.9,37.9,0,0,1-.75,7.55,25,25,0,0,1-2.75,7.55,25.07,25.07,0,0,1-2.76-7.55,37.16,37.16,0,0,1-.74-7.55,37.83,37.83,0,0,1,.75-7.55A24.94,24.94,0,0,1,848.16,1139.09Z"/><path class="cls-17" d="M713.25,1078.68s-28.19-34.79-30.21-10.41-4,159.41-4,159.41"/><path class="cls-18" d="M713.25,1078.68c-1.58-1.44-3.13-2.87-4.75-4.24s-3.19-2.74-4.83-4-3.3-2.55-5-3.69a36.76,36.76,0,0,0-5.15-3,14.45,14.45,0,0,0-2.54-1,5.23,5.23,0,0,0-2.1-.19,1.37,1.37,0,0,0-1,.52,4.12,4.12,0,0,0-.69,1.42,13.48,13.48,0,0,0-.44,2.35c-.09.87-.11,1.77-.12,2.85,0,2.09-.09,4.13-.09,6.24-.08,16.8-.17,33.69-.61,50.55s-1.11,33.73-2.17,50.6-2.45,33.72-4.77,50.57c-1.81-16.91-2.59-33.82-3-50.72s-.41-33.8,0-50.69,1.14-33.77,2.64-50.71c.16-2.11.43-4.28.67-6.4a33.36,33.36,0,0,1,.52-3.45A17.91,17.91,0,0,1,681,1062a9.77,9.77,0,0,1,2.86-3.73,7.62,7.62,0,0,1,4.86-1.59,11,11,0,0,1,4.09,1,19.73,19.73,0,0,1,3.19,1.74,49.45,49.45,0,0,1,9.64,9q2.08,2.48,4,5C710.9,1075.12,712.14,1076.86,713.25,1078.68Z"/><path class="cls-26" d="M889.81,982S977,990.34,979,1077.67c0,0,24.34-42,19.18-57.85S982,934,920,958C920,958,901.63,972.93,889.81,982Z"/><path class="cls-26" d="M983.94,1071.91s91.53,90.89,104.3,201.49c0,0,44.76-1.4,37.76-30.4s-46.67-157.31-127.83-213.65Z"/><path class="cls-27" d="M695.07,734.75A185.08,185.08,0,0,1,502.63,912.19c-102.15-4.14-181.58-90.3-177.44-192.44a184.35,184.35,0,0,1,23.7-83.48c13.44-3.61,46.59-11.57,91.06-15.15,16.89-1.38,35.41-2.12,55.09-1.77,14.37.26,29.35,1.1,44.79,2.72a466.11,466.11,0,0,1,84.72,16.7,34.35,34.35,0,0,1,15.8,5.05c4.57,1.53,9.15,3.19,13.74,4.92l2,.78c1.81.69,3.63,1.42,5.46,2.15Q672.28,655.95,683,661A184.23,184.23,0,0,1,695.07,734.75Z"/><path class="cls-27" d="M1188.85,722.93c-4,98.72-87.26,175.49-186,171.5s-175.5-87.28-171.49-186a178,178,0,0,1,5.2-36.28q6.18-3.24,13.34-6.82l1.2-.58,1.47-.75c34.61-17,84.7-38.13,139.36-49.51,11.41-2.39,23-4.35,34.72-5.76a334.66,334.66,0,0,1,44.08-2.5c32.15.41,64.13,6,93.93,19.35A178,178,0,0,1,1188.85,722.93Z"/><path class="cls-28" d="M685.42,728.54c0,.62,0,1.25,0,1.87,0,.89,0,1.8-.08,2.72v.17c-.07,2.05-.22,4.1-.41,6.11-.09,1-.2,2-.31,3a131.81,131.81,0,0,1-10.27,38.43c-23,52.57-79,88.46-142.87,85.85-81.85-3.31-145.67-68.5-142.54-145.62,1.64-40.2,21.14-75.71,51-100,16.89-1.38,35.41-2.12,55.09-1.77,14.37.26,29.35,1.1,44.79,2.72a466.11,466.11,0,0,1,84.72,16.7,34.35,34.35,0,0,1,15.8,5.05c4.57,1.53,9.15,3.19,13.74,4.92l2,.78c1.81.69,3.63,1.42,5.46,2.15A136.31,136.31,0,0,1,673.17,672a131.55,131.55,0,0,1,12.21,53.67C685.4,726.66,685.42,727.59,685.42,728.54Z"/><path class="cls-28" d="M1127.35,719.24c-3,74.53-69.59,132.36-148.7,129.14-74.16-3-133-58.6-137.6-127,0-.66-.09-1.33-.11-2-.06-1.06-.09-2.12-.13-3.19,0-1.88,0-3.78,0-5.7v-.28l.06-1.45c0-.39,0-.79,0-1.18,0-.13,0-.28,0-.41.1-2.12.23-4.23.43-6.33a127.71,127.71,0,0,1,8.59-35.56l1.2-.58,1.47-.75c34.61-17,84.7-38.13,139.36-49.51,11.41-2.39,23-4.35,34.72-5.76a334.66,334.66,0,0,1,44.08-2.5C1106.7,632.12,1129.19,673.51,1127.35,719.24Z"/><path class="cls-29" d="M685.42,728.54c0,.62,0,1.25,0,1.87,0,.89,0,1.8-.08,2.72v.17c-.07,2.05-.22,4.1-.41,6.11-.09,1-.2,2-.31,3a117.27,117.27,0,0,1-24.83,59.09l0,0C635,832.69,595,852.14,550.52,850.33c-40.64-1.64-76.22-20.72-98.9-49.25a122,122,0,0,1-11.15-16.61,116.37,116.37,0,0,1-14.81-61.7c1.84-45.35,29.63-83.87,69.38-103.42,14.37.26,29.35,1.1,44.79,2.72a466.11,466.11,0,0,1,84.72,16.7,34.35,34.35,0,0,1,15.8,5.05c4.57,1.53,9.15,3.19,13.74,4.92,18.95,20.89,30.58,47.79,31.29,77C685.4,726.66,685.42,727.59,685.42,728.54Z"/><path class="cls-29" d="M1091.86,717.4c-2.64,65.28-61,115.94-130.27,113.12-43.34-1.75-80.73-24-102-56.41-.12-.19-.23-.35-.34-.54a113.08,113.08,0,0,1-18.43-64.05c0-.25,0-.47,0-.71a.62.62,0,0,1,0-.19c0-.33,0-.65,0-1,0-.13,0-.28,0-.41.1-2.12.23-4.23.43-6.33a112.34,112.34,0,0,1,9.79-36.14l1.47-.75c34.61-17,84.7-38.13,139.36-49.51,11.41-2.39,23-4.35,34.72-5.76A124.15,124.15,0,0,1,1072.82,650a113.72,113.72,0,0,1,17.27,42.51A111.66,111.66,0,0,1,1091.86,717.4Z"/><path d="M687.82,732a111,111,0,0,1-28.05,69.55l0,0A111.55,111.55,0,1,1,539.83,622.07a466.11,466.11,0,0,1,84.72,16.7,34.35,34.35,0,0,1,15.8,5.05c4.57,1.53,9.15,3.19,13.74,4.92l2,.78A111.38,111.38,0,0,1,687.82,732Z"/><path d="M1056.36,715.18c0,.78,0,1.57-.07,2.37A107.82,107.82,0,0,1,859.6,774.11c-.12-.19-.23-.35-.34-.54a107.23,107.23,0,0,1-18.21-52.16c0-.66-.09-1.33-.11-2-.06-1.06-.09-2.12-.13-3.19-.06-1.9-.08-3.78,0-5.7v-.28c0-.24,0-.5,0-.74s0-.47,0-.71a.62.62,0,0,1,0-.19A107.25,107.25,0,0,1,852.59,664c34.61-17,84.7-38.13,139.36-49.51a107.82,107.82,0,0,1,64.41,100.69Z"/><path d="M491,448.32a152,152,0,0,1,26.73,3.43,212.16,212.16,0,0,1,26,7.31,217.62,217.62,0,0,1,48.52,24.21,219.82,219.82,0,0,1,21.56,16.61c3.34,3.08,6.74,6.09,9.86,9.39s6.2,6.61,9.22,10a184,184,0,0,1,28.65,45.65,299.29,299.29,0,0,0-33.29-41.4c-6.2-6.26-12.63-12.24-19.38-17.85-1.68-1.41-3.42-2.74-5.13-4.12l-2.57-2-2.65-1.94c-1.77-1.29-3.49-2.66-5.3-3.89l-5.42-3.73a284.92,284.92,0,0,0-46.34-25c-8.11-3.46-16.37-6.66-24.8-9.39A262,262,0,0,0,491,448.32Z"/><path class="cls-30" d="M657,674.93a34.82,34.82,0,1,1-33.38-36.22l1,.06a34.35,34.35,0,0,1,15.8,5.05A34.77,34.77,0,0,1,657,674.93Z"/><circle class="cls-30" cx="1057.77" cy="680.86" r="34.36"/><ellipse class="cls-30" cx="471.07" cy="791.7" rx="12.04" ry="35.55" transform="translate(-339.06 1230.3) rotate(-87.68)"/><ellipse class="cls-30" cx="921.52" cy="786.78" rx="11.64" ry="34.36" transform="translate(98.04 1675.66) rotate(-87.68)"/><path d="M980.63,462.49c-8,3.89-15.72,8.12-23.28,12.64s-14.94,9.25-22.16,14.21a355.89,355.89,0,0,0-40.82,32.81l-4.73,4.52c-1.59,1.5-3.07,3.1-4.61,4.64l-2.31,2.31L880.48,536,876,540.79q-8.74,9.74-16.76,20.13c-5.23,7-10.42,14.07-15.06,21.54-4.88,7.33-9.1,15.07-13.55,22.78a201.81,201.81,0,0,1,23.49-48l3.8-5.55c.62-.93,1.28-1.84,2-2.73l2-2.68c2.63-3.64,5.55-7,8.39-10.53a256.69,256.69,0,0,1,18.58-19.46,252,252,0,0,1,42.91-32.25,241.17,241.17,0,0,1,23.74-12.41A165.88,165.88,0,0,1,980.63,462.49Z"/><path class="cls-6" d="M695.07,735.33a185.09,185.09,0,1,1-346.18-98.48c13.44-3.61,46.59-11.57,91.06-15.15,16.89-1.38,35.41-2.12,55.09-1.77,14.37.26,29.35,1.1,44.79,2.72a467,467,0,0,1,84.72,16.7,34.35,34.35,0,0,1,15.8,5c4.57,1.53,9.15,3.19,13.74,4.92l2,.79c1.81.68,3.63,1.41,5.46,2.14q10.68,4.28,21.37,9.28A184.23,184.23,0,0,1,695.07,735.33Z"/><path class="cls-6" d="M1188.85,723.52c-4,98.71-87.26,175.48-186,171.49s-175.5-87.28-171.49-186a178.11,178.11,0,0,1,5.2-36.29q6.18-3.24,13.34-6.82l1.2-.58,1.47-.74c34.61-17,84.7-38.13,139.36-49.52,11.41-2.39,23-4.34,34.72-5.76a334.66,334.66,0,0,1,44.08-2.5c32.15.41,64.13,6,93.93,19.35A178.08,178.08,0,0,1,1188.85,723.52Z"/><path class="cls-31" d="M1219.61,441.46v0s-4.1-2.06-11.93-5.56c-11.07-4.9-29.6-12.67-54.62-21.47h0q-10.21-6.12-21.49-12.39c-.36,1.55-.71,3.15-1.06,4.8-12.6-4.07-26.42-8.23-41.36-12.34.74-4.59,1.49-9,2.23-13.08-9-4.25-18.27-8.49-27.93-12.62-.83,5.64-1.67,11.78-2.5,18.34q-14.21-3.51-29.49-6.81c.87-8.58,1.67-16.47,2.39-23.52q-17.58-6.69-36.34-12.81c-1,8.52-2.11,18.24-3.28,28.95-15.12-2.71-30.86-5.22-47.2-7.41,1-13,2.19-24.85,3.49-35.2-18.36-4.68-37.36-8.8-57-12.18l-1.1,41.39c-21.19-1.78-43.18-3-65.86-3.53,1-17.83,1.87-33.45,2.63-46-19.81-1.58-40.09-2.32-60.74-2.09l.65,48.22q-13.12.4-26.47,1.13l-1.49-48.5A649.21,649.21,0,0,0,673.07,316c-.26,12.89.1,29,.9,47.34q-26,3.07-52.7,7.62c.61-17.63,1.3-33,1.89-45.11q-29.08,6.93-58.71,16.91c-.2,11.2-.42,24.65-.58,39.63q-25.59,5.81-51.72,13.13c.61-12.34,1.54-23.74,2.84-33.84q-27.57,11.73-55.41,26.49c.11,6.79.28,14.65.49,23.4q-20.08,6.71-40.38,14.41c.16-5.49.48-10.72.92-15.61Q402,421.66,383.23,434.55q-.17,2.94-.24,6.07-9.74,4.08-19.53,8.43l-.06,0q-25.69,11.39-51.69,24.46h0S442.37,252.58,704.11,230.14h0c.89.24,58.23,16,66.71,62.89h0C974.62,293.18,1146.78,383.15,1219.61,441.46Z"/><path class="cls-31" d="M1231.75,453.81a133.37,133.37,0,0,0-12-17.39A102.77,102.77,0,0,1,1231.75,453.81Z"/><path class="cls-32" d="M1291.63,765.36l-.63.93-141.38,67c44.64-33.49,46.5-117.2,46.5-117.2l24.19-55.81c53.22-102.49,30-172.94,12.39-204.75,26.6,46.21,37.84,113.59,37.84,113.59s-20.47,10-30.7,57.06,56.87,58.08,56.87,58.08c-2.4,5.58-4.69,11.66-6.73,18.1-10.14,31.81-10.81,60-1.51,63A5.64,5.64,0,0,0,1291.63,765.36Z"/><path class="cls-33" d="M363.45,449.06c16.94,14.44-32.82,10.73-24.88,187.13,0,0-50.21,80-7.39,174.87,0,0,26.31,66.89,57.94,78.05s-136.07-70.59-136.07-70.59-48.4-83.7,0-133.94l50.21-52.1s-3.76-137.67,9.25-158.13"/><path class="cls-34" d="M1153,414.44q-10.53-3.69-22.55-7.59c.35-1.65.7-3.25,1.06-4.8Q1142.8,408.31,1153,414.44Z"/><path class="cls-13" d="M742.64,357c-22.38,1.29-45.28,3.33-68.67,6.3-.8-19.3-1.16-36.32-.9-49.92a618.28,618.28,0,0,1,68.08-7.51Z"/><path class="cls-13" d="M623.16,325.8c-.59,12.11-1.28,27.48-1.89,45.11q-28.32,4.84-57.4,11.43c.16-15,.38-28.43.58-39.63Q594.09,332.69,623.16,325.8Z"/><path class="cls-13" d="M420.61,410.32c-.44,4.89-.76,10.12-.92,15.61q-18.26,6.93-36.7,14.69.08-3.14.24-6.07Q401.95,421.65,420.61,410.32Z"/><path class="cls-34" d="M1331.72,669.29c-.07,11.55-2.77,27.16-8.07,43.75-9.06,28.45-22.6,50.16-32,52.32a5.64,5.64,0,0,1-3.16-.06c-9.3-3-8.63-31.16,1.51-63,2-6.44,4.33-12.52,6.73-18.1,9.51-22.1,21-36.52,28.45-34.16,4,1.29,6.19,7.3,6.53,16.32C1331.7,667.32,1331.72,668.29,1331.72,669.29Z"/><path class="cls-35" d="M1331.91,666.26l-.22.13c-.34-9-2.5-15-6.53-16.32-7.43-2.36-18.94,12.06-28.45,34.16,0,0-67.1-11-56.87-58.08s30.7-57.06,30.7-57.06l57.67,72.56C1331.29,649.05,1332.34,657.44,1331.91,666.26Z"/><path class="cls-36" d="M1219.61,441.46c-72.83-58.31-245-148.28-448.72-148.43h0c-8.48-46.85-65.82-62.65-66.71-62.89a507,507,0,0,1,62.19-1.49C1069.53,239.72,1159.32,336.36,1219.61,441.46Z"/><path class="cls-37" d="M1218.26,439c-72.83-58.32-245-148.29-448.72-148.43h0C624.33,290.5,463.11,336,310.36,471.1h0S441,250.15,702.76,227.71h0A507,507,0,0,1,765,226.22C1068.18,237.29,1158,333.93,1218.26,439Z"/><path class="cls-38" d="M1230.4,451.38c-.84-1.43-1.69-2.83-2.57-4.2a0,0,0,0,0,0,0c-2.92-4.63-8.9-7.12-12.15-11.08,1,1.12,7.63,3.64,12.3,11.21l0,0C1228.78,448.59,1229.58,450,1230.4,451.38Z"/><path class="cls-39" d="M1330.56,663.83l-.22.13c-.34-9-2.5-15-6.53-16.32-7.43-2.36-18.94,12.06-28.45,34.16-2.4,5.58-4.69,11.66-6.73,18.1-10.14,31.81-10.81,60-1.51,63a5.64,5.64,0,0,0,3.16.06l-.63.93-141.38,67c44.64-33.49,46.5-117.2,46.5-117.2l8.82-20.33c2,1.17,4.06,2.38,6.07,3.59a755.9,755.9,0,0,0,28.83-73.17s0,0,0-.05c2.92-8.77,5.8-17.94,8.47-27.3a.07.07,0,0,0,0,0c6.53-23,11.74-47.2,13.25-69.13,6.14,22.62,9,39.48,9,39.48l57.67,72.55C1329.94,646.62,1331,655,1330.56,663.83Z"/><path class="cls-37" d="M282.9,649.74l-31.24,32.41c-48.36,50.25,0,133.94,0,133.94s85.75,49.31,128.8,72.16c20.47,7.43,33.12,12.35,22.12,5.35-5.24-3.33-9.73-5.34-16-11-27.65-24.75-54-76-54-76-16-44-22.48-83-16.55-114.11"/><path class="cls-12" d="M1254.3,477.22c-3.09-7.22-12.13-17.67-26.31-30q1.17,1.9,2.4,4.06c-.84-1.44-1.69-2.83-2.57-4.21a0,0,0,0,0,0,0c-3-2.58-6.14-5.24-9.54-7.95v0c-72.83-58.32-245-148.29-448.72-148.43h0C624.33,290.5,463.11,336,310.36,471.1h0q-13.6,12-27.11,25c-3.74,3.59-13.87,90.31-.33,153.63,4,18.71,10.08,35.4,19,47.28,0,0,4.93-1.66,14.16-4.51,90.42-28,592.75-171.06,887.6.65,2,1.17,4.06,2.38,6.07,3.59a757,757,0,0,0,28.81-73.18.06.06,0,0,1,0-.05c.6-2.76,1.23-5.38,1.9-7.89.16-.63.33-1.25.5-1.86.24-.84.46-1.68.7-2.49.41-1.42.84-2.78,1.29-4.12.22-.7.44-1.39.68-2.06.54-1.6,1.1-3.13,1.66-4.6q.56-1.44,1.11-2.79c.21-.5.41-1,.62-1.49,0,0,0,0,0-.05,6.52-23,11.72-47.2,13.22-69.13v0C1261.57,508,1260.09,490.7,1254.3,477.22ZM323.94,663.06c-9.93,4.66-15.34,7.47-15.34,7.47-5.42-3.95-9.14-17.49-11.7-35.33v0c-7.08-49.57-5.1-132.08-5.1-132.08q7.06-6.3,14.12-12.33c1.73-1.49,3.46-3,5.19-4.43,0,2.75,1.35,106.29,16.33,167.48q.85,3.51,1.79,6.8Zm33-14.52c-4-20.48-12.24-63.95-17.93-106.76-3.52-26.63-6.08-53-6.05-73.4q10.83-8.62,21.65-16.73c.36,5.76.83,12.78,1.48,20.91A1366.78,1366.78,0,0,0,379.6,639.42C371.43,642.58,363.84,645.64,356.92,648.54Zm47.25-18.32c-9.82-53.66-23.87-140.55-22.53-192,.05-2.08.13-4.11.24-6.06q18.72-12.9,37.38-24.24c-.44,4.9-.76,10.12-.92,15.61-1.92,56.85,9.53,141.92,18,195.77C425,622.92,414.29,626.59,404.17,630.22Zm66.65-21.32c-7.65-60.36-10.82-146.14-12.1-199.81-.21-8.74-.38-16.61-.49-23.4Q486,370.89,513.64,359.2c-1.3,10.1-2.23,21.5-2.84,33.84-3,60.5,1.22,143.34,5.52,204.33C500.6,600.91,485.38,604.81,470.82,608.9Zm150.54-27.78-.26,0c-18.8,1.49-37.37,3.79-55.51,6.71-3.74-64.79-3.74-148.51-3.07-207.94.16-15,.38-28.43.58-39.63q29.63-10,58.71-16.91c-.6,12.11-1.28,27.48-1.89,45.12C617.91,426.66,616.62,509.44,621.36,581.12Zm68.44-4.76C683,508,675.3,422.29,672.62,360.86c-.8-18.3-1.16-34.45-.9-47.34a649.21,649.21,0,0,1,68.08-7.13l1.48,48.5L748,573.58C727.92,574.3,708.42,575.25,689.8,576.36ZM825.22,353.6c-3.27,60.27-7.15,145.46-7.71,218.66-15.81,0-31.46.23-46.86.63l-2.89-219.13-.65-48.21c20.65-.23,40.93.5,60.74,2.08C827.09,320.15,826.18,335.78,825.22,353.6Zm120.42,9.52c-4.83,61.77-6.71,148.44-7.39,213.89-17.49-1.51-35.18-2.62-52.89-3.37l5.72-216.51,1.1-41.39c19.59,3.38,38.59,7.5,57,12.19C947.83,338.27,946.68,350.16,945.64,363.12Zm84.43,14.79c-5.34,53-13.13,132.66-19.51,208.12Q993,583.11,975,580.86c4.53-80.31,12.06-157.51,17.87-210.33,1.17-10.71,2.28-20.42,3.28-28.94q18.76,6.07,36.34,12.8C1031.74,361.44,1030.94,369.33,1030.07,377.91Zm57.69,14.17c-9.14,56.58-18.37,147-23.86,205.15q-11.22-2.9-22.87-5.39c4.36-61,11.32-150,18.53-207.11.83-6.57,1.67-12.71,2.5-18.35,9.66,4.13,19,8.37,27.93,12.63C1089.25,383.12,1088.5,387.49,1087.76,392.08Zm3.6,213c10.25-72.39,27.69-155.27,37.76-200.67.35-1.65.7-3.25,1.06-4.8,7.51,4.17,14.68,8.32,21.49,12.39l0,0c2.26,1.35,4.47,2.71,6.65,4.05-9.18,36.87-29.73,124-38.71,199.18Q1106,609.76,1091.36,605.09Zm45,17.45c8.75-51.9,26.8-156,36.15-197.46,6.53,4.26,12.61,8.42,18.19,12.4-8.36,37.53-28.18,129-37.63,193.54Q1145,626.56,1136.38,622.54Zm62.19,41.12a190.24,190.24,0,0,0-22.26-18.19c7-50.9,21.68-153,32.63-194.23,8.15,14.83,12.58,22.68,15.6,27.85.57,1,3.72,13,7.45,22.32C1224.35,533.72,1212.85,583.1,1198.57,663.66Z"/><path class="cls-13" d="M1090,379c-.74,4.11-1.49,8.48-2.23,13.07-9-2.49-18.4-5-28.2-7.35.83-6.57,1.67-12.71,2.5-18.35C1071.72,370.51,1081,374.75,1090,379Z"/><path class="cls-13" d="M1032.46,354.39c-.72,7.05-1.52,14.94-2.39,23.52q-17.92-3.87-37.23-7.38c1.17-10.71,2.28-20.42,3.28-28.94Q1014.89,347.67,1032.46,354.39Z"/><path class="cls-13" d="M949.13,327.93c-1.3,10.34-2.45,22.23-3.49,35.19q-26.31-3.56-54.56-6l1.1-41.39C911.77,319.12,930.77,323.24,949.13,327.93Z"/><path class="cls-13" d="M827.85,307.63c-.76,12.52-1.67,28.15-2.63,46q-28-.69-57.46.16l-.65-48.21C787.76,305.32,808,306.05,827.85,307.63Z"/><path class="cls-13" d="M513.64,359.2c-1.3,10.1-2.23,21.5-2.84,33.84q-25.8,7.23-52.08,16c-.21-8.74-.38-16.61-.49-23.4Q486,370.89,513.64,359.2Z"/><path class="cls-37" d="M1330.37,666.86c-.07,11.55-2.77,27.16-8.07,43.76-9.06,28.44-22.6,50.15-32,52.31a5.64,5.64,0,0,1-3.16-.06c-9.3-3-8.63-31.16,1.51-63,2-6.44,4.33-12.52,6.73-18.1,9.51-22.1,21-36.52,28.45-34.16,4,1.29,6.19,7.3,6.53,16.32C1330.35,664.89,1330.37,665.86,1330.37,666.86Z"/><path class="cls-38" d="M1247,596.37c-2.67,9.36-5.55,18.53-8.47,27.3.6-2.76,1.23-5.38,1.9-7.89.17-.64.33-1.25.5-1.86.24-.84.47-1.68.71-2.5.41-1.41.83-2.77,1.28-4.11.22-.7.45-1.39.69-2.06.54-1.6,1.1-3.13,1.65-4.6.38-1,.75-1.89,1.12-2.79C1246.57,597.36,1246.77,596.86,1247,596.37Z"/><polygon class="cls-40" points="828.69 160.73 704.61 166.35 737.59 117.97 803.59 117.95 828.69 160.73"/><polygon class="cls-40" points="828.69 160.73 815.51 242.59 715.19 244.48 704.61 166.35 828.69 160.73"/><path class="cls-41" d="M711.23,229.6l-15.84,27.91s-13.19,9.3,17.17,3.71,63.36-1.88,112.2-1.89c25.49,0,0-20.47,0-20.47l-5.28-7.43-5.28,13-99,0Z"/><line class="cls-42" x1="732.35" y1="240.75" x2="727.06" y2="203.55"/><line class="cls-42" x1="750.83" y1="240.75" x2="746.86" y2="199.82"/><line class="cls-42" x1="766.67" y1="238.88" x2="766.65" y2="183.07"/><line class="cls-42" x1="781.19" y1="238.88" x2="786.46" y2="203.53"/><line class="cls-42" x1="800.99" y1="238.87" x2="804.94" y2="210.97"/><path class="cls-43" d="M1013.73,101.45s-72.29,17.34-98.47,54c-25.75,36.05-47.22,118.23-47.94,121l0,.07-7.17-.7c.07-.72.16-1.46.25-2.22,4.22-32.12,34.94-105.92,49-132.29,14.38-27,110.29-73.17,118.36-62.92S1013.73,101.45,1013.73,101.45Z"/><path class="cls-43" d="M676.55,276.14s-15.8-66.32-42.11-96.37S526.08,131.1,526.08,131.1s-24.2-11.39-13.68-18.65,116.77,35.2,130.45,57S685,252.3,685,276.13"/><path class="cls-44" d="M1012.93,101.22s-72.3,17.34-98.48,54c-25.75,36-47.21,118.23-47.94,121.05v.07l-7.18-.7c.07-.72.16-1.46.25-2.22,4.22-32.12,34.95-105.92,49-132.29,14.38-27,110.3-73.17,118.36-62.92S1012.93,101.22,1012.93,101.22Z"/><path class="cls-44" d="M675.93,276s-15.8-66.32-42.11-96.36-108.36-48.68-108.36-48.68-24.2-11.39-13.68-18.64,116.77,35.19,130.45,56.95,42.1,82.89,42.11,106.73"/><ellipse class="cls-45" cx="678.89" cy="272.39" rx="13.95" ry="3.72"/><ellipse class="cls-45" cx="863.07" cy="277.92" rx="17.67" ry="5.58"/><path class="cls-46" d="M742.26,937.85s78.26-1.25,91.24-15.35"/><path class="cls-46" d="M848,930c-12.53,0-19.42-9.45-14.1-18.8"/><path class="cls-47" d="M869.7,953.55s13-1.06,20-3.11"/><path class="cls-47" d="M869.7,953.55a28.05,28.05,0,0,1,4.92-1.68c1.65-.41,3.3-.71,5-1s3.33-.39,5-.49a40.45,40.45,0,0,1,5.16,0,17,17,0,0,1-4.73,2.3,29,29,0,0,1-5,1.14,32.46,32.46,0,0,1-5.12.33A21.66,21.66,0,0,1,869.7,953.55Z"/><path class="cls-48" d="M871.71,954.19s15.21-.44,17.36,1.13"/><path class="cls-48" d="M871.71,954.19a16.56,16.56,0,0,1,4.37-1.23,25.18,25.18,0,0,1,4.42-.27,21.58,21.58,0,0,1,4.43.56,13,13,0,0,1,2.19.72,7.13,7.13,0,0,1,1.06.55,5.48,5.48,0,0,1,.49.35,5.19,5.19,0,0,1,.4.45,6,6,0,0,0-1.12,0c-.35,0-.72.06-1.08.1-.72.07-1.43.13-2.15.18-1.43.09-2.87.13-4.3.09a37.41,37.41,0,0,1-4.33-.38A20,20,0,0,1,871.71,954.19Z"/><path class="cls-49" d="M874.66,954.69s15.06-1.38,15.85-2.45"/><path class="cls-49" d="M874.66,954.69a16.48,16.48,0,0,1,3.87-1.57,28.63,28.63,0,0,1,3.94-.79,31.15,31.15,0,0,1,4-.24c.67,0,1.34,0,2,.08a9.93,9.93,0,0,0,2,.07,2.27,2.27,0,0,1-.79.81c-.31.21-.63.38-.94.56a13.62,13.62,0,0,1-1.95.81,20.58,20.58,0,0,1-4,.89,23,23,0,0,1-4.06.15A14.8,14.8,0,0,1,874.66,954.69Z"/><path class="cls-47" d="M871.67,956s13-1.07,20.05-3.11"/><path class="cls-47" d="M871.67,956a27.26,27.26,0,0,1,4.92-1.68,50.43,50.43,0,0,1,5-1c1.66-.24,3.33-.4,5-.49a38.69,38.69,0,0,1,5.16,0,16.68,16.68,0,0,1-4.73,2.29,29.07,29.07,0,0,1-5,1.15,33.7,33.7,0,0,1-5.12.33A21.66,21.66,0,0,1,871.67,956Z"/><path class="cls-48" d="M873.68,956.65s15.21-.45,17.37,1.13"/><path class="cls-48" d="M873.68,956.65a16.52,16.52,0,0,1,4.38-1.23,24.14,24.14,0,0,1,4.41-.27,20.91,20.91,0,0,1,4.43.56,12.7,12.7,0,0,1,2.19.71,8.31,8.31,0,0,1,1.06.56,5.48,5.48,0,0,1,.49.35,5.57,5.57,0,0,1,.41.45,5.33,5.33,0,0,0-1.13,0c-.35,0-.72.05-1.08.09-.72.08-1.43.13-2.15.19-1.43.09-2.86.13-4.3.09a37.41,37.41,0,0,1-4.33-.38A20.6,20.6,0,0,1,873.68,956.65Z"/><path class="cls-49" d="M876.63,957.15s15.06-1.38,15.85-2.46"/><path class="cls-49" d="M876.63,957.15a17,17,0,0,1,3.87-1.58,28.59,28.59,0,0,1,3.94-.78,29.43,29.43,0,0,1,4-.24c.67,0,1.34,0,2,.08a9.93,9.93,0,0,0,2,.06,2.22,2.22,0,0,1-.79.82c-.31.21-.63.38-.94.56a15.34,15.34,0,0,1-1.94.81,21.63,21.63,0,0,1-4,.89,23.94,23.94,0,0,1-4.06.14A14.78,14.78,0,0,1,876.63,957.15Z"/><path class="cls-47" d="M874.81,957.57s13-1.06,20.05-3.1"/><path class="cls-47" d="M874.81,957.57a27.46,27.46,0,0,1,4.92-1.67,50.24,50.24,0,0,1,4.95-1c1.66-.25,3.33-.4,5-.5a40.66,40.66,0,0,1,5.17,0,17,17,0,0,1-4.73,2.29,30.37,30.37,0,0,1-5,1.15,32.38,32.38,0,0,1-5.12.32A21.09,21.09,0,0,1,874.81,957.57Z"/><path class="cls-48" d="M876.82,958.22s15.2-.45,17.36,1.13"/><path class="cls-48" d="M876.82,958.22a16.76,16.76,0,0,1,4.37-1.24,25.18,25.18,0,0,1,4.42-.27,21.57,21.57,0,0,1,4.42.56,13.68,13.68,0,0,1,2.19.72,7.62,7.62,0,0,1,1.06.55,5.48,5.48,0,0,1,.49.35,4.24,4.24,0,0,1,.41.46,5.35,5.35,0,0,0-1.13,0c-.35,0-.72.06-1.08.1-.71.07-1.43.13-2.15.18-1.43.09-2.86.14-4.3.09a35.33,35.33,0,0,1-4.33-.38A20.33,20.33,0,0,1,876.82,958.22Z"/><path class="cls-49" d="M879.76,958.71s15.06-1.37,15.85-2.45"/><path class="cls-49" d="M879.76,958.71a17,17,0,0,1,3.88-1.57,27,27,0,0,1,3.93-.78,29.48,29.48,0,0,1,4-.24c.67,0,1.34,0,2,.07a9.27,9.27,0,0,0,2,.07,2.12,2.12,0,0,1-.79.81,7.51,7.51,0,0,1-.94.56,13.51,13.51,0,0,1-1.94.81,20.68,20.68,0,0,1-4,.89,22.92,22.92,0,0,1-4.06.15A14.87,14.87,0,0,1,879.76,958.71Z"/><path class="cls-47" d="M877.16,959.92s13-1.06,20.05-3.1"/><path class="cls-47" d="M877.16,959.92a27.46,27.46,0,0,1,4.92-1.67,50.24,50.24,0,0,1,4.95-1c1.66-.25,3.33-.4,5-.5a40.66,40.66,0,0,1,5.17,0,17.08,17.08,0,0,1-4.73,2.29,30.37,30.37,0,0,1-5,1.15,32.38,32.38,0,0,1-5.12.32A21.09,21.09,0,0,1,877.16,959.92Z"/><path class="cls-48" d="M879.17,960.57s15.2-.45,17.36,1.13"/><path class="cls-48" d="M879.17,960.57a16.76,16.76,0,0,1,4.37-1.24,25.18,25.18,0,0,1,4.42-.27,21.57,21.57,0,0,1,4.42.56,13.68,13.68,0,0,1,2.19.72,7.62,7.62,0,0,1,1.06.55,5.48,5.48,0,0,1,.49.35,4.24,4.24,0,0,1,.41.46,5.35,5.35,0,0,0-1.13,0c-.35,0-.72.06-1.08.1-.71.07-1.43.13-2.15.18-1.43.09-2.86.14-4.3.09a35.33,35.33,0,0,1-4.33-.38A20.33,20.33,0,0,1,879.17,960.57Z"/><path class="cls-49" d="M882.11,961.06s15.06-1.37,15.85-2.45"/><path class="cls-49" d="M882.11,961.06a17,17,0,0,1,3.88-1.57,27,27,0,0,1,3.93-.78,29.48,29.48,0,0,1,4-.24c.67,0,1.34,0,2,.07a9.27,9.27,0,0,0,2,.07,2.12,2.12,0,0,1-.79.81,7.51,7.51,0,0,1-.94.56,13.51,13.51,0,0,1-1.94.81,20.68,20.68,0,0,1-4,.89,22.92,22.92,0,0,1-4.06.15A14.87,14.87,0,0,1,882.11,961.06Z"/><path class="cls-47" d="M879.93,961.52s13,1.83,20.24,1.38"/><path class="cls-47" d="M879.93,961.52a28.06,28.06,0,0,1,5.17-.55,49.84,49.84,0,0,1,5,.15c1.67.13,3.33.35,5,.62a40.33,40.33,0,0,1,5,1.16,16.89,16.89,0,0,1-5.12,1.2,29.42,29.42,0,0,1-5.14,0,32.23,32.23,0,0,1-5.07-.8A21.52,21.52,0,0,1,879.93,961.52Z"/><path class="cls-48" d="M881.75,962.59s14.93,2.91,16.69,4.92"/><path class="cls-48" d="M881.75,962.59a17,17,0,0,1,4.54-.24,24.78,24.78,0,0,1,4.36.71,21.15,21.15,0,0,1,4.2,1.52,12.93,12.93,0,0,1,2,1.18,8.08,8.08,0,0,1,.91.77,5.6,5.6,0,0,1,.4.45c.11.19.22.36.3.53a6.89,6.89,0,0,0-1.1-.25c-.34-.06-.72-.1-1.07-.14l-2.14-.29c-1.42-.23-2.83-.51-4.22-.86a37.55,37.55,0,0,1-4.14-1.33A20.35,20.35,0,0,1,881.75,962.59Z"/><path class="cls-49" d="M884.51,963.72s15,2,16,1.1"/><path class="cls-49" d="M884.51,963.72a16.88,16.88,0,0,1,4.13-.68,29.72,29.72,0,0,1,4,.1,30.8,30.8,0,0,1,3.94.64c.65.16,1.3.33,1.95.52a9.7,9.7,0,0,0,2,.52,2.25,2.25,0,0,1-1,.62c-.34.14-.69.23-1,.34a13.94,13.94,0,0,1-2.08.36,20.7,20.7,0,0,1-4.09,0,23,23,0,0,1-4-.75A15.11,15.11,0,0,1,884.51,963.72Z"/><path class="cls-47" d="M883.27,964.76s12.9,2.15,20.2,1.88"/><path class="cls-47" d="M883.27,964.76a27.93,27.93,0,0,1,5.18-.43c1.7,0,3.37.11,5,.28s3.32.43,5,.75a38.81,38.81,0,0,1,5,1.28,17,17,0,0,1-5.15,1.07,30.38,30.38,0,0,1-5.14-.11,32,32,0,0,1-5-.94A21.1,21.1,0,0,1,883.27,964.76Z"/><path class="cls-48" d="M885.06,965.87s14.86,3.28,16.56,5.34"/><path class="cls-48" d="M885.06,965.87a16.53,16.53,0,0,1,4.54-.12,24.53,24.53,0,0,1,4.35.81,21,21,0,0,1,4.16,1.63,12.63,12.63,0,0,1,1.95,1.22,8.24,8.24,0,0,1,.89.8,4.49,4.49,0,0,1,.39.46,4,4,0,0,1,.28.54,5.15,5.15,0,0,0-1.09-.28c-.34-.07-.71-.12-1.07-.17l-2.13-.35c-1.41-.26-2.81-.57-4.19-1A38.39,38.39,0,0,1,889,968,20.31,20.31,0,0,1,885.06,965.87Z"/><path class="cls-49" d="M887.79,967.08s15,2.33,16,1.48"/><path class="cls-49" d="M887.79,967.08a16.4,16.4,0,0,1,4.15-.58,28.13,28.13,0,0,1,4,.19,31.1,31.1,0,0,1,3.92.74c.64.17,1.29.36,1.93.57a9.54,9.54,0,0,0,2,.56,2.2,2.2,0,0,1-1,.6,10.42,10.42,0,0,1-1,.31,12.6,12.6,0,0,1-2.08.31,19.93,19.93,0,0,1-4.09-.11,22,22,0,0,1-4-.85A15,15,0,0,1,887.79,967.08Z"/><path class="cls-47" d="M870.2,954.53s0,13.08-1.39,20.24"/><path class="cls-47" d="M870.2,954.53a21.12,21.12,0,0,1,1.09,5.11,32.56,32.56,0,0,1,.11,5.13,29.55,29.55,0,0,1-.71,5.09,17.12,17.12,0,0,1-1.88,4.91,40.39,40.39,0,0,1-.47-5.15c0-1.68,0-3.35.07-5s.27-3.34.53-5A27.74,27.74,0,0,1,870.2,954.53Z"/><path class="cls-48" d="M872.18,957.17s.83,15.19,2.56,17.21"/><path class="cls-48" d="M872.18,957.17a20.56,20.56,0,0,1,1.48,4.26,37.74,37.74,0,0,1,.74,4.29c.16,1.43.24,2.86.26,4.29q0,1.08,0,2.16c0,.36,0,.73,0,1.09a5.51,5.51,0,0,0,.09,1.12,4.78,4.78,0,0,1-.48-.37c-.15-.15-.26-.31-.39-.46a8.51,8.51,0,0,1-.64-1,12.9,12.9,0,0,1-.89-2.12,21.53,21.53,0,0,1-.92-4.37,24.17,24.17,0,0,1-.1-4.42A16.44,16.44,0,0,1,872.18,957.17Z"/><path class="cls-49" d="M872.92,960.06s-.11,15.12-1.1,16"/><path class="cls-49" d="M872.92,960.06a15.3,15.3,0,0,1,1.11,4.05,23,23,0,0,1,.19,4.06,20.64,20.64,0,0,1-.54,4,13.44,13.44,0,0,1-.65,2c-.15.33-.29.66-.47,1a2.2,2.2,0,0,1-.74.86,9.89,9.89,0,0,0-.25-2c-.1-.67-.18-1.33-.25-2a31.27,31.27,0,0,1-.09-4,25.8,25.8,0,0,1,.45-4A16.3,16.3,0,0,1,872.92,960.06Z"/><path class="cls-47" d="M874,957s0,13.08-1.39,20.24"/><path class="cls-47" d="M874,957a21.63,21.63,0,0,1,1.1,5.11,33.71,33.71,0,0,1,.11,5.12,29.55,29.55,0,0,1-.72,5.1,16.83,16.83,0,0,1-1.88,4.91,38.6,38.6,0,0,1-.46-5.15c-.05-1.68,0-3.35.06-5s.27-3.34.54-5A27.69,27.69,0,0,1,874,957Z"/><path class="cls-47" d="M874.49,957s0,13.07-1.39,20.23"/><path class="cls-47" d="M874.49,957a21.53,21.53,0,0,1,1.1,5.11,32.46,32.46,0,0,1,.1,5.12,28.59,28.59,0,0,1-.71,5.1,17.06,17.06,0,0,1-1.88,4.9,40.4,40.4,0,0,1-.47-5.14c0-1.68,0-3.36.07-5s.27-3.34.54-5A26.9,26.9,0,0,1,874.49,957Z"/><path class="cls-49" d="M876,961.85s-.1,15.12-1.1,16"/><path class="cls-49" d="M876,961.85a14.93,14.93,0,0,1,1.11,4,23,23,0,0,1,.2,4.06,21.45,21.45,0,0,1-.55,4,15.1,15.1,0,0,1-.64,2,9.85,9.85,0,0,1-.48,1,2.19,2.19,0,0,1-.74.86,10.62,10.62,0,0,0-.24-2c-.11-.67-.19-1.33-.25-2a29.54,29.54,0,0,1-.1-4,28.5,28.5,0,0,1,.45-4A16.53,16.53,0,0,1,876,961.85Z"/><path class="cls-47" d="M877,959.16s0,13.07-1.39,20.23"/><path class="cls-47" d="M877,959.16a21.53,21.53,0,0,1,1.1,5.11,32.41,32.41,0,0,1,.11,5.12,29.3,29.3,0,0,1-.72,5.09,16.83,16.83,0,0,1-1.88,4.91,38.61,38.61,0,0,1-.46-5.14c0-1.68,0-3.36.06-5a50.3,50.3,0,0,1,.54-5A27.49,27.49,0,0,1,877,959.16Z"/><path class="cls-48" d="M877.81,961.11s.82,15.19,2.56,17.2"/><path class="cls-48" d="M877.81,961.11a21,21,0,0,1,1.48,4.26,37.53,37.53,0,0,1,.73,4.28c.16,1.43.24,2.87.27,4.3,0,.72,0,1.44,0,2.16,0,.36,0,.73,0,1.08a5.4,5.4,0,0,0,.09,1.12,4.85,4.85,0,0,1-.49-.37,4.22,4.22,0,0,1-.38-.46,6.75,6.75,0,0,1-.64-1,13,13,0,0,1-.89-2.13A21,21,0,0,1,877,970a25.21,25.21,0,0,1-.1-4.43A16.39,16.39,0,0,1,877.81,961.11Z"/><path class="cls-49" d="M878.54,964s-.1,15.12-1.1,16"/><path class="cls-49" d="M878.54,964a14.84,14.84,0,0,1,1.11,4,22.91,22.91,0,0,1,.2,4.05,20,20,0,0,1-.55,4,13,13,0,0,1-.64,2c-.15.32-.29.66-.48,1a2.08,2.08,0,0,1-.74.85,9.86,9.86,0,0,0-.24-2c-.11-.67-.18-1.33-.25-2a31.28,31.28,0,0,1-.1-4,28.5,28.5,0,0,1,.45-4A17,17,0,0,1,878.54,964Z"/><path class="cls-47" d="M878.81,961.79s2.88,12.75,3.05,20.05"/><path class="cls-47" d="M878.81,961.79a20.93,20.93,0,0,1,2.18,4.75,31.74,31.74,0,0,1,1.22,5,29.08,29.08,0,0,1,.42,5.12,16.94,16.94,0,0,1-.77,5.2,40.61,40.61,0,0,1-1.58-4.92c-.41-1.63-.76-3.26-1-4.92a48.78,48.78,0,0,1-.57-5A26.65,26.65,0,0,1,878.81,961.79Z"/><path class="cls-48" d="M880,963.51s4.11,14.64,6.24,16.23"/><path class="cls-48" d="M880,963.51a20.54,20.54,0,0,1,2.37,3.84,36.53,36.53,0,0,1,1.65,4c.47,1.35.86,2.74,1.2,4.13.16.7.32,1.4.46,2.1.07.36.14.72.23,1.06a5.31,5.31,0,0,0,.33,1.08c-.18-.07-.35-.16-.55-.26s-.32-.24-.48-.36a8.41,8.41,0,0,1-.84-.85,13,13,0,0,1-1.33-1.87,20.57,20.57,0,0,1-1.85-4.06,23.59,23.59,0,0,1-1.06-4.29A16.34,16.34,0,0,1,880,963.51Z"/><path class="cls-49" d="M881.37,966.17S884.56,981,883.78,982"/><path class="cls-49" d="M881.37,966.17a15.24,15.24,0,0,1,2,3.71,22.57,22.57,0,0,1,1.08,3.92,20.4,20.4,0,0,1,.34,4.07,12.61,12.61,0,0,1-.19,2.1,10.8,10.8,0,0,1-.25,1.06,2.21,2.21,0,0,1-.53,1,10.05,10.05,0,0,0-.68-1.93c-.25-.63-.47-1.26-.68-1.9a28.78,28.78,0,0,1-1-3.87,26.47,26.47,0,0,1-.43-4A16.17,16.17,0,0,1,881.37,966.17Z"/><path class="cls-47" d="M882.28,964.85s3.2,12.67,3.54,20"/><path class="cls-47" d="M882.28,964.85a21.23,21.23,0,0,1,2.3,4.69,31.78,31.78,0,0,1,1.34,5,29,29,0,0,1,.54,5.11,17,17,0,0,1-.64,5.22,39.3,39.3,0,0,1-1.69-4.88c-.45-1.62-.85-3.25-1.15-4.89s-.55-3.32-.7-5A28.11,28.11,0,0,1,882.28,964.85Z"/><path class="cls-50" d="M811.36,931.48S884.83,952,888,973.88"/><path class="cls-46" d="M742.26,937.85s78.26-1.25,91.24-15.35"/><path class="cls-46" d="M848,930c-12.53,0-19.42-9.45-14.1-18.8"/><path class="cls-47" d="M869.7,953.55s13-1.06,20-3.11"/><path class="cls-47" d="M869.7,953.55a28.05,28.05,0,0,1,4.92-1.68c1.65-.41,3.3-.71,5-1s3.33-.39,5-.49a40.45,40.45,0,0,1,5.16,0,17,17,0,0,1-4.73,2.3,29,29,0,0,1-5,1.14,32.46,32.46,0,0,1-5.12.33A21.66,21.66,0,0,1,869.7,953.55Z"/><path class="cls-48" d="M871.71,954.19s15.21-.44,17.36,1.13"/><path class="cls-48" d="M871.71,954.19a16.56,16.56,0,0,1,4.37-1.23,25.18,25.18,0,0,1,4.42-.27,21.58,21.58,0,0,1,4.43.56,13,13,0,0,1,2.19.72,7.13,7.13,0,0,1,1.06.55,5.48,5.48,0,0,1,.49.35,5.19,5.19,0,0,1,.4.45,6,6,0,0,0-1.12,0c-.35,0-.72.06-1.08.1-.72.07-1.43.13-2.15.18-1.43.09-2.87.13-4.3.09a37.41,37.41,0,0,1-4.33-.38A20,20,0,0,1,871.71,954.19Z"/><path class="cls-49" d="M874.66,954.69s15.06-1.38,15.85-2.45"/><path class="cls-49" d="M874.66,954.69a16.48,16.48,0,0,1,3.87-1.57,28.63,28.63,0,0,1,3.94-.79,31.15,31.15,0,0,1,4-.24c.67,0,1.34,0,2,.08a9.93,9.93,0,0,0,2,.07,2.27,2.27,0,0,1-.79.81c-.31.21-.63.38-.94.56a13.62,13.62,0,0,1-1.95.81,20.58,20.58,0,0,1-4,.89,23,23,0,0,1-4.06.15A14.8,14.8,0,0,1,874.66,954.69Z"/><path class="cls-47" d="M871.67,956s13-1.07,20.05-3.11"/><path class="cls-47" d="M871.67,956a27.26,27.26,0,0,1,4.92-1.68,50.43,50.43,0,0,1,5-1c1.66-.24,3.33-.4,5-.49a38.69,38.69,0,0,1,5.16,0,16.68,16.68,0,0,1-4.73,2.29,29.07,29.07,0,0,1-5,1.15,33.7,33.7,0,0,1-5.12.33A21.66,21.66,0,0,1,871.67,956Z"/><path class="cls-48" d="M873.68,956.65s15.21-.45,17.37,1.13"/><path class="cls-48" d="M873.68,956.65a16.52,16.52,0,0,1,4.38-1.23,24.14,24.14,0,0,1,4.41-.27,20.91,20.91,0,0,1,4.43.56,12.7,12.7,0,0,1,2.19.71,8.31,8.31,0,0,1,1.06.56,5.48,5.48,0,0,1,.49.35,5.57,5.57,0,0,1,.41.45,5.33,5.33,0,0,0-1.13,0c-.35,0-.72.05-1.08.09-.72.08-1.43.13-2.15.19-1.43.09-2.86.13-4.3.09a37.41,37.41,0,0,1-4.33-.38A20.6,20.6,0,0,1,873.68,956.65Z"/><path class="cls-49" d="M876.63,957.15s15.06-1.38,15.85-2.46"/><path class="cls-49" d="M876.63,957.15a17,17,0,0,1,3.87-1.58,28.59,28.59,0,0,1,3.94-.78,29.43,29.43,0,0,1,4-.24c.67,0,1.34,0,2,.08a9.93,9.93,0,0,0,2,.06,2.22,2.22,0,0,1-.79.82c-.31.21-.63.38-.94.56a15.34,15.34,0,0,1-1.94.81,21.63,21.63,0,0,1-4,.89,23.94,23.94,0,0,1-4.06.14A14.78,14.78,0,0,1,876.63,957.15Z"/><path class="cls-47" d="M874.81,957.57s13-1.06,20.05-3.1"/><path class="cls-47" d="M874.81,957.57a27.46,27.46,0,0,1,4.92-1.67,50.24,50.24,0,0,1,4.95-1c1.66-.25,3.33-.4,5-.5a40.66,40.66,0,0,1,5.17,0,17,17,0,0,1-4.73,2.29,30.37,30.37,0,0,1-5,1.15,32.38,32.38,0,0,1-5.12.32A21.09,21.09,0,0,1,874.81,957.57Z"/><path class="cls-48" d="M876.82,958.22s15.2-.45,17.36,1.13"/><path class="cls-48" d="M876.82,958.22a16.76,16.76,0,0,1,4.37-1.24,25.18,25.18,0,0,1,4.42-.27,21.57,21.57,0,0,1,4.42.56,13.68,13.68,0,0,1,2.19.72,7.62,7.62,0,0,1,1.06.55,5.48,5.48,0,0,1,.49.35,4.24,4.24,0,0,1,.41.46,5.35,5.35,0,0,0-1.13,0c-.35,0-.72.06-1.08.1-.71.07-1.43.13-2.15.18-1.43.09-2.86.14-4.3.09a35.33,35.33,0,0,1-4.33-.38A20.33,20.33,0,0,1,876.82,958.22Z"/><path class="cls-49" d="M879.76,958.71s15.06-1.37,15.85-2.45"/><path class="cls-49" d="M879.76,958.71a17,17,0,0,1,3.88-1.57,27,27,0,0,1,3.93-.78,29.48,29.48,0,0,1,4-.24c.67,0,1.34,0,2,.07a9.27,9.27,0,0,0,2,.07,2.12,2.12,0,0,1-.79.81,7.51,7.51,0,0,1-.94.56,13.51,13.51,0,0,1-1.94.81,20.68,20.68,0,0,1-4,.89,22.92,22.92,0,0,1-4.06.15A14.87,14.87,0,0,1,879.76,958.71Z"/><path class="cls-47" d="M877.16,959.92s13-1.06,20.05-3.1"/><path class="cls-47" d="M877.16,959.92a27.46,27.46,0,0,1,4.92-1.67,50.24,50.24,0,0,1,4.95-1c1.66-.25,3.33-.4,5-.5a40.66,40.66,0,0,1,5.17,0,17.08,17.08,0,0,1-4.73,2.29,30.37,30.37,0,0,1-5,1.15,32.38,32.38,0,0,1-5.12.32A21.09,21.09,0,0,1,877.16,959.92Z"/><path class="cls-48" d="M879.17,960.57s15.2-.45,17.36,1.13"/><path class="cls-48" d="M879.17,960.57a16.76,16.76,0,0,1,4.37-1.24,25.18,25.18,0,0,1,4.42-.27,21.57,21.57,0,0,1,4.42.56,13.68,13.68,0,0,1,2.19.72,7.62,7.62,0,0,1,1.06.55,5.48,5.48,0,0,1,.49.35,4.24,4.24,0,0,1,.41.46,5.35,5.35,0,0,0-1.13,0c-.35,0-.72.06-1.08.1-.71.07-1.43.13-2.15.18-1.43.09-2.86.14-4.3.09a35.33,35.33,0,0,1-4.33-.38A20.33,20.33,0,0,1,879.17,960.57Z"/><path class="cls-49" d="M882.11,961.06s15.06-1.37,15.85-2.45"/><path class="cls-49" d="M882.11,961.06a17,17,0,0,1,3.88-1.57,27,27,0,0,1,3.93-.78,29.48,29.48,0,0,1,4-.24c.67,0,1.34,0,2,.07a9.27,9.27,0,0,0,2,.07,2.12,2.12,0,0,1-.79.81,7.51,7.51,0,0,1-.94.56,13.51,13.51,0,0,1-1.94.81,20.68,20.68,0,0,1-4,.89,22.92,22.92,0,0,1-4.06.15A14.87,14.87,0,0,1,882.11,961.06Z"/><path class="cls-47" d="M879.93,961.52s13,1.83,20.24,1.38"/><path class="cls-47" d="M879.93,961.52a28.06,28.06,0,0,1,5.17-.55,49.84,49.84,0,0,1,5,.15c1.67.13,3.33.35,5,.62a40.33,40.33,0,0,1,5,1.16,16.89,16.89,0,0,1-5.12,1.2,29.42,29.42,0,0,1-5.14,0,32.23,32.23,0,0,1-5.07-.8A21.52,21.52,0,0,1,879.93,961.52Z"/><path class="cls-48" d="M881.75,962.59s14.93,2.91,16.69,4.92"/><path class="cls-48" d="M881.75,962.59a17,17,0,0,1,4.54-.24,24.78,24.78,0,0,1,4.36.71,21.15,21.15,0,0,1,4.2,1.52,12.93,12.93,0,0,1,2,1.18,8.08,8.08,0,0,1,.91.77,5.6,5.6,0,0,1,.4.45c.11.19.22.36.3.53a6.89,6.89,0,0,0-1.1-.25c-.34-.06-.72-.1-1.07-.14l-2.14-.29c-1.42-.23-2.83-.51-4.22-.86a37.55,37.55,0,0,1-4.14-1.33A20.35,20.35,0,0,1,881.75,962.59Z"/><path class="cls-49" d="M884.51,963.72s15,2,16,1.1"/><path class="cls-49" d="M884.51,963.72a16.88,16.88,0,0,1,4.13-.68,29.72,29.72,0,0,1,4,.1,30.8,30.8,0,0,1,3.94.64c.65.16,1.3.33,1.95.52a9.7,9.7,0,0,0,2,.52,2.25,2.25,0,0,1-1,.62c-.34.14-.69.23-1,.34a13.94,13.94,0,0,1-2.08.36,20.7,20.7,0,0,1-4.09,0,23,23,0,0,1-4-.75A15.11,15.11,0,0,1,884.51,963.72Z"/><path class="cls-47" d="M883.27,964.76s12.9,2.15,20.2,1.88"/><path class="cls-47" d="M883.27,964.76a27.93,27.93,0,0,1,5.18-.43c1.7,0,3.37.11,5,.28s3.32.43,5,.75a38.81,38.81,0,0,1,5,1.28,17,17,0,0,1-5.15,1.07,30.38,30.38,0,0,1-5.14-.11,32,32,0,0,1-5-.94A21.1,21.1,0,0,1,883.27,964.76Z"/><path class="cls-48" d="M885.06,965.87s14.86,3.28,16.56,5.34"/><path class="cls-48" d="M885.06,965.87a16.53,16.53,0,0,1,4.54-.12,24.53,24.53,0,0,1,4.35.81,21,21,0,0,1,4.16,1.63,12.63,12.63,0,0,1,1.95,1.22,8.24,8.24,0,0,1,.89.8,4.49,4.49,0,0,1,.39.46,4,4,0,0,1,.28.54,5.15,5.15,0,0,0-1.09-.28c-.34-.07-.71-.12-1.07-.17l-2.13-.35c-1.41-.26-2.81-.57-4.19-1A38.39,38.39,0,0,1,889,968,20.31,20.31,0,0,1,885.06,965.87Z"/><path class="cls-49" d="M887.79,967.08s15,2.33,16,1.48"/><path class="cls-49" d="M887.79,967.08a16.4,16.4,0,0,1,4.15-.58,28.13,28.13,0,0,1,4,.19,31.1,31.1,0,0,1,3.92.74c.64.17,1.29.36,1.93.57a9.54,9.54,0,0,0,2,.56,2.2,2.2,0,0,1-1,.6,10.42,10.42,0,0,1-1,.31,12.6,12.6,0,0,1-2.08.31,19.93,19.93,0,0,1-4.09-.11,22,22,0,0,1-4-.85A15,15,0,0,1,887.79,967.08Z"/><path class="cls-47" d="M870.2,954.53s0,13.08-1.39,20.24"/><path class="cls-47" d="M870.2,954.53a21.12,21.12,0,0,1,1.09,5.11,32.56,32.56,0,0,1,.11,5.13,29.55,29.55,0,0,1-.71,5.09,17.12,17.12,0,0,1-1.88,4.91,40.39,40.39,0,0,1-.47-5.15c0-1.68,0-3.35.07-5s.27-3.34.53-5A27.74,27.74,0,0,1,870.2,954.53Z"/><path class="cls-48" d="M872.18,957.17s.83,15.19,2.56,17.21"/><path class="cls-48" d="M872.18,957.17a20.56,20.56,0,0,1,1.48,4.26,37.74,37.74,0,0,1,.74,4.29c.16,1.43.24,2.86.26,4.29q0,1.08,0,2.16c0,.36,0,.73,0,1.09a5.51,5.51,0,0,0,.09,1.12,4.78,4.78,0,0,1-.48-.37c-.15-.15-.26-.31-.39-.46a8.51,8.51,0,0,1-.64-1,12.9,12.9,0,0,1-.89-2.12,21.53,21.53,0,0,1-.92-4.37,24.17,24.17,0,0,1-.1-4.42A16.44,16.44,0,0,1,872.18,957.17Z"/><path class="cls-49" d="M872.92,960.06s-.11,15.12-1.1,16"/><path class="cls-49" d="M872.92,960.06a15.3,15.3,0,0,1,1.11,4.05,23,23,0,0,1,.19,4.06,20.64,20.64,0,0,1-.54,4,13.44,13.44,0,0,1-.65,2c-.15.33-.29.66-.47,1a2.2,2.2,0,0,1-.74.86,9.89,9.89,0,0,0-.25-2c-.1-.67-.18-1.33-.25-2a31.27,31.27,0,0,1-.09-4,25.8,25.8,0,0,1,.45-4A16.3,16.3,0,0,1,872.92,960.06Z"/><path class="cls-47" d="M874,957s0,13.08-1.39,20.24"/><path class="cls-47" d="M874,957a21.63,21.63,0,0,1,1.1,5.11,33.71,33.71,0,0,1,.11,5.12,29.55,29.55,0,0,1-.72,5.1,16.83,16.83,0,0,1-1.88,4.91,38.6,38.6,0,0,1-.46-5.15c-.05-1.68,0-3.35.06-5s.27-3.34.54-5A27.69,27.69,0,0,1,874,957Z"/><path class="cls-47" d="M874.49,957s0,13.07-1.39,20.23"/><path class="cls-47" d="M874.49,957a21.53,21.53,0,0,1,1.1,5.11,32.46,32.46,0,0,1,.1,5.12,28.59,28.59,0,0,1-.71,5.1,17.06,17.06,0,0,1-1.88,4.9,40.4,40.4,0,0,1-.47-5.14c0-1.68,0-3.36.07-5s.27-3.34.54-5A26.9,26.9,0,0,1,874.49,957Z"/><path class="cls-49" d="M876,961.85s-.1,15.12-1.1,16"/><path class="cls-49" d="M876,961.85a14.93,14.93,0,0,1,1.11,4,23,23,0,0,1,.2,4.06,21.45,21.45,0,0,1-.55,4,15.1,15.1,0,0,1-.64,2,9.85,9.85,0,0,1-.48,1,2.19,2.19,0,0,1-.74.86,10.62,10.62,0,0,0-.24-2c-.11-.67-.19-1.33-.25-2a29.54,29.54,0,0,1-.1-4,28.5,28.5,0,0,1,.45-4A16.53,16.53,0,0,1,876,961.85Z"/><path class="cls-47" d="M877,959.16s0,13.07-1.39,20.23"/><path class="cls-47" d="M877,959.16a21.53,21.53,0,0,1,1.1,5.11,32.41,32.41,0,0,1,.11,5.12,29.3,29.3,0,0,1-.72,5.09,16.83,16.83,0,0,1-1.88,4.91,38.61,38.61,0,0,1-.46-5.14c0-1.68,0-3.36.06-5a50.3,50.3,0,0,1,.54-5A27.49,27.49,0,0,1,877,959.16Z"/><path class="cls-48" d="M877.81,961.11s.82,15.19,2.56,17.2"/><path class="cls-48" d="M877.81,961.11a21,21,0,0,1,1.48,4.26,37.53,37.53,0,0,1,.73,4.28c.16,1.43.24,2.87.27,4.3,0,.72,0,1.44,0,2.16,0,.36,0,.73,0,1.08a5.4,5.4,0,0,0,.09,1.12,4.85,4.85,0,0,1-.49-.37,4.22,4.22,0,0,1-.38-.46,6.75,6.75,0,0,1-.64-1,13,13,0,0,1-.89-2.13A21,21,0,0,1,877,970a25.21,25.21,0,0,1-.1-4.43A16.39,16.39,0,0,1,877.81,961.11Z"/><path class="cls-49" d="M878.54,964s-.1,15.12-1.1,16"/><path class="cls-49" d="M878.54,964a14.84,14.84,0,0,1,1.11,4,22.91,22.91,0,0,1,.2,4.05,20,20,0,0,1-.55,4,13,13,0,0,1-.64,2c-.15.32-.29.66-.48,1a2.08,2.08,0,0,1-.74.85,9.86,9.86,0,0,0-.24-2c-.11-.67-.18-1.33-.25-2a31.28,31.28,0,0,1-.1-4,28.5,28.5,0,0,1,.45-4A17,17,0,0,1,878.54,964Z"/><path class="cls-47" d="M878.81,961.79s2.88,12.75,3.05,20.05"/><path class="cls-47" d="M878.81,961.79a20.93,20.93,0,0,1,2.18,4.75,31.74,31.74,0,0,1,1.22,5,29.08,29.08,0,0,1,.42,5.12,16.94,16.94,0,0,1-.77,5.2,40.61,40.61,0,0,1-1.58-4.92c-.41-1.63-.76-3.26-1-4.92a48.78,48.78,0,0,1-.57-5A26.65,26.65,0,0,1,878.81,961.79Z"/><path class="cls-48" d="M880,963.51s4.11,14.64,6.24,16.23"/><path class="cls-48" d="M880,963.51a20.54,20.54,0,0,1,2.37,3.84,36.53,36.53,0,0,1,1.65,4c.47,1.35.86,2.74,1.2,4.13.16.7.32,1.4.46,2.1.07.36.14.72.23,1.06a5.31,5.31,0,0,0,.33,1.08c-.18-.07-.35-.16-.55-.26s-.32-.24-.48-.36a8.41,8.41,0,0,1-.84-.85,13,13,0,0,1-1.33-1.87,20.57,20.57,0,0,1-1.85-4.06,23.59,23.59,0,0,1-1.06-4.29A16.34,16.34,0,0,1,880,963.51Z"/><path class="cls-49" d="M881.37,966.17S884.56,981,883.78,982"/><path class="cls-49" d="M881.37,966.17a15.24,15.24,0,0,1,2,3.71,22.57,22.57,0,0,1,1.08,3.92,20.4,20.4,0,0,1,.34,4.07,12.61,12.61,0,0,1-.19,2.1,10.8,10.8,0,0,1-.25,1.06,2.21,2.21,0,0,1-.53,1,10.05,10.05,0,0,0-.68-1.93c-.25-.63-.47-1.26-.68-1.9a28.78,28.78,0,0,1-1-3.87,26.47,26.47,0,0,1-.43-4A16.17,16.17,0,0,1,881.37,966.17Z"/><path class="cls-47" d="M882.28,964.85s3.2,12.67,3.54,20"/><path class="cls-47" d="M882.28,964.85a21.23,21.23,0,0,1,2.3,4.69,31.78,31.78,0,0,1,1.34,5,29,29,0,0,1,.54,5.11,17,17,0,0,1-.64,5.22,39.3,39.3,0,0,1-1.69-4.88c-.45-1.62-.85-3.25-1.15-4.89s-.55-3.32-.7-5A28.11,28.11,0,0,1,882.28,964.85Z"/><path class="cls-50" d="M811.36,931.48S884.83,952,888,973.88"/><path class="cls-51" d="M742.26,937.85s78.26-1.25,91.24-15.35"/><path class="cls-51" d="M848,930c-12.53,0-19.42-9.45-14.1-18.8"/><path class="cls-47" d="M869.7,953.55s13-1.06,20-3.11"/><path class="cls-47" d="M869.7,953.55a28.05,28.05,0,0,1,4.92-1.68c1.65-.41,3.3-.71,5-1s3.33-.39,5-.49a40.45,40.45,0,0,1,5.16,0,17,17,0,0,1-4.73,2.3,29,29,0,0,1-5,1.14,32.46,32.46,0,0,1-5.12.33A21.66,21.66,0,0,1,869.7,953.55Z"/><path class="cls-48" d="M871.71,954.19s15.21-.44,17.36,1.13"/><path class="cls-48" d="M871.71,954.19a16.56,16.56,0,0,1,4.37-1.23,25.18,25.18,0,0,1,4.42-.27,21.58,21.58,0,0,1,4.43.56,13,13,0,0,1,2.19.72,7.13,7.13,0,0,1,1.06.55,5.48,5.48,0,0,1,.49.35,5.19,5.19,0,0,1,.4.45,6,6,0,0,0-1.12,0c-.35,0-.72.06-1.08.1-.72.07-1.43.13-2.15.18-1.43.09-2.87.13-4.3.09a37.41,37.41,0,0,1-4.33-.38A20,20,0,0,1,871.71,954.19Z"/><path class="cls-49" d="M874.66,954.69s15.06-1.38,15.85-2.45"/><path class="cls-49" d="M874.66,954.69a16.48,16.48,0,0,1,3.87-1.57,28.63,28.63,0,0,1,3.94-.79,31.15,31.15,0,0,1,4-.24c.67,0,1.34,0,2,.08a9.93,9.93,0,0,0,2,.07,2.27,2.27,0,0,1-.79.81c-.31.21-.63.38-.94.56a13.62,13.62,0,0,1-1.95.81,20.58,20.58,0,0,1-4,.89,23,23,0,0,1-4.06.15A14.8,14.8,0,0,1,874.66,954.69Z"/><path class="cls-47" d="M871.67,956s13-1.07,20.05-3.11"/><path class="cls-47" d="M871.67,956a27.26,27.26,0,0,1,4.92-1.68,50.43,50.43,0,0,1,5-1c1.66-.24,3.33-.4,5-.49a38.69,38.69,0,0,1,5.16,0,16.68,16.68,0,0,1-4.73,2.29,29.07,29.07,0,0,1-5,1.15,33.7,33.7,0,0,1-5.12.33A21.66,21.66,0,0,1,871.67,956Z"/><path class="cls-48" d="M873.68,956.65s15.21-.45,17.37,1.13"/><path class="cls-48" d="M873.68,956.65a16.52,16.52,0,0,1,4.38-1.23,24.14,24.14,0,0,1,4.41-.27,20.91,20.91,0,0,1,4.43.56,12.7,12.7,0,0,1,2.19.71,8.31,8.31,0,0,1,1.06.56,5.48,5.48,0,0,1,.49.35,5.57,5.57,0,0,1,.41.45,5.33,5.33,0,0,0-1.13,0c-.35,0-.72.05-1.08.09-.72.08-1.43.13-2.15.19-1.43.09-2.86.13-4.3.09a37.41,37.41,0,0,1-4.33-.38A20.6,20.6,0,0,1,873.68,956.65Z"/><path class="cls-49" d="M876.63,957.15s15.06-1.38,15.85-2.46"/><path class="cls-49" d="M876.63,957.15a17,17,0,0,1,3.87-1.58,28.59,28.59,0,0,1,3.94-.78,29.43,29.43,0,0,1,4-.24c.67,0,1.34,0,2,.08a9.93,9.93,0,0,0,2,.06,2.22,2.22,0,0,1-.79.82c-.31.21-.63.38-.94.56a15.34,15.34,0,0,1-1.94.81,21.63,21.63,0,0,1-4,.89,23.94,23.94,0,0,1-4.06.14A14.78,14.78,0,0,1,876.63,957.15Z"/><path class="cls-47" d="M874.81,957.57s13-1.06,20.05-3.1"/><path class="cls-47" d="M874.81,957.57a27.46,27.46,0,0,1,4.92-1.67,50.24,50.24,0,0,1,4.95-1c1.66-.25,3.33-.4,5-.5a40.66,40.66,0,0,1,5.17,0,17,17,0,0,1-4.73,2.29,30.37,30.37,0,0,1-5,1.15,32.38,32.38,0,0,1-5.12.32A21.09,21.09,0,0,1,874.81,957.57Z"/><path class="cls-48" d="M876.82,958.22s15.2-.45,17.36,1.13"/><path class="cls-48" d="M876.82,958.22a16.76,16.76,0,0,1,4.37-1.24,25.18,25.18,0,0,1,4.42-.27,21.57,21.57,0,0,1,4.42.56,13.68,13.68,0,0,1,2.19.72,7.62,7.62,0,0,1,1.06.55,5.48,5.48,0,0,1,.49.35,4.24,4.24,0,0,1,.41.46,5.35,5.35,0,0,0-1.13,0c-.35,0-.72.06-1.08.1-.71.07-1.43.13-2.15.18-1.43.09-2.86.14-4.3.09a35.33,35.33,0,0,1-4.33-.38A20.33,20.33,0,0,1,876.82,958.22Z"/><path class="cls-49" d="M879.76,958.71s15.06-1.37,15.85-2.45"/><path class="cls-49" d="M879.76,958.71a17,17,0,0,1,3.88-1.57,27,27,0,0,1,3.93-.78,29.48,29.48,0,0,1,4-.24c.67,0,1.34,0,2,.07a9.27,9.27,0,0,0,2,.07,2.12,2.12,0,0,1-.79.81,7.51,7.51,0,0,1-.94.56,13.51,13.51,0,0,1-1.94.81,20.68,20.68,0,0,1-4,.89,22.92,22.92,0,0,1-4.06.15A14.87,14.87,0,0,1,879.76,958.71Z"/><path class="cls-47" d="M877.16,959.92s13-1.06,20.05-3.1"/><path class="cls-47" d="M877.16,959.92a27.46,27.46,0,0,1,4.92-1.67,50.24,50.24,0,0,1,4.95-1c1.66-.25,3.33-.4,5-.5a40.66,40.66,0,0,1,5.17,0,17.08,17.08,0,0,1-4.73,2.29,30.37,30.37,0,0,1-5,1.15,32.38,32.38,0,0,1-5.12.32A21.09,21.09,0,0,1,877.16,959.92Z"/><path class="cls-48" d="M879.17,960.57s15.2-.45,17.36,1.13"/><path class="cls-48" d="M879.17,960.57a16.76,16.76,0,0,1,4.37-1.24,25.18,25.18,0,0,1,4.42-.27,21.57,21.57,0,0,1,4.42.56,13.68,13.68,0,0,1,2.19.72,7.62,7.62,0,0,1,1.06.55,5.48,5.48,0,0,1,.49.35,4.24,4.24,0,0,1,.41.46,5.35,5.35,0,0,0-1.13,0c-.35,0-.72.06-1.08.1-.71.07-1.43.13-2.15.18-1.43.09-2.86.14-4.3.09a35.33,35.33,0,0,1-4.33-.38A20.33,20.33,0,0,1,879.17,960.57Z"/><path class="cls-49" d="M882.11,961.06s15.06-1.37,15.85-2.45"/><path class="cls-49" d="M882.11,961.06a17,17,0,0,1,3.88-1.57,27,27,0,0,1,3.93-.78,29.48,29.48,0,0,1,4-.24c.67,0,1.34,0,2,.07a9.27,9.27,0,0,0,2,.07,2.12,2.12,0,0,1-.79.81,7.51,7.51,0,0,1-.94.56,13.51,13.51,0,0,1-1.94.81,20.68,20.68,0,0,1-4,.89,22.92,22.92,0,0,1-4.06.15A14.87,14.87,0,0,1,882.11,961.06Z"/><path class="cls-47" d="M879.93,961.52s13,1.83,20.24,1.38"/><path class="cls-47" d="M879.93,961.52a28.06,28.06,0,0,1,5.17-.55,49.84,49.84,0,0,1,5,.15c1.67.13,3.33.35,5,.62a40.33,40.33,0,0,1,5,1.16,16.89,16.89,0,0,1-5.12,1.2,29.42,29.42,0,0,1-5.14,0,32.23,32.23,0,0,1-5.07-.8A21.52,21.52,0,0,1,879.93,961.52Z"/><path class="cls-48" d="M881.75,962.59s14.93,2.91,16.69,4.92"/><path class="cls-48" d="M881.75,962.59a17,17,0,0,1,4.54-.24,24.78,24.78,0,0,1,4.36.71,21.15,21.15,0,0,1,4.2,1.52,12.93,12.93,0,0,1,2,1.18,8.08,8.08,0,0,1,.91.77,5.6,5.6,0,0,1,.4.45c.11.19.22.36.3.53a6.89,6.89,0,0,0-1.1-.25c-.34-.06-.72-.1-1.07-.14l-2.14-.29c-1.42-.23-2.83-.51-4.22-.86a37.55,37.55,0,0,1-4.14-1.33A20.35,20.35,0,0,1,881.75,962.59Z"/><path class="cls-49" d="M884.51,963.72s15,2,16,1.1"/><path class="cls-49" d="M884.51,963.72a16.88,16.88,0,0,1,4.13-.68,29.72,29.72,0,0,1,4,.1,30.8,30.8,0,0,1,3.94.64c.65.16,1.3.33,1.95.52a9.7,9.7,0,0,0,2,.52,2.25,2.25,0,0,1-1,.62c-.34.14-.69.23-1,.34a13.94,13.94,0,0,1-2.08.36,20.7,20.7,0,0,1-4.09,0,23,23,0,0,1-4-.75A15.11,15.11,0,0,1,884.51,963.72Z"/><path class="cls-47" d="M883.27,964.76s12.9,2.15,20.2,1.88"/><path class="cls-47" d="M883.27,964.76a27.93,27.93,0,0,1,5.18-.43c1.7,0,3.37.11,5,.28s3.32.43,5,.75a38.81,38.81,0,0,1,5,1.28,17,17,0,0,1-5.15,1.07,30.38,30.38,0,0,1-5.14-.11,32,32,0,0,1-5-.94A21.1,21.1,0,0,1,883.27,964.76Z"/><path class="cls-48" d="M885.06,965.87s14.86,3.28,16.56,5.34"/><path class="cls-48" d="M885.06,965.87a16.53,16.53,0,0,1,4.54-.12,24.53,24.53,0,0,1,4.35.81,21,21,0,0,1,4.16,1.63,12.63,12.63,0,0,1,1.95,1.22,8.24,8.24,0,0,1,.89.8,4.49,4.49,0,0,1,.39.46,4,4,0,0,1,.28.54,5.15,5.15,0,0,0-1.09-.28c-.34-.07-.71-.12-1.07-.17l-2.13-.35c-1.41-.26-2.81-.57-4.19-1A38.39,38.39,0,0,1,889,968,20.31,20.31,0,0,1,885.06,965.87Z"/><path class="cls-49" d="M887.79,967.08s15,2.33,16,1.48"/><path class="cls-49" d="M887.79,967.08a16.4,16.4,0,0,1,4.15-.58,28.13,28.13,0,0,1,4,.19,31.1,31.1,0,0,1,3.92.74c.64.17,1.29.36,1.93.57a9.54,9.54,0,0,0,2,.56,2.2,2.2,0,0,1-1,.6,10.42,10.42,0,0,1-1,.31,12.6,12.6,0,0,1-2.08.31,19.93,19.93,0,0,1-4.09-.11,22,22,0,0,1-4-.85A15,15,0,0,1,887.79,967.08Z"/><path class="cls-47" d="M870.2,954.53s0,13.08-1.39,20.24"/><path class="cls-47" d="M870.2,954.53a21.12,21.12,0,0,1,1.09,5.11,32.56,32.56,0,0,1,.11,5.13,29.55,29.55,0,0,1-.71,5.09,17.12,17.12,0,0,1-1.88,4.91,40.39,40.39,0,0,1-.47-5.15c0-1.68,0-3.35.07-5s.27-3.34.53-5A27.74,27.74,0,0,1,870.2,954.53Z"/><path class="cls-48" d="M872.18,957.17s.83,15.19,2.56,17.21"/><path class="cls-48" d="M872.18,957.17a20.56,20.56,0,0,1,1.48,4.26,37.74,37.74,0,0,1,.74,4.29c.16,1.43.24,2.86.26,4.29q0,1.08,0,2.16c0,.36,0,.73,0,1.09a5.51,5.51,0,0,0,.09,1.12,4.78,4.78,0,0,1-.48-.37c-.15-.15-.26-.31-.39-.46a8.51,8.51,0,0,1-.64-1,12.9,12.9,0,0,1-.89-2.12,21.53,21.53,0,0,1-.92-4.37,24.17,24.17,0,0,1-.1-4.42A16.44,16.44,0,0,1,872.18,957.17Z"/><path class="cls-49" d="M872.92,960.06s-.11,15.12-1.1,16"/><path class="cls-49" d="M872.92,960.06a15.3,15.3,0,0,1,1.11,4.05,23,23,0,0,1,.19,4.06,20.64,20.64,0,0,1-.54,4,13.44,13.44,0,0,1-.65,2c-.15.33-.29.66-.47,1a2.2,2.2,0,0,1-.74.86,9.89,9.89,0,0,0-.25-2c-.1-.67-.18-1.33-.25-2a31.27,31.27,0,0,1-.09-4,25.8,25.8,0,0,1,.45-4A16.3,16.3,0,0,1,872.92,960.06Z"/><path class="cls-47" d="M874,957s0,13.08-1.39,20.24"/><path class="cls-47" d="M874,957a21.63,21.63,0,0,1,1.1,5.11,33.71,33.71,0,0,1,.11,5.12,29.55,29.55,0,0,1-.72,5.1,16.83,16.83,0,0,1-1.88,4.91,38.6,38.6,0,0,1-.46-5.15c-.05-1.68,0-3.35.06-5s.27-3.34.54-5A27.69,27.69,0,0,1,874,957Z"/><path class="cls-47" d="M874.49,957s0,13.07-1.39,20.23"/><path class="cls-47" d="M874.49,957a21.53,21.53,0,0,1,1.1,5.11,32.46,32.46,0,0,1,.1,5.12,28.59,28.59,0,0,1-.71,5.1,17.06,17.06,0,0,1-1.88,4.9,40.4,40.4,0,0,1-.47-5.14c0-1.68,0-3.36.07-5s.27-3.34.54-5A26.9,26.9,0,0,1,874.49,957Z"/><path class="cls-49" d="M876,961.85s-.1,15.12-1.1,16"/><path class="cls-49" d="M876,961.85a14.93,14.93,0,0,1,1.11,4,23,23,0,0,1,.2,4.06,21.45,21.45,0,0,1-.55,4,15.1,15.1,0,0,1-.64,2,9.85,9.85,0,0,1-.48,1,2.19,2.19,0,0,1-.74.86,10.62,10.62,0,0,0-.24-2c-.11-.67-.19-1.33-.25-2a29.54,29.54,0,0,1-.1-4,28.5,28.5,0,0,1,.45-4A16.53,16.53,0,0,1,876,961.85Z"/><path class="cls-47" d="M877,959.16s0,13.07-1.39,20.23"/><path class="cls-47" d="M877,959.16a21.53,21.53,0,0,1,1.1,5.11,32.41,32.41,0,0,1,.11,5.12,29.3,29.3,0,0,1-.72,5.09,16.83,16.83,0,0,1-1.88,4.91,38.61,38.61,0,0,1-.46-5.14c0-1.68,0-3.36.06-5a50.3,50.3,0,0,1,.54-5A27.49,27.49,0,0,1,877,959.16Z"/><path class="cls-48" d="M877.81,961.11s.82,15.19,2.56,17.2"/><path class="cls-48" d="M877.81,961.11a21,21,0,0,1,1.48,4.26,37.53,37.53,0,0,1,.73,4.28c.16,1.43.24,2.87.27,4.3,0,.72,0,1.44,0,2.16,0,.36,0,.73,0,1.08a5.4,5.4,0,0,0,.09,1.12,4.85,4.85,0,0,1-.49-.37,4.22,4.22,0,0,1-.38-.46,6.75,6.75,0,0,1-.64-1,13,13,0,0,1-.89-2.13A21,21,0,0,1,877,970a25.21,25.21,0,0,1-.1-4.43A16.39,16.39,0,0,1,877.81,961.11Z"/><path class="cls-49" d="M878.54,964s-.1,15.12-1.1,16"/><path class="cls-49" d="M878.54,964a14.84,14.84,0,0,1,1.11,4,22.91,22.91,0,0,1,.2,4.05,20,20,0,0,1-.55,4,13,13,0,0,1-.64,2c-.15.32-.29.66-.48,1a2.08,2.08,0,0,1-.74.85,9.86,9.86,0,0,0-.24-2c-.11-.67-.18-1.33-.25-2a31.28,31.28,0,0,1-.1-4,28.5,28.5,0,0,1,.45-4A17,17,0,0,1,878.54,964Z"/><path class="cls-47" d="M878.81,961.79s2.88,12.75,3.05,20.05"/><path class="cls-47" d="M878.81,961.79a20.93,20.93,0,0,1,2.18,4.75,31.74,31.74,0,0,1,1.22,5,29.08,29.08,0,0,1,.42,5.12,16.94,16.94,0,0,1-.77,5.2,40.61,40.61,0,0,1-1.58-4.92c-.41-1.63-.76-3.26-1-4.92a48.78,48.78,0,0,1-.57-5A26.65,26.65,0,0,1,878.81,961.79Z"/><path class="cls-48" d="M880,963.51s4.11,14.64,6.24,16.23"/><path class="cls-48" d="M880,963.51a20.54,20.54,0,0,1,2.37,3.84,36.53,36.53,0,0,1,1.65,4c.47,1.35.86,2.74,1.2,4.13.16.7.32,1.4.46,2.1.07.36.14.72.23,1.06a5.31,5.31,0,0,0,.33,1.08c-.18-.07-.35-.16-.55-.26s-.32-.24-.48-.36a8.41,8.41,0,0,1-.84-.85,13,13,0,0,1-1.33-1.87,20.57,20.57,0,0,1-1.85-4.06,23.59,23.59,0,0,1-1.06-4.29A16.34,16.34,0,0,1,880,963.51Z"/><path class="cls-49" d="M881.37,966.17S884.56,981,883.78,982"/><path class="cls-49" d="M881.37,966.17a15.24,15.24,0,0,1,2,3.71,22.57,22.57,0,0,1,1.08,3.92,20.4,20.4,0,0,1,.34,4.07,12.61,12.61,0,0,1-.19,2.1,10.8,10.8,0,0,1-.25,1.06,2.21,2.21,0,0,1-.53,1,10.05,10.05,0,0,0-.68-1.93c-.25-.63-.47-1.26-.68-1.9a28.78,28.78,0,0,1-1-3.87,26.47,26.47,0,0,1-.43-4A16.17,16.17,0,0,1,881.37,966.17Z"/><path class="cls-47" d="M882.28,964.85s3.2,12.67,3.54,20"/><path class="cls-47" d="M882.28,964.85a21.23,21.23,0,0,1,2.3,4.69,31.78,31.78,0,0,1,1.34,5,29,29,0,0,1,.54,5.11,17,17,0,0,1-.64,5.22,39.3,39.3,0,0,1-1.69-4.88c-.45-1.62-.85-3.25-1.15-4.89s-.55-3.32-.7-5A28.11,28.11,0,0,1,882.28,964.85Z"/><path class="cls-50" d="M811.36,931.48S884.83,952,888,973.88"/></g></svg>