<?xml version="1.0" encoding="UTF-8"?><svg id="Layer_1" xmlns="http://www.w3.org/2000/svg" viewBox="0 0 1500 1500"><defs><style>.cls-1,.cls-2,.cls-3{stroke-width:5px;}.cls-1,.cls-2,.cls-3,.cls-4,.cls-5,.cls-6,.cls-7,.cls-8,.cls-9,.cls-10,.cls-11,.cls-12,.cls-13,.cls-14,.cls-15,.cls-16,.cls-17,.cls-18,.cls-19,.cls-20,.cls-21,.cls-22,.cls-23,.cls-24,.cls-25,.cls-26,.cls-27,.cls-28{stroke:#000;}.cls-1,.cls-2,.cls-3,.cls-4,.cls-5,.cls-6,.cls-7,.cls-8,.cls-9,.cls-10,.cls-11,.cls-29,.cls-14,.cls-30,.cls-15,.cls-31,.cls-16,.cls-17,.cls-32,.cls-18,.cls-19,.cls-20,.cls-21,.cls-22,.cls-23,.cls-24,.cls-25,.cls-26,.cls-27{stroke-miterlimit:10;}.cls-1,.cls-33,.cls-31,.cls-23,.cls-25{fill:#fff;}.cls-2,.cls-22{fill:#823646;}.cls-3,.cls-30,.cls-15,.cls-21,.cls-24{fill:#939393;}.cls-4,.cls-5,.cls-6,.cls-14,.cls-19,.cls-20,.cls-27{fill:none;}.cls-4,.cls-5,.cls-12,.cls-29,.cls-22,.cls-23{stroke-linecap:round;}.cls-4,.cls-25{stroke-width:12px;}.cls-5,.cls-6,.cls-13,.cls-21,.cls-22,.cls-23,.cls-26{stroke-width:6px;}.cls-7,.cls-24{stroke-width:3px;}.cls-34{fill:#045ba3;}.cls-35{fill:#0075e7;}.cls-36,.cls-9,.cls-28{fill:#969696;}.cls-37,.cls-11,.cls-16{fill:#bfbfbf;}.cls-38,.cls-8{fill:#cfb8d1;}.cls-39,.cls-32{fill:#9b869d;}.cls-8,.cls-14{stroke-width:10px;}.cls-9,.cls-10,.cls-11,.cls-12,.cls-18,.cls-28{stroke-width:4px;}.cls-10,.cls-12,.cls-13,.cls-26{fill:#d1b333;}.cls-12,.cls-13,.cls-28{stroke-linejoin:round;}.cls-29{fill:#ffe7ff;stroke:#ffe7ff;}.cls-30{stroke:#939393;}.cls-31{stroke:#fff;}.cls-17{fill:#a0c4ff;}.cls-32{stroke:#9b869d;}.cls-19{stroke-width:11px;}.cls-20{stroke-width:13px;}.cls-27{stroke-width:9px;}</style></defs><rect class="cls-17" width="1500" height="1500"/><path class="cls-38" d="m842.06,884.95h149.94c49.49,0,89.66,40.18,89.66,89.66v201.26h-170.88c-54.84,0-99.36-44.52-99.36-99.36v-160.94c0-16.91,13.73-30.64,30.64-30.64Z" transform="translate(1976.96 83.88) rotate(90)"/><path class="cls-39" d="m878.02,946.77c68.72,9.67,143.3,57.65,152.06,131.43,2.43,19.77-.17,40.3-6.8,58.91,1.21-16.71,1.26-32.96-1.61-49.28-11.87-72.6-80.57-115-143.66-141.06h0Z"/><path class="cls-39" d="m896.38,916.72c77.92,11.14,162.84,70.12,162.15,155.96.01,9.88-1.25,19.8-3.53,29.38-.51-14-1.79-27.52-5.06-40.89-17.11-73.96-87.93-116.94-153.57-144.44h0Z"/><path class="cls-32" d="m947.31,902.53s108.53,23.38,128.57,138.58c0,0,11.65-105.12,0-111.87-31.72-18.37,30.5-25.88-128.57-26.72Z"/><path class="cls-32" d="m906.4,950.11c-5.01-16.7,13.36-20.04,18.37-18.37s8.35-8.35,8.35-8.35c0,0,1.15-10.55,17.53-14.19,15.03-3.34,21.71,1.67,21.71,1.67,0,0-50.41-20.87-65.12-3.34s-33.15,25.02-33.15,25.02l22.29,25.71,10.02-8.15Z"/><path class="cls-14" d="m842.88,885.48h149.94c49.49,0,89.66,40.18,89.66,89.66v201.26h-170.88c-54.84,0-99.36-44.52-99.36-99.36v-160.94c0-16.91,13.73-30.64,30.64-30.64Z" transform="translate(1978.3 83.59) rotate(90)"/><path class="cls-38" d="m590.83,978.5s-283.05,251.14-89.01,335.75c0,0,462.47,39.39,514.99-8.75,52.52-48.14,36.47-202.79-125.47-351.59-161.94-148.81-300.51,24.6-300.51,24.6Z"/><path class="cls-39" d="m440.56,1185.54s20.04-21.71,31.72,1.67c8.64,17.28,16.37,56.46,19.81,75.72.67,3.75-3.59,6.39-6.64,4.12-9.76-7.27-26.37-17.47-41.56-16.39-23.38,1.67-3.34-65.12-3.34-65.12Z"/><path class="cls-39" d="m500.67,1297.41s348.82,15.56,361.41,14.46c12.6-1.1-4.98,20.58-27.08,18.92s-328.69-14.73-333.18-16.54c-4.49-1.81-1.15-16.84-1.15-16.84Z"/><path class="cls-39" d="m801.21,950.11s160.29,126.9,180.33,347.3c0,0,47.39,37.56,62.1-48.01,0,0,23.16-144.89-169.74-312.25-192.9-167.36,0,0,0,0l-72.68,12.96Z"/><path class="cls-39" d="m635.08,947.61s30.05,1.67,41.74,28.38c11.69,26.72,106.86,51.76,151.94,26.72,45.08-25.05,63.45-11.69,63.45-11.69l-41.74-43.41-215.39-12.9v12.9Z"/><path class="cls-20" d="m592.01,979.28s-283.05,251.14-89.01,335.75c0,0,462.47,39.39,514.99-8.75,52.52-48.14,36.47-202.79-125.47-351.59-161.94-148.81-300.51,24.6-300.51,24.6Z"/><path class="cls-38" d="m516.47,1315.8c-4.41-8.17-122.13-1.44-170.26,11.48-48.13,12.92-47.4-24.4-47.4-24.4l-11.5-68.13s-13.59-53.67,20.2-58.56c33.79-4.89,36.71,43.68,41.2,69.22,4.5,25.54,36.55,16.45,36.55,16.45l87.02-12.86"/><path class="cls-39" d="m352.06,1319.11s78.28-34.26,157.69-21.3l3.64,16.33-161.33,4.97Z"/><path class="cls-39" d="m332.03,1193.89s-10.02-33.39-11.69-11.69c0,0,8.35,71.8,23.38,88.49,17.01,18.9,80.15-8.35,80.15-8.35,0,0-65.12,5.01-70.13-3.34-5.01-8.35-21.71-65.12-21.71-65.12Z"/><path class="cls-4" d="m468.94,1250.66l-84.17,11.98s-32.06,9.09-36.55-16.45c-4.5-25.54-7.41-74.11-41.2-69.22-33.79,4.89-20.2,58.56-20.2,58.56l11.5,68.13s-.72,37.32,47.4,24.4c48.13-12.92,165.84-19.65,170.26-11.48"/><path class="cls-38" d="m843.14,1326.95s73.64,12.27,90.82,24.55c17.18,12.27,68.73,0,66.28-12.27s49.09-166.92-51.55-120.28c0,0-27,29.46-22.09,73.64"/><path class="cls-29" d="m923.93,1288.23s12.39-66.24,24.14-66.1c6.33.08,39.3-9.04,27.62-4.03-7.12,3.05-18.17,36.53-20.87,49.26-3.95,18.64-3.28,39.31-7.51,42.58-4.23,3.27-13.36-10.85-23.38-21.71Z"/><path class="cls-39" d="m958.16,1352.51c4.02,1,2.35-19.12,2.72-23.24l7.3-80.28s11.35-56.11,38.4-13.36c1.2,1.9.32-5.53.77-3.33,2.62,12.76,9.63,60.03-17.46,108.52,0,0-11,27.4-93.99-2.16,0,0-44.59-2.85-44.59-16.21,0-4.73,11.69-10.02,11.69-10.02,0,0,49.84,2.37,53.43,8.35,5.01,8.35,4.47,12.59,20.04,16.7,9.04,2.38,8.35,11.69,21.71,15.03Z"/><path class="cls-4" d="m847.96,1329.13s68.43,9.7,85.61,21.97c17.18,12.27,61.74-.61,66.28-12.27,5.07-13.04,40.34-140.5-28.14-128.19-16.13,2.9-29.59,13.86-36.55,28.7-6.03,12.86-11.37,31.07-8.95,52.85"/><path class="cls-38" d="m1165.11,553.12c-.93,16.57-3.22,32.77-6.65,48.55-30.24,138.25-142.96,231.94-226.15,290.43-33.38,23.44-62.03,41.26-78.67,53.98-4.39,3.36-7.95,6.36-10.56,9.03-41.53,42.71-84.22,41.85-117.23,29.55-13.82-5.15-25.95-12.32-35.57-19.1-5.62-3.98-10.38-7.81-14.16-11.07-6.97-6.01-15.02-10.68-23.79-13.62-50.76-17.16-224.92-85.47-275.07-229.66-18.34-52.75-25.28-98.65-26.12-136.85-.29-15,.32-28.84,1.52-41.41,7.09-37.73,29.6-72.83,63.8-103.05,72.76-64.36,198.43-106.88,341.27-106.88,45.61,0,89.45,4.34,130.39,12.32,158.18,30.88,272.86,116.4,276.98,217.75Z"/><path class="cls-39" d="m801.89,324.42s610.42,204.93-25.73,652.4c0,0-36.64,3.64-17.49,15.18,19.16,11.54,87.1-39.47,87.1-39.47,0,0,195.52-136.58,199.03-153.82,3.51-17.24,193.86-169.18,85.33-339.49,0,0-133.88-137.69-328.25-134.8Z"/><path class="cls-38" d="m626.39,1045.71s0,160.29-5.71,197.02c-5.71,36.73-17.13-6.68-17.13-6.68,0,0-16.18,73.47-29.51,6.68-13.32-66.79,17.13-197.02,17.13-197.02,0,0-8.81-14.12-19.82,10.93"/><path d="m626.39,1045.71c1.4,39.8,1.84,79.63,1.48,119.45-.41,24.95-.5,49.98-3.13,74.91-.4,3.89-.99,7.71-2.01,11.53-.98,3.21-1.83,6.51-4.91,8.72-2.53,1.85-6.23.91-8.09-1.07-2.4-2.38-3.48-4.74-4.82-7.5-2.19-4.88-3.75-9.66-5.15-14.69l7.61-.15c-1.3,5.71-2.81,11.19-4.67,16.73-2.07,5.8-3.97,11.26-7.86,16.43-2.67,3.69-7.92,6.48-12.46,3.32-7.49-5.26-10.21-21.21-12.13-29.77-5.81-32.4-2.93-65.68.89-98.12,4.28-33.69,10.74-67.09,19.1-99.99,0,0,.12.73.12.73-1.12-1.77-2.97-3.39-5.05-3.69-6.7-.47-11.27,9-13.95,14.11.9-2.23,1.88-4.43,3.03-6.56,3.72-7.31,10.99-13.5,17.6-4.88,0,0,.21.29.21.29l-.09.44c-2.15,11.06-4.15,22.16-5.95,33.29-7.31,46.99-14.07,94.74-10.99,142.37.65,8.22,1.73,16.51,3.58,24.55,1.21,5.37,2.63,10.74,4.65,15.47.75,1.75,2.03,4.2,3.32,5.11.19.14.19.08.11.08-.08-.02-.14.04.03-.04.33-.16,1.08-.78,1.74-1.66,2.92-3.91,4.94-9.25,6.63-14.03,3.17-8.8,5.85-21.76,8.04-30.96,0,0,4.08,14.96,4.08,14.96,1.24,4.55,2.76,9.27,4.63,13.47.78,1.72,1.88,3.92,3.04,5.09.19.2.33.2-.04.07-.16-.03-.49-.1-.77-.02-.28.03-.51.17-.59.22-.17.13,0,0,.17-.25,1.74-3.07,2.44-7.28,3.12-10.96.92-6.02,1.48-12.07,2.01-18.22.72-8.54,1.34-20.99,1.82-29.68,2.26-45.57,3.89-103.16,5.66-149.08h0Z"/><path class="cls-38" d="m873.94,1050.26c-15.15-25.05-27.28-10.93-27.28-10.93,0,0,41.93,130.24,23.58,197.02-18.34,66.79-40.62-6.68-40.62-6.68,0,0-15.72,43.41-23.58,6.68-7.86-36.73-7.86-197.02-7.86-197.02"/><path d="m873.94,1050.26c-5.46-8.62-16.77-20.13-26.34-10.12,0,0,.24-1.19.24-1.19,11.29,33.1,20.13,67.06,25.92,101.58,4.44,27.52,7.3,55.75,3.46,83.59-.27,1.36-.91,5.31-1.17,6.66-.32,1.51-1.23,5.09-1.57,6.62-2.88,9.74-6.46,23.18-15.19,29.4-15.94,9.38-26.37-15.94-30.91-27.31-1.07-2.82-2.05-5.57-2.97-8.54l8.34.22c-.97,2.58-1.98,4.92-3.11,7.34-2.89,5.74-5.85,12.03-11.58,15.64-7.63,4.23-13.07-2.71-15.09-9.33-1.72-4.48-2.51-10.94-3.28-15.63-3.67-32.95-3.79-65.85-4.05-98.85-.1-30.34.36-60.69,1.53-91.01.84,20.4,2.95,71.24,3.8,90.88,1.32,27.44,2.74,59.54,5.43,86.74.65,5.73,1.53,12.6,2.65,18.29.75,3.39,1.62,6.7,3.16,9.66.5.93,1.09,1.7,1.48,1.93-.06-.03-.23-.04-.24-.03-.02,0,.11-.02.33-.15.22-.13.52-.35.82-.62,7.1-7.36,10.51-20.3,14.33-29.73,0,0,3.88,12.11,3.88,12.11,3.15,9.27,8.95,25.39,17.02,30.92,4.19,2.73,8.03-5.3,9.66-8.54,12.63-28.46,11.19-61.61,8.33-92.05-4.18-40.24-12.75-80.01-23.36-119.03,0,0-.2-.73-.2-.73,1.27-1.35,2.73-2.47,4.32-3.21,10.83-5.16,19.79,5.98,24.34,14.5h0Z"/><path class="cls-20" d="m1165.7,552.53c-.93,16.57-3.22,32.77-6.65,48.55-30.24,138.25-142.96,231.94-226.15,290.43-33.38,23.44-62.03,41.26-78.67,53.98-4.39,3.36-7.95,6.36-10.56,9.03-41.53,42.71-84.22,41.85-117.23,29.55-13.82-5.15-25.95-12.32-35.57-19.1-5.62-3.98-10.38-7.81-14.16-11.07-6.97-6.01-15.02-10.68-23.79-13.62-50.76-17.16-224.92-85.47-275.07-229.66-18.34-52.75-25.28-98.65-26.12-136.85-.29-15,.32-28.84,1.52-41.41,7.09-37.73,29.6-72.83,63.8-103.05,72.76-64.36,198.43-106.88,341.27-106.88,45.61,0,89.45,4.34,130.39,12.32,158.18,30.88,272.86,116.4,276.98,217.75Z"/><circle class="cls-25" cx="503.57" cy="730.12" r="165.83"/><circle class="cls-25" cx="951.52" cy="719.76" r="160.27"/><ellipse class="cls-35" cx="527.75" cy="730.01" rx="125.2" ry="132.88" transform="translate(-223.03 1227.75) rotate(-87.68)"/><ellipse class="cls-35" cx="928.23" cy="717.75" rx="121" ry="128.43" transform="translate(173.45 1616.14) rotate(-87.68)"/><ellipse class="cls-34" cx="544.21" cy="730.82" rx="109.68" ry="116.41" transform="translate(-208.06 1244.97) rotate(-87.68)"/><ellipse class="cls-34" cx="912.34" cy="716.73" rx="106" ry="112.51" transform="translate(159.22 1599.28) rotate(-87.68)"/><circle cx="562.91" cy="730.33" r="99.94"/><circle cx="896.37" cy="717.52" r="96.59"/><path d="m412.11,531.45c34.1-34.65,87.54-50.83,134.74-37.23,18.34,5.13,35.55,14.4,50.05,26.3-25.49-13.64-52.86-23.1-81.76-23.18-36.77-.37-72.91,13.39-103.03,34.11h0Z"/><circle class="cls-31" cx="603.95" cy="681.98" r="31.19"/><circle class="cls-31" cx="994.21" cy="688.56" r="30.78"/><ellipse class="cls-31" cx="468.58" cy="787.86" rx="10.79" ry="31.85" transform="translate(-337.62 1224.13) rotate(-87.68)"/><ellipse class="cls-31" cx="872.14" cy="783.46" rx="10.43" ry="30.78" transform="translate(53.98 1623.14) rotate(-87.68)"/><path d="m1038.29,525.49c-27.88-18.47-61.29-31.1-94.95-29.76-34.12,1.23-64.7,18.58-90.23,40.71,10.71-13.53,24.02-25.22,39.29-34,47.37-27.65,107.78-14.13,145.89,23.05h0Z"/><path class="cls-7" d="m699.5,868.23c4.2,0,14.34,11.94,14.34,11.94l68.89.74,17.37-9.81"/><path class="cls-2" d="m807.55,921.95c0,4.27-3.63,8.24-9.86,11.57h-.02c-11.02,5.92-30.27,9.83-52.17,9.83-34.26,0-62.05-9.57-62.05-21.39-9.73-21.39,41.37-48.13,41.37-48.13h58.4s-4.68,14.45,12.68,35.66c6.12,7.68,11.66,7.81,11.66,12.47Z"/><path class="cls-14" d="m688.32,862.98s38.93,23.48,116.8,7.22"/><path class="cls-5" d="m824.59,879.23s-26.77-5.42-24.33-16.25"/><path class="cls-23" d="m681.02,866.59s14.6-3.61,9.73-9.03"/><path class="cls-22" d="m744.89,875.93s-17.63,35.8-.6,43.03"/><path class="cls-16" d="m1143.63,470.8v.02s-3.67-1.85-10.7-4.99c-9.93-4.41-26.56-11.39-49.02-19.28t-.03-.02c-6.11-3.66-12.54-7.38-19.29-11.12-.32,1.39-.63,2.82-.95,4.31-11.3-3.66-23.71-7.4-37.12-11.09.67-4.12,1.34-8.05,2-11.74-8.05-3.82-16.4-7.63-25.06-11.34-.75,5.06-1.5,10.57-2.25,16.46-8.5-2.1-17.33-4.14-26.46-6.13.78-7.7,1.5-14.78,2.15-21.1-10.52-4.01-21.39-7.86-32.61-11.5-.9,7.65-1.9,16.36-2.96,25.98-13.57-2.44-27.7-4.69-42.36-6.66.94-11.64,1.97-22.31,3.14-31.59-16.48-4.21-33.53-7.91-51.11-10.95l-1,37.15c-19.02-1.6-38.75-2.72-59.11-3.19.87-16,1.69-30.02,2.37-41.26-17.78-1.42-35.98-2.09-54.52-1.89l.57,43.28c-7.85.23-15.76.57-23.76,1l-1.32-43.53c-20.02,1.04-40.41,3.11-61.11,6.38-.23,11.57.08,26.06.8,42.49-15.54,1.84-31.32,4.11-47.3,6.83.55-15.83,1.17-29.62,1.7-40.49-17.4,4.14-34.96,9.17-52.7,15.16-.18,10.05-.38,22.12-.53,35.56-15.31,3.47-30.79,7.4-46.42,11.77.55-11.07,1.39-21.31,2.55-30.37-16.5,7.01-33.09,14.91-49.74,23.76.1,6.09.25,13.16.43,21-12.02,4.01-24.09,8.32-36.25,12.92.15-4.93.43-9.62.83-14.01-11.17,6.78-22.36,14.03-33.56,21.74-.1,1.75-.17,3.57-.22,5.44-5.83,2.44-11.67,4.96-17.53,7.56l-.05.02c-15.38,6.81-30.86,14.11-46.4,21.94h-.02s117.35-198.28,352.27-218.35h.02c.8.22,52.26,14.41,59.86,56.47h.05c182.85.18,337.34,80.98,402.7,133.34Z"/><path class="cls-16" d="m1154.52,481.75c-3.34-5.66-6.93-10.94-10.8-15.61.68.75,5.34,6.04,10.8,15.61Z"/><path class="cls-16" d="m1208.27,761.37c-.37.55-.57.83-.57.83l-126.9,60.11c40.07-30.05,41.74-105.19,41.74-105.19l21.71-50.09c47.77-91.98,26.88-155.21,11.12-183.77,23.88,41.48,33.96,101.95,33.96,101.95,0,0-18.37,8.93-27.55,51.21-9.18,42.29,51.04,52.13,51.04,52.13-2.15,5.01-4.21,10.47-6.04,16.25-9.1,28.55-9.7,53.86-1.35,56.52.88.28,1.84.3,2.84.05Z"/><path class="cls-16" d="m1244.41,672.43c-.03.9-.1,1.8-.17,2.72,0-.9-.02-1.77-.03-2.6l.2-.12Z"/><path class="cls-24" d="m375.2,477.38c15.2,12.97-29.46,9.62-22.38,167.95,0,0-45.08,71.8-6.68,156.95,0,0,40.07,63.45,68.46,73.47s-138.58-66.79-138.58-66.79c0,0-43.41-75.14,0-120.22l45.08-46.75s-3.34-123.56,8.35-141.92"/><path class="cls-16" d="m1175.97,505.08c-2.77-6.48-10.89-15.86-23.61-26.97l-.02-.02-.02-.02c-.03-.05-.07-.07-.12-.1,0-.02-.02-.02-.02-.02-2.65-2.32-5.51-4.71-8.57-7.15v-.02c-65.35-52.36-219.85-133.16-402.7-133.34h-.05c-130.29-.13-275,40.69-412.13,161.88h-.02c-8.15,7.2-16.26,14.68-24.34,22.44-3.36,3.22-12.47,81.05-.33,137.88,3.59,16.8,9.03,31.77,17.03,42.44,0,0,4.42-1.49,12.71-4.04,81.16-25.06,532.06-153.38,796.66.82,1.82,1.05,3.64,2.14,5.44,3.22,0,0,13.52-28.79,25.88-65.67,0-.02,0-.03.02-.05,2.62-7.86,5.21-16.1,7.6-24.49.02-.02.02-.03.02-.05,5.86-20.67,10.54-42.36,11.89-62.05v-.03c1.19-17.03-.13-32.58-5.33-44.68Zm-835.08,166.55c-8.92,4.17-13.77,6.7-13.77,6.7-4.86-3.54-8.2-15.7-10.49-31.71v-.02c-6.34-44.5-4.54-118.55-4.54-118.55,4.22-3.77,8.45-7.46,12.67-11.07,1.55-1.34,3.11-2.65,4.66-3.97.03,2.47,1.19,95.41,14.61,150.32.52,2.1,1.05,4.14,1.6,6.11-1.69.77-3.27,1.5-4.74,2.19Zm29.6-13.02c-3.62-18.38-10.97-57.4-16.06-95.82-3.16-23.91-5.44-47.57-5.41-65.89,6.48-5.16,12.96-10.15,19.44-15.01.32,5.18.73,11.47,1.32,18.77,2.65,33.98,8.52,89.25,21.07,149.77-7.33,2.84-14.14,5.58-20.35,8.18Zm42.41-16.43c-8.8-48.17-21.39-126.16-20.17-172.36.05-1.87.12-3.69.22-5.44,11.2-7.71,22.39-14.96,33.56-21.74-.4,4.39-.68,9.08-.83,14.01-1.74,51.03,8.52,127.38,16.1,175.72-10.14,3.27-19.79,6.56-28.87,9.82Zm59.83-19.12c-6.85-54.18-9.67-131.17-10.8-179.34-.18-7.85-.33-14.91-.43-21,16.65-8.85,33.24-16.75,49.74-23.76-1.17,9.07-2,19.3-2.55,30.37-2.74,54.3,1.05,128.65,4.89,183.4-14.11,3.17-27.77,6.66-40.84,10.34Zm134.89-24.88c-16.88,1.34-33.54,3.39-49.82,6.01-3.34-58.16-3.32-133.29-2.7-186.64.15-13.44.35-25.51.53-35.56,17.73-5.99,35.3-11.02,52.7-15.16-.53,10.87-1.15,24.66-1.7,40.49-1.82,52.21-3.01,126.51,1.24,190.85-.08,0-.15.02-.23.02Zm61.66-4.27c-6.09-61.34-12.97-138.28-15.36-193.42-.72-16.43-1.04-30.92-.8-42.49,20.7-3.27,41.09-5.34,61.11-6.38l1.32,43.53,5.96,196.29c-18.02.63-35.51,1.49-52.23,2.47Zm114.62-3.64c-14.19,0-28.23.2-42.06.55l-2.54-196.67-.57-43.28c18.53-.2,36.73.47,54.52,1.89-.68,11.24-1.5,25.26-2.37,41.26-2.96,54.1-6.46,130.55-6.98,196.26Zm108.36,4.29c-15.7-1.35-31.57-2.35-47.47-3.04l5.19-194.32,1-37.15c17.58,3.04,34.63,6.75,51.11,10.95-1.17,9.28-2.2,19.95-3.14,31.59-4.36,55.43-6.06,133.22-6.7,191.96Zm64.9,8.11c-10.49-1.75-21.14-3.31-31.94-4.64,4.09-72.08,10.87-141.37,16.1-188.78,1.05-9.62,2.05-18.33,2.96-25.98,11.22,3.64,22.09,7.5,32.61,11.5-.65,6.33-1.37,13.41-2.15,21.1-4.81,47.59-11.82,119.07-17.57,186.79Zm47.87,10.07c-6.71-1.74-13.56-3.34-20.52-4.84,3.92-54.7,10.2-134.63,16.68-185.89.75-5.89,1.5-11.4,2.25-16.46,8.67,3.71,17.01,7.51,25.06,11.34-.67,3.69-1.34,7.61-2,11.74-8.21,50.78-16.53,131.92-21.47,184.12Zm24.64,7.06c9.22-64.97,24.9-139.35,33.94-180.09.32-1.49.63-2.92.95-4.31,6.75,3.74,13.17,7.46,19.29,11.12t.03.02c2.02,1.22,4.01,2.44,5.96,3.64-8.25,33.09-26.72,111.3-34.8,178.76-8.16-3.29-16.63-6.33-25.38-9.13Zm40.41,15.68c7.86-46.58,24.09-139.99,32.49-177.22,5.86,3.82,11.32,7.56,16.33,11.14-7.51,33.68-25.33,115.81-33.83,173.7-4.84-2.67-9.83-5.21-14.99-7.61Zm55.8,36.92c-6.11-5.84-12.79-11.29-19.97-16.33,6.28-45.68,19.5-137.35,29.34-174.32,7.31,13.31,11.29,20.35,13.99,25,.52.9,3.34,11.69,6.68,20.04-6.86,29-17.2,73.32-30.04,145.61Z"/><path class="cls-15" d="m1083.87,446.52c-6.29-2.2-13.04-4.47-20.24-6.81.32-1.49.63-2.92.95-4.31,6.75,3.74,13.17,7.46,19.29,11.12Z"/><path class="cls-21" d="m715.56,394.85c-20.09,1.14-40.64,2.98-61.63,5.63-.72-17.32-1.04-32.6-.8-44.8,20.7-3.45,41.09-5.63,61.11-6.72l1.32,45.89Z"/><path class="cls-21" d="m608.33,366.83c-.53,10.87-1.15,24.66-1.7,40.49-16.95,2.89-34.13,6.28-51.53,10.24.15-13.44.35-25.51.53-35.56,17.73-5.99,35.3-11.02,52.7-15.16Z"/><path class="cls-21" d="m426.52,442.63c-.4,4.39-.68,9.08-.83,14.01-10.92,4.14-21.91,8.53-32.94,13.17.05-1.87.12-3.69.22-5.44,11.2-7.71,22.39-14.96,33.56-21.74Z"/><path class="cls-15" d="m1244.25,675.15c-.07,10.37-2.49,24.38-7.25,39.27-8.13,25.53-20.29,45.01-28.74,46.95-1,.25-1.95.23-2.84-.05-8.35-2.65-7.75-27.97,1.35-56.52,1.84-5.78,3.89-11.24,6.04-16.25,8.53-19.84,18.87-32.78,25.53-30.66,3.62,1.15,5.56,6.55,5.86,14.64.02.83.03,1.7.03,2.6Z"/><path class="cls-30" d="m1244.41,672.43l-.2.12c-.3-8.1-2.24-13.49-5.86-14.64-6.66-2.12-17,10.82-25.53,30.66,0,0-60.23-9.83-51.04-52.13,9.18-42.28,27.55-51.21,27.55-51.21l51.76,65.12c2.77,6.65,3.71,14.18,3.32,22.09Z"/><path class="cls-30" d="m1143.63,470.8c-65.35-52.36-219.85-133.16-402.7-133.34h-.05c-7.6-42.06-59.06-56.25-59.86-56.47,17.92-1.54,36.53-2.04,55.82-1.32,272.14,10.02,352.71,96.78,406.79,191.13Z"/><path class="cls-19" d="m1142.42,468.62c-65.35-52.36-219.85-133.16-402.7-133.34h-.05c-130.29-.13-275,40.69-412.13,161.88h-.02s117.35-198.28,352.27-218.35h.02c17.92-1.54,36.53-2.04,55.82-1.32,272.14,10.02,352.71,96.78,406.79,191.13Z"/><path class="cls-6" d="m1153.31,479.57c-.75-1.29-1.52-2.54-2.3-3.77,0-.02-.02-.02-.02-.02-2.62-4.16-7.99-6.39-10.91-9.94.88,1,6.85,3.26,11.04,10.06l.03.03c.7,1.14,1.42,2.35,2.15,3.64Z"/><path class="cls-27" d="m1243.2,670.25l-.2.12c-.3-8.1-2.24-13.49-5.86-14.64-6.66-2.12-17,10.82-25.53,30.66-2.15,5.01-4.21,10.47-6.04,16.25-9.1,28.55-9.7,53.86-1.35,56.52.88.28,1.84.3,2.84.05-.37.55-.57.83-.57.83l-117.94,55.89c-2.22.98-.68-7.29.96-9.08,30.4-33.23,31.82-91.89,31.82-91.89l7.91-18.25c1.82,1.05,3.64,2.14,5.44,3.22,0,0,13.52-28.79,25.88-65.67,0-.02,0-.03.02-.05,2.62-7.86,5.21-16.1,7.6-24.49.02-.02.02-.03.02-.05,5.86-20.67,10.54-42.36,11.89-62.05,5.51,20.3,8.03,35.43,8.03,35.43l51.76,65.12c2.77,6.65,3.71,14.18,3.32,22.09Z"/><path class="cls-16" d="m1243.2,670.25c-.03.9-.1,1.8-.17,2.72,0-.9-.02-1.77-.03-2.6l.2-.12Z"/><path class="cls-14" d="m302.85,657.48l-28.05,28.45c-43.41,44.09,0,117.57,0,117.57,0,0,76.95,43.3,115.59,63.37,18.37,6.53,35.06,4.97,24.67,8.56-5.26,1.81-14.19-7.29-19.82-12.26-24.81-21.73-50.31-66.2-50.31-66.2-17.85-38.72-17.67-74.59-12.34-101.93"/><path class="cls-14" d="m1174.76,502.9c-2.77-6.48-10.89-15.86-23.61-26.97.7,1.14,1.42,2.35,2.15,3.64-.75-1.29-1.52-2.54-2.3-3.77,0-.02-.02-.02-.02-.02-2.65-2.32-5.51-4.71-8.57-7.15v-.02c-65.35-52.36-219.85-133.16-402.7-133.34h-.05c-130.29-.13-275,40.69-412.13,161.88h-.02c-8.15,7.2-16.26,14.68-24.34,22.44-3.36,3.22-12.47,81.05-.33,137.88,3.59,16.8,9.03,31.77,17.03,42.44,0,0,4.42-1.49,12.71-4.04,81.16-25.06,532.06-153.38,796.66.82,1.82,1.05,3.64,2.14,5.44,3.22,0,0,13.52-28.79,25.88-65.67,0-.02,0-.03.02-.05.53-2.47,1.1-4.83,1.7-7.08.15-.57.3-1.12.45-1.67.22-.75.42-1.5.63-2.24.37-1.27.75-2.49,1.15-3.69.2-.63.4-1.25.62-1.85.48-1.44.99-2.81,1.49-4.12.33-.87.67-1.7,1-2.5.18-.45.37-.9.55-1.34.02-.02.02-.03.02-.05,5.86-20.67,10.54-42.36,11.89-62.05v-.03c1.19-17.03-.13-32.58-5.33-44.68Zm-835.08,166.55c-8.92,4.17-13.77,6.7-13.77,6.7-4.86-3.54-8.2-15.7-10.49-31.71v-.02c-6.34-44.5-4.54-118.55-4.54-118.55,4.22-3.77,8.45-7.46,12.67-11.07,1.55-1.34,3.11-2.65,4.66-3.97.03,2.47,1.19,95.41,14.61,150.32.52,2.1,1.05,4.14,1.6,6.11-1.69.77-3.27,1.5-4.74,2.19Zm29.6-13.02c-3.62-18.38-10.97-57.4-16.06-95.82-3.16-23.91-5.44-47.57-5.41-65.89,6.48-5.16,12.96-10.15,19.44-15.01.32,5.18.73,11.47,1.32,18.77,2.65,33.98,8.52,89.25,21.07,149.77-7.33,2.84-14.14,5.58-20.35,8.18Zm42.41-16.43c-8.8-48.17-21.39-126.16-20.17-172.36.05-1.87.12-3.69.22-5.44,11.2-7.71,22.39-14.96,33.56-21.74-.4,4.39-.68,9.08-.83,14.01-1.74,51.03,8.52,127.38,16.1,175.72-10.14,3.27-19.79,6.56-28.87,9.82Zm59.83-19.12c-6.85-54.18-9.67-131.17-10.8-179.34-.18-7.85-.33-14.91-.43-21,16.65-8.85,33.24-16.75,49.74-23.76-1.17,9.07-2,19.3-2.55,30.37-2.74,54.3,1.05,128.65,4.89,183.4-14.11,3.17-27.77,6.66-40.84,10.34Zm135.13-24.9c-.08,0-.15.02-.23.02-16.88,1.34-33.54,3.39-49.82,6.01-3.34-58.16-3.32-133.29-2.7-186.64.15-13.44.35-25.51.53-35.56,17.73-5.99,35.3-11.02,52.7-15.16-.53,10.87-1.15,24.66-1.7,40.49-1.82,52.21-3.01,126.51,1.24,190.85Zm61.43-4.26c-6.09-61.34-12.97-138.28-15.36-193.42-.72-16.43-1.04-30.92-.8-42.49,20.7-3.27,41.09-5.34,61.11-6.38l1.32,43.53,5.96,196.29c-18.02.63-35.51,1.49-52.23,2.47Zm121.6-199.9c-2.96,54.1-6.46,130.55-6.98,196.26-14.19,0-28.23.2-42.06.55l-2.54-196.67-.57-43.28c18.53-.2,36.73.47,54.52,1.89-.68,11.24-1.5,25.26-2.37,41.26Zm108.08,8.58c-4.36,55.43-6.06,133.22-6.7,191.96-15.7-1.35-31.57-2.35-47.47-3.04l5.19-194.32,1-37.15c17.58,3.04,34.63,6.75,51.11,10.95-1.17,9.28-2.2,19.95-3.14,31.59Zm75.77,13.29c-4.81,47.59-11.82,119.07-17.57,186.79-10.49-1.75-21.14-3.31-31.94-4.64,4.09-72.08,10.87-141.37,16.1-188.78,1.05-9.62,2.05-18.33,2.96-25.98,11.22,3.64,22.09,7.5,32.61,11.5-.65,6.33-1.37,13.41-2.15,21.1Zm51.78,12.74c-8.21,50.78-16.53,131.92-21.47,184.12-6.71-1.74-13.56-3.34-20.52-4.84,3.92-54.7,10.2-134.63,16.68-185.89.75-5.89,1.5-11.4,2.25-16.46,8.67,3.71,17.01,7.51,25.06,11.34-.67,3.69-1.34,7.61-2,11.74Zm3.17,191.18c9.22-64.97,24.9-139.35,33.94-180.09.32-1.49.63-2.92.95-4.31,6.75,3.74,13.17,7.46,19.28,11.12t.03.02c2.02,1.22,4.01,2.44,5.96,3.64-8.25,33.09-26.72,111.3-34.8,178.76-8.16-3.29-16.63-6.33-25.38-9.13Zm40.41,15.68c7.86-46.58,24.09-139.99,32.49-177.22,5.86,3.82,11.32,7.56,16.33,11.14-7.51,33.68-25.33,115.81-33.83,173.7-4.84-2.67-9.83-5.21-14.99-7.61Zm55.8,36.92c-6.11-5.84-12.79-11.29-19.97-16.33,6.28-45.68,19.5-137.35,29.34-174.32,7.31,13.31,11.29,20.35,13.99,25,.52.9,3.34,11.69,6.68,20.04-6.86,29-17.2,73.32-30.04,145.61Z"/><path class="cls-21" d="m1027.31,414.7c-.67,3.69-1.34,7.61-2,11.74-8.08-2.24-16.51-4.46-25.31-6.61.75-5.89,1.5-11.4,2.25-16.46,8.67,3.71,17.01,7.51,25.06,11.34Z"/><path class="cls-21" d="m975.68,392.6c-.65,6.33-1.37,13.41-2.15,21.1-10.72-2.32-21.86-4.54-33.41-6.63,1.05-9.62,2.05-18.33,2.96-25.98,11.22,3.64,22.09,7.5,32.61,11.5Z"/><path class="cls-21" d="m900.9,368.82c-1.17,9.28-2.2,19.95-3.14,31.59-15.75-2.14-32.07-3.96-48.97-5.39l1-37.15c17.58,3.04,34.63,6.75,51.11,10.95Z"/><path class="cls-21" d="m792.05,350.57c-.68,11.24-1.5,25.26-2.37,41.26-16.78-.42-33.98-.38-51.58.13l-.57-43.28c18.53-.2,36.73.47,54.52,1.89Z"/><path class="cls-21" d="m510.02,396.77c-1.17,9.07-2,19.3-2.55,30.37-15.44,4.32-31.04,9.12-46.75,14.39-.18-7.85-.33-14.91-.43-21,16.65-8.85,33.24-16.75,49.74-23.76Z"/><path class="cls-27" d="m1243.04,672.97c-.07,10.37-2.49,24.38-7.25,39.27-8.13,25.53-20.29,45.01-28.74,46.95-1,.25-1.95.23-2.84-.05-8.35-2.65-7.75-27.97,1.35-56.52,1.84-5.78,3.89-11.24,6.04-16.25,8.53-19.84,18.87-32.78,25.53-30.66,3.62,1.15,5.56,6.55,5.86,14.64.02.83.03,1.7.03,2.6Z"/><path class="cls-6" d="m1168.18,609.71c-2.39,8.4-4.98,16.63-7.6,24.49.53-2.47,1.1-4.83,1.7-7.08.15-.57.3-1.12.45-1.67.22-.75.42-1.5.63-2.24.37-1.27.75-2.49,1.15-3.69.2-.63.4-1.25.62-1.85.48-1.44.99-2.81,1.49-4.12.33-.87.67-1.7,1-2.5.18-.45.37-.9.55-1.34Z"/><polygon class="cls-13" points="792.84 218.72 681.48 223.73 711.09 180.32 770.33 180.32 792.84 218.72"/><polyline class="cls-26" points="681.48 223.73 690.95 293.86 780.99 292.19 792.84 218.72"/><path class="cls-24" d="m687.4,280.5l-14.22,25.05s-11.85,8.35,15.4,3.34c27.25-5.01,56.87-1.67,100.7-1.67,22.88,0,0-18.37,0-18.37l-4.74-6.68-4.74,11.69h-88.86l-3.55-13.36Z"/><line class="cls-12" x1="706.36" y1="290.52" x2="701.62" y2="257.13"/><line class="cls-12" x1="722.94" y1="290.52" x2="719.39" y2="253.79"/><line class="cls-12" x1="737.16" y1="288.85" x2="737.16" y2="238.76"/><line class="cls-12" x1="750.19" y1="288.85" x2="754.93" y2="257.13"/><line class="cls-12" x1="767.96" y1="288.85" x2="771.52" y2="263.81"/><path class="cls-1" d="m958.95,165.57s-64.89,15.54-88.4,48.46c-23.12,32.35-42.41,106.1-43.06,108.63-.02.05-.02.06-.02.06l-6.44-.63c.06-.65.15-1.31.23-2,3.8-28.83,31.39-95.05,44.01-118.72,12.91-24.24,99.01-65.64,106.25-56.44,7.22,9.2-12.57,20.64-12.57,20.64Z"/><path class="cls-1" d="m656.26,322.26s-14.16-59.53-37.77-86.5c-23.6-26.97-97.25-43.71-97.25-43.71,0,0-21.72-10.23-12.27-16.74,9.44-6.51,104.8,31.62,117.07,51.16,12.27,19.53,37.77,74.41,37.77,95.8"/><path class="cls-8" d="m958.22,165.36s-64.89,15.54-88.4,48.46c-23.12,32.35-42.41,106.1-43.06,108.63-.02.05-.02.06-.02.06l-6.44-.63c.06-.65.15-1.31.23-2,3.8-28.83,31.39-95.05,44.01-118.72,12.91-24.24,99.01-65.64,106.25-56.44,7.22,9.2-12.57,20.64-12.57,20.64Z"/><path class="cls-8" d="m655.7,322.1s-14.16-59.53-37.77-86.5c-23.6-26.97-97.25-43.71-97.25-43.71,0,0-21.72-10.23-12.27-16.74,9.44-6.51,104.8,31.62,117.07,51.16,12.27,19.53,37.77,74.41,37.77,95.8"/><ellipse class="cls-10" cx="658.37" cy="318.9" rx="12.52" ry="3.34"/><ellipse class="cls-18" cx="823.67" cy="323.91" rx="15.86" ry="5.01"/><path class="cls-9" d="m576.55,1096.15s-33.39-41.74-13.36-65.12c20.04-23.38,61.78-31.72,71.8-18.37,10.02,13.36,30.05,45.08,15.03,63.45-15.03,18.37-20.04,20.04-20.04,20.04,0,0-30.05-38.4-53.43,0Z"/><path class="cls-9" d="m575.72,1095.31l-8.35,55.1s36.73-26.72,58.44,0l.34-58.48s-28.72-25.01-50.43,3.38Z"/><path class="cls-9" d="m567.37,1153.75v11.69s35.06-25.05,55.1,0v-18.62s-26.72-21.46-55.1,6.93Z"/><path class="cls-9" d="m547.33,1200.5s41.74-58.44,90.16-13.36l-11.69,16.7s-1.67,60.11-10.02,51.76c-8.35-8.35-13.36-33.39-13.36-33.39,0,0-3.34,40.07-15.03,48.42-11.69,8.35-20.04-63.45-20.04-63.45l-20.04-6.68Z"/><path class="cls-9" d="m567.37,1181.2l1.64-16.85s51.79-23.96,55.13,9.44l-2.27,2.05s-22.77-18.95-54.5,5.36Z"/><path class="cls-28" d="m568.93,1152.24c-2.04-.72-16.59,6.52-16.59,6.52l18.32,4.87s8.17-7.88-1.74-11.38Z"/><path class="cls-28" d="m791.11,1081.95s-46.75-30.05-13.36-68.46c0,0,53.43-43.41,85.15,0,31.72,43.41,0,61.78,0,61.78,0,0-35.75-20.21-68.26,3.87-1.18.88-2.36,1.81-3.53,2.81Z"/><path class="cls-28" d="m797.79,1081.95s21.71-25.05,60.11-5.01l10.02,51.76s-21.71-31.72-70.13,3.34v-50.09Z"/><path class="cls-28" d="m801.13,1145.4s40.07-31.72,65.12,0v-18.71s-16.7-28.04-68.46,5.35l3.34,13.36Z"/><path class="cls-28" d="m801.13,1168.78s35.06-35.06,70.13-3.34v-20.04s-40.07-33.39-70.13,5.01v18.37Z"/><path class="cls-28" d="m787.77,1180.47s40.07-63.45,108.53-3.34l-18.37,11.69s-8.35,75.14-18.37,75.14-26.72-15.03-35.06-38.4c0,0-6.68,48.42-20.04,5.01l-3.34-38.4-20.04-3.34,6.68-8.35Z"/><path class="cls-9" d="m576.55,1095.9s-33.39-41.74-13.36-65.12c20.04-23.38,61.78-31.72,71.8-18.37,10.02,13.36,30.05,45.08,15.03,63.45s-20.04,20.04-20.04,20.04c0,0-30.05-38.4-53.43,0Z"/><path class="cls-9" d="m575.72,1095.07l-8.35,55.1s36.73-26.72,58.44,0l.34-58.48s-28.72-25.01-50.43,3.38Z"/><path class="cls-9" d="m567.37,1153.51v11.69s35.06-25.05,55.1,0v-18.62s-26.72-21.46-55.1,6.93Z"/><path class="cls-9" d="m547.33,1200.26s41.74-58.44,90.16-13.36l-11.69,16.7s-1.67,60.11-10.02,51.76c-8.35-8.35-13.36-33.39-13.36-33.39,0,0-3.34,40.07-15.03,48.42-11.69,8.35-20.04-63.45-20.04-63.45l-20.04-6.68Z"/><path class="cls-9" d="m567.37,1180.96l1.64-16.85s51.79-23.96,55.13,9.44l-2.27,2.05s-22.77-18.95-54.5,5.36Z"/><path class="cls-28" d="m568.93,1152c-2.04-.72-16.59,6.52-16.59,6.52l18.32,4.87s8.17-7.88-1.74-11.38Z"/><path class="cls-28" d="m791.11,1081.71s-46.75-30.05-13.36-68.46c0,0,53.43-43.41,85.15,0s0,61.78,0,61.78c0,0-35.75-20.21-68.26,3.87-1.18.88-2.36,1.81-3.53,2.81Z"/><path class="cls-28" d="m797.79,1081.71s21.71-25.05,60.11-5.01l10.02,51.76s-21.71-31.72-70.13,3.34v-50.09Z"/><path class="cls-28" d="m801.13,1145.16s40.07-31.72,65.12,0v-18.71s-16.7-28.04-68.46,5.35l3.34,13.36Z"/><path class="cls-28" d="m801.13,1168.53s35.06-35.06,70.13-3.34v-20.04s-40.07-33.39-70.13,5.01v18.37Z"/><path class="cls-28" d="m787.77,1180.22s40.07-63.45,108.53-3.34l-18.37,11.69s-8.35,75.14-18.37,75.14-26.72-15.03-35.06-38.4c0,0-6.68,48.42-20.04,5.01l-3.34-38.4-20.04-3.34,6.68-8.35Z"/><path class="cls-11" d="m443.39,1163.8c-3.21,6.51,1.4,14.13,8.65,14.32,23.87.6,70.18-2.47,91.95-32.71,30.05-41.74,43.41-123.56,93.5-153.61,0,0,8.35-23.38-53.43-5.01,0,0-90.53,75.19-140.68,177.02Z"/><path class="cls-3" d="m801.96,1021.01s23.38,1.67,58.44-26.72c35.06-28.38,2.5-60.94,14.19-54.26,11.69,6.68,148.6,136.91,161.96,235.43,0,0,8.35,25.05-36.73,26.72-45.08,1.67-76.81-3.34-76.81-3.34,0,0-55.1-3.34-80.15-41.74-25.05-38.4-21.71-128.57-21.71-128.57l-19.2-7.51Z"/><path class="cls-9" d="m739.35,1030.19c-7.58.47-29.92-2.76-35.06-8.35-5.27-5.73-16.77-36.72-28.38-35.06s-20.04-6.68-23.38,26.72c-2.63,26.27,2.9,56.78,2.9,56.78,0,0-17.93,95.16-9.58,118.54,8.35,23.38,126.9,15.03,126.9,15.03,0,0,13.36,0,13.36-40.07,0-51.79,1.67-77.06,1.67-93.5,0-18.37,25.43-54.55,20.04-73.47-4.39-15.37-41.74,31.72-68.46,33.39Z"/><path class="cls-28" d="m553.57,1035.37s-91.39,120.05-61.33,135.08c30.05,15.03,138.58,30.05,145.26,8.35s31.72-125.23,0-165.3l-15.03-6.68s-37.62,38.73-68.9,28.55Z"/><path class="cls-9" d="m788.16,1009.39s-10.41,187.78,19.65,196.12c30.05,8.35,140.25-1.67,143.59-25.05,3.34-23.38-34.9-97.29-100.1-154.67,0,0-42.72-22.19-63.14-16.41Z"/><path class="cls-11" d="m547.33,1020.18s6.68,50.09,68.46,18.37c17.1-8.78,29.5-9.44,37.21-8.24,4.26.66,8.02-2.92,7.67-7.21-.94-11.55-4.75-23,20.23-17.94,16.48,3.34,25.45,6.39,13.36-10.02-14.42-19.57-33.3-36.61-45.64-46.78-8.47-6.98-19.77-9.47-30.36-6.6-24.43,6.62-66.24,25.62-70.94,78.42Z"/><path class="cls-9" d="m864.58,940.03s-20.04,26.72-90.16,60.11c-19.63,9.35-6.57,17.62-3.34,16.7,11.69-3.34,73.47,5.01,100.18,21.71,54.49,34.06,60.11-38.4,60.11-38.4-.07.5-6.68-80.15-66.79-60.11Z"/><path class="cls-36" d="m766.06,1190.48s-98.51,5.01-103.52-10.02"/><path d="m766.06,1190.48c-21.64,3.22-85.08,5.99-101.72-7.19-.82-.78-1.55-1.73-1.8-2.83.47,1.01,1.29,1.77,2.18,2.35,2.76,1.72,5.99,2.46,9.16,3.11,8.58,1.62,17.37,2.12,26.1,2.58,21.84,1.09,44.22.97,66.08,1.97h0Z"/><path class="cls-33" d="m575.72,1006.82c.38-23.11,18-42.88,39.85-48.9,7.15-2.12,14.58-3.07,21.93-2.86-7.2,1.45-14.24,3.24-20.92,5.82-20.58,7.49-35.91,24.53-40.86,45.94h0Z"/><path class="cls-36" d="m547.33,1177.13l-41.74-13.36s-11.69-3.34,0-25.05c11.69-21.71,30.05-58.44,30.05-58.44"/><path class="cls-33" d="m547.33,1177.13c-13.97-3.4-27.73-7.33-41.48-11.44-6.34-1.56-8.18-8.68-7.07-14.38,1.67-9.24,7.59-17.67,11.72-25.92,8.19-15.14,16.32-30.28,25.14-45.1-8.77,21.2-19.08,41.76-29.64,62.09-2.74,5.56-7.15,17.08.87,19.97,13.59,4.64,27.12,9.44,40.46,14.78h0Z"/><path class="cls-11" d="m576.55,1099.93s-33.39-41.74-13.36-65.12c20.04-23.38,61.78-31.72,71.8-18.37,10.02,13.36,30.05,45.08,15.03,63.45s-20.04,20.04-20.04,20.04c0,0-30.05-38.4-53.43,0Z"/><path class="cls-11" d="m575.72,1099.09l-8.35,55.1s36.73-26.72,58.44,0l.34-58.48s-28.72-25.01-50.43,3.38Z"/><path class="cls-11" d="m567.37,1157.53v11.69s35.06-25.05,55.1,0v-18.62s-26.72-21.46-55.1,6.93Z"/><path class="cls-11" d="m547.33,1204.28s41.74-58.44,90.16-13.36l-11.69,16.7s-1.67,60.11-10.02,51.76c-8.35-8.35-13.36-33.39-13.36-33.39,0,0-3.34,40.07-15.03,48.42-11.69,8.35-20.04-63.45-20.04-63.45l-20.04-6.68Z"/><path class="cls-11" d="m567.37,1184.98l1.64-16.85s51.79-23.96,55.13,9.44l-2.27,2.05s-22.77-18.95-54.5,5.36Z"/><path class="cls-28" d="m568.93,1156.03c-2.04-.72-16.59,6.52-16.59,6.52l18.32,4.87s8.17-7.88-1.74-11.38Z"/><path class="cls-28" d="m791.11,1085.74s-46.75-30.05-13.36-68.46c0,0,53.43-43.41,85.15,0,31.72,43.41,0,61.78,0,61.78,0,0-35.75-20.21-68.26,3.87-1.18.88-2.36,1.81-3.53,2.81Z"/><path class="cls-28" d="m797.79,1085.74s21.71-25.05,60.11-5.01l10.02,51.76s-21.71-31.72-70.13,3.34v-50.09Z"/><path class="cls-28" d="m801.13,1149.18s40.07-31.72,65.12,0v-18.71s-16.7-28.04-68.46,5.35l3.34,13.36Z"/><path class="cls-28" d="m801.13,1172.56s35.06-35.06,70.13-3.34v-20.04s-40.07-33.39-70.13,5.01v18.37Z"/><path class="cls-28" d="m787.77,1184.25s40.07-63.45,108.53-3.34l-18.37,11.69s-8.35,75.14-18.37,75.14-26.72-15.03-35.06-38.4c0,0-6.68,48.42-20.04,5.01l-3.34-38.4-20.04-3.34,6.68-8.35Z"/><path class="cls-36" d="m791.11,1061.92s-11.69-41.74,21.71-43.41"/><path class="cls-33" d="m791.11,1061.92c-6.16-13.86-5.91-36.19,10.79-42.32,3.5-1.2,7.3-1.53,10.92-1.09-3.48.87-6.76,1.79-9.85,3.49-13.89,7.82-12.69,25.99-11.85,39.92h0Z"/><path class="cls-37" d="m577.29,1075.96s-13.26-42.43,23.47-52.45"/><path class="cls-33" d="m577.29,1075.96c-6.6-14.92-5.83-35.78,8.11-46.38,4.54-3.46,9.96-5.42,15.36-6.07-4.78,2.19-9.55,4.8-13.33,8.47-11.79,11.14-11.93,28.87-10.15,43.98h0Z"/><line class="cls-36" x1="583.23" y1="1104.49" x2="579.89" y2="1136.22"/><path class="cls-33" d="m583.23,1104.49c.95,10.67-.17,21.49-3.34,31.72-.97-10.67.19-21.49,3.34-31.72h0Z"/><path class="cls-33" d="m806.97,1091.14c2.06,8.19,2.07,16.85,0,25.05-2.07-8.19-2.06-16.85,0-25.05h0Z"/><path class="cls-36" d="m695.1,1041.05s-23.38-28.85-25.05-8.63c-1.67,20.22-3.34,132.19-3.34,132.19"/><path class="cls-33" d="m695.1,1041.05c-3.31-3.55-19.79-21.39-23.23-12.42-1.05,3.07-.79,6.77-1.01,10.06-.22,6.98-.4,13.98-.55,20.97-.82,34.79-1.62,70.25-3.6,104.95-.96-40.02-.4-80.77,1.45-120.78.2-3.08.45-7.48.73-10.52,1.72-20.89,20.8.26,26.21,7.75h0Z"/></svg>