<?xml version="1.0" encoding="UTF-8"?><svg id="Layer_1" xmlns="http://www.w3.org/2000/svg" viewBox="0 0 1500 1500"><defs><style>.cls-1,.cls-2,.cls-3,.cls-4,.cls-5,.cls-6,.cls-7{fill:none;}.cls-8{stroke-width:5px;}.cls-8,.cls-2,.cls-9,.cls-10,.cls-11,.cls-4,.cls-12,.cls-13,.cls-14,.cls-15,.cls-16,.cls-5,.cls-6,.cls-17,.cls-18,.cls-19,.cls-20,.cls-7{stroke-miterlimit:10;}.cls-8,.cls-2,.cls-9,.cls-10,.cls-4,.cls-12,.cls-15,.cls-21,.cls-6,.cls-19,.cls-20,.cls-7{stroke:#000;}.cls-8,.cls-12,.cls-14{fill:#fff;}.cls-2,.cls-17,.cls-18{stroke-width:3px;}.cls-3{stroke:#b21e2b;}.cls-3,.cls-21{stroke-linejoin:round;}.cls-22{fill:#045ba3;}.cls-23{fill:#0075e7;}.cls-24{fill:#ff4555;}.cls-25,.cls-10{fill:#916130;}.cls-26,.cls-9,.cls-20{fill:#cfb8d1;}.cls-27{fill:#d8ff2e;}.cls-28,.cls-16{fill:#9b869d;}.cls-9,.cls-10,.cls-11,.cls-4,.cls-21{stroke-linecap:round;}.cls-9,.cls-10,.cls-7{stroke-width:9px;}.cls-11{fill:#ffe7ff;stroke:#ffe7ff;}.cls-4,.cls-12,.cls-6{stroke-width:8px;}.cls-13{fill:#ff172a;stroke:#ff172a;}.cls-14{stroke:#fff;}.cls-15{fill:#a0c4ff;}.cls-16{stroke:#9b869d;}.cls-21{fill:#68482b;stroke-width:7px;}.cls-5{stroke:#65070f;}.cls-17{fill:#dbdada;stroke:#dbdada;}.cls-18{fill:#f8f8f8;stroke:#f8f8f8;}.cls-19{fill:#00a5ff;}.cls-19,.cls-20{stroke-width:6px;}</style></defs><rect class="cls-15" width="1500" height="1500"/><path class="cls-26" d="m841.39,868.33h145.83c49.49,0,89.66,40.18,89.66,89.66v196.84h-166.77c-54.84,0-99.36-44.52-99.36-99.36v-156.51c0-16.91,13.73-30.64,30.64-30.64Z" transform="translate(1955.4 67.77) rotate(90)"/><path class="cls-28" d="m876.33,929.22c67.73,9.4,141.25,56.72,149.83,129.42,2.38,19.48-.21,39.7-6.77,58.03,1.16-16.46,1.19-32.46-1.65-48.53-11.75-71.45-79.34-113.14-141.4-138.92h0Z"/><path class="cls-28" d="m894.42,899.62c76.8,10.83,160.51,69.01,159.73,153.58,0,9.73-1.26,19.51-3.52,28.94-.53-13.79-1.8-27.09-5.04-40.26-16.91-72.78-86.6-115.06-151.17-142.26h0Z"/><path class="cls-16" d="m944.57,885.64s106.88,23.02,126.61,136.48c0,0,11.47-103.53,0-110.17-31.24-18.09,30.03-25.49-126.61-26.31Z"/><path class="cls-16" d="m904.29,932.5c-4.93-16.44,13.15-19.73,18.09-18.09,4.93,1.64,8.22-8.22,8.22-8.22,0,0,1.13-10.39,17.27-13.98,14.8-3.29,21.38,1.64,21.38,1.64,0,0-49.65-20.55-64.13-3.29-14.48,17.27-32.64,24.64-32.64,24.64l21.95,25.32,9.87-8.03Z"/><path class="cls-6" d="m842.19,868.86h145.83c49.49,0,89.66,40.18,89.66,89.66v196.84h-166.77c-54.84,0-99.36-44.52-99.36-99.36v-156.51c0-16.91,13.73-30.64,30.64-30.64Z" transform="translate(1956.73 67.49) rotate(90)"/><path class="cls-26" d="m593.51,960.46s-278.74,247.32-87.66,330.65c0,0,455.44,38.79,507.16-8.62,51.72-47.41,35.92-199.7-123.56-346.25-159.47-146.54-295.94,24.22-295.94,24.22Z"/><path class="cls-28" d="m445.53,1164.35s19.73-21.38,31.24,1.64c8.51,17.02,16.12,55.6,19.51,74.57.66,3.69-3.53,6.29-6.54,4.05-9.61-7.16-25.96-17.21-40.93-16.14-23.02,1.64-3.29-64.13-3.29-64.13Z"/><path class="cls-28" d="m504.72,1274.52s343.51,15.32,355.92,14.24c12.41-1.08-4.91,20.26-26.67,18.63-21.76-1.63-323.69-14.5-328.11-16.29-4.42-1.79-1.13-16.58-1.13-16.58Z"/><path class="cls-28" d="m800.7,932.5s157.85,124.97,177.58,342.01c0,0,46.67,36.99,61.15-47.28,0,0,22.8-142.69-167.16-307.51-189.96-164.82,0,0,0,0l-71.58,12.77Z"/><path class="cls-28" d="m637.09,930.04s29.6,1.64,41.11,27.95c11.51,26.31,105.24,50.97,149.63,26.31,44.4-24.66,62.48-11.51,62.48-11.51l-41.11-42.75-212.11-12.7v12.7Z"/><path class="cls-6" d="m594.68,961.23s-278.74,247.32-87.66,330.65c0,0,455.44,38.79,507.16-8.62,51.72-47.41,35.92-199.7-123.56-346.25-159.47-146.54-295.94,24.22-295.94,24.22Z"/><path class="cls-26" d="m520.28,1292.63c-4.35-8.05-120.27-1.42-167.67,11.3-47.4,12.73-46.68-24.03-46.68-24.03l-11.32-67.1s-13.39-52.85,19.89-57.67,36.15,43.02,40.57,68.17c4.43,25.15,36,16.2,36,16.2l85.7-12.67"/><path class="cls-28" d="m358.38,1295.89s77.09-33.73,155.29-20.98l3.58,16.08-158.88,4.9Z"/><path class="cls-11" d="m290.96,1200.52s4.4-39.39,13.71-41.89c9.31-2.5-12.06,35.32,22.47,132.33,0,0,8.61,14.77,3.48,16.43-5.13,1.66-26.5,6.59-33.08-52.6s-6.58-54.26-6.58-54.26Z"/><path class="cls-28" d="m338.65,1172.57s-9.87-32.89-11.51-11.51c0,0,8.22,70.7,23.02,87.15,16.75,18.62,78.93-8.22,78.93-8.22,0,0-64.13,4.93-69.06-3.29-4.93-8.22-21.38-64.13-21.38-64.13Z"/><path class="cls-4" d="m473.48,1228.48l-82.89,11.8s-31.57,8.95-36-16.2c-4.43-25.15-7.3-72.99-40.57-68.17-33.28,4.82-19.89,57.67-19.89,57.67l11.32,67.1s-.71,36.76,46.68,24.03c47.4-12.73,163.32-19.35,167.67-11.3"/><path class="cls-26" d="m841.99,1303.61s72.52,12.09,89.44,24.17c16.92,12.09,67.68,0,65.27-12.09-2.42-12.09,48.35-164.38-50.76-118.45,0,0-26.59,29.01-21.76,72.52"/><path class="cls-11" d="m921.55,1265.47s12.2-65.23,23.78-65.09c6.23.08,38.71-8.9,27.2-3.97-7.01,3-17.9,35.98-20.55,48.51-3.89,18.36-3.23,38.71-7.4,41.93-4.16,3.22-13.15-10.69-23.02-21.38Z"/><path class="cls-28" d="m955.26,1328.78c3.95.99,2.31-18.83,2.68-22.89l7.19-79.06s11.17-55.26,37.82-13.15c1.18,1.87.31-5.44.76-3.28,2.58,12.56,9.49,59.12-17.2,106.87,0,0-10.83,26.99-92.56-2.13,0,0-43.91-2.8-43.91-15.96,0-4.66,11.51-9.87,11.51-9.87,0,0,49.08,2.33,52.62,8.22,4.93,8.22,4.4,12.4,19.73,16.44,8.91,2.35,8.22,11.51,21.38,14.8Z"/><path class="cls-4" d="m846.74,1305.76s67.39,9.55,84.31,21.64c16.92,12.09,60.8-.6,65.27-12.09,4.99-12.84,39.73-138.37-27.71-126.24-15.88,2.86-29.14,13.65-36,28.26-5.94,12.66-11.2,30.59-8.82,52.05"/><path class="cls-26" d="m1159.06,541.55c-.92,16.32-3.17,32.27-6.55,47.81-29.78,136.14-140.78,228.41-222.71,286.02-32.88,23.09-61.09,40.64-77.47,53.16-4.33,3.31-7.83,6.26-10.39,8.9-40.9,42.06-82.94,41.22-115.45,29.1-13.61-5.08-25.55-12.13-35.03-18.81-5.54-3.92-10.23-7.69-13.95-10.9-6.87-5.92-14.79-10.52-23.42-13.42-49.99-16.9-221.5-84.17-270.88-226.16-18.06-51.95-24.9-97.15-25.72-134.77-.29-14.77.31-28.4,1.5-40.78,6.99-37.15,29.15-71.72,62.83-101.48,71.65-63.38,195.42-105.25,336.08-105.25,44.91,0,88.09,4.28,128.41,12.13,155.77,30.41,268.71,114.63,272.77,214.44Z"/><path class="cls-28" d="m801.37,316.33s601.14,201.81-25.34,642.48c0,0-36.08,3.58-17.22,14.95,18.86,11.36,85.77-38.87,85.77-38.87,0,0,192.55-134.5,196.01-151.48,3.46-16.98,190.91-166.61,84.03-334.33,0,0-131.84-135.6-323.25-132.75Z"/><path class="cls-7" d="m1159.64,540.97c-.92,16.32-3.17,32.27-6.55,47.81-29.78,136.14-140.78,228.41-222.71,286.02-32.88,23.09-61.09,40.64-77.47,53.16-4.33,3.31-7.83,6.26-10.39,8.9-40.9,42.06-82.94,41.22-115.45,29.1-13.61-5.08-25.55-12.13-35.03-18.81-5.54-3.92-10.23-7.69-13.95-10.9-6.87-5.92-14.79-10.52-23.42-13.42-49.99-16.9-221.5-84.17-270.88-226.16-18.06-51.95-24.9-97.15-25.72-134.77-.29-14.77.31-28.4,1.5-40.78,6.99-37.15,29.15-71.72,62.83-101.48,71.65-63.38,195.42-105.25,336.08-105.25,44.91,0,88.09,4.28,128.41,12.13,155.77,30.41,268.71,114.63,272.77,214.44Z"/><circle class="cls-1" cx="507.58" cy="715.86" r="163.31"/><circle class="cls-12" cx="948.72" cy="705.65" r="157.83"/><ellipse class="cls-23" cx="531.4" cy="715.74" rx="123.29" ry="130.86" transform="translate(-205.29 1217.71) rotate(-87.68)"/><ellipse class="cls-23" cx="925.78" cy="703.68" rx="119.16" ry="126.47" transform="translate(185.17 1600.19) rotate(-87.68)"/><ellipse class="cls-22" cx="547.6" cy="716.54" rx="108.01" ry="114.64" transform="translate(-190.54 1234.66) rotate(-87.68)"/><ellipse class="cls-22" cx="910.13" cy="702.67" rx="104.39" ry="110.8" transform="translate(171.16 1583.59) rotate(-87.68)"/><circle cx="566.02" cy="716.07" r="98.42"/><circle cx="894.41" cy="703.45" r="95.12"/><path d="m417.51,520.21c33.55-34.19,86.21-50.13,132.7-36.71,18.06,5.06,35.01,14.21,49.27,25.95-25.12-13.4-52.06-22.69-80.51-22.76-36.2-.36-71.78,13.18-101.46,33.53h0Z"/><circle class="cls-14" cx="606.43" cy="668.45" r="30.72"/><circle class="cls-14" cx="990.76" cy="674.93" r="30.31"/><ellipse class="cls-14" cx="473.12" cy="772.72" rx="10.62" ry="31.36" transform="translate(-318.14 1214.15) rotate(-87.68)"/><ellipse class="cls-14" cx="870.54" cy="768.39" rx="10.27" ry="30.31" transform="translate(67.51 1607.09) rotate(-87.68)"/><path d="m1034.17,514.34c-27.47-18.15-60.37-30.57-93.51-29.25-33.59,1.21-63.69,18.27-88.86,40.03,10.53-13.34,23.63-24.87,38.67-33.53,46.65-27.26,106.2-13.94,143.7,22.74h0Z"/><path class="cls-8" d="m962.79,207.81s-63.91,15.31-87.06,47.72c-22.77,31.86-41.76,104.49-42.4,106.98-.02.05-.02.06-.02.06l-6.34-.62c.06-.64.14-1.29.22-1.97,3.74-28.39,30.91-93.61,43.34-116.92,12.72-23.87,97.51-64.64,104.63-55.58,7.11,9.06-12.38,20.32-12.38,20.32Z"/><path class="cls-8" d="m664.71,362.12s-13.95-58.62-37.19-85.18c-23.24-26.56-95.77-43.05-95.77-43.05,0,0-21.38-10.08-12.09-16.49,9.3-6.41,103.21,31.14,115.29,50.38,12.09,19.24,37.19,73.28,37.19,94.34"/><path class="cls-20" d="m962.08,207.6s-63.91,15.31-87.06,47.72c-22.77,31.86-41.76,104.49-42.4,106.98-.02.05-.02.06-.02.06l-6.34-.62c.06-.64.14-1.29.22-1.97,3.74-28.39,30.91-93.61,43.34-116.92,12.72-23.87,97.51-64.64,104.63-55.58,7.11,9.06-12.38,20.32-12.38,20.32Z"/><path class="cls-20" d="m664.16,361.96s-13.95-58.62-37.19-85.18-95.77-43.05-95.77-43.05c0,0-21.38-10.08-12.09-16.49,9.3-6.41,103.21,31.14,115.29,50.38,12.09,19.24,37.19,73.28,37.19,94.34"/><path class="cls-10" d="m601.95,950.99s52.88,17.88,62.74,85.3c9.87,67.42,23.02,187.45,23.02,187.45,0,0-16.44,19.73-57.55-14.8s-49.33-47.68-75.64-36.17c-26.31,11.51-19.73,72.35-50.97,57.55-31.24-14.8-65.77-6.58-65.77-6.58,0,0-78.93,32.89-23.02-49.33,55.91-82.21,145.82-224.86,187.19-223.42Z"/><path class="cls-10" d="m905,950.98s-100.54,22.83-102.19,65.58c-1.64,42.75-3.29,202.25-14.8,213.76-11.51,11.51,85.76,16.12,121.68-29.6,18.09-23.02,55.91-16.44,55.91-16.44,0,0,82.21-13.15,36.17,121.68-14.89,43.6,212.11,19.73,207.18-34.53-4.93-54.26-168.66-73.57-168.66-73.57,0,0-3.51-123.36-135.3-246.88Z"/><path class="cls-9" d="m1039.59,1197.43s-3.29,34.53,4.93,47.68"/><path d="m1036.31,1222.1c23.58-3.43,66.06,8.34,63.35,38.35-.58,4.05-2.11,7.74-4.16,10.98.19-3.87.32-7.51-.26-10.95-1.77-10.38-9.34-17.1-18.43-22.14-12.62-7.01-26.7-11.11-40.5-16.24h0Z"/><path d="m1130.03,1254.98c11.03,15.54,2.33,37.52-18.09,36.17,3.54-2.07,6.79-4.03,9.48-6.36,8.79-7.31,8.98-19.02,8.6-29.82h0Z"/><path class="cls-21" d="m503.55,1130.02s83.86,36.17,171.01,0c0,0-88.79-46.04-171.01,0"/><path class="cls-21" d="m760.62,1137.03s81.57,36.17,166.34,0c0,0-86.37-46.04-166.34,0"/><path class="cls-26" d="m872.32,1031.13c-14.92-24.66-26.86-10.76-26.86-10.76,0,0,41.29,128.26,23.22,194.03-18.06,65.77-40-6.58-40-6.58,0,0-15.48,42.75-23.22,6.58-7.74-36.17-7.74-194.03-7.74-194.03"/><path d="m872.32,1031.13c-5.41-8.46-16.48-19.82-25.93-9.96,0,0,.24-1.19.24-1.19,7.49,21.71,13.67,43.81,18.86,66.19,5.09,22.45,9.18,45.17,10.98,68.18,1.29,17.31,1.57,35.14-1.62,52.37-.37,2.51-1.37,6.22-1.93,8.71-3.02,10.22-8.33,30.49-21.38,31.05-14.36,0-23.26-26.01-27.06-37.39,0,0,8.34.22,8.34.22-.96,2.54-1.95,4.85-3.07,7.23-2.85,5.67-5.77,11.87-11.43,15.43-11.01,5.68-15.54-8.91-16.97-16.98-4.02-24.83-4.2-50.18-4.88-75.11-.38-19.93-.41-39.85-.19-59.78.21-19.92.62-39.84,1.44-59.74,2.07,46.07,3.95,103.39,7.01,149.03.66,8.47,1.53,21.2,2.58,29.53.38,4.28,1.39,10.1,2.17,14.35.94,3.87,1.85,8.36,4.39,11.27.16.14.21.12.14.1-.07-.03-.25-.04-.27-.03-.03,0,.09-.02.31-.14.22-.13.5-.34.8-.6,6.99-7.26,10.4-20.13,14.16-29.43,0,0,3.88,12.11,3.88,12.11,3.1,9.12,8.81,24.97,16.73,30.41,4.07,2.66,7.83-5.23,9.42-8.38,12.43-28.01,11.02-60.65,8.21-90.61-4.1-39.63-12.53-78.79-22.97-117.22,0,0-.2-.73-.2-.73l.44-.45c11.36-10.37,22.36,1.18,27.8,11.57h0Z"/><path class="cls-26" d="m628.53,1026.65s0,157.85-5.62,194.03c-5.62,36.17-16.87-6.58-16.87-6.58,0,0-15.93,72.35-29.06,6.58-13.12-65.77,16.87-194.03,16.87-194.03,0,0-8.68-13.9-19.52,10.76"/><path d="m628.53,1026.65c1.4,39.2,1.85,78.42,1.5,117.63-.4,24.57-.48,49.22-3.07,73.78-.4,3.84-.98,7.6-1.98,11.36-.97,3.18-1.81,6.43-4.86,8.62-2.52,1.83-6.2.9-8.04-1.06-2.37-2.35-3.44-4.68-4.76-7.41-2.16-4.82-3.69-9.52-5.08-14.48l7.61-.15c-1.28,5.62-2.77,11.03-4.6,16.48-2.04,5.72-3.91,11.1-7.75,16.19-2.64,3.66-7.85,6.42-12.35,3.28-7.41-5.22-10.07-20.88-11.98-29.36-5.72-31.92-2.88-64.69.88-96.64,4.22-33.18,10.59-66.07,18.84-98.47,0,0,.12.73.12.73-1.1-1.74-2.92-3.34-4.96-3.63-6.59-.47-11.09,8.85-13.74,13.88.89-2.19,1.85-4.36,2.99-6.46,3.76-7.42,11.09-13.36,17.56-4.53-2.14,11.04-4.14,22.12-5.93,33.22-7.18,46.28-13.83,93.3-10.8,140.19.64,8.09,1.71,16.26,3.52,24.17,1.19,5.28,2.59,10.57,4.58,15.22.73,1.71,1.99,4.12,3.24,5.01.18.13.17.07.08.07-.09-.02-.16.04,0-.03.31-.15,1.05-.76,1.69-1.61,2.87-3.84,4.86-9.1,6.51-13.8,3.13-8.7,5.8-21.61,7.97-30.72,0,0,4.08,14.96,4.08,14.96,1.22,4.48,2.72,9.13,4.56,13.26.76,1.69,1.85,3.85,2.98,5,.18.19.31.19-.06.06-.3-.12-1.15-.02-1.39.2,1.67-2.64,2.58-7.37,3.21-11,.91-5.92,1.46-11.88,1.98-17.93.71-8.41,1.32-20.67,1.8-29.22,1.16-19.56,4.78-125.13,5.63-146.81h0Z"/><path class="cls-25" d="m868.59,1005.05s57.55,105.24,55.91,129.9c0,0-101.95-52.62-145.33,18.89-22.89,37.73,0,0,0,0,0,0,20.36-94.53.63-119.19"/><path d="m868.59,1005.05c15.38,25.37,29.61,51.45,42.38,78.25,6.24,13.66,12.59,27.36,16.29,42.03.67,3.08,1.3,6.17,1.16,9.88-.05,2.72-3.11,4.55-5.53,3.33-3.6-1.76-7.51-3.41-11.38-4.93-26.15-9.98-55.74-16.63-83.31-10.48-16.52,3.58-31.22,13.14-41.27,26.72-4.25,5.69-9.48,14.8-13.34,20.81,0,0-.83,1.33-.83,1.33,0,0-.21.33-.21.33,0,0-.1.17-.1.17l-.05.08s-.03.04-.03.04c-3-1.81,6.69,4.11-6.74-4.05,0,0,.41-.67.41-.67,0,0,3.31-5.33,3.31-5.33,2.2-3.56,4.44-7.09,6.68-10.63l-.45,1.13c2.21-9.72,4.1-19.66,5.73-29.57,3.5-22.44,11.2-69.93-1.52-88.85,1.67,1.91,3.01,4.12,4.09,6.43,9.81,22.8,6.18,58.77,3.56,83.31-1.53,10.43-2.53,21.09-5.15,31.35-3.18,5.49-6.69,11.43-9.94,16.91-13.44-8.15-3.71-2.28-6.7-4.11l.02-.04.05-.08.1-.17c.59-.98,1.98-3.37,2.6-4.39,3.22-5.37,8.09-14.07,11.69-19.03,16.39-23.29,44.24-33.96,72.07-32.94,25.87.73,51,8.2,74.11,19.57,0,0-5.73,3.23-5.73,3.23.2-5-1.49-10.94-2.92-16-3.31-11.17-7.73-22.13-12.22-32.93-11.39-27.29-24.14-53.99-36.84-80.7h0Z"/><path class="cls-25" d="m566.04,1023.14l-62.48,106.88s83.86-47.68,167.72,0l-34.53-113.46"/><path d="m566.04,1023.14c-19.12,36.6-39.23,72.66-59.53,108.61,0,0-4.65-4.71-4.65-4.71,6.59-3.65,13.38-6.61,20.38-9.3,41.48-15.93,89.37-18.06,130.71-.54,6.92,2.77,13.5,6.26,19.99,9.88,0,0-4.9,3.92-4.9,3.92l-8.12-28.52c-8.04-28.55-15.92-57.15-23.18-85.92,6.69,18.62,13.05,37.34,19.32,56.1,5.58,16.26,13,39.81,18.44,56.37.57,1.76-.39,3.65-2.16,4.22-.96.31-1.93.17-2.74-.3-12.52-6.84-25.86-12.14-39.68-15.46-34.7-8.58-71.66-4.84-105.14,7.12-6.68,2.4-13.39,5.16-19.65,8.45-2.98,1.62-6.33-1.84-4.54-4.77,5.31-8.85,10.72-17.64,16.07-26.46,16.14-26.42,32.48-52.74,49.37-78.69h0Z"/><path class="cls-18" d="m758.42,861.17s-49.33-46.04-73.99,36.17c-24.66,82.21,4.93,240.07,4.93,240.07,0,0,3.29-230.2,42.75-258.16,0,0,44.4,9.87,26.31-18.09Z"/><path class="cls-17" d="m767.11,861.86s40.85-46.04,61.28,36.17c20.43,82.21-4.09,240.07-4.09,240.07,0,0-2.72-230.2-35.41-258.16,0,0-36.77,9.87-21.79-18.09Z"/><path class="cls-17" d="m723.89,902.28c4.54-1.01,79.92,9.87,76.14,0-3.79-9.87,42.25,52.62,27.46,133.19-14.8,80.57-32.89,113.46-32.89,134.83s-26.31-13.15-27.95-50.97c-1.64-37.82-8.22,64.13,0,105.24,0,0-44.4-54.26-42.75-118.39,0,0-4.93,49.33-16.44,65.77-11.51,16.44-8.22-85.5-9.87-136.48-1.64-50.97-3.29-126.61,26.31-133.19Z"/><path class="cls-2" d="m725.53,895.7l3.29-8.22s41.11-11.51,60.84,0v8.22"/><path class="cls-19" d="m756.79,167.21l-164.43,203.89s116.75,105.24,320.64,0l-156.21-203.89Z"/><path class="cls-8" d="m834.39,358.78c3.74-28.39,30.91-93.61,43.34-116.92,12.72-23.87,97.51-64.64,104.63-55.58,7.11,9.06-12.38,20.32-12.38,20.32,0,0-63.91,15.31-87.06,47.72-22.77,31.86-41.76,104.49-42.4,106.98"/><path class="cls-8" d="m671.9,360.91s-13.95-58.62-37.19-85.18c-23.24-26.56-95.77-43.05-95.77-43.05,0,0-21.38-10.08-12.09-16.49s103.21,31.14,115.29,50.38c12.09,19.24,37.19,73.28,37.19,94.34"/><path class="cls-20" d="m833.68,358.58c3.74-28.39,30.91-93.61,43.34-116.92,12.72-23.87,97.51-64.64,104.63-55.58,7.11,9.06-12.38,20.32-12.38,20.32,0,0-63.91,15.31-87.06,47.72-22.77,31.86-41.76,104.49-42.4,106.98"/><ellipse cx="839.81" cy="355.52" rx="14.8" ry="20.55" transform="translate(168.46 972.74) rotate(-65.54)"/><path class="cls-20" d="m671.36,360.76s-13.95-58.62-37.19-85.18c-23.24-26.56-95.77-43.05-95.77-43.05,0,0-21.38-10.08-12.09-16.49,9.3-6.41,103.21,31.14,115.29,50.38,12.09,19.24,37.19,73.28,37.19,94.34"/><ellipse cx="672.09" cy="355.52" rx="20.55" ry="14.8" transform="translate(-88.13 342.68) rotate(-26.91)"/><polygon class="cls-27" points="771.09 321.77 779.32 339.14 761.26 327.61 744.44 337.62 753.61 322.72 744.44 316.87 757.2 316.87 763.74 306.25 768.77 316.87 779.32 316.87 771.09 321.77"/><polygon class="cls-27" points="781.94 233.7 785.86 241.99 777.25 236.49 769.23 241.26 773.6 234.16 769.23 231.37 775.31 231.37 778.43 226.3 780.83 231.37 785.86 231.37 781.94 233.7"/><polygon class="cls-27" points="704.94 294.53 711.61 308.61 696.97 299.27 683.34 307.38 690.77 295.31 683.34 290.57 693.68 290.57 698.98 281.95 703.05 290.57 711.61 290.57 704.94 294.53"/><polygon class="cls-27" points="784.3 368.27 797.17 372.86 782.29 376.15 778.87 389.64 775.98 377.54 768.43 379.21 774.85 372.79 772.79 364.16 780.67 366.97 785.97 361.67 784.3 368.27"/><polygon class="cls-27" points="717.37 368.69 726 371.77 716.03 373.97 713.73 383.02 711.8 374.91 706.73 376.03 711.03 371.73 709.66 365.94 714.94 367.82 718.49 364.27 717.37 368.69"/><polygon class="cls-27" points="632.54 350.8 641.18 353.88 631.2 356.08 628.9 365.13 626.97 357.02 621.91 358.13 626.21 353.83 624.83 348.04 630.11 349.93 633.67 346.37 632.54 350.8"/><polygon class="cls-27" points="807.64 290.74 816.27 293.82 806.3 296.02 804 305.07 802.06 296.96 797 298.07 801.3 293.77 799.93 287.99 805.2 289.87 808.76 286.31 807.64 290.74"/><polygon class="cls-27" points="765.34 266.45 780.01 271.69 763.06 275.43 759.16 290.81 755.87 277.02 747.27 278.92 754.58 271.61 752.24 261.77 761.21 264.98 767.25 258.93 765.34 266.45"/><polygon class="cls-27" points="871.57 334.55 880.2 337.64 870.23 339.84 867.93 348.89 866 340.77 860.94 341.89 865.24 337.59 863.86 331.8 869.14 333.69 872.7 330.13 871.57 334.55"/><polygon class="cls-27" points="760.38 199.77 765.31 210.17 754.5 203.27 744.43 209.26 749.92 200.34 744.43 196.84 752.07 196.84 755.98 190.48 758.99 196.84 765.31 196.84 760.38 199.77"/><polygon class="cls-27" points="723.98 258.37 727.9 266.65 719.29 261.16 711.27 265.93 715.64 258.82 711.27 256.03 717.35 256.03 720.47 250.97 722.87 256.03 727.9 256.03 723.98 258.37"/><circle class="cls-12" cx="507.75" cy="714.01" r="163.31"/><circle class="cls-12" cx="948.89" cy="703.8" r="157.83"/><ellipse class="cls-24" cx="531.57" cy="713.89" rx="123.29" ry="130.86" transform="translate(-203.27 1216.1) rotate(-87.68)"/><ellipse class="cls-24" cx="925.95" cy="701.83" rx="119.16" ry="126.47" transform="translate(187.19 1598.58) rotate(-87.68)"/><ellipse class="cls-13" cx="547.77" cy="714.69" rx="108.01" ry="114.64" transform="translate(-188.53 1233.06) rotate(-87.68)"/><ellipse class="cls-13" cx="910.3" cy="700.82" rx="104.39" ry="110.8" transform="translate(173.17 1581.98) rotate(-87.68)"/><circle cx="566.19" cy="714.21" r="98.42"/><circle cx="894.58" cy="701.6" r="95.12"/><circle cx="565.6" cy="714.64" r="98.42"/><circle cx="894.36" cy="703.61" r="98.42"/><circle class="cls-3" cx="895.82" cy="702.26" r="86.33"/><circle class="cls-3" cx="567.05" cy="713.28" r="86.33"/><path class="cls-3" d="m478.36,669.71h175.94s-159.5,111.81-157.85,113.46,69.06-167.72,69.06-167.72l75.64,162.79-162.79-108.52Z"/><path class="cls-5" d="m478.26,670.53h175.94s-159.5,111.81-157.85,113.46c1.64,1.64,69.06-167.72,69.06-167.72l75.64,162.79-162.79-108.52Z"/><path class="cls-3" d="m807.13,658.68h175.94s-159.5,111.81-157.85,113.46,69.06-167.72,69.06-167.72l75.64,162.79-162.79-108.52Z"/><path class="cls-5" d="m807.02,659.5h175.94s-159.5,111.81-157.85,113.46,69.06-167.72,69.06-167.72l75.64,162.79-162.79-108.52Z"/><path d="m417.69,518.35c33.55-34.19,86.21-50.13,132.7-36.71,18.06,5.06,35.01,14.21,49.27,25.95-25.12-13.4-52.06-22.69-80.51-22.76-36.2-.36-71.78,13.18-101.46,33.53h0Z"/><circle class="cls-14" cx="606.6" cy="666.6" r="30.72"/><circle class="cls-14" cx="990.93" cy="673.08" r="30.31"/><path d="m1034.34,512.49c-27.47-18.15-60.37-30.57-93.51-29.25-33.59,1.21-63.69,18.27-88.86,40.03,10.53-13.34,23.63-24.87,38.67-33.53,46.65-27.26,106.2-13.94,143.7,22.74h0Z"/><ellipse class="cls-14" cx="473.33" cy="768.85" rx="10.62" ry="31.36" transform="translate(-314.07 1210.64) rotate(-87.68)"/><ellipse class="cls-14" cx="870.75" cy="764.52" rx="10.27" ry="30.31" transform="translate(71.58 1603.58) rotate(-87.68)"/></svg>