<svg xmlns="http://www.w3.org/2000/svg" viewBox="0 0 1500 1500"><defs><style>.cls-1{fill:#a0c4ff;}.cls-2{fill:#bdb2ff;}.cls-3{fill:#8e85bf;}.cls-29,.cls-35,.cls-4,.cls-6,.cls-7,.cls-9{fill:none;}.cls-11,.cls-12,.cls-13,.cls-14,.cls-17,.cls-18,.cls-19,.cls-21,.cls-22,.cls-23,.cls-24,.cls-25,.cls-26,.cls-27,.cls-28,.cls-29,.cls-35,.cls-36,.cls-37,.cls-38,.cls-39,.cls-4,.cls-40,.cls-41,.cls-6,.cls-7,.cls-9{stroke:#000;}.cls-10,.cls-11,.cls-12,.cls-17,.cls-19,.cls-22,.cls-23,.cls-24,.cls-26,.cls-27,.cls-28,.cls-29,.cls-31,.cls-32,.cls-33,.cls-34,.cls-35,.cls-36,.cls-37,.cls-38,.cls-39,.cls-4,.cls-40,.cls-41,.cls-6,.cls-7,.cls-8,.cls-9{stroke-miterlimit:10;}.cls-4{stroke-width:17px;}.cls-5{fill:#5f5980;}.cls-11,.cls-26,.cls-27,.cls-28,.cls-6,.cls-7{stroke-width:15px;}.cls-13,.cls-14,.cls-25,.cls-7,.cls-8{stroke-linecap:round;}.cls-8{fill:#ffe7ff;stroke:#ffe7ff;}.cls-9{stroke-width:20px;}.cls-10{fill:#848384;stroke:#848384;}.cls-11,.cls-12,.cls-15{fill:#333;}.cls-12{stroke-width:7px;}.cls-13,.cls-14{fill:#212121;}.cls-13,.cls-14,.cls-18,.cls-21,.cls-25{stroke-linejoin:round;}.cls-13,.cls-37{stroke-width:6px;}.cls-14,.cls-21,.cls-35,.cls-36,.cls-39,.cls-41{stroke-width:13px;}.cls-16{fill:#141414;}.cls-17,.cls-22{fill:#1e1e1e;}.cls-17,.cls-38{stroke-width:5px;}.cls-18,.cls-19,.cls-21,.cls-31,.cls-36{fill:#282828;}.cls-18{stroke-width:3px;}.cls-20{opacity:0.25;}.cls-22,.cls-31,.cls-32{stroke-width:9px;}.cls-24,.cls-25,.cls-34{fill:#999;}.cls-26,.cls-38,.cls-39{fill:#fff;}.cls-27{fill:#ff001c;}.cls-29{stroke-width:11px;opacity:0.38;}.cls-30{opacity:0.26;}.cls-31{stroke:#282828;}.cls-32{fill:#424242;stroke:#424242;}.cls-33{fill:#c2c2c2;stroke:#c2c2c2;}.cls-34{stroke:#999;}.cls-37{fill:#cfb8d1;}.cls-40{stroke-width:10px;}.cls-42{fill:#666;}</style></defs><g id="Layer_6" data-name="Layer 6"><rect class="cls-1" x="0.41" y="-0.09" width="1500" height="1500"/><path class="cls-2" d="M880.1,904.65H1070a89.66,89.66,0,0,1,89.66,89.66v244.27a0,0,0,0,1,0,0H948.82a99.36,99.36,0,0,1-99.36-99.36V935.29A30.64,30.64,0,0,1,880.1,904.65Z" transform="translate(2076.18 67.06) rotate(90)"/><path class="cls-3" d="M925.9,975.61a138.14,138.14,0,0,1,19.47,2.21c6.44,1.13,12.82,2.6,19.14,4.32a235.51,235.51,0,0,1,37,13.62,215.56,215.56,0,0,1,34.48,20.13,184.5,184.5,0,0,1,30.25,27,155.83,155.83,0,0,1,23.23,33.87,146.66,146.66,0,0,1,7.89,19.07,137.1,137.1,0,0,1,4.94,20c.27,1.69.55,3.37.78,5.06l.53,5.07c.2,1.69.28,3.39.38,5.08s.22,3.37.2,5.07a145.79,145.79,0,0,1-1.08,20.08,143.47,143.47,0,0,1-3.94,19.45,127.74,127.74,0,0,1-6.56,18.5c-.12-3.29,0-6.5-.1-9.72s-.08-6.41-.26-9.58l-.21-4.74-.34-4.72-.17-2.34-.23-2.33-.47-4.64c-.45-3.08-.72-6.14-1.31-9.17-.29-1.51-.46-3-.76-4.53l-.91-4.48a168.4,168.4,0,0,0-11.1-34.07,176.82,176.82,0,0,0-8.15-15.71,182.77,182.77,0,0,0-21-28.52c-15.85-17.78-35-33-55.64-46.65-10.31-6.86-21.06-13.25-32.09-19.42S937.58,981.4,925.9,975.61Z"/><path class="cls-3" d="M947,941.11a144,144,0,0,1,19.43,2.24c6.43,1.13,12.8,2.59,19.12,4.28a249.27,249.27,0,0,1,37,13.27,236.24,236.24,0,0,1,34.72,19.31,206.67,206.67,0,0,1,31.07,25.56,184.4,184.4,0,0,1,13.5,15.21c2.12,2.65,4.12,5.41,6.1,8.18s3.84,5.63,5.58,8.57c.91,1.44,1.76,2.92,2.59,4.41s1.69,3,2.45,4.5,1.57,3,2.32,4.56l2.13,4.66a151.75,151.75,0,0,1,6.92,19.21c.46,1.63.87,3.28,1.28,4.93s.77,3.3,1.1,5,.71,3.3,1,5,.51,3.34.75,5a142.12,142.12,0,0,1,1.2,20c0,1.67-.09,3.33-.17,5s-.11,3.31-.3,5c-.36,3.3-.61,6.57-1.21,9.82a122.49,122.49,0,0,1-4.5,19.1c-1.47-13-3.11-25.51-6-37.57l-1.09-4.51c-.39-1.49-.83-3-1.24-4.44l-.62-2.21-.68-2.2c-.46-1.45-.88-2.91-1.38-4.35-2-5.77-4.17-11.38-6.6-16.87-9.81-21.92-23.92-41.27-40.81-58.32s-36.5-31.81-57.36-45.23C1002.82,971.42,992,965.1,981,959S958.63,947,947,941.11Z"/><path class="cls-3" d="M1005.44,924.82S1130,951.65,1153,1083.89c0,0,13.37-120.66,0-128.4C1116.6,934.4,1188,925.78,1005.44,924.82Z"/><path class="cls-3" d="M958.49,979.44c-5.75-19.16,15.33-23,21.08-21.08s9.58-9.58,9.58-9.58,1.32-12.11,20.12-16.29c17.25-3.84,24.92,1.91,24.92,1.91s-57.87-23.95-74.75-3.83a109.21,109.21,0,0,1-38,28.72L947,988.8Z"/><path class="cls-4" d="M881,905.26h189.89a89.66,89.66,0,0,1,89.66,89.66v244.27a0,0,0,0,1,0,0H949.76a99.36,99.36,0,0,1-99.36-99.36V935.89A30.64,30.64,0,0,1,881,905.26Z" transform="translate(2077.72 66.73) rotate(90)"/><path class="cls-2" d="M596.26,1012s-324.88,288.26-102.17,385.39c0,0,530.84,45.21,591.12-10.05s41.87-232.76-144-403.57S596.26,1012,596.26,1012Z"/><path class="cls-3" d="M423.78,1249.67s23-24.91,36.41,1.92c9.92,19.83,18.79,64.81,22.74,86.91a4.82,4.82,0,0,1-7.62,4.73c-11.21-8.35-30.26-20.06-47.7-18.81C400.78,1326.33,423.78,1249.67,423.78,1249.67Z"/><path class="cls-5" d="M492.77,1378.08s400.38,17.85,414.84,16.59-5.72,23.62-31.08,21.72-377.28-16.9-382.44-19S492.77,1378.08,492.77,1378.08Z"/><path class="cls-3" d="M837.75,979.44s184,145.66,207,398.64c0,0,54.39,43.11,71.27-55.1,0,0,26.58-166.32-194.83-358.42h0Z"/><path class="cls-3" d="M647.05,976.57s34.5,1.91,47.91,32.58,122.66,59.41,174.41,30.66,72.83-13.41,72.83-13.41l-47.92-49.83L647.05,961.76Z"/><path class="cls-6" d="M597.62,1012.93s-324.89,288.26-102.17,385.38c0,0,530.83,45.21,591.12-10s41.86-232.76-144-403.57S597.62,1012.93,597.62,1012.93Z"/><path class="cls-2" d="M510.91,1399.19c-5.07-9.38-140.18-1.66-195.43,13.18s-54.41-28-54.41-28l-13.2-78.2s-15.6-61.61,23.19-67.23,42.13,50.14,47.29,79.46,42,18.87,42,18.87l99.88-14.76"/><path class="cls-5" d="M322.2,1403s89.86-39.32,181-24.45l4.18,18.75Z"/><path class="cls-3" d="M299.2,1259.25s-11.49-38.33-13.41-13.41c0,0,9.58,82.41,26.83,101.57,19.53,21.7,92-9.58,92-9.58s-74.74,5.75-80.49-3.83S299.2,1259.25,299.2,1259.25Z"/><path class="cls-7" d="M456.36,1324.42l-96.62,13.75s-36.79,10.43-41.95-18.88-8.51-85.07-47.3-79.45-23.18,67.22-23.18,67.22l13.2,78.2s-.83,42.84,54.41,28,190.36-22.55,195.43-13.18"/><path class="cls-2" d="M885.88,1412s84.52,14.09,104.24,28.17,78.89,0,76.08-14.08S1122.55,1234.49,1007,1288c0,0-31,33.81-25.36,84.52"/><path class="cls-8" d="M978.61,1367.54s14.22-76,27.71-75.87c7.26.09,45.12-10.38,31.7-4.63-8.17,3.51-20.86,41.94-24,56.54-4.53,21.4-3.77,45.12-8.62,48.87S990.11,1380,978.61,1367.54Z"/><path class="cls-5" d="M1017.9,1441.32c4.61,1.16,2.69-22,3.12-26.68l8.38-92.14s13-64.41,44.08-15.33c1.37,2.17.36-6.35.88-3.82,3,14.64,11.05,68.9-20,124.56,0,0-12.63,31.45-107.89-2.48,0,0-51.18-3.27-51.18-18.6,0-5.44,13.42-11.5,13.42-11.5s57.2,2.71,61.32,9.58c5.75,9.58,5.13,14.46,23,19.16C1003.36,1426.81,1002.57,1437.49,1017.9,1441.32Z"/><path class="cls-7" d="M891.41,1414.49s78.54,11.14,98.26,25.22,70.87-.69,76.07-14.08c5.82-15,46.31-161.28-32.29-147.14-18.52,3.32-34,15.91-42,32.94a112.88,112.88,0,0,0-10.27,60.66"/><path class="cls-2" d="M1255.43,523.76a356.18,356.18,0,0,1-7.63,55.73c-34.71,158.68-164.09,266.23-259.58,333.37-38.32,26.91-71.2,47.36-90.3,62a113.63,113.63,0,0,0-12.11,10.36c-47.68,49-96.67,48-134.57,33.93a183.2,183.2,0,0,1-40.82-21.92c-6.46-4.57-11.92-9-16.26-12.71a81.67,81.67,0,0,0-27.3-15.64c-58.27-19.69-258.17-98.1-315.73-263.6-21.05-60.55-29-113.24-30-157.08a413.64,413.64,0,0,1,1.75-47.53c8.14-43.31,34-83.6,73.22-118.28,83.51-73.87,227.77-122.67,391.72-122.67a784.33,784.33,0,0,1,149.67,14.14C1119.07,309.26,1250.7,407.43,1255.43,523.76Z"/><path class="cls-3" d="M838.53,261.26S1539.19,496.48,809,1010.11c0,0-42.06,4.17-20.07,17.42s100-45.31,100-45.31,224.42-156.77,228.46-176.56S1339.87,611.47,1215.3,416C1215.3,416,1061.63,257.94,838.53,261.26Z"/><path class="cls-2" d="M637.08,1089.18s0,184-6.56,226.14-19.66-7.66-19.66-7.66S592.29,1392,577,1315.32s19.67-226.14,19.67-226.14-10.12-16.21-22.75,12.54"/><path d="M637.08,1089.18c.77,11.42,1.35,22.84,1.84,34.27s.89,22.85,1.25,34.28q1.08,34.29,1.11,68.62c0,22.9-.25,45.76-1.46,68.82-.42,5.8-.71,11.54-1.46,17.52-.18,1.48-.3,3-.52,4.45s-.47,3-.77,4.54-.63,3.07-1.06,4.69a36.05,36.05,0,0,1-1.72,5.1,21.77,21.77,0,0,1-1.59,3,13,13,0,0,1-3.65,3.77,10.51,10.51,0,0,1-3.86,1.56,9.69,9.69,0,0,1-2.33.13,10.36,10.36,0,0,1-1.12-.12c-.34-.06-.68-.14-1-.23A11.08,11.08,0,0,1,619,1339a14.59,14.59,0,0,1-1.36-.76c-.36-.24-.73-.51-1.06-.76s-.59-.5-.86-.75a18.49,18.49,0,0,1-2.36-2.69,28.69,28.69,0,0,1-1.6-2.42,49.23,49.23,0,0,1-2.35-4.52c-1.36-2.94-2.45-5.8-3.45-8.67-.51-1.43-1-2.86-1.43-4.3s-.87-2.82-1.3-4.41l15.38-.31c-.78,3.43-1.59,6.59-2.49,9.86s-1.89,6.47-3,9.71-2.3,6.47-3.76,9.75c-.73,1.64-1.52,3.28-2.45,5a36.6,36.6,0,0,1-3.36,5.15c-.33.44-.76.9-1.14,1.35s-.85.91-1.37,1.37a16.48,16.48,0,0,1-3.94,2.71,12.64,12.64,0,0,1-6.4,1.22,12.11,12.11,0,0,1-3.36-.74c-.48-.19-1-.4-1.42-.63a12.47,12.47,0,0,1-1.21-.72,14.47,14.47,0,0,1-2-1.53c-.56-.52-1-1-1.5-1.54s-.8-1-1.17-1.48l-1-1.44a42.29,42.29,0,0,1-2.8-5.39,85.26,85.26,0,0,1-3.51-10.16c-1-3.32-1.75-6.62-2.44-9.91-.37-1.64-.67-3.28-1-4.92l-.84-5-.42-2.52c-.13-.83-.22-1.67-.32-2.5l-.62-5c-.34-3.34-.61-6.67-.86-10s-.37-6.65-.41-10c-.34-13.26.1-26.43,1-39.52a705.93,705.93,0,0,1,10.33-77.64l1.82-9.6,1.94-9.56c1.33-6.38,2.69-12.74,4.18-19.07,3-12.67,6-25.29,9.6-37.82l.24,1.46a8.84,8.84,0,0,0-1-1.37,10.28,10.28,0,0,0-1.24-1.23,6.62,6.62,0,0,0-2.95-1.44c-2.13-.4-4.51.72-6.49,2.38a30.25,30.25,0,0,0-5.25,6.08,82.27,82.27,0,0,0-4.2,7.1,66.62,66.62,0,0,1,3.27-7.65,31.87,31.87,0,0,1,4.74-7,14.42,14.42,0,0,1,3.54-2.79,8.93,8.93,0,0,1,4.72-1.06,9.7,9.7,0,0,1,4.63,1.64,12.79,12.79,0,0,1,1.86,1.49,12.3,12.3,0,0,1,1.62,1.84l.4.56-.15.91c-4.41,25.47-8.08,51.11-11.22,76.71-1.52,12.81-2.94,25.62-4,38.44s-2,25.63-2.46,38.42-.54,25.55.07,38.18c.12,3.17.43,6.3.63,9.44s.58,6.25.94,9.35l.64,4.62c.11.77.2,1.55.33,2.31l.42,2.27.83,4.55c.33,1.53.64,3.07,1,4.58.69,3,1.45,6,2.29,8.94a71.22,71.22,0,0,0,2.86,8.19,28.79,28.79,0,0,0,1.67,3.22c.14.19.27.38.39.58a4.18,4.18,0,0,1,.34.42l.2.2s0,.06-.06,0-.08,0-.18-.09a1.09,1.09,0,0,0-.31-.14,3.37,3.37,0,0,0-1-.22,3.45,3.45,0,0,0-1.7.28c-.43.23.22-.13.79-.94a35.84,35.84,0,0,0,3.78-6.73c1.19-2.64,2.27-5.47,3.26-8.36s1.91-5.87,2.77-8.86,1.65-6.09,2.31-9l7.14-31,8.24,30.73a108,108,0,0,0,5.06,14.95,34.46,34.46,0,0,0,1.54,3.1,13.7,13.7,0,0,0,.74,1.17c.21.3.42.55.42.55l0-.05a1.74,1.74,0,0,0-.2-.13,2.13,2.13,0,0,0-.43-.23,4,4,0,0,0-.74-.28,3.86,3.86,0,0,0-.49-.1,3.81,3.81,0,0,0-.59-.07,4.92,4.92,0,0,0-1.26.08,5.16,5.16,0,0,0-1.9.74c-.79.56-.78.74-.75.67a5.82,5.82,0,0,0,.41-.78,23.67,23.67,0,0,0,1.07-3c.33-1.14.63-2.38.91-3.64s.53-2.57.76-3.89.37-2.7.56-4c.82-5.33,1.24-11,1.8-16.58s.9-11.28,1.31-16.93l1.07-17,1-17,.91-17.08,3.49-68.4c.64-11.4,1.14-22.82,1.85-34.23S636.29,1100.59,637.08,1089.18Z"/><path class="cls-2" d="M921.23,1094.39c-17.39-28.75-31.31-12.54-31.31-12.54S938,1231.34,917,1308s-46.62-7.67-46.62-7.67-18,49.83-27.07,7.67-9-226.15-9-226.15"/><path d="M921.23,1094.39a69.49,69.49,0,0,0-6.23-7.69,29.68,29.68,0,0,0-7.55-6,13.39,13.39,0,0,0-8.66-1.66,11.67,11.67,0,0,0-4,1.51,13.66,13.66,0,0,0-1.76,1.25c-.27.24-.54.48-.79.73s-.51.54-.64.7l.43-2.11a727.33,727.33,0,0,1,23,77c6.21,26.11,11.18,52.63,13.46,79.68a279.58,279.58,0,0,1,.75,41c-.25,3.45-.42,6.89-.91,10.35-.21,1.73-.39,3.46-.64,5.19l-.89,5.19-.45,2.6-.6,2.59-1.21,5.18c-.91,3.35-1.87,6.69-3,10a100.09,100.09,0,0,1-4,10.1,47.86,47.86,0,0,1-6.19,10.24,24.28,24.28,0,0,1-5.42,5,18,18,0,0,1-4.05,2c-.38.13-.76.25-1.15.36l-1.23.25a16.05,16.05,0,0,1-2.51.25,17.65,17.65,0,0,1-8.79-2.37,26.06,26.06,0,0,1-5.65-4.4,50.71,50.71,0,0,1-7.14-9.45,102,102,0,0,1-5.07-9.6c-1.5-3.22-2.85-6.46-4.11-9.72q-.93-2.44-1.8-4.91c-.58-1.68-1.12-3.25-1.67-5.09l15,.4c-.61,1.61-1.16,3-1.78,4.41s-1.25,2.83-1.92,4.24a88.9,88.9,0,0,1-4.54,8.42,49.51,49.51,0,0,1-2.92,4.23,30.14,30.14,0,0,1-4,4.33,19.56,19.56,0,0,1-3,2.15,13.93,13.93,0,0,1-4.58,1.64,12,12,0,0,1-5.89-.51,12.93,12.93,0,0,1-4.42-2.64,19.81,19.81,0,0,1-4.19-5.65,38.36,38.36,0,0,1-2.12-5,71.14,71.14,0,0,1-2.42-9.37l-1.43-9.1c-.37-3-.62-5.92-.91-8.88l-.43-4.43-.29-4.39-.57-8.78c-.34-5.85-.56-11.67-.8-17.51l-.49-17.47c-.14-5.82-.17-11.64-.26-17.45q-.33-34.89.59-69.73c.3-11.62.59-23.23,1.11-34.84s1-23.21,1.77-34.81q1.17,17.4,2.16,34.78l2,34.76,4,69.42,1.11,17.32,1.22,17.29,1.43,17.22.85,8.56.42,4.28.55,4.21c.38,2.8.69,5.65,1.1,8.41l1.45,8.06a56.52,56.52,0,0,0,2.09,7.42,22.47,22.47,0,0,0,1.31,3,5.64,5.64,0,0,0,.93,1.33,1.88,1.88,0,0,0-.73-.41,3.32,3.32,0,0,0-1.6-.16,2.45,2.45,0,0,0-.53.14s.25-.18.5-.4a15.07,15.07,0,0,0,1.84-2.1,34.54,34.54,0,0,0,2-3,71.7,71.7,0,0,0,3.61-6.94c.56-1.22,1.1-2.46,1.61-3.71s1-2.57,1.43-3.68l7.84-21.77,7.14,22.17c.44,1.35,1,2.93,1.49,4.4s1.09,3,1.67,4.46c1.15,3,2.38,5.87,3.71,8.69a86.26,86.26,0,0,0,4.29,8.05,36,36,0,0,0,4.87,6.47,10.69,10.69,0,0,0,2.17,1.78,5.7,5.7,0,0,0,.72.32c-.07,0,0,.06.44-.23a9,9,0,0,0,1.86-1.78,33,33,0,0,0,4.09-6.85,90.26,90.26,0,0,0,3.4-8.48c1-2.94,2-6,2.84-9.07l1.12-4.54.57-2.27.43-2.32.87-4.65c.25-1.57.43-3.15.65-4.73.48-3.14.73-6.35,1-9.54a292.15,292.15,0,0,0,.32-38.94c-1.41-26.16-5-52.4-9.68-78.48-2.32-13-4.95-26-7.77-39s-5.87-26-9.2-38.78l-.34-1.31.77-.8a12.45,12.45,0,0,1,1.13-1c.37-.3.75-.58,1.14-.85a18,18,0,0,1,2.45-1.39,15.19,15.19,0,0,1,5.42-1.44,14.65,14.65,0,0,1,5.49.65,17.86,17.86,0,0,1,4.8,2.35,31.18,31.18,0,0,1,7.26,7.19A59.57,59.57,0,0,1,921.23,1094.39Z"/><path class="cls-9" d="M1256.11,523.08a356,356,0,0,1-7.63,55.73C1213.76,737.5,1084.38,845,988.9,912.18c-38.32,26.91-71.2,47.36-90.3,62a113.81,113.81,0,0,0-12.12,10.37c-47.67,49-96.67,48-134.56,33.92a183.1,183.1,0,0,1-40.83-21.92c-6.45-4.56-11.92-9-16.25-12.71a81.79,81.79,0,0,0-27.31-15.63c-58.26-19.7-258.16-98.11-315.73-263.61-21-60.55-29-113.24-30-157.08A413.77,413.77,0,0,1,323.57,500c8.15-43.3,34-83.59,73.23-118.28C480.31,307.8,624.57,259,788.52,259a785,785,0,0,1,149.66,14.14C1119.74,308.59,1251.38,406.75,1256.11,523.08Z"/><ellipse class="cls-2" cx="501.5" cy="733.78" rx="183.5" ry="181.22"/><ellipse class="cls-2" cx="1014.92" cy="723.89" rx="176.16" ry="173.97"/><path class="cls-3" d="M1044.34,551.34s159.14,154.89,43.9,329.78c0,0,116.39-50.16,101.58-179.14C1189.82,702,1190.69,592.67,1044.34,551.34Z"/><path class="cls-3" d="M685.26,733.47c0,100.09-82.15,181.22-183.5,181.22a186.41,186.41,0,0,1-29.71-2.37C559.82,898.77,627,823.78,627,733.29c0-90.09-66.57-164.83-153.78-178.85a186.81,186.81,0,0,1,28.57-2.19C603.11,552.25,685.26,633.39,685.26,733.47Z"/><path class="cls-2" d="M880.1,904.65H1070a89.66,89.66,0,0,1,89.66,89.66v244.27a0,0,0,0,1,0,0H948.82a99.36,99.36,0,0,1-99.36-99.36V935.29A30.64,30.64,0,0,1,880.1,904.65Z" transform="translate(2076.18 67.06) rotate(90)"/><path class="cls-3" d="M925.9,975.61a138.14,138.14,0,0,1,19.47,2.21c6.44,1.13,12.82,2.6,19.14,4.32a235.51,235.51,0,0,1,37,13.62,215.56,215.56,0,0,1,34.48,20.13,184.5,184.5,0,0,1,30.25,27,155.83,155.83,0,0,1,23.23,33.87,146.66,146.66,0,0,1,7.89,19.07,137.1,137.1,0,0,1,4.94,20c.27,1.69.55,3.37.78,5.06l.53,5.07c.2,1.69.28,3.39.38,5.08s.22,3.37.2,5.07a145.79,145.79,0,0,1-1.08,20.08,143.47,143.47,0,0,1-3.94,19.45,127.74,127.74,0,0,1-6.56,18.5c-.12-3.29,0-6.5-.1-9.72s-.08-6.41-.26-9.58l-.21-4.74-.34-4.72-.17-2.34-.23-2.33-.47-4.64c-.45-3.08-.72-6.14-1.31-9.17-.29-1.51-.46-3-.76-4.53l-.91-4.48a168.4,168.4,0,0,0-11.1-34.07,176.82,176.82,0,0,0-8.15-15.71,182.77,182.77,0,0,0-21-28.52c-15.85-17.78-35-33-55.64-46.65-10.31-6.86-21.06-13.25-32.09-19.42S937.58,981.4,925.9,975.61Z"/><path class="cls-3" d="M947,941.11a144,144,0,0,1,19.43,2.24c6.43,1.13,12.8,2.59,19.12,4.28a249.27,249.27,0,0,1,37,13.27,236.24,236.24,0,0,1,34.72,19.31,206.67,206.67,0,0,1,31.07,25.56,184.4,184.4,0,0,1,13.5,15.21c2.12,2.65,4.12,5.41,6.1,8.18s3.84,5.63,5.58,8.57c.91,1.44,1.76,2.92,2.59,4.41s1.69,3,2.45,4.5,1.57,3,2.32,4.56l2.13,4.66a151.75,151.75,0,0,1,6.92,19.21c.46,1.63.87,3.28,1.28,4.93s.77,3.3,1.1,5,.71,3.3,1,5,.51,3.34.75,5a142.12,142.12,0,0,1,1.2,20c0,1.67-.09,3.33-.17,5s-.11,3.31-.3,5c-.36,3.3-.61,6.57-1.21,9.82a122.49,122.49,0,0,1-4.5,19.1c-1.47-13-3.11-25.51-6-37.57l-1.09-4.51c-.39-1.49-.83-3-1.24-4.44l-.62-2.21-.68-2.2c-.46-1.45-.88-2.91-1.38-4.35-2-5.77-4.17-11.38-6.6-16.87-9.81-21.92-23.92-41.27-40.81-58.32s-36.5-31.81-57.36-45.23C1002.82,971.42,992,965.1,981,959S958.63,947,947,941.11Z"/><path class="cls-3" d="M1005.44,924.82S1130,951.65,1153,1083.89c0,0,13.37-120.66,0-128.4C1116.6,934.4,1188,925.78,1005.44,924.82Z"/><path class="cls-3" d="M958.49,979.44c-5.75-19.16,15.33-23,21.08-21.08s9.58-9.58,9.58-9.58,1.32-12.11,20.12-16.29c17.25-3.84,24.92,1.91,24.92,1.91s-57.87-23.95-74.75-3.83a109.21,109.21,0,0,1-38,28.72L947,988.8Z"/><path class="cls-4" d="M881,905.26h189.89a89.66,89.66,0,0,1,89.66,89.66v244.27a0,0,0,0,1,0,0H949.76a99.36,99.36,0,0,1-99.36-99.36V935.89A30.64,30.64,0,0,1,881,905.26Z" transform="translate(2077.72 66.73) rotate(90)"/><path class="cls-2" d="M596.26,1012s-324.88,288.26-102.17,385.39c0,0,530.84,45.21,591.12-10.05s41.87-232.76-144-403.57S596.26,1012,596.26,1012Z"/><path class="cls-3" d="M423.78,1249.67s23-24.91,36.41,1.92c9.92,19.83,18.79,64.81,22.74,86.91a4.82,4.82,0,0,1-7.62,4.73c-11.21-8.35-30.26-20.06-47.7-18.81C400.78,1326.33,423.78,1249.67,423.78,1249.67Z"/><path class="cls-5" d="M492.77,1378.08s400.38,17.85,414.84,16.59-5.72,23.62-31.08,21.72-377.28-16.9-382.44-19S492.77,1378.08,492.77,1378.08Z"/><path class="cls-3" d="M837.75,979.44s184,145.66,207,398.64c0,0,54.39,43.11,71.27-55.1,0,0,26.58-166.32-194.83-358.42h0Z"/><path class="cls-3" d="M647.05,976.57s34.5,1.91,47.91,32.58,122.66,59.41,174.41,30.66,72.83-13.41,72.83-13.41l-47.92-49.83L647.05,961.76Z"/><path class="cls-6" d="M597.62,1012.93s-324.89,288.26-102.17,385.38c0,0,530.83,45.21,591.12-10s41.86-232.76-144-403.57S597.62,1012.93,597.62,1012.93Z"/><path class="cls-2" d="M510.91,1399.19c-5.07-9.38-140.18-1.66-195.43,13.18s-54.41-28-54.41-28l-13.2-78.2s-15.6-61.61,23.19-67.23,42.13,50.14,47.29,79.46,42,18.87,42,18.87l99.88-14.76"/><path class="cls-5" d="M322.2,1403s89.86-39.32,181-24.45l4.18,18.75Z"/><path class="cls-3" d="M299.2,1259.25s-11.49-38.33-13.41-13.41c0,0,9.58,82.41,26.83,101.57,19.53,21.7,92-9.58,92-9.58s-74.74,5.75-80.49-3.83S299.2,1259.25,299.2,1259.25Z"/><path class="cls-7" d="M456.36,1324.42l-96.62,13.75s-36.79,10.43-41.95-18.88-8.51-85.07-47.3-79.45-23.18,67.22-23.18,67.22l13.2,78.2s-.83,42.84,54.41,28,190.36-22.55,195.43-13.18"/><path class="cls-2" d="M885.88,1412s84.52,14.09,104.24,28.17,78.89,0,76.08-14.08S1122.55,1234.49,1007,1288c0,0-31,33.81-25.36,84.52"/><path class="cls-8" d="M978.61,1367.54s14.22-76,27.71-75.87c7.26.09,45.12-10.38,31.7-4.63-8.17,3.51-20.86,41.94-24,56.54-4.53,21.4-3.77,45.12-8.62,48.87S990.11,1380,978.61,1367.54Z"/><path class="cls-5" d="M1017.9,1441.32c4.61,1.16,2.69-22,3.12-26.68l8.38-92.14s13-64.41,44.08-15.33c1.37,2.17.36-6.35.88-3.82,3,14.64,11.05,68.9-20,124.56,0,0-12.63,31.45-107.89-2.48,0,0-51.18-3.27-51.18-18.6,0-5.44,13.42-11.5,13.42-11.5s57.2,2.71,61.32,9.58c5.75,9.58,5.13,14.46,23,19.16C1003.36,1426.81,1002.57,1437.49,1017.9,1441.32Z"/><path class="cls-7" d="M891.41,1414.49s78.54,11.14,98.26,25.22,70.87-.69,76.07-14.08c5.82-15,46.31-161.28-32.29-147.14-18.52,3.32-34,15.91-42,32.94a112.88,112.88,0,0,0-10.27,60.66"/><path class="cls-2" d="M1255.43,523.76a356.18,356.18,0,0,1-7.63,55.73c-34.71,158.68-164.09,266.23-259.58,333.37-38.32,26.91-71.2,47.36-90.3,62a113.63,113.63,0,0,0-12.11,10.36c-47.68,49-96.67,48-134.57,33.93a183.2,183.2,0,0,1-40.82-21.92c-6.46-4.57-11.92-9-16.26-12.71a81.67,81.67,0,0,0-27.3-15.64c-58.27-19.69-258.17-98.1-315.73-263.6-21.05-60.55-29-113.24-30-157.08a413.64,413.64,0,0,1,1.75-47.53c8.14-43.31,34-83.6,73.22-118.28,83.51-73.87,227.77-122.67,391.72-122.67a784.33,784.33,0,0,1,149.67,14.14C1119.07,309.26,1250.7,407.43,1255.43,523.76Z"/><path class="cls-3" d="M838.53,261.26S1539.19,496.48,809,1010.11c0,0-42.06,4.17-20.07,17.42s100-45.31,100-45.31,224.42-156.77,228.46-176.56S1339.87,611.47,1215.3,416C1215.3,416,1061.63,257.94,838.53,261.26Z"/><path class="cls-2" d="M637.08,1089.18s0,184-6.56,226.14-19.66-7.66-19.66-7.66S592.29,1392,577,1315.32s19.67-226.14,19.67-226.14-10.12-16.21-22.75,12.54"/><path d="M637.08,1089.18c.77,11.42,1.35,22.84,1.84,34.27s.89,22.85,1.25,34.28q1.08,34.29,1.11,68.62c0,22.9-.25,45.76-1.46,68.82-.42,5.8-.71,11.54-1.46,17.52-.18,1.48-.3,3-.52,4.45s-.47,3-.77,4.54-.63,3.07-1.06,4.69a36.05,36.05,0,0,1-1.72,5.1,21.77,21.77,0,0,1-1.59,3,13,13,0,0,1-3.65,3.77,10.51,10.51,0,0,1-3.86,1.56,9.69,9.69,0,0,1-2.33.13,10.36,10.36,0,0,1-1.12-.12c-.34-.06-.68-.14-1-.23A11.08,11.08,0,0,1,619,1339a14.59,14.59,0,0,1-1.36-.76c-.36-.24-.73-.51-1.06-.76s-.59-.5-.86-.75a18.49,18.49,0,0,1-2.36-2.69,28.69,28.69,0,0,1-1.6-2.42,49.23,49.23,0,0,1-2.35-4.52c-1.36-2.94-2.45-5.8-3.45-8.67-.51-1.43-1-2.86-1.43-4.3s-.87-2.82-1.3-4.41l15.38-.31c-.78,3.43-1.59,6.59-2.49,9.86s-1.89,6.47-3,9.71-2.3,6.47-3.76,9.75c-.73,1.64-1.52,3.28-2.45,5a36.6,36.6,0,0,1-3.36,5.15c-.33.44-.76.9-1.14,1.35s-.85.91-1.37,1.37a16.48,16.48,0,0,1-3.94,2.71,12.64,12.64,0,0,1-6.4,1.22,12.11,12.11,0,0,1-3.36-.74c-.48-.19-1-.4-1.42-.63a12.47,12.47,0,0,1-1.21-.72,14.47,14.47,0,0,1-2-1.53c-.56-.52-1-1-1.5-1.54s-.8-1-1.17-1.48l-1-1.44a42.29,42.29,0,0,1-2.8-5.39,85.26,85.26,0,0,1-3.51-10.16c-1-3.32-1.75-6.62-2.44-9.91-.37-1.64-.67-3.28-1-4.92l-.84-5-.42-2.52c-.13-.83-.22-1.67-.32-2.5l-.62-5c-.34-3.34-.61-6.67-.86-10s-.37-6.65-.41-10c-.34-13.26.1-26.43,1-39.52a705.93,705.93,0,0,1,10.33-77.64l1.82-9.6,1.94-9.56c1.33-6.38,2.69-12.74,4.18-19.07,3-12.67,6-25.29,9.6-37.82l.24,1.46a8.84,8.84,0,0,0-1-1.37,10.28,10.28,0,0,0-1.24-1.23,6.62,6.62,0,0,0-2.95-1.44c-2.13-.4-4.51.72-6.49,2.38a30.25,30.25,0,0,0-5.25,6.08,82.27,82.27,0,0,0-4.2,7.1,66.62,66.62,0,0,1,3.27-7.65,31.87,31.87,0,0,1,4.74-7,14.42,14.42,0,0,1,3.54-2.79,8.93,8.93,0,0,1,4.72-1.06,9.7,9.7,0,0,1,4.63,1.64,12.79,12.79,0,0,1,1.86,1.49,12.3,12.3,0,0,1,1.62,1.84l.4.56-.15.91c-4.41,25.47-8.08,51.11-11.22,76.71-1.52,12.81-2.94,25.62-4,38.44s-2,25.63-2.46,38.42-.54,25.55.07,38.18c.12,3.17.43,6.3.63,9.44s.58,6.25.94,9.35l.64,4.62c.11.77.2,1.55.33,2.31l.42,2.27.83,4.55c.33,1.53.64,3.07,1,4.58.69,3,1.45,6,2.29,8.94a71.22,71.22,0,0,0,2.86,8.19,28.79,28.79,0,0,0,1.67,3.22c.14.19.27.38.39.58a4.18,4.18,0,0,1,.34.42l.2.2s0,.06-.06,0-.08,0-.18-.09a1.09,1.09,0,0,0-.31-.14,3.37,3.37,0,0,0-1-.22,3.45,3.45,0,0,0-1.7.28c-.43.23.22-.13.79-.94a35.84,35.84,0,0,0,3.78-6.73c1.19-2.64,2.27-5.47,3.26-8.36s1.91-5.87,2.77-8.86,1.65-6.09,2.31-9l7.14-31,8.24,30.73a108,108,0,0,0,5.06,14.95,34.46,34.46,0,0,0,1.54,3.1,13.7,13.7,0,0,0,.74,1.17c.21.3.42.55.42.55l0-.05a1.74,1.74,0,0,0-.2-.13,2.13,2.13,0,0,0-.43-.23,4,4,0,0,0-.74-.28,3.86,3.86,0,0,0-.49-.1,3.81,3.81,0,0,0-.59-.07,4.92,4.92,0,0,0-1.26.08,5.16,5.16,0,0,0-1.9.74c-.79.56-.78.74-.75.67a5.82,5.82,0,0,0,.41-.78,23.67,23.67,0,0,0,1.07-3c.33-1.14.63-2.38.91-3.64s.53-2.57.76-3.89.37-2.7.56-4c.82-5.33,1.24-11,1.8-16.58s.9-11.28,1.31-16.93l1.07-17,1-17,.91-17.08,3.49-68.4c.64-11.4,1.14-22.82,1.85-34.23S636.29,1100.59,637.08,1089.18Z"/><path class="cls-2" d="M921.23,1094.39c-17.39-28.75-31.31-12.54-31.31-12.54S938,1231.34,917,1308s-46.62-7.67-46.62-7.67-18,49.83-27.07,7.67-9-226.15-9-226.15"/><path d="M921.23,1094.39a69.49,69.49,0,0,0-6.23-7.69,29.68,29.68,0,0,0-7.55-6,13.39,13.39,0,0,0-8.66-1.66,11.67,11.67,0,0,0-4,1.51,13.66,13.66,0,0,0-1.76,1.25c-.27.24-.54.48-.79.73s-.51.54-.64.7l.43-2.11a727.33,727.33,0,0,1,23,77c6.21,26.11,11.18,52.63,13.46,79.68a279.58,279.58,0,0,1,.75,41c-.25,3.45-.42,6.89-.91,10.35-.21,1.73-.39,3.46-.64,5.19l-.89,5.19-.45,2.6-.6,2.59-1.21,5.18c-.91,3.35-1.87,6.69-3,10a100.09,100.09,0,0,1-4,10.1,47.86,47.86,0,0,1-6.19,10.24,24.28,24.28,0,0,1-5.42,5,18,18,0,0,1-4.05,2c-.38.13-.76.25-1.15.36l-1.23.25a16.05,16.05,0,0,1-2.51.25,17.65,17.65,0,0,1-8.79-2.37,26.06,26.06,0,0,1-5.65-4.4,50.71,50.71,0,0,1-7.14-9.45,102,102,0,0,1-5.07-9.6c-1.5-3.22-2.85-6.46-4.11-9.72q-.93-2.44-1.8-4.91c-.58-1.68-1.12-3.25-1.67-5.09l15,.4c-.61,1.61-1.16,3-1.78,4.41s-1.25,2.83-1.92,4.24a88.9,88.9,0,0,1-4.54,8.42,49.51,49.51,0,0,1-2.92,4.23,30.14,30.14,0,0,1-4,4.33,19.56,19.56,0,0,1-3,2.15,13.93,13.93,0,0,1-4.58,1.64,12,12,0,0,1-5.89-.51,12.93,12.93,0,0,1-4.42-2.64,19.81,19.81,0,0,1-4.19-5.65,38.36,38.36,0,0,1-2.12-5,71.14,71.14,0,0,1-2.42-9.37l-1.43-9.1c-.37-3-.62-5.92-.91-8.88l-.43-4.43-.29-4.39-.57-8.78c-.34-5.85-.56-11.67-.8-17.51l-.49-17.47c-.14-5.82-.17-11.64-.26-17.45q-.33-34.89.59-69.73c.3-11.62.59-23.23,1.11-34.84s1-23.21,1.77-34.81q1.17,17.4,2.16,34.78l2,34.76,4,69.42,1.11,17.32,1.22,17.29,1.43,17.22.85,8.56.42,4.28.55,4.21c.38,2.8.69,5.65,1.1,8.41l1.45,8.06a56.52,56.52,0,0,0,2.09,7.42,22.47,22.47,0,0,0,1.31,3,5.64,5.64,0,0,0,.93,1.33,1.88,1.88,0,0,0-.73-.41,3.32,3.32,0,0,0-1.6-.16,2.45,2.45,0,0,0-.53.14s.25-.18.5-.4a15.07,15.07,0,0,0,1.84-2.1,34.54,34.54,0,0,0,2-3,71.7,71.7,0,0,0,3.61-6.94c.56-1.22,1.1-2.46,1.61-3.71s1-2.57,1.43-3.68l7.84-21.77,7.14,22.17c.44,1.35,1,2.93,1.49,4.4s1.09,3,1.67,4.46c1.15,3,2.38,5.87,3.71,8.69a86.26,86.26,0,0,0,4.29,8.05,36,36,0,0,0,4.87,6.47,10.69,10.69,0,0,0,2.17,1.78,5.7,5.7,0,0,0,.72.32c-.07,0,0,.06.44-.23a9,9,0,0,0,1.86-1.78,33,33,0,0,0,4.09-6.85,90.26,90.26,0,0,0,3.4-8.48c1-2.94,2-6,2.84-9.07l1.12-4.54.57-2.27.43-2.32.87-4.65c.25-1.57.43-3.15.65-4.73.48-3.14.73-6.35,1-9.54a292.15,292.15,0,0,0,.32-38.94c-1.41-26.16-5-52.4-9.68-78.48-2.32-13-4.95-26-7.77-39s-5.87-26-9.2-38.78l-.34-1.31.77-.8a12.45,12.45,0,0,1,1.13-1c.37-.3.75-.58,1.14-.85a18,18,0,0,1,2.45-1.39,15.19,15.19,0,0,1,5.42-1.44,14.65,14.65,0,0,1,5.49.65,17.86,17.86,0,0,1,4.8,2.35,31.18,31.18,0,0,1,7.26,7.19A59.57,59.57,0,0,1,921.23,1094.39Z"/><path class="cls-9" d="M1256.11,523.08a356,356,0,0,1-7.63,55.73C1213.76,737.5,1084.38,845,988.9,912.18c-38.32,26.91-71.2,47.36-90.3,62a113.81,113.81,0,0,0-12.12,10.37c-47.67,49-96.67,48-134.56,33.92a183.1,183.1,0,0,1-40.83-21.92c-6.45-4.56-11.92-9-16.25-12.71a81.79,81.79,0,0,0-27.31-15.63c-58.26-19.7-258.16-98.11-315.73-263.61-21-60.55-29-113.24-30-157.08A413.77,413.77,0,0,1,323.57,500c8.15-43.3,34-83.59,73.23-118.28C480.31,307.8,624.57,259,788.52,259a785,785,0,0,1,149.66,14.14C1119.74,308.59,1251.38,406.75,1256.11,523.08Z"/><ellipse class="cls-2" cx="501.5" cy="733.78" rx="183.5" ry="181.22"/><ellipse class="cls-2" cx="1014.92" cy="723.89" rx="176.16" ry="173.97"/><path class="cls-3" d="M1044.34,551.34s159.14,154.89,43.9,329.78c0,0,116.39-50.16,101.58-179.14C1189.82,702,1190.69,592.67,1044.34,551.34Z"/><path class="cls-3" d="M685.26,733.47c0,100.09-82.15,181.22-183.5,181.22a186.41,186.41,0,0,1-29.71-2.37C559.82,898.77,627,823.78,627,733.29c0-90.09-66.57-164.83-153.78-178.85a186.81,186.81,0,0,1,28.57-2.19C603.11,552.25,685.26,633.39,685.26,733.47Z"/><line class="cls-10" x1="672.95" y1="990.6" x2="623.75" y2="1043.57"/><line class="cls-10" x1="642.67" y1="1053.03" x2="691.44" y2="994.18"/><line class="cls-10" x1="659.7" y1="1070.06" x2="707" y2="1009"/><line class="cls-10" x1="678.62" y1="1085.2" x2="726.87" y2="1019.92"/><line class="cls-10" x1="699.43" y1="1092.77" x2="745.79" y2="1027.49"/><line class="cls-10" x1="722.14" y1="1102.23" x2="766" y2="1035"/><line class="cls-10" x1="746.74" y1="1111.69" x2="800" y2="1039"/><line class="cls-10" x1="769.44" y1="1123.04" x2="834" y2="1034"/><line class="cls-10" x1="809.17" y1="1111.69" x2="876" y2="1011"/><line class="cls-10" x1="917.02" y1="971.68" x2="852.69" y2="1092.77"/><line class="cls-10" x1="934.05" y1="983.03" x2="884.85" y2="1087.09"/><line class="cls-10" x1="951.08" y1="1000.06" x2="913.23" y2="1087.09"/><line class="cls-10" x1="659.7" y1="981.14" x2="612.4" y2="1028.44"/><line class="cls-10" x1="608.62" y1="1003.84" x2="778.9" y2="1130.61"/><line class="cls-10" x1="623.75" y1="983.03" x2="805.39" y2="1123.04"/><line class="cls-10" x1="654.95" y1="975.85" x2="837.55" y2="1111.69"/><line class="cls-10" x1="753.36" y1="1031.28" x2="864.04" y2="1106.01"/><line class="cls-10" x1="812" y1="1038" x2="896.21" y2="1096.55"/><line class="cls-10" x1="849" y1="1027" x2="932.15" y2="1087.09"/><line class="cls-10" x1="878" y1="1011" x2="958.64" y2="1075.74"/><line class="cls-10" x1="896" y1="991" x2="968.1" y2="1043.57"/><path class="cls-11" d="M631.32,975.46s-211.91,210-215.69,287.59c0,0,391.65,58.65,579,11.35,0,0,107.85-26.49,100.28-51.08s-53-157-181.64-257.32c0,0-18.92,104.06-92.7,109.74S657.81,1083.31,631.32,975.46Z"/><path class="cls-12" d="M739.17,1287.65c-7.57-66.23,30.27-211.91,30.27-211.91"/><path class="cls-13" d="M415.63,1263.05s-13.24-39.73,17-51.09c0,0,126.76,32.17,298.94,36s354.45-48.38,354.45-48.38,15.89-.57,10.46,29.58-172.83,77.31-373.88,62.25S523.48,1283.86,415.63,1263.05Z"/><path class="cls-13" d="M696,1289.41s-16.65-36.91,6.16-42.52,39.84-12.79,44.57,1.21S776.78,1339.42,696,1289.41Z"/><path class="cls-13" d="M750.52,1253.76s86.09-8.69,59.6,80.24-27.49-37.53-56.32-52.82"/><path class="cls-13" d="M694.11,1284.54s-7.82-20.83-2.67-28.25-53.5.14-49.71,36.09S647.4,1334,656.86,1334,665.13,1265.36,694.11,1284.54Z"/><path class="cls-14" d="M463.5,1223.5s165,35,200,0C663.5,1223.5,548.5,1185.5,463.5,1223.5Z"/><path class="cls-14" d="M801.5,1229.5s110.71-39.4,215.35-8.7C1016.85,1220.8,901.5,1273.5,801.5,1229.5Z"/><path class="cls-15" d="M565.1,1075.74s-113.73,152.75-100.28,147.58c98.39-37.84,198.67,0,198.67,0s1.89-83.25,22.7-121.09"/><path d="M565.1,1075.74c-17.11,27-34.76,53.64-52.34,80.24l-13.14,20c-4.36,6.66-8.72,13.3-13,20s-8.51,13.38-12.3,20.08c-.93,1.67-1.85,3.33-2.64,4.92-.38.78-.74,1.57-1,2.17a3,3,0,0,0-.18.54l0-.15a.88.88,0,0,0,0-.16s0-.25,0-.36v-.54a4.54,4.54,0,0,0-.13-.91,5.74,5.74,0,0,0-.62-1.65,6.67,6.67,0,0,0-.72-1.07,5.67,5.67,0,0,0-1-1,6.23,6.23,0,0,0-2.37-1.16,5.8,5.8,0,0,0-1.71-.2,6.08,6.08,0,0,0-1.41.21,1.8,1.8,0,0,0-.35.12l.18-.07.36-.14,1.44-.54,2.88-1.08c1.93-.71,3.83-1.5,5.79-2.12,31.11-10.68,64.22-14.82,96.81-13.6,8.16.34,16.3.93,24.4,1.84s16.14,2.19,24.13,3.7,15.92,3.38,23.78,5.49c3.94,1,7.84,2.21,11.73,3.46q2.91.91,5.82,1.94c2,.68,3.82,1.35,5.89,2.16l-7.88,5.32c.28-5.33.73-10.48,1.21-15.69s1-10.39,1.71-15.56q1.93-15.54,5-30.91a269.33,269.33,0,0,1,7.81-30.33c3.26-9.91,7.17-19.73,12.81-28.46a107.84,107.84,0,0,0-5.21,14.55c-1.43,4.93-2.68,9.91-3.66,15-2,10.06-3.47,20.21-4.59,30.41s-1.91,20.43-2.48,30.66c-.26,5.13-.49,10.25-.66,15.37s-.26,10.27-.28,15.28a5.74,5.74,0,0,1-5.75,5.73,6.14,6.14,0,0,1-1.78-.29l-.35-.12c-1.67-.56-3.6-1.15-5.44-1.68s-3.73-1.07-5.62-1.57c-3.76-1-7.56-1.91-11.37-2.79-7.62-1.74-15.32-3.18-23-4.41a351,351,0,0,0-46.61-4.28c-31.15-.81-62.36,3-91.89,12.33-1.86.54-3.67,1.24-5.5,1.85l-2.75.94-1.37.48-1.23.41a9.32,9.32,0,0,1-2.14.35,8.1,8.1,0,0,1-2.08-.24,7.66,7.66,0,0,1-2.71-1.32,7.25,7.25,0,0,1-1.13-1.09,7.91,7.91,0,0,1-.84-1.22,8.47,8.47,0,0,1-.74-2,9.31,9.31,0,0,1-.18-1.29c0-.24,0-.39,0-.51v-.4c0-.24,0-.59.07-.73l.08-.54c.07-.39.13-.59.2-.87a17.24,17.24,0,0,1,.8-2.29c.52-1.24,1-2.25,1.56-3.24,1-2,2.09-3.77,3.18-5.54,4.36-7,8.9-13.62,13.51-20.22,9.28-13.12,18.82-26,28.53-38.65C524.17,1124.88,544.19,1100,565.1,1075.74Z"/><path class="cls-15" d="M813,1111.69S792.4,1233.47,803.5,1229c117.3-47.3,219.47,0,215.69-9.46s-90.82-138.12-90.82-138.12"/><path d="M813,1111.69l-2.85,31.52c-.91,10.49-1.87,21-2.68,31.45s-1.56,20.94-1.89,31.31a146.14,146.14,0,0,0,.19,15.16,29.2,29.2,0,0,0,.46,3.25,5.11,5.11,0,0,0,.31,1c0,.11.06.06,0-.07a3.15,3.15,0,0,0-1.11-1.16,4.44,4.44,0,0,0-1.66-.67,4.12,4.12,0,0,0-.92-.07,4.44,4.44,0,0,0-.77.08,4.74,4.74,0,0,0-.55.15l0,0,.12,0,.46-.2,1.85-.8,3.73-1.54a281.33,281.33,0,0,1,62.12-17.27,301.56,301.56,0,0,1,32.16-3.32c10.76-.51,21.55-.44,32.3.1s21.45,1.69,32.08,3.24,21.15,3.62,31.52,6c5.17,1.16,10.37,2.44,15.27,3.47,1.2.25,2.41.48,3.4.62.47.06,1,.1,1,.1s-.05,0-.72.16a5.44,5.44,0,0,0-1.87,1,6,6,0,0,0-1.51,1.71,7.06,7.06,0,0,0-.53,1.16,6.12,6.12,0,0,0-.27,1.18,5.36,5.36,0,0,0,0,1,4.38,4.38,0,0,0,.06.71c0,.19.11.49.13.58s.07.25.11.37l.07.17,0-.08-.08-.16-.34-.63-.63-1.28-1.89-3.29c-1.24-2.21-2.63-4.45-4-6.68s-2.71-4.47-4.08-6.7c-2.72-4.49-5.48-9-8.24-13.43-22.1-35.81-44.28-71.68-65.25-108.35,3.31,4.12,6.52,8.31,9.78,12.47l9.61,12.58c6.4,8.39,12.67,16.86,18.94,25.35q18.74,25.5,36.79,51.49c6,8.7,12,17.36,17.74,26.44l2.19,3.48,1.2,2.21.59,1.11.15.28.07.14a3.36,3.36,0,0,1,.16.4c.07.2.13.4.19.6a7.72,7.72,0,0,1,.17.82,6,6,0,0,1,.1,1,8.38,8.38,0,0,1-.06,1.23,7,7,0,0,1-.33,1.42,6.33,6.33,0,0,1-.63,1.38,7.31,7.31,0,0,1-1.83,2.09,7.84,7.84,0,0,1-2.76,1.38,6.44,6.44,0,0,1-.89.21l-.7.11-.59,0-.49,0a21.78,21.78,0,0,1-2.92-.14c-1.62-.17-3-.41-4.39-.65-5.44-1-10.5-2.09-15.64-3.09-10.23-2-20.41-3.88-30.66-5.23s-20.5-2.41-30.79-2.94-20.59-.67-30.87-.29-20.54,1.25-30.74,2.59a306.38,306.38,0,0,0-60,14.22l-3.64,1.3-1.82.66-.46.16-.38.14a7.59,7.59,0,0,1-1,.29,7.24,7.24,0,0,1-1.26.15,6.82,6.82,0,0,1-4-1.15,7.56,7.56,0,0,1-2.41-2.63,10.69,10.69,0,0,1-.82-1.87,16.16,16.16,0,0,1-.65-2.8,35.15,35.15,0,0,1-.38-4.6,132.62,132.62,0,0,1,.84-16.41c1.07-10.66,2.67-21.13,4.4-31.57s3.71-20.82,5.87-31.16c1.08-5.17,2.17-10.33,3.31-15.49S811.66,1116.81,813,1111.69Z"/><path class="cls-16" d="M632.27,1219.37c-.93,39.92-3.43,71.33-6,87.64-6.47,41.62-19.41-7.57-19.41-7.57s-18.36,83.25-33.46,7.57c-5.5-27.57-7.53-59.47-3.94-95.51C588.33,1213.18,614.79,1216.66,632.27,1219.37Z"/><path d="M632.27,1219.37l.29,8.45q.12,4.23.17,8.46.13,8.45,0,16.91c-.07,11.28-.48,22.56-1.15,33.86-.33,5.65-.84,11.29-1.47,17-.33,2.83-.68,5.68-1.22,8.58a43.71,43.71,0,0,1-2.43,8.89,15.07,15.07,0,0,1-1.27,2.44,8.77,8.77,0,0,1-2.55,2.64,6.26,6.26,0,0,1-2.46.94,6.11,6.11,0,0,1-2.72-.19,8.4,8.4,0,0,1-3.33-2,19.85,19.85,0,0,1-3.24-4.19c-.82-1.38-1.51-2.74-2.15-4.1a116.55,116.55,0,0,1-6-16.51l8.19-.16c-.8,3.78-1.7,7.39-2.74,11s-2.15,7.26-3.45,10.87a78.15,78.15,0,0,1-4.68,10.78,34.14,34.14,0,0,1-3.52,5.35A17.45,17.45,0,0,1,594,1341a10.64,10.64,0,0,1-4.31,2.07,8.72,8.72,0,0,1-5.52-.67,11.67,11.67,0,0,1-3.56-2.67,23.48,23.48,0,0,1-3.76-5.69,68.84,68.84,0,0,1-4.15-11.14,198.71,198.71,0,0,1-4.79-22.18,298.06,298.06,0,0,1-3.78-44.8,328.38,328.38,0,0,1,2.86-44.69l0-.17a2.49,2.49,0,0,1,2.76-2.13c5.26.63,10.51,1.3,15.74,2.1s10.44,1.61,15.66,2.46,10.41,1.81,15.6,2.76S627.1,1218.26,632.27,1219.37Zm0,0-15.77-1.48-15.75-1.41q-7.87-.7-15.75-1.31c-5.25-.38-10.49-.81-15.73-1.12l2.78-2.3a394,394,0,0,0-.5,44c.36,7.3.87,14.6,1.69,21.86s1.91,14.47,3.19,21.65a213.11,213.11,0,0,0,4.8,21.15,60.09,60.09,0,0,0,3.61,9.63,16.09,16.09,0,0,0,2.3,3.57,3.32,3.32,0,0,0,.81.68c.13,0-.1,0-.11,0a1.84,1.84,0,0,0,.63-.36,8.89,8.89,0,0,0,1.27-1.27,24.52,24.52,0,0,0,2.57-3.91,76,76,0,0,0,4.23-9.54,193.39,193.39,0,0,0,6.24-20.69l0-.12a4.21,4.21,0,0,1,8.16,0,110.44,110.44,0,0,0,5.09,15.35c.53,1.2,1.09,2.36,1.68,3.42a13.28,13.28,0,0,0,1.79,2.55c.24.25.46.33.2.24a1.6,1.6,0,0,0-.64,0,1.38,1.38,0,0,0-.5.18c-.12.11.12-.06.33-.39a8.78,8.78,0,0,0,.73-1.27,37.74,37.74,0,0,0,2.29-7.28c.61-2.61,1.06-5.33,1.52-8.07.9-5.48,1.57-11,2.29-16.58,1.4-11.11,2.46-22.3,3.54-33.49Z"/><path class="cls-16" d="M920.38,1308.44c-23.92,75.64-52.59-7.57-52.59-7.57s-20.36,49.19-30.52,7.57c-3.89-15.91-5.79-46.28-7.28-85.12,24.92-11.36,66.44-12.77,95.1-11.36C932.13,1256.64,929.13,1280.74,920.38,1308.44Z"/><path d="M920.38,1308.44a106.68,106.68,0,0,1-8.88,21.4,28.11,28.11,0,0,1-7.61,8.83,11.83,11.83,0,0,1-5.62,2.12,12.3,12.3,0,0,1-6-1.07,28,28,0,0,1-9.37-7.39,73.78,73.78,0,0,1-7-9.51q-3.15-5-5.86-10.24c-1.8-3.51-3.51-7-5.07-10.72l5.66.17c-1.05,2.89-2.17,5.6-3.44,8.35a76.44,76.44,0,0,1-4.27,8.08,36.12,36.12,0,0,1-6.12,7.76,15.82,15.82,0,0,1-5.21,3.26,11.31,11.31,0,0,1-3.83.63,10.42,10.42,0,0,1-4-.88,14.4,14.4,0,0,1-5.36-4.23,25.41,25.41,0,0,1-3-4.61,56.17,56.17,0,0,1-3.62-9c-.48-1.48-.87-3-1.28-4.48s-.74-3-1.08-4.45c-.66-3-1.23-5.9-1.71-8.84-2-11.74-3.09-23.41-4-35.06s-1.3-23.29-1.49-34.92v-.28a7.61,7.61,0,0,1,4.55-7.09,112.06,112.06,0,0,1,24.77-7.13,201.1,201.1,0,0,1,24.76-2.65c8.23-.42,16.43-.41,24.59-.12s16.3.88,24.4,1.7l.46,0a3.61,3.61,0,0,1,3.23,3.26c.73,8.2,1.24,16.41,1.47,24.63s.12,16.43-.44,24.61a182.63,182.63,0,0,1-3.34,24.26l-.62,3-.71,3c-.45,2-1,3.94-1.51,5.91C922.79,1300.67,921.6,1304.56,920.38,1308.44Zm0,0c1.17-3.89,2.32-7.8,3.3-11.75.49-2,1-4,1.33-5.94l.6-3,.51-3a134.7,134.7,0,0,0,1.73-24.22,179,179,0,0,0-2.09-24.15c-1.19-8-2.81-15.92-4.55-23.8l3.68,3.31c-8,0-15.93.33-23.85.88-4,.28-7.91.59-11.84,1s-7.86.86-11.76,1.37a232.76,232.76,0,0,0-23,4.18,110.45,110.45,0,0,0-21.25,7.09l4.54-7.37c.71,11.54,1.18,23.08,1.76,34.58s1,23,1.91,34.24a151.21,151.21,0,0,0,2.07,16.44,45.9,45.9,0,0,0,2,7.39,18.35,18.35,0,0,0,1.38,2.9A7.45,7.45,0,0,0,848,1320a1,1,0,0,0,.17.18.71.71,0,0,0,.45,0,5.9,5.9,0,0,0,2.27-1.08,27.41,27.41,0,0,0,5.27-5.32,87.48,87.48,0,0,0,8.79-14.13l.18-.35a3,3,0,0,1,5.48.52c1,3.56,2.27,7.23,3.65,10.76a114.09,114.09,0,0,0,4.61,10.44,67.81,67.81,0,0,0,5.9,9.7,26.16,26.16,0,0,0,8.14,7.52,10.58,10.58,0,0,0,5.24,1.27,10.78,10.78,0,0,0,5.2-1.66c3.23-2,5.66-5.09,7.74-8.3a65.65,65.65,0,0,0,5.27-10.29C917.89,1315.76,919.18,1312.11,920.38,1308.44Z"/><path class="cls-17" d="M994.59,1124.93s49.19-36,64.33-24.6,88.93,132.45,77.57,153.26-49.19,39.73-70,11.35S975.67,1145.74,994.59,1124.93Z"/><path class="cls-18" d="M1007.84,1121.15c-.79,1.72,58.65,119.19,87,124.87s40.33-12.13,40.33-12.13-40.33-103.28-76.28-135.45C1058.92,1098.44,1017.3,1100.33,1007.84,1121.15Z"/><path class="cls-19" d="M1049.66,1174.38a11.15,11.15,0,0,1-8.42.06c-3-1.19-6.68-2.91-8.11-4.68-2.59-3.2-23.92-45.09-23.92-45.09s-2.71-8.2,4.58-12.48,41.26-19.82,48.87-10.16,32.11,40.06,31.21,47.56C1093.14,1155.76,1061.07,1169.63,1049.66,1174.38Z"/><path class="cls-10" d="M1061.57,1160.57c2.47,4.21,6,11.35,8.26,16.15a6.21,6.21,0,0,0,7.57,3.23l5.82-1.94a5.16,5.16,0,0,0,2.85-7.46l-9.38-16.42a5.6,5.6,0,0,0-7.37-2.23l-6.07,3A4,4,0,0,0,1061.57,1160.57Z"/><path class="cls-20" d="M900,987s91.25,99.82,101.13,133.41c0,0-12,3.55-9.06,21.07s64.9,121.68,77.41,127.1,23.36,17.13,40.94,7.28S1136,1254,1136,1254s4.39-12.77-2.3-24.89-52.73-133.23-79.22-130.67S965,1005,965,1005l-52-39Z"/><path class="cls-21" d="M555.5,915.5S652.91,873.44,666,828c0,0,70.93,4,76.53-5.93s50.4-47.41,74.66,0c0,0,40.86,4.42,48.33,4.42,0,0,89,63,146,70,0,0-14.36,4-99.13,71.75-62.87,50.25-89.6,83-164.26,49.38S619,959,555.5,915.5Z"/><path class="cls-22" d="M735,847.76s-26.13,15.8-18.66,31.6,41.06,5.93,46.66,15.8,26.13,11.85,33.6,0,35.47-11.85,35.47-11.85,28-19.75-3.74-35.55c-19.19-9.56-17.25-23.13-16.34-30.62.67-5.51-4.32-12.15-9.33-13.83-11.25-3.75-24.91-8.24-46.16,5.55-5.58,3.63-7.85,10.68-6.33,17.42C751.38,831.46,749,838.87,735,847.76Z"/><path class="cls-23" d="M764.91,879.36s13.06-5.92,26.13,0c0,0-12.08-64.66-5.1-80.72,0,0-7.43-3.69-12.37,0C773.57,798.64,776.11,853.68,764.91,879.36Z"/><path class="cls-23" d="M693.5,919.5c-4.75-8.93-2.85-26.75,4-34,5.22-5.52.4,9.57,8,15,7,5,3.48,25,52.44,22.52a12.69,12.69,0,0,0,5.64-1.64c5.72-3.21,20.36-10.33,29.88-5,2.74,1.53,9.42,4.7,12.51,4.46,50.4-4,69.71-23.63,63.53-33.34-7-11,11.4-5.85,17,6s-12.81,25.26-31,62C835,997,796.64,992.88,785.07,992.07a14.09,14.09,0,0,0-2.83.12c-43.46,5.69-59.51-8.52-71.46-33.82C695.84,926.77,710.3,951.1,693.5,919.5Z"/><path class="cls-24" d="M753.71,924.79l-1.87,9.88c-1.05,4.09,1.59,9.87,5.6,9.87h11.2c6.4,0,11.2-1.53,11.2-8.3l1.56-16.15a2.45,2.45,0,0,0-2.86-2.64l-6.72,1.18a6.94,6.94,0,0,0-2.44,1l-6.68,4.25a6.18,6.18,0,0,1-3.3,1Z"/><path class="cls-24" d="M809.71,922.82v15.8c.92,3.36-2.11,5.92-5.6,5.92H789.94a10.08,10.08,0,0,1-10.1-10.06l1.32-13.78a5.18,5.18,0,0,1,6.23-4.58l.73.15a20.77,20.77,0,0,1,5.57,2.06l4.69,2.55a11.26,11.26,0,0,0,4.37,1.32Z"/><path class="cls-24" d="M811.57,922.82l11.2-2,11.2-2v9.38a5.64,5.64,0,0,1-4.07,5.52l-13.75,3.64a3.74,3.74,0,0,1-4.58-3.78Z"/><path class="cls-24" d="M751.84,926.77l-20.53-3.95-1.08,5.7a4.58,4.58,0,0,0,3.09,5.29l13,3.74a3.45,3.45,0,0,0,4.31-2.92Z"/><path class="cls-24" d="M707,905s-4.7,46.49,17.53,77.06a2.83,2.83,0,0,0,5.1-2.07c-2.28-15.36-5.59-44.44-.23-57.21C729.44,922.82,710.78,912.94,707,905Z"/><path class="cls-25" d="M835.84,918.87s-2.5,37-8.52,62.39a2.13,2.13,0,0,0,3.88,1.62C842,965.3,859,934,856.37,914.92L854.51,911S843.31,918.87,835.84,918.87Z"/><path class="cls-24" d="M764.88,978.48,778,979.75a4.18,4.18,0,0,1,3.67,4.25v6s-13.07,5.92-18.67,2L761.7,982A3,3,0,0,1,764.88,978.48Z"/><path class="cls-24" d="M783.57,988v-4.12a4.11,4.11,0,0,1,3.56-4.16l11.12-1.17a3.71,3.71,0,0,1,4,3.82V992S785.44,992,783.57,988Z"/><path class="cls-24" d="M731.31,982.07c-2.4-2.23,0-27.65,7.47-31.6,0,0,3.73,37.53,14.93,41.48C753.71,992,740.64,990.75,731.31,982.07Z"/><path class="cls-25" d="M746.24,978.12l13.07,2L761.18,992l-9.34-1S746.24,984.05,746.24,978.12Z"/><path class="cls-25" d="M820.91,952.45s0,35.55-9.34,37.53c0,0,7.47,2,13.07-2S826.51,962.32,820.91,952.45Z"/><path class="cls-25" d="M804.11,980.1l13.06-2s1.54,4.94-4.83,12.35c0,0-4.5,1.48-8.23-.49Z"/><ellipse class="cls-26" cx="503.75" cy="739.74" rx="185.74" ry="182.67"/><ellipse class="cls-26" cx="1005.48" cy="728.32" rx="179.51" ry="176.54"/><path d="M401.31,520.89a106.67,106.67,0,0,1,10.4-9.4c3.64-3,7.45-5.7,11.34-8.33a177.28,177.28,0,0,1,24.68-13.72,162.53,162.53,0,0,1,54.87-14.12,152.67,152.67,0,0,1,28.52.73l7.06,1c2.34.41,4.66.95,7,1.42,1.16.26,2.32.48,3.48.76l3.43.95c2.27.67,4.57,1.26,6.82,2a161.7,161.7,0,0,1,49.38,26.67c-16.44-8.8-33.47-16-51.13-20.63-2.21-.57-4.45-1-6.67-1.5l-3.32-.75c-1.12-.22-2.24-.38-3.36-.57-2.25-.35-4.48-.75-6.73-1.08l-6.76-.72c-2.25-.31-4.52-.32-6.78-.47l-3.39-.19c-1.13-.07-2.26,0-3.4,0-2.26,0-4.53-.06-6.79,0l-6.78.35a189.31,189.31,0,0,0-53,11.94,220.78,220.78,0,0,0-25.09,11.29c-2.06,1-4.06,2.17-6.09,3.27s-4,2.31-6,3.5c-1,.59-2,1.19-3,1.81s-2,1.24-2.93,1.88C405.12,518.22,403.2,519.53,401.31,520.89Z"/><path d="M1102.67,514.33q-3-2.05-6-3.93t-6.16-3.67q-3.12-1.77-6.26-3.46c-2.12-1.1-4.22-2.21-6.37-3.23a204.6,204.6,0,0,0-26.26-10.72,157.57,157.57,0,0,0-55.21-8.19,140.35,140.35,0,0,0-53.89,13.59c-17,8.1-32.61,19.16-47.23,31.67a157.31,157.31,0,0,1,44.36-37.27l1.59-.92,1.66-.81,3.31-1.61c2.22-1,4.39-2.21,6.71-3l6.89-2.68c2.34-.78,4.71-1.46,7.07-2.18a128.19,128.19,0,0,1,29.2-4.75,141.56,141.56,0,0,1,57.68,10.29,167.26,167.26,0,0,1,26,13.2c4.09,2.61,8.12,5.3,12,8.26A109.89,109.89,0,0,1,1102.67,514.33Z"/><ellipse class="cls-27" cx="552.75" cy="746.59" rx="104.75" ry="112.91"/><ellipse class="cls-28" cx="558.87" cy="743.87" rx="15.64" ry="25.85"/><ellipse class="cls-28" cx="605.25" cy="713.3" rx="3.64" ry="3.66" transform="translate(-295.44 460.56) rotate(-34.01)"/><path d="M589.37,696.28s22.88,6,25.84,12.93"/><path d="M589.37,696.28a20.42,20.42,0,0,1,7.92-.45,27.77,27.77,0,0,1,7.37,1.95,23.59,23.59,0,0,1,6.66,4.11,15.43,15.43,0,0,1,2.71,3.17,6.67,6.67,0,0,1,1.18,4.15,13.89,13.89,0,0,0-3.42-1.53l-3.3-1.07c-2.19-.7-4.37-1.46-6.54-2.38a52.54,52.54,0,0,1-6.41-3.21A29.35,29.35,0,0,1,589.37,696.28Z"/><ellipse class="cls-28" cx="513.28" cy="708.84" rx="3.66" ry="3.64" transform="translate(-322.94 967.03) rotate(-71.25)"/><path d="M509.34,731.78s-9.08-21.84-5.35-28.39"/><path d="M509.34,731.78a20.56,20.56,0,0,1-5.16-6,28.58,28.58,0,0,1-2.91-7,23.76,23.76,0,0,1-.75-7.8,14.94,14.94,0,0,1,.89-4.08,6.57,6.57,0,0,1,2.58-3.44,14.08,14.08,0,0,0,.85,3.65l1.15,3.27c.77,2.17,1.48,4.37,2.06,6.64a51.1,51.1,0,0,1,1.33,7A29.84,29.84,0,0,1,509.34,731.78Z"/><ellipse class="cls-28" cx="562.76" cy="806.34" rx="3.66" ry="3.64" transform="translate(-227.97 221.85) rotate(-18.62)"/><path d="M583.38,795.55S571.53,816,564.07,817"/><path d="M583.38,795.55a20.33,20.33,0,0,1-1.66,7.75,28.07,28.07,0,0,1-3.83,6.6,24,24,0,0,1-5.74,5.33,15.42,15.42,0,0,1-3.78,1.77,6.7,6.7,0,0,1-4.31,0,14.33,14.33,0,0,0,2.39-2.9l1.9-2.89c1.26-1.94,2.57-3.84,4-5.68a52.86,52.86,0,0,1,4.79-5.33A29.9,29.9,0,0,1,583.38,795.55Z"/><ellipse class="cls-29" cx="560.91" cy="749.99" rx="61.22" ry="60.1"/><ellipse class="cls-27" cx="958.67" cy="737.29" rx="98.61" ry="106.3" transform="translate(-17.31 23.08) rotate(-1.37)"/><ellipse class="cls-28" cx="952.97" cy="739.99" rx="14.73" ry="24.33" transform="translate(-17.38 22.94) rotate(-1.37)"/><ellipse class="cls-28" cx="910.01" cy="769.8" rx="3.43" ry="3.45" transform="translate(-277.65 668.99) rotate(-35.38)"/><path d="M925.34,785.46s-21.67-5.13-24.61-11.58"/><path d="M925.34,785.46a18.76,18.76,0,0,1-7.49.76,25.19,25.19,0,0,1-7-1.63,21.9,21.9,0,0,1-6.37-3.78,14.14,14.14,0,0,1-2.6-3,6.21,6.21,0,0,1-1.14-4,13.51,13.51,0,0,0,3.31,1.28l3.15.87a61.52,61.52,0,0,1,6.2,2,43.79,43.79,0,0,1,6.08,2.91A26.55,26.55,0,0,1,925.34,785.46Z"/><ellipse class="cls-28" cx="996.67" cy="771.93" rx="3.45" ry="3.43" transform="translate(-37.77 1492.46) rotate(-72.62)"/><path d="M999.86,750.25s9,20.35,5.68,26.6"/><path d="M999.86,750.25a18.54,18.54,0,0,1,5.14,5.5,25.33,25.33,0,0,1,2.94,6.57,21.57,21.57,0,0,1,.85,7.35,14.19,14.19,0,0,1-.8,3.89,6.31,6.31,0,0,1-2.45,3.29,13.87,13.87,0,0,0-1-3.41l-1.21-3a60.81,60.81,0,0,1-2.13-6.18,44.32,44.32,0,0,1-1.36-6.6A26.8,26.8,0,0,1,999.86,750.25Z"/><ellipse class="cls-28" cx="947.91" cy="681.28" rx="3.45" ry="3.43" transform="translate(-175.76 364.97) rotate(-19.98)"/><path d="M928.74,691.9s10.7-19.53,17.7-20.65"/><path d="M928.74,691.9a18.63,18.63,0,0,1,1.26-7.42,25.36,25.36,0,0,1,3.43-6.33,21.9,21.9,0,0,1,5.33-5.13,14.21,14.21,0,0,1,3.57-1.72,6.23,6.23,0,0,1,4.11,0,14,14,0,0,0-2.12,2.85l-1.66,2.81c-1.12,1.85-2.3,3.67-3.62,5.43a44.62,44.62,0,0,1-4.42,5.09A26.73,26.73,0,0,1,928.74,691.9Z"/><ellipse class="cls-29" cx="950.91" cy="734.28" rx="57.63" ry="56.58" transform="translate(-17.24 22.89) rotate(-1.37)"/><path class="cls-30" d="M543.23,634.14S646.5,715.5,552.5,859.5c0,0,104.76-8.44,104.38-125.22S543.23,634.14,543.23,634.14Z"/><path class="cls-30" d="M942.34,626.76s27.26,21.48,41,61.9c8.32,24.43,11.7,55.78,1.15,93.49-6,21.32-16.39,44.68-32.9,70,0,0,104.76-8.45,104.38-125.22S942.34,626.76,942.34,626.76Z"/><path class="cls-31" d="M1241.28,618.42c-217.93-131.3-411.8-157.06-564.87-141.6l.5-.24s-1.2-14.28-1.31-35.62c-.17-27,1.43-65.44,9.4-100.43,9.07-39.77,26.4-75.13,58.82-84.41,101.76-7.7,220.92,9.63,367.53,80.88,52.57,25.55,88.73,52.88,113.07,80.07,3.47,3.9,6.73,7.79,9.74,11.69,26.06,33.6,35,66.62,35.47,95.43C1270.6,578.84,1241.28,618.42,1241.28,618.42Z"/><path class="cls-32" d="M743.82,256.12c-32.42,9.28-49.75,44.64-58.82,84.41-31.77,5.71-56.41,14-62.12,24.12-17.37,30.88,0,90.71,0,90.71A334.14,334.14,0,0,1,675.6,441c.11,21.34,1.31,35.62,1.31,35.62l-.5.24C454.89,499.16,324.5,607.5,324.5,607.5c-32-180,88.76-260.21,228.5-308.61C610.39,279,672.86,261.47,743.82,256.12Z"/><path class="cls-33" d="M675.6,441a347.52,347.52,0,0,0-41.34,10.46,11.12,11.12,0,0,1-14.34-8.25c-4.06-19.13-9.53-56.31,3-78.52,5.71-10.15,30.35-18.41,62.12-24.12C677,375.52,675.43,413.92,675.6,441Z"/><path class="cls-34" d="M856.65,439.91c-28.15-4.37-104.61-13.54-181,1-.17-27,1.43-65.44,9.4-100.43,65-11.67,159.63-12.66,183,2.9,26.39,17.59,12.69,65.23,4.58,87.13A14.57,14.57,0,0,1,856.65,439.91Z"/><path class="cls-35" d="M1241.32,623.77C1023.39,491,829.52,464.91,676.45,480.54c-221.52,22.6-350,131-350,131-40-193,86.8-262,226.54-310.92,57.39-20.11,119.86-37.85,190.82-43.26,101.76-7.79,220.92,9.74,367.53,81.81,52.57,25.84,88.73,53.48,113.07,81,3.47,3.94,6.73,7.89,9.74,11.83,26,34,35,67.38,35.47,96.52C1270.64,583.74,1241.32,623.77,1241.32,623.77Z"/><path class="cls-36" d="M1196,384s7.72-23.16,23.16-9.65,94.56,48.25,121.58,19.3,52.1,30.88,52.1,30.88,13.51-77.19-123.51-81.05S1188.55,384,1188.55,384"/><path class="cls-36" d="M1275.15,372.37c74.91,26.13,38.6,166,81,164s-48.24,36.66-67.54-32.81S1225,416.76,1225,416.76,1192.17,343.43,1275.15,372.37Z"/><path class="cls-36" d="M1169,358.57s44.39-36.61,50.18-13.08,21.23,73.22-5.79,68S1174.8,395.18,1169,358.57Z"/><ellipse class="cls-37" cx="680.77" cy="303.87" rx="14.47" ry="3.86"/><ellipse class="cls-37" cx="869.89" cy="307.73" rx="14.47" ry="3.86"/><path class="cls-38" d="M1026.24,119.6s-75,18-102.17,56c-26.72,37.39-49,122.63-49.76,125.56a.23.23,0,0,0,0,.07l-7.45-.73q.12-1.12.27-2.31C871.49,264.88,903.39,188.34,918,161c14.92-28,114.43-75.87,122.8-65.24S1026.24,119.6,1026.24,119.6Z"/><path class="cls-39" d="M676.4,300.71s-16.36-68.8-43.64-100-112.4-50.52-112.4-50.52-25.1-11.83-14.19-19.35S627.3,167.41,641.49,190s43.64,86,43.64,110.73"/><path class="cls-40" d="M1025.41,119.37s-75,18-102.18,56c-26.72,37.39-49,122.63-49.76,125.56l0,.07-7.44-.73c.07-.75.17-1.52.26-2.3,4.39-33.32,36.28-109.86,50.87-137.22,14.93-28,114.44-75.87,122.8-65.24S1025.41,119.37,1025.41,119.37Z"/><path class="cls-41" d="M675.76,300.53s-16.37-68.8-43.65-100S519.72,150,519.72,150s-25.1-11.83-14.19-19.35,121.13,36.55,135.31,59.12,43.65,86,43.65,110.73"/><path class="cls-42" d="M758.13,387.78h.08a15.36,15.36,0,0,1,15.36,15.36V410a0,0,0,0,1,0,0H769.9a17,17,0,0,1-17-17v0a5.25,5.25,0,0,1,5.25-5.25Z" transform="translate(1162.14 -364.31) rotate(90)"/><path class="cls-42" d="M758,392.51s13.55,3.2,11.12,14.57"/><path class="cls-42" d="M759.39,390.21s13.29,3.2,12.14,14.19"/><path class="cls-42" d="M763.29,389.13a13.35,13.35,0,0,1,9.84,10.6s.89-8,0-8.56C770.7,389.76,775.46,389.19,763.29,389.13Z"/><path class="cls-42" d="M760.15,392.77c-.38-1.28,1-1.54,1.41-1.41s.64-.64.64-.64.09-.8,1.34-1.08a2.11,2.11,0,0,1,1.66.12s-3.86-1.59-5-.25a7.3,7.3,0,0,1-2.54,1.91l1.71,2Z"/><path class="cls-42" d="M758.19,387.82h.08a15.36,15.36,0,0,1,15.36,15.36v6.91a0,0,0,0,1,0,0H770a17,17,0,0,1-17-17v0A5.25,5.25,0,0,1,758.19,387.82Z" transform="translate(1162.24 -364.33) rotate(90)"/><path class="cls-42" d="M736,394.94s-21.66,19.22-6.81,25.7c0,0,35.39,3,39.41-.67s2.8-15.52-9.6-26.91S736,394.94,736,394.94Z"/><path class="cls-42" d="M724.5,410.79s1.53-1.66,2.43.12a28.43,28.43,0,0,1,1.51,5.8.32.32,0,0,1-.5.32,5.37,5.37,0,0,0-3.19-1.26C723,415.9,724.5,410.79,724.5,410.79Z"/><path class="cls-42" d="M729.1,419.35s26.7,1.19,27.66,1.11-.38,1.57-2.07,1.44-25.16-1.12-25.5-1.26S729.1,419.35,729.1,419.35Z"/><path class="cls-42" d="M752.1,392.77s12.27,9.71,13.8,26.58c0,0,3.63,2.87,4.76-3.67,0,0,1.77-11.09-13-23.9h0Z"/><path class="cls-42" d="M739.39,392.58a3.88,3.88,0,0,1,3.19,2.17c.9,2,8.18,4,11.63,2s4.86-.89,4.86-.89l-3.2-3.32-16.48-1Z"/><path class="cls-42" d="M736.09,395s-21.66,19.22-6.81,25.7c0,0,35.39,3,39.41-.67s2.8-15.52-9.6-26.91S736.09,395,736.09,395Z"/><path class="cls-42" d="M730.31,420.76c-.34-.63-9.35-.11-13,.88s-3.63-1.87-3.63-1.87l-.88-5.22s-1-4.1,1.55-4.48,2.8,3.34,3.15,5.3,2.8,1.26,2.8,1.26l6.66-1"/><path class="cls-42" d="M717.73,421s6-2.62,12.07-1.63l.27,1.25Z"/><path class="cls-42" d="M716.19,411.43s-.76-2.56-.89-.9c0,0,.64,5.5,1.79,6.77,1.3,1.45,6.13-.63,6.13-.63s-5,.38-5.37-.26S716.19,411.43,716.19,411.43Z"/><path class="cls-42" d="M726.67,415.77l-6.44.92s-2.45.69-2.8-1.26-.57-5.67-3.15-5.3-1.55,4.48-1.55,4.48l.88,5.22s-.05,2.86,3.63,1.87,12.69-1.51,13-.88"/><path class="cls-42" d="M755.31,421.61s5.64.94,7,1.88,5.26,0,5.08-.94,3.75-12.78-4-9.21A7.63,7.63,0,0,0,761.7,419"/><path class="cls-42" d="M761.5,418.65s.94-5.07,1.84-5.06c.49,0,3-.69,2.12-.31-.55.23-1.39,2.8-1.6,3.77-.3,1.43-.25,3-.57,3.26S762.26,419.48,761.5,418.65Z"/><path class="cls-42" d="M764.12,423.57c.3.07.18-1.47.2-1.78l.56-6.15s.87-4.29,2.94-1c.09.15,0-.42.06-.25a12.41,12.41,0,0,1-1.34,8.3s-.84,2.1-7.19-.16c0,0-3.41-.22-3.41-1.24,0-.37.89-.77.89-.77s3.82.18,4.09.64c.38.64.34,1,1.53,1.28C763.15,422.6,763.09,423.31,764.12,423.57Z"/><path class="cls-42" d="M755.68,421.78s5.24.74,6.55,1.68,4.73,0,5.08-.94,3.08-10.75-2.16-9.81a3.86,3.86,0,0,0-2.79,2.2,7.37,7.37,0,0,0-.69,4"/><path class="cls-42" d="M780,362.38a24,24,0,0,1-.5,3.72c-2.32,10.58-11,17.75-17.31,22.23-2.56,1.79-4.75,3.16-6,4.13a8.29,8.29,0,0,0-.81.69c-3.18,3.27-6.45,3.2-9,2.26a12.18,12.18,0,0,1-2.72-1.46,13.24,13.24,0,0,1-1.08-.85,5.59,5.59,0,0,0-1.82-1c-3.89-1.31-17.22-6.54-21.06-17.58a34,34,0,0,1-2-10.47,26.48,26.48,0,0,1,.11-3.17,14.3,14.3,0,0,1,4.89-7.89c5.56-4.92,15.18-8.18,26.12-8.18a52.41,52.41,0,0,1,10,1C770.86,348.08,779.64,354.63,780,362.38Z"/><path class="cls-42" d="M752.16,344.88s46.72,15.68-2,49.93c0,0-2.81.28-1.34,1.16s6.66-3,6.66-3,15-10.45,15.24-11.77,14.84-12.95,6.53-26C777.28,355.2,767,344.66,752.16,344.88Z"/><path class="cls-42" d="M738.72,400.09s0,12.26-.43,15.07-1.32-.51-1.32-.51-1.23,5.63-2.25.51S736,400.09,736,400.09s-.68-1.09-1.52.83"/><path class="cls-42" d="M757.67,400.43c-1.16-1.91-2.09-.83-2.09-.83s3.21,10,1.81,15.08-3.11-.51-3.11-.51-1.21,3.32-1.81.51-.6-15.08-.6-15.08"/><path class="cls-42" d="M780,362.34a23.67,23.67,0,0,1-.51,3.71c-2.31,10.58-10.94,17.76-17.31,22.23-2.55,1.8-4.75,3.16-6,4.13a7.06,7.06,0,0,0-.81.7c-3.18,3.26-6.44,3.2-9,2.26a12.56,12.56,0,0,1-2.72-1.46c-.43-.31-.8-.6-1.09-.85a5.32,5.32,0,0,0-1.82-1c-3.88-1.32-17.21-6.55-21-17.58a34.15,34.15,0,0,1-2-10.48,28.81,28.81,0,0,1,.12-3.17,14.2,14.2,0,0,1,4.88-7.88c5.57-4.93,15.19-8.18,26.12-8.18a52.34,52.34,0,0,1,10,.94C770.91,348,779.68,354.58,780,362.34Z"/><ellipse class="cls-42" cx="729.68" cy="376.39" rx="12.24" ry="12.08"/><ellipse class="cls-42" cx="763.92" cy="375.73" rx="11.75" ry="11.6"/><path class="cls-42" d="M765.88,364.22s10.61,10.33,2.93,22c0,0,7.76-3.34,6.77-11.94C775.58,374.27,775.64,367,765.88,364.22Z"/><path class="cls-42" d="M741.93,376.37a12.15,12.15,0,0,1-12.23,12.08,11.67,11.67,0,0,1-2-.16,12.06,12.06,0,0,0,.07-23.86,12,12,0,0,1,1.91-.15A12.16,12.16,0,0,1,741.93,376.37Z"/><circle class="cls-42" cx="640.5" cy="368.5" r="4.5"/><circle class="cls-42" cx="631.5" cy="399.5" r="4.5"/><circle class="cls-42" cx="631.5" cy="436.5" r="4.5"/><circle class="cls-42" cx="866.5" cy="359.5" r="4.5"/><circle class="cls-42" cx="866.5" cy="391.5" r="4.5"/><circle class="cls-42" cx="862.5" cy="421.5" r="4.5"/></g></svg>