<?xml version="1.0" encoding="UTF-8"?><svg id="Layer_1" xmlns="http://www.w3.org/2000/svg" viewBox="0 0 1500 1500"><defs><style>.cls-1,.cls-2,.cls-3,.cls-4,.cls-5,.cls-6,.cls-7,.cls-8,.cls-9,.cls-10,.cls-11,.cls-12,.cls-13,.cls-14,.cls-15,.cls-16,.cls-17,.cls-18,.cls-19,.cls-20,.cls-21,.cls-22{stroke:#000;}.cls-1,.cls-23,.cls-8,.cls-18{stroke-linecap:round;}.cls-1,.cls-9,.cls-18{stroke-linejoin:round;}.cls-1,.cls-11,.cls-24{fill:#999;}.cls-2,.cls-3,.cls-4,.cls-5,.cls-6,.cls-7,.cls-23,.cls-8,.cls-10,.cls-11,.cls-24,.cls-25,.cls-26,.cls-27,.cls-12,.cls-28,.cls-29,.cls-13,.cls-30,.cls-14,.cls-15,.cls-16,.cls-17,.cls-19,.cls-20,.cls-21,.cls-22{stroke-miterlimit:10;}.cls-2,.cls-4,.cls-5{stroke-width:5px;}.cls-2,.cls-10,.cls-25,.cls-17{fill:#fff;}.cls-3,.cls-6,.cls-9,.cls-16,.cls-17{stroke-width:3px;}.cls-3,.cls-8,.cls-15,.cls-21,.cls-22{fill:none;}.cls-4,.cls-31,.cls-14{fill:#333;}.cls-5{fill:#1e1e1e;}.cls-32{fill:#045ba3;}.cls-33{fill:#0075e7;}.cls-34{fill:#666;}.cls-35,.cls-19{fill:#cfb8d1;}.cls-36{fill:#141414;}.cls-37,.cls-29{fill:#9b869d;}.cls-23{fill:#ffe7ff;stroke:#ffe7ff;}.cls-8,.cls-10,.cls-15{stroke-width:8px;}.cls-9,.cls-13,.cls-30,.cls-20{fill:#282828;}.cls-24{stroke:#999;}.cls-25{stroke:#fff;}.cls-26{fill:#848384;stroke:#848384;}.cls-27{fill:#c2c2c2;stroke:#c2c2c2;}.cls-12{fill:#a0c4ff;}.cls-28{fill:#424242;stroke:#424242;}.cls-29{stroke:#9b869d;}.cls-30{stroke:#282828;}.cls-14,.cls-21{stroke-width:7px;}.cls-16{fill:#823646;}.cls-18{fill:#212121;}.cls-18,.cls-19,.cls-20{stroke-width:6px;}.cls-22{stroke-width:9px;}</style></defs><rect class="cls-12" width="1500" height="1500"/><path class="cls-35" d="m808.64,866.42h145.56c49.49,0,89.66,40.18,89.66,89.66v196.55h-166.51c-54.84,0-99.36-44.52-99.36-99.36v-156.22c0-16.91,13.73-30.64,30.64-30.64Z" transform="translate(1920.46 98.59) rotate(90)"/><path class="cls-37" d="m843.52,927.24c67.7,9.41,141.09,56.63,149.68,129.29,2.38,19.46-.21,39.67-6.77,57.97,1.15-16.44,1.18-32.42-1.65-48.48-11.74-71.38-79.26-113.02-141.26-138.79h0Z"/><path class="cls-37" d="m861.59,897.67c76.72,10.81,160.36,68.94,159.57,153.43,0,9.72-1.26,19.49-3.52,28.91-.53-13.78-1.81-27.06-5.04-40.22-16.9-72.71-86.52-114.94-151.01-142.11h0Z"/><path class="cls-29" d="m911.69,883.71s106.77,23,126.48,136.34c0,0,11.46-103.42,0-110.06-31.21-18.07,30-25.46-126.48-26.28Z"/><path class="cls-29" d="m871.45,930.52c-4.93-16.43,13.14-19.71,18.07-18.07,4.93,1.64,8.21-8.21,8.21-8.21,0,0,1.13-10.38,17.25-13.96,14.78-3.29,21.35,1.64,21.35,1.64,0,0-49.6-20.53-64.06-3.29-14.47,17.25-32.61,24.61-32.61,24.61l21.93,25.29,9.86-8.02Z"/><path class="cls-15" d="m809.45,866.94h145.56c49.49,0,89.66,40.18,89.66,89.66v196.55h-166.51c-54.84,0-99.36-44.52-99.36-99.36v-156.22c0-16.91,13.73-30.64,30.64-30.64Z" transform="translate(1921.79 98.3) rotate(90)"/><path class="cls-35" d="m560.99,958.45s-278.46,247.07-87.57,330.31c0,0,454.98,38.75,506.65-8.61,51.67-47.36,35.88-199.5-123.43-345.9-159.32-146.4-295.65,24.2-295.65,24.2Z"/><path class="cls-37" d="m413.15,1162.14s19.71-21.35,31.21,1.64c8.5,17,16.1,55.55,19.49,74.49.66,3.69-3.53,6.29-6.53,4.05-9.6-7.16-25.94-17.19-40.88-16.12-23,1.64-3.29-64.06-3.29-64.06Z"/><path class="cls-37" d="m472.28,1272.19s343.17,15.3,355.56,14.22-4.9,20.24-26.64,18.62c-21.74-1.63-323.37-14.49-327.79-16.27-4.42-1.78-1.13-16.57-1.13-16.57Z"/><path class="cls-37" d="m767.96,930.52s157.69,124.84,177.41,341.67c0,0,46.62,36.96,61.09-47.23,0,0,22.78-142.55-166.99-307.2-189.77-164.65,0,0,0,0l-71.5,12.75Z"/><path class="cls-37" d="m604.52,928.06s29.57,1.64,41.07,27.93c11.5,26.28,105.13,50.92,149.48,26.28,44.35-24.64,62.42-11.5,62.42-11.5l-41.07-42.71-211.9-12.69v12.69Z"/><path class="cls-15" d="m562.15,959.22s-278.46,247.07-87.57,330.31c0,0,454.98,38.75,506.65-8.61,51.67-47.36,35.88-199.5-123.43-345.9-159.32-146.4-295.65,24.2-295.65,24.2Z"/><path class="cls-35" d="m487.83,1290.29c-4.34-8.04-120.15-1.42-167.5,11.29-47.35,12.71-46.64-24-46.64-24l-11.31-67.03s-13.37-52.8,19.87-57.62c33.24-4.82,36.11,42.97,40.53,68.1,4.42,25.13,35.96,16.18,35.96,16.18l85.61-12.66"/><path class="cls-37" d="m326.09,1293.55s77.02-33.7,155.14-20.96l3.58,16.07-158.72,4.89Z"/><path class="cls-23" d="m258.74,1198.27s4.39-39.35,13.69-41.85c9.3-2.5-12.05,35.28,22.44,132.2,0,0,8.6,14.75,3.48,16.41-5.12,1.66-26.48,6.59-33.05-52.55-6.57-59.14-6.57-54.21-6.57-54.21Z"/><path class="cls-37" d="m306.37,1170.35s-9.86-32.85-11.5-11.5c0,0,8.21,70.63,23,87.06,16.74,18.6,78.85-8.21,78.85-8.21,0,0-64.06,4.93-68.99-3.29-4.93-8.21-21.35-64.06-21.35-64.06Z"/><path class="cls-8" d="m441.07,1226.2l-82.81,11.79s-31.54,8.95-35.96-16.18c-4.42-25.13-7.29-72.91-40.53-68.1-33.24,4.82-19.87,57.62-19.87,57.62l11.31,67.03s-.71,36.72,46.64,24c47.35-12.71,163.16-19.33,167.5-11.29"/><path class="cls-35" d="m809.21,1301.26s72.45,12.07,89.35,24.15c16.9,12.07,67.62,0,65.2-12.07s48.3-164.21-50.71-118.33c0,0-26.56,28.98-21.73,72.45"/><path class="cls-23" d="m888.7,1263.16s12.19-65.17,23.75-65.03c6.22.08,38.67-8.89,27.17-3.96-7,3-17.88,35.94-20.53,48.46-3.89,18.34-3.23,38.67-7.39,41.89-4.16,3.22-13.14-10.68-23-21.35Z"/><path class="cls-37" d="m922.37,1326.4c3.95.99,2.31-18.81,2.68-22.87l7.18-78.98s11.16-55.21,37.78-13.14c1.18,1.87.31-5.44.75-3.28,2.58,12.55,9.48,59.06-17.18,106.76,0,0-10.82,26.96-92.47-2.13,0,0-43.87-2.8-43.87-15.94,0-4.66,11.5-9.86,11.5-9.86,0,0,49.03,2.33,52.56,8.21,4.93,8.21,4.39,12.39,19.71,16.43,8.9,2.34,8.21,11.5,21.35,14.78Z"/><path class="cls-8" d="m813.96,1303.4s67.32,9.54,84.22,21.62c16.9,12.07,60.74-.6,65.2-12.07,4.98-12.83,39.69-138.23-27.68-126.12-15.87,2.85-29.11,13.64-35.96,28.24-5.94,12.65-11.19,30.56-8.81,52"/><path class="cls-35" d="m1125.96,539.95c-.92,16.3-3.16,32.24-6.54,47.77-29.75,136.01-140.64,228.18-222.48,285.73-32.84,23.06-61.02,40.59-77.4,53.1-4.32,3.31-7.82,6.25-10.38,8.89-40.86,42.02-82.86,41.17-115.34,29.08-13.6-5.07-25.53-12.12-34.99-18.79-5.53-3.91-10.21-7.68-13.93-10.89-6.86-5.92-14.78-10.5-23.4-13.4-49.94-16.88-221.28-84.09-270.61-225.94-18.04-51.9-24.87-97.05-25.69-134.63-.29-14.76.31-28.38,1.5-40.74,6.98-37.12,29.12-71.65,62.76-101.38,71.58-63.32,195.22-105.14,335.74-105.14,44.87,0,88,4.27,128.28,12.12,155.62,30.38,268.44,114.51,272.5,214.23Z"/><path class="cls-37" d="m768.63,314.96s600.54,201.61-25.31,641.84c0,0-36.05,3.58-17.2,14.93,18.85,11.35,85.69-38.83,85.69-38.83,0,0,192.36-134.37,195.81-151.33,3.46-16.96,190.72-166.44,83.95-333.99,0,0-131.71-135.47-322.93-132.62Z"/><path class="cls-35" d="m595.97,1024.57s0,157.69-5.62,193.83c-5.62,36.14-16.85-6.57-16.85-6.57,0,0-15.92,72.28-29.03,6.57s16.85-193.83,16.85-193.83c0,0-8.67-13.89-19.5,10.75"/><path d="m595.97,1024.57c1.4,39.16,1.85,78.34,1.5,117.52-.4,24.55-.48,49.17-3.07,73.7-.4,3.83-.98,7.59-1.98,11.35-.96,3.17-1.81,6.43-4.85,8.61-2.52,1.83-6.19.9-8.04-1.06-2.37-2.35-3.44-4.68-4.75-7.4-2.16-4.81-3.69-9.51-5.08-14.46l7.61-.15c-1.28,5.62-2.77,11.01-4.59,16.46-2.04,5.72-3.9,11.09-7.74,16.18-2.64,3.66-7.85,6.41-12.34,3.28-7.41-5.22-10.06-20.86-11.96-29.33-5.72-31.88-2.88-64.63.88-96.55,4.21-33.15,10.58-66,18.82-98.37,0,0,.12.73.12.73-1.1-1.74-2.92-3.33-4.96-3.63-6.59-.47-11.08,8.84-13.72,13.87.89-2.19,1.85-4.36,2.98-6.45,3.76-7.41,11.08-13.35,17.54-4.52-2.14,11.03-4.13,22.1-5.92,33.19-7.17,46.23-13.81,93.21-10.78,140.05.64,8.09,1.7,16.24,3.52,24.14,1.19,5.28,2.59,10.56,4.57,15.21.73,1.71,1.99,4.12,3.24,5,.18.13.17.07.07.06-.09-.02-.16.04,0-.03.31-.15,1.05-.75,1.68-1.61,2.86-3.83,4.86-9.09,6.51-13.78,3.13-8.7,5.8-21.6,7.97-30.7,0,0,4.08,14.96,4.08,14.96,1.22,4.48,2.72,9.12,4.56,13.25.76,1.69,1.84,3.84,2.98,4.99.18.19.31.19-.06.06-.3-.12-1.15-.02-1.39.2,1.66-2.63,2.57-7.36,3.21-10.98.91-5.92,1.46-11.87,1.98-17.92.71-8.4,1.32-20.65,1.8-29.19,1.16-19.54,4.78-125.01,5.63-146.66h0Z"/><path class="cls-35" d="m839.51,1029.05c-14.91-24.64-26.84-10.75-26.84-10.75,0,0,41.25,128.13,23.2,193.83-18.05,65.71-39.96-6.57-39.96-6.57,0,0-15.47,42.71-23.2,6.57-7.73-36.14-7.73-193.83-7.73-193.83"/><path d="m839.51,1029.05c-5.41-8.45-16.47-19.8-25.9-9.95,0,0,.24-1.19.24-1.19,7.48,21.69,13.66,43.76,18.84,66.12,5.09,22.43,9.17,45.12,10.97,68.11,1.29,17.29,1.56,35.11-1.62,52.31-.37,2.51-1.36,6.22-1.93,8.7-3.02,10.21-8.32,30.46-21.36,31.02-14.35,0-23.24-25.99-27.04-37.35,0,0,8.34.22,8.34.22-.95,2.54-1.95,4.85-3.06,7.23-2.85,5.66-5.77,11.86-11.42,15.42-11,5.67-15.53-8.9-16.96-16.97-4.01-24.8-4.19-50.13-4.88-75.04-.37-19.91-.41-39.81-.19-59.72.21-19.9.62-39.8,1.44-59.68,2.37,51.61,4.1,112.51,8.13,163.68.45,4.13.86,10.63,1.46,14.7.38,4.27,1.39,10.09,2.17,14.34.93,3.78,1.94,8.79,4.52,11.35-.07-.03-.25-.04-.27-.03-.03,0,.09-.02.3-.14,1.81-1.21,3.11-3.19,4.53-5.45,4.12-6.59,7.58-17.22,10.42-24.57,0,0,3.88,12.11,3.88,12.11,3.1,9.11,8.8,24.94,16.71,30.38,4.06,2.66,7.82-5.23,9.41-8.37,12.42-27.98,11.01-60.59,8.2-90.52-4.1-39.59-12.52-78.71-22.94-117.1,0,0-.2-.73-.2-.73l.44-.45c11.35-10.36,22.33,1.18,27.78,11.56h0Z"/><path class="cls-22" d="m1126.54,539.37c-.92,16.3-3.16,32.24-6.54,47.77-29.75,136.01-140.64,228.18-222.48,285.73-32.84,23.06-61.02,40.59-77.4,53.1-4.32,3.31-7.82,6.25-10.38,8.89-40.86,42.02-82.86,41.17-115.34,29.08-13.6-5.07-25.53-12.12-34.99-18.79-5.53-3.91-10.21-7.68-13.93-10.89-6.86-5.92-14.78-10.5-23.4-13.4-49.94-16.88-221.28-84.09-270.61-225.94-18.04-51.9-24.87-97.05-25.69-134.63-.29-14.76.31-28.38,1.5-40.74,6.98-37.12,29.12-71.65,62.76-101.38,71.58-63.32,195.22-105.14,335.74-105.14,44.87,0,88,4.27,128.28,12.12,155.62,30.38,268.44,114.51,272.5,214.23Z"/><circle class="cls-10" cx="475.14" cy="714.09" r="163.15"/><circle class="cls-10" cx="915.83" cy="703.9" r="157.67"/><ellipse class="cls-33" cx="498.93" cy="713.98" rx="123.17" ry="130.73" transform="translate(-234.67 1183.57) rotate(-87.68)"/><ellipse class="cls-33" cx="892.92" cy="701.92" rx="119.04" ry="126.35" transform="translate(155.39 1565.67) rotate(-87.68)"/><ellipse class="cls-32" cx="515.12" cy="714.78" rx="107.9" ry="114.53" transform="translate(-219.94 1200.51) rotate(-87.68)"/><ellipse class="cls-32" cx="877.29" cy="700.92" rx="104.28" ry="110.69" transform="translate(141.4 1549.09) rotate(-87.68)"/><circle cx="533.52" cy="714.3" r="98.32"/><circle cx="861.58" cy="701.7" r="95.02"/><path d="m385.16,518.63c33.51-34.16,86.13-50.08,132.57-36.68,18.04,5.06,34.98,14.2,49.22,25.93-25.1-13.38-52.01-22.67-80.43-22.74-36.16-.36-71.71,13.17-101.36,33.49h0Z"/><circle class="cls-25" cx="573.89" cy="666.73" r="30.69"/><circle class="cls-25" cx="957.83" cy="673.2" r="30.28"/><ellipse class="cls-25" cx="440.71" cy="770.9" rx="10.61" ry="31.33" transform="translate(-347.41 1180.01) rotate(-87.68)"/><ellipse class="cls-25" cx="837.74" cy="766.57" rx="10.26" ry="30.28" transform="translate(37.86 1572.56) rotate(-87.68)"/><path d="m1001.2,512.77c-27.45-18.13-60.31-30.53-93.41-29.21-33.55,1.21-63.62,18.25-88.77,39.99,10.52-13.33,23.6-24.84,38.63-33.5,46.6-27.24,106.09-13.92,143.55,22.72h0Z"/><path class="cls-6" d="m667.89,849.97c4.13,0,14.11,11.75,14.11,11.75l67.78.73,17.09-9.65"/><path class="cls-16" d="m774.2,902.81c0,4.2-3.57,8.1-9.7,11.38h-.02c-10.84,5.83-29.78,9.67-51.33,9.67-33.71,0-61.05-9.42-61.05-21.05-9.58-21.05,40.7-47.35,40.7-47.35h57.46s-4.61,14.21,12.47,35.08c6.02,7.56,11.47,7.68,11.47,12.27Z"/><path class="cls-3" d="m656.9,844.8s38.3,23.1,114.91,7.11"/><path class="cls-3" d="m790.96,860.79s-26.33-5.33-23.94-15.99"/><path class="cls-17" d="m649.71,848.35s14.36-3.55,9.58-8.88"/><path class="cls-16" d="m712.55,857.54s-17.35,35.22-.59,42.33"/><line class="cls-26" x1="631.53" y1="940.41" x2="588.82" y2="986.4"/><line class="cls-26" x1="605.24" y1="994.61" x2="647.59" y2="943.52"/><line class="cls-26" x1="620.03" y1="1009.4" x2="664.32" y2="951.88"/><line class="cls-26" x1="636.45" y1="1022.54" x2="678.34" y2="965.87"/><line class="cls-26" x1="654.52" y1="1029.11" x2="694.77" y2="972.44"/><line class="cls-26" x1="674.23" y1="1037.32" x2="718.1" y2="971.73"/><line class="cls-26" x1="695.59" y1="1045.54" x2="744.05" y2="979.01"/><line class="cls-26" x1="715.3" y1="1055.39" x2="776.08" y2="969.97"/><line class="cls-26" x1="749.8" y1="1045.54" x2="816.32" y2="941.23"/><line class="cls-26" x1="843.43" y1="923.98" x2="787.58" y2="1029.11"/><line class="cls-26" x1="858.21" y1="933.83" x2="815.5" y2="1024.18"/><line class="cls-26" x1="873" y1="948.62" x2="840.14" y2="1024.18"/><line class="cls-26" x1="620.03" y1="932.19" x2="578.96" y2="973.26"/><line class="cls-26" x1="575.67" y1="951.9" x2="723.51" y2="1061.96"/><line class="cls-26" x1="588.82" y1="933.83" x2="746.51" y2="1055.39"/><line class="cls-26" x1="615.9" y1="927.6" x2="774.44" y2="1045.54"/><line class="cls-26" x1="701.34" y1="975.72" x2="797.43" y2="1040.61"/><line class="cls-26" x1="748.98" y1="979.01" x2="825.36" y2="1032.39"/><line class="cls-26" x1="780.19" y1="967.51" x2="856.57" y2="1024.18"/><line class="cls-26" x1="804" y1="951.9" x2="879.57" y2="1014.32"/><line class="cls-26" x1="821.25" y1="936.3" x2="887.78" y2="986.4"/><path class="cls-13" d="m523.11,869.77s77.2-29.57,88.7-67.35c0,0,62.42,3.29,67.35-4.93,4.93-8.21,44.35-39.42,65.71,0,0,0,36.14,3.29,42.71,3.29,0,0,49.28,65.71,108.42,60.78,0,0,11.5,6.57-67.35,57.49-78.85,50.92-78.85,68.99-144.55,41.07-65.71-27.93-105.13-54.21-160.98-90.35Z"/><path class="cls-5" d="m672.59,818.85s-23,13.14-16.43,26.28c6.57,13.14,36.14,4.93,41.07,13.14,4.93,8.21,23,9.86,29.57,0s31.21-9.86,31.21-9.86c0,0,24.64-16.43-3.29-29.57-27.93-13.14-11.5-21.35-11.5-21.35,0,0-38.32-27.06-62.42-3.29,0,0,16.43,9.86-8.21,24.64Z"/><path class="cls-7" d="m698.87,845.13s11.5-4.93,23,0c0,0-10.63-53.77-4.49-67.13,0,0-6.54-3.07-10.88,0,0,0,2.23,45.78-7.63,67.13Z"/><path class="cls-7" d="m615.1,861.56c-4.18-7.43-6.03-13.68,0-19.71,4.59-4.59,14.63,3.73,21.35,8.21,14.47,9.65,13.2,33.46,56.28,31.38,1.74-.08,3.43-.55,4.97-1.36,5.03-2.68,17.92-8.59,26.29-4.16,2.41,1.28,8.3,3.91,11.02,3.71,44.35-3.29,54.49-18.44,55.85-27.93,1.64-11.5,16.43-21.35,21.35-11.5,4.93,9.86-13.56,41.72-29.57,72.28-18.07,34.5-55.85,27.05-66.03,26.38-.83-.06-1.67,0-2.5.1-38.25,4.73-52.37-7.09-62.89-28.12-13.14-26.28-21.35-23-36.14-49.28Z"/><path class="cls-11" d="m689.02,882.91l-1.64,8.21c-.93,3.4,1.4,8.21,4.93,8.21h9.86c5.63,0,9.86-1.28,9.86-6.91l1.64-16.09-9.08,1.51c-.51.08-1,.27-1.44.53l-6.2,3.72c-.88.53-1.88.8-2.9.8h-5.01Z"/><path class="cls-11" d="m738.3,881.27v13.14c.81,2.8-1.85,4.93-4.93,4.93h-12.47c-4.91,0-8.89-3.75-8.89-8.37l1.64-16.27,5.64,1.13c1.7.34,3.35.92,4.9,1.71l4.13,2.12c1.2.61,2.5.99,3.84,1.1l6.13.51Z"/><path class="cls-11" d="m739.94,881.27l9.86-1.64,9.86-1.64v7.8c0,2.17-1.48,4.07-3.59,4.59l-12.1,3.02c-2.04.51-4.03-1.04-4.03-3.14v-8.99Z"/><path class="cls-11" d="m687.38,884.55l-18.07-3.29-.95,4.74c-.39,1.95.8,3.88,2.72,4.4l11.41,3.11c1.74.47,3.5-.66,3.8-2.43l1.09-6.54Z"/><path class="cls-11" d="m647.95,866.49s-4.93,45.99,21.35,70.63c0,0-8.21-41.07-1.64-55.85,0,0-16.43-8.21-19.71-14.78Z"/><path class="cls-1" d="m761.3,877.98s-3.29,45.99-11.5,64.06c0,0,32.85-44.35,29.57-67.35l-1.64-3.29s-9.86,6.57-16.43,6.57Z"/><path class="cls-11" d="m698.84,927.56l11.58,1.05c1.83.17,3.23,1.7,3.23,3.54v4.97s-11.5,4.93-16.43,1.64l-1.18-8.26c-.24-1.65,1.13-3.09,2.79-2.94Z"/><path class="cls-11" d="m715.3,935.48v-3.42c0-1.79,1.35-3.28,3.13-3.46l9.78-.98c1.88-.19,3.51,1.29,3.51,3.18v7.97s-14.78,0-16.43-3.29Z"/><path class="cls-11" d="m669.31,930.55c-2.12-1.86,0-23,6.57-26.28,0,0,3.29,31.21,13.14,34.5,0,0-11.5-1-19.71-8.21Z"/><path class="cls-1" d="m682.45,927.26l11.5,1.64,1.64,9.86-8.21-.84s-4.93-5.73-4.93-10.66Z"/><path class="cls-1" d="m748.15,905.91s0,29.57-8.21,31.21c0,0,6.57,1.64,11.5-1.64,4.93-3.29,1.64-21.35-3.29-29.57Z"/><path class="cls-1" d="m733.37,928.91l11.5-1.64s1.35,4.11-4.25,10.27c0,0-3.96,1.23-7.25-.41v-8.21Z"/><path class="cls-21" d="m522.61,870.01s77.2-29.57,88.7-67.35c0,0,62.42,3.29,67.35-4.93,4.93-8.21,44.35-39.42,65.71,0,0,0,36.64,3.04,43.21,3.04,0,0,48.78,65.95,107.92,61.02,0,0,11.5,6.57-67.35,57.49-78.85,50.92-78.85,68.99-144.55,41.07-65.71-27.93-105.13-54.21-160.98-90.35Z"/><path class="cls-30" d="m1111.92,615.98c-185.51-111.77-350.53-133.7-480.82-120.54l.43-.2s-1.02-12.16-1.12-30.32c-.15-23.01,1.22-55.7,8-85.48,7.72-33.86,22.47-63.95,50.07-71.85,86.62-6.55,188.05,8.2,312.84,68.84,44.75,21.75,75.53,45.01,96.24,68.15,2.96,3.32,5.73,6.64,8.3,9.95,22.18,28.6,29.76,56.7,30.19,81.23.82,46.52-24.13,80.21-24.13,80.21Z"/><path class="cls-28" d="m688.48,307.59c-27.6,7.9-42.35,37.99-50.07,71.85-27.04,4.86-48.01,11.89-52.88,20.53-14.78,26.28,0,77.2,0,77.2,14.62-5.39,29.75-9.36,44.88-12.25.1,18.17,1.12,30.32,1.12,30.32l-.43.2c-188.56,19.02-304.42,111.5-304.42,111.5-14.77-151.12,80.42-221.76,199.37-262.96,48.85-16.92,102.03-31.85,162.43-36.4Z"/><path class="cls-27" d="m630.41,464.92c-15.13,2.89-30.26,6.87-44.88,12.25,0,0-14.78-50.92,0-77.2,4.86-8.64,25.84-15.67,52.88-20.53-6.78,29.78-8.15,62.47-8,85.48Z"/><path class="cls-24" d="m794.15,465.68s-81.89-16.38-163.74-.76c-.15-23.01,1.22-55.7,8-85.48,55.29-9.94,135.88-10.78,155.74,2.46,29.57,19.71,0,83.78,0,83.78Z"/><path class="cls-22" d="m1111.95,620.53c-185.5-113.04-350.53-135.23-480.82-121.92-188.56,19.24-304.42,112.78-304.42,112.78-14.77-152.85,80.42-224.3,199.37-265.96,48.85-17.11,102.03-32.22,162.43-36.82,86.62-6.63,188.05,8.29,312.84,69.63,44.75,22,75.53,45.52,96.24,68.93,2.96,3.36,5.73,6.71,8.3,10.07,22.18,28.93,29.76,57.35,30.19,82.16.82,47.05-24.13,81.13-24.13,81.13Z"/><path class="cls-20" d="m1073.4,416.4s6.57-19.71,19.71-8.21c13.14,11.5,80.49,41.07,103.49,16.43,23-24.64,44.35,26.28,44.35,26.28,0,0,11.5-65.71-105.13-68.99-116.63-3.29-68.79,34.5-68.79,34.5"/><path class="cls-20" d="m1140.75,406.54c63.76,22.24,32.85,141.27,68.99,139.63,36.14-1.64-41.07,31.21-57.49-27.93-16.43-59.14-54.21-73.92-54.21-73.92,0,0-27.93-62.42,42.71-37.78Z"/><path class="cls-20" d="m1050.4,394.79s37.78-31.16,42.71-11.13c4.93,20.03,18.07,62.32-4.93,57.87-23-4.45-32.85-15.58-37.78-46.74Z"/><path class="cls-34" d="m692.07,414.3c1.63.78,3.6,2.02,5.3,1.99.06-.02.07-.06,0-.05-.07,0-.13.08-.16.06,0,.02-.02-.02-.02-.03,0,0,.02-.18.03-.27,1.03-5.57,2.76-10.93,3.64-16.42.29-1.9.69-4.48.1-5.99-1.2-.29-3.89-.19-5.69-.01-5.38.46-10.84,1.27-16.3,1.48-2.1.05-4.23.11-6.32-.27-.68-.17-1.47-.32-1.94-.88,1.28.49,2.66-.03,3.95-.26,3.98-.96,7.88-2.17,11.89-3.13,4.9-1.08,9.9-2.5,15.04-1.88,1.23.18,2.55.82,3.28,1.85,4.19,6.14-2.79,19.92-5.41,26.03-1.45,4.16-5.9-.4-7.41-2.22h0Z"/><path class="cls-34" d="m686.8,393.67c1.08,7.94-4.05,21.21-12.71,22.79,4.52-7.69,6.66-16.01,12.71-22.79h0Z"/><path class="cls-34" d="m692.19,405.31c-7.47,2.24-14.89.37-22.19-1.32,5.26-5.1,16.93-3.09,22.19,1.32h0Z"/><path class="cls-34" d="m695.19,433.73c-4.92.84-11.52-3.38-11.27-8.64,4.99.91,9.62,3.49,11.27,8.64h0Z"/><path class="cls-34" d="m725.17,433.01c-4.8-1.57-8.35-4.58-12.11-7.6-1.17-.92-2.21-1.9-3.96-2.71,6.3-4.1,15.26,3.89,16.07,10.31h0Z"/><path class="cls-34" d="m659.45,445.97c-1.33-5.63.4-10.32,2.88-15.35,4.5,4.21,2.14,12.54-2.88,15.35h0Z"/><path class="cls-34" d="m703.83,434.69c3.03,1.37,8.94,4.2,9.22,8.01.1,2.32-2.67,3.37-4.44,3.56-8.05,1.84-17.46,3.23-25.06-1.2-6.44-3.4-10.89-10.17-12.82-16.85,8.47,10.5,16.23,16.07,30.02,14.73,2.75-.27,6.09-.49,9.03-.71.07,0,.03,0,.04.03-.04.04-.06.27-.04.29.11.07.02-.44-.2-.86-1.42-2.62-3.66-4.69-5.74-7.01h0Z"/><path class="cls-2" d="m928.88,191.38s-63.84,15.29-86.97,47.67c-22.74,31.83-41.72,104.38-42.36,106.87-.02.05-.02.06-.02.06l-6.34-.62c.06-.64.14-1.29.22-1.96,3.73-28.36,30.88-93.51,43.3-116.8,12.7-23.85,97.41-64.58,104.53-55.53,7.1,9.05-12.37,20.3-12.37,20.3Z"/><path class="cls-2" d="m631.09,345.54s-13.93-58.56-37.15-85.1c-23.22-26.54-95.67-43.01-95.67-43.01,0,0-21.36-10.07-12.07-16.47s103.1,31.11,115.18,50.33c12.07,19.22,37.15,73.2,37.15,94.25"/><path class="cls-19" d="m928.17,191.18s-63.84,15.29-86.97,47.67c-22.74,31.83-41.72,104.38-42.36,106.87-.02.05-.02.06-.02.06l-6.34-.62c.06-.64.14-1.29.22-1.96,3.73-28.36,30.88-93.51,43.3-116.8,12.7-23.85,97.41-64.58,104.53-55.53,7.1,9.05-12.37,20.3-12.37,20.3Z"/><path class="cls-19" d="m630.55,345.38s-13.93-58.56-37.15-85.1c-23.22-26.54-95.67-43.01-95.67-43.01,0,0-21.36-10.07-12.07-16.47s103.1,31.11,115.18,50.33c12.07,19.22,37.15,73.2,37.15,94.25"/><ellipse class="cls-19" cx="634.81" cy="348.23" rx="12.32" ry="3.29"/><ellipse class="cls-19" cx="795.79" cy="351.51" rx="12.32" ry="3.29"/><path class="cls-4" d="m595.39,927.26s-183.98,182.33-187.26,249.68c0,0,340.03,50.92,502.65,9.86,0,0,93.63-23,87.06-44.35-6.57-21.35-45.99-136.34-157.69-223.4,0,0-16.43,90.35-80.49,95.27-64.06,4.93-141.27,6.57-164.27-87.06Z"/><path class="cls-14" d="m689.02,1198.3c-6.57-57.49,26.28-183.98,26.28-183.98"/><path class="cls-18" d="m408.12,1176.95s-11.5-34.5,14.78-44.35c0,0,110.06,27.93,259.54,31.21,149.48,3.29,307.73-42,307.73-42,0,0,13.8-.5,9.09,25.68-4.71,26.18-150.05,67.12-324.6,54.04-174.55-13.08-172.91-6.51-266.54-24.58Z"/><path class="cls-18" d="m651.55,1199.83s-14.46-32.05,5.35-36.91c19.8-4.86,34.59-11.11,38.69,1.05s26.09,79.28-44.04,35.86Z"/><path class="cls-18" d="m698.87,1168.88s74.74-7.54,51.74,69.67c-23,77.2-23.87-32.58-48.89-45.86"/><path class="cls-18" d="m649.9,1195.61s-6.79-18.08-2.31-24.53c4.47-6.45-46.45.12-43.16,31.33,3.29,31.21,4.93,36.14,13.14,36.14s7.18-59.59,32.34-42.94Z"/><path class="cls-31" d="m537.89,1014.32s-98.74,132.62-87.06,128.13c85.42-32.85,172.48,0,172.48,0,0,0,1.64-72.28,19.71-105.13"/><path d="m537.89,1014.32c-22.97,34.64-46.84,68.63-69.51,103.41-4.62,7.2-9.35,14.29-13.24,21.79-.48.91-.95,2.01-1.16,2.75,0-.03,0-.04.02-.21.13-2.23-2.41-4.16-4.5-3.54-.06.01-.12.04-.16.06l.16-.06.31-.12s1.24-.46,1.24-.46c52.09-19.99,110.55-18.13,163.41-2.2,3.38,1.07,6.65,2.15,10.08,3.47,0,0-4.69,3.16-4.69,3.16.91-18.1,2.98-36.04,6.24-53.85,3.51-17.6,7.67-35.65,16.94-51.2-7.47,16.3-10.33,34.22-12.65,51.87-1.1,8.86-1.94,17.75-2.49,26.65-.53,8.89-1.03,17.85-1.1,26.69.02,2.29-2.37,3.98-4.52,3.22-54.57-16.89-115.39-19.21-169.48.42-3.42,1.56-7.21-.48-7.03-4.48.47-3.92,3-7.32,4.82-10.61,3.69-6.06,7.58-11.82,11.53-17.56,23.99-34.05,49.36-67.03,75.78-99.2h0Z"/><path class="cls-31" d="m753.08,1045.54s-17.85,105.73-8.21,101.84c101.84-41.07,190.55,0,187.26-8.21-3.29-8.21-78.85-119.91-78.85-119.91"/><path d="m753.08,1045.54c-2.92,27.24-6.42,54.46-7.76,81.77-.06,5.9-.69,11.89.71,17.47.05.15.1.2.1.2-.01-.01-.07-.19-.48-.49-.2-.13-.52-.29-.86-.35-.39-.07-.77-.05-1.14.07-.07.03-.03.01.01,0l.1-.04c1.16-.48,4-1.67,5.22-2.15,43.15-17.37,91.07-21.35,136.9-14.51,9.16,1.36,18.27,3.08,27.25,5.09,5.91,1.21,11.7,3,17.54,3.64.11.01.16-.03-.16.06-.13.05-.5.14-.99.53-.95.66-1.49,2.1-1.3,3.23.05.27.08.37.13.5.03.08.05.13.02.07,0,0-.04-.08-.04-.08,0,0-.08-.15-.08-.15,0,0-.33-.61-.33-.61-2.63-5.08-6.45-10.77-9.43-15.72-21.72-34.88-44.02-69.54-65.22-104.81,28.05,37.71,55.63,75.69,80.93,115.34.32.63,1.29,2.36,1.62,3.03.84,1.78.3,4.38-1.36,5.56-1.92,1.43-3.98,1.18-5.89,1.03-23.58-4.32-46.94-9.57-70.86-10.49-31.46-1.71-63.23,1.55-93.42,10.67-5.91,1.74-11.85,3.75-17.62,5.92-.68.27-1.42.54-2.17.54-5.04-.09-5.5-6.16-5.64-9.86-.16-4.85.17-9.46.59-14.08,2.76-27.43,7.82-54.49,13.62-81.39h0Z"/><path class="cls-36" d="m596.21,1141.63c-.8,34.66-2.97,61.93-5.17,76.09-5.62,36.14-16.85-6.57-16.85-6.57,0,0-15.93,72.28-29.04,6.57-4.78-23.93-3.83-56.15-.71-87.44,16.34,1.46,36.6,9,51.78,11.35Z"/><path d="m596.21,1141.63c.96,19.57.92,39.22-.17,58.79-.26,4.91-.67,9.82-1.19,14.75-.65,5.26-1.15,10.12-3.19,15.31-1.17,3.23-4.5,6.61-8.41,5.35-7.07-2.25-11.09-17.08-13.17-23.62,0,0,8.23-.17,8.23-.17-2.33,9.59-8.65,39.03-21.45,37.7-11.9-.93-15.9-30.14-17.39-39.73-3.23-26.83-1.08-53.63,2.44-80.18.18-1.34,1.41-2.28,2.75-2.11,17.53,2.26,34.44,9.89,51.55,13.9h0Zm0,0c-13.21-1.26-26.09-5.02-39.13-7.21-4.31-.71-8.62-1.35-12.88-1.59,0,0,2.78-2.3,2.78-2.3-1.17,19.68-1.92,39.34-.82,58.97.67,12.92,2.41,25.72,5.87,38.15,1.43,4.59,2.64,9.7,5.81,13.11.21.17.19.09-.06.06-.25-.03-.42.08-.24,0,.15-.08.5-.33.86-.71,2.76-3.11,4.42-7.42,6.06-11.49,2.24-5.9,4.06-12.22,5.59-18.38.51-2.32,2.84-3.78,5.15-3.21,1.55.39,2.69,1.59,3.07,3.04,1.16,4.46,2.63,9.1,4.38,13.24.73,1.67,1.77,3.87,2.86,5.03.16.19.31.23-.04.1-.35-.13-1.07-.04-1.4.21-.2.15-.03.07.14-.18,2.35-4.05,2.98-9.47,3.89-14.22.8-4.74,1.43-9.55,2.07-14.37,2.22-16.8,4.34-41.13,6.04-58.24h0Z"/><path class="cls-36" d="m836.56,1216.35c-18.18,65.67-39.97-6.57-39.97-6.57,0,0-15.47,42.71-23.19,6.57-2.96-13.81-4.4-40.18-5.54-73.9,18.94-9.86,50.5-11.09,72.28-9.86,5.35,38.79,3.08,59.71-3.58,83.76Z"/><path d="m836.56,1216.35c-6.35,23.61-17.06,42.82-33.79,11.75-3.05-5.74-5.57-11.68-7.81-17.83l3.23.09c-1.62,4.82-3.48,9.46-5.98,14-2.62,5.03-8.65,12.71-15.01,7.66-10.12-8.59-11.47-46.05-12.59-59.71-.55-9.91-.94-19.82-1.13-29.72-.08-1.73.89-3.29,2.35-4.03,21.89-10.56,50.69-10.19,74.42-8.18,1.08.03,1.98.85,2.06,1.9,1.28,14.1,2.09,28.29,1.33,42.43-.67,14.12-3.28,28.05-7.1,41.63h0Zm0,0c8.33-28.47,6.77-54.68,1.39-83.46,0,0,2.06,1.9,2.06,1.9-6.09-.1-12.18.03-18.24.37-17.57,1.17-36.09,3.21-51.9,11.16,0,0,2.35-4.03,2.35-4.03.88,17.38,1.57,41.9,2.89,58.95.63,7.17,1.14,14.36,3.22,21.16.57,1.77,1.42,3.98,2.59,5.18.43.38.52.51,1.03.5,5.26-1.61,10.75-13.78,13.02-18.89.51-1.58,2.83-1.49,3.23.09,1.63,6.08,3.77,12.14,6.36,17.92,14.35,31.56,25.93,11.47,31.98-10.86h0Z"/><path class="cls-5" d="m910.78,1057.03s42.71-31.21,55.85-21.35c13.14,9.86,77.2,114.99,67.35,133.06-9.86,18.07-42.71,34.5-60.78,9.86-18.07-24.64-78.85-103.49-62.42-121.56Z"/><path class="cls-9" d="m922.28,1053.75c-.68,1.5,50.92,103.49,75.56,108.42,24.64,4.93,35.01-10.53,35.01-10.53,0,0-35.01-89.67-66.22-117.6,0,0-36.14,1.64-44.35,19.71Z"/><path class="cls-13" d="m958.58,1099.97c-2.34.97-4.95.98-7.31.05-2.61-1.03-5.8-2.53-7.04-4.06-2.25-2.78-20.77-39.14-20.77-39.14,0,0-2.35-7.12,3.98-10.84s35.82-17.2,42.43-8.82c6.61,8.38,27.88,34.78,27.1,41.29-.64,5.35-28.48,17.4-38.39,21.52Z"/><path class="cls-26" d="m968.93,1087.97c2.14,3.66,5.18,9.86,7.16,14.02,1.17,2.46,3.99,3.66,6.58,2.8l5.05-1.68c2.68-.89,3.88-4.02,2.47-6.47l-8.15-14.26c-1.28-2.24-4.09-3.09-6.4-1.94l-5.27,2.63c-1.81.91-2.48,3.15-1.46,4.9Z"/></svg>