<svg xmlns="http://www.w3.org/2000/svg" viewBox="0 0 1500 1500"><defs><style>.cls-1{fill:#a0c4ff;}.cls-2{fill:#bdb2ff;}.cls-3{fill:#8e85bf;}.cls-17,.cls-22,.cls-32,.cls-33,.cls-39,.cls-4,.cls-48,.cls-6,.cls-7,.cls-9{fill:none;}.cls-10,.cls-11,.cls-12,.cls-13,.cls-14,.cls-15,.cls-17,.cls-19,.cls-21,.cls-24,.cls-25,.cls-26,.cls-27,.cls-28,.cls-32,.cls-33,.cls-34,.cls-35,.cls-4,.cls-40,.cls-41,.cls-42,.cls-43,.cls-44,.cls-46,.cls-47,.cls-48,.cls-49,.cls-50,.cls-6,.cls-7,.cls-9{stroke:#000;}.cls-10,.cls-11,.cls-13,.cls-14,.cls-15,.cls-17,.cls-19,.cls-21,.cls-22,.cls-23,.cls-24,.cls-25,.cls-26,.cls-27,.cls-28,.cls-31,.cls-32,.cls-33,.cls-34,.cls-35,.cls-36,.cls-37,.cls-39,.cls-4,.cls-40,.cls-41,.cls-42,.cls-43,.cls-44,.cls-46,.cls-49,.cls-50,.cls-6,.cls-7,.cls-8,.cls-9{stroke-miterlimit:10;}.cls-4{stroke-width:17px;}.cls-5{fill:#5f5980;}.cls-6,.cls-7{stroke-width:15px;}.cls-17,.cls-22,.cls-23,.cls-7,.cls-8{stroke-linecap:round;}.cls-8{fill:#ffe7ff;stroke:#ffe7ff;}.cls-9{stroke-width:20px;}.cls-10{fill:#f7f1f0;}.cls-10,.cls-11,.cls-12,.cls-43{stroke-width:11px;}.cls-11{fill:#211106;}.cls-12{fill:#42210b;}.cls-12,.cls-47,.cls-48{stroke-linejoin:round;}.cls-13,.cls-15{fill:#878787;}.cls-13{stroke-width:6px;}.cls-14{fill:#333;}.cls-15,.cls-17,.cls-22,.cls-23,.cls-34,.cls-44{stroke-width:5px;}.cls-16,.cls-24,.cls-27,.cls-28,.cls-31,.cls-36,.cls-43,.cls-46,.cls-49{fill:#fff;}.cls-16{opacity:0.23;}.cls-18,.cls-21{fill:#3a3a3a;}.cls-19{fill:#2d1b17;}.cls-19,.cls-27,.cls-32,.cls-40,.cls-41,.cls-47,.cls-48{stroke-width:13px;}.cls-20{fill:#ef0000;opacity:0.46;}.cls-21{stroke-width:14px;}.cls-22,.cls-23{stroke:#fdffb6;}.cls-23{fill:#fdffb6;}.cls-24,.cls-25,.cls-26{stroke-width:2px;}.cls-26{opacity:0.33;}.cls-28,.cls-33,.cls-35{stroke-width:8px;}.cls-29{fill:#cb6684;}.cls-30,.cls-34,.cls-40{fill:#a80032;}.cls-31,.cls-36,.cls-37{stroke:#fff;}.cls-36,.cls-37{stroke-width:0.75px;}.cls-37,.cls-38{fill:#0a0a0a;}.cls-39{stroke:#0a0a0a;}.cls-41,.cls-42,.cls-44{fill:#303030;}.cls-42{stroke-width:7px;}.cls-45{fill:#494949;}.cls-46{stroke-width:9px;}.cls-47{fill:#2b2b2b;}.cls-49,.cls-50{stroke-width:4px;}</style></defs><g id="Layer_10" data-name="Layer 10"><rect class="cls-1" width="1500" height="1500"/><rect class="cls-1" x="0.41" y="-0.09" width="1500" height="1500"/><path class="cls-2" d="M880.1,904.65H1070a89.66,89.66,0,0,1,89.66,89.66v244.27a0,0,0,0,1,0,0H948.82a99.36,99.36,0,0,1-99.36-99.36V935.29A30.64,30.64,0,0,1,880.1,904.65Z" transform="translate(2076.18 67.06) rotate(90)"/><path class="cls-3" d="M925.9,975.61a138.14,138.14,0,0,1,19.47,2.21c6.44,1.13,12.82,2.6,19.14,4.32a235.51,235.51,0,0,1,37,13.62,215.56,215.56,0,0,1,34.48,20.13,184.5,184.5,0,0,1,30.25,27,156.18,156.18,0,0,1,23.23,33.87,146.66,146.66,0,0,1,7.89,19.07,137.1,137.1,0,0,1,4.94,20c.27,1.69.55,3.37.78,5.06l.53,5.07c.2,1.69.28,3.39.38,5.08s.22,3.37.2,5.07a145.79,145.79,0,0,1-1.08,20.08,143.47,143.47,0,0,1-3.94,19.45,127.74,127.74,0,0,1-6.56,18.5c-.12-3.29,0-6.5-.1-9.72s-.08-6.41-.26-9.58l-.21-4.74-.34-4.72-.17-2.34-.23-2.33-.47-4.64c-.45-3.08-.72-6.14-1.31-9.17-.29-1.51-.46-3-.76-4.53l-.91-4.48a168.4,168.4,0,0,0-11.1-34.07,176.82,176.82,0,0,0-8.15-15.71,182.77,182.77,0,0,0-21-28.52c-15.85-17.78-35-33-55.64-46.65-10.31-6.86-21.06-13.25-32.09-19.42S937.58,981.4,925.9,975.61Z"/><path class="cls-3" d="M947,941.11a144,144,0,0,1,19.43,2.24c6.43,1.13,12.8,2.59,19.12,4.28a249.27,249.27,0,0,1,37,13.27,236.24,236.24,0,0,1,34.72,19.31,206.67,206.67,0,0,1,31.07,25.56,184.4,184.4,0,0,1,13.5,15.21c2.12,2.65,4.12,5.41,6.1,8.18s3.84,5.63,5.58,8.57c.91,1.44,1.76,2.92,2.59,4.41s1.69,3,2.45,4.5,1.57,3,2.32,4.56l2.13,4.66a152.18,152.18,0,0,1,6.92,19.2c.46,1.64.87,3.29,1.28,4.94s.77,3.3,1.1,5,.71,3.3,1,5,.51,3.34.75,5a142.12,142.12,0,0,1,1.2,20c0,1.67-.09,3.33-.17,5s-.11,3.31-.3,5c-.36,3.3-.61,6.57-1.21,9.82a122.49,122.49,0,0,1-4.5,19.1c-1.47-13-3.11-25.51-6-37.57l-1.08-4.51c-.39-1.49-.83-3-1.24-4.44l-.62-2.21-.68-2.2c-.46-1.45-.88-2.91-1.38-4.35-2-5.77-4.17-11.38-6.6-16.87-9.81-21.92-23.92-41.27-40.81-58.32s-36.5-31.81-57.36-45.22C1002.82,971.42,992,965.1,981,959S958.63,947,947,941.11Z"/><path class="cls-3" d="M1005.44,924.82S1130,951.65,1153,1083.89c0,0,13.37-120.66,0-128.4C1116.6,934.4,1188,925.78,1005.44,924.82Z"/><path class="cls-3" d="M958.49,979.44c-5.75-19.16,15.33-23,21.08-21.08s9.58-9.58,9.58-9.58,1.32-12.11,20.12-16.29c17.25-3.84,24.92,1.91,24.92,1.91s-57.87-23.95-74.75-3.83a109.21,109.21,0,0,1-38,28.72L947,988.8Z"/><path class="cls-4" d="M881,905.26h189.89a89.66,89.66,0,0,1,89.66,89.66v244.27a0,0,0,0,1,0,0H949.76a99.36,99.36,0,0,1-99.36-99.36V935.89A30.64,30.64,0,0,1,881,905.26Z" transform="translate(2077.72 66.73) rotate(90)"/><path class="cls-2" d="M596.26,1012s-324.88,288.26-102.17,385.39c0,0,530.84,45.21,591.12-10.05s41.87-232.76-144-403.57S596.26,1012,596.26,1012Z"/><path class="cls-3" d="M423.78,1249.67s23-24.91,36.41,1.92c9.92,19.83,18.79,64.81,22.74,86.91a4.82,4.82,0,0,1-7.62,4.73c-11.21-8.35-30.26-20.06-47.7-18.81C400.78,1326.33,423.78,1249.67,423.78,1249.67Z"/><path class="cls-5" d="M492.77,1378.08s400.38,17.85,414.84,16.59-5.72,23.62-31.08,21.72-377.28-16.9-382.44-19S492.77,1378.08,492.77,1378.08Z"/><path class="cls-3" d="M837.75,979.44s184,145.66,207,398.64c0,0,54.39,43.11,71.27-55.1,0,0,26.58-166.32-194.83-358.42h0Z"/><path class="cls-3" d="M647.05,976.57s34.5,1.91,47.91,32.58,122.66,59.41,174.41,30.66,72.83-13.41,72.83-13.41l-47.92-49.83L647.05,961.76Z"/><path class="cls-6" d="M597.62,1012.93s-324.89,288.26-102.17,385.38c0,0,530.83,45.21,591.12-10s41.86-232.76-144-403.57S597.62,1012.93,597.62,1012.93Z"/><path class="cls-2" d="M510.91,1399.19c-5.07-9.38-140.18-1.66-195.43,13.18s-54.41-28-54.41-28l-13.2-78.2s-15.6-61.61,23.19-67.23,42.13,50.14,47.29,79.46,42,18.87,42,18.87l99.88-14.76"/><path class="cls-5" d="M322.2,1403s89.86-39.32,181-24.45l4.18,18.75Z"/><path class="cls-3" d="M299.2,1259.25s-11.49-38.33-13.41-13.41c0,0,9.58,82.41,26.83,101.57,19.53,21.7,92-9.58,92-9.58s-74.74,5.75-80.49-3.83S299.2,1259.25,299.2,1259.25Z"/><path class="cls-7" d="M456.36,1324.42l-96.62,13.75s-36.79,10.43-41.95-18.88-8.51-85.07-47.3-79.45-23.18,67.22-23.18,67.22l13.2,78.2s-.83,42.84,54.41,28,190.36-22.55,195.43-13.18"/><path class="cls-2" d="M885.88,1412s84.52,14.09,104.24,28.17,78.89,0,76.08-14.08S1122.55,1234.49,1007,1288c0,0-31,33.81-25.36,84.52"/><path class="cls-8" d="M978.61,1367.54s14.22-76,27.71-75.87c7.26.09,45.12-10.38,31.7-4.63-8.17,3.51-20.86,41.94-24,56.54-4.53,21.4-3.77,45.12-8.62,48.87S990.11,1380,978.61,1367.54Z"/><path class="cls-5" d="M1017.9,1441.32c4.61,1.16,2.69-22,3.12-26.68l8.38-92.14s13-64.41,44.08-15.33c1.37,2.17.36-6.35.88-3.82,3,14.64,11.05,68.9-20,124.56,0,0-12.63,31.45-107.89-2.48,0,0-51.18-3.27-51.18-18.6,0-5.44,13.42-11.5,13.42-11.5s57.2,2.71,61.32,9.58c5.75,9.58,5.13,14.46,23,19.16C1003.36,1426.81,1002.57,1437.49,1017.9,1441.32Z"/><path class="cls-7" d="M891.41,1414.49s78.54,11.14,98.26,25.22,70.87-.69,76.07-14.08c5.82-15,46.31-161.28-32.29-147.14-18.52,3.32-34,15.91-42,32.94a112.88,112.88,0,0,0-10.27,60.66"/><path class="cls-2" d="M1255.43,523.76a356.18,356.18,0,0,1-7.63,55.73c-34.71,158.68-164.09,266.23-259.58,333.37-38.32,26.91-71.2,47.36-90.3,62a113.63,113.63,0,0,0-12.11,10.36c-47.68,49-96.67,48-134.57,33.93a183.2,183.2,0,0,1-40.82-21.92c-6.46-4.57-11.92-9-16.26-12.71a81.67,81.67,0,0,0-27.3-15.64c-58.27-19.69-258.17-98.1-315.73-263.6-21.05-60.55-29-113.24-30-157.08a413.64,413.64,0,0,1,1.75-47.53c8.14-43.31,34-83.6,73.22-118.28,83.51-73.87,227.77-122.67,391.72-122.67a784.33,784.33,0,0,1,149.67,14.14C1119.07,309.26,1250.7,407.43,1255.43,523.76Z"/><path class="cls-3" d="M838.53,261.26S1539.19,496.48,809,1010.11c0,0-42.06,4.17-20.07,17.42s100-45.31,100-45.31,224.42-156.77,228.46-176.56S1339.87,611.47,1215.3,416C1215.3,416,1061.63,257.94,838.53,261.26Z"/><path class="cls-2" d="M637.08,1089.18s0,184-6.56,226.14-19.66-7.66-19.66-7.66S592.29,1392,577,1315.32s19.67-226.14,19.67-226.14-10.12-16.21-22.75,12.54"/><path d="M637.08,1089.18c.77,11.42,1.35,22.84,1.84,34.27s.89,22.85,1.25,34.28q1.08,34.29,1.11,68.62c0,22.9-.25,45.76-1.46,68.82-.42,5.8-.71,11.54-1.46,17.52-.18,1.48-.3,3-.52,4.45s-.47,3-.77,4.53-.63,3.08-1.06,4.7a36.05,36.05,0,0,1-1.72,5.1,21.77,21.77,0,0,1-1.59,3,13,13,0,0,1-3.65,3.77,10.51,10.51,0,0,1-3.86,1.56,9.69,9.69,0,0,1-2.33.13,10.36,10.36,0,0,1-1.12-.12c-.34-.06-.68-.14-1-.23A11.08,11.08,0,0,1,619,1339a14.59,14.59,0,0,1-1.36-.76c-.36-.24-.73-.51-1.06-.76s-.59-.5-.86-.75a18.49,18.49,0,0,1-2.36-2.69,28.69,28.69,0,0,1-1.6-2.42,49.23,49.23,0,0,1-2.35-4.52c-1.36-2.94-2.45-5.8-3.45-8.67-.51-1.43-1-2.86-1.43-4.3s-.87-2.82-1.3-4.41l15.37-.31c-.77,3.43-1.58,6.59-2.48,9.86s-1.89,6.47-3,9.71-2.3,6.47-3.76,9.75c-.73,1.64-1.52,3.28-2.45,5a36.6,36.6,0,0,1-3.36,5.15c-.33.44-.76.9-1.14,1.35s-.85.91-1.37,1.37a16.48,16.48,0,0,1-3.94,2.71,12.64,12.64,0,0,1-6.4,1.22,12.11,12.11,0,0,1-3.36-.74c-.48-.19-1-.4-1.42-.63a12.47,12.47,0,0,1-1.21-.72,14.47,14.47,0,0,1-2-1.53c-.56-.52-1-1-1.5-1.54s-.8-1-1.17-1.48l-1-1.43a43.06,43.06,0,0,1-2.8-5.4,85.26,85.26,0,0,1-3.51-10.16c-1-3.32-1.75-6.62-2.44-9.91-.37-1.64-.67-3.28-1-4.92l-.84-5-.42-2.52c-.13-.83-.22-1.67-.32-2.5l-.62-5c-.34-3.34-.61-6.67-.86-10s-.37-6.65-.41-10c-.34-13.26.1-26.43,1-39.52a708.35,708.35,0,0,1,10.33-77.64l1.82-9.6,1.94-9.56c1.33-6.38,2.69-12.74,4.18-19.07,3-12.67,6-25.29,9.6-37.82l.24,1.46a8.84,8.84,0,0,0-1-1.37,10.28,10.28,0,0,0-1.24-1.23,6.62,6.62,0,0,0-2.95-1.44c-2.13-.4-4.51.72-6.49,2.38a30.25,30.25,0,0,0-5.25,6.08,82.27,82.27,0,0,0-4.2,7.1,66.62,66.62,0,0,1,3.27-7.65,31.87,31.87,0,0,1,4.74-7,14.42,14.42,0,0,1,3.54-2.79,8.93,8.93,0,0,1,4.72-1.06,9.7,9.7,0,0,1,4.63,1.64,12.79,12.79,0,0,1,1.86,1.49,12.3,12.3,0,0,1,1.62,1.84l.4.56-.15.91c-4.41,25.47-8.08,51.11-11.22,76.71-1.52,12.81-2.94,25.62-4,38.44s-2,25.63-2.46,38.42-.54,25.55.07,38.18c.12,3.17.43,6.3.63,9.44s.58,6.25.94,9.35l.64,4.62c.11.77.2,1.55.33,2.31l.42,2.27.83,4.55c.33,1.53.64,3.07,1,4.58.69,3,1.45,6,2.29,8.94a71.22,71.22,0,0,0,2.86,8.19,28.79,28.79,0,0,0,1.67,3.22c.14.19.27.38.39.58a4.18,4.18,0,0,1,.34.42l.2.2s0,.06-.06,0-.08,0-.18-.09a1.09,1.09,0,0,0-.31-.14,3.37,3.37,0,0,0-1-.22,3.45,3.45,0,0,0-1.7.28c-.43.23.22-.13.79-.94a35.84,35.84,0,0,0,3.78-6.73c1.19-2.64,2.27-5.47,3.26-8.36s1.91-5.87,2.76-8.86,1.66-6.09,2.32-9l7.14-31,8.24,30.73a108,108,0,0,0,5.06,14.95,34.46,34.46,0,0,0,1.54,3.1,13.7,13.7,0,0,0,.74,1.17c.21.3.42.55.42.55l0-.05a1.74,1.74,0,0,0-.2-.13,2.13,2.13,0,0,0-.43-.23,4,4,0,0,0-.74-.28,3.86,3.86,0,0,0-.49-.1,3.81,3.81,0,0,0-.59-.07,4.92,4.92,0,0,0-1.26.08,5.16,5.16,0,0,0-1.9.74c-.79.56-.78.74-.75.67a5.82,5.82,0,0,0,.41-.78,23.67,23.67,0,0,0,1.07-3c.33-1.14.63-2.38.91-3.64s.53-2.57.76-3.89.37-2.7.56-4c.82-5.33,1.24-11,1.8-16.58s.9-11.28,1.31-16.93l1.07-17,1-17,.91-17.08,3.49-68.4c.64-11.4,1.14-22.82,1.85-34.23S636.29,1100.59,637.08,1089.18Z"/><path class="cls-2" d="M921.23,1094.39c-17.39-28.75-31.31-12.54-31.31-12.54S938,1231.34,917,1308s-46.62-7.67-46.62-7.67-18,49.83-27.07,7.67-9-226.15-9-226.15"/><path d="M921.23,1094.39a69.49,69.49,0,0,0-6.23-7.69,29.68,29.68,0,0,0-7.55-6,13.39,13.39,0,0,0-8.66-1.66,11.67,11.67,0,0,0-4,1.51,13.66,13.66,0,0,0-1.76,1.25c-.27.24-.54.48-.79.73s-.51.54-.64.7l.43-2.11a727.33,727.33,0,0,1,23,77c6.21,26.11,11.18,52.63,13.46,79.68a279.58,279.58,0,0,1,.75,41c-.25,3.45-.42,6.89-.91,10.35-.21,1.73-.39,3.46-.64,5.19l-.89,5.19-.45,2.6-.6,2.59-1.21,5.18c-.91,3.35-1.87,6.69-3,10a100.09,100.09,0,0,1-4,10.1,47.86,47.86,0,0,1-6.19,10.24,24.28,24.28,0,0,1-5.42,5,18,18,0,0,1-4.05,2c-.38.13-.76.25-1.15.36l-1.23.25a16.05,16.05,0,0,1-2.51.25,17.65,17.65,0,0,1-8.79-2.37,26.06,26.06,0,0,1-5.65-4.4,50.71,50.71,0,0,1-7.14-9.45,102,102,0,0,1-5.07-9.6c-1.5-3.22-2.85-6.46-4.11-9.72q-.93-2.44-1.8-4.91c-.58-1.68-1.12-3.25-1.67-5.09l15,.4c-.61,1.61-1.16,3-1.78,4.41s-1.25,2.83-1.92,4.24a88.9,88.9,0,0,1-4.54,8.42,49.51,49.51,0,0,1-2.92,4.23,30.14,30.14,0,0,1-4,4.33,19.56,19.56,0,0,1-3,2.15,13.93,13.93,0,0,1-4.58,1.64,12,12,0,0,1-5.89-.51,12.93,12.93,0,0,1-4.42-2.64,19.81,19.81,0,0,1-4.19-5.65,38.36,38.36,0,0,1-2.12-5,71.14,71.14,0,0,1-2.42-9.37l-1.43-9.1c-.37-3-.62-5.92-.91-8.88l-.43-4.43-.29-4.39-.57-8.78c-.34-5.85-.56-11.67-.8-17.51l-.49-17.47c-.14-5.82-.17-11.64-.26-17.45q-.33-34.89.59-69.73c.3-11.62.59-23.23,1.11-34.84s1-23.21,1.77-34.81q1.17,17.4,2.16,34.78l2,34.76,4,69.42,1.11,17.32,1.22,17.29,1.43,17.22.85,8.56.42,4.28.55,4.21c.38,2.8.69,5.65,1.1,8.41l1.45,8.06a56.52,56.52,0,0,0,2.09,7.42,22.47,22.47,0,0,0,1.31,3,5.64,5.64,0,0,0,.93,1.33,1.88,1.88,0,0,0-.72-.41,3.38,3.38,0,0,0-1.61-.16,2.45,2.45,0,0,0-.53.14s.25-.18.5-.4a15.07,15.07,0,0,0,1.84-2.1,34.54,34.54,0,0,0,2-3,71.7,71.7,0,0,0,3.61-6.94c.56-1.22,1.1-2.46,1.61-3.71s1-2.57,1.43-3.68l7.84-21.77,7.14,22.17c.44,1.35,1,2.93,1.49,4.4s1.09,3,1.67,4.46c1.15,3,2.38,5.87,3.71,8.69a86.26,86.26,0,0,0,4.29,8.05,36,36,0,0,0,4.87,6.47,10.69,10.69,0,0,0,2.17,1.78,7.05,7.05,0,0,0,.72.32c-.07,0,0,.06.44-.23a9,9,0,0,0,1.86-1.78,33,33,0,0,0,4.09-6.85,90.26,90.26,0,0,0,3.4-8.48c1-2.94,2-6,2.84-9.07l1.12-4.54.57-2.27.43-2.32.87-4.65c.25-1.57.43-3.15.65-4.73.48-3.14.73-6.35,1-9.54a292.15,292.15,0,0,0,.32-38.94c-1.41-26.16-5-52.4-9.68-78.48-2.32-13-4.95-26-7.77-39s-5.87-26-9.2-38.78l-.34-1.31.77-.8a12.45,12.45,0,0,1,1.13-1c.37-.3.75-.58,1.14-.85a18.45,18.45,0,0,1,2.44-1.39,15.29,15.29,0,0,1,5.43-1.44,14.65,14.65,0,0,1,5.49.65,17.86,17.86,0,0,1,4.8,2.35,31,31,0,0,1,7.26,7.19A59.57,59.57,0,0,1,921.23,1094.39Z"/><path class="cls-9" d="M1256.11,523.08a356,356,0,0,1-7.63,55.73C1213.76,737.5,1084.38,845,988.9,912.18c-38.32,26.91-71.2,47.36-90.3,62a113.81,113.81,0,0,0-12.12,10.37c-47.67,49-96.67,48-134.56,33.92a183.1,183.1,0,0,1-40.83-21.92c-6.45-4.56-11.92-9-16.25-12.71a81.79,81.79,0,0,0-27.31-15.63c-58.26-19.7-258.16-98.11-315.73-263.61-21-60.55-29-113.24-30-157.08A413.77,413.77,0,0,1,323.57,500c8.15-43.3,34-83.59,73.23-118.28C480.31,307.8,624.57,259,788.52,259a785,785,0,0,1,149.66,14.14C1119.74,308.59,1251.38,406.75,1256.11,523.08Z"/><ellipse class="cls-2" cx="501.5" cy="733.78" rx="183.5" ry="181.22"/><ellipse class="cls-2" cx="1014.92" cy="723.89" rx="176.16" ry="173.97"/><path class="cls-3" d="M1044.34,551.34s159.14,154.89,43.9,329.78c0,0,116.39-50.16,101.58-179.14C1189.82,702,1190.69,592.67,1044.34,551.34Z"/><path class="cls-3" d="M685.26,733.47c0,100.09-82.15,181.22-183.5,181.22a186.41,186.41,0,0,1-29.71-2.37C559.82,898.77,627,823.78,627,733.29c0-90.09-66.57-164.83-153.78-178.85a186.81,186.81,0,0,1,28.57-2.19C603.11,552.25,685.26,633.39,685.26,733.47Z"/><path class="cls-2" d="M880.1,904.65H1070a89.66,89.66,0,0,1,89.66,89.66v244.27a0,0,0,0,1,0,0H948.82a99.36,99.36,0,0,1-99.36-99.36V935.29A30.64,30.64,0,0,1,880.1,904.65Z" transform="translate(2076.18 67.06) rotate(90)"/><path class="cls-3" d="M925.9,975.61a138.14,138.14,0,0,1,19.47,2.21c6.44,1.13,12.82,2.6,19.14,4.32a235.51,235.51,0,0,1,37,13.62,215.56,215.56,0,0,1,34.48,20.13,184.5,184.5,0,0,1,30.25,27,156.18,156.18,0,0,1,23.23,33.87,146.66,146.66,0,0,1,7.89,19.07,137.1,137.1,0,0,1,4.94,20c.27,1.69.55,3.37.78,5.06l.53,5.07c.2,1.69.28,3.39.38,5.08s.22,3.37.2,5.07a145.79,145.79,0,0,1-1.08,20.08,143.47,143.47,0,0,1-3.94,19.45,127.74,127.74,0,0,1-6.56,18.5c-.12-3.29,0-6.5-.1-9.72s-.08-6.41-.26-9.58l-.21-4.74-.34-4.72-.17-2.34-.23-2.33-.47-4.64c-.45-3.08-.72-6.14-1.31-9.17-.29-1.51-.46-3-.76-4.53l-.91-4.48a168.4,168.4,0,0,0-11.1-34.07,176.82,176.82,0,0,0-8.15-15.71,182.77,182.77,0,0,0-21-28.52c-15.85-17.78-35-33-55.64-46.65-10.31-6.86-21.06-13.25-32.09-19.42S937.58,981.4,925.9,975.61Z"/><path class="cls-3" d="M947,941.11a144,144,0,0,1,19.43,2.24c6.43,1.13,12.8,2.59,19.12,4.28a249.27,249.27,0,0,1,37,13.27,236.24,236.24,0,0,1,34.72,19.31,206.67,206.67,0,0,1,31.07,25.56,184.4,184.4,0,0,1,13.5,15.21c2.12,2.65,4.12,5.41,6.1,8.18s3.84,5.63,5.58,8.57c.91,1.44,1.76,2.92,2.59,4.41s1.69,3,2.45,4.5,1.57,3,2.32,4.56l2.13,4.66a152.18,152.18,0,0,1,6.92,19.2c.46,1.64.87,3.29,1.28,4.94s.77,3.3,1.1,5,.71,3.3,1,5,.51,3.34.75,5a142.12,142.12,0,0,1,1.2,20c0,1.67-.09,3.33-.17,5s-.11,3.31-.3,5c-.36,3.3-.61,6.57-1.21,9.82a122.49,122.49,0,0,1-4.5,19.1c-1.47-13-3.11-25.51-6-37.57l-1.08-4.51c-.39-1.49-.83-3-1.24-4.44l-.62-2.21-.68-2.2c-.46-1.45-.88-2.91-1.38-4.35-2-5.77-4.17-11.38-6.6-16.87-9.81-21.92-23.92-41.27-40.81-58.32s-36.5-31.81-57.36-45.22C1002.82,971.42,992,965.1,981,959S958.63,947,947,941.11Z"/><path class="cls-3" d="M1005.44,924.82S1130,951.65,1153,1083.89c0,0,13.37-120.66,0-128.4C1116.6,934.4,1188,925.78,1005.44,924.82Z"/><path class="cls-3" d="M958.49,979.44c-5.75-19.16,15.33-23,21.08-21.08s9.58-9.58,9.58-9.58,1.32-12.11,20.12-16.29c17.25-3.84,24.92,1.91,24.92,1.91s-57.87-23.95-74.75-3.83a109.21,109.21,0,0,1-38,28.72L947,988.8Z"/><path class="cls-4" d="M881,905.26h189.89a89.66,89.66,0,0,1,89.66,89.66v244.27a0,0,0,0,1,0,0H949.76a99.36,99.36,0,0,1-99.36-99.36V935.89A30.64,30.64,0,0,1,881,905.26Z" transform="translate(2077.72 66.73) rotate(90)"/><path class="cls-2" d="M596.26,1012s-324.88,288.26-102.17,385.39c0,0,530.84,45.21,591.12-10.05s41.87-232.76-144-403.57S596.26,1012,596.26,1012Z"/><path class="cls-3" d="M423.78,1249.67s23-24.91,36.41,1.92c9.92,19.83,18.79,64.81,22.74,86.91a4.82,4.82,0,0,1-7.62,4.73c-11.21-8.35-30.26-20.06-47.7-18.81C400.78,1326.33,423.78,1249.67,423.78,1249.67Z"/><path class="cls-5" d="M492.77,1378.08s400.38,17.85,414.84,16.59-5.72,23.62-31.08,21.72-377.28-16.9-382.44-19S492.77,1378.08,492.77,1378.08Z"/><path class="cls-3" d="M837.75,979.44s184,145.66,207,398.64c0,0,54.39,43.11,71.27-55.1,0,0,26.58-166.32-194.83-358.42h0Z"/><path class="cls-3" d="M647.05,976.57s34.5,1.91,47.91,32.58,122.66,59.41,174.41,30.66,72.83-13.41,72.83-13.41l-47.92-49.83L647.05,961.76Z"/><path class="cls-6" d="M597.62,1012.93s-324.89,288.26-102.17,385.38c0,0,530.83,45.21,591.12-10s41.86-232.76-144-403.57S597.62,1012.93,597.62,1012.93Z"/><path class="cls-2" d="M510.91,1399.19c-5.07-9.38-140.18-1.66-195.43,13.18s-54.41-28-54.41-28l-13.2-78.2s-15.6-61.61,23.19-67.23,42.13,50.14,47.29,79.46,42,18.87,42,18.87l99.88-14.76"/><path class="cls-5" d="M322.2,1403s89.86-39.32,181-24.45l4.18,18.75Z"/><path class="cls-3" d="M299.2,1259.25s-11.49-38.33-13.41-13.41c0,0,9.58,82.41,26.83,101.57,19.53,21.7,92-9.58,92-9.58s-74.74,5.75-80.49-3.83S299.2,1259.25,299.2,1259.25Z"/><path class="cls-7" d="M456.36,1324.42l-96.62,13.75s-36.79,10.43-41.95-18.88-8.51-85.07-47.3-79.45-23.18,67.22-23.18,67.22l13.2,78.2s-.83,42.84,54.41,28,190.36-22.55,195.43-13.18"/><path class="cls-2" d="M885.88,1412s84.52,14.09,104.24,28.17,78.89,0,76.08-14.08S1122.55,1234.49,1007,1288c0,0-31,33.81-25.36,84.52"/><path class="cls-8" d="M978.61,1367.54s14.22-76,27.71-75.87c7.26.09,45.12-10.38,31.7-4.63-8.17,3.51-20.86,41.94-24,56.54-4.53,21.4-3.77,45.12-8.62,48.87S990.11,1380,978.61,1367.54Z"/><path class="cls-5" d="M1017.9,1441.32c4.61,1.16,2.69-22,3.12-26.68l8.38-92.14s13-64.41,44.08-15.33c1.37,2.17.36-6.35.88-3.82,3,14.64,11.05,68.9-20,124.56,0,0-12.63,31.45-107.89-2.48,0,0-51.18-3.27-51.18-18.6,0-5.44,13.42-11.5,13.42-11.5s57.2,2.71,61.32,9.58c5.75,9.58,5.13,14.46,23,19.16C1003.36,1426.81,1002.57,1437.49,1017.9,1441.32Z"/><path class="cls-7" d="M891.41,1414.49s78.54,11.14,98.26,25.22,70.87-.69,76.07-14.08c5.82-15,46.31-161.28-32.29-147.14-18.52,3.32-34,15.91-42,32.94a112.88,112.88,0,0,0-10.27,60.66"/><path class="cls-2" d="M1255.43,523.76a356.18,356.18,0,0,1-7.63,55.73c-34.71,158.68-164.09,266.23-259.58,333.37-38.32,26.91-71.2,47.36-90.3,62a113.63,113.63,0,0,0-12.11,10.36c-47.68,49-96.67,48-134.57,33.93a183.2,183.2,0,0,1-40.82-21.92c-6.46-4.57-11.92-9-16.26-12.71a81.67,81.67,0,0,0-27.3-15.64c-58.27-19.69-258.17-98.1-315.73-263.6-21.05-60.55-29-113.24-30-157.08a413.64,413.64,0,0,1,1.75-47.53c8.14-43.31,34-83.6,73.22-118.28,83.51-73.87,227.77-122.67,391.72-122.67a784.33,784.33,0,0,1,149.67,14.14C1119.07,309.26,1250.7,407.43,1255.43,523.76Z"/><path class="cls-3" d="M838.53,261.26S1539.19,496.48,809,1010.11c0,0-42.06,4.17-20.07,17.42s100-45.31,100-45.31,224.42-156.77,228.46-176.56S1339.87,611.47,1215.3,416C1215.3,416,1061.63,257.94,838.53,261.26Z"/><path class="cls-2" d="M637.08,1089.18s0,184-6.56,226.14-19.66-7.66-19.66-7.66S592.29,1392,577,1315.32s19.67-226.14,19.67-226.14-10.12-16.21-22.75,12.54"/><path d="M637.08,1089.18c.77,11.42,1.35,22.84,1.84,34.27s.89,22.85,1.25,34.28q1.08,34.29,1.11,68.62c0,22.9-.25,45.76-1.46,68.82-.42,5.8-.71,11.54-1.46,17.52-.18,1.48-.3,3-.52,4.45s-.47,3-.77,4.53-.63,3.08-1.06,4.7a36.05,36.05,0,0,1-1.72,5.1,21.77,21.77,0,0,1-1.59,3,13,13,0,0,1-3.65,3.77,10.51,10.51,0,0,1-3.86,1.56,9.69,9.69,0,0,1-2.33.13,10.36,10.36,0,0,1-1.12-.12c-.34-.06-.68-.14-1-.23A11.08,11.08,0,0,1,619,1339a14.59,14.59,0,0,1-1.36-.76c-.36-.24-.73-.51-1.06-.76s-.59-.5-.86-.75a18.49,18.49,0,0,1-2.36-2.69,28.69,28.69,0,0,1-1.6-2.42,49.23,49.23,0,0,1-2.35-4.52c-1.36-2.94-2.45-5.8-3.45-8.67-.51-1.43-1-2.86-1.43-4.3s-.87-2.82-1.3-4.41l15.37-.31c-.77,3.43-1.58,6.59-2.48,9.86s-1.89,6.47-3,9.71-2.3,6.47-3.76,9.75c-.73,1.64-1.52,3.28-2.45,5a36.6,36.6,0,0,1-3.36,5.15c-.33.44-.76.9-1.14,1.35s-.85.91-1.37,1.37a16.48,16.48,0,0,1-3.94,2.71,12.64,12.64,0,0,1-6.4,1.22,12.11,12.11,0,0,1-3.36-.74c-.48-.19-1-.4-1.42-.63a12.47,12.47,0,0,1-1.21-.72,14.47,14.47,0,0,1-2-1.53c-.56-.52-1-1-1.5-1.54s-.8-1-1.17-1.48l-1-1.43a43.06,43.06,0,0,1-2.8-5.4,85.26,85.26,0,0,1-3.51-10.16c-1-3.32-1.75-6.62-2.44-9.91-.37-1.64-.67-3.28-1-4.92l-.84-5-.42-2.52c-.13-.83-.22-1.67-.32-2.5l-.62-5c-.34-3.34-.61-6.67-.86-10s-.37-6.65-.41-10c-.34-13.26.1-26.43,1-39.52a708.35,708.35,0,0,1,10.33-77.64l1.82-9.6,1.94-9.56c1.33-6.38,2.69-12.74,4.18-19.07,3-12.67,6-25.29,9.6-37.82l.24,1.46a8.84,8.84,0,0,0-1-1.37,10.28,10.28,0,0,0-1.24-1.23,6.62,6.62,0,0,0-2.95-1.44c-2.13-.4-4.51.72-6.49,2.38a30.25,30.25,0,0,0-5.25,6.08,82.27,82.27,0,0,0-4.2,7.1,66.62,66.62,0,0,1,3.27-7.65,31.87,31.87,0,0,1,4.74-7,14.42,14.42,0,0,1,3.54-2.79,8.93,8.93,0,0,1,4.72-1.06,9.7,9.7,0,0,1,4.63,1.64,12.79,12.79,0,0,1,1.86,1.49,12.3,12.3,0,0,1,1.62,1.84l.4.56-.15.91c-4.41,25.47-8.08,51.11-11.22,76.71-1.52,12.81-2.94,25.62-4,38.44s-2,25.63-2.46,38.42-.54,25.55.07,38.18c.12,3.17.43,6.3.63,9.44s.58,6.25.94,9.35l.64,4.62c.11.77.2,1.55.33,2.31l.42,2.27.83,4.55c.33,1.53.64,3.07,1,4.58.69,3,1.45,6,2.29,8.94a71.22,71.22,0,0,0,2.86,8.19,28.79,28.79,0,0,0,1.67,3.22c.14.19.27.38.39.58a4.18,4.18,0,0,1,.34.42l.2.2s0,.06-.06,0-.08,0-.18-.09a1.09,1.09,0,0,0-.31-.14,3.37,3.37,0,0,0-1-.22,3.45,3.45,0,0,0-1.7.28c-.43.23.22-.13.79-.94a35.84,35.84,0,0,0,3.78-6.73c1.19-2.64,2.27-5.47,3.26-8.36s1.91-5.87,2.76-8.86,1.66-6.09,2.32-9l7.14-31,8.24,30.73a108,108,0,0,0,5.06,14.95,34.46,34.46,0,0,0,1.54,3.1,13.7,13.7,0,0,0,.74,1.17c.21.3.42.55.42.55l0-.05a1.74,1.74,0,0,0-.2-.13,2.13,2.13,0,0,0-.43-.23,4,4,0,0,0-.74-.28,3.86,3.86,0,0,0-.49-.1,3.81,3.81,0,0,0-.59-.07,4.92,4.92,0,0,0-1.26.08,5.16,5.16,0,0,0-1.9.74c-.79.56-.78.74-.75.67a5.82,5.82,0,0,0,.41-.78,23.67,23.67,0,0,0,1.07-3c.33-1.14.63-2.38.91-3.64s.53-2.57.76-3.89.37-2.7.56-4c.82-5.33,1.24-11,1.8-16.58s.9-11.28,1.31-16.93l1.07-17,1-17,.91-17.08,3.49-68.4c.64-11.4,1.14-22.82,1.85-34.23S636.29,1100.59,637.08,1089.18Z"/><path class="cls-2" d="M921.23,1094.39c-17.39-28.75-31.31-12.54-31.31-12.54S938,1231.34,917,1308s-46.62-7.67-46.62-7.67-18,49.83-27.07,7.67-9-226.15-9-226.15"/><path d="M921.23,1094.39a69.49,69.49,0,0,0-6.23-7.69,29.68,29.68,0,0,0-7.55-6,13.39,13.39,0,0,0-8.66-1.66,11.67,11.67,0,0,0-4,1.51,13.66,13.66,0,0,0-1.76,1.25c-.27.24-.54.48-.79.73s-.51.54-.64.7l.43-2.11a727.33,727.33,0,0,1,23,77c6.21,26.11,11.18,52.63,13.46,79.68a279.58,279.58,0,0,1,.75,41c-.25,3.45-.42,6.89-.91,10.35-.21,1.73-.39,3.46-.64,5.19l-.89,5.19-.45,2.6-.6,2.59-1.21,5.18c-.91,3.35-1.87,6.69-3,10a100.09,100.09,0,0,1-4,10.1,47.86,47.86,0,0,1-6.19,10.24,24.28,24.28,0,0,1-5.42,5,18,18,0,0,1-4.05,2c-.38.13-.76.25-1.15.36l-1.23.25a16.05,16.05,0,0,1-2.51.25,17.65,17.65,0,0,1-8.79-2.37,26.06,26.06,0,0,1-5.65-4.4,50.71,50.71,0,0,1-7.14-9.45,102,102,0,0,1-5.07-9.6c-1.5-3.22-2.85-6.46-4.11-9.72q-.93-2.44-1.8-4.91c-.58-1.68-1.12-3.25-1.67-5.09l15,.4c-.61,1.61-1.16,3-1.78,4.41s-1.25,2.83-1.92,4.24a88.9,88.9,0,0,1-4.54,8.42,49.51,49.51,0,0,1-2.92,4.23,30.14,30.14,0,0,1-4,4.33,19.56,19.56,0,0,1-3,2.15,13.93,13.93,0,0,1-4.58,1.64,12,12,0,0,1-5.89-.51,12.93,12.93,0,0,1-4.42-2.64,19.81,19.81,0,0,1-4.19-5.65,38.36,38.36,0,0,1-2.12-5,71.14,71.14,0,0,1-2.42-9.37l-1.43-9.1c-.37-3-.62-5.92-.91-8.88l-.43-4.43-.29-4.39-.57-8.78c-.34-5.85-.56-11.67-.8-17.51l-.49-17.47c-.14-5.82-.17-11.64-.26-17.45q-.33-34.89.59-69.73c.3-11.62.59-23.23,1.11-34.84s1-23.21,1.77-34.81q1.17,17.4,2.16,34.78l2,34.76,4,69.42,1.11,17.32,1.22,17.29,1.43,17.22.85,8.56.42,4.28.55,4.21c.38,2.8.69,5.65,1.1,8.41l1.45,8.06a56.52,56.52,0,0,0,2.09,7.42,22.47,22.47,0,0,0,1.31,3,5.64,5.64,0,0,0,.93,1.33,1.88,1.88,0,0,0-.72-.41,3.38,3.38,0,0,0-1.61-.16,2.45,2.45,0,0,0-.53.14s.25-.18.5-.4a15.07,15.07,0,0,0,1.84-2.1,34.54,34.54,0,0,0,2-3,71.7,71.7,0,0,0,3.61-6.94c.56-1.22,1.1-2.46,1.61-3.71s1-2.57,1.43-3.68l7.84-21.77,7.14,22.17c.44,1.35,1,2.93,1.49,4.4s1.09,3,1.67,4.46c1.15,3,2.38,5.87,3.71,8.69a86.26,86.26,0,0,0,4.29,8.05,36,36,0,0,0,4.87,6.47,10.69,10.69,0,0,0,2.17,1.78,7.05,7.05,0,0,0,.72.32c-.07,0,0,.06.44-.23a9,9,0,0,0,1.86-1.78,33,33,0,0,0,4.09-6.85,90.26,90.26,0,0,0,3.4-8.48c1-2.94,2-6,2.84-9.07l1.12-4.54.57-2.27.43-2.32.87-4.65c.25-1.57.43-3.15.65-4.73.48-3.14.73-6.35,1-9.54a292.15,292.15,0,0,0,.32-38.94c-1.41-26.16-5-52.4-9.68-78.48-2.32-13-4.95-26-7.77-39s-5.87-26-9.2-38.78l-.34-1.31.77-.8a12.45,12.45,0,0,1,1.13-1c.37-.3.75-.58,1.14-.85a18.45,18.45,0,0,1,2.44-1.39,15.29,15.29,0,0,1,5.43-1.44,14.65,14.65,0,0,1,5.49.65,17.86,17.86,0,0,1,4.8,2.35,31,31,0,0,1,7.26,7.19A59.57,59.57,0,0,1,921.23,1094.39Z"/><path class="cls-9" d="M1256.11,523.08a356,356,0,0,1-7.63,55.73C1213.76,737.5,1084.38,845,988.9,912.18c-38.32,26.91-71.2,47.36-90.3,62a113.81,113.81,0,0,0-12.12,10.37c-47.67,49-96.67,48-134.56,33.92a183.1,183.1,0,0,1-40.83-21.92c-6.45-4.56-11.92-9-16.25-12.71a81.79,81.79,0,0,0-27.31-15.63c-58.26-19.7-258.16-98.11-315.73-263.61-21-60.55-29-113.24-30-157.08A413.77,413.77,0,0,1,323.57,500c8.15-43.3,34-83.59,73.23-118.28C480.31,307.8,624.57,259,788.52,259a785,785,0,0,1,149.66,14.14C1119.74,308.59,1251.38,406.75,1256.11,523.08Z"/><ellipse class="cls-2" cx="501.5" cy="733.78" rx="183.5" ry="181.22"/><ellipse class="cls-2" cx="1014.92" cy="723.89" rx="176.16" ry="173.97"/><path class="cls-3" d="M1044.34,551.34s159.14,154.89,43.9,329.78c0,0,116.39-50.16,101.58-179.14C1189.82,702,1190.69,592.67,1044.34,551.34Z"/><path class="cls-3" d="M685.26,733.47c0,100.09-82.15,181.22-183.5,181.22a186.41,186.41,0,0,1-29.71-2.37C559.82,898.77,627,823.78,627,733.29c0-90.09-66.57-164.83-153.78-178.85a186.81,186.81,0,0,1,28.57-2.19C603.11,552.25,685.26,633.39,685.26,733.47Z"/><path class="cls-10" d="M692.5,908.5s24,21,14,24,126,23,137,0-18-46-36-38c0,0-28,26-38,21S688.5,896.5,692.5,908.5Z"/><path class="cls-11" d="M879.5,946a27.49,27.49,0,1,1-20.25-26.53A27.5,27.5,0,0,1,879.5,946Z"/><path class="cls-12" d="M824.5,946a27.49,27.49,0,0,0,13,23.39l0,.07s-45-28.85-45-47c0-11,5-14,5-14s11-11,20-10c8.52,1,38.55,19,41.75,21A27.51,27.51,0,0,0,824.5,946Z"/><path class="cls-11" d="M702.5,918.5s11,3,18,3S707.36,925,707.36,925"/><path class="cls-13" d="M832,1299l103-2s1,52-48,53S832,1299,832,1299Z"/><path class="cls-14" d="M838,1245c19-18,98-47,98-18s19,75-15,85c-27.92,8.21-70.67,7-86.73-8.11A19.12,19.12,0,0,1,828,1292C825,1266,838,1245,838,1245Z"/><path class="cls-15" d="M874.5,1345.5s4-12,20.5-.5c4.78,3.33,23.5,86.5-38.5,53.5-2-1-24-16-10.5-15.5,12.52.46,32,8,32-8S876.5,1350.5,874.5,1345.5Z"/><path class="cls-16" d="M880,1359s7,0,6,14-1,25-28,18l-8-5s16,4,25,0c5.33-2.37,7-7,5-27Z"/><path class="cls-17" d="M835.5,1315.5s54.46,33.51,98-1"/><path class="cls-18" d="M556,930l88,39-27.21,15.28s-153,5-163-13,86.42-51.42,86.42-51.42Z"/><path class="cls-19" d="M545.79,913.84s-166,61.44-97,74.44,97,58,97,58-153,160-189,162,125,112,345,87c0,0-40.53-280.41-29.76-307.21s-265.24,3.21-200.24-26.79L556,919Z"/><path class="cls-20" d="M750,1116s-31-19-32-31-16-16-16-16l-21-7s-3,33,15,54,53-4,70,38,62,48,62,48S795,1129,750,1116Z"/><path class="cls-20" d="M737.68,1178.44s-18.4-11.28-19-18.41-9.5-9.5-9.5-9.5L692,1144.59s2.92,21.38,13.61,33.85,31.47-2.37,41.57,22.56S784,1229.51,784,1229.51,764.41,1186.16,737.68,1178.44Z"/><path class="cls-20" d="M794.15,1096.39s-18.41-11.28-19-18.4-9.5-9.5-9.5-9.5l-17.18-6s2.93,21.38,13.62,33.85,31.47-2.37,41.56,22.57,36.82,28.5,36.82,28.5S820.87,1104.11,794.15,1096.39Z"/><path class="cls-19" d="M1008,914s159-1,70,27-92,88-92,88,123.63,171.76,188,204.63a9.12,9.12,0,0,1-.68,16.55c-29.76,12.33-109.2,32.22-320.31,45.82,0,0-62,5-64-11s45-256,45-256S986,976,1008,914Z"/><path class="cls-21" d="M930,964s36.17-28.62,59-39c22-10,91-6,83,1s-97,38.34-121,49c-9,4-8.65.62-13-3C936,970.31,938.55,972.94,930,964Z"/><path class="cls-22" d="M376,1202s99,89,305,72c0,0-23-206-20-215s.5-67.5.5-67.5"/><path class="cls-22" d="M1166.5,1229.5c-48,44-349,54-359,54s-3-18-3-18l31-186s9-1,5-8,5-40,5-40"/><ellipse class="cls-23" cx="840" cy="1133.5" rx="9" ry="3.5" transform="translate(-437.62 1731.92) rotate(-78.56)"/><ellipse class="cls-23" cx="833.88" cy="1170" rx="9" ry="3.5" transform="translate(-478.3 1755.18) rotate(-78.56)"/><ellipse class="cls-23" cx="827.88" cy="1201.71" rx="9" ry="3.5" transform="translate(-514.18 1774.72) rotate(-78.56)"/><path class="cls-24" d="M598.63,1097.18l-3.86,3.41-23.28-15.3a4,4,0,0,1-2.33,1.3c-2.11.42-4.26-.54-4.81-2.14s.71-3.24,2.82-3.66a5,5,0,0,1,2.08,0l-.06-.12a2.65,2.65,0,0,1,1.49-3.54c2.41-1.18,5.35-.18,6,1.74a2.6,2.6,0,0,1-1.26,3Z"/><path class="cls-24" d="M609.81,1098.84l4.36,2.8,18.33-18.33a4.18,4.18,0,0,0,2.48,1c2.06.11,3.85-1.14,4-2.79s-1.39-3.09-3.45-3.2a4.46,4.46,0,0,0-1.94.32,3.1,3.1,0,0,0,.08-.42c.15-1.66-1.39-3.09-3.45-3.2s-3.85,1.14-4,2.79a2.86,2.86,0,0,0,1.86,2.8Z"/><path class="cls-24" d="M619.49,1098.77a11,11,0,0,1-3.08,10.87,19.56,19.56,0,0,1-13,5.4,20.86,20.86,0,0,1-13.84-4.08,12.17,12.17,0,0,1-4.91-8.47c-.67-7.91,7.78-14.66,18.48-14.29C611,1088.47,617.86,1092.89,619.49,1098.77Z"/><path class="cls-24" d="M598.08,1121.69l-2.91-2.41-16,12.36a3.14,3.14,0,0,0-5.08.9c-.32,1.23.65,2.41,2.17,2.64a3.42,3.42,0,0,0,1.5-.1,2.08,2.08,0,0,0-.12.32c-.32,1.22.65,2.4,2.18,2.64a2.94,2.94,0,0,0,3.35-1.8,2,2,0,0,0-1-2.23Z"/><path class="cls-24" d="M610.81,1118.57l-3.27,2.13,15.69,12.6a2.25,2.25,0,0,0-1.23,1.29c-.36,1.15.65,2.32,2.24,2.61s3.18-.41,3.54-1.57a1.53,1.53,0,0,0-.08-1.13,3,3,0,0,0,.41.09c1.6.29,3.18-.41,3.54-1.56s-.65-2.32-2.24-2.61a3.54,3.54,0,0,0-3,.71Z"/><path class="cls-24" d="M618.87,1118c.48,5.62-5.94,10.51-14.33,10.92s-15.57-3.81-16-9.43a7.42,7.42,0,0,1,1.34-4.83,20.86,20.86,0,0,0,13.84,4.08,19.54,19.54,0,0,0,13-5.4A7.88,7.88,0,0,1,618.87,1118Z"/><ellipse class="cls-25" cx="594.87" cy="1101.06" rx="3.04" ry="2.32"/><ellipse class="cls-25" cx="609.45" cy="1100.35" rx="3.04" ry="2.32"/><path class="cls-26" d="M1072.64,916.6S1066,932,1054,938s-111.21,39.93-111.21,39.93S922,1016,930,1035s96,208.37,162.5,235.69c0,0,88.27-15.36,86.39-30S984,1074,990,1021c2.7-23.85,25.7-63.85,108.35-87.92C1098.35,933.08,1115.28,914.21,1072.64,916.6Z"/><path class="cls-27" d="M685.21,742.35C681.1,843.85,595.49,922.77,494,918.66S313.57,828.94,317.68,727.44a183,183,0,0,1,23.55-82.94c13.35-3.59,46.3-11.5,90.48-15.06,16.78-1.37,35.19-2.11,54.74-1.75,14.28.25,29.17,1.09,44.5,2.7A463.51,463.51,0,0,1,615.14,647a34.2,34.2,0,0,1,15.7,5c4.54,1.52,9.09,3.17,13.65,4.89l2,.78c1.8.68,3.61,1.4,5.43,2.13,7.07,2.83,14.17,5.9,21.24,9.22A183.18,183.18,0,0,1,685.21,742.35Z"/><path class="cls-28" d="M1183.85,726.61c-4,98.09-86.7,174.37-184.79,170.4A177.87,177.87,0,0,1,833.82,676.15q6.13-3.23,13.26-6.78c.39-.19.77-.39,1.18-.57l1.46-.74c34.39-16.93,84.17-37.89,138.48-49.21,11.34-2.37,22.87-4.31,34.5-5.72a332,332,0,0,1,43.8-2.48c31.94.41,63.72,6,93.33,19.22A176.94,176.94,0,0,1,1183.85,726.61Z"/><path class="cls-29" d="M675.62,736.18c0,.62,0,1.24,0,1.86,0,.88,0,1.79-.08,2.7v.17c-.07,2-.22,4.07-.4,6.07-.1,1-.21,2-.32,3a130.42,130.42,0,0,1-10.2,38.18c-22.82,52.24-78.46,87.91-142,85.32C441.3,870.2,377.9,805.42,381,728.8c1.63-39.95,21-75.23,50.7-99.36,16.78-1.37,35.19-2.11,54.74-1.75,14.28.25,29.17,1.09,44.5,2.7A463.51,463.51,0,0,1,615.14,647a34.2,34.2,0,0,1,15.7,5c4.54,1.52,9.09,3.17,13.65,4.89l2,.78c1.8.68,3.61,1.4,5.43,2.13A135.48,135.48,0,0,1,663.45,680a130.75,130.75,0,0,1,12.13,53.33C675.6,734.31,675.62,735.24,675.62,736.18Z"/><path class="cls-29" d="M1122.74,722.94c-3,74.06-69.15,131.52-147.76,128.32-73.68-3-132.18-58.23-136.72-126.17,0-.65-.09-1.31-.11-2,0-1.06-.09-2.11-.13-3.17,0-1.87,0-3.76,0-5.66V714l.06-1.45c0-.39,0-.77,0-1.16,0-.13,0-.28,0-.41.1-2.11.23-4.2.43-6.3a126.51,126.51,0,0,1,8.54-35.33c.39-.19.77-.39,1.18-.57l1.46-.74c34.39-16.93,84.17-37.89,138.48-49.21,11.34-2.37,22.87-4.31,34.5-5.72a332,332,0,0,1,43.8-2.48C1102.22,636.37,1124.57,677.5,1122.74,722.94Z"/><path class="cls-30" d="M675.62,736.18c0,.62,0,1.24,0,1.86,0,.88,0,1.79-.08,2.7v.17c-.07,2-.22,4.07-.4,6.07-.1,1-.21,2-.32,3a116.49,116.49,0,0,1-24.67,58.72v0C625.56,839.66,585.75,859,541.58,857.2c-40.39-1.63-75.74-20.59-98.28-48.94a122.51,122.51,0,0,1-11.07-16.5,115.75,115.75,0,0,1-14.72-61.32c1.83-45.05,29.44-83.33,68.94-102.75,14.28.25,29.17,1.09,44.5,2.7A463.51,463.51,0,0,1,615.14,647a34.2,34.2,0,0,1,15.7,5c4.54,1.52,9.09,3.17,13.65,4.89,18.83,20.76,30.39,47.48,31.09,76.48C675.6,734.31,675.62,735.24,675.62,736.18Z"/><path class="cls-30" d="M1087.48,721.11C1084.85,786,1026.89,836.31,958,833.52c-43.08-1.75-80.22-23.87-101.35-56.06l-.34-.54A112.43,112.43,0,0,1,838,713.28c0-.24,0-.47,0-.71a.55.55,0,0,1,0-.18c0-.34,0-.65,0-1,0-.13,0-.28,0-.41.1-2.11.23-4.2.43-6.3a111.68,111.68,0,0,1,9.72-35.9l1.46-.74c34.39-16.93,84.17-37.89,138.48-49.21,11.34-2.37,22.87-4.31,34.5-5.72a123.32,123.32,0,0,1,45.85,41,112.31,112.31,0,0,1,18.93,67Z"/><path d="M678,739.61a110.31,110.31,0,0,1-27.87,69.11v0A110.84,110.84,0,1,1,531,630.39,463.51,463.51,0,0,1,615.14,647a34.2,34.2,0,0,1,15.7,5c4.54,1.52,9.09,3.17,13.65,4.89l2,.78A110.54,110.54,0,0,1,678,739.61Z"/><path d="M1052.2,718.91c0,.77,0,1.55-.07,2.35a107.14,107.14,0,0,1-195.44,56.2l-.34-.54a106.54,106.54,0,0,1-18.09-51.83c0-.65-.09-1.31-.11-2,0-1.06-.09-2.11-.13-3.17,0-1.89-.07-3.76,0-5.66V714c0-.24,0-.5,0-.74s0-.47,0-.71a.55.55,0,0,1,0-.18,106.52,106.52,0,0,1,11.64-44.33c34.39-16.93,84.17-37.89,138.48-49.21a107.14,107.14,0,0,1,64,100.06Z"/><path d="M482.42,457.74a151,151,0,0,1,26.56,3.4,210.66,210.66,0,0,1,25.88,7.26A208.94,208.94,0,0,1,604.51,509c3.32,3.06,6.7,6.05,9.8,9.33s6.16,6.57,9.16,9.92a182.6,182.6,0,0,1,28.45,45.37,296.81,296.81,0,0,0-33.1-41.12c-6.15-6.22-12.54-12.16-19.24-17.74-1.68-1.39-3.41-2.72-5.1-4.09l-2.56-2-2.63-1.93c-1.77-1.28-3.47-2.64-5.27-3.87l-5.38-3.7a284.47,284.47,0,0,0-46-24.86c-8.05-3.44-16.25-6.62-24.63-9.33A259.4,259.4,0,0,0,482.42,457.74Z"/><path class="cls-31" d="M647.34,682.91a34.6,34.6,0,1,1-33.17-36l1,.05a34.2,34.2,0,0,1,15.7,5A34.55,34.55,0,0,1,647.34,682.91Z"/><circle class="cls-31" cx="1053.6" cy="684.8" r="34.14"/><ellipse class="cls-31" cx="462.63" cy="798.93" rx="11.97" ry="35.32" transform="translate(-354.39 1228.82) rotate(-87.68)"/><ellipse class="cls-31" cx="918.21" cy="790.05" rx="11.56" ry="34.14" transform="translate(91.6 1675.5) rotate(-87.68)"/><path d="M977,467.82c-7.93,3.87-15.61,8.08-23.12,12.57s-14.85,9.2-22,14.13a353.06,353.06,0,0,0-40.55,32.61l-4.7,4.48c-1.58,1.49-3,3.08-4.59,4.61l-2.29,2.3-2.22,2.37L873,545.64q-8.7,9.68-16.66,20c-5.2,7-10.36,14-15,21.4-4.85,7.29-9,15-13.47,22.63A200,200,0,0,1,851.25,562l3.77-5.52c.62-.92,1.28-1.82,2-2.71l2-2.67c2.61-3.61,5.52-7,8.33-10.45a255.7,255.7,0,0,1,18.47-19.35,250.12,250.12,0,0,1,42.64-32A236.09,236.09,0,0,1,952,476.93,164.16,164.16,0,0,1,977,467.82Z"/><path class="cls-32" d="M685.21,742.93C681.1,844.43,595.49,923.35,494,919.24S313.57,829.52,317.68,728a183,183,0,0,1,23.55-82.94c13.35-3.59,46.3-11.5,90.48-15.06,16.78-1.37,35.19-2.11,54.74-1.76,14.28.26,29.17,1.1,44.5,2.71a463.51,463.51,0,0,1,84.19,16.59,34.2,34.2,0,0,1,15.7,5q6.81,2.28,13.65,4.89l2,.77c1.8.69,3.61,1.41,5.43,2.13,7.07,2.84,14.17,5.91,21.24,9.23A183.18,183.18,0,0,1,685.21,742.93Z"/><path class="cls-33" d="M1183.85,727.19c-4,98.09-86.7,174.37-184.79,170.4A177.87,177.87,0,0,1,833.82,676.73q6.13-3.22,13.26-6.78c.39-.19.77-.39,1.18-.58l1.46-.74c34.39-16.92,84.17-37.89,138.48-49.2,11.34-2.37,22.87-4.31,34.5-5.72a332,332,0,0,1,43.8-2.48c31.94.4,63.72,6,93.33,19.22A176.9,176.9,0,0,1,1183.85,727.19Z"/><path class="cls-34" d="M456.42,627.6s6.47-49.68,26.84-71.9l-25.93-25.92h50s37.15-45.65,50.06-47.83L551.77,452l33.34,14.81L609.18,452l-7.41,29.63s-55.55,40.74-55.55,61.11,18.52,38.89,18.52,38.89-25.93-16.67-31.48,3.7-13,42.59-13,42.59"/><path class="cls-35" d="M1188.21,731.17c-4,98.09-86.7,174.36-184.8,170.4A177.88,177.88,0,0,1,838.18,680.7q6.14-3.21,13.26-6.77c.38-.19.77-.39,1.18-.58l1.46-.74c34.39-16.92,84.17-37.89,138.48-49.2,11.34-2.37,22.87-4.32,34.5-5.72a332,332,0,0,1,43.8-2.48c31.94.4,63.72,6,93.33,19.22A177,177,0,0,1,1188.21,731.17Z"/><circle class="cls-36" cx="1094.96" cy="695.93" r="11.73"/><circle class="cls-36" cx="1109.64" cy="717.66" r="11.73"/><circle class="cls-36" cx="929.15" cy="815.24" r="11.73"/><circle class="cls-36" cx="944.44" cy="836.55" r="11.73"/><rect class="cls-36" x="1012.41" y="668.72" width="13.53" height="195.78" transform="translate(1046.13 -508.42) rotate(54.26)"/><circle class="cls-36" cx="1101.34" cy="820.78" r="11.73"/><circle class="cls-36" cx="1082.53" cy="839.06" r="11.73"/><circle class="cls-36" cx="954.69" cy="678.58" r="11.73"/><circle class="cls-36" cx="936.41" cy="697.39" r="11.73"/><rect class="cls-36" x="1011.65" y="660.75" width="13.53" height="195.78" transform="translate(2272.01 555.58) rotate(134.12)"/><path class="cls-36" d="M975.94,772.74s-13.53-76.69,43.31-70.37,46.91,33.38,45.11,55.93S1000.3,808.83,975.94,772.74Z"/><path class="cls-36" d="M971.43,781.76c1.36,2,43.88,38.16,88.64,5a4.23,4.23,0,0,0-1.14-7.41l-7.72-2.63s-32.86,30.34-77.07-3.94C974.14,772.74,966,773.64,971.43,781.76Z"/><path class="cls-36" d="M969.63,781.76s-11.73,39.7,23.45,50.53,64.34,8.1,68.71-45.58C1061.79,786.71,1017.44,816.05,969.63,781.76Z"/><path class="cls-37" d="M986.77,747.48s9.92,0,8.12,4.51-3.61,11.73-6.32,6.31S977.75,752,986.77,747.48Z"/><path class="cls-37" d="M1009.44,763.84s-3.72-8.24-1.92-10.05,11.21-1.8,11.92,0,.86,9.28-1.92,10.05-10.9-.12-10.9-.12"/><path class="cls-36" d="M982.26,657.26s25.26,51.42,24.36,65"/><path class="cls-36" d="M1025.56,661.77s17.15,58.64,12.64,67.66"/><path class="cls-38" d="M974.53,785.06a135.84,135.84,0,0,0,17,7.35,109.38,109.38,0,0,0,17.72,4.77,74.86,74.86,0,0,0,18.24,1.08,58.77,58.77,0,0,0,17.87-4.1,41.48,41.48,0,0,1-4.18,2.05c-.72.29-1.42.63-2.16.89l-2.21.77a52.07,52.07,0,0,1-9.18,2,60.06,60.06,0,0,1-9.39.35,76.7,76.7,0,0,1-9.33-1,88.29,88.29,0,0,1-17.94-5.29A85.75,85.75,0,0,1,974.53,785.06Z"/><path class="cls-38" d="M974.87,772.4a136.55,136.55,0,0,0,17,7.35,109.66,109.66,0,0,0,17.72,4.77,75.39,75.39,0,0,0,18.24,1.08,58.5,58.5,0,0,0,17.87-4.11,41.55,41.55,0,0,1-4.18,2.06c-.72.29-1.42.63-2.16.88l-2.21.78a51.24,51.24,0,0,1-9.17,1.94,60.24,60.24,0,0,1-9.4.36,78.74,78.74,0,0,1-9.33-1,88.48,88.48,0,0,1-17.94-5.29A85.93,85.93,0,0,1,974.87,772.4Z"/><line class="cls-39" x1="983.5" y1="790.07" x2="982.92" y2="804.48"/><line class="cls-39" x1="995.11" y1="794.55" x2="995.88" y2="806.33"/><line class="cls-39" x1="1006.75" y1="799.33" x2="1006.99" y2="808.18"/><line class="cls-39" x1="1018.42" y1="799.33" x2="1016.25" y2="810.03"/><line class="cls-40" x1="1157" y1="642.5" x2="1227.5" y2="641.54"/><path class="cls-32" d="M834.5,677.5c-11-11-167-380-87-419"/><path class="cls-41" d="M264.13,296.55a3.06,3.06,0,0,0-3.26,4.18c8.32,20.78,42.31,99.83,79,102.15,42.19,2.68,474.52-104.37,854.26-16.15a3,3,0,0,0,.73.08c7.21-.13,117.2-3.92,122.52-119.71a5.27,5.27,0,0,0-7.56-5c-46.43,22.22-287.49,123.49-351-135.1C939,46.51,677.45-49.7,579,143.12,489.43,318.46,298.07,301.13,264.13,296.55Z"/><path class="cls-42" d="M258.94,295.76S280,236.85,375,228.81s137.87,0,137.87,0S427.75,344,346.86,327.9,258.94,295.76,258.94,295.76Z"/><path class="cls-43" d="M514.27,229.67a339.07,339.07,0,0,1-22.12,26.11c-22.34-.59-53.64-.14-94.65,3.35-66.29,5.59-96.57,36-108.81,53.85-25.29-9.37-28.35-16.36-28.35-16.36s21.1-58.92,116.06-67S514.27,229.67,514.27,229.67Z"/><path class="cls-44" d="M995.55,216.7s259.14-45,318.77,36.69a5.2,5.2,0,0,1-1.83,7.62C1278.36,279,1080.39,374.21,995.55,216.7Z"/><path class="cls-27" d="M1315.88,255.69a142,142,0,0,1-31.08,19c-59.61-46.7-204.58-35.19-270.67-27a194.38,194.38,0,0,1-19.76-30S1259.29,166.2,1316.7,250A4.21,4.21,0,0,1,1315.88,255.69Z"/><path class="cls-45" d="M545,195.18c.38,60,.84,122.16,3.37,170.23C434.15,380,355.66,396.3,338.75,394.76c-23.06-2.1-69-72.18-77.69-93.79a3.42,3.42,0,0,1,3.62-4.67C296.13,300.46,448.74,313.62,545,195.18Z"/><path class="cls-45" d="M667.15,52.25c-44.42,128.52-25.66,226.37,11.2,298.49-27.92,2.17-49.86,5.6-75.47,8.38C593,335.77,587.81,312.71,586,274.34c-3.48-74.24,5.1-129.43,14.67-166.25a190.74,190.74,0,0,1,66.47-55.84"/><path class="cls-46" d="M768.9,76.17c-70.34,5.35-73.86,8-172.34,139.25C521.79,315,357.88,336,283.25,340.24a3.7,3.7,0,0,1-3.49-2c-8-15.26-14-29.33-17.07-37a3.7,3.7,0,0,1,3.91-5.06c36.68,4.76,225.12,20,313.79-153.58C678.86-50.18,940.45,46,960.22,126.57c61,248.43,285.88,164.71,344.62,138.05a9.51,9.51,0,0,1,13.41,9.47,153.92,153.92,0,0,1-2.87,19.1,3.71,3.71,0,0,1-2.52,2.73c-30,9.38-66.29,18.78-97.31,21.26-66.82,5.36-196.95,40.17-260.26-101.76S839.23,70.81,768.9,76.17"/><path class="cls-24" d="M782.38,202.23l-9.45,8.36-57-37.5a9.87,9.87,0,0,1-5.73,3.21c-5.16,1-10.43-1.33-11.77-5.26s1.74-7.94,6.89-9a12.54,12.54,0,0,1,5.11.07l-.15-.29c-1.53-3.14-.07-6.88,3.64-8.68,5.93-2.87,13.13-.43,14.74,4.27,1,2.81-.35,5.67-3.09,7.43Z"/><path class="cls-24" d="M809.78,206.3l10.69,6.87,44.92-44.92a10.11,10.11,0,0,0,6.07,2.34c5,.28,9.45-2.78,9.83-6.83s-3.4-7.56-8.45-7.83a10.86,10.86,0,0,0-4.76.79,5.42,5.42,0,0,0,.19-1c.38-4.05-3.4-7.56-8.44-7.83s-9.45,2.78-9.83,6.83c-.27,2.9,1.59,5.53,4.54,6.87Z"/><path class="cls-24" d="M833.51,206.14c2.74,9.88-.47,19.4-7.56,26.63-7.32,7.5-18.76,12.6-31.94,13.24s-25.39-3.28-33.91-10c-6.89-5.4-11.36-12.65-12-20.74-1.64-19.38,19.07-35.92,45.29-35C812.68,180.9,829.51,191.73,833.51,206.14Z"/><path class="cls-24" d="M781,262.31l-7.12-5.92-39.25,30.3a7,7,0,0,0-4.24-2.2c-3.73-.57-7.41,1.39-8.2,4.4s1.58,5.9,5.32,6.47a8.57,8.57,0,0,0,3.65-.24,4.31,4.31,0,0,0-.27.76c-.8,3,1.59,5.9,5.32,6.48s7.41-1.39,8.21-4.4a4.89,4.89,0,0,0-2.53-5.46Z"/><path class="cls-24" d="M812.23,254.65l-8,5.23,38.46,30.87a5.49,5.49,0,0,0-3,3.16c-.88,2.82,1.58,5.68,5.49,6.39s7.8-1,8.68-3.83a3.89,3.89,0,0,0-.2-2.79,8.84,8.84,0,0,0,1,.23c3.92.71,7.8-1,8.68-3.83s-1.58-5.69-5.49-6.4a8.76,8.76,0,0,0-7.26,1.75Z"/><path class="cls-24" d="M832,253.25C833.15,267,817.42,279,796.88,280s-38.15-9.33-39.32-23.11a18.15,18.15,0,0,1,3.3-11.84c8.52,6.73,20.72,10.66,33.91,10s24.63-5.74,32-13.24A19.42,19.42,0,0,1,832,253.25Z"/><ellipse class="cls-25" cx="773.17" cy="211.75" rx="7.46" ry="5.68"/><ellipse class="cls-25" cx="808.9" cy="210" rx="7.46" ry="5.68"/><path class="cls-47" d="M320.5,490.5s341.08-162.82,919.66-39.14c0,0-29.34-52.41-48.21-60.79s-366.86-85.95-830.14,12.57C361.81,403.14,335.17,446.48,320.5,490.5Z"/><path class="cls-48" d="M361.81,403.14s191.3,2.92,216.18,19.28c0,0,200.51-55.28,264.69-68.72s278.21,75.56,278.21,75.56"/><path class="cls-49" d="M1174.39,171.42s-54.86-13.34-85.27,2.37c-29.89,15.44-72.88,63.52-74.35,65.18l0,0-4.61-3,.94-1.42c14-20.24,60.33-59.45,79-72.4,19.07-13.27,99.88-11.21,101.78-1.49S1174.39,171.42,1174.39,171.42Z"/><path class="cls-50" d="M1173.69,170.38s-55-12.88-85.24,3.08c-29.76,15.69-72.35,64.13-73.8,65.8l0,0-4.63-2.92c.3-.47.61-.94.93-1.42,13.82-20.36,59.83-60,78.36-73.07,19-13.42,99.79-12,101.77-2.34S1173.69,170.38,1173.69,170.38Z"/><path class="cls-50" d="M527.59,211.05s-47.17-47.93-84.71-59.87-116.31,14.2-116.31,14.2-26.24,2.72-21.07-8.77S422,126.75,444.7,138.14s77.83,48.49,90,68.61"/></g></svg>