<svg xmlns="http://www.w3.org/2000/svg" viewBox="0 0 1500 1500"><defs><style>.cls-1{fill:#a0c4ff;}.cls-2{fill:#bdb2ff;}.cls-3{fill:#8e85bf;}.cls-13,.cls-14,.cls-18,.cls-20,.cls-28,.cls-30,.cls-31,.cls-32,.cls-34,.cls-4,.cls-6,.cls-7,.cls-9{fill:none;}.cls-10,.cls-11,.cls-13,.cls-17,.cls-18,.cls-19,.cls-22,.cls-23,.cls-24,.cls-25,.cls-26,.cls-28,.cls-30,.cls-31,.cls-32,.cls-34,.cls-35,.cls-36,.cls-37,.cls-38,.cls-39,.cls-4,.cls-6,.cls-7,.cls-9{stroke:#000;}.cls-11,.cls-12,.cls-13,.cls-14,.cls-15,.cls-17,.cls-18,.cls-19,.cls-22,.cls-23,.cls-24,.cls-34,.cls-36,.cls-37,.cls-38,.cls-4,.cls-6,.cls-7,.cls-8,.cls-9{stroke-miterlimit:10;}.cls-4{stroke-width:17px;}.cls-5{fill:#5f5980;}.cls-10,.cls-19,.cls-6,.cls-7{stroke-width:15px;}.cls-18,.cls-26,.cls-28,.cls-31,.cls-39,.cls-7,.cls-8{stroke-linecap:round;}.cls-8{fill:#ffe7ff;stroke:#ffe7ff;}.cls-9{stroke-width:20px;}.cls-10,.cls-16,.cls-17{fill:#bfbfbd;}.cls-10,.cls-25,.cls-26,.cls-27,.cls-28,.cls-30,.cls-31,.cls-32,.cls-35,.cls-39{stroke-linejoin:round;}.cls-11,.cls-12{fill:#9bf6ff;}.cls-11,.cls-13,.cls-14,.cls-36{stroke-width:5px;}.cls-12{stroke:#fff;}.cls-14{stroke:#9bf6ff;}.cls-15{fill:#ed0f1a;stroke:#ed0f1a;stroke-width:6px;}.cls-17{stroke-width:11px;}.cls-18,.cls-27{stroke-width:4px;}.cls-19{fill:#4e7b80;}.cls-21{opacity:0.71;}.cls-22,.cls-24,.cls-25,.cls-27,.cls-29{fill:#999;}.cls-22{stroke-width:13px;}.cls-23{fill:#ffadad;}.cls-23,.cls-24,.cls-32{stroke-width:7px;}.cls-25,.cls-26,.cls-30,.cls-31,.cls-34,.cls-35,.cls-37,.cls-38,.cls-39{stroke-width:9px;}.cls-26{fill:#666;}.cls-27{stroke:#17f5ff;}.cls-28{stroke-width:8px;}.cls-29{opacity:0.7;}.cls-33{fill:#ccc;opacity:0.58;}.cls-35,.cls-37{fill:#595959;}.cls-36,.cls-38,.cls-39{fill:#fff;}</style></defs><g id="Layer_7" data-name="Layer 7"><rect class="cls-1" x="0.41" y="-0.09" width="1500" height="1500"/><path class="cls-2" d="M880.1,904.65H1070a89.66,89.66,0,0,1,89.66,89.66v244.27a0,0,0,0,1,0,0H948.82a99.36,99.36,0,0,1-99.36-99.36V935.29A30.64,30.64,0,0,1,880.1,904.65Z" transform="translate(2076.18 67.06) rotate(90)"/><path class="cls-3" d="M925.9,975.61a138.14,138.14,0,0,1,19.47,2.21c6.44,1.13,12.82,2.6,19.14,4.32a235.51,235.51,0,0,1,37,13.62,215.56,215.56,0,0,1,34.48,20.13,184.5,184.5,0,0,1,30.25,27,156.18,156.18,0,0,1,23.23,33.87,146.66,146.66,0,0,1,7.89,19.07,137.1,137.1,0,0,1,4.94,20c.27,1.69.55,3.37.78,5.06l.53,5.07c.2,1.69.28,3.39.38,5.08s.22,3.37.2,5.07a145.79,145.79,0,0,1-1.08,20.08,143.47,143.47,0,0,1-3.94,19.45,127.74,127.74,0,0,1-6.56,18.5c-.12-3.29,0-6.5-.1-9.72s-.08-6.41-.26-9.58l-.21-4.74-.34-4.72-.17-2.34-.23-2.33-.47-4.64c-.45-3.08-.72-6.14-1.31-9.17-.29-1.51-.46-3-.76-4.53l-.91-4.48a168.4,168.4,0,0,0-11.1-34.07,176.82,176.82,0,0,0-8.15-15.71,182.77,182.77,0,0,0-21-28.52c-15.85-17.78-35-33-55.64-46.65-10.31-6.86-21.06-13.25-32.09-19.42S937.58,981.4,925.9,975.61Z"/><path class="cls-3" d="M947,941.11a144,144,0,0,1,19.43,2.24c6.43,1.13,12.8,2.59,19.12,4.28a249.27,249.27,0,0,1,37,13.27,236.24,236.24,0,0,1,34.72,19.31,206.67,206.67,0,0,1,31.07,25.56,184.4,184.4,0,0,1,13.5,15.21c2.12,2.65,4.12,5.41,6.1,8.18s3.84,5.63,5.58,8.57c.91,1.44,1.76,2.92,2.59,4.41s1.69,3,2.45,4.5,1.57,3,2.32,4.56l2.13,4.66a152.18,152.18,0,0,1,6.92,19.2c.46,1.64.87,3.29,1.28,4.94s.77,3.3,1.1,5,.71,3.3,1,5,.51,3.34.75,5a142.12,142.12,0,0,1,1.2,20c0,1.67-.09,3.33-.17,5s-.11,3.31-.3,5c-.36,3.3-.61,6.57-1.21,9.82a122.49,122.49,0,0,1-4.5,19.1c-1.47-13-3.11-25.51-6-37.57l-1.08-4.51c-.39-1.49-.83-3-1.24-4.44l-.62-2.21-.68-2.2c-.46-1.45-.88-2.91-1.38-4.35-2-5.77-4.17-11.38-6.6-16.87-9.81-21.92-23.92-41.27-40.81-58.32s-36.5-31.81-57.36-45.22C1002.82,971.42,992,965.1,981,959S958.63,947,947,941.11Z"/><path class="cls-3" d="M1005.44,924.82S1130,951.65,1153,1083.89c0,0,13.37-120.66,0-128.4C1116.6,934.4,1188,925.78,1005.44,924.82Z"/><path class="cls-3" d="M958.49,979.44c-5.75-19.16,15.33-23,21.08-21.08s9.58-9.58,9.58-9.58,1.32-12.11,20.12-16.29c17.25-3.84,24.92,1.91,24.92,1.91s-57.87-23.95-74.75-3.83a109.21,109.21,0,0,1-38,28.72L947,988.8Z"/><path class="cls-4" d="M881,905.26h189.89a89.66,89.66,0,0,1,89.66,89.66v244.27a0,0,0,0,1,0,0H949.76a99.36,99.36,0,0,1-99.36-99.36V935.89A30.64,30.64,0,0,1,881,905.26Z" transform="translate(2077.72 66.73) rotate(90)"/><path class="cls-2" d="M596.26,1012s-324.88,288.26-102.17,385.39c0,0,530.84,45.21,591.12-10.05s41.87-232.76-144-403.57S596.26,1012,596.26,1012Z"/><path class="cls-3" d="M423.78,1249.67s23-24.91,36.41,1.92c9.92,19.83,18.79,64.81,22.74,86.91a4.82,4.82,0,0,1-7.62,4.73c-11.21-8.35-30.26-20.06-47.7-18.81C400.78,1326.33,423.78,1249.67,423.78,1249.67Z"/><path class="cls-5" d="M492.77,1378.08s400.38,17.85,414.84,16.59-5.72,23.62-31.08,21.72-377.28-16.9-382.44-19S492.77,1378.08,492.77,1378.08Z"/><path class="cls-3" d="M837.75,979.44s184,145.66,207,398.64c0,0,54.39,43.11,71.27-55.1,0,0,26.58-166.32-194.83-358.42h0Z"/><path class="cls-3" d="M647.05,976.57s34.5,1.91,47.91,32.58,122.66,59.41,174.41,30.66,72.83-13.41,72.83-13.41l-47.92-49.83L647.05,961.76Z"/><path class="cls-6" d="M597.62,1012.93s-324.89,288.26-102.17,385.38c0,0,530.83,45.21,591.12-10s41.86-232.76-144-403.57S597.62,1012.93,597.62,1012.93Z"/><path class="cls-2" d="M510.91,1399.19c-5.07-9.38-140.18-1.66-195.43,13.18s-54.41-28-54.41-28l-13.2-78.2s-15.6-61.61,23.19-67.23,42.13,50.14,47.29,79.46,42,18.87,42,18.87l99.88-14.76"/><path class="cls-5" d="M322.2,1403s89.86-39.32,181-24.45l4.18,18.75Z"/><path class="cls-7" d="M456.36,1324.42l-96.62,13.75s-36.79,10.43-41.95-18.88-8.51-85.07-47.3-79.45-23.18,67.22-23.18,67.22l13.2,78.2s-.83,42.84,54.41,28,190.36-22.55,195.43-13.18"/><path class="cls-2" d="M885.88,1412s84.52,14.09,104.24,28.17,78.89,0,76.08-14.08S1122.55,1234.49,1007,1288c0,0-31,33.81-25.36,84.52"/><path class="cls-8" d="M978.61,1367.54s14.22-76,27.71-75.87c7.26.09,45.12-10.38,31.7-4.63-8.17,3.51-20.86,41.94-24,56.54-4.53,21.4-3.77,45.12-8.62,48.87S990.11,1380,978.61,1367.54Z"/><path class="cls-5" d="M1017.9,1441.32c4.61,1.16,2.69-22,3.12-26.68l8.38-92.14s13-64.41,44.08-15.33c1.37,2.17.36-6.35.88-3.82,3,14.64,11.05,68.9-20,124.56,0,0-12.63,31.45-107.89-2.48,0,0-51.18-3.27-51.18-18.6,0-5.44,13.42-11.5,13.42-11.5s57.2,2.71,61.32,9.58c5.75,9.58,5.13,14.46,23,19.16C1003.36,1426.81,1002.57,1437.49,1017.9,1441.32Z"/><path class="cls-7" d="M891.41,1414.49s78.54,11.14,98.26,25.22,70.87-.69,76.07-14.08c5.82-15,46.31-161.28-32.29-147.14-18.52,3.32-34,15.91-42,32.94a112.88,112.88,0,0,0-10.27,60.66"/><path class="cls-2" d="M1255.43,523.76a356.18,356.18,0,0,1-7.63,55.73c-34.71,158.68-164.09,266.23-259.58,333.37-38.32,26.91-71.2,47.36-90.3,62a113.63,113.63,0,0,0-12.11,10.36c-47.68,49-96.67,48-134.57,33.93a183.2,183.2,0,0,1-40.82-21.92c-6.46-4.57-11.92-9-16.26-12.71a81.67,81.67,0,0,0-27.3-15.64c-58.27-19.69-258.17-98.1-315.73-263.6-21.05-60.55-29-113.24-30-157.08a413.64,413.64,0,0,1,1.75-47.53c8.14-43.31,34-83.6,73.22-118.28,83.51-73.87,227.77-122.67,391.72-122.67a784.33,784.33,0,0,1,149.67,14.14C1119.07,309.26,1250.7,407.43,1255.43,523.76Z"/><path class="cls-3" d="M838.53,261.26S1539.19,496.48,809,1010.11c0,0-42.06,4.17-20.07,17.42s100-45.31,100-45.31,224.42-156.77,228.46-176.56S1339.87,611.47,1215.3,416C1215.3,416,1061.63,257.94,838.53,261.26Z"/><path class="cls-2" d="M637.08,1089.18s0,184-6.56,226.14-19.66-7.66-19.66-7.66S592.29,1392,577,1315.32s19.67-226.14,19.67-226.14-10.12-16.21-22.75,12.54"/><path d="M637.08,1089.18c.77,11.42,1.35,22.84,1.84,34.27s.89,22.85,1.25,34.28q1.08,34.29,1.11,68.62c0,22.9-.25,45.76-1.46,68.82-.42,5.8-.71,11.54-1.46,17.52-.18,1.48-.3,3-.52,4.45s-.47,3-.77,4.53-.63,3.08-1.06,4.7a36.05,36.05,0,0,1-1.72,5.1,21.77,21.77,0,0,1-1.59,3,13,13,0,0,1-3.65,3.77,10.51,10.51,0,0,1-3.86,1.56,9.69,9.69,0,0,1-2.33.13,10.36,10.36,0,0,1-1.12-.12c-.34-.06-.68-.14-1-.23A11.08,11.08,0,0,1,619,1339a14.59,14.59,0,0,1-1.36-.76c-.36-.24-.73-.51-1.06-.76s-.59-.5-.86-.75a18.49,18.49,0,0,1-2.36-2.69,28.69,28.69,0,0,1-1.6-2.42,49.23,49.23,0,0,1-2.35-4.52c-1.36-2.94-2.45-5.8-3.45-8.67-.51-1.43-1-2.86-1.43-4.3s-.87-2.82-1.3-4.41l15.37-.31c-.77,3.43-1.58,6.59-2.48,9.86s-1.89,6.47-3,9.71-2.3,6.47-3.76,9.75c-.73,1.64-1.52,3.28-2.45,5a36.6,36.6,0,0,1-3.36,5.15c-.33.44-.76.9-1.14,1.35s-.85.91-1.37,1.37a16.48,16.48,0,0,1-3.94,2.71,12.64,12.64,0,0,1-6.4,1.22,12.11,12.11,0,0,1-3.36-.74c-.48-.19-1-.4-1.42-.63a12.47,12.47,0,0,1-1.21-.72,14.47,14.47,0,0,1-2-1.53c-.56-.52-1-1-1.5-1.54s-.8-1-1.17-1.48l-1-1.43a43.06,43.06,0,0,1-2.8-5.4,85.26,85.26,0,0,1-3.51-10.16c-1-3.32-1.75-6.62-2.44-9.91-.37-1.64-.67-3.28-1-4.92l-.84-5-.42-2.52c-.13-.83-.22-1.67-.32-2.5l-.62-5c-.34-3.34-.61-6.67-.86-10s-.37-6.65-.41-10c-.34-13.26.1-26.43,1-39.52a708.35,708.35,0,0,1,10.33-77.64l1.82-9.6,1.94-9.56c1.33-6.38,2.69-12.74,4.18-19.07,3-12.67,6-25.29,9.6-37.82l.24,1.46a8.84,8.84,0,0,0-1-1.37,10.28,10.28,0,0,0-1.24-1.23,6.62,6.62,0,0,0-2.95-1.44c-2.13-.4-4.51.72-6.49,2.38a30.25,30.25,0,0,0-5.25,6.08,82.27,82.27,0,0,0-4.2,7.1,66.62,66.62,0,0,1,3.27-7.65,31.87,31.87,0,0,1,4.74-7,14.42,14.42,0,0,1,3.54-2.79,8.93,8.93,0,0,1,4.72-1.06,9.7,9.7,0,0,1,4.63,1.64,12.79,12.79,0,0,1,1.86,1.49,12.3,12.3,0,0,1,1.62,1.84l.4.56-.15.91c-4.41,25.47-8.08,51.11-11.22,76.71-1.52,12.81-2.94,25.62-4,38.44s-2,25.63-2.46,38.42-.54,25.55.07,38.18c.12,3.17.43,6.3.63,9.44s.58,6.25.94,9.35l.64,4.62c.11.77.2,1.55.33,2.31l.42,2.27.83,4.55c.33,1.53.64,3.07,1,4.58.69,3,1.45,6,2.29,8.94a71.22,71.22,0,0,0,2.86,8.19,28.79,28.79,0,0,0,1.67,3.22c.14.19.27.38.39.58a4.18,4.18,0,0,1,.34.42l.2.2s0,.06-.06,0-.08,0-.18-.09a1.09,1.09,0,0,0-.31-.14,3.37,3.37,0,0,0-1-.22,3.45,3.45,0,0,0-1.7.28c-.43.23.22-.13.79-.94a35.84,35.84,0,0,0,3.78-6.73c1.19-2.64,2.27-5.47,3.26-8.36s1.91-5.87,2.76-8.86,1.66-6.09,2.32-9l7.14-31,8.24,30.73a108,108,0,0,0,5.06,14.95,34.46,34.46,0,0,0,1.54,3.1,13.7,13.7,0,0,0,.74,1.17c.21.3.42.55.42.55l0-.05a1.74,1.74,0,0,0-.2-.13,2.13,2.13,0,0,0-.43-.23,4,4,0,0,0-.74-.28,3.86,3.86,0,0,0-.49-.1,3.81,3.81,0,0,0-.59-.07,4.92,4.92,0,0,0-1.26.08,5.16,5.16,0,0,0-1.9.74c-.79.56-.78.74-.75.67a5.82,5.82,0,0,0,.41-.78,23.67,23.67,0,0,0,1.07-3c.33-1.14.63-2.38.91-3.64s.53-2.57.76-3.89.37-2.7.56-4c.82-5.33,1.24-11,1.8-16.58s.9-11.28,1.31-16.93l1.07-17,1-17,.91-17.08,3.49-68.4c.64-11.4,1.14-22.82,1.85-34.23S636.29,1100.59,637.08,1089.18Z"/><path class="cls-2" d="M921.23,1094.39c-17.39-28.75-31.31-12.54-31.31-12.54S938,1231.34,917,1308s-46.62-7.67-46.62-7.67-18,49.83-27.07,7.67-9-226.15-9-226.15"/><path d="M921.23,1094.39a69.49,69.49,0,0,0-6.23-7.69,29.68,29.68,0,0,0-7.55-6,13.39,13.39,0,0,0-8.66-1.66,11.67,11.67,0,0,0-4,1.51,13.66,13.66,0,0,0-1.76,1.25c-.27.24-.54.48-.79.73s-.51.54-.64.7l.43-2.11a727.33,727.33,0,0,1,23,77c6.21,26.11,11.18,52.63,13.46,79.68a279.58,279.58,0,0,1,.75,41c-.25,3.45-.42,6.89-.91,10.35-.21,1.73-.39,3.46-.64,5.19l-.89,5.19-.45,2.6-.6,2.59-1.21,5.18c-.91,3.35-1.87,6.69-3,10a100.09,100.09,0,0,1-4,10.1,47.86,47.86,0,0,1-6.19,10.24,24.28,24.28,0,0,1-5.42,5,18,18,0,0,1-4.05,2c-.38.13-.76.25-1.15.36l-1.23.25a16.05,16.05,0,0,1-2.51.25,17.65,17.65,0,0,1-8.79-2.37,26.06,26.06,0,0,1-5.65-4.4,50.71,50.71,0,0,1-7.14-9.45,102,102,0,0,1-5.07-9.6c-1.5-3.22-2.85-6.46-4.11-9.72q-.93-2.44-1.8-4.91c-.58-1.68-1.12-3.25-1.67-5.09l15,.4c-.61,1.61-1.16,3-1.78,4.41s-1.25,2.83-1.92,4.24a88.9,88.9,0,0,1-4.54,8.42,49.51,49.51,0,0,1-2.92,4.23,30.14,30.14,0,0,1-4,4.33,19.56,19.56,0,0,1-3,2.15,13.93,13.93,0,0,1-4.58,1.64,12,12,0,0,1-5.89-.51,12.93,12.93,0,0,1-4.42-2.64,19.81,19.81,0,0,1-4.19-5.65,38.36,38.36,0,0,1-2.12-5,71.14,71.14,0,0,1-2.42-9.37l-1.43-9.1c-.37-3-.62-5.92-.91-8.88l-.43-4.43-.29-4.39-.57-8.78c-.34-5.85-.56-11.67-.8-17.51l-.49-17.47c-.14-5.82-.17-11.64-.26-17.45q-.33-34.89.59-69.73c.3-11.62.59-23.23,1.11-34.84s1-23.21,1.77-34.81q1.17,17.4,2.16,34.78l2,34.76,4,69.42,1.11,17.32,1.22,17.29,1.43,17.22.85,8.56.42,4.28.55,4.21c.38,2.8.69,5.65,1.1,8.41l1.45,8.06a56.52,56.52,0,0,0,2.09,7.42,22.47,22.47,0,0,0,1.31,3,5.64,5.64,0,0,0,.93,1.33,1.88,1.88,0,0,0-.72-.41,3.38,3.38,0,0,0-1.61-.16,2.45,2.45,0,0,0-.53.14s.25-.18.5-.4a15.07,15.07,0,0,0,1.84-2.1,34.54,34.54,0,0,0,2-3,71.7,71.7,0,0,0,3.61-6.94c.56-1.22,1.1-2.46,1.61-3.71s1-2.57,1.43-3.68l7.84-21.77,7.14,22.17c.44,1.35,1,2.93,1.49,4.4s1.09,3,1.67,4.46c1.15,3,2.38,5.87,3.71,8.69a86.26,86.26,0,0,0,4.29,8.05,36,36,0,0,0,4.87,6.47,10.69,10.69,0,0,0,2.17,1.78,7.05,7.05,0,0,0,.72.32c-.07,0,0,.06.44-.23a9,9,0,0,0,1.86-1.78,33,33,0,0,0,4.09-6.85,90.26,90.26,0,0,0,3.4-8.48c1-2.94,2-6,2.84-9.07l1.12-4.54.57-2.27.43-2.32.87-4.65c.25-1.57.43-3.15.65-4.73.48-3.14.73-6.35,1-9.54a292.15,292.15,0,0,0,.32-38.94c-1.41-26.16-5-52.4-9.68-78.48-2.32-13-4.95-26-7.77-39s-5.87-26-9.2-38.78l-.34-1.31.77-.8a12.45,12.45,0,0,1,1.13-1c.37-.3.75-.58,1.14-.85a18.45,18.45,0,0,1,2.44-1.39,15.29,15.29,0,0,1,5.43-1.44,14.65,14.65,0,0,1,5.49.65,17.86,17.86,0,0,1,4.8,2.35,31,31,0,0,1,7.26,7.19A59.57,59.57,0,0,1,921.23,1094.39Z"/><path class="cls-9" d="M1256.11,523.08a356,356,0,0,1-7.63,55.73C1213.76,737.5,1084.38,845,988.9,912.18c-38.32,26.91-71.2,47.36-90.3,62a113.81,113.81,0,0,0-12.12,10.37c-47.67,49-96.67,48-134.56,33.92a183.1,183.1,0,0,1-40.83-21.92c-6.45-4.56-11.92-9-16.25-12.71a81.79,81.79,0,0,0-27.31-15.63c-58.26-19.7-258.16-98.11-315.73-263.61-21-60.55-29-113.24-30-157.08A413.77,413.77,0,0,1,323.57,500c8.15-43.3,34-83.59,73.23-118.28C480.31,307.8,624.57,259,788.52,259a785,785,0,0,1,149.66,14.14C1119.74,308.59,1251.38,406.75,1256.11,523.08Z"/><ellipse class="cls-2" cx="501.5" cy="733.78" rx="183.5" ry="181.22"/><ellipse class="cls-2" cx="1014.92" cy="723.89" rx="176.16" ry="173.97"/><path class="cls-3" d="M1044.34,551.34s159.14,154.89,43.9,329.78c0,0,116.39-50.16,101.58-179.14C1189.82,702,1190.69,592.67,1044.34,551.34Z"/><path class="cls-3" d="M685.26,733.47c0,100.09-82.15,181.22-183.5,181.22a186.41,186.41,0,0,1-29.71-2.37C559.82,898.77,627,823.78,627,733.29c0-90.09-66.57-164.83-153.78-178.85a186.81,186.81,0,0,1,28.57-2.19C603.11,552.25,685.26,633.39,685.26,733.47Z"/><path class="cls-2" d="M880.1,904.65H1070a89.66,89.66,0,0,1,89.66,89.66v244.27a0,0,0,0,1,0,0H948.82a99.36,99.36,0,0,1-99.36-99.36V935.29A30.64,30.64,0,0,1,880.1,904.65Z" transform="translate(2076.18 67.06) rotate(90)"/><path class="cls-3" d="M925.9,975.61a138.14,138.14,0,0,1,19.47,2.21c6.44,1.13,12.82,2.6,19.14,4.32a235.51,235.51,0,0,1,37,13.62,215.56,215.56,0,0,1,34.48,20.13,184.5,184.5,0,0,1,30.25,27,156.18,156.18,0,0,1,23.23,33.87,146.66,146.66,0,0,1,7.89,19.07,137.1,137.1,0,0,1,4.94,20c.27,1.69.55,3.37.78,5.06l.53,5.07c.2,1.69.28,3.39.38,5.08s.22,3.37.2,5.07a145.79,145.79,0,0,1-1.08,20.08,143.47,143.47,0,0,1-3.94,19.45,127.74,127.74,0,0,1-6.56,18.5c-.12-3.29,0-6.5-.1-9.72s-.08-6.41-.26-9.58l-.21-4.74-.34-4.72-.17-2.34-.23-2.33-.47-4.64c-.45-3.08-.72-6.14-1.31-9.17-.29-1.51-.46-3-.76-4.53l-.91-4.48a168.4,168.4,0,0,0-11.1-34.07,176.82,176.82,0,0,0-8.15-15.71,182.77,182.77,0,0,0-21-28.52c-15.85-17.78-35-33-55.64-46.65-10.31-6.86-21.06-13.25-32.09-19.42S937.58,981.4,925.9,975.61Z"/><path class="cls-3" d="M947,941.11a144,144,0,0,1,19.43,2.24c6.43,1.13,12.8,2.59,19.12,4.28a249.27,249.27,0,0,1,37,13.27,236.24,236.24,0,0,1,34.72,19.31,206.67,206.67,0,0,1,31.07,25.56,184.4,184.4,0,0,1,13.5,15.21c2.12,2.65,4.12,5.41,6.1,8.18s3.84,5.63,5.58,8.57c.91,1.44,1.76,2.92,2.59,4.41s1.69,3,2.45,4.5,1.57,3,2.32,4.56l2.13,4.66a152.18,152.18,0,0,1,6.92,19.2c.46,1.64.87,3.29,1.28,4.94s.77,3.3,1.1,5,.71,3.3,1,5,.51,3.34.75,5a142.12,142.12,0,0,1,1.2,20c0,1.67-.09,3.33-.17,5s-.11,3.31-.3,5c-.36,3.3-.61,6.57-1.21,9.82a122.49,122.49,0,0,1-4.5,19.1c-1.47-13-3.11-25.51-6-37.57l-1.08-4.51c-.39-1.49-.83-3-1.24-4.44l-.62-2.21-.68-2.2c-.46-1.45-.88-2.91-1.38-4.35-2-5.77-4.17-11.38-6.6-16.87-9.81-21.92-23.92-41.27-40.81-58.32s-36.5-31.81-57.36-45.22C1002.82,971.42,992,965.1,981,959S958.63,947,947,941.11Z"/><path class="cls-3" d="M1005.44,924.82S1130,951.65,1153,1083.89c0,0,13.37-120.66,0-128.4C1116.6,934.4,1188,925.78,1005.44,924.82Z"/><path class="cls-3" d="M958.49,979.44c-5.75-19.16,15.33-23,21.08-21.08s9.58-9.58,9.58-9.58,1.32-12.11,20.12-16.29c17.25-3.84,24.92,1.91,24.92,1.91s-57.87-23.95-74.75-3.83a109.21,109.21,0,0,1-38,28.72L947,988.8Z"/><path class="cls-4" d="M881,905.26h189.89a89.66,89.66,0,0,1,89.66,89.66v244.27a0,0,0,0,1,0,0H949.76a99.36,99.36,0,0,1-99.36-99.36V935.89A30.64,30.64,0,0,1,881,905.26Z" transform="translate(2077.72 66.73) rotate(90)"/><path class="cls-2" d="M596.26,1012s-324.88,288.26-102.17,385.39c0,0,530.84,45.21,591.12-10.05s41.87-232.76-144-403.57S596.26,1012,596.26,1012Z"/><path class="cls-3" d="M423.78,1249.67s23-24.91,36.41,1.92c9.92,19.83,18.79,64.81,22.74,86.91a4.82,4.82,0,0,1-7.62,4.73c-11.21-8.35-30.26-20.06-47.7-18.81C400.78,1326.33,423.78,1249.67,423.78,1249.67Z"/><path class="cls-5" d="M492.77,1378.08s400.38,17.85,414.84,16.59-5.72,23.62-31.08,21.72-377.28-16.9-382.44-19S492.77,1378.08,492.77,1378.08Z"/><path class="cls-3" d="M837.75,979.44s184,145.66,207,398.64c0,0,54.39,43.11,71.27-55.1,0,0,26.58-166.32-194.83-358.42h0Z"/><path class="cls-3" d="M647.05,976.57s34.5,1.91,47.91,32.58,122.66,59.41,174.41,30.66,72.83-13.41,72.83-13.41l-47.92-49.83L647.05,961.76Z"/><path class="cls-6" d="M597.62,1012.93s-324.89,288.26-102.17,385.38c0,0,530.83,45.21,591.12-10s41.86-232.76-144-403.57S597.62,1012.93,597.62,1012.93Z"/><path class="cls-2" d="M510.91,1399.19c-5.07-9.38-140.18-1.66-195.43,13.18s-54.41-28-54.41-28l-13.2-78.2s-15.6-61.61,23.19-67.23,42.13,50.14,47.29,79.46,42,18.87,42,18.87l99.88-14.76"/><path class="cls-5" d="M322.2,1403s89.86-39.32,181-24.45l4.18,18.75Z"/><path class="cls-7" d="M456.36,1324.42l-96.62,13.75s-36.79,10.43-41.95-18.88-8.51-85.07-47.3-79.45-23.18,67.22-23.18,67.22l13.2,78.2s-.83,42.84,54.41,28,190.36-22.55,195.43-13.18"/><path class="cls-2" d="M885.88,1412s84.52,14.09,104.24,28.17,78.89,0,76.08-14.08S1122.55,1234.49,1007,1288c0,0-31,33.81-25.36,84.52"/><path class="cls-8" d="M978.61,1367.54s14.22-76,27.71-75.87c7.26.09,45.12-10.38,31.7-4.63-8.17,3.51-20.86,41.94-24,56.54-4.53,21.4-3.77,45.12-8.62,48.87S990.11,1380,978.61,1367.54Z"/><path class="cls-5" d="M1017.9,1441.32c4.61,1.16,2.69-22,3.12-26.68l8.38-92.14s13-64.41,44.08-15.33c1.37,2.17.36-6.35.88-3.82,3,14.64,11.05,68.9-20,124.56,0,0-12.63,31.45-107.89-2.48,0,0-51.18-3.27-51.18-18.6,0-5.44,13.42-11.5,13.42-11.5s57.2,2.71,61.32,9.58c5.75,9.58,5.13,14.46,23,19.16C1003.36,1426.81,1002.57,1437.49,1017.9,1441.32Z"/><path class="cls-7" d="M891.41,1414.49s78.54,11.14,98.26,25.22,70.87-.69,76.07-14.08c5.82-15,46.31-161.28-32.29-147.14-18.52,3.32-34,15.91-42,32.94a112.88,112.88,0,0,0-10.27,60.66"/><path class="cls-2" d="M1255.43,523.76a356.18,356.18,0,0,1-7.63,55.73c-34.71,158.68-164.09,266.23-259.58,333.37-38.32,26.91-71.2,47.36-90.3,62a113.63,113.63,0,0,0-12.11,10.36c-47.68,49-96.67,48-134.57,33.93a183.2,183.2,0,0,1-40.82-21.92c-6.46-4.57-11.92-9-16.26-12.71a81.67,81.67,0,0,0-27.3-15.64c-58.27-19.69-258.17-98.1-315.73-263.6-21.05-60.55-29-113.24-30-157.08a413.64,413.64,0,0,1,1.75-47.53c8.14-43.31,34-83.6,73.22-118.28,83.51-73.87,227.77-122.67,391.72-122.67a784.33,784.33,0,0,1,149.67,14.14C1119.07,309.26,1250.7,407.43,1255.43,523.76Z"/><path class="cls-3" d="M838.53,261.26S1539.19,496.48,809,1010.11c0,0-42.06,4.17-20.07,17.42s100-45.31,100-45.31,224.42-156.77,228.46-176.56S1339.87,611.47,1215.3,416C1215.3,416,1061.63,257.94,838.53,261.26Z"/><path class="cls-2" d="M637.08,1089.18s0,184-6.56,226.14-19.66-7.66-19.66-7.66S592.29,1392,577,1315.32s19.67-226.14,19.67-226.14-10.12-16.21-22.75,12.54"/><path d="M637.08,1089.18c.77,11.42,1.35,22.84,1.84,34.27s.89,22.85,1.25,34.28q1.08,34.29,1.11,68.62c0,22.9-.25,45.76-1.46,68.82-.42,5.8-.71,11.54-1.46,17.52-.18,1.48-.3,3-.52,4.45s-.47,3-.77,4.53-.63,3.08-1.06,4.7a36.05,36.05,0,0,1-1.72,5.1,21.77,21.77,0,0,1-1.59,3,13,13,0,0,1-3.65,3.77,10.51,10.51,0,0,1-3.86,1.56,9.69,9.69,0,0,1-2.33.13,10.36,10.36,0,0,1-1.12-.12c-.34-.06-.68-.14-1-.23A11.08,11.08,0,0,1,619,1339a14.59,14.59,0,0,1-1.36-.76c-.36-.24-.73-.51-1.06-.76s-.59-.5-.86-.75a18.49,18.49,0,0,1-2.36-2.69,28.69,28.69,0,0,1-1.6-2.42,49.23,49.23,0,0,1-2.35-4.52c-1.36-2.94-2.45-5.8-3.45-8.67-.51-1.43-1-2.86-1.43-4.3s-.87-2.82-1.3-4.41l15.37-.31c-.77,3.43-1.58,6.59-2.48,9.86s-1.89,6.47-3,9.71-2.3,6.47-3.76,9.75c-.73,1.64-1.52,3.28-2.45,5a36.6,36.6,0,0,1-3.36,5.15c-.33.44-.76.9-1.14,1.35s-.85.91-1.37,1.37a16.48,16.48,0,0,1-3.94,2.71,12.64,12.64,0,0,1-6.4,1.22,12.11,12.11,0,0,1-3.36-.74c-.48-.19-1-.4-1.42-.63a12.47,12.47,0,0,1-1.21-.72,14.47,14.47,0,0,1-2-1.53c-.56-.52-1-1-1.5-1.54s-.8-1-1.17-1.48l-1-1.43a43.06,43.06,0,0,1-2.8-5.4,85.26,85.26,0,0,1-3.51-10.16c-1-3.32-1.75-6.62-2.44-9.91-.37-1.64-.67-3.28-1-4.92l-.84-5-.42-2.52c-.13-.83-.22-1.67-.32-2.5l-.62-5c-.34-3.34-.61-6.67-.86-10s-.37-6.65-.41-10c-.34-13.26.1-26.43,1-39.52a708.35,708.35,0,0,1,10.33-77.64l1.82-9.6,1.94-9.56c1.33-6.38,2.69-12.74,4.18-19.07,3-12.67,6-25.29,9.6-37.82l.24,1.46a8.84,8.84,0,0,0-1-1.37,10.28,10.28,0,0,0-1.24-1.23,6.62,6.62,0,0,0-2.95-1.44c-2.13-.4-4.51.72-6.49,2.38a30.25,30.25,0,0,0-5.25,6.08,82.27,82.27,0,0,0-4.2,7.1,66.62,66.62,0,0,1,3.27-7.65,31.87,31.87,0,0,1,4.74-7,14.42,14.42,0,0,1,3.54-2.79,8.93,8.93,0,0,1,4.72-1.06,9.7,9.7,0,0,1,4.63,1.64,12.79,12.79,0,0,1,1.86,1.49,12.3,12.3,0,0,1,1.62,1.84l.4.56-.15.91c-4.41,25.47-8.08,51.11-11.22,76.71-1.52,12.81-2.94,25.62-4,38.44s-2,25.63-2.46,38.42-.54,25.55.07,38.18c.12,3.17.43,6.3.63,9.44s.58,6.25.94,9.35l.64,4.62c.11.77.2,1.55.33,2.31l.42,2.27.83,4.55c.33,1.53.64,3.07,1,4.58.69,3,1.45,6,2.29,8.94a71.22,71.22,0,0,0,2.86,8.19,28.79,28.79,0,0,0,1.67,3.22c.14.19.27.38.39.58a4.18,4.18,0,0,1,.34.42l.2.2s0,.06-.06,0-.08,0-.18-.09a1.09,1.09,0,0,0-.31-.14,3.37,3.37,0,0,0-1-.22,3.45,3.45,0,0,0-1.7.28c-.43.23.22-.13.79-.94a35.84,35.84,0,0,0,3.78-6.73c1.19-2.64,2.27-5.47,3.26-8.36s1.91-5.87,2.76-8.86,1.66-6.09,2.32-9l7.14-31,8.24,30.73a108,108,0,0,0,5.06,14.95,34.46,34.46,0,0,0,1.54,3.1,13.7,13.7,0,0,0,.74,1.17c.21.3.42.55.42.55l0-.05a1.74,1.74,0,0,0-.2-.13,2.13,2.13,0,0,0-.43-.23,4,4,0,0,0-.74-.28,3.86,3.86,0,0,0-.49-.1,3.81,3.81,0,0,0-.59-.07,4.92,4.92,0,0,0-1.26.08,5.16,5.16,0,0,0-1.9.74c-.79.56-.78.74-.75.67a5.82,5.82,0,0,0,.41-.78,23.67,23.67,0,0,0,1.07-3c.33-1.14.63-2.38.91-3.64s.53-2.57.76-3.89.37-2.7.56-4c.82-5.33,1.24-11,1.8-16.58s.9-11.28,1.31-16.93l1.07-17,1-17,.91-17.08,3.49-68.4c.64-11.4,1.14-22.82,1.85-34.23S636.29,1100.59,637.08,1089.18Z"/><path class="cls-2" d="M921.23,1094.39c-17.39-28.75-31.31-12.54-31.31-12.54S938,1231.34,917,1308s-46.62-7.67-46.62-7.67-18,49.83-27.07,7.67-9-226.15-9-226.15"/><path d="M921.23,1094.39a69.49,69.49,0,0,0-6.23-7.69,29.68,29.68,0,0,0-7.55-6,13.39,13.39,0,0,0-8.66-1.66,11.67,11.67,0,0,0-4,1.51,13.66,13.66,0,0,0-1.76,1.25c-.27.24-.54.48-.79.73s-.51.54-.64.7l.43-2.11a727.33,727.33,0,0,1,23,77c6.21,26.11,11.18,52.63,13.46,79.68a279.58,279.58,0,0,1,.75,41c-.25,3.45-.42,6.89-.91,10.35-.21,1.73-.39,3.46-.64,5.19l-.89,5.19-.45,2.6-.6,2.59-1.21,5.18c-.91,3.35-1.87,6.69-3,10a100.09,100.09,0,0,1-4,10.1,47.86,47.86,0,0,1-6.19,10.24,24.28,24.28,0,0,1-5.42,5,18,18,0,0,1-4.05,2c-.38.13-.76.25-1.15.36l-1.23.25a16.05,16.05,0,0,1-2.51.25,17.65,17.65,0,0,1-8.79-2.37,26.06,26.06,0,0,1-5.65-4.4,50.71,50.71,0,0,1-7.14-9.45,102,102,0,0,1-5.07-9.6c-1.5-3.22-2.85-6.46-4.11-9.72q-.93-2.44-1.8-4.91c-.58-1.68-1.12-3.25-1.67-5.09l15,.4c-.61,1.61-1.16,3-1.78,4.41s-1.25,2.83-1.92,4.24a88.9,88.9,0,0,1-4.54,8.42,49.51,49.51,0,0,1-2.92,4.23,30.14,30.14,0,0,1-4,4.33,19.56,19.56,0,0,1-3,2.15,13.93,13.93,0,0,1-4.58,1.64,12,12,0,0,1-5.89-.51,12.93,12.93,0,0,1-4.42-2.64,19.81,19.81,0,0,1-4.19-5.65,38.36,38.36,0,0,1-2.12-5,71.14,71.14,0,0,1-2.42-9.37l-1.43-9.1c-.37-3-.62-5.92-.91-8.88l-.43-4.43-.29-4.39-.57-8.78c-.34-5.85-.56-11.67-.8-17.51l-.49-17.47c-.14-5.82-.17-11.64-.26-17.45q-.33-34.89.59-69.73c.3-11.62.59-23.23,1.11-34.84s1-23.21,1.77-34.81q1.17,17.4,2.16,34.78l2,34.76,4,69.42,1.11,17.32,1.22,17.29,1.43,17.22.85,8.56.42,4.28.55,4.21c.38,2.8.69,5.65,1.1,8.41l1.45,8.06a56.52,56.52,0,0,0,2.09,7.42,22.47,22.47,0,0,0,1.31,3,5.64,5.64,0,0,0,.93,1.33,1.88,1.88,0,0,0-.72-.41,3.38,3.38,0,0,0-1.61-.16,2.45,2.45,0,0,0-.53.14s.25-.18.5-.4a15.07,15.07,0,0,0,1.84-2.1,34.54,34.54,0,0,0,2-3,71.7,71.7,0,0,0,3.61-6.94c.56-1.22,1.1-2.46,1.61-3.71s1-2.57,1.43-3.68l7.84-21.77,7.14,22.17c.44,1.35,1,2.93,1.49,4.4s1.09,3,1.67,4.46c1.15,3,2.38,5.87,3.71,8.69a86.26,86.26,0,0,0,4.29,8.05,36,36,0,0,0,4.87,6.47,10.69,10.69,0,0,0,2.17,1.78,7.05,7.05,0,0,0,.72.32c-.07,0,0,.06.44-.23a9,9,0,0,0,1.86-1.78,33,33,0,0,0,4.09-6.85,90.26,90.26,0,0,0,3.4-8.48c1-2.94,2-6,2.84-9.07l1.12-4.54.57-2.27.43-2.32.87-4.65c.25-1.57.43-3.15.65-4.73.48-3.14.73-6.35,1-9.54a292.15,292.15,0,0,0,.32-38.94c-1.41-26.16-5-52.4-9.68-78.48-2.32-13-4.95-26-7.77-39s-5.87-26-9.2-38.78l-.34-1.31.77-.8a12.45,12.45,0,0,1,1.13-1c.37-.3.75-.58,1.14-.85a18.45,18.45,0,0,1,2.44-1.39,15.29,15.29,0,0,1,5.43-1.44,14.65,14.65,0,0,1,5.49.65,17.86,17.86,0,0,1,4.8,2.35,31,31,0,0,1,7.26,7.19A59.57,59.57,0,0,1,921.23,1094.39Z"/><path class="cls-9" d="M1256.11,523.08a356,356,0,0,1-7.63,55.73C1213.76,737.5,1084.38,845,988.9,912.18c-38.32,26.91-71.2,47.36-90.3,62a113.81,113.81,0,0,0-12.12,10.37c-47.67,49-96.67,48-134.56,33.92a183.1,183.1,0,0,1-40.83-21.92c-6.45-4.56-11.92-9-16.25-12.71a81.79,81.79,0,0,0-27.31-15.63c-58.26-19.7-258.16-98.11-315.73-263.61-21-60.55-29-113.24-30-157.08A413.77,413.77,0,0,1,323.57,500c8.15-43.3,34-83.59,73.23-118.28C480.31,307.8,624.57,259,788.52,259a785,785,0,0,1,149.66,14.14C1119.74,308.59,1251.38,406.75,1256.11,523.08Z"/><ellipse class="cls-2" cx="501.5" cy="733.78" rx="183.5" ry="181.22"/><ellipse class="cls-2" cx="1014.92" cy="723.89" rx="176.16" ry="173.97"/><path class="cls-3" d="M1044.34,551.34s159.14,154.89,43.9,329.78c0,0,116.39-50.16,101.58-179.14C1189.82,702,1190.69,592.67,1044.34,551.34Z"/><path class="cls-3" d="M685.26,733.47c0,100.09-82.15,181.22-183.5,181.22a186.41,186.41,0,0,1-29.71-2.37C559.82,898.77,627,823.78,627,733.29c0-90.09-66.57-164.83-153.78-178.85a186.81,186.81,0,0,1,28.57-2.19C603.11,552.25,685.26,633.39,685.26,733.47Z"/><path class="cls-10" d="M850.5,1291.5s224.5,8.17,256-70c0,0-7.59-102.9-145.16-222.91,0,0-62.79,47.09-143.73,47.73s-135.14-12.91-146.75-22.59-42.55-26.05-46.43-45.92c0,0-180.24,146.88-196.93,261.69,0,0,38,38,225,52C652.5,1291.5,837.5,1293.5,850.5,1291.5Z"/><ellipse class="cls-11" cx="730.75" cy="1142.76" rx="45.37" ry="44.51"/><line class="cls-12" x1="721.33" y1="1135.34" x2="707.63" y2="1122.36"/><line class="cls-12" x1="730.75" y1="1132.56" x2="730.75" y2="1115.86"/><line class="cls-12" x1="741.02" y1="1136.27" x2="751.29" y2="1125.14"/><line class="cls-12" x1="742.73" y1="1143.69" x2="758.14" y2="1143.69"/><line class="cls-12" x1="737.59" y1="1149.25" x2="747.87" y2="1160.38"/><line class="cls-12" x1="730.75" y1="1152.03" x2="730.75" y2="1166.87"/><line class="cls-12" x1="723.9" y1="1151.1" x2="713.63" y2="1164.09"/><line class="cls-12" x1="719.62" y1="1143.69" x2="702.5" y2="1143.69"/><ellipse class="cls-12" cx="729.89" cy="1142.76" rx="4.28" ry="4.64"/><polyline class="cls-13" points="692.15 1110.82 641.83 1064.38 666.99 1025.67"/><line class="cls-14" x1="691.18" y1="1143.73" x2="634.09" y2="1143.73"/><path class="cls-14" d="M578,1151.47s-91,25.16-110.32,11.61"/><polyline class="cls-13" points="695.2 1170.4 666.99 1201.79 636.5 1205.5"/><path class="cls-13" d="M567.5,1207.5s-102,2-115-37"/><polyline class="cls-13" points="762.25 1174.78 785.05 1197.92 834.4 1197.92"/><path class="cls-13" d="M920.5,1197.5s140-6,162-50"/><line class="cls-14" x1="770.53" y1="1141.79" x2="829.56" y2="1141.79"/><path class="cls-14" d="M908.08,1141.79s130.45,15.13,161.42-2.29"/><polyline class="cls-13" points="762.25 1110.74 806.34 1079.86 782.35 1044.04"/><polyline class="cls-14" points="919 1031 951.49 1099.76 927.4 1141.57"/><path class="cls-14" d="M946,1017s63.62,98,81,130.6"/><path class="cls-14" d="M627.5,998.5s-116.72,125.71-136.35,168.37"/><polyline class="cls-14" points="562.48 1157.27 556.67 1099.21 638.5 1009.5"/><circle class="cls-15" cx="1001.33" cy="1206.21" r="6.77"/><circle class="cls-15" cx="1031.62" cy="1198.98" r="5.81"/><path class="cls-16" d="M635,1089s2.62,178.42-4,221-26.87-4.51-26.87-4.51-18.75,85.15-34.2,7.74,19.86-228.38,19.86-228.38-10.21-16.36-23,12.67"/><path d="M635,1089c.85,11.32,1.51,22.65,2.1,34s1.06,22.67,1.53,34,.75,22.68,1,34l.38,17c.11,5.67.16,11.35.21,17,.17,22.72.1,45.4-1.16,68.32-.38,5.76-.76,11.47-1.6,17.44a73.9,73.9,0,0,1-1.83,9.14,39.74,39.74,0,0,1-1.65,4.85,20.64,20.64,0,0,1-3.2,5.36,13.06,13.06,0,0,1-3.26,2.8,11.24,11.24,0,0,1-5.05,1.57,12,12,0,0,1-4.81-.73,15.51,15.51,0,0,1-3.34-1.73,24.74,24.74,0,0,1-4.38-3.87,45.15,45.15,0,0,1-3.16-3.91,78.76,78.76,0,0,1-5-7.9c-.74-1.32-1.44-2.66-2.12-4s-1.3-2.65-2-4.18l13.12-1.25c-.77,3.44-1.59,6.62-2.5,9.9s-1.89,6.5-3,9.75-2.31,6.48-3.76,9.75c-.73,1.63-1.52,3.27-2.43,4.93a35.93,35.93,0,0,1-3.3,5.06,23.67,23.67,0,0,1-2.41,2.62,15.65,15.65,0,0,1-3.72,2.55,11.64,11.64,0,0,1-5.92,1.15,11.88,11.88,0,0,1-5.57-2,16.11,16.11,0,0,1-3.26-2.9A22.93,22.93,0,0,1,573,1345a40.18,40.18,0,0,1-2.75-5.3,82.36,82.36,0,0,1-3.51-10.12c-1-3.33-1.75-6.64-2.45-9.94-.36-1.66-.69-3.3-1-5s-.64-3.36-.89-5c-.55-3.37-1-6.73-1.35-10.08-.75-6.71-1.13-13.41-1.31-20.09-.37-13.35,0-26.62,1-39.82a724.89,724.89,0,0,1,10.19-78.36q1.74-9.69,3.71-19.35c1.31-6.44,2.66-12.86,4.12-19.26,2.93-12.8,5.92-25.57,9.46-38.23l.21,1.28a10.1,10.1,0,0,0-1-1.42,9.66,9.66,0,0,0-1.3-1.26,6.8,6.8,0,0,0-3.09-1.47c-2.24-.4-4.68.79-6.68,2.5a30.4,30.4,0,0,0-5.26,6.21,75.58,75.58,0,0,0-4.18,7.21,65.35,65.35,0,0,1,3.36-7.69,31.54,31.54,0,0,1,4.83-7,13.86,13.86,0,0,1,3.54-2.76,8.74,8.74,0,0,1,4.68-1,9.49,9.49,0,0,1,4.56,1.65,13.28,13.28,0,0,1,3.43,3.32l.36.49-.14.79c-4.62,25.7-8.48,51.57-11.76,77.42-1.6,12.94-3.07,25.88-4.22,38.84s-2.07,25.9-2.6,38.83-.61,25.86,0,38.66c.33,6.39.8,12.76,1.57,19,.38,3.14.82,6.27,1.37,9.36.25,1.55.58,3.07.87,4.61s.66,3.11,1,4.65c.71,3.09,1.48,6.14,2.33,9.1a71.21,71.21,0,0,0,2.94,8.4,26.54,26.54,0,0,0,1.76,3.39,6.17,6.17,0,0,0,1.21,1.51,2.24,2.24,0,0,0-1-.3,2.42,2.42,0,0,0-1.18.18,8.19,8.19,0,0,0,1.18-1.25,36.59,36.59,0,0,0,4-7c1.22-2.71,2.32-5.6,3.33-8.54s1.94-6,2.8-9,1.68-6.17,2.35-9.12l4.71-20.55,8.41,19.3c.47,1.07,1.06,2.35,1.63,3.52s1.18,2.37,1.81,3.53a65.85,65.85,0,0,0,4,6.55,31.85,31.85,0,0,0,2.14,2.72,11.85,11.85,0,0,0,1.92,1.8,2.36,2.36,0,0,0,.4.25,1.78,1.78,0,0,0-.64,0,2.32,2.32,0,0,0-1,.32c-.21.14-.17.14-.06,0a8.17,8.17,0,0,0,1.11-1.92,26.3,26.3,0,0,0,1.14-3.17,63.54,63.54,0,0,0,1.65-7.49c.86-5.23,1.36-10.84,1.85-16.37,1-11.14,1.58-22.41,2.13-33.68s1-22.57,1.45-33.88l1.25-33.94c.42-11.32.69-22.64,1.15-34C633.17,1134.34,633.94,1111.68,635,1089Z"/><path class="cls-16" d="M921.49,1090.12c-17.56-29-31.62-12.67-31.62-12.67s48.6,151,27.34,228.38-47.08-7.74-47.08-7.74-18.22,50.32-27.33,7.74-9.12-228.38-9.12-228.38"/><path d="M921.49,1090.12a68.57,68.57,0,0,0-6.13-7.9,30.5,30.5,0,0,0-7.58-6.21,14,14,0,0,0-9-1.89,12.3,12.3,0,0,0-4.28,1.51,14.32,14.32,0,0,0-1.89,1.29,11.52,11.52,0,0,0-1.58,1.52l.29-1.45c4.49,12.76,8.4,25.67,12.17,38.64s7.06,26.08,10.11,39.26,5.66,26.46,7.91,39.83c.58,3.34,1.09,6.69,1.59,10s.95,6.72,1.4,10.08c.87,6.74,1.53,13.51,2.07,20.3a294.11,294.11,0,0,1,.6,41c-.26,3.44-.44,6.88-.93,10.32-.22,1.72-.4,3.45-.65,5.17l-.89,5.15-.45,2.58-.6,2.56-1.21,5.13c-.91,3.34-1.88,6.67-3,10a97.8,97.8,0,0,1-3.92,9.93,46.24,46.24,0,0,1-5.91,9.79,22.29,22.29,0,0,1-4.91,4.54,14.5,14.5,0,0,1-7.65,2.44,15.18,15.18,0,0,1-7.58-2.06,23.74,23.74,0,0,1-5.14-4,49.59,49.59,0,0,1-6.85-9.07,101,101,0,0,1-5-9.45c-1.48-3.19-2.83-6.4-4.08-9.64s-2.39-6.46-3.45-9.92l10.3.27c-1.14,3-2.31,5.72-3.64,8.53a84.93,84.93,0,0,1-4.43,8.27,47.59,47.59,0,0,1-2.79,4.07,27.2,27.2,0,0,1-3.7,4,17.07,17.07,0,0,1-2.64,1.89,11.68,11.68,0,0,1-3.81,1.37,9.61,9.61,0,0,1-4.74-.41,10.66,10.66,0,0,1-3.63-2.18,17.54,17.54,0,0,1-3.7-5,35,35,0,0,1-2-4.75,70.52,70.52,0,0,1-2.39-9.14l-1.42-9c-.38-3-.63-5.92-1-8.88-2.29-23.62-2.82-47.06-3.33-70.53-.25-11.74-.32-23.47-.33-35.19v-17.59c0-5.87.07-11.73.15-17.59.15-11.72.3-23.44.63-35.17s.64-23.43,1.15-35.15l3,70.24,1.54,35.1,1.73,35.06,1,17.51,1.14,17.49,1.34,17.44.79,8.68.4,4.34.53,4.29c.36,2.86.67,5.74,1.08,8.57l1.48,8.3a57.84,57.84,0,0,0,2.18,7.81,25.06,25.06,0,0,0,1.46,3.32,7.72,7.72,0,0,0,1.47,2c.17.15.21.11.1.08a1,1,0,0,0-.42-.06,1.63,1.63,0,0,0,.29-.14,7.27,7.27,0,0,0,.91-.69,17.38,17.38,0,0,0,2.21-2.47,35.55,35.55,0,0,0,2.13-3.2,74,74,0,0,0,3.8-7.25c1.15-2.5,2.27-5.18,3.18-7.66l5.45-14.89,4.85,15.16c.94,3,2.06,6.12,3.23,9.13s2.45,6,3.82,8.94a87.67,87.67,0,0,0,4.46,8.38,38.43,38.43,0,0,0,5.28,7,13.52,13.52,0,0,0,2.75,2.22,4.36,4.36,0,0,0,2,.65,3.55,3.55,0,0,0,1.81-.66,11.18,11.18,0,0,0,2.45-2.31,35.87,35.87,0,0,0,4.48-7.46c1.31-2.8,2.45-5.79,3.52-8.82s2-6.18,2.89-9.32l1.15-4.69.58-2.34.44-2.4.88-4.78c.25-1.61.43-3.23.65-4.85.49-3.22.73-6.5,1-9.76a282.12,282.12,0,0,0,.17-39.66c-.39-6.64-.94-13.28-1.61-19.91-.33-3.32-.65-6.64-1.07-10s-.77-6.63-1.24-9.94c-1.76-13.25-4-26.45-6.48-39.63s-5.26-26.3-8.29-39.38-6.26-26.14-9.84-39.06l-.24-.9.54-.55a14.29,14.29,0,0,1,2.16-1.83,16.31,16.31,0,0,1,2.35-1.39,15,15,0,0,1,5.25-1.46,14.46,14.46,0,0,1,5.37.56,18.31,18.31,0,0,1,4.77,2.25,31.77,31.77,0,0,1,7.38,7.06A61.12,61.12,0,0,1,921.49,1090.12Z"/><circle class="cls-17" cx="607.96" cy="1098.24" r="36.77"/><ellipse class="cls-17" cx="873.11" cy="1110.82" rx="50.32" ry="45.48"/><path class="cls-18" d="M577,1167.92s41.62,12.58,53.23,1"/><path class="cls-18" d="M570.84,1202.5s34.16,15.31,60.31,1.49"/><path class="cls-18" d="M568.29,1238.56s42.57,15.48,63.86,5.81"/><path class="cls-18" d="M834.56,1181.88s62.74,16,78.22,2.49"/><path class="cls-18" d="M836.78,1214.11s54.71,24.45,81.81,3.16"/><path class="cls-18" d="M838.86,1252.62s52.63,29.2,83.6,2.73"/><path class="cls-13" d="M1098,1185.84s-19.6,56.75-174.53,61.71"/><path class="cls-13" d="M639.5,1254.5s171,4,195-2"/><path class="cls-13" d="M439.63,1197.92s10.92,41.67,126.39,49.63"/><ellipse class="cls-19" cx="503.75" cy="739.74" rx="185.74" ry="182.67"/><ellipse class="cls-19" cx="1005.48" cy="728.32" rx="179.51" ry="176.54"/><circle class="cls-20" cx="417.5" cy="829.5" r="31.5"/><rect class="cls-21" x="426.94" y="628.89" width="62.67" height="195.29" transform="translate(674.9 -104.7) rotate(46.85)"/><rect class="cls-21" x="520.5" y="631.68" width="62.67" height="195.29" transform="translate(-349.56 574.66) rotate(-43.15)"/><rect class="cls-21" x="937.11" y="610.97" width="62.67" height="195.29" transform="translate(823.08 -482.55) rotate(46.85)"/><rect class="cls-21" x="1030.66" y="613.77" width="62.67" height="195.29" transform="translate(-199.34 918.72) rotate(-43.15)"/><rect class="cls-21" x="525.34" y="703.18" width="62.67" height="62.58" transform="translate(-351.77 579.36) rotate(-43.15)"/><rect class="cls-21" x="573.56" y="754.4" width="62.24" height="62.58" transform="translate(-373.82 626.04) rotate(-43.15)"/><rect class="cls-21" x="423.61" y="697.77" width="62.67" height="62.58" transform="translate(-375.58 508.32) rotate(-43.15)"/><rect class="cls-21" x="373.61" y="745.36" width="62.67" height="62.58" transform="translate(-421.65 486.99) rotate(-43.15)"/><rect class="cls-21" x="1035.43" y="685.06" width="62.67" height="62.58" transform="translate(-201.43 923.32) rotate(-43.15)"/><rect class="cls-21" x="1085.14" y="738.71" width="62.67" height="62.58" transform="translate(-224.68 971.82) rotate(-43.15)"/><rect class="cls-21" x="934.37" y="679.65" width="62.67" height="62.58" transform="translate(-225.06 852.74) rotate(-43.15)"/><rect class="cls-21" x="883.37" y="727.65" width="62.67" height="62.58" transform="translate(-271.68 830.84) rotate(-43.15)"/><path class="cls-22" d="M861.36,276.07c28.72-2.55,42.51,19.16,44.81,25.55s-34.47,5.11-34.47,5.11,21.83,39.59,0,61.31-116.06,14-116.06,14-82.73-3.83-91.92-19.16,16.09-51.09,16.09-51.09-44.82,2.55-43.67-10.22,36.09-18.52,36.09-18.52l20.22.64,8.39-9.4s93.77-21.9,154.15-6.25Z"/><path class="cls-23" d="M730.6,269.65s-51.37,60.71-41,79.87S841.25,361,841.25,361s14.94,2.56,13.79-12.77-10.34-69.74-20.69-82.77C834.35,265.47,763.69,262,730.6,269.65Z"/><path class="cls-24" d="M733.81,296.51l-3.45-26.83s81.59-11.49,103.42-5.1c0,0-3.45,21.71-3.45,28.1Z"/><path class="cls-25" d="M848.72,359.1l-18.39-66.42,4-23.18S870.55,341.22,848.72,359.1Z"/><path class="cls-26" d="M733.81,296.51l-30.16,60.32s-16.95-.29-15.8-18.17,42.51-69,42.51-69Z"/><line class="cls-27" x1="737.83" y1="283.1" x2="826.31" y2="279.26"/><line class="cls-27" x1="729.79" y1="284.37" x2="694.17" y2="350.8"/><path class="cls-28" d="M732.09,297.76l-28.37,58.82s-16-.29-14.87-17.72,40-67.26,40-67.26Z"/><path class="cls-29" d="M730.72,269.53a114.58,114.58,0,0,1,19.37-4.7l-26.9,95.11c-17.45-1.92-30.61-5.17-33.5-10.54C679.35,330.24,730.72,269.53,730.72,269.53Z"/><path class="cls-29" d="M841.36,360.9s-42.3,2.3-82.31,1.24l21.38-99.84a379,379,0,0,1,54,3.05c10.34,13,19.53,67.45,20.68,82.78S841.36,360.9,841.36,360.9Z"/><path class="cls-30" d="M719.92,324.8s32.28,6.2,34.57,24.08,0,7.66,0,7.66"/><path class="cls-30" d="M736.11,301.62s24.24,11.22,25.37,23.15a8.7,8.7,0,0,1-.09,2.39c-2.3,12.78-2.13,35.37-2.13,35.37"/><path class="cls-30" d="M761.39,322.06s8-15.33,21.83-12.78S797,327.16,797,327.16"/><path class="cls-25" d="M795.86,318.22s9.19,0,17.24-11.49,5.74-10.22,5.74-10.22"/><path class="cls-31" d="M783.22,334.69s14.94-15,32.17,0S812,359.74,812,359.74"/><path class="cls-31" d="M759.3,356.58s7.83-34.52,27.37-12.81"/><path class="cls-31" d="M813.1,306.73s23,2.55,24.13,17.88"/><path class="cls-31" d="M821.14,339.94s11.6-23.29,21.89-3.34"/><path class="cls-32" d="M733.56,297l-29,58.2a1,1,0,0,0,.7,1.51c11.07,1.41,87.51,10.59,143.66,3.16a1,1,0,0,0,.78-1.29c-2.06-8.18-14.58-57.66-19.1-65.43a.89.89,0,0,0-.81-.46l-95.5,3.79A.91.91,0,0,0,733.56,297Z"/><path class="cls-33" d="M780.43,262.3l-21.38,99.84c-12.66-.33-25.08-1-35.86-2.2l26.9-95.11A220.54,220.54,0,0,1,780.43,262.3Z"/><path class="cls-34" d="M841.91,358.3s-42.3,2.18-82.31,1.17c-12.65-.31-25.08-1-35.85-2.08-17.46-1.81-30.61-4.89-33.51-10-10.34-18.13,41-75.56,41-75.56a119.91,119.91,0,0,1,19.38-4.45A233.56,233.56,0,0,1,781,265a399.54,399.54,0,0,1,54,2.89c10.34,12.34,19.53,63.8,20.68,78.3S841.91,358.3,841.91,358.3Z"/><path class="cls-35" d="M961,176.52s-41.28,11-56.24,34.27c-14.71,22.88-27,75-27.39,76.83v.05l-4.1-.45c0-.46.09-.93.14-1.41,2.42-20.39,20-67.23,28-84,8.21-17.14,63-46.42,67.59-39.91S961,176.52,961,176.52Z"/><path class="cls-36" d="M670.75,298.84s-9-42.1-24-61.18-61.87-30.92-61.87-30.92-13.82-7.23-7.81-11.84,66.67,22.37,74.48,36.18,24,52.63,24,67.76"/><path class="cls-37" d="M675.2,298.73c0-15.13-16.21-53.94-24-67.76s-68.48-40.78-74.49-36.18,7.81,11.84,7.81,11.84,46.85,11.84,61.87,30.92,24,61.18,24,61.18,4.81,4.17,4.81-2.22"/><path class="cls-38" d="M719.26,906.1V939a4.88,4.88,0,0,0,4.88,4.88h109A4.87,4.87,0,0,0,838,939V907.24a11.58,11.58,0,0,0-11.58-11.58H729.7A10.44,10.44,0,0,0,719.26,906.1Z"/><path class="cls-39" d="M719.85,912.7l6.91,10.22a4.88,4.88,0,0,0,7.94.2l3.48-4.64a4.87,4.87,0,0,1,8.07.42l2.09,3.48a4.88,4.88,0,0,0,8.08.42l3.48-4.64a4.88,4.88,0,0,1,7.94.2l2.87,4.25a4.88,4.88,0,0,0,8.08,0l2.66-3.94a4.88,4.88,0,0,1,8.08,0l2.42,3.58a4.88,4.88,0,0,0,8.22-.22l1.67-2.78a4.88,4.88,0,0,1,8.22-.22l2.18,3.22a4.87,4.87,0,0,0,8.21-.22l1.89-3.13a4.87,4.87,0,0,1,8.07-.42l7.59,10.1"/></g></svg>