<svg xmlns="http://www.w3.org/2000/svg" viewBox="0 0 1500 1500"><defs><style>.cls-1{fill:#a0c4ff;}.cls-2{fill:#bdb2ff;}.cls-3{fill:#8e85bf;}.cls-20,.cls-4,.cls-6,.cls-7,.cls-9{fill:none;}.cls-10,.cls-11,.cls-13,.cls-14,.cls-18,.cls-19,.cls-20,.cls-4,.cls-6,.cls-7,.cls-9{stroke:#000;}.cls-14,.cls-17,.cls-18,.cls-19,.cls-20,.cls-4,.cls-6,.cls-7,.cls-8,.cls-9{stroke-miterlimit:10;}.cls-4{stroke-width:17px;}.cls-5{fill:#5f5980;}.cls-10,.cls-14,.cls-6,.cls-7{stroke-width:15px;}.cls-20,.cls-7,.cls-8{stroke-linecap:round;}.cls-8{fill:#ffe7ff;stroke:#ffe7ff;}.cls-9{stroke-width:20px;}.cls-10,.cls-11,.cls-13,.cls-14,.cls-17,.cls-18{fill:#fff;}.cls-10,.cls-11,.cls-13{stroke-linejoin:round;}.cls-11{stroke-width:7px;}.cls-12{opacity:0.33;}.cls-13{stroke-width:13px;}.cls-15{fill:#9bf6ff;}.cls-16{fill:#045ba3;}.cls-17{stroke:#fff;}.cls-18{stroke-width:6px;}.cls-19{fill:#5b2525;}.cls-19,.cls-20{stroke-width:9px;}</style></defs><g id="Layer_2" data-name="Layer 2"><g id="Layer_94" data-name="Layer 94"><rect class="cls-1" width="1500" height="1500"/><path class="cls-2" d="M879.7,904.73h189.89a89.66,89.66,0,0,1,89.66,89.66v244.27a0,0,0,0,1,0,0H948.42a99.36,99.36,0,0,1-99.36-99.36V935.37A30.64,30.64,0,0,1,879.7,904.73Z" transform="translate(2075.86 67.55) rotate(90)"/><path class="cls-3" d="M925.5,975.69A140,140,0,0,1,945,977.91c6.43,1.13,12.81,2.6,19.14,4.32a236.36,236.36,0,0,1,37,13.61,216.9,216.9,0,0,1,34.49,20.14,184.8,184.8,0,0,1,30.25,27,156.14,156.14,0,0,1,23.22,33.87,147.37,147.37,0,0,1,7.89,19.08,136.81,136.81,0,0,1,5,19.95c.26,1.68.54,3.37.78,5.05l.53,5.08c.2,1.68.28,3.38.38,5.07s.22,3.38.19,5.07a147.2,147.2,0,0,1-1.07,20.08,145.16,145.16,0,0,1-3.94,19.46,128.16,128.16,0,0,1-6.56,18.5c-.13-3.29,0-6.51-.1-9.73s-.08-6.4-.27-9.58l-.2-4.74-.35-4.71-.16-2.34-.23-2.33-.48-4.65c-.45-3.07-.71-6.14-1.31-9.16-.28-1.52-.46-3-.76-4.53l-.9-4.48a171.08,171.08,0,0,0-4.69-17.46,164,164,0,0,0-6.42-16.62c-2.45-5.38-5.18-10.61-8.14-15.7a183,183,0,0,0-21-28.53c-15.85-17.78-35-33-55.64-46.65-10.31-6.86-21.07-13.25-32.09-19.42S937.17,981.49,925.5,975.69Z"/><path class="cls-3" d="M946.58,941.2A142.51,142.51,0,0,1,966,943.44c6.43,1.13,12.79,2.59,19.11,4.28a249.22,249.22,0,0,1,37,13.26,234.37,234.37,0,0,1,34.72,19.32,206.06,206.06,0,0,1,31.07,25.56,182.44,182.44,0,0,1,13.5,15.2c2.12,2.66,4.13,5.41,6.11,8.18s3.83,5.64,5.58,8.57c.91,1.45,1.75,2.93,2.59,4.42s1.69,3,2.45,4.49,1.57,3,2.31,4.57l2.13,4.65a150.77,150.77,0,0,1,6.92,19.21c.47,1.63.87,3.29,1.28,4.93s.77,3.3,1.1,5,.72,3.31,1,5,.51,3.34.76,5a143.68,143.68,0,0,1,1.2,20c0,1.66-.09,3.33-.17,5s-.11,3.3-.3,5c-.36,3.3-.62,6.58-1.22,9.83a122.36,122.36,0,0,1-4.5,19.09c-1.46-13-3.1-25.5-6-37.57l-1.08-4.5c-.39-1.49-.84-3-1.25-4.45l-.61-2.21L1119,1103c-.47-1.46-.89-2.92-1.39-4.36-1.94-5.76-4.16-11.38-6.6-16.86-9.81-21.92-23.92-41.28-40.8-58.33s-36.51-31.81-57.37-45.22c-10.42-6.73-21.23-13-32.28-19.18S958.22,947,946.58,941.2Z"/><path class="cls-3" d="M1005,924.91s124.57,26.83,147.57,159.07c0,0,13.37-120.67,0-128.41C1116.19,934.49,1187.61,925.87,1005,924.91Z"/><path class="cls-3" d="M958.08,979.53c-5.75-19.17,15.33-23,21.08-21.08s9.58-9.59,9.58-9.59,1.33-12.11,20.13-16.29c17.25-3.83,24.91,1.92,24.91,1.92s-57.86-24-74.74-3.83a109.19,109.19,0,0,1-38,28.71l25.59,29.51Z"/><path class="cls-4" d="M880.63,905.34h189.89A89.66,89.66,0,0,1,1160.19,995v244.27a0,0,0,0,1,0,0H949.35A99.36,99.36,0,0,1,850,1139.92V936A30.64,30.64,0,0,1,880.63,905.34Z" transform="translate(2077.4 67.22) rotate(90)"/><path class="cls-2" d="M595.86,1012.11S271,1300.37,493.69,1397.49c0,0,530.83,45.22,591.12-10s41.86-232.77-144-403.57S595.86,1012.11,595.86,1012.11Z"/><path class="cls-3" d="M423.37,1249.76s23-24.92,36.42,1.91c9.91,19.84,18.78,64.81,22.74,86.91a4.83,4.83,0,0,1-7.62,4.73c-11.21-8.35-30.27-20-47.7-18.81C400.37,1326.42,423.37,1249.76,423.37,1249.76Z"/><path class="cls-5" d="M492.37,1378.16s400.38,17.86,414.84,16.6-5.72,23.62-31.09,21.72-377.28-16.91-382.43-19S492.37,1378.16,492.37,1378.16Z"/><path class="cls-3" d="M837.34,979.53s184,145.65,207,398.63c0,0,54.39,43.12,71.28-55.1,0,0,26.58-166.31-194.84-358.41h0Z"/><path class="cls-3" d="M646.65,976.65s34.49,1.92,47.91,32.58,122.66,59.42,174.4,30.67,72.83-13.42,72.83-13.42l-47.91-49.83-247.23-14.8Z"/><path class="cls-6" d="M597.21,1013S272.32,1301.27,495,1398.4c0,0,530.84,45.21,591.12-10.05s41.86-232.77-144-403.57S597.21,1013,597.21,1013Z"/><path class="cls-2" d="M510.5,1399.28c-5.06-9.38-140.18-1.66-195.42,13.17s-54.41-28-54.41-28l-13.2-78.21s-15.6-61.6,23.18-67.22,42.13,50.14,47.29,79.45,42,18.88,42,18.88l99.89-14.77"/><path class="cls-5" d="M321.8,1403.08s89.85-39.32,181-24.45l4.18,18.74Z"/><path class="cls-3" d="M298.8,1259.34s-11.5-38.33-13.42-13.42c0,0,9.59,82.41,26.83,101.58,19.53,21.7,92-9.58,92-9.58s-74.75,5.75-80.5-3.84S298.8,1259.34,298.8,1259.34Z"/><path class="cls-7" d="M456,1324.5l-96.61,13.75s-36.8,10.44-42-18.88-8.5-85.07-47.29-79.45-23.18,67.22-23.18,67.22l13.19,78.21s-.83,42.84,54.41,28,190.36-22.55,195.43-13.17"/><path class="cls-2" d="M885.47,1412.08s84.53,14.08,104.25,28.17,78.89,0,76.07-14.09,56.35-191.59-59.17-138.05c0,0-31,33.81-25.35,84.52"/><path class="cls-8" d="M978.2,1367.62s14.22-76,27.72-75.87c7.26.09,45.11-10.37,31.7-4.62-8.18,3.5-20.86,41.93-24,56.54-4.54,21.39-3.77,45.11-8.62,48.87S989.7,1380.08,978.2,1367.62Z"/><path class="cls-5" d="M1017.49,1441.41c4.61,1.15,2.69-22,3.12-26.68l8.38-92.15s13-64.41,44.08-15.33c1.38,2.18.36-6.34.88-3.82,3,14.64,11.06,68.9-20,124.56,0,0-12.63,31.46-107.89-2.48,0,0-51.18-3.27-51.18-18.6,0-5.43,13.41-11.5,13.41-11.5s57.21,2.72,61.33,9.58c5.75,9.59,5.13,14.46,23,19.17C1003,1426.89,1002.16,1437.58,1017.49,1441.41Z"/><path class="cls-7" d="M891,1414.58s78.54,11.13,98.27,25.22,70.87-.7,76.07-14.09c5.81-15,46.3-161.27-32.3-147.14-18.51,3.33-34,15.91-41.95,32.94a112.9,112.9,0,0,0-10.28,60.67"/><path class="cls-2" d="M1255,523.85a355.17,355.17,0,0,1-7.64,55.73C1212.68,738.26,1083.3,845.8,987.82,912.94c-38.32,26.91-71.2,47.37-90.3,62a113.81,113.81,0,0,0-12.12,10.37c-47.67,49-96.67,48-134.56,33.92A182.47,182.47,0,0,1,710,997.27c-6.45-4.56-11.92-9-16.26-12.71a81.65,81.65,0,0,0-27.3-15.63c-58.26-19.7-258.17-98.11-315.73-263.61-21-60.55-29-113.23-30-157.07a416,416,0,0,1,1.75-47.54c8.14-43.3,34-83.59,73.23-118.27,83.51-73.88,227.77-122.68,391.72-122.68A784.14,784.14,0,0,1,937.1,273.91C1118.66,309.35,1250.3,407.51,1255,523.85Z"/><path class="cls-3" d="M838.12,261.35s700.66,235.22-29.53,748.84c0,0-42.06,4.18-20.07,17.42s100-45.3,100-45.3S1112.92,825.54,1117,805.75s222.52-194.19,97.94-389.68C1214.89,416.07,1061.22,258,838.12,261.35Z"/><path class="cls-2" d="M636.67,1089.26s0,184-6.55,226.15-19.67-7.67-19.67-7.67-18.57,84.33-33.86,7.67,19.66-226.15,19.66-226.15-10.11-16.2-22.75,12.55"/><path d="M636.67,1089.26c.77,11.42,1.35,22.85,1.85,34.27s.88,22.86,1.25,34.29q1.08,34.29,1.11,68.61c0,22.9-.26,45.76-1.47,68.83-.41,5.8-.7,11.53-1.46,17.51-.17,1.49-.3,3-.52,4.46s-.47,3-.76,4.53-.63,3.08-1.06,4.69a36.71,36.71,0,0,1-1.73,5.11,21,21,0,0,1-1.58,3,13,13,0,0,1-3.66,3.77,10.27,10.27,0,0,1-3.86,1.57,10.74,10.74,0,0,1-2.32.13,10.55,10.55,0,0,1-1.13-.12c-.34-.07-.67-.14-1-.23a10.16,10.16,0,0,1-1.75-.65,13.39,13.39,0,0,1-1.36-.75c-.36-.25-.74-.51-1.06-.77s-.6-.49-.87-.74a19.14,19.14,0,0,1-2.36-2.7c-.62-.84-1.13-1.64-1.6-2.42a49.14,49.14,0,0,1-2.35-4.52c-1.35-2.93-2.44-5.79-3.45-8.66-.5-1.43-1-2.86-1.42-4.3s-.88-2.83-1.31-4.41l15.38-.31c-.77,3.43-1.59,6.59-2.49,9.85s-1.88,6.48-3,9.71-2.31,6.48-3.76,9.75c-.73,1.64-1.53,3.29-2.45,5a36.71,36.71,0,0,1-3.37,5.15c-.33.43-.75.9-1.13,1.34s-.86.91-1.38,1.38a16.4,16.4,0,0,1-3.93,2.7,12.59,12.59,0,0,1-6.41,1.23,12.79,12.79,0,0,1-3.35-.74c-.48-.19-1-.41-1.42-.64a10.87,10.87,0,0,1-1.22-.71,15.83,15.83,0,0,1-2-1.54c-.56-.51-1-1-1.49-1.53s-.81-1-1.17-1.49l-1-1.43a43.59,43.59,0,0,1-2.79-5.4,86.41,86.41,0,0,1-3.52-10.15c-1-3.33-1.74-6.62-2.44-9.91-.36-1.65-.67-3.28-1-4.92l-.85-5-.42-2.51c-.13-.84-.21-1.67-.32-2.51l-.61-5c-.35-3.34-.61-6.67-.86-10s-.37-6.66-.42-10c-.34-13.27.1-26.43,1-39.52a708.85,708.85,0,0,1,10.33-77.65l1.82-9.59,2-9.57c1.33-6.37,2.69-12.73,4.18-19.06,3-12.67,6-25.3,9.59-37.83l.24,1.46a10,10,0,0,0-1-1.36,9.07,9.07,0,0,0-1.25-1.23,6.56,6.56,0,0,0-2.94-1.45c-2.14-.39-4.51.72-6.5,2.39a29.93,29.93,0,0,0-5.24,6.08,82.36,82.36,0,0,0-4.21,7.1,67.71,67.71,0,0,1,3.28-7.65,31.59,31.59,0,0,1,4.74-7.05,14.15,14.15,0,0,1,3.53-2.78,9,9,0,0,1,4.73-1.07,9.78,9.78,0,0,1,4.62,1.65,13.32,13.32,0,0,1,3.49,3.33l.4.56-.16.9c-4.4,25.48-8.08,51.11-11.22,76.72-1.52,12.81-2.93,25.62-4,38.44s-2,25.63-2.46,38.41-.54,25.55.08,38.19c.12,3.16.42,6.29.62,9.44s.58,6.25,1,9.35l.64,4.62c.11.76.19,1.54.33,2.3l.41,2.28.83,4.54c.34,1.53.65,3.08,1,4.59.7,3,1.46,6,2.29,8.94a71.88,71.88,0,0,0,2.87,8.19,28.06,28.06,0,0,0,1.66,3.22l.4.57c.12.16.23.28.33.43a1.38,1.38,0,0,1,.21.2s.05.06-.07-.05-.07,0-.17-.1a1.13,1.13,0,0,0-.32-.13,3.61,3.61,0,0,0-1-.23,3.51,3.51,0,0,0-1.7.28c-.43.24.22-.13.79-.94a35.48,35.48,0,0,0,3.79-6.72c1.18-2.64,2.26-5.48,3.26-8.37s1.91-5.86,2.76-8.86,1.65-6.08,2.32-9l7.13-31,8.24,30.72a108.91,108.91,0,0,0,5.06,15,33.37,33.37,0,0,0,1.55,3.11,13.52,13.52,0,0,0,.73,1.16c.22.31.43.55.43.55l-.06,0a.7.7,0,0,0-.19-.13,2.12,2.12,0,0,0-.43-.24,4.2,4.2,0,0,0-.75-.27,2.73,2.73,0,0,0-.48-.1,3.94,3.94,0,0,0-.6-.08,5.5,5.5,0,0,0-1.26.09,5,5,0,0,0-1.9.74c-.79.56-.78.74-.75.67a5.82,5.82,0,0,0,.42-.79,22.68,22.68,0,0,0,1.06-3c.34-1.13.64-2.37.91-3.64s.53-2.57.76-3.89.37-2.7.57-4c.82-5.34,1.24-11,1.79-16.58s.9-11.28,1.31-16.93l1.07-17,1-17.06.91-17.07,3.48-68.4c.64-11.41,1.15-22.82,1.86-34.23S635.89,1100.68,636.67,1089.26Z"/><path class="cls-2" d="M920.82,1094.48c-17.39-28.75-31.31-12.55-31.31-12.55s48.12,149.49,27.07,226.15-46.62-7.66-46.62-7.66-18.05,49.83-27.07,7.66-9-226.15-9-226.15"/><path d="M920.82,1094.48a69.39,69.39,0,0,0-6.23-7.7,29.52,29.52,0,0,0-7.55-5.94,13.39,13.39,0,0,0-8.66-1.67,11.56,11.56,0,0,0-4,1.52,13.66,13.66,0,0,0-1.76,1.25c-.28.23-.54.47-.79.72a7.14,7.14,0,0,0-.64.71l.43-2.11a724.94,724.94,0,0,1,23,77c6.21,26.11,11.19,52.63,13.47,79.67a281,281,0,0,1,.74,41c-.25,3.45-.42,6.9-.9,10.36-.22,1.73-.4,3.46-.65,5.18l-.89,5.2-.44,2.59-.6,2.59-1.21,5.18c-.91,3.36-1.87,6.7-3,10.06a95.42,95.42,0,0,1-4,10.09A47.55,47.55,0,0,1,911,1340.4a24.6,24.6,0,0,1-5.43,5,17.67,17.67,0,0,1-4,2c-.39.12-.77.25-1.16.35s-.81.18-1.22.26a16,16,0,0,1-2.51.24,17.59,17.59,0,0,1-8.79-2.36,26.13,26.13,0,0,1-5.65-4.4,50.66,50.66,0,0,1-7.14-9.46,98.67,98.67,0,0,1-5.08-9.6q-2.24-4.83-4.1-9.71-.95-2.45-1.8-4.92c-.59-1.67-1.12-3.25-1.68-5.08l15,.4c-.6,1.61-1.16,3-1.78,4.4s-1.25,2.84-1.92,4.24a85.53,85.53,0,0,1-4.54,8.42,47.93,47.93,0,0,1-2.91,4.24,29.69,29.69,0,0,1-4,4.32,19.94,19.94,0,0,1-3,2.16,14,14,0,0,1-4.59,1.64,12.07,12.07,0,0,1-5.88-.51,12.9,12.9,0,0,1-4.42-2.65,19.65,19.65,0,0,1-4.2-5.64,38.34,38.34,0,0,1-2.11-5,70.82,70.82,0,0,1-2.43-9.37l-1.42-9.1c-.37-3-.62-5.91-.92-8.88l-.42-4.42-.29-4.4-.58-8.78c-.33-5.84-.55-11.67-.8-17.5l-.49-17.47c-.14-5.82-.16-11.64-.25-17.46q-.33-34.89.58-69.73c.31-11.61.59-23.22,1.12-34.83s1-23.22,1.77-34.82q1.17,17.4,2.15,34.78l2,34.76,4,69.43,1.12,17.32,1.22,17.28,1.43,17.22.84,8.56.43,4.28.55,4.22c.38,2.8.68,5.65,1.09,8.4l1.45,8.07a57.49,57.49,0,0,0,2.09,7.41,23.35,23.35,0,0,0,1.32,3,5.52,5.52,0,0,0,.92,1.32,1.93,1.93,0,0,0-.72-.41,3.45,3.45,0,0,0-1.6-.15,3.16,3.16,0,0,0-.53.13,5.25,5.25,0,0,0,.49-.39,14.44,14.44,0,0,0,1.84-2.1,34.55,34.55,0,0,0,2-3,70.71,70.71,0,0,0,3.6-7c.56-1.22,1.1-2.46,1.62-3.71s1-2.57,1.43-3.67l7.83-21.78,7.15,22.18c.43,1.34,1,2.93,1.49,4.39s1.08,3,1.66,4.47c1.15,3,2.39,5.86,3.71,8.68a86.14,86.14,0,0,0,4.3,8,36.09,36.09,0,0,0,4.86,6.48,10.52,10.52,0,0,0,2.18,1.77,3.84,3.84,0,0,0,.72.32c-.08,0,0,.06.43-.23a9,9,0,0,0,1.86-1.78,32.45,32.45,0,0,0,4.1-6.85c1.25-2.65,2.35-5.53,3.4-8.47s2-6,2.84-9.07l1.12-4.54.56-2.27.44-2.33.87-4.65c.24-1.56.43-3.15.65-4.72.48-3.14.73-6.35,1-9.54a290.63,290.63,0,0,0,.32-38.95c-1.41-26.16-5-52.4-9.67-78.47-2.32-13.05-4.95-26.06-7.77-39s-5.87-25.94-9.2-38.77l-.34-1.31.76-.8a12.7,12.7,0,0,1,1.14-1q.56-.45,1.14-.84a17.32,17.32,0,0,1,2.44-1.4,15.5,15.5,0,0,1,5.42-1.43,14.91,14.91,0,0,1,5.5.64,18.63,18.63,0,0,1,4.8,2.35,31.61,31.61,0,0,1,7.26,7.2A59.84,59.84,0,0,1,920.82,1094.48Z"/><path class="cls-9" d="M1255.71,523.17a357.38,357.38,0,0,1-7.64,55.73C1213.36,737.58,1084,845.13,988.49,912.27c-38.31,26.9-71.19,47.36-90.3,62a113.57,113.57,0,0,0-12.11,10.37c-47.68,49-96.67,48-134.57,33.93a183.2,183.2,0,0,1-40.82-21.92c-6.45-4.57-11.92-9-16.26-12.71a81.67,81.67,0,0,0-27.3-15.64C608.86,948.56,409,870.15,351.4,704.65c-21-60.55-29-113.24-30-157.08A413.47,413.47,0,0,1,323.17,500c8.14-43.31,34-83.6,73.22-118.28,83.52-73.88,227.77-122.67,391.72-122.67a784.33,784.33,0,0,1,149.67,14.14C1119.34,308.67,1251,406.84,1255.71,523.17Z"/><ellipse class="cls-2" cx="501.09" cy="733.87" rx="183.5" ry="181.22"/><ellipse class="cls-2" cx="1014.52" cy="723.97" rx="176.16" ry="173.97"/><path class="cls-3" d="M1043.94,551.42s159.14,154.9,43.9,329.78c0,0,116.39-50.15,101.57-179.13C1189.41,702.07,1190.28,592.76,1043.94,551.42Z"/><path class="cls-3" d="M684.85,733.56c0,100.09-82.15,181.22-183.5,181.22a186.6,186.6,0,0,1-29.71-2.37c87.77-13.55,154.93-88.54,154.93-179,0-90.09-66.58-164.83-153.79-178.85a186.81,186.81,0,0,1,28.57-2.19C602.7,552.34,684.85,633.48,684.85,733.56Z"/><path class="cls-2" d="M879.7,904.73h189.89a89.66,89.66,0,0,1,89.66,89.66v244.27a0,0,0,0,1,0,0H948.42a99.36,99.36,0,0,1-99.36-99.36V935.37A30.64,30.64,0,0,1,879.7,904.73Z" transform="translate(2075.86 67.55) rotate(90)"/><path class="cls-3" d="M925.5,975.69A140,140,0,0,1,945,977.91c6.43,1.13,12.81,2.6,19.14,4.32a236.36,236.36,0,0,1,37,13.61,216.9,216.9,0,0,1,34.49,20.14,184.8,184.8,0,0,1,30.25,27,156.14,156.14,0,0,1,23.22,33.87,147.37,147.37,0,0,1,7.89,19.08,136.81,136.81,0,0,1,5,19.95c.26,1.68.54,3.37.78,5.05l.53,5.08c.2,1.68.28,3.38.38,5.07s.22,3.38.19,5.07a147.2,147.2,0,0,1-1.07,20.08,145.16,145.16,0,0,1-3.94,19.46,128.16,128.16,0,0,1-6.56,18.5c-.13-3.29,0-6.51-.1-9.73s-.08-6.4-.27-9.58l-.2-4.74-.35-4.71-.16-2.34-.23-2.33-.48-4.65c-.45-3.07-.71-6.14-1.31-9.16-.28-1.52-.46-3-.76-4.53l-.9-4.48a171.08,171.08,0,0,0-4.69-17.46,164,164,0,0,0-6.42-16.62c-2.45-5.38-5.18-10.61-8.14-15.7a183,183,0,0,0-21-28.53c-15.85-17.78-35-33-55.64-46.65-10.31-6.86-21.07-13.25-32.09-19.42S937.17,981.49,925.5,975.69Z"/><path class="cls-3" d="M946.58,941.2A142.51,142.51,0,0,1,966,943.44c6.43,1.13,12.79,2.59,19.11,4.28a249.22,249.22,0,0,1,37,13.26,234.37,234.37,0,0,1,34.72,19.32,206.06,206.06,0,0,1,31.07,25.56,182.44,182.44,0,0,1,13.5,15.2c2.12,2.66,4.13,5.41,6.11,8.18s3.83,5.64,5.58,8.57c.91,1.45,1.75,2.93,2.59,4.42s1.69,3,2.45,4.49,1.57,3,2.31,4.57l2.13,4.65a150.77,150.77,0,0,1,6.92,19.21c.47,1.63.87,3.29,1.28,4.93s.77,3.3,1.1,5,.72,3.31,1,5,.51,3.34.76,5a143.68,143.68,0,0,1,1.2,20c0,1.66-.09,3.33-.17,5s-.11,3.3-.3,5c-.36,3.3-.62,6.58-1.22,9.83a122.36,122.36,0,0,1-4.5,19.09c-1.46-13-3.1-25.5-6-37.57l-1.08-4.5c-.39-1.49-.84-3-1.25-4.45l-.61-2.21L1119,1103c-.47-1.46-.89-2.92-1.39-4.36-1.94-5.76-4.16-11.38-6.6-16.86-9.81-21.92-23.92-41.28-40.8-58.33s-36.51-31.81-57.37-45.22c-10.42-6.73-21.23-13-32.28-19.18S958.22,947,946.58,941.2Z"/><path class="cls-3" d="M1005,924.91s124.57,26.83,147.57,159.07c0,0,13.37-120.67,0-128.41C1116.19,934.49,1187.61,925.87,1005,924.91Z"/><path class="cls-3" d="M958.08,979.53c-5.75-19.17,15.33-23,21.08-21.08s9.58-9.59,9.58-9.59,1.33-12.11,20.13-16.29c17.25-3.83,24.91,1.92,24.91,1.92s-57.86-24-74.74-3.83a109.19,109.19,0,0,1-38,28.71l25.59,29.51Z"/><path class="cls-4" d="M880.63,905.34h189.89A89.66,89.66,0,0,1,1160.19,995v244.27a0,0,0,0,1,0,0H949.35A99.36,99.36,0,0,1,850,1139.92V936A30.64,30.64,0,0,1,880.63,905.34Z" transform="translate(2077.4 67.22) rotate(90)"/><path class="cls-2" d="M595.86,1012.11S271,1300.37,493.69,1397.49c0,0,530.83,45.22,591.12-10s41.86-232.77-144-403.57S595.86,1012.11,595.86,1012.11Z"/><path class="cls-3" d="M423.37,1249.76s23-24.92,36.42,1.91c9.91,19.84,18.78,64.81,22.74,86.91a4.83,4.83,0,0,1-7.62,4.73c-11.21-8.35-30.27-20-47.7-18.81C400.37,1326.42,423.37,1249.76,423.37,1249.76Z"/><path class="cls-5" d="M492.37,1378.16s400.38,17.86,414.84,16.6-5.72,23.62-31.09,21.72-377.28-16.91-382.43-19S492.37,1378.16,492.37,1378.16Z"/><path class="cls-3" d="M837.34,979.53s184,145.65,207,398.63c0,0,54.39,43.12,71.28-55.1,0,0,26.58-166.31-194.84-358.41h0Z"/><path class="cls-3" d="M646.65,976.65s34.49,1.92,47.91,32.58,122.66,59.42,174.4,30.67,72.83-13.42,72.83-13.42l-47.91-49.83-247.23-14.8Z"/><path class="cls-6" d="M597.21,1013S272.32,1301.27,495,1398.4c0,0,530.84,45.21,591.12-10.05s41.86-232.77-144-403.57S597.21,1013,597.21,1013Z"/><path class="cls-2" d="M510.5,1399.28c-5.06-9.38-140.18-1.66-195.42,13.17s-54.41-28-54.41-28l-13.2-78.21s-15.6-61.6,23.18-67.22,42.13,50.14,47.29,79.45,42,18.88,42,18.88l99.89-14.77"/><path class="cls-5" d="M321.8,1403.08s89.85-39.32,181-24.45l4.18,18.74Z"/><path class="cls-3" d="M298.8,1259.34s-11.5-38.33-13.42-13.42c0,0,9.59,82.41,26.83,101.58,19.53,21.7,92-9.58,92-9.58s-74.75,5.75-80.5-3.84S298.8,1259.34,298.8,1259.34Z"/><path class="cls-7" d="M456,1324.5l-96.61,13.75s-36.8,10.44-42-18.88-8.5-85.07-47.29-79.45-23.18,67.22-23.18,67.22l13.19,78.21s-.83,42.84,54.41,28,190.36-22.55,195.43-13.17"/><path class="cls-2" d="M885.47,1412.08s84.53,14.08,104.25,28.17,78.89,0,76.07-14.09,56.35-191.59-59.17-138.05c0,0-31,33.81-25.35,84.52"/><path class="cls-8" d="M978.2,1367.62s14.22-76,27.72-75.87c7.26.09,45.11-10.37,31.7-4.62-8.18,3.5-20.86,41.93-24,56.54-4.54,21.39-3.77,45.11-8.62,48.87S989.7,1380.08,978.2,1367.62Z"/><path class="cls-5" d="M1017.49,1441.41c4.61,1.15,2.69-22,3.12-26.68l8.38-92.15s13-64.41,44.08-15.33c1.38,2.18.36-6.34.88-3.82,3,14.64,11.06,68.9-20,124.56,0,0-12.63,31.46-107.89-2.48,0,0-51.18-3.27-51.18-18.6,0-5.43,13.41-11.5,13.41-11.5s57.21,2.72,61.33,9.58c5.75,9.59,5.13,14.46,23,19.17C1003,1426.89,1002.16,1437.58,1017.49,1441.41Z"/><path class="cls-7" d="M891,1414.58s78.54,11.13,98.27,25.22,70.87-.7,76.07-14.09c5.81-15,46.3-161.27-32.3-147.14-18.51,3.33-34,15.91-41.95,32.94a112.9,112.9,0,0,0-10.28,60.67"/><path class="cls-2" d="M1255,523.85a355.17,355.17,0,0,1-7.64,55.73C1212.68,738.26,1083.3,845.8,987.82,912.94c-38.32,26.91-71.2,47.37-90.3,62a113.81,113.81,0,0,0-12.12,10.37c-47.67,49-96.67,48-134.56,33.92A182.47,182.47,0,0,1,710,997.27c-6.45-4.56-11.92-9-16.26-12.71a81.65,81.65,0,0,0-27.3-15.63c-58.26-19.7-258.17-98.11-315.73-263.61-21-60.55-29-113.23-30-157.07a416,416,0,0,1,1.75-47.54c8.14-43.3,34-83.59,73.23-118.27,83.51-73.88,227.77-122.68,391.72-122.68A784.14,784.14,0,0,1,937.1,273.91C1118.66,309.35,1250.3,407.51,1255,523.85Z"/><path class="cls-3" d="M838.12,261.35s700.66,235.22-29.53,748.84c0,0-42.06,4.18-20.07,17.42s100-45.3,100-45.3S1112.92,825.54,1117,805.75s222.52-194.19,97.94-389.68C1214.89,416.07,1061.22,258,838.12,261.35Z"/><path class="cls-2" d="M636.67,1089.26s0,184-6.55,226.15-19.67-7.67-19.67-7.67-18.57,84.33-33.86,7.67,19.66-226.15,19.66-226.15-10.11-16.2-22.75,12.55"/><path d="M636.67,1089.26c.77,11.42,1.35,22.85,1.85,34.27s.88,22.86,1.25,34.29q1.08,34.29,1.11,68.61c0,22.9-.26,45.76-1.47,68.83-.41,5.8-.7,11.53-1.46,17.51-.17,1.49-.3,3-.52,4.46s-.47,3-.76,4.53-.63,3.08-1.06,4.69a36.71,36.71,0,0,1-1.73,5.11,21,21,0,0,1-1.58,3,13,13,0,0,1-3.66,3.77,10.27,10.27,0,0,1-3.86,1.57,10.74,10.74,0,0,1-2.32.13,10.55,10.55,0,0,1-1.13-.12c-.34-.07-.67-.14-1-.23a10.16,10.16,0,0,1-1.75-.65,13.39,13.39,0,0,1-1.36-.75c-.36-.25-.74-.51-1.06-.77s-.6-.49-.87-.74a19.14,19.14,0,0,1-2.36-2.7c-.62-.84-1.13-1.64-1.6-2.42a49.14,49.14,0,0,1-2.35-4.52c-1.35-2.93-2.44-5.79-3.45-8.66-.5-1.43-1-2.86-1.42-4.3s-.88-2.83-1.31-4.41l15.38-.31c-.77,3.43-1.59,6.59-2.49,9.85s-1.88,6.48-3,9.71-2.31,6.48-3.76,9.75c-.73,1.64-1.53,3.29-2.45,5a36.71,36.71,0,0,1-3.37,5.15c-.33.43-.75.9-1.13,1.34s-.86.91-1.38,1.38a16.4,16.4,0,0,1-3.93,2.7,12.59,12.59,0,0,1-6.41,1.23,12.79,12.79,0,0,1-3.35-.74c-.48-.19-1-.41-1.42-.64a10.87,10.87,0,0,1-1.22-.71,15.83,15.83,0,0,1-2-1.54c-.56-.51-1-1-1.49-1.53s-.81-1-1.17-1.49l-1-1.43a43.59,43.59,0,0,1-2.79-5.4,86.41,86.41,0,0,1-3.52-10.15c-1-3.33-1.74-6.62-2.44-9.91-.36-1.65-.67-3.28-1-4.92l-.85-5-.42-2.51c-.13-.84-.21-1.67-.32-2.51l-.61-5c-.35-3.34-.61-6.67-.86-10s-.37-6.66-.42-10c-.34-13.27.1-26.43,1-39.52a708.85,708.85,0,0,1,10.33-77.65l1.82-9.59,2-9.57c1.33-6.37,2.69-12.73,4.18-19.06,3-12.67,6-25.3,9.59-37.83l.24,1.46a10,10,0,0,0-1-1.36,9.07,9.07,0,0,0-1.25-1.23,6.56,6.56,0,0,0-2.94-1.45c-2.14-.39-4.51.72-6.5,2.39a29.93,29.93,0,0,0-5.24,6.08,82.36,82.36,0,0,0-4.21,7.1,67.71,67.71,0,0,1,3.28-7.65,31.59,31.59,0,0,1,4.74-7.05,14.15,14.15,0,0,1,3.53-2.78,9,9,0,0,1,4.73-1.07,9.78,9.78,0,0,1,4.62,1.65,13.32,13.32,0,0,1,3.49,3.33l.4.56-.16.9c-4.4,25.48-8.08,51.11-11.22,76.72-1.52,12.81-2.93,25.62-4,38.44s-2,25.63-2.46,38.41-.54,25.55.08,38.19c.12,3.16.42,6.29.62,9.44s.58,6.25,1,9.35l.64,4.62c.11.76.19,1.54.33,2.3l.41,2.28.83,4.54c.34,1.53.65,3.08,1,4.59.7,3,1.46,6,2.29,8.94a71.88,71.88,0,0,0,2.87,8.19,28.06,28.06,0,0,0,1.66,3.22l.4.57c.12.16.23.28.33.43a1.38,1.38,0,0,1,.21.2s.05.06-.07-.05-.07,0-.17-.1a1.13,1.13,0,0,0-.32-.13,3.61,3.61,0,0,0-1-.23,3.51,3.51,0,0,0-1.7.28c-.43.24.22-.13.79-.94a35.48,35.48,0,0,0,3.79-6.72c1.18-2.64,2.26-5.48,3.26-8.37s1.91-5.86,2.76-8.86,1.65-6.08,2.32-9l7.13-31,8.24,30.72a108.91,108.91,0,0,0,5.06,15,33.37,33.37,0,0,0,1.55,3.11,13.52,13.52,0,0,0,.73,1.16c.22.31.43.55.43.55l-.06,0a.7.7,0,0,0-.19-.13,2.12,2.12,0,0,0-.43-.24,4.2,4.2,0,0,0-.75-.27,2.73,2.73,0,0,0-.48-.1,3.94,3.94,0,0,0-.6-.08,5.5,5.5,0,0,0-1.26.09,5,5,0,0,0-1.9.74c-.79.56-.78.74-.75.67a5.82,5.82,0,0,0,.42-.79,22.68,22.68,0,0,0,1.06-3c.34-1.13.64-2.37.91-3.64s.53-2.57.76-3.89.37-2.7.57-4c.82-5.34,1.24-11,1.79-16.58s.9-11.28,1.31-16.93l1.07-17,1-17.06.91-17.07,3.48-68.4c.64-11.41,1.15-22.82,1.86-34.23S635.89,1100.68,636.67,1089.26Z"/><path class="cls-2" d="M920.82,1094.48c-17.39-28.75-31.31-12.55-31.31-12.55s48.12,149.49,27.07,226.15-46.62-7.66-46.62-7.66-18.05,49.83-27.07,7.66-9-226.15-9-226.15"/><path d="M920.82,1094.48a69.39,69.39,0,0,0-6.23-7.7,29.52,29.52,0,0,0-7.55-5.94,13.39,13.39,0,0,0-8.66-1.67,11.56,11.56,0,0,0-4,1.52,13.66,13.66,0,0,0-1.76,1.25c-.28.23-.54.47-.79.72a7.14,7.14,0,0,0-.64.71l.43-2.11a724.94,724.94,0,0,1,23,77c6.21,26.11,11.19,52.63,13.47,79.67a281,281,0,0,1,.74,41c-.25,3.45-.42,6.9-.9,10.36-.22,1.73-.4,3.46-.65,5.18l-.89,5.2-.44,2.59-.6,2.59-1.21,5.18c-.91,3.36-1.87,6.7-3,10.06a95.42,95.42,0,0,1-4,10.09A47.55,47.55,0,0,1,911,1340.4a24.6,24.6,0,0,1-5.43,5,17.67,17.67,0,0,1-4,2c-.39.12-.77.25-1.16.35s-.81.18-1.22.26a16,16,0,0,1-2.51.24,17.59,17.59,0,0,1-8.79-2.36,26.13,26.13,0,0,1-5.65-4.4,50.66,50.66,0,0,1-7.14-9.46,98.67,98.67,0,0,1-5.08-9.6q-2.24-4.83-4.1-9.71-.95-2.45-1.8-4.92c-.59-1.67-1.12-3.25-1.68-5.08l15,.4c-.6,1.61-1.16,3-1.78,4.4s-1.25,2.84-1.92,4.24a85.53,85.53,0,0,1-4.54,8.42,47.93,47.93,0,0,1-2.91,4.24,29.69,29.69,0,0,1-4,4.32,19.94,19.94,0,0,1-3,2.16,14,14,0,0,1-4.59,1.64,12.07,12.07,0,0,1-5.88-.51,12.9,12.9,0,0,1-4.42-2.65,19.65,19.65,0,0,1-4.2-5.64,38.34,38.34,0,0,1-2.11-5,70.82,70.82,0,0,1-2.43-9.37l-1.42-9.1c-.37-3-.62-5.91-.92-8.88l-.42-4.42-.29-4.4-.58-8.78c-.33-5.84-.55-11.67-.8-17.5l-.49-17.47c-.14-5.82-.16-11.64-.25-17.46q-.33-34.89.58-69.73c.31-11.61.59-23.22,1.12-34.83s1-23.22,1.77-34.82q1.17,17.4,2.15,34.78l2,34.76,4,69.43,1.12,17.32,1.22,17.28,1.43,17.22.84,8.56.43,4.28.55,4.22c.38,2.8.68,5.65,1.09,8.4l1.45,8.07a57.49,57.49,0,0,0,2.09,7.41,23.35,23.35,0,0,0,1.32,3,5.52,5.52,0,0,0,.92,1.32,1.93,1.93,0,0,0-.72-.41,3.45,3.45,0,0,0-1.6-.15,3.16,3.16,0,0,0-.53.13,5.25,5.25,0,0,0,.49-.39,14.44,14.44,0,0,0,1.84-2.1,34.55,34.55,0,0,0,2-3,70.71,70.71,0,0,0,3.6-7c.56-1.22,1.1-2.46,1.62-3.71s1-2.57,1.43-3.67l7.83-21.78,7.15,22.18c.43,1.34,1,2.93,1.49,4.39s1.08,3,1.66,4.47c1.15,3,2.39,5.86,3.71,8.68a86.14,86.14,0,0,0,4.3,8,36.09,36.09,0,0,0,4.86,6.48,10.52,10.52,0,0,0,2.18,1.77,3.84,3.84,0,0,0,.72.32c-.08,0,0,.06.43-.23a9,9,0,0,0,1.86-1.78,32.45,32.45,0,0,0,4.1-6.85c1.25-2.65,2.35-5.53,3.4-8.47s2-6,2.84-9.07l1.12-4.54.56-2.27.44-2.33.87-4.65c.24-1.56.43-3.15.65-4.72.48-3.14.73-6.35,1-9.54a290.63,290.63,0,0,0,.32-38.95c-1.41-26.16-5-52.4-9.67-78.47-2.32-13.05-4.95-26.06-7.77-39s-5.87-25.94-9.2-38.77l-.34-1.31.76-.8a12.7,12.7,0,0,1,1.14-1q.56-.45,1.14-.84a17.32,17.32,0,0,1,2.44-1.4,15.5,15.5,0,0,1,5.42-1.43,14.91,14.91,0,0,1,5.5.64,18.63,18.63,0,0,1,4.8,2.35,31.61,31.61,0,0,1,7.26,7.2A59.84,59.84,0,0,1,920.82,1094.48Z"/><path class="cls-9" d="M1255.71,523.17a357.38,357.38,0,0,1-7.64,55.73C1213.36,737.58,1084,845.13,988.49,912.27c-38.31,26.9-71.19,47.36-90.3,62a113.57,113.57,0,0,0-12.11,10.37c-47.68,49-96.67,48-134.57,33.93a183.2,183.2,0,0,1-40.82-21.92c-6.45-4.57-11.92-9-16.26-12.71a81.67,81.67,0,0,0-27.3-15.64C608.86,948.56,409,870.15,351.4,704.65c-21-60.55-29-113.24-30-157.08A413.47,413.47,0,0,1,323.17,500c8.14-43.31,34-83.6,73.22-118.28,83.52-73.88,227.77-122.67,391.72-122.67a784.33,784.33,0,0,1,149.67,14.14C1119.34,308.67,1251,406.84,1255.71,523.17Z"/><ellipse class="cls-2" cx="501.09" cy="733.87" rx="183.5" ry="181.22"/><ellipse class="cls-2" cx="1014.52" cy="723.97" rx="176.16" ry="173.97"/><path class="cls-3" d="M1043.94,551.42s159.14,154.9,43.9,329.78c0,0,116.39-50.15,101.57-179.13C1189.41,702.07,1190.28,592.76,1043.94,551.42Z"/><path class="cls-3" d="M684.85,733.56c0,100.09-82.15,181.22-183.5,181.22a186.6,186.6,0,0,1-29.71-2.37c87.77-13.55,154.93-88.54,154.93-179,0-90.09-66.58-164.83-153.79-178.85a186.81,186.81,0,0,1,28.57-2.19C602.7,552.34,684.85,633.48,684.85,733.56Z"/></g><g id="Layer_95" data-name="Layer 95"><path class="cls-10" d="M1113.59,1245.61s-79.18,20.86-191.5,36c-2.3.31,3-77-16-140-7.32-24.3-46.46,1.38-75,4-3.57.32,12.63,144.68,9,145-58.7,5.06-139.41,8.15-207,7-1.67,0,11-132,3-152-15.81-39.54-31,2-52,3-1.14.05-9.85,149.07-11,149-48.77-3.1-106.7-11.5-156.15-20.19,0,0,9.29-94.88,155.15-238.81,9.59-9.45,20.27-22.11,31-32,0,0,131.88,151.86,348.59-3.26,0,0,8.3,8,21.16,21.45C1014.27,1068.22,1103.06,1169.06,1113.59,1245.61Z"/><path class="cls-11" d="M972.84,1024.78C769,1168.05,617.2,1075.24,572.09,1038.59c9.59-9.45,22.27-19.11,33-29,0,0,129.88,148.86,346.59-6.26C951.68,1003.33,960,1011.29,972.84,1024.78Z"/><line class="cls-11" x1="636.89" y1="1035.92" x2="612.79" y2="1064.64"/><line class="cls-11" x1="674.15" y1="1056.92" x2="656.24" y2="1088.67"/><line class="cls-11" x1="716.44" y1="1070.34" x2="704.78" y2="1098.79"/><line class="cls-11" x1="765.27" y1="1074.71" x2="767.35" y2="1102.89"/><line class="cls-11" x1="808.28" y1="1069.93" x2="817.18" y2="1096.43"/><line class="cls-11" x1="867.36" y1="1081.68" x2="853.7" y2="1056.92"/><line class="cls-11" x1="899.75" y1="1035.92" x2="916.26" y2="1059.6"/><path class="cls-12" d="M958.75,1006.7s141.89,142.21,153.89,233.09l.29,5-88.8,20.49S966.56,1084.77,900.2,1034Z"/><path class="cls-13" d="M808.47,1139.42s62.45-158.09,126.86-5.86C935.33,1133.56,876.78,1157,808.47,1139.42Z"/><path class="cls-13" d="M541.09,1133.56s66.36-128.81,124.91,0C666,1133.56,613.3,1166.74,541.09,1133.56Z"/><path d="M738.37,1233.26a11.94,11.94,0,0,1-4.1-.78,17.08,17.08,0,0,1-3.81-2c-.52-.37-1-.77-1.52-1.19a8.16,8.16,0,0,0-2.8-1.6,68.79,68.79,0,0,1-11-4.9,17.91,17.91,0,0,0-5-35.17,18.28,18.28,0,0,0-15.72,9,45.26,45.26,0,0,1-1.12-8.91,37.79,37.79,0,0,1,.16-4.52c.73-3.88,3.11-7.71,6.88-11,8.26-7.3,22.22-11.67,37.34-11.67a75.46,75.46,0,0,1,14.3,1.35c17.62,3.44,29.74,12.92,30.17,23.58a32.5,32.5,0,0,1-.72,5.23,38.67,38.67,0,0,1-4.64,11.57,17.43,17.43,0,1,0-19.22,19.55l-.9.64c-1.69,1.18-3.26,2.23-4.65,3.16-1.63,1.09-3,2-4.05,2.81a10.1,10.1,0,0,0-1.23,1A11.47,11.47,0,0,1,738.37,1233.26Z"/><path d="M737.62,1160.9a74.49,74.49,0,0,1,14.2,1.34c17.36,3.39,29.32,12.65,29.77,23.06a33,33,0,0,1-.7,5.15,38.17,38.17,0,0,1-3.91,10.24,18,18,0,0,0-35.46,3.86A17.69,17.69,0,0,0,756.2,1222c-1.64,1.15-3.17,2.17-4.52,3.08-1.64,1.09-3.06,2-4.08,2.82a10.67,10.67,0,0,0-1.27,1.1,11,11,0,0,1-8,3.77,11.15,11.15,0,0,1-3.92-.75,16.32,16.32,0,0,1-3.7-2,18.42,18.42,0,0,1-1.48-1.16,8.71,8.71,0,0,0-3-1.69,69.27,69.27,0,0,1-9.93-4.31,18.41,18.41,0,0,0-6.29-35.79,18.84,18.84,0,0,0-15.49,8.17,44.11,44.11,0,0,1-.85-7.61,36,36,0,0,1,.16-4.41c.72-3.8,3-7.53,6.71-10.77,8.17-7.23,22-11.55,37-11.55m0-1c-15.77,0-29.64,4.7-37.67,11.8-3.78,3.34-6.26,7.21-7.05,11.38a38.83,38.83,0,0,0-.16,4.57,45.71,45.71,0,0,0,1.44,10.29,17.59,17.59,0,1,1,19.59,24.61,68.56,68.56,0,0,0,12.21,5.56,7.85,7.85,0,0,1,2.63,1.51c.42.36.94.78,1.56,1.22a18.76,18.76,0,0,0,3.93,2.11,12.33,12.33,0,0,0,4.27.81c2.73,0,5.73-1,8.67-4.08a11.39,11.39,0,0,1,1.17-1c1.84-1.41,5-3.37,8.69-6,.66-.47,1.33-1,2-1.46a16.73,16.73,0,1,1,17.46-17.62,39.68,39.68,0,0,0,5.48-13,33.77,33.77,0,0,0,.73-5.35c-.45-11.19-13.11-20.64-30.57-24a75.53,75.53,0,0,0-14.4-1.36Z"/></g><g id="blue_eyes_14" data-name="blue_eyes#14"><ellipse class="cls-14" cx="503.34" cy="739.82" rx="185.74" ry="182.67"/><ellipse class="cls-14" cx="1005.08" cy="728.41" rx="179.51" ry="176.54"/><ellipse class="cls-15" cx="530.43" cy="739.69" rx="137.91" ry="148.84" transform="translate(-225.68 1246.45) rotate(-88.19)"/><ellipse class="cls-15" cx="978.99" cy="726.2" rx="133.29" ry="143.85" transform="translate(222.18 1681.72) rotate(-88.19)"/><ellipse class="cls-16" cx="548.86" cy="740.59" rx="120.82" ry="130.39" transform="translate(-208.73 1265.73) rotate(-88.19)"/><ellipse class="cls-16" cx="961.19" cy="725.07" rx="116.76" ry="126.01" transform="translate(206.06 1662.84) rotate(-88.19)"/><ellipse cx="569.81" cy="740.05" rx="111.94" ry="110.08"/><ellipse cx="943.31" cy="725.94" rx="108.18" ry="106.39"/><path d="M400.9,521a110.41,110.41,0,0,1,10.4-9.4c3.64-2.95,7.46-5.69,11.35-8.32a176.77,176.77,0,0,1,24.68-13.73A162.7,162.7,0,0,1,502.2,475.4a152.59,152.59,0,0,1,28.51.74l7.07,1c2.34.41,4.66.95,7,1.43,1.16.25,2.33.48,3.48.76l3.43.95c2.28.67,4.57,1.26,6.83,2a162.12,162.12,0,0,1,49.38,26.66c-16.45-8.8-33.48-16-51.14-20.62-2.2-.57-4.44-1-6.66-1.51l-3.33-.75c-1.11-.21-2.24-.37-3.36-.56-2.24-.35-4.48-.75-6.72-1.08l-6.77-.73c-2.24-.3-4.52-.31-6.77-.47l-3.4-.18c-1.13-.08-2.26,0-3.39,0-2.27,0-4.53-.06-6.79,0l-6.79.35a189.8,189.8,0,0,0-53,11.93,220.7,220.7,0,0,0-25.08,11.3c-2.07,1-4.07,2.17-6.1,3.27s-4,2.3-6,3.5c-1,.59-2,1.19-3,1.81s-2,1.23-2.93,1.87C404.71,518.3,402.8,519.62,400.9,521Z"/><ellipse class="cls-17" cx="615.77" cy="686.79" rx="34.94" ry="34.36"/><ellipse class="cls-17" cx="1052.9" cy="694.04" rx="34.48" ry="33.91"/><ellipse class="cls-17" cx="464.15" cy="803.43" rx="11.88" ry="35.67" transform="translate(-357.06 1235.33) rotate(-87.73)"/><ellipse class="cls-17" cx="916.17" cy="798.58" rx="11.49" ry="34.48" transform="translate(81.87 1682.34) rotate(-87.73)"/><path d="M1102.27,514.41c-2-1.36-4-2.68-6-3.92s-4.09-2.5-6.17-3.67-4.16-2.34-6.26-3.47-4.22-2.21-6.37-3.22a202.08,202.08,0,0,0-26.26-10.73,157.27,157.27,0,0,0-55.2-8.18,140.4,140.4,0,0,0-53.9,13.59c-17,8.1-32.6,19.15-47.22,31.67a157,157,0,0,1,44.36-37.27l1.59-.92,1.65-.81,3.31-1.61c2.22-1.05,4.4-2.21,6.72-3l6.88-2.68c2.34-.77,4.72-1.45,7.07-2.18a128.36,128.36,0,0,1,29.2-4.74,141.36,141.36,0,0,1,57.68,10.28,166.87,166.87,0,0,1,26,13.21c4.09,2.61,8.13,5.3,12,8.26A111.23,111.23,0,0,1,1102.27,514.41Z"/></g><g id="ligth_antenas_15" data-name="ligth_antenas#15"><path class="cls-18" d="M677.63,320.67s-15.14-63.62-40.36-92.45S533.33,181.5,533.33,181.5s-23.21-10.94-13.11-17.9,112,33.8,125.12,54.68S685.7,297.8,685.7,320.67"/><path class="cls-19" d="M971.15,181.76s-60.25,14.43-82.08,45c-21.46,30-39.38,98.51-40,100.86h0a1.45,1.45,0,0,1-2.18.92l-2-1.26a1.81,1.81,0,0,1-1.62-2v0C846.83,298.47,872.46,237,884.18,215c12-22.51,91.93-60.95,98.65-52.41S971.15,181.76,971.15,181.76Z"/><path class="cls-19" d="M685.11,320.5c2.83-22.69-27.25-81.52-40.37-102.39s-115-61.63-125.12-54.67,13.12,17.89,13.12,17.89,78.7,17.89,103.93,46.72S677,320.5,677,320.5,684.12,328.41,685.11,320.5Z"/></g><g id="smile2_mouth_13" data-name="smile2_mouth#13"><path class="cls-20" d="M720.34,926.86s51.83,28.72,117,0"/><path class="cls-20" d="M710.72,929s13.33,2.71,11.11-11.38"/><path class="cls-20" d="M847.59,929.94s-13.36,2.71-11.13-11.38"/></g></g></svg>