<?xml version="1.0" encoding="UTF-8"?><svg id="Layer_1" xmlns="http://www.w3.org/2000/svg" viewBox="0 0 1500 1500"><defs><style>.cls-1{stroke-width:5px;}.cls-1,.cls-2,.cls-3,.cls-4,.cls-5,.cls-6,.cls-7,.cls-8,.cls-9,.cls-10,.cls-11,.cls-12,.cls-13,.cls-14,.cls-15,.cls-16,.cls-17,.cls-18,.cls-19,.cls-20,.cls-21,.cls-22,.cls-23{stroke-miterlimit:10;}.cls-1,.cls-2,.cls-3,.cls-5,.cls-7,.cls-8,.cls-9,.cls-10,.cls-12,.cls-14,.cls-15,.cls-16,.cls-17,.cls-18,.cls-19,.cls-20,.cls-21,.cls-22,.cls-23{stroke:#000;}.cls-1,.cls-24,.cls-10,.cls-11,.cls-16,.cls-18{fill:#fff;}.cls-2,.cls-3,.cls-17,.cls-18{stroke-width:3px;}.cls-2,.cls-9,.cls-14,.cls-23{fill:none;}.cls-25{fill:#045ba3;}.cls-26{fill:#0075e7;}.cls-27,.cls-21{fill:#cfb8d1;}.cls-28,.cls-13{fill:#9b869d;}.cls-4{fill:#ffe7ff;stroke:#ffe7ff;}.cls-4,.cls-9{stroke-linecap:round;}.cls-5,.cls-6{fill:#bfbfbf;}.cls-5,.cls-6,.cls-7,.cls-8,.cls-9,.cls-10,.cls-14{stroke-width:8px;}.cls-6{stroke:#bfbfbf;}.cls-7{fill:#a24400;}.cls-8{fill:#4e4f4c;}.cls-11{stroke:#fff;}.cls-12{fill:#a0c4ff;}.cls-13{stroke:#9b869d;}.cls-29{opacity:.19;}.cls-29,.cls-30{fill:#ccc;}.cls-15{fill:#ea8553;}.cls-15,.cls-16,.cls-19,.cls-20,.cls-21,.cls-22{stroke-width:6px;}.cls-17{fill:#823646;}.cls-19{fill:#1b56db;}.cls-20{fill:#54e854;}.cls-22{fill:#f71616;}.cls-23{stroke-width:9px;}.cls-30{opacity:.59;}</style></defs><rect class="cls-12" width="1500" height="1500"/><path class="cls-27" d="m847.56,865.78h159.62c49.49,0,89.66,40.18,89.66,89.66v211.68h-180.56c-54.84,0-99.36-44.52-99.36-99.36v-171.36c0-16.91,13.73-30.64,30.64-30.64Z" transform="translate(1973.34 59.57) rotate(90)"/><path class="cls-28" d="m885.9,929.81c71.02,10.29,148.16,59.87,157.33,136.17,2.55,20.46-.09,41.69-6.87,60.99,1.33-17.29,1.43-34.15-1.5-51.07-12.17-75.35-83.42-119.34-148.97-146.1h0Z"/><path class="cls-28" d="m904.93,898.68c80.58,11.87,168.34,72.73,167.84,161.55.04,10.22-1.23,20.5-3.54,30.42-.46-14.5-1.74-28.51-5.09-42.38-17.55-76.72-91.06-121.38-159.21-149.59h0Z"/><path class="cls-13" d="m957.68,883.98s112.42,24.21,133.17,143.55c0,0,12.07-108.89,0-115.88-32.86-19.02,31.59-26.81-133.17-27.67Z"/><path class="cls-13" d="m915.31,933.27c-5.19-17.29,13.84-20.75,19.02-19.02,5.19,1.73,8.65-8.65,8.65-8.65,0,0,1.19-10.93,18.16-14.7,15.57-3.46,22.48,1.73,22.48,1.73,0,0-52.22-21.62-67.45-3.46-15.23,18.16-34.33,25.91-34.33,25.91l23.09,26.63,10.38-8.44Z"/><path class="cls-14" d="m848.41,866.33h159.62c49.49,0,89.66,40.18,89.66,89.66v211.68h-180.56c-54.84,0-99.36-44.52-99.36-99.36v-171.36c0-16.91,13.73-30.64,30.64-30.64Z" transform="translate(1974.73 59.27) rotate(90)"/><path class="cls-27" d="m588.43,962.68s-293.18,260.13-92.2,347.78c0,0,479.03,40.8,533.44-9.07,54.4-49.87,37.78-210.05-129.96-364.19-167.74-154.14-311.28,25.48-311.28,25.48Z"/><path class="cls-28" d="m432.78,1177.13s20.75-22.48,32.86,1.73c8.95,17.9,16.95,58.48,20.52,78.43.69,3.88-3.71,6.62-6.88,4.26-10.11-7.53-27.31-18.1-43.05-16.97-24.21,1.73-3.46-67.45-3.46-67.45Z"/><path class="cls-28" d="m495.04,1293.01s361.31,16.11,374.36,14.97c13.05-1.14-5.16,21.31-28.05,19.6-22.89-1.71-340.46-15.25-345.11-17.13-4.65-1.88-1.19-17.44-1.19-17.44Z"/><path class="cls-28" d="m806.35,933.27s166.03,131.44,186.79,359.74c0,0,49.08,38.91,64.32-49.73,0,0,23.99-150.08-175.82-323.44-199.81-173.36,0,0,0,0l-75.28,13.43Z"/><path class="cls-28" d="m634.26,930.68s31.13,1.73,43.24,29.4c12.11,27.67,110.69,53.61,157.38,27.67,46.7-25.94,65.72-12.11,65.72-12.11l-43.24-44.97-223.1-13.36v13.36Z"/><path class="cls-14" d="m589.65,963.49s-293.18,260.13-92.2,347.78c0,0,479.03,40.8,533.44-9.07,54.4-49.87,37.78-210.05-129.96-364.19-167.74-154.14-311.28,25.48-311.28,25.48Z"/><path class="cls-27" d="m511.4,1312.06c-4.57-8.46-126.5-1.5-176.36,11.89-49.85,13.39-49.1-25.27-49.1-25.27l-11.91-70.57s-14.08-55.59,20.92-60.66c35-5.07,38.02,45.24,42.68,71.7,4.66,26.45,37.86,17.04,37.86,17.04l90.14-13.32"/><path class="cls-28" d="m341.11,1315.49s81.09-35.48,163.34-22.07l3.77,16.92-167.11,5.15Z"/><path class="cls-4" d="m270.2,1215.18s4.63-41.43,14.42-44.06c9.79-2.63-12.69,37.15,23.63,139.19,0,0,9.05,15.53,3.66,17.28s-27.88,6.93-34.79-55.33c-6.92-62.26-6.92-57.07-6.92-57.07Z"/><path class="cls-28" d="m320.36,1185.78s-10.38-34.59-12.11-12.11c0,0,8.65,74.37,24.21,91.66,17.62,19.58,83.02-8.65,83.02-8.65,0,0-67.45,5.19-72.64-3.46s-22.48-67.45-22.48-67.45Z"/><path class="cls-9" d="m462.18,1244.58l-87.19,12.41s-33.21,9.42-37.86-17.04c-4.66-26.45-7.68-76.77-42.68-71.7-35,5.07-20.92,60.66-20.92,60.66l11.91,70.57s-.75,38.66,49.1,25.27c49.85-13.39,171.78-20.35,176.36-11.89"/><path class="cls-27" d="m849.78,1323.61s76.28,12.71,94.07,25.43c17.8,12.71,71.19,0,68.65-12.71-2.54-12.71,50.85-172.89-53.39-124.59,0,0-27.97,30.51-22.88,76.28"/><path class="cls-4" d="m933.46,1283.5s12.83-68.61,25.01-68.46c6.55.08,40.71-9.36,28.61-4.17-7.37,3.16-18.82,37.84-21.62,51.02-4.1,19.31-3.4,40.71-7.78,44.1s-13.84-11.24-24.21-22.48Z"/><path class="cls-28" d="m968.92,1350.08c4.16,1.04,2.43-19.81,2.82-24.08l7.56-83.15s11.75-58.12,39.78-13.84c1.24,1.97.33-5.73.79-3.45,2.72,13.21,9.98,62.18-18.09,112.41,0,0-11.39,28.38-97.36-2.24,0,0-46.19-2.95-46.19-16.79,0-4.9,12.11-10.38,12.11-10.38,0,0,51.63,2.45,55.34,8.65,5.19,8.65,4.63,13.05,20.75,17.29,9.37,2.47,8.65,12.11,22.48,15.57Z"/><path class="cls-9" d="m854.77,1325.87s70.88,10.05,88.68,22.76c17.8,12.71,63.95-.63,68.65-12.71,5.25-13.51,41.79-145.54-29.14-132.78-16.71,3-30.65,14.36-37.86,29.73-6.25,13.32-11.78,32.18-9.27,54.75"/><path class="cls-27" d="m1183.28,522.06c-.97,17.16-3.33,33.94-6.89,50.29-31.32,143.2-148.08,240.25-234.25,300.84-34.58,24.28-64.25,42.74-81.49,55.91-4.55,3.48-8.24,6.59-10.93,9.36-43.02,44.24-87.24,43.35-121.43,30.61-14.31-5.34-26.87-12.76-36.84-19.78-5.82-4.12-10.75-8.09-14.67-11.47-7.22-6.23-15.56-11.06-24.64-14.11-52.58-17.77-232.97-88.53-284.92-237.88-18.99-54.64-26.19-102.19-27.05-141.75-.31-15.54.33-29.88,1.58-42.89,7.35-39.08,30.66-75.44,66.08-106.74,75.36-66.67,205.54-110.7,353.49-110.7,47.24,0,92.65,4.5,135.06,12.76,163.84,31.99,282.63,120.57,286.9,225.55Z"/><path class="cls-28" d="m807.05,285.17s632.29,212.27-26.65,675.77c0,0-37.95,3.77-18.11,15.72,19.84,11.95,90.22-40.88,90.22-40.88,0,0,202.52-141.47,206.16-159.33,3.64-17.86,200.8-175.24,88.38-351.65,0,0-138.67-142.63-340-139.63Z"/><path class="cls-27" d="m625.26,1032.3s0,166.03-5.92,204.08c-5.92,38.05-17.75-6.92-17.75-6.92,0,0-16.76,76.1-30.56,6.92-13.8-69.18,17.75-204.08,17.75-204.08,0,0-9.13-14.62-20.53,11.32"/><path d="m625.26,1032.3c1.4,41.23,1.82,82.48,1.43,123.72-.44,25.84-.54,51.76-3.27,77.58-.81,6.28-1.44,12.73-4.7,18.36-1.31,2.24-4.48,4.29-7.38,3.32-4.6-1.58-6.29-5.91-8.19-9.63-2.26-5.05-3.87-9.99-5.33-15.19,0,0,7.61-.15,7.61-.15-2.54,10.2-7.95,33.38-17.62,38.27-10.81,4.38-15.18-10.69-17.46-18.21-1.63-5.71-2.89-11.7-3.85-17.55-3.36-20.48-2.91-41.45-1.73-62.06,1.5-23.46,4.61-46.76,8.54-69.91,3.99-23.11,8.73-46.06,14.54-68.76l.12.73c-1.17-1.84-3.09-3.52-5.26-3.83-2.2-.32-4.43.86-6.22,2.44-3.62,3.32-6.06,7.81-8.23,12.2.94-2.3,1.95-4.59,3.15-6.79,3.86-7.54,11.37-13.96,18.19-5.05,0,0,.21.29.21.29l-.09.44c-2.24,11.45-4.32,22.95-6.19,34.48-7.61,48.68-14.63,98.15-11.46,147.49.67,8.52,1.79,17.12,3.7,25.45,1.25,5.57,2.73,11.13,4.82,16.05.79,1.84,2.12,4.39,3.49,5.36.21.15.23.11.18.1-.05-.02-.09.04.1-.05.37-.18,1.17-.84,1.85-1.76,3.04-4.07,5.13-9.61,6.88-14.58,3.25-9.04,5.96-22.1,8.21-31.55,0,0,4.08,14.95,4.08,14.95,1.29,4.73,2.87,9.61,4.81,13.98.82,1.8,1.96,4.08,3.18,5.32.2.21.36.23.02.11-.15-.03-.47-.09-.74-.02-.58.06-.81.55-.34-.09,1.82-3.21,2.54-7.57,3.25-11.41.95-6.24,1.53-12.51,2.08-18.88.74-8.84,1.38-21.74,1.88-30.74,2.33-47.2,3.96-106.86,5.75-154.42h0Z"/><path class="cls-27" d="m881.68,1037.01c-15.69-25.94-28.26-11.32-28.26-11.32,0,0,43.43,134.9,24.43,204.08-19,69.18-42.07-6.92-42.07-6.92,0,0-16.29,44.97-24.43,6.92-8.14-38.05-8.14-204.08-8.14-204.08"/><path d="m881.68,1037.01c-5.65-8.96-17.37-20.89-27.32-10.51,0,0,.24-1.19.24-1.19,11.65,34.29,20.79,69.47,26.77,105.22,4.58,28.49,7.53,57.72,3.56,86.54-.28,1.41-.94,5.5-1.21,6.89-.33,1.56-1.27,5.27-1.62,6.85-2.95,10.01-6.71,24-15.67,30.36-16.3,9.67-27.16-16.59-31.78-28.21-1.11-2.91-2.12-5.76-3.07-8.83l8.34.22c-1,2.66-2.05,5.09-3.22,7.59-2.98,5.92-6.03,12.41-11.92,16.13-7.82,4.33-13.34-2.82-15.41-9.59-1.78-4.62-2.6-11.31-3.4-16.16-3.81-34.11-3.95-68.2-4.25-102.37-.13-31.43.32-62.86,1.49-94.27,0,0,2.53,62.77,2.53,62.77,1.7,38.93,3.21,82.54,6.89,121.22.67,5.94,1.58,13.07,2.75,18.96.77,3.52,1.69,6.97,3.28,10.04.55.99,1.1,1.78,1.62,2.08-.04-.02-.18-.03-.17-.02,2.25-1.14,3.63-3.51,5.25-5.99,4.28-6.86,7.82-17.62,10.76-25.28,0,0,3.88,12.1,3.88,12.1,3.26,9.61,9.32,26.42,17.7,32.12,4.51,2.89,8.48-5.46,10.23-8.92,13.09-29.46,11.6-63.91,8.62-95.42-4.35-41.69-13.25-82.88-24.29-123.29,0,0-.21-.73-.21-.73,1.31-1.39,2.8-2.53,4.44-3.31,11.19-5.34,20.47,6.18,25.2,14.98h0Z"/><path class="cls-23" d="m1183.89,521.45c-.97,17.16-3.33,33.94-6.89,50.29-31.32,143.2-148.08,240.25-234.25,300.84-34.58,24.28-64.25,42.74-81.49,55.91-4.55,3.48-8.24,6.59-10.93,9.36-43.02,44.24-87.24,43.35-121.43,30.61-14.31-5.34-26.87-12.76-36.84-19.78-5.82-4.12-10.75-8.09-14.67-11.47-7.22-6.23-15.56-11.06-24.64-14.11-52.58-17.77-232.97-88.53-284.92-237.88-18.99-54.64-26.19-102.19-27.05-141.75-.31-15.54.33-29.88,1.58-42.89,7.35-39.08,30.66-75.44,66.08-106.74,75.36-66.67,205.54-110.7,353.49-110.7,47.24,0,92.65,4.5,135.06,12.76,163.84,31.99,282.63,120.57,286.9,225.55Z"/><circle class="cls-10" cx="498.04" cy="705.41" r="171.77"/><circle class="cls-10" cx="962.04" cy="694.67" r="166.01"/><ellipse class="cls-26" cx="523.1" cy="705.28" rx="129.68" ry="137.64" transform="translate(-202.8 1199.37) rotate(-87.68)"/><ellipse class="cls-26" cx="937.91" cy="692.59" rx="125.33" ry="133.03" transform="translate(207.89 1601.67) rotate(-87.68)"/><ellipse class="cls-25" cx="540.14" cy="706.12" rx="113.6" ry="120.58" transform="translate(-187.29 1217.21) rotate(-87.68)"/><ellipse class="cls-25" cx="921.45" cy="691.54" rx="109.79" ry="116.54" transform="translate(193.15 1584.21) rotate(-87.68)"/><circle cx="559.51" cy="705.62" r="103.52"/><circle cx="904.91" cy="692.35" r="100.05"/><path d="m403.31,499.61c35.41-35.75,90.66-52.48,139.54-38.45,18.99,5.29,36.81,14.86,51.87,27.13-28.16-15.3-58.88-25.27-90.96-24.12-35.94,1.26-71,15.01-100.45,35.44h0Z"/><circle class="cls-11" cx="602.02" cy="655.54" r="32.31"/><circle class="cls-11" cx="1006.26" cy="662.35" r="31.88"/><ellipse class="cls-11" cx="461.8" cy="765.21" rx="11.17" ry="32.99" transform="translate(-321.5 1195.63) rotate(-87.68)"/><ellipse class="cls-11" cx="879.81" cy="760.66" rx="10.8" ry="31.88" transform="translate(84.14 1608.93) rotate(-87.68)"/><path d="m1051.91,493.44c-28.84-19.24-63.47-32.36-98.36-30.97-35.36,1.28-67.08,19.29-93.45,42.31,11.14-13.97,24.93-26.05,40.75-35.12,49.06-28.57,111.5-14.57,151.07,23.77h0Z"/><path class="cls-3" d="m700.99,848.46c4.35,0,14.85,12.37,14.85,12.37l71.36.77,17.99-10.16"/><path class="cls-17" d="m812.92,904.1c0,4.42-3.76,8.53-10.21,11.98h-.03c-11.42,6.14-31.36,10.18-54.04,10.18-35.49,0-64.27-9.92-64.27-22.16-10.08-22.16,42.85-49.86,42.85-49.86h60.49s-4.85,14.96,13.13,36.94c6.33,7.96,12.07,8.09,12.07,12.92Z"/><path class="cls-2" d="m689.41,843.02s40.33,24.32,120.99,7.48"/><path class="cls-2" d="m830.56,859.85s-27.73-5.61-25.21-16.84"/><path class="cls-18" d="m681.85,846.76s15.12-3.74,10.08-9.35"/><path class="cls-17" d="m748,856.44s-18.27,37.09-.62,44.57"/><path class="cls-1" d="m976.84,171.03s-67.22,16.1-91.57,50.19c-23.95,33.51-43.93,109.9-44.6,112.52-.02.05-.02.07-.02.07l-6.67-.66c.07-.67.15-1.36.24-2.07,3.93-29.86,32.52-98.46,45.59-122.98,13.38-25.11,102.56-67.99,110.05-58.46,7.48,9.53-13.02,21.38-13.02,21.38Z"/><path class="cls-1" d="m663.31,333.33s-14.67-61.66-39.12-89.6c-24.45-27.94-100.73-45.28-100.73-45.28,0,0-22.49-10.6-12.71-17.34,9.78-6.74,108.55,32.76,121.27,52.99,12.71,20.23,39.12,77.07,39.12,99.23"/><path class="cls-21" d="m976.09,170.82s-67.22,16.1-91.57,50.19c-23.95,33.51-43.93,109.9-44.6,112.52-.02.05-.02.07-.02.07l-6.67-.66c.07-.67.15-1.36.24-2.07,3.93-29.86,32.52-98.46,45.59-122.98,13.38-25.11,102.56-67.99,110.05-58.46,7.48,9.53-13.02,21.38-13.02,21.38Z"/><path class="cls-21" d="m662.74,333.17s-14.67-61.66-39.12-89.6c-24.45-27.94-100.73-45.28-100.73-45.28,0,0-22.49-10.6-12.71-17.34,9.78-6.74,108.55,32.76,121.27,52.99,12.71,20.23,39.12,77.07,39.12,99.23"/><path class="cls-16" d="m607.16,942.16s-157.38,145.28-171.22,228.29c0,0,377.03,84.75,608.78-8.65,0,0,1.12-55.55-78.13-155.76l-61.67-64.33s-102.33,83.46-297.76.44Z"/><path class="cls-15" d="m607.32,943.55s-6.15-21.46,21.22-24.4c0,0,49.85,14.36,61.96,31.66,12.11,17.29,102.04,48.43,152.2-3.46,0,0,25.31-26.27,36-30.43,0,0,38.95-8.3,23.09,26.63,0,0-116.17,128.32-290.85,2.07l-3.62-2.07Z"/><path class="cls-15" d="m508.58,1182.56l39.78-110.69-24.01-43.68s-74.58,88.65-91.87,149.18l76.1,5.19Z"/><path class="cls-15" d="m957.68,1187.19s-14.22-96.1-36.23-118.68l41.99-55.45,5.66-3.82s58.77,70.86,79.3,147.17c0,0-46.34,26.77-90.73,30.78Z"/><path class="cls-15" d="m531.65,1041.47s80.7-87.2,87.62-90.66"/><line class="cls-15" x1="945.47" y1="1036.8" x2="881.84" y2="960.92"/><polygon class="cls-15" points="755.9 1182.56 657.32 1177.37 671.16 1054.58 766.28 1059.77 755.9 1182.56"/><circle class="cls-19" cx="697.1" cy="1087.44" r="15.57"/><circle class="cls-22" cx="741.2" cy="1091.76" r="11.24"/><polygon class="cls-20" points="690.18 1163.53 674.62 1163.53 678.07 1123.76 693.64 1125.49 690.18 1163.53"/><line class="cls-15" x1="709.2" y1="1132.4" x2="742.07" y2="1132.4"/><line class="cls-15" x1="705.75" y1="1147.97" x2="740.34" y2="1149.7"/><line class="cls-15" x1="703.37" y1="1163.87" x2="738.61" y2="1165.26"/><path class="cls-24" d="m623.5,1031.82s0,166.03-5.92,204.08c-5.92,38.05-17.75-6.92-17.75-6.92,0,0-16.76,76.1-30.56,6.92-13.8-69.18,17.75-204.08,17.75-204.08,0,0-9.13-14.62-20.53,11.32"/><path d="m623.5,1031.82c1.4,41.23,1.82,82.48,1.43,123.72-.44,25.84-.54,51.76-3.27,77.58-.81,6.28-1.44,12.73-4.7,18.36-1.31,2.24-4.48,4.29-7.38,3.32-4.6-1.58-6.29-5.91-8.19-9.63-2.26-5.05-3.87-9.99-5.33-15.19,0,0,7.61-.15,7.61-.15-2.54,10.2-7.95,33.38-17.62,38.27-10.81,4.38-15.18-10.69-17.46-18.21-1.63-5.71-2.89-11.7-3.85-17.55-3.36-20.48-2.91-41.45-1.73-62.06,1.5-23.46,4.61-46.76,8.54-69.91,3.99-23.11,8.73-46.06,14.54-68.76,0,0,.12.73.12.73-1.17-1.84-3.09-3.52-5.26-3.83-2.2-.32-4.43.86-6.22,2.44-3.63,3.32-6.06,7.81-8.23,12.2.94-2.31,1.95-4.59,3.15-6.79,3.86-7.54,11.37-13.96,18.19-5.05,0,0,.21.29.21.29l-.09.44c-2.24,11.45-4.32,22.95-6.19,34.48-7.61,48.68-14.63,98.15-11.46,147.49.67,8.52,1.79,17.12,3.7,25.45,1.25,5.57,2.73,11.13,4.82,16.05.79,1.84,2.12,4.39,3.49,5.36.21.15.23.11.18.1-.05-.02-.09.04.1-.05.37-.18,1.17-.84,1.85-1.76,3.04-4.07,5.13-9.61,6.88-14.58,3.25-9.04,5.96-22.1,8.21-31.55,0,0,4.08,14.95,4.08,14.95,1.29,4.73,2.87,9.61,4.81,13.98.82,1.8,1.96,4.08,3.18,5.32.2.21.36.23.02.11-.15-.03-.47-.09-.74-.02-.58.06-.81.55-.34-.09,1.82-3.21,2.54-7.57,3.25-11.41.95-6.24,1.53-12.51,2.08-18.88.74-8.84,1.38-21.74,1.88-30.74,2.33-47.2,3.96-106.86,5.75-154.42h0Z"/><path class="cls-24" d="m879.92,1036.53c-15.69-25.94-28.26-11.32-28.26-11.32,0,0,43.43,134.9,24.43,204.08-19,69.18-42.07-6.92-42.07-6.92,0,0-16.29,44.97-24.43,6.92-8.14-38.05-8.14-204.08-8.14-204.08"/><path d="m879.92,1036.53c-5.65-8.96-17.37-20.89-27.32-10.51,0,0,.24-1.19.24-1.19,11.65,34.29,20.79,69.47,26.77,105.22,4.58,28.49,7.53,57.72,3.56,86.54-.28,1.41-.94,5.5-1.21,6.89-.33,1.56-1.27,5.27-1.62,6.85-2.95,10.01-6.71,24-15.67,30.36-16.3,9.67-27.16-16.59-31.78-28.21-1.11-2.91-2.12-5.76-3.07-8.83l8.34.22c-1,2.66-2.05,5.09-3.22,7.59-2.98,5.92-6.03,12.41-11.92,16.13-7.82,4.33-13.34-2.82-15.41-9.59-1.78-4.62-2.6-11.31-3.4-16.16-3.81-34.12-3.95-68.2-4.25-102.37-.13-31.43.32-62.86,1.49-94.27,0,0,2.53,62.77,2.53,62.77,1.7,38.93,3.21,82.54,6.89,121.22.67,5.94,1.58,13.07,2.75,18.96.77,3.52,1.69,6.97,3.28,10.04.55.99,1.1,1.78,1.62,2.08-.04-.02-.18-.03-.17-.02,2.25-1.14,3.63-3.51,5.25-5.99,4.28-6.86,7.82-17.62,10.76-25.28,0,0,3.88,12.1,3.88,12.1,3.26,9.61,9.32,26.42,17.7,32.12,4.51,2.89,8.48-5.46,10.23-8.92,13.09-29.46,11.6-63.91,8.62-95.42-4.35-41.69-13.25-82.88-24.29-123.29,0,0-.21-.73-.21-.73,1.31-1.39,2.8-2.53,4.44-3.31,11.19-5.35,20.47,6.18,25.2,14.98h0Z"/><path class="cls-15" d="m645.21,1035.55c0,22.92-18.58,41.51-41.51,41.51-16.91,0-31.47-10.12-37.93-24.63-.5-1.12-.95-2.26-1.35-3.43-1.44-4.22-2.23-8.74-2.23-13.45,0-22.92,18.58-41.51,41.51-41.51s41.51,18.58,41.51,41.51Z"/><path class="cls-15" d="m875.24,1046.64c0,24.39-19.77,44.15-44.15,44.15-17.99,0-33.47-10.76-40.35-26.2-.53-1.19-1.01-2.4-1.43-3.64-1.54-4.49-2.37-9.3-2.37-14.31,0-24.39,19.77-44.15,44.15-44.15s44.15,19.77,44.15,44.15Z"/><line class="cls-15" x1="619.27" y1="994.04" x2="641.45" y2="965.5"/><line class="cls-15" x1="846.54" y1="1005.27" x2="846.54" y2="982.17"/><path class="cls-10" d="m1119.23,480.15c-12.64-15.5-39.33-27.05-75.27-35.47-41.97-11.62-99.53-18.14-163.07-21.17.17-.55.36-1.09.55-1.63,41.51-114.15-30.47-179.85-30.47-179.85-159.72-10.81-333.65,9.46-445.15,60.5-65.89,30.16-108.59,95.45-110,167.9-2.53,130.72,3.65,355.29,130.27,427.46,4.15,2.37,8.87,3.49,13.13,5.69,39.07,20.2,246.54,119.27,461.39,65.93l60.79-50.47c11.4-4.76,22.07-10.5,31.86-16.71.02-.02.05-.03.09-.05,157.09-86.49,192.49-340.4,125.89-422.14Zm-92.79,397.06s-.07.05-.1.09c-16.81,13.7-35.4,25.32-55.85,34.19-17.14,7.47-35.58,13.01-55.33,16.27-9.29,1.54-18.52,2.91-27.69,4.12-82.62,11-159.75,9.58-222.69,3.87-2.21-.21-4.41-.42-6.59-.64-6.23-.59-12.3-1.23-18.21-1.9-44.69-5.08-80.51-12-103.67-17.17-.02-.02-.03-.02-.05-.02-18.82-4.22-29.26-7.28-29.26-7.28,0,0-3.68-.85-9.98-3.08-.03-.02-.07-.03-.09-.03-.05-.02-.07-.02-.07-.02,0,0-.02,0-.05-.02-19.91-7.04-65.39-27.67-103.91-78.26-41.09-53.91-74.26-141.87-60.13-283.69.81-8.27,3.53-16.24,7.83-23.31,12.3-20.17,15.93-50.88,71.27-69.91,7.64-2.63,34.33-6.5,73.19-10.46,33.92-3.46,77.12-6.99,125.01-9.79,83.79-4.93,181.96-7.64,269.91-4.03,25.89,1.07,50.9,2.68,74.39,4.96.99.09,1.97.19,2.96.28,38.38,3.84,72.6,9.44,99.91,17.31.07.03.14.05.21.07,27.4,7.9,47.79,18.11,58.34,31.06,61.09,74.96,36.37,294.78-89.35,397.39Z"/><path class="cls-8" d="m338.38,658.82l20.75-50.16s-10.38-89.93-10.38-95.12-22.48,27.67-10.38,145.28Z"/><path class="cls-8" d="m435.23,866.36s55.34,17.29,108.96,6.92l108.96,46.7s22.48,6.92,24.21,12.11-162.57,3.46-242.13-65.72Z"/><path class="cls-8" d="m1026.44,877.21s-.07.05-.1.09c-9.37,8.35-20.46,17.05-33,24.99-.03.02-.07.03-.09.05-9.79,6.21-20.46,11.95-31.86,16.71-21.1,8.82-44.69,14.29-69.89,13.09-1.33-.05-2.68-.14-4.03-.26-5.55-.4-11.17-1.14-16.85-2.25-1.57-.31-3.17-.64-4.76-1l61.85-42.74,33.28-22.98s18.75,0,40.26-3.06c14.35-2.04,29.95-5.45,42.01-11.12,3.67-1.73,7.02-3.67,9.89-5.85,1.06-.78,2.04-1.61,2.96-2.46,10.77-10.01-1.76,11.86-29.68,36.79Z"/><path class="cls-29" d="m486.08,435.72l-94.91,398.93c-44.78-52.75-83.59-142.75-68.52-294.15.81-8.25,3.53-16.22,7.85-23.31,12.28-20.17,15.91-50.86,71.26-69.89,8.35-2.87,39.47-7.23,84.33-11.57Z"/><path class="cls-29" d="m1048.25,843.2c-1.64,1.87-3.3,3.7-4.98,5.52-4.32,4.67-8.8,9.17-13.44,13.52-7.66,7.18-15.74,13.91-24.23,20.11l-.09.05c-28.62,20.89-62.07,35.87-100.48,42.22-11.55,1.92-23.04,3.56-34.4,5-74.33,9.32-144,8.68-202.58,4.12-63.89-5-114.6-14.68-143.76-21.27-3.56-.81-6.81-1.57-9.72-2.27-.19-.05-.36-.09-.52-.14-10.1-2.44-16-4.12-17.04-4.41-.03-.02-.07-.03-.09-.03l.21-.85.43-1.82,6.28-26.39,106.1-445.88.12-.52.9-3.77c39.12-2.18,81.04-3.84,123.4-4.6,30.59-.55,61.4-.62,91.52-.07,18.66.33,37.06.92,54.98,1.78,63.54,3.03,121.1,9.55,163.07,21.17,4.62,1.28,9.05,2.61,13.28,4.01.07.03.14.05.21.07,22.29,7.42,39,16.64,48.2,27.93,55.5,68.11,40.16,255.81-57.4,366.51Z"/><path class="cls-30" d="m610.98,426.4l-114.04,479.23c-.05-.02-.07-.02-.07-.02,0,0-56.47-12.95-105.71-70.96l94.91-398.93h.02c34.76-3.36,77.79-6.71,124.89-9.32Z"/><path class="cls-7" d="m825.91,421.72s-81.85-146.2-11.92-179.71l-147.01,6.92s65.72,129.71-24.21,172.95"/><path class="cls-6" d="m1100.76,862.07c-5.88,7.96-12.8,15.08-20.65,21.08-58.02,44.28-119.06,71.34-179.5,86.35l60.79-50.47c11.4-4.76,22.07-10.5,31.86-16.71.02-.02.05-.03.09-.05,157.09-86.49,192.49-340.4,125.89-422.14-12.64-15.5-39.33-27.05-75.27-35.47-41.97-11.62-99.53-18.14-163.07-21.17.17-.55.36-1.09.55-1.63,41.51-114.15-30.47-179.85-30.47-179.85,176.15,11.92,290.92,36.56,329.68,124.51,78.83,178.88-38.76,440-79.89,495.53Z"/><path class="cls-14" d="m1180.64,366.54c-38.76-87.94-153.89-113.25-330.04-125.16-159.72-10.81-333.65,9.46-445.15,60.5-65.89,30.16-108.6,95.45-110,167.9-2.53,130.72,3.65,355.29,130.27,427.46,4.15,2.37,8.87,3.49,13.13,5.69,39.07,20.2,246.54,119.27,461.39,65.93,60.45-15.01,121.48-42.08,179.5-86.35,7.85-6,14.77-13.13,20.65-21.08,41.13-55.53,159.08-316,80.25-494.88Zm-293.53,564.68c-82.62,11-159.75,9.58-222.69,3.87-2.21-.21-4.41-.42-6.59-.64-6.23-.59-12.3-1.23-18.21-1.9-44.69-5.08-80.51-12-103.67-17.17-.02-.02-.03-.02-.05-.02-18.82-4.22-29.26-7.28-29.26-7.28,0,0-3.68-.85-9.98-3.08-.03-.02-.07-.03-.09-.03-.05-.02-.07-.02-.07-.02,0,0-.02,0-.05-.02-19.91-7.04-65.39-27.67-103.91-78.26-41.09-53.91-74.26-141.87-60.13-283.69.81-8.27,3.53-16.24,7.83-23.31,12.3-20.17,15.93-50.88,71.27-69.91,7.64-2.63,34.33-6.5,73.19-10.46,33.92-3.46,77.12-6.99,125.01-9.79,83.79-4.93,181.96-7.64,269.9-4.03,25.89,1.07,50.9,2.68,74.39,4.96.99.09,1.97.19,2.96.28,38.38,3.84,72.6,9.44,99.91,17.31.07.03.14.05.21.07,27.4,7.9,47.79,18.11,58.34,31.06,61.09,74.96,36.37,294.78-89.35,397.39-.03.03-.07.05-.1.09-16.81,13.7-35.4,25.32-55.85,34.19-17.14,7.47-35.58,13.01-55.33,16.27-9.29,1.54-18.52,2.91-27.69,4.12Z"/><path class="cls-5" d="m1199.67,591.37l41.51,34.59-41.51,155.65h-62.26s32.86-162.57,62.26-190.24Z"/><path class="cls-10" d="m288.22,586.18l-29.4,34.59s24.21,160.84,57.07,186.79l31.07,4.68s-69.12-168.98-58.74-226.06Z"/><path class="cls-21" d="m974.34,168.43s-67.22,16.1-91.57,50.19c-23.95,33.51-43.93,109.9-44.6,112.52-.02.05-.02.07-.02.07l-6.67-.66c.07-.67.15-1.36.24-2.07,3.93-29.86,32.52-98.46,45.59-122.98,13.38-25.11,102.56-67.99,110.05-58.46,7.48,9.53-13.02,21.38-13.02,21.38Z"/><path class="cls-21" d="m660.99,330.79s-14.67-61.66-39.12-89.6c-24.45-27.94-100.73-45.28-100.73-45.28,0,0-22.49-10.6-12.71-17.34,9.78-6.74,108.55,32.76,121.27,52.99,12.71,20.23,39.12,77.07,39.12,99.23"/><ellipse class="cls-21" cx="662.66" cy="329.35" rx="14.7" ry="2.59"/><ellipse class="cls-21" cx="838.2" cy="334.54" rx="12.11" ry="2.59"/></svg>