<?xml version="1.0" encoding="UTF-8"?><svg id="Layer_1" xmlns="http://www.w3.org/2000/svg" xmlns:xlink="http://www.w3.org/1999/xlink" viewBox="0 0 1500 1500"><defs><style>.cls-1,.cls-2,.cls-3,.cls-4,.cls-5,.cls-6,.cls-7,.cls-8,.cls-9,.cls-10,.cls-11,.cls-12,.cls-13,.cls-14,.cls-15,.cls-16,.cls-17,.cls-18,.cls-19,.cls-20{stroke:#000;}.cls-1,.cls-2,.cls-4,.cls-7,.cls-8,.cls-9,.cls-21,.cls-12,.cls-22,.cls-23,.cls-14,.cls-24,.cls-16,.cls-17,.cls-18,.cls-19,.cls-20{stroke-miterlimit:10;}.cls-1,.cls-25,.cls-3,.cls-5,.cls-6,.cls-8,.cls-16,.cls-18{stroke-width:5px;}.cls-1,.cls-3,.cls-26,.cls-5,.cls-13,.cls-22,.cls-16{fill:#fff;}.cls-2{stroke-width:3px;}.cls-2,.cls-8,.cls-11,.cls-12,.cls-17,.cls-18,.cls-20{fill:none;}.cls-25{fill:#ff0303;stroke:#ff0303;}.cls-25,.cls-3,.cls-4,.cls-6,.cls-7,.cls-10,.cls-21,.cls-11,.cls-12,.cls-13,.cls-15,.cls-16,.cls-18{stroke-linecap:round;}.cls-25,.cls-3,.cls-5,.cls-6,.cls-10,.cls-11,.cls-13,.cls-15,.cls-27{stroke-linejoin:round;}.cls-4{stroke-width:7px;}.cls-28,.cls-27{fill:#bfbfbf;}.cls-29,.cls-19{fill:#cfb8d1;}.cls-30,.cls-24{fill:#9b869d;}.cls-7,.cls-9,.cls-10{fill:#ff002e;}.cls-7,.cls-9,.cls-10,.cls-15,.cls-20{stroke-width:9px;}.cls-21{fill:#ffe7ff;stroke:#ffe7ff;}.cls-11{stroke-width:2px;}.cls-12,.cls-13,.cls-17{stroke-width:8px;}.cls-31{fill:url(#radial-gradient-3);}.cls-32{fill:url(#radial-gradient-4);}.cls-33{fill:url(#radial-gradient-2);}.cls-22{stroke:#fff;}.cls-23{fill:#8f0023;stroke:#8f0023;}.cls-14{fill:#a0c4ff;}.cls-24{stroke:#9b869d;}.cls-34{fill:url(#radial-gradient);}.cls-19{stroke-width:6px;}.cls-27{stroke:#bfbfbf;stroke-width:4px;}</style><radialGradient id="radial-gradient" cx="574.93" cy="694.32" fx="574.93" fy="694.32" r="99.76" gradientTransform="translate(-10.31 6.12)" gradientUnits="userSpaceOnUse"><stop offset="0" stop-color="#ed1c24"/><stop offset="1" stop-color="#000"/></radialGradient><radialGradient id="radial-gradient-2" cx="907.78" cy="681.54" fx="907.78" fy="681.54" r="96.41" xlink:href="#radial-gradient"/><radialGradient id="radial-gradient-3" cx="579.49" cy="692.12" fx="579.49" fy="692.12" r="99.76" xlink:href="#radial-gradient"/><radialGradient id="radial-gradient-4" cx="912.34" cy="679.33" fx="912.34" fy="679.33" r="96.41" xlink:href="#radial-gradient"/></defs><rect class="cls-14" width="1500" height="1500"/><path class="cls-29" d="m842.57,859.64h150.35c49.49,0,89.66,40.18,89.66,89.66v201.7h-171.29c-54.84,0-99.36-44.52-99.36-99.36v-161.38c0-16.91,13.73-30.64,30.64-30.64Z" transform="translate(1952.58 58.07) rotate(90)"/><path class="cls-30" d="m878.63,921.56c68.82,9.7,143.51,57.74,152.29,131.63,2.44,19.8-.17,40.36-6.8,59,1.21-16.73,1.27-33.01-1.6-49.36-11.88-72.72-80.69-115.18-143.88-141.27h0Z"/><path class="cls-30" d="m897.03,891.46c78.04,11.17,163.08,70.23,162.39,156.19.01,9.89-1.25,19.83-3.53,29.42-.51-14.02-1.78-27.56-5.06-40.96-17.12-74.07-88.06-117.13-153.8-144.66h0Z"/><path class="cls-24" d="m948.03,877.24s108.69,23.41,128.76,138.79c0,0,11.67-105.28,0-112.04-31.77-18.39,30.54-25.92-128.76-26.76Z"/><path class="cls-24" d="m907.06,924.9c-5.02-16.72,13.38-20.07,18.39-18.39,5.02,1.67,8.36-8.36,8.36-8.36,0,0,1.15-10.57,17.56-14.21,15.05-3.34,21.74,1.67,21.74,1.67,0,0-50.49-20.9-65.22-3.34-14.73,17.56-33.2,25.06-33.2,25.06l22.33,25.75,10.03-8.16Z"/><path class="cls-17" d="m843.39,860.17h150.35c49.49,0,89.66,40.18,89.66,89.66v201.7h-171.29c-54.84,0-99.36-44.52-99.36-99.36v-161.38c0-16.91,13.73-30.64,30.64-30.64Z" transform="translate(1953.93 57.78) rotate(90)"/><path class="cls-29" d="m591.01,953.33s-283.47,251.52-89.15,336.26c0,0,463.17,39.45,515.77-8.77,52.6-48.22,36.53-203.09-125.65-352.13-162.18-149.03-300.97,24.63-300.97,24.63Z"/><path class="cls-30" d="m440.51,1160.68s20.07-21.74,31.77,1.67c8.65,17.31,16.39,56.55,19.84,75.83.67,3.75-3.59,6.4-6.65,4.12-9.78-7.29-26.41-17.5-41.62-16.41-23.41,1.67-3.34-65.22-3.34-65.22Z"/><path class="cls-30" d="m801.71,924.9s160.53,127.09,180.6,347.82c0,0,47.46,37.62,62.19-48.08,0,0,23.19-145.11-170-312.73-193.19-167.62,0,0,0,0l-72.79,12.98Z"/><path class="cls-30" d="m635.32,922.39s30.1,1.67,41.81,28.43c11.71,26.76,107.02,51.84,152.17,26.76,45.15-25.08,63.54-11.71,63.54-11.71l-41.81-43.48-215.72-12.92v12.92Z"/><path class="cls-17" d="m592.19,954.11s-283.47,251.52-89.15,336.26c0,0,463.17,39.45,515.77-8.77,52.6-48.22,36.53-203.09-125.65-352.13-162.18-149.03-300.97,24.63-300.97,24.63Z"/><path class="cls-29" d="m516.54,1291.14c-4.42-8.18-122.31-1.45-170.51,11.5-48.2,12.94-47.48-24.44-47.48-24.44l-11.51-68.24s-13.61-53.75,20.23-58.65c33.84-4.9,36.76,43.75,41.26,69.32,4.5,25.58,36.61,16.47,36.61,16.47l87.15-12.88"/><path class="cls-21" d="m283.32,1197.47s4.47-40.06,13.94-42.6-12.27,35.91,22.85,134.58c0,0,8.75,15.02,3.54,16.71-5.21,1.69-26.95,6.7-33.64-53.5-6.69-60.2-6.69-55.18-6.69-55.18Z"/><path class="cls-30" d="m331.82,1169.04s-10.03-33.44-11.71-11.71c0,0,8.36,71.91,23.41,88.63,17.04,18.93,80.27-8.36,80.27-8.36,0,0-65.22,5.02-70.23-3.34-5.02-8.36-21.74-65.22-21.74-65.22Z"/><path class="cls-12" d="m468.94,1225.9l-84.3,12s-32.11,9.11-36.61-16.47c-4.5-25.58-7.42-74.23-41.26-69.32-33.84,4.9-20.23,58.65-20.23,58.65l11.51,68.24s-.73,37.38,47.48,24.44c48.2-12.94,166.1-19.68,170.51-11.5"/><path class="cls-12" d="m848.53,1304.49s68.53,9.72,85.74,22.01c17.21,12.29,61.84-.61,66.38-12.29,5.07-13.06,40.4-140.72-28.18-128.38-16.15,2.9-29.63,13.89-36.61,28.74-6.04,12.88-11.39,31.11-8.96,52.93"/><path class="cls-29" d="m1166.16,527.3c-.93,16.59-3.22,32.82-6.66,48.63-30.29,138.45-143.17,232.29-226.49,290.87-33.43,23.48-62.12,41.32-78.79,54.06-4.4,3.37-7.97,6.37-10.57,9.05-41.6,42.78-84.35,41.91-117.41,29.6-13.84-5.16-25.98-12.34-35.62-19.13-5.63-3.98-10.4-7.82-14.18-11.09-6.98-6.02-15.05-10.69-23.82-13.64-50.84-17.18-225.26-85.6-275.48-230-18.36-52.83-25.32-98.8-26.16-137.05-.29-15.02.32-28.89,1.52-41.47,7.1-37.78,29.65-72.94,63.89-103.2,72.87-64.46,198.73-107.04,341.79-107.04,45.68,0,89.58,4.35,130.59,12.34,158.42,30.93,273.27,116.58,277.4,218.08Z"/><path class="cls-30" d="m802.39,298.26s611.35,205.24-25.77,653.39c0,0-36.7,3.64-17.51,15.2,19.18,11.56,87.23-39.53,87.23-39.53,0,0,195.82-136.78,199.34-154.05,3.52-17.27,194.15-169.44,85.46-340.01,0,0-134.08-137.9-328.74-135Z"/><path class="cls-29" d="m626.62,1020.65s0,160.53-5.72,197.32c-5.72,36.79-17.16-6.69-17.16-6.69,0,0-16.2,73.58-29.55,6.69-13.35-66.89,17.16-197.32,17.16-197.32,0,0-8.82-14.14-19.85,10.95"/><path d="m626.62,1020.65c1.4,39.86,1.84,79.75,1.48,119.63-.41,24.99-.5,50.05-3.13,75.02-.41,3.9-1,7.73-2.01,11.54-.98,3.21-1.84,6.51-4.91,8.73-2.54,1.85-6.24.91-8.09-1.07-2.4-2.38-3.49-4.75-4.82-7.51-2.2-4.89-3.75-9.68-5.16-14.71l7.61-.15c-1.3,5.72-2.82,11.21-4.67,16.75-2.07,5.81-3.97,11.28-7.87,16.45-2.67,3.69-7.93,6.49-12.47,3.33-7.5-5.26-10.22-21.24-12.15-29.81-5.82-32.45-2.93-65.78.89-98.27,4.28-33.75,10.75-67.19,19.12-100.14,0,0,.12.73.12.73-1.13-1.77-2.98-3.4-5.06-3.7-6.71-.47-11.29,9.01-13.97,14.13.9-2.23,1.88-4.44,3.04-6.56,3.73-7.32,11-13.52,17.63-4.89,0,0,.21.29.21.29l-.09.44c-2.15,11.07-4.15,22.2-5.96,33.34-7.32,47.07-14.09,94.89-11.01,142.58.65,8.23,1.74,16.54,3.58,24.59,1.21,5.38,2.64,10.75,4.66,15.49.75,1.76,2.03,4.21,3.32,5.12.19.14.19.09.11.08-.08-.02-.14.04.03-.04.33-.16,1.09-.78,1.74-1.66,2.92-3.91,4.95-9.26,6.64-14.05,3.17-8.81,5.85-21.77,8.05-30.99,0,0,4.08,14.96,4.08,14.96,1.24,4.56,2.77,9.29,4.64,13.5.78,1.73,1.88,3.92,3.04,5.1.19.2.33.2-.03.07-.16-.03-.49-.1-.77-.02-.59.06-.86.56-.42-.03,1.74-3.08,2.44-7.29,3.13-10.98.92-6.03,1.48-12.09,2.01-18.24.72-8.55,1.34-21.02,1.82-29.72,2.26-45.64,3.89-103.32,5.67-149.3h0Z"/><path class="cls-29" d="m874.55,1025.2c-15.17-25.08-27.32-10.95-27.32-10.95,0,0,41.99,130.43,23.62,197.32-18.37,66.89-40.68-6.69-40.68-6.69,0,0-15.75,43.48-23.62,6.69-7.87-36.79-7.87-197.32-7.87-197.32"/><path d="m874.55,1025.2c-5.46-8.63-16.79-20.17-26.38-10.14,0,0,.24-1.19.24-1.19,11.3,33.15,20.16,67.16,25.95,101.73,4.45,27.56,7.31,55.84,3.47,83.71-.27,1.36-.91,5.32-1.17,6.66-.32,1.51-1.23,5.1-1.57,6.63-2.88,9.76-6.47,23.21-15.21,29.44-15.96,9.4-26.4-15.97-30.94-27.35-1.07-2.82-2.05-5.57-2.97-8.55,0,0,8.34.22,8.34.22-.97,2.58-1.98,4.93-3.12,7.35-2.89,5.75-5.86,12.05-11.59,15.66-7.64,4.23-13.08-2.71-15.1-9.35-1.72-4.48-2.51-10.96-3.29-15.65-3.68-33-3.79-65.95-4.06-99-.1-30.39.35-60.78,1.53-91.15.84,20.43,2.95,71.35,3.81,91.02,1.32,27.48,2.75,59.63,5.43,86.87.65,5.74,1.53,12.62,2.66,18.31.75,3.4,1.63,6.71,3.16,9.67.5.94,1.09,1.71,1.49,1.94-.06-.03-.23-.04-.24-.03-.02,0,.11-.02.33-.15.23-.13.52-.35.83-.62,7.11-7.37,10.53-20.32,14.35-29.76,0,0,3.88,12.11,3.88,12.11,3.16,9.28,8.97,25.44,17.05,30.97,4.2,2.74,8.05-5.31,9.69-8.55,12.64-28.48,11.21-61.72,8.34-92.19-4.18-40.3-12.77-80.13-23.4-119.21,0,0-.2-.73-.2-.73,1.27-1.35,2.73-2.47,4.32-3.22,10.84-5.17,19.82,5.99,24.38,14.52h0Z"/><path class="cls-20" d="m1166.75,526.71c-.93,16.59-3.22,32.82-6.66,48.63-30.29,138.45-143.17,232.29-226.49,290.87-33.43,23.48-62.12,41.32-78.79,54.06-4.4,3.37-7.97,6.37-10.57,9.05-41.6,42.78-84.35,41.91-117.41,29.6-13.84-5.16-25.98-12.34-35.62-19.13-5.63-3.98-10.4-7.82-14.18-11.09-6.98-6.02-15.05-10.69-23.82-13.64-50.84-17.18-225.26-85.6-275.48-230-18.36-52.83-25.32-98.8-26.16-137.05-.29-15.02.32-28.89,1.52-41.47,7.1-37.78,29.65-72.94,63.89-103.2,72.87-64.46,198.73-107.04,341.79-107.04,45.68,0,89.58,4.35,130.59,12.34,158.42,30.93,273.27,116.58,277.4,218.08Z"/><path class="cls-1" d="m966.56,192.92s-64.99,15.57-88.54,48.53c-23.15,32.4-42.47,106.26-43.12,108.8-.02.05-.02.07-.02.07l-6.45-.63c.06-.65.15-1.32.23-2,3.8-28.87,31.44-95.2,44.08-118.9,12.93-24.27,99.16-65.74,106.41-56.53,7.23,9.21-12.59,20.67-12.59,20.67Z"/><path class="cls-1" d="m663.41,344.83s-14.18-59.62-37.82-86.63c-23.64-27.01-97.39-43.78-97.39-43.78,0,0-21.75-10.25-12.29-16.77,9.46-6.52,104.96,31.67,117.25,51.23,12.29,19.56,37.82,74.52,37.82,95.95"/><path class="cls-19" d="m965.83,192.71s-64.99,15.57-88.54,48.53c-23.15,32.4-42.47,106.26-43.12,108.8-.02.05-.02.07-.02.07l-6.45-.63c.06-.65.15-1.32.23-2,3.8-28.87,31.44-95.2,44.08-118.9,12.93-24.27,99.16-65.74,106.41-56.53,7.23,9.21-12.59,20.67-12.59,20.67Z"/><path class="cls-19" d="m662.86,344.67s-14.18-59.62-37.82-86.63c-23.64-27.01-97.39-43.78-97.39-43.78,0,0-21.75-10.25-12.29-16.77,9.46-6.52,104.96,31.67,117.25,51.23,12.29,19.56,37.82,74.52,37.82,95.95"/><circle class="cls-9" cx="507.11" cy="702.55" r="166.08"/><circle class="cls-9" cx="955.74" cy="692.18" r="160.51"/><ellipse class="cls-23" cx="531.33" cy="702.44" rx="125.39" ry="133.08" transform="translate(-192.06 1204.87) rotate(-87.68)"/><ellipse class="cls-23" cx="932.41" cy="690.17" rx="121.18" ry="128.62" transform="translate(205.03 1593.85) rotate(-87.68)"/><ellipse cx="547.81" cy="703.25" rx="109.84" ry="116.59" transform="translate(-177.06 1222.12) rotate(-87.68)"/><ellipse cx="916.5" cy="689.15" rx="106.16" ry="112.68" transform="translate(190.78 1576.97) rotate(-87.68)"/><circle class="cls-34" cx="566.54" cy="702.76" r="100.09"/><circle class="cls-33" cx="900.51" cy="689.94" r="96.73"/><path d="m415.51,503.58c34.16-34.7,87.67-50.9,134.94-37.28,18.36,5.14,35.6,14.42,50.12,26.33-27.27-14.71-56.94-24.3-87.94-23.19-34.73,1.22-68.61,14.48-97.12,34.14h0Z"/><path d="m916.71,698.82c0,42.02-6.69,57.69-14.21,76.09-2.97,7.27-14.21-34.06-14.21-76.09s11.46-68.74,14.21-76.09c2.51-6.69,14.21,34.06,14.21,76.09Z"/><circle class="cls-22" cx="607.64" cy="654.34" r="31.24"/><circle class="cls-22" cx="998.49" cy="660.93" r="30.83"/><path d="m1042.64,497.61c-27.92-18.51-61.39-31.15-95.1-29.81-34.17,1.23-64.8,18.61-90.37,40.78,10.73-13.55,24.06-25.25,39.35-34.05,47.44-27.69,107.93-14.14,146.11,23.08h0Z"/><ellipse class="cls-22" cx="467.08" cy="739.39" rx="10.8" ry="31.9" transform="translate(-290.63 1176.13) rotate(-87.68)"/><ellipse class="cls-22" cx="868.91" cy="750.9" rx="10.8" ry="31.9" transform="translate(83.42 1588.67) rotate(-87.68)"/><path d="m578.09,714.71c0,42.02-6.69,57.69-14.21,76.09-2.97,7.27-14.21-34.06-14.21-76.09s11.46-68.74,14.21-76.09c2.51-6.69,14.21,34.06,14.21,76.09Z"/><path class="cls-8" d="m677.22,865.13s71.91,50.17,153.84,0"/><path class="cls-18" d="m846.11,876.83s-23.41-8.36-21.74-31.77"/><path class="cls-16" d="m662.17,873.49s16.84-5.69,20.07-23.41"/><polygon class="cls-5" points="711.19 880.68 692.27 901.92 691.73 873.49 711.19 880.68"/><polygon class="cls-3" points="808.04 876.83 805.98 905.26 784.97 884.08 808.04 876.83"/><polyline class="cls-25" points="692.25 901.08 692.27 890.21 700.63 893.56 692.27 901.92"/><polygon class="cls-25" points="795.94 895.14 805.98 905.26 805.98 891.88 795.94 895.14"/><path class="cls-13" d="m484.69,390.02s-34.28-61.04-29.26-119.56c0,0,74.86,68.56,111.2,79.43l-81.94,40.13Z"/><path class="cls-13" d="m988.03,361.59s99.5-49.33,104.51-76.09c0,0,8.07,120.69-34.28,122.91l-70.23-46.82Z"/><path class="cls-11" d="m499.74,378.32s-10.03-16.72-11.71-23.41"/><line class="cls-11" x1="526.5" y1="366.61" x2="513.12" y2="351.56"/><line class="cls-11" x1="541.55" y1="358.25" x2="534.86" y2="351.56"/><line class="cls-11" x1="511.45" y1="373.3" x2="504.76" y2="363.27"/><path class="cls-11" d="m461.28,286.34s4.46,16.35,6.69,18.39"/><line class="cls-11" x1="462.95" y1="288.02" x2="474.66" y2="304.74"/><line class="cls-11" x1="1008.1" y1="371.63" x2="1023.15" y2="361.59"/><path class="cls-11" d="m1026.49,385s11.71-8.36,13.38-10.03"/><path class="cls-11" d="m1051.57,398.38s13.38-11.71,13.38-15.05"/><path class="cls-11" d="m1090.03,303.07s-13.38,20.07-16.72,23.41"/><line class="cls-11" x1="1090.03" y1="309.75" x2="1081.67" y2="331.49"/><line class="cls-11" x1="1021.47" y1="378.32" x2="1026.49" y2="374.97"/><line class="cls-11" x1="1043.21" y1="391.69" x2="1048.23" y2="388.35"/><path class="cls-7" d="m631.01,914.26c9.71-6.57-244.98,39.3-305.18,144.65-60.2,105.35-121.24,47.66-121.24,47.66,0,0,122.91,39.3,178.09,19.23,55.18-20.07,69.49,2.46,69.49,2.46,0,0,83.31-149.38,178.84-213.99Z"/><path class="cls-6" d="m200.41,1112.42c-5.02-3.34-46.82-40.13-36.79-75.25,0,0,118.73,53.51,172.24,0,0,0-39.27,109.48-113.28,85.68,0,0-17.15-7.08-22.17-10.43Z"/><path class="cls-7" d="m341.72,731.99s-128.76,66.89-130.43,105.35c0,0,187.29-15.05,379.59,81.94l40.13-5.02-89.79-49.13s-157.7,35.76-199.5-133.14Z"/><path class="cls-7" d="m874.5,911.92l75.9-59.53s170.11.83,164.49-166.81c0,0,174.97,69.82,218.45,143.4,0,0-165.18-83.28-458.84,82.94Z"/><path class="cls-10" d="m875.15,912.59s277.59,73.58,280.93,187.29c3.34,113.71-73.58,108.69-73.58,108.69,0,0,65.22-30.1,11.71-48.49-53.51-18.39-59.26-18.9-59.26-18.9,0,0-62.81-158.36-159.8-228.59Z"/><path class="cls-15" d="m875.15,912.59s338.33,180.47,232.71,279.2c0,0,51.78,13.42,48.33-104.46,0,0,6.58-86.11-281.04-174.74Z"/><path class="cls-29" d="m847.15,857.43h150.35c49.49,0,89.66,40.18,89.66,89.66v201.7h-171.29c-54.84,0-99.36-44.52-99.36-99.36v-161.38c0-16.91,13.73-30.64,30.64-30.64Z" transform="translate(1954.95 51.27) rotate(90)"/><path class="cls-30" d="m883.21,919.34c68.82,9.7,143.51,57.74,152.29,131.63,2.44,19.8-.17,40.36-6.8,59,1.21-16.73,1.27-33.01-1.6-49.36-11.88-72.72-80.69-115.18-143.88-141.27h0Z"/><path class="cls-30" d="m901.61,889.24c78.04,11.17,163.08,70.23,162.39,156.19.01,9.89-1.25,19.83-3.53,29.42-.51-14.02-1.78-27.56-5.06-40.96-17.12-74.07-88.06-117.13-153.8-144.66h0Z"/><path class="cls-24" d="m952.61,875.03s108.69,23.41,128.76,138.79c0,0,11.67-105.28,0-112.04-31.77-18.39,30.54-25.92-128.76-26.76Z"/><path class="cls-24" d="m911.64,922.69c-5.02-16.72,13.38-20.07,18.39-18.39,5.02,1.67,8.36-8.36,8.36-8.36,0,0,1.15-10.57,17.56-14.21,15.05-3.34,21.74,1.67,21.74,1.67,0,0-50.49-20.9-65.22-3.34-14.73,17.56-33.2,25.06-33.2,25.06l22.33,25.75,10.03-8.16Z"/><path class="cls-17" d="m847.97,857.96h150.35c49.49,0,89.66,40.18,89.66,89.66v201.7h-171.29c-54.84,0-99.36-44.52-99.36-99.36v-161.38c0-16.91,13.73-30.64,30.64-30.64Z" transform="translate(1956.3 50.98) rotate(90)"/><path class="cls-29" d="m595.59,951.11s-283.47,251.52-89.15,336.26c0,0,463.17,39.45,515.77-8.77,52.6-48.22,36.53-203.09-125.65-352.13-162.18-149.03-300.97,24.63-300.97,24.63Z"/><path class="cls-30" d="m445.09,1158.47s20.07-21.74,31.77,1.67c8.65,17.31,16.39,56.55,19.84,75.83.67,3.75-3.59,6.4-6.65,4.12-9.78-7.29-26.41-17.5-41.62-16.41-23.41,1.67-3.34-65.22-3.34-65.22Z"/><path class="cls-30" d="m806.29,922.69s160.53,127.09,180.6,347.82c0,0,47.46,37.62,62.19-48.08,0,0,23.19-145.11-170-312.73-193.19-167.62,0,0,0,0l-72.79,12.98Z"/><path class="cls-30" d="m639.91,920.18s30.1,1.67,41.81,28.43c11.71,26.76,107.02,51.84,152.17,26.76,45.15-25.08,63.54-11.71,63.54-11.71l-41.81-43.48-215.72-12.92v12.92Z"/><path class="cls-17" d="m596.77,951.9s-283.47,251.52-89.15,336.26c0,0,463.17,39.45,515.77-8.77,52.6-48.22,36.53-203.09-125.65-352.13-162.18-149.03-300.97,24.63-300.97,24.63Z"/><path class="cls-29" d="m521.12,1288.93c-4.42-8.18-122.31-1.45-170.51,11.5-48.2,12.94-47.48-24.44-47.48-24.44l-11.51-68.24s-13.61-53.75,20.23-58.65c33.84-4.9,36.76,43.75,41.26,69.32,4.5,25.58,36.61,16.47,36.61,16.47l87.15-12.88"/><path class="cls-21" d="m287.9,1195.26s4.47-40.06,13.94-42.6c9.47-2.55-12.27,35.91,22.85,134.58,0,0,8.75,15.02,3.54,16.71-5.21,1.69-26.95,6.7-33.64-53.5-6.69-60.2-6.69-55.18-6.69-55.18Z"/><path class="cls-30" d="m336.4,1166.83s-10.03-33.44-11.71-11.71c0,0,8.36,71.91,23.41,88.63,17.04,18.93,80.27-8.36,80.27-8.36,0,0-65.22,5.02-70.23-3.34-5.02-8.36-21.74-65.22-21.74-65.22Z"/><path class="cls-12" d="m473.52,1223.69l-84.3,12s-32.11,9.11-36.61-16.47c-4.5-25.58-7.42-74.23-41.26-69.32-33.84,4.9-20.23,58.65-20.23,58.65l11.51,68.24s-.73,37.38,47.48,24.44c48.2-12.94,166.1-19.68,170.51-11.5"/><path class="cls-29" d="m848.29,1300.1s73.75,12.29,90.96,24.58c17.21,12.29,68.83,0,66.38-12.29-2.46-12.29,49.17-167.17-51.63-120.46,0,0-27.04,29.5-22.13,73.75"/><path class="cls-12" d="m853.11,1302.28s68.53,9.72,85.74,22.01c17.21,12.29,61.84-.61,66.38-12.29,5.07-13.06,40.4-140.72-28.18-128.38-16.15,2.9-29.63,13.89-36.61,28.74-6.04,12.88-11.39,31.11-8.96,52.93"/><path class="cls-29" d="m1170.74,525.09c-.93,16.59-3.22,32.82-6.66,48.63-30.29,138.45-143.17,232.29-226.49,290.87-33.43,23.48-62.12,41.32-78.79,54.06-4.4,3.37-7.97,6.37-10.57,9.05-41.6,42.78-84.35,41.91-117.41,29.6-13.84-5.16-25.98-12.34-35.62-19.13-5.63-3.98-10.4-7.82-14.18-11.09-6.98-6.02-15.05-10.69-23.82-13.64-50.84-17.18-225.26-85.6-275.48-230-18.36-52.83-25.32-98.8-26.16-137.05-.29-15.02.32-28.89,1.52-41.47,7.1-37.78,29.65-72.94,63.89-103.2,72.87-64.46,198.73-107.04,341.79-107.04,45.68,0,89.58,4.35,130.59,12.34,158.42,30.93,273.27,116.58,277.4,218.08Z"/><path class="cls-30" d="m806.97,296.05s611.35,205.24-25.77,653.39c0,0-36.7,3.64-17.51,15.2,19.18,11.56,87.23-39.53,87.23-39.53,0,0,195.82-136.78,199.34-154.05,3.52-17.27,194.15-169.44,85.46-340.01,0,0-134.08-137.9-328.74-135Z"/><path class="cls-29" d="m631.2,1018.43s0,160.53-5.72,197.32c-5.72,36.79-17.16-6.69-17.16-6.69,0,0-16.2,73.58-29.55,6.69-13.35-66.89,17.16-197.32,17.16-197.32,0,0-8.82-14.14-19.85,10.95"/><path d="m631.2,1018.43c1.4,39.86,1.84,79.75,1.48,119.63-.41,24.99-.5,50.05-3.13,75.02-.41,3.9-1,7.73-2.01,11.54-.98,3.21-1.84,6.52-4.91,8.73-2.54,1.85-6.24.91-8.09-1.07-2.4-2.38-3.49-4.75-4.82-7.51-2.2-4.89-3.75-9.68-5.16-14.71l7.61-.15c-1.3,5.72-2.82,11.21-4.67,16.75-2.07,5.81-3.97,11.28-7.87,16.45-2.67,3.69-7.93,6.49-12.47,3.33-7.5-5.26-10.22-21.24-12.15-29.81-5.82-32.45-2.93-65.78.89-98.27,4.28-33.75,10.75-67.19,19.12-100.14,0,0,.12.73.12.73-1.13-1.77-2.98-3.4-5.06-3.7-6.71-.47-11.29,9.01-13.97,14.13.9-2.23,1.88-4.44,3.04-6.56,3.73-7.32,11-13.52,17.63-4.89,0,0,.21.29.21.29l-.09.44c-2.15,11.07-4.15,22.2-5.96,33.34-7.32,47.07-14.09,94.89-11.01,142.58.65,8.23,1.74,16.54,3.58,24.59,1.21,5.38,2.64,10.75,4.66,15.49.75,1.76,2.03,4.21,3.32,5.12.19.14.19.09.11.08-.08-.02-.14.04.03-.04.33-.16,1.09-.78,1.74-1.66,2.92-3.91,4.95-9.26,6.64-14.05,3.17-8.81,5.85-21.77,8.05-30.99,0,0,4.08,14.96,4.08,14.96,1.24,4.56,2.77,9.29,4.64,13.5.78,1.73,1.88,3.92,3.04,5.1.19.2.33.2-.03.07-.16-.03-.49-.1-.77-.02-.59.06-.86.56-.42-.03,1.74-3.08,2.44-7.29,3.13-10.98.92-6.03,1.48-12.09,2.01-18.25.72-8.55,1.34-21.02,1.82-29.72,2.26-45.64,3.89-103.32,5.67-149.3h0Z"/><path class="cls-29" d="m879.13,1022.98c-15.17-25.08-27.32-10.95-27.32-10.95,0,0,41.99,130.43,23.62,197.32-18.37,66.89-40.68-6.69-40.68-6.69,0,0-15.75,43.48-23.62,6.69-7.87-36.79-7.87-197.32-7.87-197.32"/><path d="m879.13,1022.98c-5.46-8.63-16.79-20.17-26.38-10.14,0,0,.24-1.19.24-1.19,11.3,33.15,20.16,67.16,25.95,101.73,4.45,27.56,7.31,55.84,3.47,83.71-.27,1.36-.91,5.32-1.17,6.67-.32,1.51-1.23,5.1-1.57,6.63-2.88,9.75-6.47,23.22-15.21,29.44-15.96,9.4-26.4-15.97-30.94-27.35-1.07-2.82-2.05-5.57-2.97-8.55,0,0,8.34.22,8.34.22-.97,2.58-1.98,4.93-3.12,7.35-2.89,5.75-5.86,12.05-11.59,15.66-7.64,4.23-13.08-2.71-15.1-9.35-1.72-4.48-2.51-10.96-3.29-15.65-3.68-33-3.79-65.95-4.06-99-.1-30.39.35-60.78,1.53-91.15.84,20.43,2.95,71.35,3.81,91.02,1.32,27.48,2.75,59.63,5.43,86.87.65,5.74,1.53,12.62,2.66,18.31.75,3.4,1.63,6.71,3.16,9.67.5.94,1.09,1.71,1.49,1.94-.06-.03-.23-.04-.24-.03-.02,0,.11-.02.33-.15.23-.13.52-.35.83-.62,7.11-7.37,10.53-20.32,14.35-29.76,0,0,3.88,12.11,3.88,12.11,3.16,9.29,8.97,25.43,17.05,30.97,4.2,2.74,8.05-5.31,9.69-8.55,12.64-28.48,11.21-61.72,8.34-92.19-4.18-40.31-12.77-80.13-23.4-119.21,0,0-.2-.73-.2-.73,1.27-1.35,2.73-2.47,4.32-3.22,10.84-5.17,19.82,5.99,24.38,14.52h0Z"/><path class="cls-20" d="m1171.33,524.5c-.93,16.59-3.22,32.82-6.66,48.63-30.29,138.45-143.17,232.29-226.49,290.87-33.43,23.48-62.12,41.32-78.79,54.06-4.4,3.37-7.97,6.37-10.57,9.05-41.6,42.78-84.35,41.91-117.41,29.6-13.84-5.16-25.98-12.34-35.62-19.13-5.63-3.98-10.4-7.82-14.18-11.09-6.98-6.02-15.05-10.69-23.82-13.64-50.84-17.18-225.26-85.6-275.48-230-18.36-52.83-25.32-98.8-26.16-137.05-.29-15.02.32-28.89,1.52-41.47,7.1-37.78,29.65-72.94,63.89-103.2,72.87-64.46,198.73-107.04,341.79-107.04,45.68,0,89.58,4.35,130.59,12.34,158.42,30.93,273.27,116.58,277.4,218.08Z"/><path class="cls-1" d="m971.14,190.7s-64.99,15.57-88.54,48.53c-23.15,32.4-42.47,106.26-43.12,108.8-.02.05-.02.07-.02.07l-6.45-.63c.06-.65.15-1.32.23-2,3.8-28.87,31.44-95.2,44.08-118.9,12.93-24.27,99.16-65.74,106.41-56.53,7.23,9.21-12.59,20.67-12.59,20.67Z"/><path class="cls-1" d="m668,342.62s-14.18-59.62-37.82-86.63c-23.64-27.01-97.39-43.78-97.39-43.78,0,0-21.75-10.25-12.29-16.77s104.96,31.67,117.25,51.23c12.29,19.56,37.82,74.52,37.82,95.95"/><path class="cls-19" d="m970.41,190.5s-64.99,15.57-88.54,48.53c-23.15,32.4-42.47,106.26-43.12,108.8-.02.05-.02.07-.02.07l-6.45-.63c.06-.65.15-1.32.23-2,3.8-28.87,31.44-95.2,44.08-118.9,12.93-24.27,99.16-65.74,106.41-56.53,7.23,9.21-12.59,20.67-12.59,20.67Z"/><path class="cls-19" d="m667.44,342.46s-14.18-59.62-37.82-86.63c-23.64-27.01-97.39-43.78-97.39-43.78,0,0-21.75-10.25-12.29-16.77,9.46-6.52,104.96,31.67,117.25,51.23,12.29,19.56,37.82,74.52,37.82,95.95"/><circle class="cls-9" cx="511.69" cy="700.34" r="166.08"/><circle class="cls-9" cx="960.32" cy="689.96" r="160.51"/><ellipse class="cls-23" cx="535.91" cy="700.22" rx="125.39" ry="133.08" transform="translate(-185.45 1207.33) rotate(-87.68)"/><ellipse class="cls-23" cx="936.99" cy="687.95" rx="121.18" ry="128.62" transform="translate(211.64 1596.3) rotate(-87.68)"/><ellipse cx="552.39" cy="701.04" rx="109.84" ry="116.59" transform="translate(-170.45 1224.57) rotate(-87.68)"/><ellipse cx="921.08" cy="686.93" rx="106.16" ry="112.68" transform="translate(197.39 1579.42) rotate(-87.68)"/><circle class="cls-31" cx="571.13" cy="700.55" r="100.09"/><circle class="cls-32" cx="905.09" cy="687.72" r="96.73"/><path d="m420.1,501.36c34.16-34.7,87.67-50.9,134.94-37.28,18.36,5.14,35.6,14.42,50.12,26.33-27.27-14.71-56.94-24.3-87.94-23.19-34.73,1.22-68.61,14.48-97.12,34.14h0Z"/><path d="m921.29,696.6c0,42.02-6.69,57.69-14.21,76.09-2.97,7.27-14.21-34.06-14.21-76.09s11.46-68.74,14.21-76.09c2.51-6.69,14.21,34.06,14.21,76.09Z"/><circle class="cls-22" cx="612.22" cy="652.13" r="31.24"/><circle class="cls-22" cx="1003.07" cy="658.72" r="30.83"/><path d="m1047.22,495.4c-27.92-18.51-61.39-31.15-95.1-29.81-34.17,1.23-64.8,18.61-90.37,40.78,10.73-13.55,24.06-25.25,39.35-34.05,47.44-27.69,107.94-14.14,146.11,23.08h0Z"/><ellipse class="cls-22" cx="471.67" cy="737.18" rx="10.8" ry="31.9" transform="translate(-284.02 1178.59) rotate(-87.68)"/><ellipse class="cls-22" cx="873.49" cy="748.69" rx="10.8" ry="31.9" transform="translate(90.03 1591.12) rotate(-87.68)"/><path d="m582.67,712.5c0,42.02-6.69,57.69-14.21,76.09-2.97,7.27-14.21-34.06-14.21-76.09s11.46-68.74,14.21-76.09c2.51-6.69,14.21,34.06,14.21,76.09Z"/><path class="cls-8" d="m681.8,862.91s71.91,50.17,153.84,0"/><path class="cls-18" d="m850.69,874.62s-23.41-8.36-21.74-31.77"/><path class="cls-16" d="m666.75,871.28s16.84-5.69,20.07-23.41"/><polygon class="cls-5" points="715.77 878.47 696.85 899.7 696.31 871.28 715.77 878.47"/><polygon class="cls-3" points="812.62 874.62 810.56 903.05 789.55 881.87 812.62 874.62"/><polyline class="cls-25" points="696.83 898.86 696.85 888 705.21 891.34 696.85 899.7"/><polygon class="cls-25" points="800.52 892.93 810.56 903.05 810.56 889.67 800.52 892.93"/><path class="cls-13" d="m489.27,387.81s-34.28-61.04-29.26-119.56c0,0,74.86,68.56,111.2,79.43l-81.94,40.13Z"/><path class="cls-13" d="m992.61,359.38s99.5-49.33,104.51-76.09c0,0,8.07,120.69-34.28,122.91l-70.23-46.82Z"/><path class="cls-11" d="m504.32,376.1s-10.03-16.72-11.71-23.41"/><line class="cls-11" x1="531.08" y1="364.4" x2="517.7" y2="349.35"/><line class="cls-11" x1="546.13" y1="356.04" x2="539.44" y2="349.35"/><line class="cls-11" x1="516.03" y1="371.09" x2="509.34" y2="361.05"/><path class="cls-11" d="m465.86,284.13s4.46,16.35,6.69,18.39"/><line class="cls-11" x1="467.53" y1="285.8" x2="479.24" y2="302.52"/><line class="cls-11" x1="1012.68" y1="369.41" x2="1027.73" y2="359.38"/><path class="cls-11" d="m1031.07,382.79s11.71-8.36,13.38-10.03"/><path class="cls-11" d="m1056.15,396.17s13.38-11.71,13.38-15.05"/><path class="cls-11" d="m1094.62,300.85s-13.38,20.07-16.72,23.41"/><line class="cls-11" x1="1094.62" y1="307.54" x2="1086.25" y2="329.28"/><line class="cls-11" x1="1026.05" y1="376.1" x2="1031.07" y2="372.76"/><line class="cls-11" x1="1047.79" y1="389.48" x2="1052.81" y2="386.14"/><path class="cls-7" d="m635.59,912.05c9.71-6.57-244.98,39.3-305.18,144.65-60.2,105.35-121.24,47.66-121.24,47.66,0,0,122.91,39.3,178.09,19.23,55.18-20.07,69.49,2.46,69.49,2.46,0,0,83.31-149.38,178.84-213.99Z"/><path class="cls-6" d="m205,1110.21c-5.02-3.34-46.82-40.13-36.79-75.25,0,0,118.73,53.51,172.24,0,0,0-39.27,109.48-113.28,85.68,0,0-17.15-7.08-22.17-10.43Z"/><path class="cls-7" d="m346.3,729.78s-128.76,66.89-130.43,105.35c0,0,187.29-15.05,379.59,81.94l40.13-5.02-89.79-49.13s-157.7,35.76-199.5-133.14Z"/><path class="cls-7" d="m1337.92,826.76s-165.18-83.28-458.84,82.94l75.9-59.53s170.11.83,164.49-166.81c0,0,174.97,69.82,218.45,143.4"/><path class="cls-10" d="m879.74,910.38s277.59,73.58,280.93,187.29c3.34,113.71-73.58,108.69-73.58,108.69,0,0,65.22-30.1,11.71-48.49-53.51-18.39-59.26-18.9-59.26-18.9,0,0-62.81-158.36-159.8-228.59Z"/><path class="cls-15" d="m879.74,910.38s338.33,180.47,232.71,279.2c0,0,51.78,13.42,48.33-104.46,0,0,6.58-86.11-281.04-174.74Z"/><path class="cls-15" d="m684.16,941.8s-17.65,151.48-12.95,211.7c.31,3.99.72,7.58,1.24,10.7,8.36,50.17-227.42,16.72-234.11,0-6.69-16.72,114.6-201.46,182.96-243.31,47.81-29.26,62.86,15.89,62.86,20.9Z"/><path class="cls-4" d="m807.12,958s-33.3,99.5-26.61,201.5c0,0,7.63,25.59,33.08,31.19,25.45,5.6,211.07-14.47,221.1-44.57s-117.06-220.73-153.84-237.45c0,0-58.81,36.79-73.72,49.33Z"/><path class="cls-7" d="m687.57,938.95s-15.05,190.63-5.02,224.08c0,0,41.81,1.67,46.82-13.38,0,0,5.02,15.05,46.82,20.07,0,0-17.49-105.32,18.39-200.67,0,0-56.86,11.71-107.02-30.1Z"/><line class="cls-2" x1="736.07" y1="969.05" x2="729.38" y2="1142.96"/><circle cx="718.51" cy="1117.04" r="5.02"/><circle cx="720.18" cy="1080.25" r="5.02"/><circle cx="721.85" cy="1045.14" r="5.02"/><circle cx="725.2" cy="1006.68" r="5.02"/><path class="cls-28" d="m681.72,954.84c-11.74-1.36-35.3-2.62-40.59,10.52,0,0-.68-1.67-.68-1.67,9.19,4.29,17.53,10.06,24.56,17.38,7.07,7.41,12.51,16.85,13.65,27.22.02.14-1.86,34.88-1.85,35.05-1.35,29.05-2.99,58.11-3.15,87.21-.01,5.82.06,11.64.54,17.44-1.85-11.52-2.14-23.25-2.45-34.9-.53-28.92.55-58.47,1.98-87.4,0,0,1.03-17.46,1.03-17.46,0,0,0,.35,0,.35-1.64-14.47-11.73-26.36-23.08-34.83-4.22-3.17-8.77-5.96-13.46-8.26,5.88-15.68,30.25-13.3,43.48-10.65h0Z"/><path class="cls-28" d="m807.67,972.4c12.52-3.73,42.03-10.84,49.34,3.8-6.25,2.76-12.42,5.79-18.48,8.98-5.73,3.03-11.41,6.18-16.88,9.62-8.03,5.19-16.21,10.64-22.12,18.17-1.9,2.5-3.37,5.31-3.61,8.17-1.91,11.46-3.67,22.97-5.36,34.48-4.12,28.77-8.37,57.6-9.77,86.65-.2,5.81-.27,11.64.42,17.42-1.01-5.74-1.19-11.61-1.21-17.43.23-29.16,3.94-58.17,7.75-87.03,1.6-11.54,3.35-23.06,5.21-34.58.23-3.08,2.21-6.95,4.21-9.46,6.21-7.87,14.67-13.52,23.04-18.73,5.61-3.4,11.35-6.55,17.21-9.47,5.87-2.9,11.79-5.64,17.84-8.15l-.48,1.37c-7.07-12.27-35.51-6.54-47.11-3.81h0Z"/><path class="cls-27" d="m786.87,972.4c-60.01,14.21-90.11-17.56-90.11-17.56,0,0-8.84,10.87-15.56,14.21-6.73,3.34-6.73,26.76,5.1,28.43s2.96,31.77,32.54,16.72c0,0,10.35-6.69,14.79,0,4.44,6.69,5.92,10.03,17.75,5.02,11.83-5.02,13.31,5.02,13.31,5.02,0,0,8.12,17.64,14.41-9.58,0,0,1.86-10.49,7.77-8.82,5.92,1.67,13.31-6.69,8.87-15.05-4.44-8.36-8.87-18.39-8.87-18.39Z"/><path class="cls-28" d="m680.88,969.05s-14.21,20.9,7.52,27.59"/><path d="m680.88,969.05c-4.59,12.3-5.54,20.93,7.53,27.59-15.61-1.59-17.1-17.67-7.53-27.59h0Z"/><path class="cls-28" d="m693.16,1003.41s2.18,22,22.83,12.47"/><path d="m693.16,1003.41c4.58,12.3,9.96,15.6,22.83,12.47-11.22,8.61-23.71,1.36-22.83-12.47h0Z"/><path class="cls-28" d="m734.39,1015.87s8.36,5.02,21.34,2.75"/><path d="m734.39,1015.87c7.16,1.41,14.14,1.85,21.34,2.75-6.69,3.33-15.87,2.54-21.34-2.75h0Z"/><path class="cls-28" d="m762.91,1020.63s4.44,13.21,13.94,6.51"/><path d="m762.91,1020.63c2.85,2.98,5.18,6.96,9.57,7.17,1.3.04,2.75-.28,4.37-.65-5.24,7.28-14.17,1.04-13.94-6.51h0Z"/><path class="cls-28" d="m787.72,1005.94s6.13-1.65,10.9-8.98"/><path d="m787.72,1005.94c3.55-3.35,6.73-6.4,10.9-8.98-.7,5.05-5.71,9.53-10.9,8.98h0Z"/><path class="cls-29" d="m628.75,1013.95s0,160.53-5.72,197.32c-5.72,36.79-17.16-6.69-17.16-6.69,0,0-16.2,73.58-29.55,6.69-13.35-66.89,17.16-197.32,17.16-197.32"/><path d="m628.75,1013.95c1.33,34.77,1.75,69.87,1.69,104.67-.41,31.19-.11,62.73-3.72,93.8-.85,4.77-1.52,9.55-4.16,14-1.27,2.22-4.48,4.24-7.32,3.27-4.54-1.58-6.15-5.73-8.03-9.4-2.2-4.89-3.75-9.68-5.17-14.72,0,0,7.68-.16,7.68-.16-1.3,5.72-2.81,11.21-4.67,16.76-2.09,5.8-4.05,11.24-7.94,16.41-7.29,9.07-15.08,3.77-18.63-5.29-5.4-13.62-7.48-28.18-8.52-42.67-2.06-37.01,2.74-73.96,8.93-110.35,4.02-22.3,8.68-44.48,14.58-66.33-4.09,22.22-7.6,44.56-10.52,66.96-4.25,33.4-7.54,67.19-6.2,100.86.51,11.05,1.77,22.14,4.21,32.93,1.21,5.38,2.64,10.76,4.66,15.5.75,1.78,2.21,4.5,3.47,5.22,2.27-1.49,4.09-5.22,5.47-8.24,3.22-7.46,5.55-15.54,7.43-23.44,0,0,3.56-15.26,3.56-15.26,2.33,8.2,5.26,20.97,8.76,28.59.78,1.71,1.88,3.93,3.04,5.09.18.2.32.2-.05.06-.3-.13-1.15-.01-1.38.2,2.26-3.77,3.06-10,3.71-14.82,1.33-9.68,1.89-19.67,2.55-29.47,2.88-51.87,4.36-112.35,6.55-164.19h0Z"/><path class="cls-29" d="m800.29,1023.51s.51,144.58,8.38,181.37c7.87,36.79,23.62-6.69,23.62-6.69,0,0,22.31,73.58,40.68,6.69,18.37-66.89-19.17-181.37-19.17-181.37"/><path d="m800.29,1023.51c2.22,44.71,4.05,97.37,7.44,141.57.73,9.39,1.52,18.79,2.79,28.02.95,6.71,1.94,13.49,4.5,19.58.42,1.07,1.59,2.9,2.16,3.11,2.54-1.2,4.14-4.16,5.76-6.72,3.79-6.35,6.99-15.92,9.65-22.91,4.19,13.01,8.47,28.11,16.97,38.87,5.69,6.86,8.79,3.98,12.66-2.53,6.06-11.63,9.09-24.84,10.88-37.82,3.79-32.3.04-65.13-5.27-97.11-3.71-21.53-8.36-42.95-14.04-64.06,7.49,20.61,13.36,41.81,18.15,63.26,7.89,37.7,13.75,77.19,5.63,115.39-1.29,5.52-2.9,10.88-4.93,16.2-2.34,5.7-4.59,11.11-9.55,15.51-10.24,8.41-19.83-2.31-24.66-11.05-4.27-7.47-7.31-15.29-9.93-23.48,0,0,7.49.2,7.49.2-1.81,4.74-3.78,9.09-6.33,13.47-2.14,3.48-4.46,7.17-8.4,9.42-5.91,3.28-11.11-1.21-13.27-6.59-2.99-7-3.9-14.52-4.81-21.81-5.39-56.77-4.46-113.63-2.92-170.52h0Z"/><path d="m592.25,1010.86s-35.15,129.71-25.05,146.43c10.11,16.72,66.7,3.34,66.7,3.34l.15-149.78"/><path class="cls-26" d="m592.25,1010.86c-4.37,17.72-8.51,35.5-12.42,53.32-5.55,26.65-11.83,53.52-13.08,80.73.12,4.18-.26,8.82,2.16,12.4,5.43,6.49,16.38,6.71,24.33,6.91,13.55-.1,27.13-2.08,40.35-4.95,0,0-1.08,1.36-1.08,1.36.07-36.31.41-76.23.9-112.33.2-12.48.36-24.96.64-37.44.26,12.48.39,24.96.57,37.44.47,36.04.64,76.08.68,112.33,0,0,0,1.11,0,1.11-13.83,3.1-27.87,5.42-42.09,5.43-8.88-.27-20.45-.68-26.56-8.2-2.87-4.03-2.57-9.42-2.63-14.11,1.3-27.53,8.13-54.32,14.21-81.05,4.29-17.75,8.96-35.41,14.01-52.96h0Z"/><path d="m856.46,1017.55s42.4,119.68,29.21,136.4-87.05,3.34-87.05,3.34l.99-136.4"/><path class="cls-26" d="m856.46,1017.54c6.68,18.02,12.82,36.24,18.36,54.65,5.42,18.48,10.72,37.02,13.57,56.13.91,7.25,1.94,14.7.36,22.01-1.77,8.14-11.15,10.66-18.23,12.02-14.4,2.41-29.08,1.51-43.49.19-9.98-.99-19.91-2.34-29.8-4.1,0,0,.01-1.16.01-1.16.32-31.71.83-70.76,1.54-102.29.26-11.37.48-22.73.82-34.1.17,11.37.23,22.74.33,34.1.19,31.47.25,70.65.06,102.3,0,0-1.13-1.36-1.13-1.36,14.12,2.36,28.44,4.04,42.75,4.69,9.46.4,19.08.5,28.42-1.08,6.09-1.25,14.47-2.94,16.09-9.88,1.49-6.83.55-14.04-.29-20.98-5.9-37.9-17.83-74.64-29.36-111.14h0Z"/></svg>