<svg xmlns="http://www.w3.org/2000/svg" xmlns:xlink="http://www.w3.org/1999/xlink" viewBox="0 0 1500 1500"><defs><style>.cls-1{fill:#a0c4ff;}.cls-2{fill:#bdb2ff;}.cls-3{fill:#8e85bf;}.cls-17,.cls-28,.cls-29,.cls-30,.cls-4,.cls-6,.cls-7,.cls-9{fill:none;}.cls-10,.cls-11,.cls-12,.cls-13,.cls-14,.cls-15,.cls-16,.cls-17,.cls-21,.cls-26,.cls-27,.cls-28,.cls-29,.cls-30,.cls-31,.cls-32,.cls-33,.cls-4,.cls-6,.cls-7,.cls-9{stroke:#000;}.cls-10,.cls-12,.cls-15,.cls-16,.cls-17,.cls-21,.cls-22,.cls-25,.cls-26,.cls-29,.cls-30,.cls-31,.cls-4,.cls-6,.cls-7,.cls-8,.cls-9{stroke-miterlimit:10;}.cls-4{stroke-width:17px;}.cls-5{fill:#5f5980;}.cls-12,.cls-13,.cls-21,.cls-6,.cls-7{stroke-width:15px;}.cls-10,.cls-11,.cls-12,.cls-13,.cls-14,.cls-15,.cls-16,.cls-27,.cls-28,.cls-30,.cls-31,.cls-33,.cls-34,.cls-35,.cls-7,.cls-8{stroke-linecap:round;}.cls-8{fill:#ffe7ff;stroke:#ffe7ff;}.cls-9{stroke-width:20px;}.cls-10,.cls-12,.cls-13,.cls-16,.cls-21{fill:#ff002e;}.cls-10{stroke-width:18px;}.cls-11,.cls-13,.cls-14,.cls-19,.cls-27,.cls-28,.cls-32,.cls-33,.cls-34,.cls-35{stroke-linejoin:round;}.cls-11{stroke-width:5px;}.cls-14,.cls-16,.cls-29,.cls-30,.cls-31,.cls-35{stroke-width:9px;}.cls-15,.cls-28,.cls-32,.cls-33{stroke-width:7px;}.cls-17{stroke-width:3px;}.cls-18,.cls-19{fill:#bfbfbf;}.cls-19{stroke:#bfbfbf;stroke-width:4px;}.cls-20,.cls-25,.cls-27,.cls-31,.cls-32,.cls-33{fill:#fff;}.cls-22{fill:#8f0023;stroke:#8f0023;}.cls-23{fill:url(#radial-gradient);}.cls-24{fill:url(#radial-gradient-2);}.cls-25{stroke:#fff;}.cls-26{fill:#c7666e;}.cls-26,.cls-34{stroke-width:10px;}.cls-27{stroke-width:13px;}.cls-34,.cls-35{fill:#ff0303;stroke:#ff0303;}</style><radialGradient id="radial-gradient" cx="575.29" cy="729.15" r="110.29" gradientUnits="userSpaceOnUse"><stop offset="0" stop-color="#ed1c24"/><stop offset="1"/></radialGradient><radialGradient id="radial-gradient-2" cx="943.27" cy="715.01" r="106.59" xlink:href="#radial-gradient"/></defs><g id="Layer_6" data-name="Layer 6"><rect class="cls-1" x="0.41" y="-0.09" width="1500" height="1500"/><path class="cls-2" d="M880.1,904.65H1070a89.66,89.66,0,0,1,89.66,89.66v244.27a0,0,0,0,1,0,0H948.82a99.36,99.36,0,0,1-99.36-99.36V935.29A30.64,30.64,0,0,1,880.1,904.65Z" transform="translate(2076.18 67.06) rotate(90)"/><path class="cls-3" d="M925.9,975.61a138.14,138.14,0,0,1,19.47,2.21c6.44,1.13,12.82,2.6,19.14,4.32a235.51,235.51,0,0,1,37,13.62,215.56,215.56,0,0,1,34.48,20.13,184.5,184.5,0,0,1,30.25,27,155.83,155.83,0,0,1,23.23,33.87,146.66,146.66,0,0,1,7.89,19.07,137.1,137.1,0,0,1,4.94,20c.27,1.69.55,3.37.78,5.06l.53,5.07c.2,1.69.28,3.39.38,5.08s.22,3.37.2,5.07a145.79,145.79,0,0,1-1.08,20.08,143.47,143.47,0,0,1-3.94,19.45,127.74,127.74,0,0,1-6.56,18.5c-.12-3.29,0-6.5-.1-9.72s-.08-6.41-.26-9.58l-.21-4.74-.34-4.72-.17-2.34-.23-2.33-.47-4.64c-.45-3.08-.72-6.14-1.31-9.17-.29-1.51-.46-3-.76-4.53l-.91-4.48a168.4,168.4,0,0,0-11.1-34.07,176.82,176.82,0,0,0-8.15-15.71,182.77,182.77,0,0,0-21-28.52c-15.85-17.78-35-33-55.64-46.65-10.31-6.86-21.06-13.25-32.09-19.42S937.58,981.4,925.9,975.61Z"/><path class="cls-3" d="M947,941.11a144,144,0,0,1,19.43,2.24c6.43,1.13,12.8,2.59,19.12,4.28a249.27,249.27,0,0,1,37,13.27,236.24,236.24,0,0,1,34.72,19.31,206.67,206.67,0,0,1,31.07,25.56,184.4,184.4,0,0,1,13.5,15.21c2.12,2.65,4.12,5.41,6.1,8.18s3.84,5.63,5.58,8.57c.91,1.44,1.76,2.92,2.59,4.41s1.69,3,2.45,4.5,1.57,3,2.32,4.56l2.13,4.66a151.75,151.75,0,0,1,6.92,19.21c.46,1.63.87,3.28,1.28,4.93s.77,3.3,1.1,5,.71,3.3,1,5,.51,3.34.75,5a142.12,142.12,0,0,1,1.2,20c0,1.67-.09,3.33-.17,5s-.11,3.31-.3,5c-.36,3.3-.61,6.57-1.21,9.82a122.49,122.49,0,0,1-4.5,19.1c-1.47-13-3.11-25.51-6-37.57l-1.09-4.51c-.39-1.49-.83-3-1.24-4.44l-.62-2.21-.68-2.2c-.46-1.45-.88-2.91-1.38-4.35-2-5.77-4.17-11.38-6.6-16.87-9.81-21.92-23.92-41.27-40.81-58.32s-36.5-31.81-57.36-45.23C1002.82,971.42,992,965.1,981,959S958.63,947,947,941.11Z"/><path class="cls-3" d="M1005.44,924.82S1130,951.65,1153,1083.89c0,0,13.37-120.66,0-128.4C1116.6,934.4,1188,925.78,1005.44,924.82Z"/><path class="cls-3" d="M958.49,979.44c-5.75-19.16,15.33-23,21.08-21.08s9.58-9.58,9.58-9.58,1.32-12.11,20.12-16.29c17.25-3.84,24.92,1.91,24.92,1.91s-57.87-23.95-74.75-3.83a109.21,109.21,0,0,1-38,28.72L947,988.8Z"/><path class="cls-4" d="M881,905.26h189.89a89.66,89.66,0,0,1,89.66,89.66v244.27a0,0,0,0,1,0,0H949.76a99.36,99.36,0,0,1-99.36-99.36V935.89A30.64,30.64,0,0,1,881,905.26Z" transform="translate(2077.72 66.73) rotate(90)"/><path class="cls-2" d="M596.26,1012s-324.88,288.26-102.17,385.39c0,0,530.84,45.21,591.12-10.05s41.87-232.76-144-403.57S596.26,1012,596.26,1012Z"/><path class="cls-3" d="M423.78,1249.67s23-24.91,36.41,1.92c9.92,19.83,18.79,64.81,22.74,86.91a4.82,4.82,0,0,1-7.62,4.73c-11.21-8.35-30.26-20.06-47.7-18.81C400.78,1326.33,423.78,1249.67,423.78,1249.67Z"/><path class="cls-5" d="M492.77,1378.08s400.38,17.85,414.84,16.59-5.72,23.62-31.08,21.72-377.28-16.9-382.44-19S492.77,1378.08,492.77,1378.08Z"/><path class="cls-3" d="M837.75,979.44s184,145.66,207,398.64c0,0,54.39,43.11,71.27-55.1,0,0,26.58-166.32-194.83-358.42h0Z"/><path class="cls-3" d="M647.05,976.57s34.5,1.91,47.91,32.58,122.66,59.41,174.41,30.66,72.83-13.41,72.83-13.41l-47.92-49.83L647.05,961.76Z"/><path class="cls-6" d="M597.62,1012.93s-324.89,288.26-102.17,385.38c0,0,530.83,45.21,591.12-10s41.86-232.76-144-403.57S597.62,1012.93,597.62,1012.93Z"/><path class="cls-2" d="M510.91,1399.19c-5.07-9.38-140.18-1.66-195.43,13.18s-54.41-28-54.41-28l-13.2-78.2s-15.6-61.61,23.19-67.23,42.13,50.14,47.29,79.46,42,18.87,42,18.87l99.88-14.76"/><path class="cls-5" d="M322.2,1403s89.86-39.32,181-24.45l4.18,18.75Z"/><path class="cls-3" d="M299.2,1259.25s-11.49-38.33-13.41-13.41c0,0,9.58,82.41,26.83,101.57,19.53,21.7,92-9.58,92-9.58s-74.74,5.75-80.49-3.83S299.2,1259.25,299.2,1259.25Z"/><path class="cls-7" d="M456.36,1324.42l-96.62,13.75s-36.79,10.43-41.95-18.88-8.51-85.07-47.3-79.45-23.18,67.22-23.18,67.22l13.2,78.2s-.83,42.84,54.41,28,190.36-22.55,195.43-13.18"/><path class="cls-2" d="M885.88,1412s84.52,14.09,104.24,28.17,78.89,0,76.08-14.08S1122.55,1234.49,1007,1288c0,0-31,33.81-25.36,84.52"/><path class="cls-8" d="M978.61,1367.54s14.22-76,27.71-75.87c7.26.09,45.12-10.38,31.7-4.63-8.17,3.51-20.86,41.94-24,56.54-4.53,21.4-3.77,45.12-8.62,48.87S990.11,1380,978.61,1367.54Z"/><path class="cls-5" d="M1017.9,1441.32c4.61,1.16,2.69-22,3.12-26.68l8.38-92.14s13-64.41,44.08-15.33c1.37,2.17.36-6.35.88-3.82,3,14.64,11.05,68.9-20,124.56,0,0-12.63,31.45-107.89-2.48,0,0-51.18-3.27-51.18-18.6,0-5.44,13.42-11.5,13.42-11.5s57.2,2.71,61.32,9.58c5.75,9.58,5.13,14.46,23,19.16C1003.36,1426.81,1002.57,1437.49,1017.9,1441.32Z"/><path class="cls-7" d="M891.41,1414.49s78.54,11.14,98.26,25.22,70.87-.69,76.07-14.08c5.82-15,46.31-161.28-32.29-147.14-18.52,3.32-34,15.91-42,32.94a112.88,112.88,0,0,0-10.27,60.66"/><path class="cls-2" d="M1255.43,523.76a356.18,356.18,0,0,1-7.63,55.73c-34.71,158.68-164.09,266.23-259.58,333.37-38.32,26.91-71.2,47.36-90.3,62a113.63,113.63,0,0,0-12.11,10.36c-47.68,49-96.67,48-134.57,33.93a183.2,183.2,0,0,1-40.82-21.92c-6.46-4.57-11.92-9-16.26-12.71a81.67,81.67,0,0,0-27.3-15.64c-58.27-19.69-258.17-98.1-315.73-263.6-21.05-60.55-29-113.24-30-157.08a413.64,413.64,0,0,1,1.75-47.53c8.14-43.31,34-83.6,73.22-118.28,83.51-73.87,227.77-122.67,391.72-122.67a784.33,784.33,0,0,1,149.67,14.14C1119.07,309.26,1250.7,407.43,1255.43,523.76Z"/><path class="cls-3" d="M838.53,261.26S1539.19,496.48,809,1010.11c0,0-42.06,4.17-20.07,17.42s100-45.31,100-45.31,224.42-156.77,228.46-176.56S1339.87,611.47,1215.3,416C1215.3,416,1061.63,257.94,838.53,261.26Z"/><path class="cls-2" d="M637.08,1089.18s0,184-6.56,226.14-19.66-7.66-19.66-7.66S592.29,1392,577,1315.32s19.67-226.14,19.67-226.14-10.12-16.21-22.75,12.54"/><path d="M637.08,1089.18c.77,11.42,1.35,22.84,1.84,34.27s.89,22.85,1.25,34.28q1.08,34.29,1.11,68.62c0,22.9-.25,45.76-1.46,68.82-.42,5.8-.71,11.54-1.46,17.52-.18,1.48-.3,3-.52,4.45s-.47,3-.77,4.54-.63,3.07-1.06,4.69a36.05,36.05,0,0,1-1.72,5.1,21.77,21.77,0,0,1-1.59,3,13,13,0,0,1-3.65,3.77,10.51,10.51,0,0,1-3.86,1.56,9.69,9.69,0,0,1-2.33.13,10.36,10.36,0,0,1-1.12-.12c-.34-.06-.68-.14-1-.23A11.08,11.08,0,0,1,619,1339a14.59,14.59,0,0,1-1.36-.76c-.36-.24-.73-.51-1.06-.76s-.59-.5-.86-.75a18.49,18.49,0,0,1-2.36-2.69,28.69,28.69,0,0,1-1.6-2.42,49.23,49.23,0,0,1-2.35-4.52c-1.36-2.94-2.45-5.8-3.45-8.67-.51-1.43-1-2.86-1.43-4.3s-.87-2.82-1.3-4.41l15.38-.31c-.78,3.43-1.59,6.59-2.49,9.86s-1.89,6.47-3,9.71-2.3,6.47-3.76,9.75c-.73,1.64-1.52,3.28-2.45,5a36.6,36.6,0,0,1-3.36,5.15c-.33.44-.76.9-1.14,1.35s-.85.91-1.37,1.37a16.48,16.48,0,0,1-3.94,2.71,12.64,12.64,0,0,1-6.4,1.22,12.11,12.11,0,0,1-3.36-.74c-.48-.19-1-.4-1.42-.63a12.47,12.47,0,0,1-1.21-.72,14.47,14.47,0,0,1-2-1.53c-.56-.52-1-1-1.5-1.54s-.8-1-1.17-1.48l-1-1.44a42.29,42.29,0,0,1-2.8-5.39,85.26,85.26,0,0,1-3.51-10.16c-1-3.32-1.75-6.62-2.44-9.91-.37-1.64-.67-3.28-1-4.92l-.84-5-.42-2.52c-.13-.83-.22-1.67-.32-2.5l-.62-5c-.34-3.34-.61-6.67-.86-10s-.37-6.65-.41-10c-.34-13.26.1-26.43,1-39.52a705.93,705.93,0,0,1,10.33-77.64l1.82-9.6,1.94-9.56c1.33-6.38,2.69-12.74,4.18-19.07,3-12.67,6-25.29,9.6-37.82l.24,1.46a8.84,8.84,0,0,0-1-1.37,10.28,10.28,0,0,0-1.24-1.23,6.62,6.62,0,0,0-2.95-1.44c-2.13-.4-4.51.72-6.49,2.38a30.25,30.25,0,0,0-5.25,6.08,82.27,82.27,0,0,0-4.2,7.1,66.62,66.62,0,0,1,3.27-7.65,31.87,31.87,0,0,1,4.74-7,14.42,14.42,0,0,1,3.54-2.79,8.93,8.93,0,0,1,4.72-1.06,9.7,9.7,0,0,1,4.63,1.64,12.79,12.79,0,0,1,1.86,1.49,12.3,12.3,0,0,1,1.62,1.84l.4.56-.15.91c-4.41,25.47-8.08,51.11-11.22,76.71-1.52,12.81-2.94,25.62-4,38.44s-2,25.63-2.46,38.42-.54,25.55.07,38.18c.12,3.17.43,6.3.63,9.44s.58,6.25.94,9.35l.64,4.62c.11.77.2,1.55.33,2.31l.42,2.27.83,4.55c.33,1.53.64,3.07,1,4.58.69,3,1.45,6,2.29,8.94a71.22,71.22,0,0,0,2.86,8.19,28.79,28.79,0,0,0,1.67,3.22c.14.19.27.38.39.58a4.18,4.18,0,0,1,.34.42l.2.2s0,.06-.06,0-.08,0-.18-.09a1.09,1.09,0,0,0-.31-.14,3.37,3.37,0,0,0-1-.22,3.45,3.45,0,0,0-1.7.28c-.43.23.22-.13.79-.94a35.84,35.84,0,0,0,3.78-6.73c1.19-2.64,2.27-5.47,3.26-8.36s1.91-5.87,2.77-8.86,1.65-6.09,2.31-9l7.14-31,8.24,30.73a108,108,0,0,0,5.06,14.95,34.46,34.46,0,0,0,1.54,3.1,13.7,13.7,0,0,0,.74,1.17c.21.3.42.55.42.55l0-.05a1.74,1.74,0,0,0-.2-.13,2.13,2.13,0,0,0-.43-.23,4,4,0,0,0-.74-.28,3.86,3.86,0,0,0-.49-.1,3.81,3.81,0,0,0-.59-.07,4.92,4.92,0,0,0-1.26.08,5.16,5.16,0,0,0-1.9.74c-.79.56-.78.74-.75.67a5.82,5.82,0,0,0,.41-.78,23.67,23.67,0,0,0,1.07-3c.33-1.14.63-2.38.91-3.64s.53-2.57.76-3.89.37-2.7.56-4c.82-5.33,1.24-11,1.8-16.58s.9-11.28,1.31-16.93l1.07-17,1-17,.91-17.08,3.49-68.4c.64-11.4,1.14-22.82,1.85-34.23S636.29,1100.59,637.08,1089.18Z"/><path class="cls-2" d="M921.23,1094.39c-17.39-28.75-31.31-12.54-31.31-12.54S938,1231.34,917,1308s-46.62-7.67-46.62-7.67-18,49.83-27.07,7.67-9-226.15-9-226.15"/><path d="M921.23,1094.39a69.49,69.49,0,0,0-6.23-7.69,29.68,29.68,0,0,0-7.55-6,13.39,13.39,0,0,0-8.66-1.66,11.67,11.67,0,0,0-4,1.51,13.66,13.66,0,0,0-1.76,1.25c-.27.24-.54.48-.79.73s-.51.54-.64.7l.43-2.11a727.33,727.33,0,0,1,23,77c6.21,26.11,11.18,52.63,13.46,79.68a279.58,279.58,0,0,1,.75,41c-.25,3.45-.42,6.89-.91,10.35-.21,1.73-.39,3.46-.64,5.19l-.89,5.19-.45,2.6-.6,2.59-1.21,5.18c-.91,3.35-1.87,6.69-3,10a100.09,100.09,0,0,1-4,10.1,47.86,47.86,0,0,1-6.19,10.24,24.28,24.28,0,0,1-5.42,5,18,18,0,0,1-4.05,2c-.38.13-.76.25-1.15.36l-1.23.25a16.05,16.05,0,0,1-2.51.25,17.65,17.65,0,0,1-8.79-2.37,26.06,26.06,0,0,1-5.65-4.4,50.71,50.71,0,0,1-7.14-9.45,102,102,0,0,1-5.07-9.6c-1.5-3.22-2.85-6.46-4.11-9.72q-.93-2.44-1.8-4.91c-.58-1.68-1.12-3.25-1.67-5.09l15,.4c-.61,1.61-1.16,3-1.78,4.41s-1.25,2.83-1.92,4.24a88.9,88.9,0,0,1-4.54,8.42,49.51,49.51,0,0,1-2.92,4.23,30.14,30.14,0,0,1-4,4.33,19.56,19.56,0,0,1-3,2.15,13.93,13.93,0,0,1-4.58,1.64,12,12,0,0,1-5.89-.51,12.93,12.93,0,0,1-4.42-2.64,19.81,19.81,0,0,1-4.19-5.65,38.36,38.36,0,0,1-2.12-5,71.14,71.14,0,0,1-2.42-9.37l-1.43-9.1c-.37-3-.62-5.92-.91-8.88l-.43-4.43-.29-4.39-.57-8.78c-.34-5.85-.56-11.67-.8-17.51l-.49-17.47c-.14-5.82-.17-11.64-.26-17.45q-.33-34.89.59-69.73c.3-11.62.59-23.23,1.11-34.84s1-23.21,1.77-34.81q1.17,17.4,2.16,34.78l2,34.76,4,69.42,1.11,17.32,1.22,17.29,1.43,17.22.85,8.56.42,4.28.55,4.21c.38,2.8.69,5.65,1.1,8.41l1.45,8.06a56.52,56.52,0,0,0,2.09,7.42,22.47,22.47,0,0,0,1.31,3,5.64,5.64,0,0,0,.93,1.33,1.88,1.88,0,0,0-.73-.41,3.32,3.32,0,0,0-1.6-.16,2.45,2.45,0,0,0-.53.14s.25-.18.5-.4a15.07,15.07,0,0,0,1.84-2.1,34.54,34.54,0,0,0,2-3,71.7,71.7,0,0,0,3.61-6.94c.56-1.22,1.1-2.46,1.61-3.71s1-2.57,1.43-3.68l7.84-21.77,7.14,22.17c.44,1.35,1,2.93,1.49,4.4s1.09,3,1.67,4.46c1.15,3,2.38,5.87,3.71,8.69a86.26,86.26,0,0,0,4.29,8.05,36,36,0,0,0,4.87,6.47,10.69,10.69,0,0,0,2.17,1.78,5.7,5.7,0,0,0,.72.32c-.07,0,0,.06.44-.23a9,9,0,0,0,1.86-1.78,33,33,0,0,0,4.09-6.85,90.26,90.26,0,0,0,3.4-8.48c1-2.94,2-6,2.84-9.07l1.12-4.54.57-2.27.43-2.32.87-4.65c.25-1.57.43-3.15.65-4.73.48-3.14.73-6.35,1-9.54a292.15,292.15,0,0,0,.32-38.94c-1.41-26.16-5-52.4-9.68-78.48-2.32-13-4.95-26-7.77-39s-5.87-26-9.2-38.78l-.34-1.31.77-.8a12.45,12.45,0,0,1,1.13-1c.37-.3.75-.58,1.14-.85a18,18,0,0,1,2.45-1.39,15.19,15.19,0,0,1,5.42-1.44,14.65,14.65,0,0,1,5.49.65,17.86,17.86,0,0,1,4.8,2.35,31.18,31.18,0,0,1,7.26,7.19A59.57,59.57,0,0,1,921.23,1094.39Z"/><path class="cls-9" d="M1256.11,523.08a356,356,0,0,1-7.63,55.73C1213.76,737.5,1084.38,845,988.9,912.18c-38.32,26.91-71.2,47.36-90.3,62a113.81,113.81,0,0,0-12.12,10.37c-47.67,49-96.67,48-134.56,33.92a183.1,183.1,0,0,1-40.83-21.92c-6.45-4.56-11.92-9-16.25-12.71a81.79,81.79,0,0,0-27.31-15.63c-58.26-19.7-258.16-98.11-315.73-263.61-21-60.55-29-113.24-30-157.08A413.77,413.77,0,0,1,323.57,500c8.15-43.3,34-83.59,73.23-118.28C480.31,307.8,624.57,259,788.52,259a785,785,0,0,1,149.66,14.14C1119.74,308.59,1251.38,406.75,1256.11,523.08Z"/><ellipse class="cls-2" cx="501.5" cy="733.78" rx="183.5" ry="181.22"/><ellipse class="cls-2" cx="1014.92" cy="723.89" rx="176.16" ry="173.97"/><path class="cls-3" d="M1044.34,551.34s159.14,154.89,43.9,329.78c0,0,116.39-50.16,101.58-179.14C1189.82,702,1190.69,592.67,1044.34,551.34Z"/><path class="cls-3" d="M685.26,733.47c0,100.09-82.15,181.22-183.5,181.22a186.41,186.41,0,0,1-29.71-2.37C559.82,898.77,627,823.78,627,733.29c0-90.09-66.57-164.83-153.78-178.85a186.81,186.81,0,0,1,28.57-2.19C603.11,552.25,685.26,633.39,685.26,733.47Z"/><path class="cls-2" d="M880.1,904.65H1070a89.66,89.66,0,0,1,89.66,89.66v244.27a0,0,0,0,1,0,0H948.82a99.36,99.36,0,0,1-99.36-99.36V935.29A30.64,30.64,0,0,1,880.1,904.65Z" transform="translate(2076.18 67.06) rotate(90)"/><path class="cls-3" d="M925.9,975.61a138.14,138.14,0,0,1,19.47,2.21c6.44,1.13,12.82,2.6,19.14,4.32a235.51,235.51,0,0,1,37,13.62,215.56,215.56,0,0,1,34.48,20.13,184.5,184.5,0,0,1,30.25,27,155.83,155.83,0,0,1,23.23,33.87,146.66,146.66,0,0,1,7.89,19.07,137.1,137.1,0,0,1,4.94,20c.27,1.69.55,3.37.78,5.06l.53,5.07c.2,1.69.28,3.39.38,5.08s.22,3.37.2,5.07a145.79,145.79,0,0,1-1.08,20.08,143.47,143.47,0,0,1-3.94,19.45,127.74,127.74,0,0,1-6.56,18.5c-.12-3.29,0-6.5-.1-9.72s-.08-6.41-.26-9.58l-.21-4.74-.34-4.72-.17-2.34-.23-2.33-.47-4.64c-.45-3.08-.72-6.14-1.31-9.17-.29-1.51-.46-3-.76-4.53l-.91-4.48a168.4,168.4,0,0,0-11.1-34.07,176.82,176.82,0,0,0-8.15-15.71,182.77,182.77,0,0,0-21-28.52c-15.85-17.78-35-33-55.64-46.65-10.31-6.86-21.06-13.25-32.09-19.42S937.58,981.4,925.9,975.61Z"/><path class="cls-3" d="M947,941.11a144,144,0,0,1,19.43,2.24c6.43,1.13,12.8,2.59,19.12,4.28a249.27,249.27,0,0,1,37,13.27,236.24,236.24,0,0,1,34.72,19.31,206.67,206.67,0,0,1,31.07,25.56,184.4,184.4,0,0,1,13.5,15.21c2.12,2.65,4.12,5.41,6.1,8.18s3.84,5.63,5.58,8.57c.91,1.44,1.76,2.92,2.59,4.41s1.69,3,2.45,4.5,1.57,3,2.32,4.56l2.13,4.66a151.75,151.75,0,0,1,6.92,19.21c.46,1.63.87,3.28,1.28,4.93s.77,3.3,1.1,5,.71,3.3,1,5,.51,3.34.75,5a142.12,142.12,0,0,1,1.2,20c0,1.67-.09,3.33-.17,5s-.11,3.31-.3,5c-.36,3.3-.61,6.57-1.21,9.82a122.49,122.49,0,0,1-4.5,19.1c-1.47-13-3.11-25.51-6-37.57l-1.09-4.51c-.39-1.49-.83-3-1.24-4.44l-.62-2.21-.68-2.2c-.46-1.45-.88-2.91-1.38-4.35-2-5.77-4.17-11.38-6.6-16.87-9.81-21.92-23.92-41.27-40.81-58.32s-36.5-31.81-57.36-45.23C1002.82,971.42,992,965.1,981,959S958.63,947,947,941.11Z"/><path class="cls-3" d="M1005.44,924.82S1130,951.65,1153,1083.89c0,0,13.37-120.66,0-128.4C1116.6,934.4,1188,925.78,1005.44,924.82Z"/><path class="cls-3" d="M958.49,979.44c-5.75-19.16,15.33-23,21.08-21.08s9.58-9.58,9.58-9.58,1.32-12.11,20.12-16.29c17.25-3.84,24.92,1.91,24.92,1.91s-57.87-23.95-74.75-3.83a109.21,109.21,0,0,1-38,28.72L947,988.8Z"/><path class="cls-4" d="M881,905.26h189.89a89.66,89.66,0,0,1,89.66,89.66v244.27a0,0,0,0,1,0,0H949.76a99.36,99.36,0,0,1-99.36-99.36V935.89A30.64,30.64,0,0,1,881,905.26Z" transform="translate(2077.72 66.73) rotate(90)"/><path class="cls-2" d="M596.26,1012s-324.88,288.26-102.17,385.39c0,0,530.84,45.21,591.12-10.05s41.87-232.76-144-403.57S596.26,1012,596.26,1012Z"/><path class="cls-3" d="M423.78,1249.67s23-24.91,36.41,1.92c9.92,19.83,18.79,64.81,22.74,86.91a4.82,4.82,0,0,1-7.62,4.73c-11.21-8.35-30.26-20.06-47.7-18.81C400.78,1326.33,423.78,1249.67,423.78,1249.67Z"/><path class="cls-5" d="M492.77,1378.08s400.38,17.85,414.84,16.59-5.72,23.62-31.08,21.72-377.28-16.9-382.44-19S492.77,1378.08,492.77,1378.08Z"/><path class="cls-3" d="M837.75,979.44s184,145.66,207,398.64c0,0,54.39,43.11,71.27-55.1,0,0,26.58-166.32-194.83-358.42h0Z"/><path class="cls-3" d="M647.05,976.57s34.5,1.91,47.91,32.58,122.66,59.41,174.41,30.66,72.83-13.41,72.83-13.41l-47.92-49.83L647.05,961.76Z"/><path class="cls-6" d="M597.62,1012.93s-324.89,288.26-102.17,385.38c0,0,530.83,45.21,591.12-10s41.86-232.76-144-403.57S597.62,1012.93,597.62,1012.93Z"/><path class="cls-2" d="M510.91,1399.19c-5.07-9.38-140.18-1.66-195.43,13.18s-54.41-28-54.41-28l-13.2-78.2s-15.6-61.61,23.19-67.23,42.13,50.14,47.29,79.46,42,18.87,42,18.87l99.88-14.76"/><path class="cls-5" d="M322.2,1403s89.86-39.32,181-24.45l4.18,18.75Z"/><path class="cls-3" d="M299.2,1259.25s-11.49-38.33-13.41-13.41c0,0,9.58,82.41,26.83,101.57,19.53,21.7,92-9.58,92-9.58s-74.74,5.75-80.49-3.83S299.2,1259.25,299.2,1259.25Z"/><path class="cls-7" d="M456.36,1324.42l-96.62,13.75s-36.79,10.43-41.95-18.88-8.51-85.07-47.3-79.45-23.18,67.22-23.18,67.22l13.2,78.2s-.83,42.84,54.41,28,190.36-22.55,195.43-13.18"/><path class="cls-2" d="M885.88,1412s84.52,14.09,104.24,28.17,78.89,0,76.08-14.08S1122.55,1234.49,1007,1288c0,0-31,33.81-25.36,84.52"/><path class="cls-8" d="M978.61,1367.54s14.22-76,27.71-75.87c7.26.09,45.12-10.38,31.7-4.63-8.17,3.51-20.86,41.94-24,56.54-4.53,21.4-3.77,45.12-8.62,48.87S990.11,1380,978.61,1367.54Z"/><path class="cls-5" d="M1017.9,1441.32c4.61,1.16,2.69-22,3.12-26.68l8.38-92.14s13-64.41,44.08-15.33c1.37,2.17.36-6.35.88-3.82,3,14.64,11.05,68.9-20,124.56,0,0-12.63,31.45-107.89-2.48,0,0-51.18-3.27-51.18-18.6,0-5.44,13.42-11.5,13.42-11.5s57.2,2.71,61.32,9.58c5.75,9.58,5.13,14.46,23,19.16C1003.36,1426.81,1002.57,1437.49,1017.9,1441.32Z"/><path class="cls-7" d="M891.41,1414.49s78.54,11.14,98.26,25.22,70.87-.69,76.07-14.08c5.82-15,46.31-161.28-32.29-147.14-18.52,3.32-34,15.91-42,32.94a112.88,112.88,0,0,0-10.27,60.66"/><path class="cls-2" d="M1255.43,523.76a356.18,356.18,0,0,1-7.63,55.73c-34.71,158.68-164.09,266.23-259.58,333.37-38.32,26.91-71.2,47.36-90.3,62a113.63,113.63,0,0,0-12.11,10.36c-47.68,49-96.67,48-134.57,33.93a183.2,183.2,0,0,1-40.82-21.92c-6.46-4.57-11.92-9-16.26-12.71a81.67,81.67,0,0,0-27.3-15.64c-58.27-19.69-258.17-98.1-315.73-263.6-21.05-60.55-29-113.24-30-157.08a413.64,413.64,0,0,1,1.75-47.53c8.14-43.31,34-83.6,73.22-118.28,83.51-73.87,227.77-122.67,391.72-122.67a784.33,784.33,0,0,1,149.67,14.14C1119.07,309.26,1250.7,407.43,1255.43,523.76Z"/><path class="cls-3" d="M838.53,261.26S1539.19,496.48,809,1010.11c0,0-42.06,4.17-20.07,17.42s100-45.31,100-45.31,224.42-156.77,228.46-176.56S1339.87,611.47,1215.3,416C1215.3,416,1061.63,257.94,838.53,261.26Z"/><path class="cls-2" d="M637.08,1089.18s0,184-6.56,226.14-19.66-7.66-19.66-7.66S592.29,1392,577,1315.32s19.67-226.14,19.67-226.14-10.12-16.21-22.75,12.54"/><path d="M637.08,1089.18c.77,11.42,1.35,22.84,1.84,34.27s.89,22.85,1.25,34.28q1.08,34.29,1.11,68.62c0,22.9-.25,45.76-1.46,68.82-.42,5.8-.71,11.54-1.46,17.52-.18,1.48-.3,3-.52,4.45s-.47,3-.77,4.54-.63,3.07-1.06,4.69a36.05,36.05,0,0,1-1.72,5.1,21.77,21.77,0,0,1-1.59,3,13,13,0,0,1-3.65,3.77,10.51,10.51,0,0,1-3.86,1.56,9.69,9.69,0,0,1-2.33.13,10.36,10.36,0,0,1-1.12-.12c-.34-.06-.68-.14-1-.23A11.08,11.08,0,0,1,619,1339a14.59,14.59,0,0,1-1.36-.76c-.36-.24-.73-.51-1.06-.76s-.59-.5-.86-.75a18.49,18.49,0,0,1-2.36-2.69,28.69,28.69,0,0,1-1.6-2.42,49.23,49.23,0,0,1-2.35-4.52c-1.36-2.94-2.45-5.8-3.45-8.67-.51-1.43-1-2.86-1.43-4.3s-.87-2.82-1.3-4.41l15.38-.31c-.78,3.43-1.59,6.59-2.49,9.86s-1.89,6.47-3,9.71-2.3,6.47-3.76,9.75c-.73,1.64-1.52,3.28-2.45,5a36.6,36.6,0,0,1-3.36,5.15c-.33.44-.76.9-1.14,1.35s-.85.91-1.37,1.37a16.48,16.48,0,0,1-3.94,2.71,12.64,12.64,0,0,1-6.4,1.22,12.11,12.11,0,0,1-3.36-.74c-.48-.19-1-.4-1.42-.63a12.47,12.47,0,0,1-1.21-.72,14.47,14.47,0,0,1-2-1.53c-.56-.52-1-1-1.5-1.54s-.8-1-1.17-1.48l-1-1.44a42.29,42.29,0,0,1-2.8-5.39,85.26,85.26,0,0,1-3.51-10.16c-1-3.32-1.75-6.62-2.44-9.91-.37-1.64-.67-3.28-1-4.92l-.84-5-.42-2.52c-.13-.83-.22-1.67-.32-2.5l-.62-5c-.34-3.34-.61-6.67-.86-10s-.37-6.65-.41-10c-.34-13.26.1-26.43,1-39.52a705.93,705.93,0,0,1,10.33-77.64l1.82-9.6,1.94-9.56c1.33-6.38,2.69-12.74,4.18-19.07,3-12.67,6-25.29,9.6-37.82l.24,1.46a8.84,8.84,0,0,0-1-1.37,10.28,10.28,0,0,0-1.24-1.23,6.62,6.62,0,0,0-2.95-1.44c-2.13-.4-4.51.72-6.49,2.38a30.25,30.25,0,0,0-5.25,6.08,82.27,82.27,0,0,0-4.2,7.1,66.62,66.62,0,0,1,3.27-7.65,31.87,31.87,0,0,1,4.74-7,14.42,14.42,0,0,1,3.54-2.79,8.93,8.93,0,0,1,4.72-1.06,9.7,9.7,0,0,1,4.63,1.64,12.79,12.79,0,0,1,1.86,1.49,12.3,12.3,0,0,1,1.62,1.84l.4.56-.15.91c-4.41,25.47-8.08,51.11-11.22,76.71-1.52,12.81-2.94,25.62-4,38.44s-2,25.63-2.46,38.42-.54,25.55.07,38.18c.12,3.17.43,6.3.63,9.44s.58,6.25.94,9.35l.64,4.62c.11.77.2,1.55.33,2.31l.42,2.27.83,4.55c.33,1.53.64,3.07,1,4.58.69,3,1.45,6,2.29,8.94a71.22,71.22,0,0,0,2.86,8.19,28.79,28.79,0,0,0,1.67,3.22c.14.19.27.38.39.58a4.18,4.18,0,0,1,.34.42l.2.2s0,.06-.06,0-.08,0-.18-.09a1.09,1.09,0,0,0-.31-.14,3.37,3.37,0,0,0-1-.22,3.45,3.45,0,0,0-1.7.28c-.43.23.22-.13.79-.94a35.84,35.84,0,0,0,3.78-6.73c1.19-2.64,2.27-5.47,3.26-8.36s1.91-5.87,2.77-8.86,1.65-6.09,2.31-9l7.14-31,8.24,30.73a108,108,0,0,0,5.06,14.95,34.46,34.46,0,0,0,1.54,3.1,13.7,13.7,0,0,0,.74,1.17c.21.3.42.55.42.55l0-.05a1.74,1.74,0,0,0-.2-.13,2.13,2.13,0,0,0-.43-.23,4,4,0,0,0-.74-.28,3.86,3.86,0,0,0-.49-.1,3.81,3.81,0,0,0-.59-.07,4.92,4.92,0,0,0-1.26.08,5.16,5.16,0,0,0-1.9.74c-.79.56-.78.74-.75.67a5.82,5.82,0,0,0,.41-.78,23.67,23.67,0,0,0,1.07-3c.33-1.14.63-2.38.91-3.64s.53-2.57.76-3.89.37-2.7.56-4c.82-5.33,1.24-11,1.8-16.58s.9-11.28,1.31-16.93l1.07-17,1-17,.91-17.08,3.49-68.4c.64-11.4,1.14-22.82,1.85-34.23S636.29,1100.59,637.08,1089.18Z"/><path class="cls-2" d="M921.23,1094.39c-17.39-28.75-31.31-12.54-31.31-12.54S938,1231.34,917,1308s-46.62-7.67-46.62-7.67-18,49.83-27.07,7.67-9-226.15-9-226.15"/><path d="M921.23,1094.39a69.49,69.49,0,0,0-6.23-7.69,29.68,29.68,0,0,0-7.55-6,13.39,13.39,0,0,0-8.66-1.66,11.67,11.67,0,0,0-4,1.51,13.66,13.66,0,0,0-1.76,1.25c-.27.24-.54.48-.79.73s-.51.54-.64.7l.43-2.11a727.33,727.33,0,0,1,23,77c6.21,26.11,11.18,52.63,13.46,79.68a279.58,279.58,0,0,1,.75,41c-.25,3.45-.42,6.89-.91,10.35-.21,1.73-.39,3.46-.64,5.19l-.89,5.19-.45,2.6-.6,2.59-1.21,5.18c-.91,3.35-1.87,6.69-3,10a100.09,100.09,0,0,1-4,10.1,47.86,47.86,0,0,1-6.19,10.24,24.28,24.28,0,0,1-5.42,5,18,18,0,0,1-4.05,2c-.38.13-.76.25-1.15.36l-1.23.25a16.05,16.05,0,0,1-2.51.25,17.65,17.65,0,0,1-8.79-2.37,26.06,26.06,0,0,1-5.65-4.4,50.71,50.71,0,0,1-7.14-9.45,102,102,0,0,1-5.07-9.6c-1.5-3.22-2.85-6.46-4.11-9.72q-.93-2.44-1.8-4.91c-.58-1.68-1.12-3.25-1.67-5.09l15,.4c-.61,1.61-1.16,3-1.78,4.41s-1.25,2.83-1.92,4.24a88.9,88.9,0,0,1-4.54,8.42,49.51,49.51,0,0,1-2.92,4.23,30.14,30.14,0,0,1-4,4.33,19.56,19.56,0,0,1-3,2.15,13.93,13.93,0,0,1-4.58,1.64,12,12,0,0,1-5.89-.51,12.93,12.93,0,0,1-4.42-2.64,19.81,19.81,0,0,1-4.19-5.65,38.36,38.36,0,0,1-2.12-5,71.14,71.14,0,0,1-2.42-9.37l-1.43-9.1c-.37-3-.62-5.92-.91-8.88l-.43-4.43-.29-4.39-.57-8.78c-.34-5.85-.56-11.67-.8-17.51l-.49-17.47c-.14-5.82-.17-11.64-.26-17.45q-.33-34.89.59-69.73c.3-11.62.59-23.23,1.11-34.84s1-23.21,1.77-34.81q1.17,17.4,2.16,34.78l2,34.76,4,69.42,1.11,17.32,1.22,17.29,1.43,17.22.85,8.56.42,4.28.55,4.21c.38,2.8.69,5.65,1.1,8.41l1.45,8.06a56.52,56.52,0,0,0,2.09,7.42,22.47,22.47,0,0,0,1.31,3,5.64,5.64,0,0,0,.93,1.33,1.88,1.88,0,0,0-.73-.41,3.32,3.32,0,0,0-1.6-.16,2.45,2.45,0,0,0-.53.14s.25-.18.5-.4a15.07,15.07,0,0,0,1.84-2.1,34.54,34.54,0,0,0,2-3,71.7,71.7,0,0,0,3.61-6.94c.56-1.22,1.1-2.46,1.61-3.71s1-2.57,1.43-3.68l7.84-21.77,7.14,22.17c.44,1.35,1,2.93,1.49,4.4s1.09,3,1.67,4.46c1.15,3,2.38,5.87,3.71,8.69a86.26,86.26,0,0,0,4.29,8.05,36,36,0,0,0,4.87,6.47,10.69,10.69,0,0,0,2.17,1.78,5.7,5.7,0,0,0,.72.32c-.07,0,0,.06.44-.23a9,9,0,0,0,1.86-1.78,33,33,0,0,0,4.09-6.85,90.26,90.26,0,0,0,3.4-8.48c1-2.94,2-6,2.84-9.07l1.12-4.54.57-2.27.43-2.32.87-4.65c.25-1.57.43-3.15.65-4.73.48-3.14.73-6.35,1-9.54a292.15,292.15,0,0,0,.32-38.94c-1.41-26.16-5-52.4-9.68-78.48-2.32-13-4.95-26-7.77-39s-5.87-26-9.2-38.78l-.34-1.31.77-.8a12.45,12.45,0,0,1,1.13-1c.37-.3.75-.58,1.14-.85a18,18,0,0,1,2.45-1.39,15.19,15.19,0,0,1,5.42-1.44,14.65,14.65,0,0,1,5.49.65,17.86,17.86,0,0,1,4.8,2.35,31.18,31.18,0,0,1,7.26,7.19A59.57,59.57,0,0,1,921.23,1094.39Z"/><path class="cls-9" d="M1256.11,523.08a356,356,0,0,1-7.63,55.73C1213.76,737.5,1084.38,845,988.9,912.18c-38.32,26.91-71.2,47.36-90.3,62a113.81,113.81,0,0,0-12.12,10.37c-47.67,49-96.67,48-134.56,33.92a183.1,183.1,0,0,1-40.83-21.92c-6.45-4.56-11.92-9-16.25-12.71a81.79,81.79,0,0,0-27.31-15.63c-58.26-19.7-258.16-98.11-315.73-263.61-21-60.55-29-113.24-30-157.08A413.77,413.77,0,0,1,323.57,500c8.15-43.3,34-83.59,73.23-118.28C480.31,307.8,624.57,259,788.52,259a785,785,0,0,1,149.66,14.14C1119.74,308.59,1251.38,406.75,1256.11,523.08Z"/><ellipse class="cls-2" cx="501.5" cy="733.78" rx="183.5" ry="181.22"/><ellipse class="cls-2" cx="1014.92" cy="723.89" rx="176.16" ry="173.97"/><path class="cls-3" d="M1044.34,551.34s159.14,154.89,43.9,329.78c0,0,116.39-50.16,101.58-179.14C1189.82,702,1190.69,592.67,1044.34,551.34Z"/><path class="cls-3" d="M685.26,733.47c0,100.09-82.15,181.22-183.5,181.22a186.41,186.41,0,0,1-29.71-2.37C559.82,898.77,627,823.78,627,733.29c0-90.09-66.57-164.83-153.78-178.85a186.81,186.81,0,0,1,28.57-2.19C603.11,552.25,685.26,633.39,685.26,733.47Z"/><path class="cls-10" d="M166.77,1184.13s137,43.79,198.46,21.43,77.43,2.74,77.43,2.74S535.5,1041.83,642,969.83c10.82-7.32-273,43.79-340.08,161.19s-135.1,53.11-135.1,53.11"/><path class="cls-11" d="M166.5,1187.5c104,44,146.55-80.7,146.55-80.7-59.63,59.63-191.93,0-191.93,0S133,1173.32,166.5,1187.5Z"/><path class="cls-12" d="M174.23,884.11s208.7-16.77,423,91.31L642,969.83,541.89,915.08S366.16,954.92,319.57,766.72c0,0-143.48,74.53-145.34,117.39"/><path class="cls-12" d="M1424.6,874.8S1240.53,782,913.29,967.22l84.58-66.34s189.57.93,183.3-185.88c0,0,195,77.8,243.43,159.8"/><path class="cls-13" d="M914,968s309.33,82,313,208.7-82,121.13-82,121.13,72.68-33.54,13.05-54-66-21.06-66-21.06S1022.1,1046.23,914,968Z"/><path class="cls-14" d="M914,968s377,201.11,259.31,311.12c0,0,57.71,15,53.86-116.4C1227.19,1162.69,1234.53,1066.73,914,968Z"/><path class="cls-14" d="M696.08,1003s-19.67,168.81-14.43,235.91c.35,4.45.8,8.45,1.38,11.93,9.32,55.9-253.43,18.63-260.88,0S549.85,1026.33,626,979.7C679.31,947.09,696.08,997.4,696.08,1003Z"/><path class="cls-15" d="M833.09,1021S796,1131.91,803.43,1245.58c0,0,8.51,28.52,36.87,34.76s235.2-16.12,246.38-49.66-130.44-246-171.44-264.61C915.24,966.07,849.71,1007.06,833.09,1021Z"/><path class="cls-16" d="M699.87,999.81s-16.77,212.43-5.59,249.7c0,0,46.59,1.87,52.18-14.9,0,0,5.59,16.77,52.18,22.36,0,0-19.49-117.37,20.5-223.62C819.14,1033.35,755.78,1046.4,699.87,999.81Z"/><line class="cls-17" x1="753.92" y1="1033.35" x2="746.46" y2="1227.15"/><circle cx="734.35" cy="1198.27" r="5.59"/><circle cx="736.21" cy="1157.27" r="5.59"/><circle cx="738.08" cy="1118.14" r="5.59"/><circle cx="741.8" cy="1075.28" r="5.59"/><path class="cls-18" d="M693.35,1017.51a113,113,0,0,0-12.73-1,78.67,78.67,0,0,0-12.67.7,38.84,38.84,0,0,0-11.92,3.51,19.18,19.18,0,0,0-4.89,3.5,14.08,14.08,0,0,0-3.16,4.91l-.68-1.68a90.94,90.94,0,0,1,14.51,8.44,83,83,0,0,1,12.77,10.94,61.82,61.82,0,0,1,10,13.72,47.05,47.05,0,0,1,5.16,16.32l0,.16v.18l-2.06,38.86c-.6,13-1.28,25.91-1.78,38.86s-1,25.92-1.35,38.88-.57,25.94.45,38.88a179.92,179.92,0,0,1-1.9-19.4c-.34-6.49-.61-13-.71-19.48-.23-13-.1-26,.13-39s.67-26,1.27-38.94l.92-19.46,1.14-19.45v.34a44.81,44.81,0,0,0-4.62-15,58.68,58.68,0,0,0-9.18-13.08,87.08,87.08,0,0,0-12-10.8,94,94,0,0,0-13.77-8.56l-1.14-.57.46-1.1a16.87,16.87,0,0,1,3.93-5.63,21.32,21.32,0,0,1,5.61-3.72,39.07,39.07,0,0,1,12.68-3.09,78.15,78.15,0,0,1,12.89,0A94.75,94.75,0,0,1,693.35,1017.51Z"/><path class="cls-18" d="M833.71,1037.08a132,132,0,0,1,13.74-3.44,110.7,110.7,0,0,1,14.09-1.9,51.29,51.29,0,0,1,14.29.78,24.06,24.06,0,0,1,6.85,2.55,14.19,14.19,0,0,1,5.33,5.27l.52.93-1,.44c-6.59,2.93-13.1,6.13-19.5,9.49s-12.72,6.87-18.83,10.71a139,139,0,0,0-17.41,12.63,52.58,52.58,0,0,0-7.29,7.65c-2.09,2.76-3.76,5.87-4,9v.13c-2.13,12.77-4.08,25.6-6,38.43s-3.63,25.67-5.32,38.53S806,1194.07,805,1207c-.57,6.46-1,12.92-1.26,19.4-.12,3.23-.17,6.47-.11,9.71a80.73,80.73,0,0,0,.63,9.7,111.75,111.75,0,0,1-1.32-19.43c0-6.5.26-13,.6-19.48.77-13,2-25.91,3.36-38.82s3.06-25.8,4.81-38.66,3.73-25.7,5.81-38.53v.13c.4-4.11,2.41-7.6,4.67-10.59a55.19,55.19,0,0,1,7.73-8.06,131.24,131.24,0,0,1,17.89-12.78c6.24-3.8,12.63-7.3,19.15-10.56s13.12-6.29,19.86-9.1l-.47,1.37a12.26,12.26,0,0,0-4.54-4.67,22.07,22.07,0,0,0-6.3-2.5,54.42,54.42,0,0,0-13.87-1.19,110.48,110.48,0,0,0-14,1.36C842.92,1035,838.28,1035.91,833.71,1037.08Z"/><path class="cls-19" d="M819,1037c-65,8-115-27-115-27s-3.72,19.63-11.22,23.35-7.49,29.82,5.69,31.68,3.3,35.41,36.26,18.64c0,0,11.53-7.46,16.48,0s6.59,11.18,19.77,5.59,14.83,5.59,14.83,5.59,9.05,19.65,16.06-10.67c0,0,2.07-11.69,8.66-9.83s14.84-7.45,9.89-16.77S819,1037,819,1037Z"/><path class="cls-20" d="M706.5,1014.5s12,6,12,10-16,38-16,38-5,7-14-10c0,0-1-12,4-19C692.5,1033.5,705.5,1021.5,706.5,1014.5Z"/><path class="cls-20" d="M733.65,1084.2c-.1,1.74-26.15,14.3-27.15-15.7,0,0,19-29,19-40,0,0,11-5,13,4S735.81,1046.9,733.65,1084.2Z"/><path class="cls-20" d="M754.5,1041.5s10-11,17,0,4,44,4,44,2,3.51-4.52,3.76-16.48.24-18.48-5.76S753.5,1055.5,754.5,1041.5Z"/><path class="cls-20" d="M786,1039s-4.37,51.69-.19,55.85,7,6.56,9.08,5.35S786,1048,786,1039Z"/><path class="cls-20" d="M802,1045s5,27.78,11,28.89,10.64-6.27,8.83-12.08S811,1069,802,1045Z"/><path d="M692.42,1033.35a62.8,62.8,0,0,0-2.91,9,23.22,23.22,0,0,0-.44,8.9,13.67,13.67,0,0,0,1.38,4,16.77,16.77,0,0,0,2.63,3.48,34.2,34.2,0,0,0,7.73,5.28,19,19,0,0,1-9.25-3.5,14.47,14.47,0,0,1-3.56-3.83,14.06,14.06,0,0,1-1.88-5,19.35,19.35,0,0,1,1.15-10.1A25,25,0,0,1,692.42,1033.35Z"/><path d="M706.11,1071.64a41.21,41.21,0,0,0,3.61,7.89,16.26,16.26,0,0,0,5.56,5.7,14.34,14.34,0,0,0,7.7,1.67,45.81,45.81,0,0,0,8.57-1.37,20,20,0,0,1-8.31,3.7,13.63,13.63,0,0,1-9.44-1.39,14.87,14.87,0,0,1-6.16-7.24A19.35,19.35,0,0,1,706.11,1071.64Z"/><path d="M752.05,1085.53c2.07.43,4,.79,6,1.12s3.88.61,5.83.83,3.89.44,5.87.56c1,.11,2,.12,3,.24s2,.13,3.1.32a19.62,19.62,0,0,1-6,1.79,24.46,24.46,0,0,1-12.43-1.48A15.74,15.74,0,0,1,752.05,1085.53Z"/><path d="M783.83,1090.83c1.17,1.4,2.21,2.72,3.31,3.92a17,17,0,0,0,3.41,3,7.52,7.52,0,0,0,4,1.17,19.11,19.11,0,0,0,4.85-.86,8.12,8.12,0,0,1-4.52,3.2,7.54,7.54,0,0,1-5.88-1,10.88,10.88,0,0,1-3.78-4.25A11.87,11.87,0,0,1,783.83,1090.83Z"/><path d="M811.48,1074.46c1.07-1,2-1.84,3-2.68l2.89-2.46c.94-.83,1.93-1.61,2.92-2.45a29.67,29.67,0,0,1,3.3-2.42,10.42,10.42,0,0,1-1.52,4,13.83,13.83,0,0,1-2.77,3.19,13.36,13.36,0,0,1-3.62,2.19A8.68,8.68,0,0,1,811.48,1074.46Z"/><path d="M593.66,1079.94S547.32,1263,558.58,1281.63s85.72,3.73,85.72,3.73l-4.06-205.42"/><path class="cls-20" d="M593.66,1079.94l-14,72.25-3.42,18.06-3.32,18.06q-3.3,18.06-6.08,36.15c-.94,6-1.81,12-2.57,18.07s-1.45,12-1.85,18c-.21,3-.35,5.94-.35,8.83,0,1.44,0,2.87.13,4.24a26.52,26.52,0,0,0,.47,3.78,8.39,8.39,0,0,0,.38,1.29l.08.16,0,.08c.12.14.19.3.33.45a8.37,8.37,0,0,0,2.1,1.78,23.46,23.46,0,0,0,6.93,2.62,80.91,80.91,0,0,0,17.05,1.75c5.9.08,11.88-.22,17.86-.66s12-1.12,18-1.92,12-1.71,17.84-2.8l-4.28,5.33-.28-25.68-.19-25.68c-.11-17.13,0-34.25,0-51.38l.2-25.69.11-12.84.21-12.85c.13-8.57.27-17.13.5-25.7s.44-17.13.75-25.7q1,12.82,1.77,25.65c.57,8.55,1,17.11,1.52,25.66l.71,12.83.62,12.83,1.21,25.66c.66,17.12,1.43,34.22,2,51.34l.83,25.67.73,25.67.13,4.46-4.41.87a329.38,329.38,0,0,1-37.06,5.21c-6.24.51-12.52.77-18.89.67a89.62,89.62,0,0,1-19.46-2.17,33.83,33.83,0,0,1-10.1-4.11,19.12,19.12,0,0,1-4.76-4.27c-.35-.44-.66-1-1-1.43-.16-.25-.34-.61-.51-.92s-.26-.59-.39-.89a18.55,18.55,0,0,1-.91-3.12,36.52,36.52,0,0,1-.62-5.34c-.09-1.69-.09-3.34-.06-5,.07-3.24.28-6.4.56-9.54,1.15-12.51,3.24-24.68,5.46-36.82,4.64-24.22,10.15-48.18,16.2-72S586.36,1103.4,593.66,1079.94Z"/><path d="M888.08,1087.39s57.89,181.2,43.19,199.83c-10.51,13.33-74.54,3.73-98.76,1.86-8.45-.65-7.47-15.92-7.48-24.39l-.3-173.57"/><path class="cls-20" d="M888.08,1087.39c3.7,9.93,7.22,19.93,10.63,29.95s6.71,20.1,9.94,30.2,6.3,20.24,9.28,30.41,5.89,20.39,8.51,30.69,5.16,20.63,7.35,31.08c1.1,5.23,2.09,10.49,2.92,15.82s1.52,10.7,1.83,16.26a62.1,62.1,0,0,1-.07,8.61,29.76,29.76,0,0,1-.77,4.73,17.2,17.2,0,0,1-.9,2.64,13.28,13.28,0,0,1-.74,1.45,10.3,10.3,0,0,1-1,1.44,16.24,16.24,0,0,1-4.5,3.67,27.31,27.31,0,0,1-4.5,2,51.78,51.78,0,0,1-8.62,2,123.34,123.34,0,0,1-16.55,1.17c-5.44.06-10.83-.07-16.19-.35-10.72-.56-21.34-1.51-31.89-2.6L837,1295l-3.89-.36-1-.08-.37,0-.45,0a7.41,7.41,0,0,1-.9-.16,11.5,11.5,0,0,1-3.56-1.44,12.67,12.67,0,0,1-4.49-5.1,20.82,20.82,0,0,1-1.74-5,48.56,48.56,0,0,1-1-8.9c-.08-2.82,0-5.55,0-8.15l.14-15.83.41-31.74.68-31.75c.09-5.29.24-10.58.42-15.87l.48-15.87c.72-21.16,1.52-42.33,2.87-63.49,1.41,21.16,2.29,42.32,3.08,63.48l.54,15.87c.19,5.29.36,10.58.47,15.87l.79,31.74.52,31.74c.06,5.31.16,10.55.19,15.91,0,2.7,0,5.25.08,7.72a37.71,37.71,0,0,0,.79,6.85,10.43,10.43,0,0,0,.87,2.47,2.23,2.23,0,0,0,.62.83s0,0,.1,0,.06,0,.08,0H833l1,.08,4,.35,15.84,1.57c10.49,1,21,2.07,31.36,2.65,5.2.28,10.39.5,15.54.49a113.1,113.1,0,0,0,15.1-.86,40.8,40.8,0,0,0,6.85-1.45,10.49,10.49,0,0,0,4.45-2.37c.12-.12.07-.06.14-.17s.1-.18.17-.31a8.63,8.63,0,0,0,.39-1.11,19,19,0,0,0,.55-3.08,59.22,59.22,0,0,0,.2-7.25c-.34-10.07-2-20.48-3.74-30.78s-3.9-20.65-6.17-30.94-4.63-20.58-7.1-30.85-5.07-20.51-7.62-30.78C898.83,1128.35,893.47,1107.88,888.08,1087.39Z"/><circle class="cls-21" cx="506.07" cy="727.9" r="186.15"/><circle class="cls-21" cx="1008.92" cy="716.26" r="179.91"/><ellipse class="cls-22" cx="536.49" cy="728.79" rx="138.16" ry="146.64" transform="translate(-213.44 1235.31) rotate(-87.68)"/><ellipse class="cls-22" cx="978.43" cy="715.27" rx="133.53" ry="141.73" transform="translate(224.11 1663.91) rotate(-87.68)"/><ellipse cx="554.65" cy="729.68" rx="121.03" ry="128.47" transform="translate(-196.91 1254.31) rotate(-87.68)"/><ellipse cx="960.89" cy="714.14" rx="116.97" ry="124.16" transform="translate(208.41 1645.31) rotate(-87.68)"/><circle class="cls-23" cx="575.29" cy="729.15" r="110.29"/><circle class="cls-24" cx="943.27" cy="715.01" r="106.59"/><path d="M408.87,509.67a105.25,105.25,0,0,1,10.19-9.38c3.56-3,7.31-5.69,11.13-8.32a173.4,173.4,0,0,1,24.27-13.75A158.39,158.39,0,0,1,508.6,464a148.22,148.22,0,0,1,28.18.74l7,1c2.31.41,4.6,1,6.9,1.43,1.15.26,2.3.48,3.43.76l3.39,1c2.25.67,4.51,1.26,6.73,2a158.39,158.39,0,0,1,48.58,26.68c-16.18-8.79-32.95-16-50.36-20.65-2.17-.58-4.38-1-6.57-1.51l-3.28-.76c-1.1-.22-2.21-.37-3.32-.56-2.21-.36-4.41-.76-6.63-1.09L536,472.3c-2.22-.3-4.46-.32-6.69-.47l-3.34-.19c-1.12-.07-2.24,0-3.35,0-2.24,0-4.47-.07-6.7,0l-6.7.35a184.05,184.05,0,0,0-52.28,12,217.71,217.71,0,0,0-24.69,11.31c-2,1-4,2.17-6,3.28s-3.93,2.3-5.88,3.49c-1,.59-2,1.19-2.92,1.81s-1.92,1.24-2.87,1.87C412.62,507,410.74,508.32,408.87,509.67Z"/><path d="M961.13,724.8c0,46.3-7.37,63.57-15.66,83.84-3.27,8-15.66-37.54-15.66-83.84s12.62-75.74,15.66-83.84C948.24,633.59,961.13,678.5,961.13,724.8Z"/><circle class="cls-25" cx="620.57" cy="675.79" r="34.42"/><circle class="cls-25" cx="1051.25" cy="683.05" r="33.97"/><path d="M1099.89,503.09c-2-1.36-3.93-2.67-6-3.91s-4-2.5-6.06-3.68q-6.12-3.57-12.43-6.69a197.92,197.92,0,0,0-25.88-10.76,152.45,152.45,0,0,0-54.49-8.21,136.27,136.27,0,0,0-53.14,13.69c-16.7,8.12-32.05,19.18-46.41,31.65A154.82,154.82,0,0,1,939,478a125,125,0,0,1,55.7-16.1,137.31,137.31,0,0,1,57,10.32,163,163,0,0,1,25.63,13.24c4,2.62,8,5.3,11.75,8.26A111,111,0,0,1,1099.89,503.09Z"/><ellipse class="cls-25" cx="465.69" cy="769.51" rx="11.91" ry="35.15" transform="matrix(0.04, -1, 1, 0.04, -322.05, 1203.64)"/><ellipse class="cls-25" cx="908.46" cy="782.19" rx="11.91" ry="35.15" transform="translate(90.1 1658.21) rotate(-87.68)"/><path d="M588,742.31c0,46.3-7.37,63.57-15.66,83.84-3.28,8-15.66-37.54-15.66-83.84s12.62-75.74,15.66-83.84C575.11,651.1,588,696,588,742.31Z"/><path class="cls-26" d="M991.22,171.17S925.48,187.8,901.67,223c-23.42,34.61-43,113.53-43.61,116.24h0a2.09,2.09,0,0,1-3.85.73l-.7-1.13a2.07,2.07,0,0,1-1.77-2.32v0c3.84-30.85,31.79-101.71,44.58-127,13.08-25.94,100.3-70.24,107.63-60.4S991.22,171.17,991.22,171.17Z"/><path class="cls-26" d="M703.54,333c5.5-26-27.63-95.52-40.93-120S546,140.77,535.75,148.93s13.3,21,13.3,21,79.8,21,105.38,54.75S695.35,333,695.35,333,699.72,351,703.54,333Z"/><path class="cls-27" d="M504.57,369.48S469.9,307.75,475,248.55c0,0,75.72,69.35,112.48,80.34Z"/><path class="cls-27" d="M1013.67,340.73s100.64-49.89,105.71-77c0,0,8.16,122.08-34.67,124.32Z"/><path class="cls-28" d="M519.79,357.64S509.65,340.73,508,334"/><line class="cls-28" x1="546.86" y1="345.8" x2="533.33" y2="330.58"/><line class="cls-28" x1="562.08" y1="337.35" x2="555.31" y2="330.58"/><line class="cls-28" x1="531.63" y1="352.57" x2="524.87" y2="342.42"/><path class="cls-28" d="M477,254s8.4,27.16,10.66,29.22"/><line class="cls-28" x1="479" y1="252" x2="497" y2="281"/><line class="cls-28" x1="1033.97" y1="350.88" x2="1049.19" y2="340.73"/><path class="cls-28" d="M1052.57,364.41s11.84-8.46,13.53-10.15"/><path class="cls-28" d="M1077.94,377.94s13.53-11.84,13.53-15.22"/><path class="cls-28" d="M1116.84,281.53s-13.53,20.3-16.91,23.68"/><line class="cls-28" x1="1116.84" y1="288.3" x2="1108.39" y2="310.29"/><line class="cls-28" x1="1047.5" y1="357.64" x2="1052.57" y2="354.26"/><line class="cls-28" x1="1069.48" y1="371.17" x2="1074.56" y2="367.79"/><path class="cls-29" d="M732.06,913.73s46.81,32.66,100.14,0"/><path class="cls-30" d="M842,921.35s-15.24-5.44-14.15-20.68"/><path class="cls-31" d="M722.26,919.18s11-3.71,13.06-15.24"/><polygon class="cls-32" points="756.01 924.62 741.86 937.68 741.5 919.18 756.01 924.62"/><polygon class="cls-33" points="817.22 921.35 815.88 939.86 802.2 926.07 817.22 921.35"/><polyline class="cls-34" points="741.85 937.13 741.86 933.33 745.12 934.42 741.86 937.68"/><polygon class="cls-35" points="811.52 936.59 815.88 939.86 815.88 934.42 811.52 936.59"/></g></svg>